<?xml version="1.0" encoding="utf-8"?>
<!-- Generator: Adobe Illustrator 16.0.0, SVG Export Plug-In . SVG Version: 6.00 Build 0)  -->
<!DOCTYPE svg PUBLIC "-//W3C//DTD SVG 1.1//EN" "http://www.w3.org/Graphics/SVG/1.1/DTD/svg11.dtd">
<svg version="1.1" id="レイヤー_1" xmlns="http://www.w3.org/2000/svg" xmlns:xlink="http://www.w3.org/1999/xlink" x="0px"
	 y="0px" width="32px" height="32px" viewBox="0 0 32 32" enable-background="new 0 0 32 32" xml:space="preserve">
<path fill="#666666" d="M16,6C10.477,6,6,10.478,6,16c0,3.306,1.611,6.228,4.083,8.048c0.458-2.858,2.929-5.046,5.917-5.046
	s5.459,2.188,5.917,5.046C24.389,22.228,26,19.306,26,16C26,10.478,21.523,6,16,6z M16,18.001c-2.209,0-4-1.791-4-4s1.791-4,4-4
	s4,1.791,4,4S18.209,18.001,16,18.001z"/>
</svg>
