<?xml version="1.0" encoding="utf-8"?>
<!-- Generator: Adobe Illustrator 16.0.0, SVG Export Plug-In . SVG Version: 6.00 Build 0)  -->
<!DOCTYPE svg PUBLIC "-//W3C//DTD SVG 1.1//EN" "http://www.w3.org/Graphics/SVG/1.1/DTD/svg11.dtd">
<svg version="1.1" id="レイヤー_1" xmlns="http://www.w3.org/2000/svg" xmlns:xlink="http://www.w3.org/1999/xlink" x="0px"
	 y="0px" width="64.001px" height="64px" viewBox="0 0 64.001 64" enable-background="new 0 0 64.001 64" xml:space="preserve">
<rect x="51.992" y="18" fill="#66B3E2" width="8" height="36"/>
<path fill="#D2D2D2" d="M60.001,6h-56c-2.209,0-4,1.791-4,4v44c0,2.209,1.791,4,4,4h56c2.209,0,4-1.791,4-4V10
	C64.001,7.791,62.21,6,60.001,6z M47.992,18v6h-8v-6H47.992z M23.992,34h-8v-6h8V34z M27.992,28h8v6h-8V28z M23.992,38v6h-8v-6
	H23.992z M27.992,38h8v6h-8V38z M39.992,38h8v6h-8V38z M39.992,34v-6h8v6H39.992z M35.992,18v6h-8v-6H35.992z M23.992,18v6h-8v-6
	H23.992z M3.992,19.284V18h8v6h-8V19.284z M3.992,28h8v6h-8V28z M3.992,38h8v6h-8V38z M5.992,54c-1.104,0-2-0.896-2-2v-4h8v6H5.992z
	 M15.992,54v-6h8v6H15.992z M27.992,54v-6h8v6H27.992z M39.992,54v-6h8v6H39.992z M59.992,52c0,1.104-0.896,2-2,2h-6v-6h8V52z
	 M59.992,44h-8v-6h8V44z M59.992,34h-8v-6h8V34z M59.992,19.284V24h-8v-6h8V19.284z"/>
<rect x="51.992" y="37.844" fill="#EF827F" width="8" height="6"/>
</svg>
