<?xml version="1.0" encoding="UTF-8" standalone="no"?>
<svg
   height="32"
   viewBox="0 -960 768 768"
   width="32"
   fill="#666666"
   version="1.1"
   id="svg1"
   xmlns="http://www.w3.org/2000/svg"
   xmlns:svg="http://www.w3.org/2000/svg">
  <defs
     id="defs1" />
  <path
     d="m 476.21102,-455.6578 27.09867,-26.05438 q 4.543,-4.5135 4.543,-10.2483 0,-5.72889 -4.543,-10.27779 l -85.17232,-85.46142 q 2.3777,-7.2452 3.90579,-14.44909 1.5222,-7.20979 1.5222,-15.42259 0,-34.34977 -24.30208,-58.65185 -24.30207,-24.30208 -58.65185,-24.30208 -10.33089,0 -21.00988,3.20369 -10.67899,3.2037 -19.93609,8.50189 l 51.97307,51.48336 -30.65047,29.52358 -51.07626,-50.69866 q -5.4103,9.2984 -8.3957,19.94198 -2.9854,10.64359 -2.9854,21.39339 0,33.97807 23.81828,57.63114 23.81238,23.65898 57.86715,23.65898 7.70539,0 15.2692,-1.23309 7.56378,-1.23901 15.13938,-3.7996 l 84.92452,85.26083 q 4.1182,4.1536 10.3132,4.1536 6.19499,0 10.34859,-4.15359 z M 383.9646,-336 q -49.53046,0 -93.30252,-18.84459 -43.77796,-18.84458 -76.37544,-51.44205 -32.59748,-32.59748 -51.44206,-76.35774 Q 144,-526.41054 144,-575.941 q 0,-49.91985 18.84458,-93.69782 18.84458,-43.77797 51.43026,-76.18074 32.57978,-32.40867 76.35182,-51.29456 Q 334.39284,-816 383.92919,-816 q 49.93165,0 93.72142,18.87999 43.78387,18.87997 76.18665,51.27096 32.39687,32.39687 51.27685,76.17482 Q 624,-625.89626 624,-575.9528 q 0,49.54226 -18.88589,93.31432 -18.88589,43.77797 -51.29456,76.36364 -32.40277,32.58567 -76.16894,51.43025 Q 433.89035,-336 383.9646,-336 Z"
     id="path1"
     style="stroke-width:0.589999" />
</svg>
