<?xml version="1.0" encoding="utf-8"?>
<!-- Generator: Adobe Illustrator 16.0.0, SVG Export Plug-In . SVG Version: 6.00 Build 0)  -->
<!DOCTYPE svg PUBLIC "-//W3C//DTD SVG 1.1//EN" "http://www.w3.org/Graphics/SVG/1.1/DTD/svg11.dtd">
<svg version="1.1" id="レイヤー_1" xmlns="http://www.w3.org/2000/svg" xmlns:xlink="http://www.w3.org/1999/xlink" x="0px"
	 y="0px" width="64.001px" height="64px" viewBox="0 0 64.001 64" enable-background="new 0 0 64.001 64" xml:space="preserve">
<path fill="#D2D2D2" d="M60.001,6h-56c-2.209,0-4,1.791-4,4v44c0,2.209,1.791,4,4,4h56c2.209,0,4-1.791,4-4V10
	C64.001,7.791,62.21,6,60.001,6z M59.992,19.284V52c0,1.104-0.896,2-2,2h-52c-1.104,0-2-0.896-2-2V19.284V18h56V19.284z"/>
<rect x="7.992" y="22" fill="#66B3E2" width="24" height="4"/>
<rect x="15.992" y="30" fill="#66B3E2" width="24" height="4"/>
<rect x="23.992" y="38" fill="#EF827F" width="24" height="4"/>
<rect x="31.992" y="46" fill="#66B3E2" width="24" height="4"/>
</svg>
