<?xml version="1.0" encoding="utf-8"?>
<!-- Generator: Adobe Illustrator 16.0.0, SVG Export Plug-In . SVG Version: 6.00 Build 0)  -->
<!DOCTYPE svg PUBLIC "-//W3C//DTD SVG 1.1//EN" "http://www.w3.org/Graphics/SVG/1.1/DTD/svg11.dtd">
<svg version="1.1" id="レイヤー_1" xmlns="http://www.w3.org/2000/svg" xmlns:xlink="http://www.w3.org/1999/xlink" x="0px"
	 y="0px" width="32px" height="32px" viewBox="0 0 32 32" enable-background="new 0 0 32 32" xml:space="preserve">
<path fill="#666666" d="M24.342,18.741L24.1,18.603l-1.66-1.521c0.055-0.354,0.092-0.713,0.092-1.082
	c0-0.36-0.035-0.711-0.088-1.056l1.898-1.738c0.479-0.276,0.643-0.888,0.365-1.366l-1-1.731c-0.275-0.479-0.887-0.643-1.365-0.366
	L22.1,9.88l-2.162,0.683c-0.563-0.457-1.201-0.824-1.889-1.089l-0.486-2.196V7c0-0.552-0.447-1-1-1h-2c-0.552,0-1,0.448-1,1
	l-0.547,2.474c-0.685,0.264-1.319,0.629-1.88,1.083L8.995,9.88L8.752,9.742c-0.478-0.276-1.089-0.112-1.365,0.366l-1,1.731
	c-0.276,0.479-0.112,1.09,0.365,1.366l1.871,1.713C8.569,15.272,8.532,15.631,8.532,16c0,0.377,0.038,0.746,0.096,1.106
	l-1.633,1.496l-0.242,0.139c-0.478,0.276-0.642,0.889-0.365,1.367l1,1.73c0.276,0.479,0.888,0.643,1.365,0.367l2.392-0.756
	c0.559,0.451,1.189,0.813,1.871,1.076L13.563,25c0,0.552,0.448,1,1,1h2c0.553,0,1-0.448,1-1v-0.278l0.486-2.195
	c0.684-0.265,1.318-0.629,1.879-1.083l2.414,0.763c0.479,0.275,1.09,0.111,1.365-0.367l1-1.73
	C24.984,19.63,24.82,19.018,24.342,18.741z M15.547,19c-1.657,0-3-1.343-3-3c0-1.657,1.343-3,3-3s3,1.343,3,3
	C18.547,17.657,17.204,19,15.547,19z"/>
</svg>
