<?xml version="1.0" encoding="utf-8"?>
<!-- Generator: Adobe Illustrator 16.0.0, SVG Export Plug-In . SVG Version: 6.00 Build 0)  -->
<!DOCTYPE svg PUBLIC "-//W3C//DTD SVG 1.1//EN" "http://www.w3.org/Graphics/SVG/1.1/DTD/svg11.dtd">
<svg version="1.1" id="レイヤー_1" xmlns="http://www.w3.org/2000/svg" xmlns:xlink="http://www.w3.org/1999/xlink" x="0px"
	 y="0px" width="64.004px" height="64px" viewBox="0 0 64.004 64" enable-background="new 0 0 64.004 64" xml:space="preserve">
<path fill="#D2D2D2" d="M32.001,24c0,2.209-1.791,4-4,4h-24c-2.209,0-4-1.791-4-4V4c0-2.209,1.791-4,4-4h24c2.209,0,4,1.791,4,4V24z
	"/>
<g>
	<path fill="#D2D2D2" d="M42.688,11.766l1.45-1.377l6.056,6.377L63.972,3.681C63.807,1.624,62.104,0,60.004,0h-20
		c-2.209,0-4,1.791-4,4v14.113L42.688,11.766z"/>
	<path fill="#D2D2D2" d="M51.57,18.216l-1.45,1.377l-6.056-6.377l-8.061,7.655V40c0,2.209,1.791,4,4,4h20c2.209,0,4-1.791,4-4V6.408
		L51.57,18.216z"/>
</g>
<rect x="40.004" y="36.002" fill="#FCD462" width="4" height="8"/>
<rect x="48.004" y="28.002" fill="#F7978F" width="4" height="16"/>
<rect x="56.004" y="20.002" fill="#6FD1A5" width="4" height="24"/>
<g>
	<rect x="18" y="50" fill="#D2D2D2" width="4" height="4"/>
	<rect x="10" y="42" fill="#D2D2D2" width="4" height="4"/>
	<rect x="10" y="50" fill="#D2D2D2" width="4" height="4"/>
	<rect x="18" y="42" fill="#D2D2D2" width="4" height="4"/>
	<path fill="#D2D2D2" d="M28.001,32h-24c-2.209,0-4,1.791-4,4v24c0,2.209,1.791,4,4,4h24c2.209,0,4-1.791,4-4V36
		C32.001,33.791,30.21,32,28.001,32z M26,42v4v4v4v4h-4h-4h-4h-4H6v-4v-4v-4v-4v-4h4h4h4h4h4V42z"/>
</g>
<rect x="6" y="5.997" fill="#9E9E9E" width="4" height="4"/>
<rect x="12" y="5.997" fill="#9E9E9E" width="14" height="4"/>
<rect x="6" y="11.997" fill="#9E9E9E" width="4" height="4"/>
<rect x="12" y="11.997" fill="#9E9E9E" width="14" height="4"/>
<rect x="6" y="17.997" fill="#9E9E9E" width="4" height="4"/>
<rect x="12" y="17.997" fill="#9E9E9E" width="14" height="4"/>
<path fill="#D2D2D2" d="M60.004,48h-20c-2.209,0-4,1.791-4,4v8c0,2.209,1.791,4,4,4h20c2.209,0,4-1.791,4-4v-8
	C64.004,49.791,62.213,48,60.004,48z M44.003,58h-4v-4h4V58z M52.003,58h-4v-4h4V58z M60.003,58h-4v-4h4V58z"/>
</svg>
