<?xml version="1.0" encoding="utf-8"?>
<!-- Generator: Adobe Illustrator 16.0.0, SVG Export Plug-In . SVG Version: 6.00 Build 0)  -->
<!DOCTYPE svg PUBLIC "-//W3C//DTD SVG 1.1//EN" "http://www.w3.org/Graphics/SVG/1.1/DTD/svg11.dtd">
<svg version="1.1" id="レイヤー_1" xmlns="http://www.w3.org/2000/svg" xmlns:xlink="http://www.w3.org/1999/xlink" x="0px"
	 y="0px" width="32px" height="32px" viewBox="0 0 32 32" enable-background="new 0 0 32 32" xml:space="preserve">
<path fill="#666666" d="M16,6C10.478,6,6,10.477,6,16c0,5.522,4.477,10,10,10s10-4.478,10-10C26,10.477,21.523,6,16,6z
	 M17.133,21.665h-2.195V19.47h2.195V21.665z M19.699,14.759c-0.273,0.433-0.857,1.021-1.754,1.766
	c-0.463,0.386-0.751,0.695-0.863,0.93c-0.112,0.234-0.163,0.654-0.152,1.258h-1.992c-0.005-0.286-0.008-0.461-0.008-0.523
	c0-0.646,0.106-1.177,0.32-1.594c0.213-0.417,0.641-0.885,1.281-1.406c0.64-0.521,1.023-0.862,1.148-1.023
	c0.193-0.255,0.289-0.536,0.289-0.844c0-0.427-0.17-0.793-0.512-1.098c-0.341-0.305-0.8-0.457-1.378-0.457
	c-0.558,0-1.023,0.159-1.398,0.477c-0.375,0.318-0.633,0.802-0.773,1.453l-2.016-0.25c0.057-0.932,0.454-1.724,1.191-2.375
	c0.737-0.651,1.704-0.977,2.902-0.977c1.26,0,2.263,0.33,3.007,0.988c0.745,0.659,1.117,1.426,1.117,2.301
	C20.109,13.868,19.973,14.327,19.699,14.759z"/>
</svg>
