<?xml version="1.0" encoding="UTF-8"?>
<svg id="_レイヤー_1" data-name="レイヤー 1" xmlns="http://www.w3.org/2000/svg" xmlns:xlink="http://www.w3.org/1999/xlink" viewBox="0 0 468.43 92.62">
  <defs>
    <style>
      .cls-1 {
        fill: #d1c5be;
      }

      .cls-1, .cls-2, .cls-3, .cls-4, .cls-5, .cls-6, .cls-7, .cls-8, .cls-9 {
        stroke-width: 0px;
      }

      .cls-10 {
        clip-path: url(#clippath);
      }

      .cls-2 {
        fill: none;
      }

      .cls-3 {
        fill: #4c4043;
      }

      .cls-4 {
        fill: #e4d6cf;
      }

      .cls-5 {
        fill: #fcc800;
      }

      .cls-6 {
        fill: #71696c;
      }

      .cls-7 {
        fill: #d9ad00;
      }

      .cls-8 {
        fill: #fff;
      }

      .cls-9 {
        fill: #655d60;
      }
    </style>
    <clipPath id="clippath">
      <path class="cls-2" d="M19.39,44.4c2.56-2.09,2.95-5.87.85-8.44l-9.29,7.58c2.09,2.56,5.87,2.95,8.44.85Z"/>
    </clipPath>
  </defs>
  <path class="cls-6" d="M93.22,37.9c-.32-2.73-.9-5.38-1.72-7.92-1.94-5.42-4.78-10.41-8.34-14.79-4.27-5.25-10.17-9.52-16.57-12.16-.58-.24-1.17-.47-1.76-.68-1.18-.43-2.37-.79-3.57-1.1-1.2-.31-2.4-.56-3.61-.74-.64-.1-1.28-.18-1.92-.25-1.29-.14-2.58-.22-3.87-.24-3.23-.06-6.47.25-9.64.92-.09.02-.19.04-.28.06-4.28.94-9.02,3.03-11.97,6.45-1.94,2.25-3.12,5.18-3.12,8.38,0,3.62,1.5,6.9,3.91,9.23-6.56.36-12.63,2.58-17.67,6.15,0,0,0,0-.01,0-.3.21-.6.43-.89.65-.08.07-.15.13-.23.19,0,0-.01.01-.02.02-2.49,1.88-3.84,5.13-3.35,8.22.35,2.24,1.65,4.31,3.5,5.61,1.25.88,2.8,1.35,3.9,2.43.97.96,1.63,2.24,1.83,3.59.24,1.68-1.01,3.67-1.88,5.08.7-.67,2.44-1.41,3.31-1.77.86-.36,1.79-.68,2.72-.84,2.03-.35,4.01-.43,5.86-1.44,1.74-.96,3.1-2.56,3.91-4.37,1.03-2.3,1.21-5.03.2-7.33-.36-.81-.85-1.55-1.22-2.35-1.81-3.88-.52-9.2,3.26-11.47.03-.02.05-.03.08-.05,1.46-.97,3.21-1.53,5.1-1.53.46,0,.91.03,1.35.1.12.03.24.06.36.09,0,0,.01,0,.02,0,.57.1,1.12.26,1.65.46.06.02.11.03.17.05.34.1.67.21,1,.33.5.17,1,.36,1.49.56,2.7,1.08,5.23,2.51,7.53,4.22,3.71,2.75,6.83,6.25,9.16,10.26-.32-.63-.49-1.34-.49-2.1,0-2.09,1.44-3.98,3.45-4.54,2.5-.69,5.56.47,7.33,2.02,0,0,11.23,8.26,9.81,28.24-.16,2.31-.5,4.78-1.04,7.4.63-.62,1.24-1.26,1.83-1.92.63-.71,1.25-1.44,1.83-2.2,1.17-1.51,2.24-3.09,3.21-4.75,1.2-2.07,2.23-4.26,3.07-6.54,1.68-4.56,2.6-9.48,2.6-14.63,0-1.69-.1-3.36-.29-4.99Z"/>
  <g>
    <path class="cls-6" d="M164.86,87.67v-12.22h4.37c2.1,0,3.94.81,3.94,3.18,0,1.27-.86,2.3-2.07,2.64v.03c1.57.24,2.44,1.64,2.44,3.17,0,1.42-.93,2.49-2.22,2.96-.63.24-1.37.25-2.1.24h-4.37ZM166.55,80.59h2.1c1.61.05,2.74-.24,2.74-1.85s-1.13-1.9-2.74-1.85h-2.1v3.69ZM166.55,86.21h2.83c1.3,0,2.39-.58,2.39-2.08s-1.08-2.08-2.39-2.08h-2.83v4.16Z"/>
    <path class="cls-6" d="M181.09,79.17h1.61v8.5h-1.57v-1.25h-.03c-.64,1.07-1.73,1.51-2.91,1.51-1.78,0-2.79-1.35-2.79-3.06v-5.69h1.61v5.03c0,1.47.34,2.56,1.88,2.56.66,0,1.56-.34,1.9-1.22.3-.8.32-1.8.32-2v-4.37Z"/>
    <path class="cls-6" d="M188.09,78.91c1.61,0,3.42.68,3.3,2.61h-1.69c.07-1.08-.76-1.44-1.69-1.44-.86,0-1.56.41-1.56,1.35s1.46,1.02,2.07,1.2c1.44.47,3.1.64,3.1,2.56,0,2.08-2.03,2.73-3.78,2.73s-3.27-.81-3.25-2.78h1.69c.03,1.05.75,1.61,1.73,1.61s1.91-.37,1.91-1.47c0-1.9-5.16-.47-5.16-3.79,0-1.78,1.79-2.57,3.34-2.57Z"/>
    <path class="cls-6" d="M193.73,75.44h1.91v1.74h-1.91v-1.74ZM193.88,87.67v-8.5h1.61v8.5h-1.61Z"/>
    <path class="cls-6" d="M200.12,80.42h.03c.54-1.07,1.73-1.51,2.57-1.51.59,0,3.22.15,3.22,2.88v5.88h-1.61v-5.35c0-1.4-.59-2.17-1.95-2.17,0,0-.88-.05-1.56.63-.24.24-.68.61-.68,2.27v4.62h-1.61v-8.5h1.57v1.25Z"/>
    <path class="cls-6" d="M209.92,83.72c-.12,1.49.49,3.03,2.13,3.03,1.25,0,1.88-.49,2.07-1.73h1.69c-.25,1.93-1.74,2.9-3.78,2.9-2.73,0-3.81-1.93-3.81-4.44s1.25-4.57,3.95-4.57c2.54.05,3.74,1.66,3.74,4.01v.8h-5.99ZM214.22,82.6c.03-1.42-.61-2.52-2.17-2.52-1.34,0-2.13,1.13-2.13,2.52h4.3Z"/>
    <path class="cls-6" d="M221,78.91c1.61,0,3.42.68,3.3,2.61h-1.69c.07-1.08-.76-1.44-1.69-1.44-.86,0-1.56.41-1.56,1.35s1.46,1.02,2.07,1.2c1.44.47,3.1.64,3.1,2.56,0,2.08-2.03,2.73-3.78,2.73s-3.27-.81-3.25-2.78h1.69c.03,1.05.75,1.61,1.73,1.61s1.91-.37,1.91-1.47c0-1.9-5.16-.47-5.16-3.79,0-1.78,1.79-2.57,3.34-2.57Z"/>
    <path class="cls-6" d="M229.46,78.91c1.61,0,3.42.68,3.3,2.61h-1.69c.07-1.08-.76-1.44-1.69-1.44-.86,0-1.56.41-1.56,1.35s1.46,1.02,2.07,1.2c1.44.47,3.1.64,3.1,2.56,0,2.08-2.03,2.73-3.78,2.73s-3.27-.81-3.25-2.78h1.69c.03,1.05.75,1.61,1.73,1.61s1.91-.37,1.91-1.47c0-1.9-5.16-.47-5.16-3.79,0-1.78,1.79-2.57,3.34-2.57Z"/>
    <path class="cls-6" d="M241.93,87.67l5.15-12.22h1.81l4.94,12.22h-1.85l-1.32-3.18h-5.67l-1.32,3.18h-1.74ZM245.57,83.03h4.55l-2.22-5.91-2.34,5.91Z"/>
    <path class="cls-6" d="M255.45,80.69c-.02-.51-.05-1.02-.08-1.52h1.64l.05,1.35h.03c.49-1.22,1.56-1.61,2.9-1.61,2.39,0,3.57,2.2,3.57,4.5s-1.02,4.5-4.08,4.5c-.69,0-1.81-.34-2.37-1.22h-.05v4.22h-1.61v-10.23ZM259.46,80.08c-1.83,0-2.4,1.79-2.4,3.34s.46,3.34,2.25,3.34c1.96,0,2.56-1.74,2.56-3.34s-.47-3.34-2.4-3.34Z"/>
    <path class="cls-6" d="M265.79,80.69c-.02-.51-.05-1.02-.08-1.52h1.64l.05,1.35h.03c.49-1.22,1.56-1.61,2.9-1.61,2.39,0,3.57,2.2,3.57,4.5s-1.02,4.5-4.08,4.5c-.69,0-1.81-.34-2.37-1.22h-.05v4.22h-1.61v-10.23ZM269.8,80.08c-1.83,0-2.4,1.79-2.4,3.34s.46,3.34,2.25,3.34c1.96,0,2.56-1.74,2.56-3.34s-.47-3.34-2.4-3.34Z"/>
    <path class="cls-6" d="M276.23,87.67v-12.22h1.61v12.22h-1.61Z"/>
    <path class="cls-6" d="M280.78,75.44h1.91v1.74h-1.91v-1.74ZM280.93,87.67v-8.5h1.61v8.5h-1.61Z"/>
    <path class="cls-6" d="M290.31,81.89c-.08-1.07-.59-1.81-1.74-1.81-1.54,0-2.13,1.34-2.13,3.34s.59,3.34,2.13,3.34c1.07,0,1.73-.69,1.81-1.91h1.61c-.13,1.91-1.56,3.08-3.44,3.08-2.73,0-3.81-1.93-3.81-4.44s1.25-4.57,3.94-4.57c1.79,0,3.15,1.13,3.23,2.98h-1.61Z"/>
    <path class="cls-6" d="M299.02,82.42c0-1.47-.08-2.34-1.79-2.34-.81,0-1.57.47-1.59,1.35h-1.69c.09-1.86,1.54-2.52,3.22-2.52s3.47.52,3.47,2.9v4.06c0,.37.02,1.08.07,1.79h-1.08c-.15,0-.44.08-.46-.12-.03-.39-.07-.76-.08-1.15h-.03c-.52,1.07-1.47,1.52-2.64,1.52-1.47,0-2.96-.76-2.96-2.42,0-2.39,2.12-3.08,4.13-3.08h1.46ZM297.41,83.54c-.98.05-2.29.41-2.29,1.64,0,1.05.73,1.57,1.68,1.57,1.9,0,2.25-1.64,2.22-3.22h-1.61Z"/>
    <path class="cls-6" d="M303.55,79.17v-1.81l1.61-.51v2.32l1.96-.05v1.2l-1.96-.02v5.49c0,.61.47.9,1.05.9.25,0,.59-.03.85-.1v1.24c-.37.02-.73.1-1.1.1s-.69-.02-1.08-.08c-.25-.05-.68-.19-.95-.56-.29-.41-.37-.44-.37-1.57v-5.4l-1.46.02v-1.2l1.46.05Z"/>
    <path class="cls-6" d="M308.99,75.44h1.91v1.74h-1.91v-1.74ZM309.14,87.67v-8.5h1.61v8.5h-1.61Z"/>
    <path class="cls-6" d="M321.36,83.42c0,2.64-1.44,4.5-4.23,4.5s-4.23-1.86-4.23-4.5,1.44-4.5,4.23-4.5,4.23,1.86,4.23,4.5ZM317.13,86.75c1.91,0,2.54-1.52,2.54-3.34s-.63-3.34-2.54-3.34-2.54,1.52-2.54,3.34.63,3.34,2.54,3.34Z"/>
    <path class="cls-6" d="M325.04,80.42h.03c.54-1.07,1.73-1.51,2.57-1.51.59,0,3.22.15,3.22,2.88v5.88h-1.61v-5.35c0-1.4-.59-2.17-1.95-2.17,0,0-.88-.05-1.56.63-.24.24-.68.61-.68,2.27v4.62h-1.61v-8.5h1.57v1.25Z"/>
    <path class="cls-6" d="M341.86,75.44h4.1c2.27-.1,4.23.75,4.23,3.42s-2.08,3.37-4.33,3.42h-2.3v5.38h-1.69v-12.22ZM346.21,80.83c.2,0,2.2.1,2.2-1.96s-2-1.96-2.2-1.96h-2.66v3.93h2.66Z"/>
    <path class="cls-6" d="M351.93,87.67v-12.22h1.61v12.22h-1.61Z"/>
    <path class="cls-6" d="M360.88,82.42c0-1.47-.08-2.34-1.79-2.34-.81,0-1.57.47-1.59,1.35h-1.69c.09-1.86,1.54-2.52,3.22-2.52s3.47.52,3.47,2.9v4.06c0,.37.02,1.08.07,1.79h-1.08c-.15,0-.44.08-.46-.12-.03-.39-.07-.76-.08-1.15h-.03c-.52,1.07-1.47,1.52-2.64,1.52-1.47,0-2.96-.76-2.96-2.42,0-2.39,2.12-3.08,4.13-3.08h1.46ZM359.28,83.54c-.98.05-2.29.41-2.29,1.64,0,1.05.73,1.57,1.68,1.57,1.9,0,2.25-1.64,2.22-3.22h-1.61Z"/>
    <path class="cls-6" d="M365.08,79.17v-1.81l1.61-.51v2.32l1.96-.05v1.2l-1.96-.02v5.49c0,.61.47.9,1.05.9.25,0,.59-.03.85-.1v1.24c-.37.02-.73.1-1.1.1s-.69-.02-1.08-.08c-.25-.05-.68-.19-.95-.56-.29-.41-.37-.44-.37-1.57v-5.4l-1.46.02v-1.2l1.46.05Z"/>
    <path class="cls-6" d="M371.37,87.67v-7.38h-1.66v-1.12h1.66v-1.63c.05-1.86,1.46-2.35,2.66-2.35.39,0,.76.1,1.15.17v1.34c-.27-.02-.54-.05-.81-.05-.91,0-1.44.24-1.39,1.17v1.35h1.96v1.12h-1.96v7.38h-1.61Z"/>
    <path class="cls-6" d="M384.49,83.42c0,2.64-1.44,4.5-4.23,4.5s-4.23-1.86-4.23-4.5,1.44-4.5,4.23-4.5,4.23,1.86,4.23,4.5ZM380.26,86.75c1.91,0,2.54-1.52,2.54-3.34s-.63-3.34-2.54-3.34-2.54,1.52-2.54,3.34.63,3.34,2.54,3.34Z"/>
    <path class="cls-6" d="M387.58,87.67h-1.61v-8.5h1.61v1.64h.03c.24-1.17,1.32-1.76,2.49-1.76.2,0,.37.02.56.02v1.52c-.22-.08-.47-.08-.69-.08-2.03.07-2.39,1.15-2.39,2.95v4.22Z"/>
    <path class="cls-6" d="M393.71,80.39h.03c.51-1.07,1.56-1.47,2.42-1.47,1.61,0,2.56.54,3,1.59.61-1.05,1.57-1.59,2.83-1.59,1.96,0,3.17,1.24,3.17,2.76v5.99h-1.61v-5.03c0-1.17-.17-2.49-2.05-2.49-.49,0-1.57.27-1.88,1.32-.22.78-.17,1.63-.17,1.83v4.37h-1.61v-5.03c0-1.47-.34-2.49-1.88-2.49-.66,0-1.61.25-2.1,1.39-.19.44-.12,1.56-.12,1.76v4.37h-1.61v-8.5h1.57v1.22Z"/>
  </g>
  <g>
    <path class="cls-3" d="M30.49,18.45c0,3.08,1.5,5.86,3.91,7.84-6.56.3-12.12,2.77-17.17,5.8,0,0-.52-.57-.52-.57-.3.18-.6.37-.89.56-.18.11.16.8-.02.92-.46.28-1.48-.07-2.02.09-2.34.73-5.18.22-6.9-1.34-1.47-1.33-1.98-3.28-1.83-5.1.67-8.35,8.72-14.62,18.07-16.34,6.28-1.15,13.02-.41,19.25.63-5.92,8.92-11.89,7.5-11.89,7.5"/>
    <path class="cls-4" d="M66.43,58.81c0,10.6-4.87,20.06-12.51,26.26-.38.31-.77.61-1.17.91-5.62,4.17-12.59,6.65-20.14,6.65-8.9,0-17-3.44-23.04-9.06-.11-.1-.22-.21-.33-.31,4.17,3.46,9.52,5.54,15.36,5.54,2.86,0,5.6-.5,8.15-1.42-.54.05-1.09.07-1.64.07-4.62,0-8.85-1.64-12.15-4.37,1.86.82,3.92,1.27,6.08,1.27,3.33,0,6.4-1.07,8.9-2.89.84-.61,1.62-1.32,2.32-2.09,2.43-2.69,3.91-6.24,3.91-10.15,0-5.95-3.44-11.1-8.44-13.57-1.39-.69-2.89-1.16-4.47-1.4-.73-.11-1.47-.16-2.22-.16-.17,0-1.38,0-1.53,0,2.96-.49,6.32-2.34,7.71-5.01,1.77-3.41,1.51-6.3-.45-9.29-2.04-3.11-1.25-7.55,1.1-10.48,2.26-2.82,6.04-4.15,9.78-3.13.59.16,1.16.38,1.73.6.71,0,1.81.7,2.49.95.85.32,1.61.7,2.41,1.12,1.56.82,3.06,1.76,4.48,2.81,3.71,2.75,6.83,6.25,9.16,10.26.07.14.14.27.23.4,0,.01,0,.02.02.03,2.73,4.87,4.28,10.49,4.28,16.48Z"/>
    <path class="cls-5" d="M17.49,68.29c-.48.05-.96.07-1.45.07-1.38,0-2.72-.17-4-.5-.69-.18-1.35-.4-2-.66-3.92-1.58-7.06-4.66-8.73-8.52-.84-1.95-1.31-4.1-1.31-6.36,0-1.7.26-3.34.76-4.88.24-.67.5-1.32.78-1.97.02-.03.03-.07.05-.11.95-2.2,2.13-4.28,3.51-6.2,1.44-2.01,3.13-3.86,4.97-5.51.3-.27.57-.5.88-.76.24-.21.48-.42.73-.61.09-.06.19-.15.28-.22-.8.61-1.5,1.35-2.05,2.19-.74,1.14-1.22,2.46-1.35,3.88-.03.27-.04.54-.04.81,0,1.04.18,2.03.52,2.95.4,1.1,1.02,2.1,1.8,2.94.03.03.06.06.09.09.82.85,1.81,1.53,2.92,1.99,0,0,0,0,0,.01,2.3.89,3.95,3.09,4.03,5.69,0,.07,0,.14,0,.2,0,1.45-.64,2.72-1.58,3.79-.28.32-.6.62-.93.92-1.07.98-2.28,1.94-2.66,3.32-.29,1.04-.3,2.19-.02,3.23.51,1.48,1.78,3.25,4.8,4.2Z"/>
    <path class="cls-6" d="M40.52,25.93c-.44-.06-.89-.1-1.35-.1-1.89,0-3.64.57-5.1,1.53-.03.02-.05.03-.08.05-3.78,2.27-5.07,7.59-3.26,11.47.37.8.86,1.54,1.22,2.35,1.01,2.31.83,5.04-.2,7.33-.82,1.82-2.17,3.42-3.91,4.37-1.85,1.02-3.83,1.1-5.86,1.44-.92.16-1.85.49-2.72.84-.88.36-2.61,1.11-3.31,1.77.87-1.41,2.12-3.39,1.88-5.08-.2-1.35-.85-2.63-1.83-3.59-1.1-1.09-2.65-1.55-3.9-2.43-1.85-1.3-3.15-3.37-3.5-5.61-.49-3.09.85-6.34,3.35-8.22,0,0,.01-.01.02-.02.08-.06.16-.13.23-.19.29-.22.59-.44.89-.65,0,0,0,0,.01,0,5.05-3.57,11.11-5.8,17.67-6.15.61-.03,1.23-.05,1.85-.05,2.72,0,5.37.32,7.9.93Z"/>
    <path class="cls-6" d="M44.24,58.69c-.22.03-.43.04-.64.04.4.78,1.27,1.26,2.19,1.13,1.17-.16,1.98-1.24,1.82-2.41-.03-.23-.1-.44-.19-.64-.74.98-1.86,1.68-3.17,1.87Z"/>
    <path class="cls-6" d="M40.19,60.68c-.17.02-.34.03-.51.04.32.63,1.01,1.01,1.75.91.93-.13,1.59-.99,1.46-1.93-.03-.18-.08-.35-.16-.51-.59.79-1.49,1.35-2.54,1.49Z"/>
    <path class="cls-6" d="M41.64,52.56c-.31.11-.63.19-.95.26.84,1.05,2.27,1.51,3.61,1.05,1.7-.59,2.6-2.44,2.01-4.14-.11-.33-.28-.63-.48-.9-.82,1.69-2.28,3.07-4.2,3.74Z"/>
    <path class="cls-6" d="M36.43,56.4c-.25.09-.5.15-.76.21.67.84,1.82,1.21,2.89.84,1.36-.47,2.08-1.95,1.61-3.31-.09-.27-.22-.51-.38-.72-.65,1.35-1.83,2.46-3.36,2.99Z"/>
    <path class="cls-1" d="M62.15,42.33s-.01-.02-.02-.03c-.08-.13-.16-.26-.23-.4-2.32-4.02-5.45-7.51-9.16-10.26-.9-.66-1.83-1.28-2.79-1.85,7.01,6.54,11.4,15.86,11.4,26.2,0,19.79-16.04,35.83-35.83,35.83-.1,0-.2,0-.29,0,2.37.53,4.84.81,7.38.81,7.54,0,14.51-2.47,20.14-6.65.4-.3.79-.6,1.17-.91,7.63-6.2,12.51-15.66,12.51-26.26,0-5.98-1.55-11.6-4.28-16.48Z"/>
    <path class="cls-7" d="M17.87,52.63c0-.12-.01-.24-.03-.37,0-.03,0-.06,0-.09,0-.01,0-.03,0-.04-.03-.31-.09-.61-.17-.91,0-.01,0-.02,0-.03-.03-.13-.07-.26-.12-.38-.02-.06-.04-.11-.06-.17-.03-.09-.06-.17-.1-.25-.05-.11-.1-.23-.16-.34-.01-.03-.03-.06-.04-.08-.23-.44-.51-.86-.83-1.24-.03-.03-.05-.06-.08-.09-.08-.09-.16-.18-.24-.26-.03-.03-.06-.06-.1-.09-.22-.21-.46-.4-.71-.57-4.4,2.25-7.25,5.8-7.25,9.8s3.07,7.82,7.76,10.05c-1.79-.98-2.65-2.31-3.05-3.46-.28-1.05-.27-2.19.02-3.23.38-1.38,1.59-2.34,2.66-3.32.2-.18.39-.37.57-.55.12-.12.24-.24.35-.37.94-1.07,1.58-2.34,1.58-3.79,0-.07,0-.14,0-.2Z"/>
    <g>
      <path class="cls-6" d="M82.01,65.53c2.89-5.93,4.53-12.6,4.53-19.64C86.54,21.19,66.6,1.15,41.94.99c-4.28.94-9.02,3.03-11.97,6.45-1.94,2.25-3.12,5.18-3.12,8.38,0,3.62,1.5,6.9,3.91,9.23.61-.03,1.23-.05,1.85-.05,2.72,0,5.37.32,7.9.93.12.03.24.06.36.09,0,0,.01,0,.02,0,.57.1,1.12.26,1.65.46.06.02.11.03.17.05.34.1.67.21,1,.33.5.17,1,.36,1.49.56,2.7,1.08,5.23,2.51,7.53,4.22,3.71,2.75,6.83,6.25,9.16,10.26-.31-.63-.49-1.34-.49-2.1,0-2.09,1.44-3.98,3.45-4.54,2.5-.69,5.56.47,7.33,2.02,0,0,11.23,8.26,9.81,28.24Z"/>
      <path class="cls-9" d="M93.22,37.9c-.32-2.73-.9-5.38-1.72-7.92-1.94-5.42-4.78-10.41-8.34-14.79-4.27-5.25-10.17-9.52-16.57-12.16-.58-.24-1.17-.47-1.76-.68-1.18-.43-2.37-.79-3.57-1.1-1.2-.31-2.4-.56-3.61-.74-.64-.1-1.28-.18-1.92-.25-1.29-.14-2.58-.22-3.87-.24-3.23-.06-6.47.25-9.64.92-.09.02-.19.04-.28.06,24.66.17,44.59,20.2,44.59,44.9,0,7.05-1.63,13.71-4.53,19.64-.16,2.31-.5,4.78-1.04,7.4.63-.62,1.24-1.26,1.83-1.92.63-.71,1.25-1.44,1.83-2.2,1.17-1.51,2.24-3.09,3.21-4.75,1.2-2.07,2.23-4.26,3.07-6.54,1.68-4.56,2.6-9.48,2.6-14.63,0-1.69-.1-3.36-.29-4.99Z"/>
    </g>
    <path class="cls-4" d="M49.16,18.79c-1.14-4.2,1.34-8.53,5.54-9.67.14-.04.29-.07.43-.1-1.72-.94-3.8-1.24-5.84-.69-4.2,1.14-6.68,5.47-5.54,9.67,1.1,4.06,5.18,6.51,9.24,5.65-1.82-.99-3.25-2.7-3.83-4.86Z"/>
    <path class="cls-4" d="M60.61,21.12c-.05-3.46,2.72-6.31,6.19-6.36.12,0,.24,0,.35,0-1.14-1.07-2.68-1.71-4.36-1.69-3.46.05-6.23,2.89-6.19,6.36.05,3.35,2.7,6.04,6,6.18-1.21-1.13-1.97-2.72-1.99-4.5Z"/>
    <path class="cls-6" d="M11.94,32.07s-5.44,4.1-7.83,8.54-1.46,9.6,2.95,10.82c3.43.94,8.4.6,7.72,6.64,1.37-1.15,1.8-1.59,4.47-2.84,2.42-3.62,1.57-7.83,1.57-7.83l-8.82-4.43s-1.21-10.02-.05-10.89Z"/>
    <path class="cls-3" d="M3.18,51.37c0,.37-.3.67-.67.67s-.67-.3-.67-.67.3-.67.67-.67.67.3.67.67Z"/>
    <g>
      <g>
        <path class="cls-5" d="M19.39,44.4c-2.56,2.09-6.34,1.71-8.44-.85l-.59.48c2.36,2.89,6.62,3.32,9.51.96s3.32-6.62.96-9.51l-.59.48c2.09,2.56,1.71,6.34-.85,8.44Z"/>
        <path class="cls-8" d="M19.39,44.4c2.56-2.09,2.95-5.87.85-8.44l-9.29,7.58c2.09,2.56,5.87,2.95,8.44.85Z"/>
      </g>
      <g class="cls-10">
        <path class="cls-3" d="M22.79,35.34c1.79,2.2,1.47,5.43-.73,7.23-2.2,1.79-5.43,1.47-7.22-.73-1.79-2.2-1.47-5.43.73-7.22,2.2-1.79,5.43-1.47,7.23.73Z"/>
        <path class="cls-8" d="M17.84,42.28c0,.64-.52,1.16-1.16,1.16s-1.16-.52-1.16-1.16.52-1.16,1.16-1.16,1.16.52,1.16,1.16Z"/>
      </g>
    </g>
  </g>
  <g>
    <g>
      <path class="cls-6" d="M119.53,58.35V9.92h14.96c10.73.07,19.79,2.62,19.79,14.89,0,8.79-5.97,14.56-16.77,14.89h-7.58v18.65h-10.4ZM129.93,31.65c5.77-.27,13.28,1.74,13.28-6.84s-7.51-6.57-13.28-6.84v13.68Z"/>
      <path class="cls-6" d="M170.74,9.92v48.43h-10.06V9.92h10.06Z"/>
      <path class="cls-6" d="M189.08,44.2c0,4.36.6,8.45,5.77,8.45,3.49,0,5.23-1.27,6.17-4.36h9.06c-.87,8.32-7.38,11.07-15.23,11.07-11.54,0-16.17-6.51-16.17-17.78,0-10.13,5.9-17.91,16.17-17.91,6.31,0,11.54,2.15,14.35,8.05.94,1.88,1.41,3.89,1.68,6.04.27,2.08.27,4.23.27,6.44h-22.07ZM200.75,37.49c0-3.69-1.01-7.11-5.9-7.11-4.63,0-5.63,3.42-5.77,7.11h11.67Z"/>
      <path class="cls-6" d="M218.29,34.2c.07-4.23,1.88-6.84,4.56-8.38,2.75-1.61,6.31-2.15,9.93-2.15,6.77,0,14.35,2.48,14.35,12.61v18.38c.07,1.68.34,2.68.47,3.69h-9.06c-.2-1.54-.34-3.09-.34-4.49h-.13c-2.28,3.89-5.77,5.5-10.33,5.5-6.31,0-11-3.62-11-10.2,0-2.35,1.07-8.05,7.18-10.66,4.02-1.74,9.12-1.95,13.15-1.81v-3.15c0-1.41-1.07-4.16-4.63-4.16s-4.63,3.29-4.49,4.83h-9.66ZM226.4,47.82c0,2.82,2.08,4.83,4.9,4.83,5.57,0,5.77-6.17,5.77-10.13-3.49-.07-10.67-.13-10.67,5.3Z"/>
      <path class="cls-6" d="M272.08,33.67c-.13-2.28-2.28-3.29-4.56-3.29-2.75,0-4.02.8-4.02,3.02,0,5.3,19.25,2.28,19.25,14.89,0,7.38-8.99,11.07-15.23,11.07-7.85,0-14.69-3.09-14.82-10.8h9.32c.2,2.62,2.55,4.09,5.5,4.09,2.75,0,4.83-1.14,4.83-3.76s-4.83-3.82-6.84-4.29c-6.44-1.54-12.41-2.95-12.41-10.8,0-7.04,8.52-10.13,14.42-10.13,7.11,0,13.15,2.55,13.62,9.99h-9.06Z"/>
      <path class="cls-6" d="M289.84,34.2c.07-4.23,1.88-6.84,4.56-8.38,2.75-1.61,6.31-2.15,9.93-2.15,6.77,0,14.35,2.48,14.35,12.61v18.38c.07,1.68.34,2.68.47,3.69h-9.06c-.2-1.54-.34-3.09-.34-4.49h-.13c-2.28,3.89-5.77,5.5-10.33,5.5-6.31,0-11-3.62-11-10.2,0-2.35,1.07-8.05,7.18-10.66,4.02-1.74,9.12-1.95,13.15-1.81v-3.15c0-1.41-1.07-4.16-4.63-4.16s-4.63,3.29-4.49,4.83h-9.66ZM297.95,47.82c0,2.82,2.08,4.83,4.9,4.83,5.57,0,5.77-6.17,5.77-10.13-3.49-.07-10.67-.13-10.67,5.3Z"/>
      <path class="cls-6" d="M337.26,28.57l.13.2c2.08-3.09,5.23-5.1,10.33-5.1,3.35,0,9.86,2.48,11.07,7.38.54,2.08.67,4.23.67,5.37v21.93h-10.06v-20.26c-.07-3.62-1.07-7.71-6.04-7.71-3.15,0-5.9,2.82-6.04,7.71v20.26h-10.06V24.68h9.99v3.89Z"/>
      <path class="cls-6" d="M371.67,24.68v-6.64l10.06-3.62v10.26h7.58v6.71h-7.58v15.63c0,4.43.67,5.63,4.16,5.63,1.07,0,2.15-.13,3.22-.2v5.9c-1.14.54-6.51,1.01-7.92,1.01-7.85,0-9.53-4.09-9.53-11.4v-16.57h-6.78v-6.71h6.78Z"/>
      <path class="cls-6" d="M405.2,44.2c0,4.36.6,8.45,5.77,8.45,3.49,0,5.23-1.27,6.17-4.36h9.06c-.87,8.32-7.38,11.07-15.23,11.07-11.54,0-16.17-6.51-16.17-17.78,0-10.13,5.9-17.91,16.17-17.91,6.31,0,11.54,2.15,14.35,8.05.94,1.88,1.41,3.89,1.68,6.04.27,2.08.27,4.23.27,6.44h-22.07ZM416.88,37.49c0-3.69-1.01-7.11-5.9-7.11-4.63,0-5.63,3.42-5.77,7.11h11.67Z"/>
    </g>
    <path class="cls-6" d="M455.28,33.39c3.41-1.22,9.09-3.64,13.15-13.8-2.84,1.35-8.1,2.43-14.39,4.33-6.39,1.93-9.63,9.44-10.59,12.07v-11.06h-9.73v33.42h9.73v-7.6s0-5.7,8.66-8.79c5.63-2.01,9.12-4.66,12.37-11.29,0,0-5.71,3.39-9.21,2.71Z"/>
  </g>
</svg>