<?xml version="1.0" encoding="UTF-8"?>
<svg id="_レイヤー_1" data-name="レイヤー 1" xmlns="http://www.w3.org/2000/svg" xmlns:xlink="http://www.w3.org/1999/xlink" viewBox="0 0 243.76 241.44">
  <defs>
    <style>
      .cls-1 {
        fill: #d1c5be;
      }

      .cls-1, .cls-2, .cls-3, .cls-4, .cls-5, .cls-6, .cls-7, .cls-8, .cls-9 {
        stroke-width: 0px;
      }

      .cls-10 {
        clip-path: url(#clippath);
      }

      .cls-2 {
        fill: none;
      }

      .cls-3 {
        fill: #4c4043;
      }

      .cls-4 {
        fill: #e4d6cf;
      }

      .cls-5 {
        fill: #fcc800;
      }

      .cls-6 {
        fill: #71696c;
      }

      .cls-7 {
        fill: #d9ad00;
      }

      .cls-8 {
        fill: #fff;
      }

      .cls-9 {
        fill: #655d60;
      }
    </style>
    <clipPath id="clippath">
      <path class="cls-2" d="M50.55,115.74c6.69-5.46,7.68-15.3,2.22-21.99l-24.21,19.77c5.46,6.69,15.3,7.68,21.99,2.22Z"/>
    </clipPath>
  </defs>
  <path class="cls-6" d="M243,98.8c-.84-7.12-2.35-14.02-4.49-20.65-5.04-14.13-12.45-27.14-21.74-38.56-11.14-13.68-26.5-24.82-43.18-31.7-1.52-.63-3.04-1.22-4.58-1.77-3.07-1.11-6.18-2.07-9.3-2.88-3.12-.81-6.26-1.46-9.4-1.94-1.67-.26-3.34-.48-5.01-.66-3.35-.36-6.72-.57-10.09-.63-8.43-.14-16.87.66-25.12,2.39-.24.05-.49.11-.74.17-11.17,2.46-23.52,7.89-31.21,16.8-5.06,5.87-8.12,13.51-8.12,21.86,0,9.44,3.9,17.97,10.19,24.05-17.11.93-32.92,6.73-46.07,16.04-.01,0-.02.01-.03.01-.78.56-1.55,1.12-2.31,1.7-.2.17-.4.35-.61.51-.02.01-.03.03-.06.04-6.5,4.9-10,13.36-8.73,21.43.92,5.83,4.29,11.23,9.13,14.62,3.27,2.29,7.29,3.51,10.16,6.34,2.54,2.5,4.25,5.84,4.76,9.37.63,4.39-2.64,9.56-4.9,13.23,1.84-1.74,6.35-3.68,8.64-4.62,2.25-.93,4.68-1.78,7.08-2.2,5.29-.91,10.45-1.11,15.28-3.77,4.55-2.5,8.07-6.67,10.2-11.4,2.69-5.99,3.16-13.1.52-19.11-.93-2.11-2.2-4.04-3.18-6.13-4.72-10.11-1.35-23.99,8.5-29.9.07-.04.13-.09.2-.13,3.81-2.52,8.38-3.99,13.3-3.99,1.2,0,2.38.09,3.53.26.31.08.63.16.95.24.01,0,.03,0,.05,0,1.48.27,2.92.67,4.3,1.2.15.05.3.09.45.14.88.27,1.75.56,2.62.86,1.32.45,2.62.94,3.9,1.46,7.04,2.83,13.62,6.54,19.63,10.99,9.67,7.17,17.81,16.28,23.87,26.75-.82-1.65-1.28-3.5-1.28-5.47,0-5.45,3.74-10.38,9-11.84,6.52-1.81,14.49,1.23,19.12,5.25,0,0,29.27,21.52,25.57,73.62-.43,6.02-1.3,12.45-2.7,19.3,1.64-1.62,3.23-3.28,4.76-5,1.65-1.85,3.25-3.76,4.77-5.73,3.05-3.93,5.85-8.07,8.36-12.39,3.14-5.41,5.82-11.11,8.02-17.05,4.38-11.88,6.78-24.72,6.78-38.12,0-4.4-.26-8.75-.76-13.02Z"/>
  <g>
    <path class="cls-3" d="M79.49,48.09c0,8.02,3.9,15.27,10.19,20.44-17.11.79-31.6,7.22-44.75,15.13-.01,0-1.34-1.49-1.34-1.49-.79.47-1.56.95-2.32,1.45-.46.29.41,2.09-.05,2.4-1.2.72-3.85-.19-5.26.24-6.11,1.89-13.5.56-17.98-3.49-3.84-3.48-5.16-8.54-4.78-13.3,1.75-21.77,22.74-38.12,47.09-42.59,16.38-3.01,33.94-1.06,50.18,1.65-15.44,23.24-30.98,19.55-30.98,19.55"/>
    <path class="cls-4" d="M173.16,153.3c0,27.62-12.71,52.28-32.6,68.44-1,.81-2.02,1.6-3.05,2.37-14.66,10.88-32.82,17.33-52.49,17.33-23.2,0-44.3-8.96-60.05-23.62-.29-.26-.57-.54-.86-.81,10.86,9.01,24.81,14.43,40.03,14.43,7.45,0,14.61-1.3,21.24-3.69-1.41.13-2.83.19-4.27.19-12.04,0-23.08-4.28-31.68-11.4,4.85,2.13,10.21,3.31,15.84,3.31,8.67,0,16.69-2.8,23.2-7.54,2.2-1.6,4.23-3.43,6.05-5.44,6.33-7,10.19-16.28,10.19-26.46,0-15.52-8.96-28.94-21.99-35.38-3.61-1.79-7.53-3.03-11.66-3.64-1.89-.28-3.83-.42-5.8-.42-.45,0-3.59.02-4-.02,7.7-1.27,16.49-6.1,20.11-13.07,4.62-8.88,3.95-16.42-1.18-24.22-5.33-8.1-3.25-19.68,2.87-27.32,5.89-7.36,15.75-10.82,25.49-8.15,1.53.42,3.02.99,4.5,1.56,1.85,0,4.73,1.81,6.48,2.48,2.21.85,4.19,1.82,6.28,2.91,4.08,2.13,7.99,4.59,11.68,7.33,9.67,7.17,17.81,16.28,23.87,26.75.18.35.38.7.59,1.04,0,.03.02.05.04.08,7.1,12.71,11.15,27.35,11.15,42.95Z"/>
    <path class="cls-5" d="M45.59,178.02c-1.25.12-2.51.17-3.78.17-3.6,0-7.09-.45-10.42-1.31-1.79-.46-3.53-1.03-5.21-1.72-10.21-4.11-18.41-12.14-22.76-22.21-2.2-5.08-3.42-10.68-3.42-16.57,0-4.43.69-8.7,1.97-12.72.62-1.74,1.29-3.44,2.02-5.14.04-.09.08-.18.13-.28,2.48-5.73,5.55-11.15,9.14-16.17,3.76-5.25,8.17-10.07,12.95-14.37.78-.7,1.47-1.3,2.28-1.97.63-.54,1.26-1.09,1.91-1.59.24-.17.49-.39.72-.57-2.09,1.58-3.9,3.51-5.34,5.72-1.93,2.96-3.18,6.41-3.52,10.12-.07.7-.1,1.41-.1,2.12,0,2.7.47,5.28,1.35,7.68,1.04,2.87,2.65,5.47,4.7,7.66.07.08.15.16.23.24,2.14,2.21,4.72,3.99,7.62,5.19,0,0,0,.02,0,.03,6.01,2.32,10.31,8.05,10.51,14.82.01.17.01.35.01.53,0,3.78-1.68,7.08-4.12,9.88-.72.83-1.55,1.62-2.41,2.41-2.8,2.55-5.95,5.06-6.94,8.66-.74,2.72-.78,5.7-.05,8.43,1.33,3.85,4.64,8.47,12.51,10.94Z"/>
    <path class="cls-6" d="M105.62,67.58c-1.15-.17-2.32-.26-3.53-.26-4.93,0-9.5,1.48-13.3,3.99-.07.04-.13.09-.2.13-9.85,5.91-13.22,19.79-8.5,29.9.97,2.09,2.25,4.02,3.18,6.13,2.64,6.01,2.17,13.13-.52,19.11-2.13,4.73-5.65,8.9-10.2,11.4-4.83,2.65-9.99,2.86-15.28,3.77-2.4.41-4.83,1.27-7.08,2.2-2.29.95-6.8,2.89-8.64,4.62,2.26-3.68,5.53-8.84,4.9-13.23-.51-3.53-2.22-6.87-4.76-9.37-2.87-2.83-6.9-4.05-10.16-6.34-4.83-3.39-8.2-8.79-9.13-14.62-1.28-8.07,2.23-16.52,8.73-21.43.02-.01.03-.03.06-.04.21-.16.41-.33.61-.51.76-.58,1.53-1.15,2.31-1.7,0,0,.01,0,.03-.01,13.15-9.31,28.96-15.11,46.07-16.04,1.59-.08,3.2-.13,4.82-.13,7.09,0,13.99.84,20.6,2.42Z"/>
    <path class="cls-6" d="M115.32,152.98c-.56.08-1.12.11-1.67.12,1.05,2.04,3.31,3.29,5.71,2.96,3.04-.42,5.17-3.23,4.75-6.27-.08-.59-.26-1.15-.51-1.67-1.93,2.57-4.84,4.39-8.27,4.87Z"/>
    <path class="cls-6" d="M104.77,158.18c-.45.06-.9.09-1.34.09.84,1.63,2.65,2.63,4.57,2.37,2.43-.34,4.14-2.58,3.8-5.02-.07-.48-.21-.92-.4-1.33-1.54,2.05-3.87,3.51-6.62,3.89Z"/>
    <path class="cls-6" d="M108.55,137c-.82.28-1.64.5-2.47.67,2.18,2.74,5.93,3.95,9.42,2.74,4.43-1.53,6.78-6.37,5.25-10.8-.3-.87-.73-1.65-1.25-2.34-2.13,4.41-5.95,8.01-10.94,9.74Z"/>
    <path class="cls-6" d="M94.98,147.02c-.66.23-1.32.4-1.98.54,1.74,2.19,4.74,3.16,7.54,2.19,3.54-1.23,5.42-5.1,4.2-8.64-.24-.69-.58-1.32-1-1.88-1.7,3.53-4.76,6.41-8.76,7.79Z"/>
    <path class="cls-1" d="M162,110.35s-.03-.05-.04-.08c-.22-.33-.41-.68-.59-1.04-6.05-10.47-14.2-19.58-23.87-26.75-2.34-1.73-4.77-3.34-7.26-4.84,18.28,17.05,29.71,41.34,29.71,68.3,0,51.58-41.81,93.39-93.39,93.39-.26,0-.51,0-.77,0,6.19,1.38,12.62,2.11,19.23,2.11,19.66,0,37.83-6.44,52.49-17.33,1.04-.77,2.06-1.56,3.05-2.37,19.89-16.16,32.6-40.82,32.6-68.44,0-15.59-4.05-30.24-11.15-42.95Z"/>
    <path class="cls-7" d="M46.59,137.18c0-.32-.04-.64-.07-.95,0-.07,0-.15-.02-.22,0-.04,0-.07,0-.11-.09-.81-.23-1.6-.44-2.37,0-.03-.02-.06-.03-.09-.09-.34-.19-.67-.3-1-.05-.14-.1-.29-.16-.43-.08-.22-.16-.44-.26-.66-.13-.3-.26-.59-.41-.88-.04-.07-.07-.15-.1-.22-.59-1.16-1.32-2.24-2.17-3.23-.07-.08-.14-.15-.21-.23-.21-.23-.42-.46-.64-.68-.08-.08-.17-.16-.25-.24-.57-.55-1.19-1.03-1.84-1.48-11.48,5.85-18.9,15.11-18.9,25.54s7.99,20.39,20.22,26.19c-4.66-2.56-6.91-6.03-7.94-9.03-.73-2.73-.7-5.71.05-8.43.99-3.6,4.14-6.11,6.94-8.66.52-.47,1.02-.95,1.5-1.44.32-.32.63-.64.92-.97,2.44-2.8,4.12-6.1,4.12-9.88,0-.17,0-.35-.01-.53Z"/>
    <g>
      <path class="cls-6" d="M213.78,170.81c7.54-15.47,11.8-32.83,11.8-51.2C225.58,55.23,173.6,3.01,109.33,2.57c-11.17,2.46-23.52,7.89-31.21,16.8-5.06,5.87-8.12,13.51-8.12,21.86,0,9.44,3.9,17.97,10.19,24.05,1.59-.08,3.2-.13,4.82-.13,7.09,0,13.99.84,20.6,2.42.31.08.63.16.95.24.01,0,.03,0,.05,0,1.48.27,2.92.68,4.3,1.2.15.05.3.09.45.14.88.27,1.75.56,2.62.86,1.32.45,2.62.94,3.9,1.46,7.04,2.83,13.62,6.54,19.63,10.99,9.67,7.17,17.81,16.28,23.87,26.75-.82-1.65-1.28-3.5-1.28-5.47,0-5.45,3.74-10.38,9-11.84,6.52-1.81,14.49,1.23,19.12,5.25,0,0,29.27,21.52,25.57,73.62Z"/>
      <path class="cls-9" d="M243,98.8c-.84-7.12-2.35-14.02-4.49-20.65-5.04-14.13-12.45-27.14-21.74-38.56-11.14-13.68-26.5-24.82-43.18-31.7-1.52-.63-3.04-1.22-4.58-1.77-3.07-1.11-6.18-2.07-9.3-2.88-3.12-.81-6.26-1.46-9.4-1.94-1.67-.26-3.34-.48-5.01-.66-3.35-.36-6.72-.57-10.09-.63-8.43-.14-16.87.66-25.12,2.39-.24.05-.49.11-.74.17,64.27.43,116.24,52.66,116.24,117.04,0,18.37-4.25,35.73-11.8,51.2-.43,6.02-1.3,12.45-2.7,19.3,1.64-1.62,3.23-3.28,4.76-5,1.65-1.85,3.25-3.76,4.77-5.73,3.05-3.93,5.85-8.07,8.36-12.39,3.14-5.41,5.82-11.11,8.02-17.05,4.38-11.88,6.78-24.72,6.78-38.12,0-4.4-.26-8.75-.76-13.02Z"/>
    </g>
    <path class="cls-4" d="M128.15,48.98c-2.97-10.95,3.5-22.24,14.45-25.22.37-.1.75-.19,1.12-.27-4.49-2.45-9.9-3.24-15.22-1.79-10.95,2.97-17.43,14.26-14.45,25.22,2.87,10.58,13.5,16.98,24.09,14.72-4.74-2.59-8.46-7.03-9.99-12.66Z"/>
    <path class="cls-4" d="M157.98,55.05c-.12-9.03,7.1-16.45,16.12-16.57.31,0,.61,0,.92.01-2.98-2.78-6.99-4.45-11.38-4.39-9.03.12-16.25,7.54-16.12,16.57.12,8.72,7.04,15.75,15.65,16.11-3.14-2.93-5.13-7.09-5.19-11.73Z"/>
    <path class="cls-6" d="M31.12,83.59s-14.18,10.69-20.42,22.27c-6.23,11.58-3.8,25.03,7.7,28.2,8.93,2.46,21.89,1.56,20.13,17.3,3.57-3,4.69-4.14,11.64-7.41,6.3-9.45,4.08-20.41,4.08-20.41l-23-11.56s-3.15-26.13-.14-28.4Z"/>
    <path class="cls-3" d="M8.28,133.9c0,.97-.78,1.75-1.75,1.75s-1.75-.78-1.75-1.75.78-1.75,1.75-1.75,1.75.78,1.75,1.75Z"/>
    <g>
      <g>
        <path class="cls-5" d="M50.55,115.74c-6.69,5.46-16.53,4.46-21.99-2.22l-1.54,1.26c6.14,7.53,17.26,8.65,24.79,2.51s8.65-17.26,2.51-24.79l-1.54,1.26c5.46,6.69,4.46,16.53-2.22,21.99Z"/>
        <path class="cls-8" d="M50.55,115.74c6.69-5.46,7.68-15.3,2.22-21.99l-24.21,19.77c5.46,6.69,15.3,7.68,21.99,2.22Z"/>
      </g>
      <g class="cls-10">
        <path class="cls-3" d="M59.4,92.13c4.67,5.73,3.82,14.16-1.9,18.83-5.73,4.67-14.16,3.82-18.83-1.9-4.68-5.73-3.82-14.16,1.9-18.83,5.73-4.67,14.16-3.82,18.83,1.9Z"/>
        <path class="cls-8" d="M46.49,110.2c0,1.67-1.35,3.02-3.02,3.02s-3.02-1.35-3.02-3.02,1.35-3.02,3.02-3.02,3.02,1.35,3.02,3.02Z"/>
      </g>
    </g>
  </g>
</svg>