<?xml version="1.0" encoding="UTF-8"?>
<svg id="_レイヤー_1" data-name="レイヤー 1" xmlns="http://www.w3.org/2000/svg" xmlns:xlink="http://www.w3.org/1999/xlink" viewBox="0 0 467.2 75.61">
  <defs>
    <style>
      .cls-1 {
        fill: #d1c5be;
      }

      .cls-1, .cls-2, .cls-3, .cls-4, .cls-5, .cls-6, .cls-7, .cls-8, .cls-9 {
        stroke-width: 0px;
      }

      .cls-10 {
        clip-path: url(#clippath);
      }

      .cls-2 {
        fill: none;
      }

      .cls-3 {
        fill: #4c4043;
      }

      .cls-4 {
        fill: #e4d6cf;
      }

      .cls-5 {
        fill: #fcc800;
      }

      .cls-6 {
        fill: #71696c;
      }

      .cls-7 {
        fill: #d9ad00;
      }

      .cls-8 {
        fill: #fff;
      }

      .cls-9 {
        fill: #655d60;
      }
    </style>
    <clipPath id="clippath">
      <path class="cls-2" d="M15.83,36.24c2.09-1.71,2.41-4.79.7-6.89l-7.58,6.19c1.71,2.09,4.79,2.41,6.89.7Z"/>
    </clipPath>
  </defs>
  <g>
    <path class="cls-6" d="M76.09,30.94c-.26-2.23-.74-4.39-1.4-6.47-1.58-4.42-3.9-8.5-6.81-12.07-3.49-4.28-8.3-7.77-13.52-9.93-.47-.2-.95-.38-1.43-.55-.96-.35-1.93-.65-2.91-.9-.98-.25-1.96-.46-2.94-.61-.52-.08-1.05-.15-1.57-.21-1.05-.11-2.1-.18-3.16-.2-2.64-.05-5.28.21-7.87.75-.08.02-.15.03-.23.05-3.5.77-7.37,2.47-9.77,5.26-1.58,1.84-2.54,4.23-2.54,6.84,0,2.96,1.22,5.63,3.19,7.53-5.36.29-10.31,2.11-14.43,5.02,0,0,0,0,0,0-.24.17-.49.35-.72.53-.06.05-.13.11-.19.16,0,0-.01,0-.02.01-2.04,1.54-3.13,4.18-2.73,6.71.29,1.83,1.34,3.52,2.86,4.58,1.02.72,2.28,1.1,3.18,1.99.79.78,1.33,1.83,1.49,2.93.2,1.37-.83,2.99-1.53,4.14.58-.54,1.99-1.15,2.7-1.45.7-.29,1.46-.56,2.22-.69,1.66-.28,3.27-.35,4.79-1.18,1.42-.78,2.53-2.09,3.19-3.57.84-1.87.99-4.1.16-5.99-.29-.66-.69-1.27-.99-1.92-1.48-3.17-.42-7.51,2.66-9.36.02-.01.04-.03.06-.04,1.19-.79,2.62-1.25,4.17-1.25.38,0,.75.03,1.1.08.1.02.2.05.3.07,0,0,0,0,.02,0,.46.08.92.21,1.35.38.05.02.09.03.14.04.28.08.55.17.82.27.41.14.82.29,1.22.46,2.21.88,4.27,2.05,6.15,3.44,3.03,2.25,5.58,5.1,7.47,8.38-.26-.52-.4-1.1-.4-1.71,0-1.71,1.17-3.25,2.82-3.71,2.04-.57,4.54.39,5.99,1.65,0,0,9.17,6.74,8.01,23.05-.13,1.89-.41,3.9-.85,6.04.51-.51,1.01-1.03,1.49-1.57.52-.58,1.02-1.18,1.49-1.79.96-1.23,1.83-2.53,2.62-3.88.98-1.69,1.82-3.48,2.51-5.34,1.37-3.72,2.12-7.74,2.12-11.94,0-1.38-.08-2.74-.24-4.08Z"/>
    <path class="cls-3" d="M24.89,15.06c0,2.51,1.22,4.78,3.19,6.4-5.36.25-9.89,2.26-14.01,4.74,0,0-.42-.47-.42-.47-.25.15-.49.3-.73.45-.14.09.13.65-.01.75-.38.23-1.21-.06-1.65.08-1.91.59-4.23.18-5.63-1.09-1.2-1.09-1.62-2.67-1.5-4.16.55-6.82,7.12-11.94,14.75-13.34,5.13-.94,10.63-.33,15.71.52-4.84,7.28-9.7,6.12-9.7,6.12"/>
    <path class="cls-4" d="M54.22,48.01c0,8.65-3.98,16.37-10.21,21.43-.31.25-.63.5-.96.74-4.59,3.41-10.28,5.43-16.44,5.43-7.26,0-13.87-2.81-18.8-7.4-.09-.08-.18-.17-.27-.25,3.4,2.82,7.77,4.52,12.54,4.52,2.33,0,4.57-.41,6.65-1.16-.44.04-.89.06-1.34.06-3.77,0-7.23-1.34-9.92-3.57,1.52.67,3.2,1.04,4.96,1.04,2.71,0,5.23-.88,7.26-2.36.69-.5,1.32-1.07,1.9-1.7,1.98-2.19,3.19-5.1,3.19-8.28,0-4.86-2.81-9.06-6.89-11.08-1.13-.56-2.36-.95-3.65-1.14-.59-.09-1.2-.13-1.81-.13-.14,0-1.12,0-1.25,0,2.41-.4,5.16-1.91,6.3-4.09,1.45-2.78,1.24-5.14-.37-7.58-1.67-2.54-1.02-6.16.9-8.55,1.85-2.3,4.93-3.39,7.98-2.55.48.13.94.31,1.41.49.58,0,1.48.57,2.03.78.69.26,1.31.57,1.97.91,1.28.67,2.5,1.44,3.66,2.3,3.03,2.25,5.58,5.1,7.47,8.38.06.11.12.22.19.32,0,0,0,.02.01.02,2.22,3.98,3.49,8.57,3.49,13.45Z"/>
    <path class="cls-5" d="M14.28,55.75c-.39.04-.78.05-1.18.05-1.13,0-2.22-.14-3.26-.41-.56-.14-1.1-.32-1.63-.54-3.2-1.29-5.77-3.8-7.13-6.96-.69-1.59-1.07-3.34-1.07-5.19,0-1.39.22-2.73.62-3.98.19-.54.41-1.08.63-1.61.01-.03.03-.06.04-.09.78-1.8,1.74-3.49,2.86-5.06,1.18-1.64,2.56-3.15,4.06-4.5.24-.22.46-.41.71-.62.2-.17.39-.34.6-.5.07-.05.15-.12.23-.18-.66.49-1.22,1.1-1.67,1.79-.6.93-1,2.01-1.1,3.17-.02.22-.03.44-.03.66,0,.85.15,1.65.42,2.41.33.9.83,1.71,1.47,2.4.02.03.05.05.07.08.67.69,1.48,1.25,2.39,1.63,0,0,0,0,0,0,1.88.73,3.23,2.52,3.29,4.64,0,.05,0,.11,0,.17,0,1.18-.53,2.22-1.29,3.09-.23.26-.49.51-.76.75-.88.8-1.86,1.58-2.17,2.71-.23.85-.24,1.79-.01,2.64.42,1.21,1.45,2.65,3.92,3.43Z"/>
    <path class="cls-6" d="M33.07,21.16c-.36-.05-.73-.08-1.1-.08-1.54,0-2.97.46-4.17,1.25-.02.01-.04.03-.06.04-3.09,1.85-4.14,6.2-2.66,9.36.3.65.7,1.26.99,1.92.83,1.88.68,4.11-.16,5.98-.67,1.48-1.77,2.79-3.19,3.57-1.51.83-3.13.9-4.79,1.18-.75.13-1.51.4-2.22.69-.72.3-2.13.9-2.7,1.45.71-1.15,1.73-2.77,1.53-4.14-.16-1.1-.7-2.15-1.49-2.93-.9-.89-2.16-1.27-3.18-1.99-1.51-1.06-2.57-2.75-2.86-4.58-.4-2.53.7-5.17,2.73-6.71,0,0,.01,0,.02-.01.07-.05.13-.1.19-.16.24-.18.48-.36.72-.53,0,0,0,0,0,0,4.12-2.92,9.07-4.73,14.43-5.02.5-.03,1-.04,1.51-.04,2.22,0,4.38.26,6.45.76Z"/>
    <path class="cls-6" d="M36.11,47.91c-.18.02-.35.04-.52.04.33.64,1.04,1.03,1.79.93.95-.13,1.62-1.01,1.49-1.96-.03-.19-.08-.36-.16-.52-.6.8-1.52,1.38-2.59,1.52Z"/>
    <path class="cls-6" d="M32.81,49.53c-.14.02-.28.03-.42.03.26.51.83.82,1.43.74.76-.11,1.29-.81,1.19-1.57-.02-.15-.06-.29-.13-.42-.48.64-1.21,1.1-2.07,1.22Z"/>
    <path class="cls-6" d="M33.99,42.9c-.26.09-.51.16-.77.21.68.86,1.86,1.24,2.95.86,1.39-.48,2.12-1.99,1.64-3.38-.09-.27-.23-.52-.39-.73-.67,1.38-1.86,2.51-3.43,3.05Z"/>
    <path class="cls-6" d="M29.74,46.04c-.21.07-.41.13-.62.17.55.69,1.48.99,2.36.69,1.11-.38,1.7-1.6,1.31-2.71-.08-.22-.18-.41-.31-.59-.53,1.11-1.49,2.01-2.74,2.44Z"/>
    <path class="cls-1" d="M50.73,34.56s-.01-.02-.01-.02c-.07-.1-.13-.21-.19-.32-1.9-3.28-4.45-6.13-7.47-8.38-.73-.54-1.49-1.05-2.27-1.51,5.72,5.34,9.3,12.94,9.3,21.39,0,16.15-13.09,29.25-29.25,29.25-.08,0-.16,0-.24,0,1.94.43,3.95.66,6.02.66,6.16,0,11.84-2.02,16.44-5.43.32-.24.64-.49.96-.74,6.23-5.06,10.21-12.78,10.21-21.43,0-4.88-1.27-9.47-3.49-13.45Z"/>
    <path class="cls-7" d="M14.59,42.96c0-.1-.01-.2-.02-.3,0-.02,0-.05,0-.07,0-.01,0-.02,0-.03-.03-.25-.07-.5-.14-.74,0,0,0-.02,0-.03-.03-.11-.06-.21-.09-.31-.02-.05-.03-.09-.05-.14-.03-.07-.05-.14-.08-.21-.04-.09-.08-.18-.13-.28-.01-.02-.02-.05-.03-.07-.19-.36-.41-.7-.68-1.01-.02-.02-.04-.05-.07-.07-.06-.07-.13-.14-.2-.21-.03-.03-.05-.05-.08-.08-.18-.17-.37-.32-.58-.46-3.6,1.83-5.92,4.73-5.92,8s2.5,6.38,6.33,8.2c-1.46-.8-2.16-1.89-2.49-2.83-.23-.85-.22-1.79.01-2.64.31-1.13,1.3-1.91,2.17-2.71.16-.15.32-.3.47-.45.1-.1.2-.2.29-.3.76-.88,1.29-1.91,1.29-3.09,0-.05,0-.11,0-.17Z"/>
    <g>
      <path class="cls-6" d="M66.94,53.49c2.36-4.84,3.69-10.28,3.69-16.03C70.64,17.3,54.36.94,34.24.81c-3.5.77-7.37,2.47-9.77,5.26-1.58,1.84-2.54,4.23-2.54,6.84,0,2.96,1.22,5.63,3.19,7.53.5-.03,1-.04,1.51-.04,2.22,0,4.38.26,6.45.76.1.02.2.05.3.07,0,0,0,0,.02,0,.46.08.92.21,1.35.38.05.02.09.03.14.04.28.08.55.17.82.27.41.14.82.29,1.22.46,2.21.88,4.27,2.05,6.15,3.44,3.03,2.25,5.58,5.1,7.47,8.38-.26-.52-.4-1.1-.4-1.71,0-1.71,1.17-3.25,2.82-3.71,2.04-.57,4.54.39,5.99,1.65,0,0,9.17,6.74,8.01,23.05Z"/>
      <path class="cls-9" d="M76.09,30.94c-.26-2.23-.74-4.39-1.4-6.47-1.58-4.42-3.9-8.5-6.81-12.07-3.49-4.28-8.3-7.77-13.52-9.93-.47-.2-.95-.38-1.43-.55-.96-.35-1.93-.65-2.91-.9-.98-.25-1.96-.46-2.94-.61-.52-.08-1.05-.15-1.57-.21-1.05-.11-2.1-.18-3.16-.2-2.64-.04-5.28.21-7.87.75-.08.02-.15.03-.23.05,20.13.14,36.4,16.49,36.4,36.65,0,5.75-1.33,11.19-3.69,16.03-.13,1.89-.41,3.9-.85,6.04.51-.51,1.01-1.03,1.49-1.57.52-.58,1.02-1.18,1.49-1.79.96-1.23,1.83-2.53,2.62-3.88.98-1.69,1.82-3.48,2.51-5.34,1.37-3.72,2.12-7.74,2.12-11.94,0-1.38-.08-2.74-.24-4.08Z"/>
    </g>
    <path class="cls-4" d="M40.13,15.34c-.93-3.43,1.1-6.97,4.53-7.9.12-.03.23-.06.35-.08-1.41-.77-3.1-1.01-4.77-.56-3.43.93-5.46,4.47-4.53,7.9.9,3.31,4.23,5.32,7.54,4.61-1.49-.81-2.65-2.2-3.13-3.96Z"/>
    <path class="cls-4" d="M49.47,17.24c-.04-2.83,2.22-5.15,5.05-5.19.1,0,.19,0,.29,0-.93-.87-2.19-1.39-3.56-1.38-2.83.04-5.09,2.36-5.05,5.19.04,2.73,2.21,4.93,4.9,5.05-.98-.92-1.61-2.22-1.63-3.67Z"/>
    <path class="cls-6" d="M9.75,26.18s-4.44,3.35-6.39,6.97c-1.95,3.63-1.19,7.84,2.41,8.83,2.8.77,6.86.49,6.3,5.42,1.12-.94,1.47-1.3,3.65-2.32,1.97-2.96,1.28-6.39,1.28-6.39l-7.2-3.62s-.99-8.18-.04-8.89Z"/>
    <path class="cls-3" d="M2.59,41.93c0,.3-.25.55-.55.55s-.55-.25-.55-.55.25-.55.55-.55.55.25.55.55Z"/>
    <g>
      <g>
        <path class="cls-5" d="M15.83,36.24c-2.09,1.71-5.18,1.4-6.89-.7l-.48.39c1.92,2.36,5.41,2.71,7.76.78,2.36-1.92,2.71-5.41.78-7.76l-.48.39c1.71,2.09,1.4,5.18-.7,6.89Z"/>
        <path class="cls-8" d="M15.83,36.24c2.09-1.71,2.41-4.79.7-6.89l-7.58,6.19c1.71,2.09,4.79,2.41,6.89.7Z"/>
      </g>
      <g class="cls-10">
        <path class="cls-3" d="M18.6,28.85c1.46,1.79,1.2,4.43-.6,5.9-1.79,1.46-4.43,1.2-5.9-.6-1.46-1.79-1.2-4.43.6-5.9,1.79-1.46,4.43-1.2,5.9.6Z"/>
        <path class="cls-8" d="M14.56,34.51c0,.52-.42.95-.95.95s-.95-.42-.95-.95.42-.95.95-.95.95.42.95.95Z"/>
      </g>
    </g>
  </g>
  <g>
    <g>
      <path class="cls-6" d="M98.06,64.6V13.36h15.83c11.35.07,20.94,2.77,20.94,15.75,0,9.3-6.32,15.4-17.74,15.76h-8.02v19.73h-11ZM109.06,36.35c6.1-.28,14.05,1.84,14.05-7.24s-7.95-6.95-14.05-7.24v14.48Z"/>
      <path class="cls-6" d="M152.24,13.36v51.24h-10.65V13.36h10.65Z"/>
      <path class="cls-6" d="M171.64,49.62c0,4.61.64,8.94,6.1,8.94,3.69,0,5.54-1.35,6.53-4.61h9.58c-.92,8.8-7.81,11.71-16.11,11.71-12.21,0-17.1-6.88-17.1-18.81,0-10.72,6.25-18.95,17.1-18.95,6.67,0,12.21,2.27,15.19,8.52.99,1.99,1.49,4.12,1.77,6.39.28,2.2.28,4.47.28,6.81h-23.35ZM183.99,42.53c0-3.9-1.06-7.52-6.24-7.52-4.9,0-5.96,3.62-6.1,7.52h12.35Z"/>
      <path class="cls-6" d="M202.54,39.05c.07-4.47,1.99-7.24,4.83-8.87,2.91-1.7,6.67-2.27,10.5-2.27,7.17,0,15.19,2.63,15.19,13.34v19.45c.07,1.77.35,2.84.5,3.9h-9.58c-.21-1.63-.35-3.26-.35-4.75h-.14c-2.41,4.12-6.1,5.82-10.93,5.82-6.67,0-11.64-3.83-11.64-10.79,0-2.48,1.14-8.52,7.59-11.28,4.26-1.85,9.65-2.06,13.91-1.92v-3.34c0-1.49-1.14-4.4-4.9-4.4s-4.9,3.48-4.75,5.11h-10.22ZM211.13,53.46c0,2.98,2.2,5.11,5.18,5.11,5.89,0,6.1-6.53,6.1-10.72-3.69-.07-11.28-.14-11.28,5.61Z"/>
      <path class="cls-6" d="M259.46,38.48c-.14-2.41-2.41-3.48-4.83-3.48-2.91,0-4.26.85-4.26,3.19,0,5.61,20.37,2.41,20.37,15.76,0,7.81-9.51,11.71-16.11,11.71-8.3,0-15.54-3.26-15.68-11.43h9.86c.21,2.77,2.7,4.33,5.82,4.33,2.91,0,5.11-1.21,5.11-3.97s-5.11-4.05-7.24-4.54c-6.81-1.63-13.13-3.12-13.13-11.43,0-7.45,9.01-10.72,15.26-10.72,7.52,0,13.91,2.7,14.41,10.57h-9.58Z"/>
      <path class="cls-6" d="M278.24,39.05c.07-4.47,1.99-7.24,4.83-8.87,2.91-1.7,6.67-2.27,10.5-2.27,7.17,0,15.19,2.63,15.19,13.34v19.45c.07,1.77.35,2.84.5,3.9h-9.58c-.21-1.63-.35-3.26-.35-4.75h-.14c-2.41,4.12-6.1,5.82-10.93,5.82-6.67,0-11.64-3.83-11.64-10.79,0-2.48,1.14-8.52,7.59-11.28,4.26-1.85,9.65-2.06,13.91-1.92v-3.34c0-1.49-1.14-4.4-4.9-4.4s-4.9,3.48-4.75,5.11h-10.22ZM286.83,53.46c0,2.98,2.2,5.11,5.18,5.11,5.89,0,6.1-6.53,6.1-10.72-3.69-.07-11.28-.14-11.28,5.61Z"/>
      <path class="cls-6" d="M328.41,33.09l.14.21c2.2-3.26,5.54-5.39,10.93-5.39,3.55,0,10.43,2.63,11.71,7.81.57,2.2.71,4.47.71,5.68v23.21h-10.65v-21.43c-.07-3.83-1.14-8.16-6.39-8.16-3.34,0-6.25,2.98-6.39,8.16v21.43h-10.64V28.97h10.57v4.12Z"/>
      <path class="cls-6" d="M364.82,28.97v-7.03l10.65-3.83v10.86h8.02v7.1h-8.02v16.54c0,4.68.71,5.96,4.4,5.96,1.14,0,2.27-.14,3.41-.21v6.25c-1.21.57-6.88,1.06-8.37,1.06-8.3,0-10.08-4.33-10.08-12.06v-17.53h-7.17v-7.1h7.17Z"/>
      <path class="cls-6" d="M400.3,49.62c0,4.61.64,8.94,6.1,8.94,3.69,0,5.54-1.35,6.53-4.61h9.58c-.92,8.8-7.81,11.71-16.11,11.71-12.21,0-17.1-6.88-17.1-18.81,0-10.72,6.25-18.95,17.1-18.95,6.67,0,12.21,2.27,15.19,8.52.99,1.99,1.49,4.12,1.77,6.39.28,2.2.28,4.47.28,6.81h-23.35ZM412.65,42.53c0-3.9-1.06-7.52-6.24-7.52-4.9,0-5.96,3.62-6.1,7.52h12.35Z"/>
    </g>
    <path class="cls-6" d="M453.28,38.19c3.6-1.29,9.61-3.86,13.91-14.6-3.01,1.43-8.56,2.57-15.23,4.58-6.76,2.05-10.19,9.99-11.2,12.77v-11.7h-10.3v35.36h10.3v-8.04s0-6.03,9.17-9.3c5.96-2.13,9.65-4.93,13.09-11.95,0,0-6.04,3.59-9.74,2.87Z"/>
  </g>
</svg>