<?xml version="1.0" encoding="UTF-8"?>
<svg id="_レイヤー_2" data-name="レイヤー 2" xmlns="http://www.w3.org/2000/svg" viewBox="0 0 152.74 152.74">
  <defs>
    <style>
      .cls-1, .cls-2 {
        fill: none;
      }

      .cls-3 {
        fill: #96cbd9;
      }

      .cls-2 {
        stroke-linecap: round;
        stroke-linejoin: round;
        stroke-width: 2.83px;
      }

      .cls-2, .cls-4 {
        stroke: #666;
      }

      .cls-4 {
        fill: #666;
        stroke-miterlimit: 10;
        stroke-width: 2px;
      }
    </style>
  </defs>
  <g id="extensions-icon">
    <g>
      <rect class="cls-1" x="0" y="0" width="152.74" height="152.74" rx="7.9" ry="7.9"/>
      <path class="cls-3" d="M109.82,70.81v10.21h-6.9c-.65,3.16-1.92,6.12-3.63,8.71l4.92,4.92-7.2,7.2-4.94-4.94c-2.61,1.7-5.55,2.92-8.68,3.57v7.05h-10.19v-7.1c-3.11-.63-6.01-1.89-8.58-3.59l-5.07,5.09-7.2-7.23,5.07-5.07c-1.68-2.55-2.92-5.44-3.57-8.53h-7.18v-10.19h7.14c.63-3.11,1.85-6.01,3.53-8.6l-5.05-5.03,7.2-7.23,4.98,4.98c2.57-1.72,5.51-2.96,8.62-3.63v-7.01h10.21v6.92c3.18.63,6.12,1.87,8.73,3.57l4.9-4.9,7.2,7.2-4.85,4.85c1.74,2.63,3,5.57,3.66,8.75h6.9ZM94.28,75.97c0-8.86-7.18-16.04-16.04-16.04s-16.04,7.18-16.04,16.04,7.18,16.02,16.04,16.02,16.04-7.18,16.04-16.02Z"/>
      <g>
        <g>
          <path class="cls-2" d="M73.19,107.53h10.19v-7.05c3.13-.65,6.07-1.87,8.68-3.57l4.94,4.94,7.2-7.2-4.92-4.92c1.72-2.59,2.98-5.55,3.63-8.71h6.9v-10.21h-6.9c-.65-3.18-1.92-6.12-3.66-8.75l4.85-4.85-7.2-7.2-4.9,4.9c-2.61-1.7-5.55-2.94-8.73-3.57v-6.92h-10.21v7.01c-3.11.67-6.05,1.92-8.62,3.63l-4.98-4.98-7.2,7.23,5.05,5.03c-1.68,2.59-2.89,5.48-3.53,8.6h-7.14v10.19h7.18c.65,3.09,1.89,5.99,3.57,8.53l-5.07,5.07,7.2,7.23,5.07-5.09c2.57,1.7,5.46,2.96,8.58,3.59v7.1Z"/>
          <path class="cls-2" d="M78.24,91.99c-8.86,0-16.04-7.18-16.04-16.02s7.18-16.04,16.04-16.04,16.04,7.18,16.04,16.04-7.18,16.02-16.04,16.02Z"/>
        </g>
        <path class="cls-4" d="M131.97,46.88c0,.87-.71,1.58-1.58,1.58s-1.58-.71-1.58-1.58v-20.73l-22.02,22.03c-.31.31-.71.46-1.11.46s-.81-.15-1.11-.46c-.62-.62-.62-1.61,0-2.23l22.02-22.03h-20.72c-.87,0-1.58-.71-1.58-1.58s.71-1.58,1.58-1.58h24.53c.05,0,.11,0,.16,0,.02,0,.04,0,.06,0,.03,0,.06,0,.09.01.02,0,.05.01.07.02.03,0,.05.01.08.02.02,0,.05.02.07.03.02,0,.05.02.07.03.02,0,.04.02.07.03.02.01.05.02.07.04.02.01.04.02.06.04.02.01.05.03.07.04.02.02.05.03.07.05.02.01.04.03.06.04.04.03.08.07.11.1,0,0,0,0,0,0h0s.07.08.1.12c.01.02.03.03.04.05.02.02.04.05.05.07.01.02.03.04.04.06.01.02.03.05.04.07.01.02.02.04.03.07.01.02.02.05.03.07,0,.02.02.04.02.06,0,.03.02.05.03.08,0,.02.01.04.02.06,0,.03.02.06.02.09,0,.02,0,.05.01.07,0,.03,0,.06.01.08,0,.04,0,.08,0,.12,0,.01,0,.03,0,.04v24.53ZM105.87,128.82h20.72l-22.02-22.02c-.62-.62-.62-1.61,0-2.23s1.61-.62,2.23,0l22.02,22.02v-20.73c0-.87.71-1.58,1.58-1.58s1.58.71,1.58,1.58v24.53c0,.05,0,.1,0,.16,0,.02,0,.05-.01.07,0,.03,0,.06-.01.08,0,.03-.01.05-.02.08,0,.02-.01.05-.02.07,0,.03-.02.05-.03.08,0,.02-.02.05-.03.07,0,.02-.02.05-.03.07-.01.02-.02.05-.03.07-.01.02-.02.04-.04.06-.01.02-.03.05-.04.07-.02.02-.03.05-.05.07-.01.02-.03.04-.04.06-.07.08-.14.15-.22.22-.02.01-.04.03-.06.04-.02.02-.04.03-.07.05-.02.02-.05.03-.07.04-.02.01-.04.03-.06.04-.02.01-.05.02-.07.03-.02.01-.04.02-.07.03-.02,0-.05.02-.07.03-.02,0-.05.02-.08.03-.02,0-.05.01-.07.02-.03,0-.05.01-.08.02-.03,0-.06,0-.08.01-.02,0-.05,0-.07.01-.05,0-.1,0-.16,0h-24.53c-.87,0-1.58-.71-1.58-1.58s.71-1.58,1.58-1.58ZM22.35,20.77h24.53c.87,0,1.58.71,1.58,1.58s-.71,1.58-1.58,1.58h-20.73l22.03,22.03c.62.62.62,1.61,0,2.23-.31.31-.71.46-1.11.46s-.81-.15-1.11-.46l-22.03-22.03v20.73c0,.87-.71,1.58-1.58,1.58s-1.58-.71-1.58-1.58v-24.53c0-.05,0-.1,0-.16,0-.02,0-.05.01-.07,0-.03,0-.06.01-.08,0-.03.01-.05.02-.08,0-.02.01-.05.02-.07,0-.03.02-.05.03-.07,0-.02.02-.05.03-.07,0-.02.02-.05.03-.07.01-.02.02-.05.03-.07.01-.02.02-.04.04-.06.01-.02.03-.05.04-.07.02-.02.03-.05.05-.07.01-.02.03-.04.04-.06.07-.08.14-.15.22-.22.02-.01.04-.03.06-.04.02-.02.04-.03.07-.05.02-.02.05-.03.07-.04.02-.01.04-.03.06-.04.02-.01.05-.02.07-.03.02-.01.04-.02.07-.03.02,0,.05-.02.07-.03.02,0,.05-.02.07-.03.02,0,.05-.01.08-.02.02,0,.05-.01.07-.02.03,0,.06,0,.09-.01.02,0,.04,0,.06,0,.05,0,.11,0,.16,0ZM48.18,106.8l-22.03,22.02h20.73c.87,0,1.58.71,1.58,1.58s-.71,1.58-1.58,1.58h-24.53c-.05,0-.1,0-.16,0-.02,0-.05,0-.07-.01-.03,0-.06,0-.08-.01-.03,0-.05-.01-.08-.02-.02,0-.05-.01-.07-.02-.03,0-.05-.02-.08-.03-.02,0-.05-.02-.07-.03-.02-.01-.05-.02-.07-.03-.02-.01-.05-.02-.07-.03-.02-.01-.05-.03-.07-.04-.02-.01-.04-.02-.06-.04-.03-.02-.05-.04-.08-.06-.01-.01-.03-.02-.04-.03-.08-.07-.16-.14-.22-.22-.01-.01-.02-.03-.03-.04-.02-.03-.04-.05-.06-.08-.01-.02-.02-.04-.04-.06-.01-.02-.03-.05-.04-.07-.01-.02-.02-.04-.03-.06-.01-.03-.02-.05-.04-.08,0-.02-.02-.04-.02-.06-.01-.03-.02-.06-.03-.08,0-.02-.01-.04-.02-.06,0-.03-.02-.06-.02-.09,0-.02,0-.05-.01-.07,0-.03,0-.06-.01-.08,0-.04,0-.07,0-.11,0-.01,0-.03,0-.04v-24.53c0-.87.71-1.58,1.58-1.58s1.58.71,1.58,1.58v20.73l22.03-22.02c.62-.62,1.61-.62,2.23,0,.62.62.62,1.61,0,2.23Z"/>
      </g>
    </g>
  </g>
</svg>