<?xml version="1.0" encoding="UTF-8"?>
<svg id="_レイヤー_2" data-name="レイヤー 2" xmlns="http://www.w3.org/2000/svg" viewBox="0 0 152.74 152.74">
  <defs>
    <style>
      .cls-1 {
        fill: none;
      }

      .cls-2 {
        fill: #96cbd9;
      }

      .cls-3 {
        fill: #fff;
      }

      .cls-4 {
        fill: #666;
      }
    </style>
  </defs>
  <g id="handson-icon">
    <g>
      <rect class="cls-1" x="0" y="0" width="152.74" height="152.74" rx="7.9" ry="7.9"/>
      <path class="cls-3" d="M85.22,51.69c12.22,4.34,8.99,5.2,10.97,9.67,1.65,3.71.95,34.19.95,42.93,0,6.15-3.42,14.06-10.54,18.91-7.22,4.92-17.35,4.88-25.18,0-11.36-7.09-11.94-20.72-11.97-21.66v-37.1s2.67-12.46,12.57-12.6c9.89-.15,15.9-.05,15.9-.05l7.29-.1Z"/>
      <g>
        <path class="cls-4" d="M63.49,53.51c1.1,0,1.99-.89,1.99-1.99s-.89-1.99-1.99-1.99c-9.86,0-17.88,8.02-17.88,17.87.17,3.76-.48,36.28.51,39.1,2.55,13.01,14.02,22.45,27.29,22.45,5.54,0,10.9-1.63,15.51-4.73.91-.61,1.15-1.84.54-2.76-.61-.91-1.84-1.16-2.76-.54-13.65,9.57-33.79,1.21-36.69-15.2-.78-3.01-.32-11.31-.44-14.51,0,0,3.97,0,3.97,0,2.61-.04,2.61-3.93,0-3.97,0,0-3.97,0-3.97,0v-19.86c0-7.66,6.24-13.9,13.9-13.9h0Z"/>
        <path class="cls-4" d="M103.21,19.76s0,15.89,0,15.89c0,3.28-2.67,5.96-5.96,5.96s-5.96-2.67-5.96-5.96v-7.94c0-5.47-4.46-9.93-9.93-9.93s-9.93,4.45-9.93,9.93v33.13c-2.31.82-3.97,3.01-3.97,5.59v7.94c0,2.59,1.67,4.77,3.97,5.59v7.32h-7.94c-2.59.02-2.62,3.94,0,3.97,0,0,33.76,0,33.76,0v9.93c0,4.75-1.4,9.34-4.05,13.29-1.42,2.12,1.79,4.4,3.3,2.21,3.09-4.6,4.73-9.97,4.73-15.5v-33.76c0-9.85-8.02-17.87-17.88-17.87h-7.94v-21.84c0-3.28,2.67-5.96,5.96-5.96s5.96,2.67,5.96,5.96v7.94c0,5.47,4.46,9.93,9.93,9.93s9.93-4.45,9.93-9.93v-15.89c-.05-2.58-3.92-2.63-3.97,0ZM75.41,74.36c-.05,2.61-3.93,2.61-3.97,0,0,0,0-7.94,0-7.94.05-2.61,3.93-2.61,3.97,0,0,0,0,7.94,0,7.94Z"/>
      </g>
      <path class="cls-2" d="M83.35,53.51c7.67,0,13.9,6.24,13.9,13.9v19.86h-21.85v-7.32c2.31-.82,3.97-3.01,3.97-5.59v-7.94c0-2.59-1.67-4.77-3.97-5.59v-7.32h7.94Z"/>
    </g>
  </g>
</svg>