<?xml version="1.0" encoding="UTF-8"?>
<svg id="_レイヤー_2" data-name="レイヤー 2" xmlns="http://www.w3.org/2000/svg" viewBox="0 0 152.74 152.74">
  <defs>
    <style>
      .cls-1, .cls-2, .cls-3 {
        fill: none;
      }

      .cls-2 {
        stroke-miterlimit: 10;
        stroke-width: 4px;
      }

      .cls-2, .cls-3 {
        stroke: #666;
      }

      .cls-4 {
        fill: #96cbd9;
      }

      .cls-3 {
        stroke-linecap: round;
        stroke-linejoin: round;
        stroke-width: 3.72px;
      }

      .cls-5 {
        fill: #fff;
      }
    </style>
  </defs>
  <g id="manuals-icon">
    <g>
      <rect class="cls-1" x="0" y="0" width="152.74" height="152.74" rx="7.9" ry="7.9"/>
      <g>
        <path class="cls-5" d="M68.9,47.82l-.4-.03c-17.48-8.64-38.63-8.64-56.12,0v77.12c17.48-8.67,38.63-8.67,56.12,0h.4c4.58-2.29,9.39-3.98,14.34-5.04-1.17-1.26-2.23-2.6-3.12-4.03-3-4.66-4.52-9.99-4.52-15.34,0-.8.03-1.57.09-2.38.46-6.58,3.23-13.05,8.27-18.11.74-.74,1.55-1.43,2.35-2.09,11.3-9.07,27.81-8.38,38.26,2.06.14.14.29.29.43.46v-32.62c-17.48-8.7-38.66-8.7-56.09,0Z"/>
        <path class="cls-5" d="M118.4,86.19c-7.81-7.81-20.46-7.81-28.27,0-7.81,7.78-7.81,20.43,0,28.24l.14.14c7.81,7.64,20.35,7.61,28.13-.14,7.81-7.81,7.81-20.46,0-28.24Z"/>
        <path class="cls-4" d="M118.4,86.19c-7.81-7.81-20.46-7.81-28.27,0-7.81,7.78-7.81,20.43,0,28.24l.14.14c7.81,7.64,20.35,7.61,28.13-.14,7.81-7.81,7.81-20.46,0-28.24ZM80.11,115.84c-3-4.66-4.52-9.99-4.52-15.34,0-.8.03-1.57.09-2.38.46-6.58,3.23-13.05,8.27-18.11.74-.74,1.55-1.43,2.35-2.09,11.3-9.07,27.81-8.38,38.26,2.06.14.14.29.29.43.46,1.57,1.6,2.89,3.38,3.95,5.27,5.75,9.62,5.32,21.78-1.14,31.02l11.09,10.13c1.97,1.97,1.97,5.18,0,7.13-1.95,1.97-5.15,1.97-7.13,0l-11.09-10.13c-11.16,7.84-26.7,6.75-36.71-3.23-.23-.23-.49-.49-.69-.74h-.03c-1.17-1.26-2.23-2.6-3.12-4.03Z"/>
      </g>
      <g>
        <g>
          <path class="cls-3" d="M120.66,123.85c-11.16,7.84-26.7,6.75-36.71-3.23-.23-.23-.49-.49-.69-.74h-.03c-1.17-1.26-2.23-2.6-3.12-4.03-3-4.66-4.52-9.99-4.52-15.34,0-.8.03-1.57.09-2.38.46-6.58,3.23-13.05,8.27-18.11.74-.74,1.55-1.43,2.35-2.09,11.3-9.07,27.81-8.38,38.26,2.06.14.14.29.29.43.46,1.57,1.6,2.89,3.38,3.95,5.27,5.75,9.62,5.32,21.78-1.14,31.02"/>
          <path class="cls-3" d="M118.4,114.44c-7.78,7.75-20.32,7.78-28.13.14l-.14-.14c-7.81-7.81-7.81-20.46,0-28.24,7.81-7.81,20.46-7.81,28.27,0,7.81,7.78,7.81,20.43,0,28.24Z"/>
          <path class="cls-3" d="M127.79,116.73l11.09,10.13c1.97,1.97,1.97,5.18,0,7.13-1.95,1.97-5.15,1.97-7.13,0l-11.09-10.13"/>
          <path class="cls-3" d="M68.5,124.91c-17.48-8.67-38.63-8.67-56.12,0V47.79c17.48-8.64,38.63-8.64,56.12,0"/>
          <path class="cls-3" d="M19.08,61.76c13.76-4.86,29.07-4.86,42.78.03"/>
          <path class="cls-3" d="M19.08,76.78c13.76-4.89,29.07-4.89,42.78.03"/>
          <path class="cls-3" d="M19.08,91.8c13.76-4.89,29.07-4.89,42.78.03"/>
          <path class="cls-3" d="M19.08,106.8c13.76-4.89,29.07-4.86,42.78.03"/>
          <path class="cls-3" d="M75.48,61.76c13.74-4.86,29.05-4.86,42.78.03"/>
          <path class="cls-3" d="M68.9,47.82c17.43-8.7,38.6-8.7,56.09,0v24.31"/>
          <path class="cls-3" d="M77.37,121.45c-2.9.93-5.73,2.09-8.48,3.47"/>
          <polyline class="cls-3" points="68.78 55.12 68.78 61.76 68.78 61.79 68.78 76.81 68.78 91.83 68.78 100.5 68.78 106.8 68.78 106.83 68.78 116.38"/>
        </g>
        <g>
          <path class="cls-2" d="M120.66,123.85c-11.16,7.84-26.7,6.75-36.71-3.23-.23-.23-.49-.49-.69-.74h-.03c-1.17-1.26-2.23-2.6-3.12-4.03-3-4.66-4.52-9.99-4.52-15.34,0-.8.03-1.57.09-2.38.46-6.58,3.23-13.05,8.27-18.11.74-.74,1.55-1.43,2.35-2.09,11.3-9.07,27.81-8.38,38.26,2.06.14.14.29.29.43.46,1.57,1.6,2.89,3.38,3.95,5.27,5.75,9.62,5.32,21.78-1.14,31.02"/>
          <path class="cls-2" d="M118.4,114.44c-7.78,7.75-20.32,7.78-28.13.14l-.14-.14c-7.81-7.81-7.81-20.46,0-28.24,7.81-7.81,20.46-7.81,28.27,0,7.81,7.78,7.81,20.43,0,28.24Z"/>
          <path class="cls-2" d="M127.79,116.73l11.09,10.13c1.97,1.97,1.97,5.18,0,7.13-1.95,1.97-5.15,1.97-7.13,0l-11.09-10.13"/>
          <path class="cls-2" d="M68.5,124.91c-17.48-8.67-38.63-8.67-56.12,0V47.79c17.48-8.64,38.63-8.64,56.12,0"/>
          <path class="cls-2" d="M19.08,61.76c13.76-4.86,29.07-4.86,42.78.03"/>
          <path class="cls-2" d="M19.08,76.78c13.76-4.89,29.07-4.89,42.78.03"/>
          <path class="cls-2" d="M19.08,91.8c13.76-4.89,29.07-4.89,42.78.03"/>
          <path class="cls-2" d="M19.08,106.8c13.76-4.89,29.07-4.86,42.78.03"/>
          <path class="cls-2" d="M75.48,61.76c13.74-4.86,29.05-4.86,42.78.03"/>
          <path class="cls-2" d="M68.9,47.82c17.43-8.7,38.6-8.7,56.09,0v24.31"/>
          <path class="cls-2" d="M77.37,121.45c-2.9.93-5.73,2.09-8.48,3.47"/>
          <polyline class="cls-2" points="68.78 55.12 68.78 61.76 68.78 61.79 68.78 76.81 68.78 91.83 68.78 100.5 68.78 106.8 68.78 106.83 68.78 116.38"/>
        </g>
      </g>
    </g>
  </g>
</svg>