<?xml version="1.0" encoding="UTF-8"?>
<svg id="_レイヤー_2" data-name="レイヤー 2" xmlns="http://www.w3.org/2000/svg" viewBox="0 0 152.74 152.74">
  <defs>
    <style>
      .cls-1, .cls-2, .cls-3 {
        fill: none;
      }

      .cls-2, .cls-4, .cls-5 {
        stroke-width: 4px;
      }

      .cls-2, .cls-4, .cls-5, .cls-3 {
        stroke: #666;
        stroke-linecap: round;
        stroke-linejoin: round;
      }

      .cls-4, .cls-6 {
        fill: #fff;
      }

      .cls-5 {
        fill: #96cbd9;
      }

      .cls-3 {
        stroke-width: 1.75px;
      }
    </style>
  </defs>
  <g id="materials-icon">
    <g>
      <rect class="cls-1" x="0" y="0" width="152.74" height="152.74" rx="7.9" ry="7.9"/>
      <g id="gallery">
        <g id="gallery-2" data-name="gallery">
          <rect class="cls-5" x="56.7" y="56.7" width="39.35" height="39.35" rx="4.37" ry="4.37"/>
          <path class="cls-6" d="M47.96,56.24h-26.23c-2.41,0-4.37,1.96-4.37,4.37v30.6c0,2.41,1.96,4.37,4.37,4.37h26.23v-39.35Z"/>
          <path class="cls-6" d="M104,96.04h26.23c2.41,0,4.37-1.96,4.37-4.37v-30.6c0-2.41-1.96-4.37-4.37-4.37h-26.23v39.35Z"/>
        </g>
      </g>
      <g>
        <rect class="cls-4" x="19.54" y="21.73" width="26.23" height="21.86"/>
        <rect class="cls-4" x="63.26" y="21.73" width="26.23" height="21.86"/>
        <rect class="cls-4" x="106.97" y="21.73" width="26.23" height="21.86"/>
        <rect class="cls-4" x="19.54" y="109.16" width="26.23" height="21.86"/>
        <rect class="cls-4" x="63.26" y="109.16" width="26.23" height="21.86"/>
        <rect class="cls-4" x="106.97" y="109.16" width="26.23" height="21.86"/>
        <path class="cls-2" d="M47.96,96.04h-26.23c-2.41,0-4.37-1.96-4.37-4.37v-30.6c0-2.41,1.96-4.37,4.37-4.37h26.23"/>
        <g>
          <polyline class="cls-2" points="28.47 72 28.47 69.81 41.58 69.81 41.58 72"/>
          <line class="cls-2" x1="35.02" y1="69.81" x2="35.02" y2="82.93"/>
          <line class="cls-2" x1="32.84" y1="82.93" x2="37.21" y2="82.93"/>
        </g>
        <path class="cls-2" d="M104.79,96.04h26.23c2.41,0,4.37-1.96,4.37-4.37v-30.6c0-2.41-1.96-4.37-4.37-4.37h-26.23"/>
        <polygon class="cls-4" points="82.93 76.37 72 69.81 72 82.93 82.93 76.37"/>
        <path class="cls-3" d="M115.37,81.55c.33.2.76.09.96-.24l5.52-9.15c.2-.33.09-.76-.24-.96-.33-.2-.76-.09-.96.24l-5.52,9.15c-.2.33-.09.76.24.96Z"/>
        <path class="cls-3" d="M124.33,81.39c.25.3.69.34.99.09l5.52-4.58c.3-.25.34-.69.09-.99-.03-.03-.05-.06-.09-.09l-5.52-4.58c-.3-.25-.74-.21-.99.09-.25.3-.21.74.09.99,0,0,0,0,0,0l4.87,4.04-4.87,4.04c-.3.25-.34.69-.09.99Z"/>
        <path class="cls-3" d="M111.68,81.49c.3.24.74.19.98-.11.23-.29.19-.72-.09-.96l-4.87-4.04,4.87-4.04c.3-.24.34-.69.1-.98-.24-.3-.69-.34-.98-.1,0,0,0,0,0,0l-5.52,4.58c-.3.25-.34.69-.09.98.03.03.06.06.09.09l5.52,4.58Z"/>
      </g>
    </g>
  </g>
</svg>