<?xml version="1.0" encoding="UTF-8"?>
<svg id="_レイヤー_2" data-name="レイヤー 2" xmlns="http://www.w3.org/2000/svg" viewBox="0 0 152.74 152.74">
  <defs>
    <style>
      .cls-1, .cls-2, .cls-3 {
        fill: none;
      }

      .cls-4 {
        fill: #96cbd9;
      }

      .cls-5, .cls-2, .cls-3 {
        stroke: #666;
        stroke-linecap: round;
        stroke-linejoin: round;
      }

      .cls-5, .cls-3 {
        stroke-width: 3px;
      }

      .cls-5, .cls-6 {
        fill: #fff;
      }

      .cls-2 {
        stroke-width: 4px;
      }
    </style>
  </defs>
  <g id="support-icon">
    <g>
      <rect class="cls-1" x="0" y="0" width="152.74" height="152.74" rx="7.9" ry="7.9"/>
      <g>
        <g>
          <polygon class="cls-4" points="41.26 97.34 55.45 117.9 57.7 121.14 44.78 130.07 25.86 102.68 38.78 93.76 41.26 97.34"/>
          <path class="cls-6" d="M99.37,92.49l15.26-16.06c1.37-1.43,3.24-2.21,5.18-2.21.95,0,1.92.21,2.84.61,4.19,1.85,5.56,7.09,2.82,10.73l-16.23,21.68c-3.14,4.23-8.12,6.71-13.41,6.71h-32.01c-1.2,0-2.4.34-3.45.97l-4.92,2.97-14.19-20.56,7.18-5.7c4.63-3.7,10.4-5.73,16.31-5.73h27.91c3.66,0,6.63,2.93,6.71,6.59Z"/>
        </g>
        <g>
          <path class="cls-4" d="M77.51,72.94l5.84.04c-.48,2.53-1.61,3.77-2.93,3.77s-2.36-1.11-2.86-3.51c-.02-.11-.04-.21-.06-.31Z"/>
          <path class="cls-1" d="M94.22,48.28c.08,3.91-1.4,7.45-3.68,10-.86.96-1.71,1.94-2.55,2.93-.73.86-1.32,1.84-1.76,2.87l-11.57.06c-.44-1.05-1.05-2.05-1.8-2.93-.82-1-1.69-1.97-2.55-2.93-2.26-2.55-3.68-6.09-3.68-10,0-3.07.84-6.09,2.64-8.49,7.47-9.87,24.72-5.75,24.95,8.49Z"/>
        </g>
      </g>
      <g>
        <polygon class="cls-2" points="55.45 117.9 57.7 121.14 44.78 130.07 25.86 102.68 38.78 93.76 41.26 97.34 55.45 117.9"/>
        <path class="cls-2" d="M76.18,99.38h16.48c1.85,0,3.51-.76,4.74-1.98,1.22-1.2,1.98-2.86,1.98-4.74v-.17c-.08-3.66-3.05-6.59-6.71-6.59h-27.91c-5.91,0-11.68,2.02-16.31,5.73l-7.18,5.7-.02.02"/>
        <path class="cls-2" d="M99.37,92.49l15.26-16.06c1.37-1.43,3.24-2.21,5.18-2.21.95,0,1.92.21,2.84.61,4.19,1.85,5.56,7.09,2.82,10.73l-16.23,21.68c-3.14,4.23-8.12,6.71-13.41,6.71h-32.01c-1.2,0-2.4.34-3.45.97l-4.92,2.97"/>
      </g>
      <g>
        <path class="cls-5" d="M86.23,64.09c.44-1.03,1.03-2.01,1.76-2.87.84-1,1.69-1.97,2.55-2.93,2.28-2.55,3.76-6.09,3.68-10-.23-14.24-17.48-18.36-24.95-8.49-1.8,2.4-2.64,5.42-2.64,8.49,0,3.91,1.42,7.45,3.68,10,.86.96,1.72,1.94,2.55,2.93.75.88,1.36,1.88,1.8,2.93l11.57-.06Z"/>
        <line class="cls-3" x1="76.78" y1="68.68" x2="84.08" y2="68.68"/>
        <path class="cls-3" d="M83.35,72.98c-.48,2.53-1.61,3.77-2.93,3.77s-2.36-1.11-2.86-3.51c-.02-.11-.04-.21-.06-.31l5.84.04Z"/>
        <line class="cls-3" x1="80.42" y1="22.68" x2="80.42" y2="26.36"/>
        <line class="cls-3" x1="67.56" y1="26.13" x2="69.38" y2="29.31"/>
        <line class="cls-3" x1="58.14" y1="35.55" x2="61.32" y2="37.39"/>
        <line class="cls-3" x1="54.69" y1="48.43" x2="58.35" y2="48.43"/>
        <line class="cls-3" x1="58.14" y1="61.31" x2="61.32" y2="59.47"/>
        <line class="cls-3" x1="102.73" y1="61.31" x2="99.54" y2="59.47"/>
        <line class="cls-3" x1="106.17" y1="48.43" x2="102.5" y2="48.43"/>
        <line class="cls-3" x1="102.73" y1="35.55" x2="99.54" y2="37.39"/>
        <line class="cls-3" x1="93.3" y1="26.13" x2="91.46" y2="29.31"/>
      </g>
    </g>
  </g>
</svg>