<?xml version="1.0" encoding="UTF-8" standalone="no"?>
<!DOCTYPE svg PUBLIC "-//W3C//DTD SVG 1.1//EN" "http://www.w3.org/Graphics/SVG/1.1/DTD/svg11.dtd">
<svg width="100%" height="100%" viewBox="0 0 319 316" version="1.1" xmlns="http://www.w3.org/2000/svg" xmlns:xlink="http://www.w3.org/1999/xlink" xml:space="preserve" xmlns:serif="http://www.serif.com/" style="fill-rule:evenodd;clip-rule:evenodd;stroke-linejoin:round;stroke-miterlimit:2;">
    <g transform="matrix(1,0,0,1,-2524.19,-1840.98)">
        <g transform="matrix(4.16667,0,0,4.16667,0,0)">
            <g transform="matrix(1,0,0,1,681.896,470.389)">
                <path d="M0,2.385C-0.263,0.157 -0.737,-2.006 -1.404,-4.083C-2.984,-8.506 -5.303,-12.58 -8.214,-16.156C-11.701,-20.44 -16.514,-23.927 -21.736,-26.083C-22.211,-26.278 -22.689,-26.464 -23.17,-26.636C-24.132,-26.984 -25.105,-27.285 -26.083,-27.538C-27.062,-27.791 -28.045,-27.994 -29.028,-28.145C-29.55,-28.226 -30.073,-28.295 -30.599,-28.351C-31.648,-28.465 -32.703,-28.53 -33.759,-28.548C-36.397,-28.593 -39.042,-28.342 -41.625,-27.8C-41.701,-27.783 -41.778,-27.764 -41.855,-27.748C-45.352,-26.976 -49.221,-25.276 -51.627,-22.486C-53.211,-20.649 -54.17,-18.257 -54.17,-15.641C-54.17,-12.685 -52.947,-10.013 -50.978,-8.109C-56.336,-7.819 -61.286,-6.002 -65.404,-3.087C-65.409,-3.085 -65.411,-3.083 -65.413,-3.083C-65.657,-2.908 -65.899,-2.731 -66.137,-2.549C-66.199,-2.494 -66.263,-2.439 -66.328,-2.389C-66.335,-2.385 -66.339,-2.381 -66.346,-2.377C-68.382,-0.841 -69.479,1.808 -69.079,4.333C-68.79,6.158 -67.734,7.851 -66.222,8.912C-65.199,9.629 -63.939,10.011 -63.039,10.898C-62.244,11.68 -61.707,12.726 -61.548,13.83C-61.35,15.205 -62.374,16.823 -63.081,17.975C-62.506,17.431 -61.093,16.823 -60.377,16.527C-59.673,16.235 -58.912,15.968 -58.159,15.839C-56.504,15.555 -54.887,15.49 -53.374,14.659C-51.95,13.877 -50.847,12.572 -50.181,11.089C-49.339,9.214 -49.193,6.986 -50.02,5.104C-50.31,4.445 -50.709,3.838 -51.015,3.185C-52.491,0.019 -51.438,-4.327 -48.352,-6.178C-48.33,-6.191 -48.311,-6.207 -48.289,-6.22C-47.097,-7.009 -45.665,-7.47 -44.123,-7.47C-43.746,-7.47 -43.378,-7.442 -43.018,-7.39C-42.92,-7.366 -42.819,-7.34 -42.722,-7.316C-42.717,-7.316 -42.713,-7.314 -42.706,-7.314C-42.242,-7.229 -41.791,-7.102 -41.359,-6.937C-41.314,-6.922 -41.266,-6.909 -41.221,-6.893C-40.943,-6.808 -40.671,-6.719 -40.401,-6.623C-39.989,-6.481 -39.582,-6.329 -39.181,-6.166C-36.976,-5.281 -34.914,-4.117 -33.034,-2.722C-30.008,-0.476 -27.456,2.376 -25.561,5.656C-25.817,5.139 -25.961,4.559 -25.961,3.943C-25.961,2.236 -24.789,0.693 -23.144,0.236C-21.103,-0.33 -18.605,0.621 -17.157,1.881C-17.157,1.881 -7.99,8.62 -9.149,24.934C-9.283,26.82 -9.556,28.833 -9.996,30.978C-9.483,30.471 -8.985,29.95 -8.505,29.412C-7.987,28.831 -7.488,28.234 -7.011,27.618C-6.054,26.389 -5.179,25.092 -4.394,23.738C-3.411,22.044 -2.569,20.26 -1.884,18.4C-0.511,14.68 0.238,10.658 0.238,6.461C0.238,5.082 0.157,3.722 0,2.385" style="fill:rgb(108,100,106);fill-rule:nonzero;"/>
            </g>
        </g>
        <g transform="matrix(4.16667,0,0,4.16667,0,0)">
            <g transform="matrix(1,0,0,1,630.696,461.857)">
                <path d="M0,-4.962C0,-2.45 1.223,-0.181 3.192,1.437C-2.166,1.684 -6.702,3.697 -10.82,6.174C-10.824,6.176 -11.241,5.708 -11.241,5.708C-11.487,5.856 -11.729,6.006 -11.967,6.162C-12.11,6.252 -11.84,6.816 -11.981,6.914C-12.358,7.141 -13.187,6.853 -13.629,6.991C-15.541,7.583 -17.856,7.167 -19.26,5.897C-20.462,4.809 -20.877,3.224 -20.757,1.733C-20.208,-5.085 -13.637,-10.202 -6.011,-11.604C-0.881,-12.545 4.618,-11.936 9.702,-11.085C4.866,-3.808 0,-4.962 0,-4.962" style="fill:rgb(76,65,71);fill-rule:nonzero;"/>
            </g>
        </g>
        <g transform="matrix(4.16667,0,0,4.16667,0,0)">
            <g transform="matrix(1,0,0,1,660.027,489.961)">
                <path d="M0,-0.119C0,8.531 -3.979,16.251 -10.208,21.313C-10.52,21.568 -10.84,21.815 -11.165,22.056C-15.756,25.464 -21.443,27.482 -27.601,27.482C-34.865,27.482 -41.474,24.675 -46.405,20.086C-46.494,20.003 -46.584,19.918 -46.673,19.831C-43.271,22.653 -38.905,24.351 -34.138,24.351C-31.804,24.351 -29.563,23.943 -27.487,23.193C-27.928,23.233 -28.374,23.252 -28.823,23.252C-32.593,23.252 -36.051,21.912 -38.744,19.683C-37.225,20.35 -35.547,20.721 -33.784,20.721C-31.069,20.721 -28.56,19.845 -26.52,18.359C-25.831,17.858 -25.195,17.284 -24.624,16.654C-22.642,14.462 -21.435,11.558 -21.435,8.37C-21.435,3.511 -24.24,-0.692 -28.319,-2.708C-29.45,-3.267 -30.678,-3.658 -31.97,-3.848C-32.563,-3.934 -33.168,-3.98 -33.784,-3.98C-33.925,-3.98 -34.909,-3.975 -35.036,-3.985C-32.624,-4.384 -29.874,-5.896 -28.739,-8.078C-27.294,-10.857 -27.504,-13.219 -29.108,-15.661C-30.776,-18.198 -30.128,-21.823 -28.211,-24.215C-26.365,-26.518 -23.279,-27.601 -20.228,-26.766C-19.748,-26.635 -19.283,-26.456 -18.818,-26.278C-18.238,-26.278 -17.338,-25.711 -16.789,-25.501C-16.099,-25.235 -15.477,-24.931 -14.823,-24.59C-13.546,-23.923 -12.322,-23.152 -11.165,-22.294C-8.139,-20.048 -5.587,-17.195 -3.691,-13.916C-3.635,-13.805 -3.573,-13.696 -3.506,-13.592C-3.504,-13.583 -3.499,-13.576 -3.493,-13.567C-1.269,-9.589 0,-5.002 0,-0.119" style="fill:rgb(220,201,193);fill-rule:nonzero;"/>
            </g>
        </g>
        <g transform="matrix(4.16667,0,0,4.16667,0,0)">
            <g transform="matrix(1,0,0,1,620.081,468.067)">
                <path d="M0,29.517C-0.391,29.553 -0.784,29.571 -1.184,29.571C-2.31,29.571 -3.403,29.429 -4.447,29.162C-5.008,29.018 -5.552,28.839 -6.079,28.623C-9.276,27.335 -11.845,24.823 -13.207,21.668C-13.896,20.078 -14.276,18.324 -14.276,16.48C-14.276,15.092 -14.061,13.754 -13.66,12.496C-13.466,11.953 -13.255,11.418 -13.026,10.889C-13.013,10.861 -13,10.832 -12.986,10.801C-12.211,9.006 -11.248,7.311 -10.124,5.738C-8.947,4.095 -7.566,2.584 -6.067,1.238C-5.823,1.018 -5.605,0.83 -5.354,0.621C-5.155,0.454 -4.959,0.281 -4.757,0.124C-4.683,0.072 -4.603,0.002 -4.53,-0.054C-5.187,0.441 -5.753,1.046 -6.201,1.738C-6.805,2.665 -7.197,3.744 -7.304,4.906C-7.326,5.123 -7.337,5.345 -7.337,5.57C-7.337,6.415 -7.188,7.224 -6.914,7.976C-6.587,8.875 -6.084,9.688 -5.441,10.374C-5.419,10.401 -5.396,10.425 -5.369,10.451C-4.7,11.144 -3.89,11.702 -2.983,12.077C-2.983,12.079 -2.981,12.082 -2.981,12.085C-1.101,12.811 0.246,14.606 0.312,16.726C0.315,16.781 0.315,16.837 0.315,16.892C0.315,18.076 -0.21,19.109 -0.974,19.985C-1.2,20.245 -1.46,20.493 -1.729,20.739C-2.606,21.538 -3.594,22.322 -3.902,23.45C-4.135,24.301 -4.146,25.236 -3.917,26.089C-3.501,27.294 -2.464,28.743 0,29.517" style="fill:rgb(255,194,13);fill-rule:nonzero;"/>
            </g>
        </g>
        <g transform="matrix(4.16667,0,0,4.16667,0,0)">
            <g transform="matrix(1,0,0,1,638.879,487.606)">
                <path d="M0,-24.607C-0.36,-24.659 -0.729,-24.687 -1.105,-24.687C-2.647,-24.687 -4.079,-24.225 -5.271,-23.436C-5.293,-23.423 -5.312,-23.408 -5.334,-23.395C-8.42,-21.544 -9.474,-17.198 -7.997,-14.032C-7.691,-13.378 -7.292,-12.772 -7.002,-12.112C-6.176,-10.231 -6.321,-8.003 -7.163,-6.128C-7.829,-4.645 -8.933,-3.339 -10.356,-2.557C-11.869,-1.726 -13.486,-1.662 -15.142,-1.378C-15.895,-1.249 -16.655,-0.982 -17.359,-0.69C-18.075,-0.394 -19.488,0.214 -20.063,0.758C-19.356,-0.393 -18.332,-2.011 -18.53,-3.386C-18.689,-4.491 -19.227,-5.537 -20.021,-6.319C-20.922,-7.206 -22.182,-7.587 -23.204,-8.304C-24.717,-9.366 -25.772,-11.058 -26.062,-12.883C-26.461,-15.409 -25.364,-18.057 -23.328,-19.593C-23.321,-19.597 -23.317,-19.601 -23.311,-19.606C-23.245,-19.656 -23.182,-19.711 -23.119,-19.765C-22.882,-19.948 -22.64,-20.125 -22.396,-20.299C-22.394,-20.299 -22.392,-20.301 -22.387,-20.303C-18.269,-23.218 -13.318,-25.036 -7.96,-25.326C-7.461,-25.352 -6.958,-25.365 -6.452,-25.365C-4.231,-25.365 -2.07,-25.103 0,-24.607" style="fill:rgb(108,100,106);fill-rule:nonzero;"/>
            </g>
        </g>
        <g transform="matrix(4.16667,0,0,4.16667,0,0)">
            <g transform="matrix(1,0,0,1,641.917,489.284)">
                <path d="M0,0.458C-0.176,0.482 -0.351,0.493 -0.524,0.494C-0.194,1.132 0.512,1.524 1.264,1.421C2.216,1.288 2.882,0.408 2.75,-0.545C2.724,-0.73 2.669,-0.905 2.591,-1.066C1.986,-0.263 1.075,0.309 0,0.458" style="fill:rgb(108,100,106);fill-rule:nonzero;"/>
            </g>
        </g>
        <g transform="matrix(4.16667,0,0,4.16667,0,0)">
            <g transform="matrix(1,0,0,1,638.611,491.005)">
                <path d="M0,0.366C-0.141,0.386 -0.28,0.394 -0.419,0.394C-0.155,0.905 0.409,1.22 1.011,1.136C1.773,1.03 2.306,0.326 2.2,-0.436C2.18,-0.585 2.136,-0.725 2.073,-0.854C1.59,-0.211 0.86,0.247 0,0.366" style="fill:rgb(108,100,106);fill-rule:nonzero;"/>
            </g>
        </g>
        <g transform="matrix(4.16667,0,0,4.16667,0,0)">
            <g transform="matrix(1,0,0,1,639.797,483.131)">
                <path d="M0,1.605C-0.257,1.694 -0.515,1.762 -0.773,1.815C-0.091,2.672 1.082,3.05 2.176,2.671C3.563,2.192 4.3,0.677 3.819,-0.71C3.726,-0.982 3.592,-1.227 3.428,-1.445C2.76,-0.063 1.564,1.064 0,1.605" style="fill:rgb(108,100,106);fill-rule:nonzero;"/>
            </g>
        </g>
        <g transform="matrix(4.16667,0,0,4.16667,0,0)">
            <g transform="matrix(1,0,0,1,635.545,486.59)">
                <path d="M0,1.284C-0.205,1.354 -0.412,1.409 -0.619,1.451C-0.073,2.138 0.865,2.44 1.741,2.137C2.852,1.753 3.439,0.541 3.056,-0.569C2.98,-0.785 2.873,-0.983 2.742,-1.156C2.208,-0.051 1.252,0.85 0,1.284" style="fill:rgb(108,100,106);fill-rule:nonzero;"/>
            </g>
        </g>
        <g transform="matrix(4.16667,0,0,4.16667,0,0)">
            <g transform="matrix(1,0,0,1,656.534,507.202)">
                <path d="M0,-30.808C-0.006,-30.817 -0.011,-30.824 -0.013,-30.832C-0.08,-30.937 -0.142,-31.045 -0.198,-31.157C-2.094,-34.436 -4.646,-37.288 -7.672,-39.535C-8.403,-40.078 -9.165,-40.58 -9.946,-41.049C-4.224,-35.71 -0.644,-28.104 -0.644,-19.661C-0.644,-3.509 -13.737,9.585 -29.889,9.585C-29.969,9.585 -30.049,9.582 -30.129,9.582C-28.19,10.012 -26.176,10.241 -24.107,10.241C-17.95,10.241 -12.263,8.223 -7.672,4.815C-7.347,4.574 -7.026,4.327 -6.715,4.072C-0.485,-0.99 3.493,-8.709 3.493,-17.36C3.493,-22.243 2.226,-26.829 0,-30.808" style="fill:rgb(198,182,176);fill-rule:nonzero;"/>
            </g>
        </g>
        <g transform="matrix(4.16667,0,0,4.16667,0,0)">
            <g transform="matrix(1,0,0,1,620.393,492.974)">
                <path d="M0,-8.181C-0.003,-8.282 -0.012,-8.38 -0.021,-8.48C-0.022,-8.503 -0.023,-8.527 -0.025,-8.549C-0.026,-8.561 -0.027,-8.572 -0.028,-8.583C-0.057,-8.836 -0.103,-9.083 -0.165,-9.325C-0.168,-9.334 -0.17,-9.343 -0.173,-9.353C-0.201,-9.458 -0.232,-9.562 -0.268,-9.664C-0.283,-9.71 -0.3,-9.755 -0.317,-9.8C-0.343,-9.869 -0.368,-9.939 -0.397,-10.007C-0.437,-10.1 -0.479,-10.192 -0.524,-10.283C-0.535,-10.305 -0.545,-10.328 -0.557,-10.351C-0.742,-10.713 -0.971,-11.054 -1.234,-11.364C-1.256,-11.388 -1.278,-11.411 -1.3,-11.436C-1.364,-11.509 -1.431,-11.58 -1.499,-11.65C-1.525,-11.675 -1.553,-11.701 -1.579,-11.726C-1.759,-11.898 -1.953,-12.05 -2.155,-12.19C-5.751,-10.356 -8.074,-7.457 -8.074,-4.193C-8.074,-0.804 -5.572,2.192 -1.741,4.009C-3.201,3.21 -3.904,2.122 -4.229,1.182C-4.458,0.329 -4.446,-0.606 -4.214,-1.457C-3.905,-2.585 -2.918,-3.369 -2.041,-4.168C-1.878,-4.317 -1.723,-4.467 -1.572,-4.619C-1.474,-4.719 -1.375,-4.819 -1.285,-4.922C-0.521,-5.798 0.004,-6.831 0.004,-8.015C0.004,-8.07 0.004,-8.126 0,-8.181" style="fill:rgb(209,161,12);fill-rule:nonzero;"/>
            </g>
        </g>
        <g transform="matrix(4.16667,0,0,4.16667,0,0)">
            <g transform="matrix(1,0,0,1,672.747,442.641)">
                <path d="M0,52.682C2.361,47.839 3.694,42.401 3.694,36.65C3.694,16.492 -12.58,0.136 -32.706,0C-36.202,0.772 -40.071,2.472 -42.478,5.262C-44.062,7.099 -45.021,9.492 -45.021,12.107C-45.021,15.063 -43.798,17.735 -41.828,19.639C-41.329,19.613 -40.826,19.6 -40.32,19.6C-38.1,19.6 -35.938,19.862 -33.868,20.358C-33.771,20.382 -33.67,20.409 -33.572,20.432C-33.567,20.432 -33.563,20.434 -33.557,20.434C-33.093,20.519 -32.642,20.646 -32.21,20.811C-32.165,20.827 -32.116,20.839 -32.071,20.855C-31.794,20.94 -31.521,21.03 -31.252,21.125C-30.84,21.267 -30.433,21.419 -30.031,21.582C-27.826,22.467 -25.765,23.631 -23.885,25.026C-20.858,27.272 -18.307,30.124 -16.411,33.404C-16.668,32.887 -16.812,32.307 -16.812,31.691C-16.812,29.984 -15.64,28.441 -13.994,27.984C-11.953,27.418 -9.456,28.37 -8.008,29.629C-8.008,29.629 1.159,36.369 0,52.682" style="fill:rgb(108,100,106);fill-rule:nonzero;"/>
            </g>
        </g>
        <g transform="matrix(4.16667,0,0,4.16667,0,0)">
            <g transform="matrix(1,0,0,1,681.896,470.39)">
                <path d="M0,2.384C-0.263,0.156 -0.737,-2.007 -1.404,-4.084C-2.984,-8.507 -5.303,-12.581 -8.214,-16.157C-11.701,-20.441 -16.514,-23.928 -21.736,-26.084C-22.211,-26.279 -22.689,-26.465 -23.17,-26.637C-24.132,-26.985 -25.105,-27.286 -26.083,-27.539C-27.062,-27.792 -28.045,-27.995 -29.028,-28.146C-29.55,-28.227 -30.073,-28.296 -30.599,-28.352C-31.648,-28.466 -32.703,-28.531 -33.759,-28.549C-36.397,-28.594 -39.042,-28.343 -41.625,-27.801C-41.701,-27.784 -41.778,-27.765 -41.855,-27.749C-21.729,-27.613 -5.455,-11.258 -5.455,8.901C-5.455,14.652 -6.788,20.09 -9.149,24.933C-9.283,26.819 -9.556,28.832 -9.996,30.978C-9.483,30.47 -8.985,29.949 -8.505,29.411C-7.987,28.83 -7.488,28.233 -7.011,27.617C-6.054,26.388 -5.179,25.091 -4.394,23.737C-3.411,22.043 -2.569,20.259 -1.884,18.399C-0.511,14.679 0.238,10.657 0.238,6.46C0.238,5.081 0.157,3.721 0,2.384" style="fill:rgb(99,91,97);fill-rule:nonzero;"/>
            </g>
        </g>
        <g transform="matrix(4.16667,0,0,4.16667,0,0)">
            <g transform="matrix(1,0,0,1,645.934,452.849)">
                <path d="M0,4.325C-0.931,0.894 1.096,-2.641 4.526,-3.571C4.644,-3.603 4.761,-3.631 4.878,-3.655C3.472,-4.423 1.778,-4.67 0.11,-4.218C-3.319,-3.287 -5.346,0.248 -4.415,3.679C-3.517,6.991 -0.188,8.995 3.129,8.289C1.644,7.478 0.479,6.087 0,4.325" style="fill:rgb(220,201,193);fill-rule:nonzero;"/>
            </g>
        </g>
        <g transform="matrix(4.16667,0,0,4.16667,0,0)">
            <g transform="matrix(1,0,0,1,655.274,456.168)">
                <path d="M0,2.906C-0.038,0.079 2.223,-2.244 5.05,-2.283C5.146,-2.284 5.242,-2.282 5.338,-2.279C4.405,-3.149 3.15,-3.673 1.775,-3.655C-1.052,-3.616 -3.313,-1.293 -3.274,1.534C-3.237,4.264 -1.068,6.467 1.627,6.579C0.643,5.661 0.021,4.358 0,2.906" style="fill:rgb(220,201,193);fill-rule:nonzero;"/>
            </g>
        </g>
        <g transform="matrix(4.16667,0,0,4.16667,0,0)">
            <g transform="matrix(1,0,0,1,615.551,489.237)">
                <path d="M0,-21.224C0,-21.224 -4.44,-17.877 -6.393,-14.249C-8.345,-10.622 -7.584,-6.411 -3.981,-5.418C-1.186,-4.648 2.874,-4.93 2.323,0C3.44,-0.94 3.791,-1.297 5.969,-2.321C7.943,-5.28 7.247,-8.713 7.247,-8.713L0.044,-12.331C0.044,-12.331 -0.941,-20.513 0,-21.224" style="fill:rgb(108,100,106);fill-rule:nonzero;"/>
            </g>
        </g>
        <g transform="matrix(4.16667,0,0,4.16667,0,0)">
            <g transform="matrix(0,-1,-1,0,607.851,483.219)">
                <path d="M-0.549,-0.548C-0.851,-0.548 -1.097,-0.303 -1.097,0C-1.097,0.304 -0.851,0.549 -0.549,0.549C-0.246,0.549 0.001,0.304 0.001,0C0.001,-0.303 -0.246,-0.548 -0.549,-0.548" style="fill:rgb(76,65,71);fill-rule:nonzero;"/>
            </g>
        </g>
        <g transform="matrix(4.16667,0,0,4.16667,0,0)">
            <g transform="matrix(1,0,0,1,621.634,473.208)">
                <path d="M0,4.872C-2.093,6.582 -5.176,6.27 -6.886,4.177L-7.368,4.57C-5.444,6.927 -1.962,7.279 0.395,5.355C2.751,3.432 3.104,-0.051 1.18,-2.407L0.696,-2.014C2.406,0.08 2.094,3.163 0,4.872" style="fill:rgb(255,194,13);fill-rule:nonzero;"/>
            </g>
        </g>
        <g transform="matrix(4.16667,0,0,4.16667,0,0)">
            <g transform="matrix(1,0,0,1,621.634,472.904)">
                <path d="M0,5.176C2.094,3.467 2.406,0.384 0.696,-1.71L-6.886,4.481C-5.176,6.574 -2.093,6.886 0,5.176" style="fill:white;fill-rule:nonzero;"/>
            </g>
        </g>
        <g transform="matrix(4.16667,0,0,4.16667,0,0)">
            <g transform="matrix(-0.63236,-0.774674,-0.774674,0.63236,617.052,472.498)">
                <clipPath id="_clip1">
                    <path d="M-7.222,-0.019C-7.222,-2.722 -5.031,-4.913 -2.327,-4.913L-2.329,4.876C-5.032,4.874 -7.223,2.683 -7.222,-0.019" clip-rule="nonzero"/>
                </clipPath>
                <g clip-path="url(#_clip1)">
                    <path d="M-3.247,-6.841C-5.562,-6.841 -7.439,-4.964 -7.438,-2.65C-7.438,-0.335 -5.563,1.542 -3.247,1.542C-0.933,1.542 0.944,-0.335 0.945,-2.65C0.944,-4.965 -0.932,-6.84 -3.247,-6.841" style="fill:rgb(76,65,71);fill-rule:nonzero;"/>
                </g>
            </g>
        </g>
        <g transform="matrix(4.16667,0,0,4.16667,0,0)">
            <g transform="matrix(0,-1,-1,0,619.417,475.398)">
                <path d="M-0.947,-0.947C-1.469,-0.947 -1.893,-0.523 -1.893,-0C-1.893,0.522 -1.469,0.947 -0.947,0.947C-0.425,0.947 -0,0.522 -0,-0C-0,-0.523 -0.425,-0.947 -0.947,-0.947" style="fill:white;fill-rule:nonzero;"/>
            </g>
        </g>
    </g>
</svg>
