<?xml version="1.0" encoding="UTF-8"?>
<svg id="_レイヤー_2" data-name="レイヤー 2" xmlns="http://www.w3.org/2000/svg" viewBox="0 0 401.11 40.18">
  <defs>
    <style>
      .cls-1 {
        stroke-width: .56px;
      }

      .cls-1, .cls-2, .cls-3 {
        stroke: #000;
        stroke-miterlimit: 10;
      }

      .cls-2 {
        fill: #fff;
        stroke-width: 2.65px;
      }

      .cls-3 {
        fill: none;
      }
    </style>
  </defs>
  <g id="_編集モード" data-name="編集モード">
    <g>
      <g>
        <path d="M55.68,28.36c.42.81.97,1.46,1.67,1.96s1.51.87,2.44,1.11c.94.24,1.9.36,2.9.36.68,0,1.4-.06,2.18-.17.77-.11,1.5-.33,2.17-.65.68-.32,1.24-.77,1.69-1.33.45-.56.68-1.28.68-2.15,0-.93-.3-1.69-.89-2.27-.6-.58-1.38-1.06-2.34-1.45-.97-.39-2.06-.73-3.29-1.02-1.23-.29-2.47-.61-3.72-.97-1.29-.32-2.55-.72-3.77-1.18-1.23-.47-2.32-1.07-3.29-1.81-.97-.74-1.75-1.67-2.34-2.78-.6-1.11-.89-2.46-.89-4.04,0-1.77.38-3.31,1.14-4.62.76-1.31,1.75-2.39,2.97-3.26s2.61-1.51,4.16-1.93,3.09-.63,4.64-.63c1.8,0,3.54.2,5.2.6,1.66.4,3.13,1.06,4.42,1.96s2.31,2.05,3.07,3.46c.76,1.4,1.14,3.1,1.14,5.1h-7.35c-.06-1.03-.28-1.89-.65-2.56-.37-.68-.86-1.21-1.47-1.6-.61-.39-1.31-.66-2.1-.82-.79-.16-1.65-.24-2.59-.24-.61,0-1.23.07-1.84.19-.61.13-1.17.36-1.67.68-.5.32-.91.73-1.23,1.21s-.48,1.1-.48,1.84c0,.68.13,1.23.39,1.64.26.42.76.81,1.52,1.16s1.8.71,3.14,1.06,3.09.81,5.25,1.35c.64.13,1.54.36,2.68.7,1.14.34,2.28.88,3.41,1.62,1.13.74,2.1,1.73,2.92,2.97.82,1.24,1.23,2.83,1.23,4.76,0,1.58-.31,3.05-.92,4.4-.61,1.35-1.52,2.52-2.73,3.5-1.21.98-2.71,1.75-4.5,2.3-1.79.55-3.86.82-6.21.82-1.9,0-3.75-.23-5.54-.7-1.79-.47-3.37-1.2-4.74-2.2-1.37-1-2.46-2.27-3.26-3.82-.81-1.55-1.19-3.38-1.16-5.51h7.35c0,1.16.21,2.14.63,2.95Z"/>
        <path d="M83.62,8.01V2.35h6.87v5.66h-6.87ZM90.49,11.87v25h-6.87V11.87h6.87Z"/>
        <path d="M112.5,11.87v4.59h-5.03v12.38c0,1.16.19,1.93.58,2.32s1.16.58,2.32.58c.39,0,.76-.02,1.11-.05s.69-.08,1.02-.15v5.32c-.58.1-1.22.16-1.93.19s-1.4.05-2.08.05c-1.06,0-2.07-.07-3.02-.22-.95-.15-1.79-.43-2.51-.85-.72-.42-1.3-1.01-1.72-1.79-.42-.77-.63-1.79-.63-3.05v-14.75h-4.16v-4.59h4.16v-7.49h6.87v7.49h5.03Z"/>
        <path d="M125.04,30.87c1.03,1,2.51,1.5,4.45,1.5,1.38,0,2.58-.35,3.58-1.04,1-.69,1.61-1.43,1.84-2.2h6.04c-.97,3-2.45,5.14-4.45,6.43-2,1.29-4.42,1.93-7.25,1.93-1.97,0-3.74-.31-5.32-.94-1.58-.63-2.92-1.52-4.01-2.68-1.1-1.16-1.94-2.55-2.54-4.16-.6-1.61-.89-3.38-.89-5.32s.31-3.61.92-5.22c.61-1.61,1.48-3,2.61-4.18,1.13-1.18,2.47-2.1,4.04-2.78,1.56-.68,3.29-1.01,5.2-1.01,2.13,0,3.98.41,5.56,1.23,1.58.82,2.88,1.93,3.89,3.31,1.02,1.39,1.75,2.97,2.2,4.74.45,1.77.61,3.63.48,5.56h-18.03c.1,2.22.66,3.84,1.69,4.83ZM132.8,17.72c-.82-.9-2.07-1.35-3.75-1.35-1.1,0-2.01.19-2.73.56-.72.37-1.3.83-1.74,1.38-.43.55-.74,1.13-.92,1.74-.18.61-.28,1.16-.31,1.64h11.17c-.32-1.74-.89-3.06-1.72-3.96Z"/>
        <path d="M158.43,36.87l-11.17-34.52h7.79l7.69,24.27h.1l7.79-24.27h7.83l-11.46,34.52h-8.56Z"/>
        <path d="M183.86,8.01V2.35h6.87v5.66h-6.87ZM190.72,11.87v25h-6.87V11.87h6.87Z"/>
        <path d="M204.82,30.66c.3.53.7.97,1.18,1.31s1.04.59,1.67.75c.63.16,1.28.24,1.96.24.48,0,.99-.06,1.52-.17.53-.11,1.02-.29,1.45-.53.44-.24.8-.56,1.09-.97.29-.4.44-.91.44-1.52,0-1.03-.69-1.8-2.05-2.32-1.37-.51-3.28-1.03-5.73-1.55-1-.23-1.97-.49-2.92-.8-.95-.31-1.8-.71-2.54-1.21-.74-.5-1.34-1.13-1.79-1.89-.45-.76-.68-1.68-.68-2.78,0-1.61.31-2.93.94-3.96.63-1.03,1.46-1.84,2.49-2.44,1.03-.6,2.19-1.02,3.48-1.26,1.29-.24,2.61-.36,3.96-.36s2.67.13,3.94.39c1.27.26,2.41.69,3.41,1.3,1,.61,1.83,1.43,2.49,2.44.66,1.02,1.05,2.3,1.18,3.84h-6.53c-.1-1.32-.6-2.22-1.5-2.68s-1.97-.7-3.19-.7c-.39,0-.8.02-1.26.07-.45.05-.86.15-1.23.31s-.68.39-.94.7c-.26.31-.39.72-.39,1.23,0,.61.22,1.11.68,1.5s1.04.7,1.77.94c.72.24,1.55.46,2.49.65.93.19,1.88.4,2.85.63,1,.23,1.97.5,2.93.82.95.32,1.79.75,2.54,1.28.74.53,1.34,1.19,1.79,1.98s.68,1.76.68,2.92c0,1.64-.33,3.02-.99,4.13-.66,1.11-1.52,2.01-2.59,2.68-1.06.68-2.28,1.15-3.65,1.43-1.37.27-2.76.41-4.18.41s-2.87-.15-4.26-.44c-1.38-.29-2.62-.77-3.7-1.45-1.08-.68-1.97-1.57-2.66-2.68s-1.07-2.51-1.13-4.18h6.53c0,.74.15,1.38.46,1.91Z"/>
        <path d="M243.86,36.87v-3.48h-.15c-.87,1.45-2,2.5-3.38,3.14-1.39.64-2.8.97-4.26.97-1.84,0-3.34-.24-4.52-.73-1.18-.48-2.1-1.17-2.78-2.05-.68-.89-1.15-1.97-1.43-3.24s-.41-2.68-.41-4.23v-15.37h6.87v14.12c0,2.06.32,3.6.97,4.62.64,1.01,1.79,1.52,3.43,1.52,1.87,0,3.22-.56,4.06-1.67.84-1.11,1.26-2.94,1.26-5.49v-13.1h6.87v25h-6.53Z"/>
        <path d="M258.22,19.56c.1-1.61.5-2.95,1.21-4.01s1.61-1.92,2.71-2.56c1.1-.64,2.33-1.1,3.7-1.38,1.37-.27,2.75-.41,4.13-.41,1.26,0,2.53.09,3.82.27,1.29.18,2.47.52,3.53,1.04,1.06.52,1.93,1.23,2.61,2.15.68.92,1.02,2.14,1.02,3.65v13.01c0,1.13.06,2.21.19,3.24.13,1.03.35,1.8.68,2.32h-6.96c-.13-.39-.23-.78-.31-1.18-.08-.4-.14-.81-.17-1.23-1.1,1.13-2.38,1.92-3.87,2.37-1.48.45-3,.68-4.54.68-1.19,0-2.3-.15-3.34-.44s-1.93-.74-2.71-1.35-1.38-1.39-1.81-2.32c-.44-.93-.65-2.05-.65-3.34,0-1.42.25-2.59.75-3.5.5-.92,1.14-1.65,1.93-2.2s1.69-.96,2.71-1.23c1.02-.27,2.04-.49,3.07-.65s2.05-.29,3.05-.39c1-.1,1.88-.24,2.66-.44s1.39-.47,1.84-.85c.45-.37.66-.91.63-1.62,0-.74-.12-1.33-.36-1.76-.24-.43-.56-.77-.97-1.01-.4-.24-.87-.4-1.4-.48s-1.1-.12-1.72-.12c-1.35,0-2.42.29-3.19.87-.78.58-1.23,1.55-1.36,2.9h-6.87ZM274.08,24.64c-.29.26-.65.46-1.09.6-.44.15-.9.27-1.4.36-.5.1-1.02.18-1.57.24-.55.07-1.1.15-1.64.24-.52.1-1.02.23-1.52.39s-.94.38-1.3.65c-.37.27-.67.62-.89,1.04-.23.42-.34.95-.34,1.59s.11,1.13.34,1.55c.22.42.53.75.92.99.39.24.84.41,1.35.51s1.05.15,1.6.15c1.35,0,2.4-.23,3.14-.68.74-.45,1.29-.99,1.64-1.62.35-.63.57-1.26.65-1.91.08-.64.12-1.16.12-1.55v-2.56Z"/>
        <path d="M296.22,2.35v34.52h-6.87V2.35h6.87Z"/>
        <path d="M303.76,8.01V2.35h6.87v5.66h-6.87ZM310.62,11.87v25h-6.87V11.87h6.87Z"/>
        <path d="M330.4,17.05h-12.04v-5.17h21.08v5.17l-13.01,14.65h13.92v5.17h-22.96v-5.17l13.01-14.65Z"/>
        <path d="M353.32,30.87c1.03,1,2.51,1.5,4.45,1.5,1.38,0,2.58-.35,3.58-1.04,1-.69,1.61-1.43,1.84-2.2h6.04c-.97,3-2.45,5.14-4.45,6.43-2,1.29-4.42,1.93-7.25,1.93-1.97,0-3.74-.31-5.32-.94-1.58-.63-2.92-1.52-4.01-2.68-1.1-1.16-1.94-2.55-2.54-4.16-.6-1.61-.89-3.38-.89-5.32s.31-3.61.92-5.22c.61-1.61,1.48-3,2.61-4.18,1.13-1.18,2.47-2.1,4.04-2.78,1.56-.68,3.29-1.01,5.2-1.01,2.13,0,3.98.41,5.56,1.23,1.58.82,2.88,1.93,3.89,3.31,1.02,1.39,1.75,2.97,2.2,4.74.45,1.77.61,3.63.48,5.56h-18.03c.1,2.22.66,3.84,1.69,4.83ZM361.07,17.72c-.82-.9-2.07-1.35-3.75-1.35-1.1,0-2.01.19-2.73.56-.72.37-1.3.83-1.74,1.38-.43.55-.74,1.13-.92,1.74-.18.61-.28,1.16-.31,1.64h11.17c-.32-1.74-.89-3.06-1.72-3.96Z"/>
      </g>
      <g>
        <path class="cls-3" d="M55.68,28.36c.42.81.97,1.46,1.67,1.96s1.51.87,2.44,1.11c.94.24,1.9.36,2.9.36.68,0,1.4-.06,2.18-.17.77-.11,1.5-.33,2.17-.65.68-.32,1.24-.77,1.69-1.33.45-.56.68-1.28.68-2.15,0-.93-.3-1.69-.89-2.27-.6-.58-1.38-1.06-2.34-1.45-.97-.39-2.06-.73-3.29-1.02-1.23-.29-2.47-.61-3.72-.97-1.29-.32-2.55-.72-3.77-1.18-1.23-.47-2.32-1.07-3.29-1.81-.97-.74-1.75-1.67-2.34-2.78-.6-1.11-.89-2.46-.89-4.04,0-1.77.38-3.31,1.14-4.62.76-1.31,1.75-2.39,2.97-3.26s2.61-1.51,4.16-1.93,3.09-.63,4.64-.63c1.8,0,3.54.2,5.2.6,1.66.4,3.13,1.06,4.42,1.96s2.31,2.05,3.07,3.46c.76,1.4,1.14,3.1,1.14,5.1h-7.35c-.06-1.03-.28-1.89-.65-2.56-.37-.68-.86-1.21-1.47-1.6-.61-.39-1.31-.66-2.1-.82-.79-.16-1.65-.24-2.59-.24-.61,0-1.23.07-1.84.19-.61.13-1.17.36-1.67.68-.5.32-.91.73-1.23,1.21s-.48,1.1-.48,1.84c0,.68.13,1.23.39,1.64.26.42.76.81,1.52,1.16s1.8.71,3.14,1.06,3.09.81,5.25,1.35c.64.13,1.54.36,2.68.7,1.14.34,2.28.88,3.41,1.62,1.13.74,2.1,1.73,2.92,2.97.82,1.24,1.23,2.83,1.23,4.76,0,1.58-.31,3.05-.92,4.4-.61,1.35-1.52,2.52-2.73,3.5-1.21.98-2.71,1.75-4.5,2.3-1.79.55-3.86.82-6.21.82-1.9,0-3.75-.23-5.54-.7-1.79-.47-3.37-1.2-4.74-2.2-1.37-1-2.46-2.27-3.26-3.82-.81-1.55-1.19-3.38-1.16-5.51h7.35c0,1.16.21,2.14.63,2.95Z"/>
        <path class="cls-3" d="M83.62,8.01V2.35h6.87v5.66h-6.87ZM90.49,11.87v25h-6.87V11.87h6.87Z"/>
        <path class="cls-3" d="M112.5,11.87v4.59h-5.03v12.38c0,1.16.19,1.93.58,2.32s1.16.58,2.32.58c.39,0,.76-.02,1.11-.05s.69-.08,1.02-.15v5.32c-.58.1-1.22.16-1.93.19s-1.4.05-2.08.05c-1.06,0-2.07-.07-3.02-.22-.95-.15-1.79-.43-2.51-.85-.72-.42-1.3-1.01-1.72-1.79-.42-.77-.63-1.79-.63-3.05v-14.75h-4.16v-4.59h4.16v-7.49h6.87v7.49h5.03Z"/>
        <path class="cls-3" d="M125.04,30.87c1.03,1,2.51,1.5,4.45,1.5,1.38,0,2.58-.35,3.58-1.04,1-.69,1.61-1.43,1.84-2.2h6.04c-.97,3-2.45,5.14-4.45,6.43-2,1.29-4.42,1.93-7.25,1.93-1.97,0-3.74-.31-5.32-.94-1.58-.63-2.92-1.52-4.01-2.68-1.1-1.16-1.94-2.55-2.54-4.16-.6-1.61-.89-3.38-.89-5.32s.31-3.61.92-5.22c.61-1.61,1.48-3,2.61-4.18,1.13-1.18,2.47-2.1,4.04-2.78,1.56-.68,3.29-1.01,5.2-1.01,2.13,0,3.98.41,5.56,1.23,1.58.82,2.88,1.93,3.89,3.31,1.02,1.39,1.75,2.97,2.2,4.74.45,1.77.61,3.63.48,5.56h-18.03c.1,2.22.66,3.84,1.69,4.83ZM132.8,17.72c-.82-.9-2.07-1.35-3.75-1.35-1.1,0-2.01.19-2.73.56-.72.37-1.3.83-1.74,1.38-.43.55-.74,1.13-.92,1.74-.18.61-.28,1.16-.31,1.64h11.17c-.32-1.74-.89-3.06-1.72-3.96Z"/>
        <path class="cls-3" d="M158.43,36.87l-11.17-34.52h7.79l7.69,24.27h.1l7.79-24.27h7.83l-11.46,34.52h-8.56Z"/>
        <path class="cls-3" d="M183.86,8.01V2.35h6.87v5.66h-6.87ZM190.72,11.87v25h-6.87V11.87h6.87Z"/>
        <path class="cls-3" d="M204.82,30.66c.3.53.7.97,1.18,1.31s1.04.59,1.67.75c.63.16,1.28.24,1.96.24.48,0,.99-.06,1.52-.17.53-.11,1.02-.29,1.45-.53.44-.24.8-.56,1.09-.97.29-.4.44-.91.44-1.52,0-1.03-.69-1.8-2.05-2.32-1.37-.51-3.28-1.03-5.73-1.55-1-.23-1.97-.49-2.92-.8-.95-.31-1.8-.71-2.54-1.21-.74-.5-1.34-1.13-1.79-1.89-.45-.76-.68-1.68-.68-2.78,0-1.61.31-2.93.94-3.96.63-1.03,1.46-1.84,2.49-2.44,1.03-.6,2.19-1.02,3.48-1.26,1.29-.24,2.61-.36,3.96-.36s2.67.13,3.94.39c1.27.26,2.41.69,3.41,1.3,1,.61,1.83,1.43,2.49,2.44.66,1.02,1.05,2.3,1.18,3.84h-6.53c-.1-1.32-.6-2.22-1.5-2.68s-1.97-.7-3.19-.7c-.39,0-.8.02-1.26.07-.45.05-.86.15-1.23.31s-.68.39-.94.7c-.26.31-.39.72-.39,1.23,0,.61.22,1.11.68,1.5s1.04.7,1.77.94c.72.24,1.55.46,2.49.65.93.19,1.88.4,2.85.63,1,.23,1.97.5,2.93.82.95.32,1.79.75,2.54,1.28.74.53,1.34,1.19,1.79,1.98s.68,1.76.68,2.92c0,1.64-.33,3.02-.99,4.13-.66,1.11-1.52,2.01-2.59,2.68-1.06.68-2.28,1.15-3.65,1.43-1.37.27-2.76.41-4.18.41s-2.87-.15-4.26-.44c-1.38-.29-2.62-.77-3.7-1.45-1.08-.68-1.97-1.57-2.66-2.68s-1.07-2.51-1.13-4.18h6.53c0,.74.15,1.38.46,1.91Z"/>
        <path class="cls-3" d="M243.86,36.87v-3.48h-.15c-.87,1.45-2,2.5-3.38,3.14-1.39.64-2.8.97-4.26.97-1.84,0-3.34-.24-4.52-.73-1.18-.48-2.1-1.17-2.78-2.05-.68-.89-1.15-1.97-1.43-3.24s-.41-2.68-.41-4.23v-15.37h6.87v14.12c0,2.06.32,3.6.97,4.62.64,1.01,1.79,1.52,3.43,1.52,1.87,0,3.22-.56,4.06-1.67.84-1.11,1.26-2.94,1.26-5.49v-13.1h6.87v25h-6.53Z"/>
        <path class="cls-3" d="M258.22,19.56c.1-1.61.5-2.95,1.21-4.01s1.61-1.92,2.71-2.56c1.1-.64,2.33-1.1,3.7-1.38,1.37-.27,2.75-.41,4.13-.41,1.26,0,2.53.09,3.82.27,1.29.18,2.47.52,3.53,1.04,1.06.52,1.93,1.23,2.61,2.15.68.92,1.02,2.14,1.02,3.65v13.01c0,1.13.06,2.21.19,3.24.13,1.03.35,1.8.68,2.32h-6.96c-.13-.39-.23-.78-.31-1.18-.08-.4-.14-.81-.17-1.23-1.1,1.13-2.38,1.92-3.87,2.37-1.48.45-3,.68-4.54.68-1.19,0-2.3-.15-3.34-.44s-1.93-.74-2.71-1.35-1.38-1.39-1.81-2.32c-.44-.93-.65-2.05-.65-3.34,0-1.42.25-2.59.75-3.5.5-.92,1.14-1.65,1.93-2.2s1.69-.96,2.71-1.23c1.02-.27,2.04-.49,3.07-.65s2.05-.29,3.05-.39c1-.1,1.88-.24,2.66-.44s1.39-.47,1.84-.85c.45-.37.66-.91.63-1.62,0-.74-.12-1.33-.36-1.76-.24-.43-.56-.77-.97-1.01-.4-.24-.87-.4-1.4-.48s-1.1-.12-1.72-.12c-1.35,0-2.42.29-3.19.87-.78.58-1.23,1.55-1.36,2.9h-6.87ZM274.08,24.64c-.29.26-.65.46-1.09.6-.44.15-.9.27-1.4.36-.5.1-1.02.18-1.57.24-.55.07-1.1.15-1.64.24-.52.1-1.02.23-1.52.39s-.94.38-1.3.65c-.37.27-.67.62-.89,1.04-.23.42-.34.95-.34,1.59s.11,1.13.34,1.55c.22.42.53.75.92.99.39.24.84.41,1.35.51s1.05.15,1.6.15c1.35,0,2.4-.23,3.14-.68.74-.45,1.29-.99,1.64-1.62.35-.63.57-1.26.65-1.91.08-.64.12-1.16.12-1.55v-2.56Z"/>
        <path class="cls-3" d="M296.22,2.35v34.52h-6.87V2.35h6.87Z"/>
        <path class="cls-3" d="M303.76,8.01V2.35h6.87v5.66h-6.87ZM310.62,11.87v25h-6.87V11.87h6.87Z"/>
        <path class="cls-3" d="M330.4,17.05h-12.04v-5.17h21.08v5.17l-13.01,14.65h13.92v5.17h-22.96v-5.17l13.01-14.65Z"/>
        <path class="cls-3" d="M353.32,30.87c1.03,1,2.51,1.5,4.45,1.5,1.38,0,2.58-.35,3.58-1.04,1-.69,1.61-1.43,1.84-2.2h6.04c-.97,3-2.45,5.14-4.45,6.43-2,1.29-4.42,1.93-7.25,1.93-1.97,0-3.74-.31-5.32-.94-1.58-.63-2.92-1.52-4.01-2.68-1.1-1.16-1.94-2.55-2.54-4.16-.6-1.61-.89-3.38-.89-5.32s.31-3.61.92-5.22c.61-1.61,1.48-3,2.61-4.18,1.13-1.18,2.47-2.1,4.04-2.78,1.56-.68,3.29-1.01,5.2-1.01,2.13,0,3.98.41,5.56,1.23,1.58.82,2.88,1.93,3.89,3.31,1.02,1.39,1.75,2.97,2.2,4.74.45,1.77.61,3.63.48,5.56h-18.03c.1,2.22.66,3.84,1.69,4.83ZM361.07,17.72c-.82-.9-2.07-1.35-3.75-1.35-1.1,0-2.01.19-2.73.56-.72.37-1.3.83-1.74,1.38-.43.55-.74,1.13-.92,1.74-.18.61-.28,1.16-.31,1.64h11.17c-.32-1.74-.89-3.06-1.72-3.96Z"/>
      </g>
    </g>
    <path d="M391.23,18.32c2.56-.92,6.82-2.74,9.87-10.36-2.14,1.02-6.08,1.82-10.81,3.25-4.8,1.45-7.23,7.09-7.95,9.06v-8.31h-7.31v25.1h7.31v-5.71s0-4.28,6.51-6.6c4.23-1.51,6.85-3.5,9.29-8.48,0,0-4.29,2.55-6.92,2.04Z"/>
    <g>
      <g>
        <circle class="cls-2" cx="19.96" cy="17.84" r="16.52"/>
        <path d="M9.44,32.89l-4.63,6.21c-2.37,2.95-6.61-.76-3.98-3.5,0,0,5.56-5.39,5.56-5.39,1.8-1.72,4.52.7,3.06,2.69h0Z"/>
      </g>
      <path class="cls-1" d="M14.24,28.28V8.63h6.07c4.35.03,8.03,1.06,8.03,6.04,0,3.57-2.42,5.91-6.8,6.04h-3.08v7.57h-4.22ZM18.46,17.45c2.34-.11,5.39.71,5.39-2.78s-3.05-2.67-5.39-2.78v5.55Z"/>
    </g>
  </g>
</svg>