<svg width="580" height="80" viewBox="0 0 580 80" fill="none" xmlns="http://www.w3.org/2000/svg">
<path d="M16 2H564C571.732 2 578 8.26802 578 16V64C578 71.732 571.732 78 564 78H16C8.26802 78 2 71.732 2 64V16C2 8.26801 8.26801 2 16 2Z" fill="#FFF9E3" stroke="#CECECE" stroke-width="4"/>
<path d="M246.689 31.8838C247.149 31.8838 247.64 31.9145 248.161 31.9758C248.713 32.0065 249.189 32.0678 249.587 32.1598L249.081 35.8858C248.683 35.7938 248.238 35.7171 247.747 35.6558C247.287 35.5945 246.843 35.5638 246.413 35.5638C245.463 35.5638 244.558 35.7631 243.699 36.1618C242.841 36.5605 242.074 37.1278 241.399 37.8638C240.725 38.5691 240.188 39.4278 239.789 40.4398C239.421 41.4518 239.237 42.5865 239.237 43.8438V56.9998H235.189V32.3438H238.501L238.961 36.8518H239.145C239.667 35.9318 240.295 35.1038 241.031 34.3678C241.767 33.6011 242.611 33.0031 243.561 32.5738C244.512 32.1138 245.555 31.8838 246.689 31.8838Z" fill="#555555"/>
<path d="M218.746 31.8838C220.862 31.8838 222.672 32.3438 224.174 33.2638C225.708 34.1838 226.873 35.4871 227.67 37.1738C228.498 38.8298 228.912 40.7771 228.912 43.0158V45.4538H212.03C212.092 48.2445 212.797 50.3758 214.146 51.8478C215.526 53.2891 217.443 54.0098 219.896 54.0098C221.46 54.0098 222.84 53.8718 224.036 53.5958C225.263 53.2891 226.52 52.8598 227.808 52.3078V55.8498C226.551 56.4018 225.309 56.8005 224.082 57.0458C222.856 57.3218 221.399 57.4598 219.712 57.4598C217.382 57.4598 215.312 56.9845 213.502 56.0338C211.724 55.0831 210.328 53.6725 209.316 51.8018C208.335 49.9005 207.844 47.5851 207.844 44.8558C207.844 42.1571 208.289 39.8418 209.178 37.9098C210.098 35.9778 211.371 34.4905 212.996 33.4478C214.652 32.4051 216.569 31.8838 218.746 31.8838ZM218.7 35.1958C216.768 35.1958 215.235 35.8245 214.1 37.0818C212.996 38.3085 212.337 40.0258 212.122 42.2338H224.68C224.68 40.8231 224.466 39.5965 224.036 38.5538C223.607 37.5111 222.948 36.6985 222.058 36.1158C221.2 35.5025 220.08 35.1958 218.7 35.1958Z" fill="#555555"/>
<path d="M200.837 54.148C201.451 54.148 202.079 54.102 202.723 54.01C203.367 53.8874 203.889 53.7647 204.287 53.642V56.724C203.858 56.9387 203.245 57.1074 202.447 57.23C201.65 57.3834 200.883 57.46 200.147 57.46C198.859 57.46 197.663 57.2454 196.559 56.816C195.486 56.356 194.612 55.574 193.937 54.47C193.263 53.366 192.925 51.8174 192.925 49.824V35.472H189.429V33.54L192.971 31.93L194.581 26.686H196.973V32.344H204.103V35.472H196.973V49.732C196.973 51.2347 197.326 52.354 198.031 53.09C198.767 53.7954 199.703 54.148 200.837 54.148Z" fill="#555555"/>
<path d="M176.036 31.8838C178.98 31.8838 181.203 32.6045 182.706 34.0458C184.209 35.4565 184.96 37.7565 184.96 40.9458V56.9998H180.958V41.2218C180.958 39.2285 180.513 37.7411 179.624 36.7598C178.735 35.7785 177.339 35.2878 175.438 35.2878C172.709 35.2878 170.823 36.0545 169.78 37.5878C168.737 39.1211 168.216 41.3291 168.216 44.2118V56.9998H164.168V32.3438H167.434L168.032 35.7018H168.262C168.814 34.8431 169.489 34.1378 170.286 33.5858C171.114 33.0031 172.019 32.5738 173 32.2978C173.981 32.0218 174.993 31.8838 176.036 31.8838Z" fill="#555555"/>
<path d="M147.721 31.9302C150.726 31.9302 152.949 32.5895 154.391 33.9082C155.832 35.2268 156.553 37.3275 156.553 40.2102V57.0002H153.609L152.827 53.5042H152.643C151.937 54.3935 151.201 55.1448 150.435 55.7582C149.699 56.3408 148.84 56.7702 147.859 57.0462C146.908 57.3222 145.743 57.4602 144.363 57.4602C142.891 57.4602 141.557 57.1995 140.361 56.6782C139.195 56.1568 138.275 55.3595 137.601 54.2862C136.926 53.1822 136.589 51.8022 136.589 50.1462C136.589 47.6928 137.555 45.8068 139.487 44.4882C141.419 43.1388 144.393 42.4028 148.411 42.2802L152.597 42.1422V40.6702C152.597 38.6155 152.152 37.1895 151.263 36.3922C150.373 35.5948 149.116 35.1962 147.491 35.1962C146.203 35.1962 144.976 35.3955 143.811 35.7942C142.645 36.1622 141.557 36.5915 140.545 37.0822L139.303 34.0462C140.376 33.4635 141.649 32.9728 143.121 32.5742C144.593 32.1448 146.126 31.9302 147.721 31.9302ZM148.917 45.0862C145.85 45.2088 143.719 45.6995 142.523 46.5582C141.357 47.4168 140.775 48.6282 140.775 50.1922C140.775 51.5722 141.189 52.5842 142.017 53.2282C142.875 53.8722 143.964 54.1942 145.283 54.1942C147.368 54.1942 149.101 53.6268 150.481 52.4922C151.861 51.3268 152.551 49.5482 152.551 47.1562V44.9482L148.917 45.0862Z" fill="#555555"/>
<path d="M132.425 50.1918C132.425 51.7865 132.026 53.1205 131.229 54.1938C130.432 55.2671 129.297 56.0798 127.825 56.6318C126.353 57.1838 124.605 57.4598 122.581 57.4598C120.864 57.4598 119.376 57.3218 118.119 57.0458C116.892 56.7698 115.804 56.3865 114.853 55.8958V52.2158C115.834 52.7065 117.015 53.1665 118.395 53.5958C119.806 53.9945 121.232 54.1938 122.673 54.1938C124.728 54.1938 126.215 53.8718 127.135 53.2278C128.055 52.5531 128.515 51.6638 128.515 50.5598C128.515 49.9465 128.346 49.3945 128.009 48.9038C127.672 48.4131 127.058 47.9225 126.169 47.4318C125.31 46.9411 124.068 46.3891 122.443 45.7758C120.848 45.1625 119.484 44.5491 118.349 43.9358C117.214 43.3225 116.34 42.5865 115.727 41.7278C115.114 40.8691 114.807 39.7651 114.807 38.4158C114.807 36.3305 115.65 34.7205 117.337 33.5858C119.054 32.4511 121.293 31.8838 124.053 31.8838C125.556 31.8838 126.951 32.0371 128.239 32.3438C129.558 32.6198 130.784 33.0185 131.919 33.5398L130.539 36.7598C129.864 36.4531 129.144 36.1925 128.377 35.9778C127.641 35.7325 126.89 35.5485 126.123 35.4258C125.356 35.2725 124.574 35.1958 123.777 35.1958C122.121 35.1958 120.848 35.4718 119.959 36.0238C119.1 36.5451 118.671 37.2658 118.671 38.1858C118.671 38.8605 118.87 39.4431 119.269 39.9338C119.668 40.3938 120.327 40.8538 121.247 41.3138C122.198 41.7431 123.455 42.2645 125.019 42.8778C126.583 43.4605 127.917 44.0585 129.021 44.6718C130.125 45.2851 130.968 46.0365 131.551 46.9258C132.134 47.7845 132.425 48.8731 132.425 50.1918Z" fill="#555555"/>
<path d="M99.9238 31.9302C102.929 31.9302 105.152 32.5895 106.594 33.9082C108.035 35.2268 108.756 37.3275 108.756 40.2102V57.0002H105.812L105.03 53.5042H104.846C104.14 54.3935 103.404 55.1448 102.638 55.7582C101.902 56.3408 101.043 56.7702 100.062 57.0462C99.1111 57.3222 97.9458 57.4602 96.5658 57.4602C95.0938 57.4602 93.7598 57.1995 92.5638 56.6782C91.3984 56.1568 90.4784 55.3595 89.8037 54.2862C89.1291 53.1822 88.7917 51.8022 88.7917 50.1462C88.7917 47.6928 89.7578 45.8068 91.6898 44.4882C93.6218 43.1388 96.5964 42.4028 100.614 42.2802L104.8 42.1422V40.6702C104.8 38.6155 104.355 37.1895 103.466 36.3922C102.576 35.5948 101.319 35.1962 99.6937 35.1962C98.4057 35.1962 97.1791 35.3955 96.0137 35.7942C94.8484 36.1622 93.7597 36.5915 92.7477 37.0822L91.5058 34.0462C92.5791 33.4635 93.8518 32.9728 95.3238 32.5742C96.7958 32.1448 98.3291 31.9302 99.9238 31.9302ZM101.12 45.0862C98.0531 45.2088 95.9218 45.6995 94.7258 46.5582C93.5604 47.4168 92.9778 48.6282 92.9778 50.1922C92.9778 51.5722 93.3917 52.5842 94.2197 53.2282C95.0784 53.8722 96.1671 54.1942 97.4857 54.1942C99.5711 54.1942 101.304 53.6268 102.684 52.4922C104.064 51.3268 104.754 49.5482 104.754 47.1562V44.9482L101.12 45.0862Z" fill="#555555"/>
<path d="M74.143 31.8838C76.259 31.8838 78.0683 32.3438 79.571 33.2638C81.1043 34.1838 82.2696 35.4871 83.067 37.1738C83.895 38.8298 84.309 40.7771 84.309 43.0158V45.4538H67.427C67.4883 48.2445 68.1936 50.3758 69.543 51.8478C70.923 53.2891 72.8396 54.0098 75.293 54.0098C76.857 54.0098 78.237 53.8718 79.433 53.5958C80.6596 53.2891 81.917 52.8598 83.205 52.3078V55.8498C81.9476 56.4018 80.7056 56.8005 79.479 57.0458C78.2523 57.3218 76.7956 57.4598 75.109 57.4598C72.7783 57.4598 70.7083 56.9845 68.899 56.0338C67.1203 55.0831 65.725 53.6725 64.713 51.8018C63.7316 49.9005 63.241 47.5851 63.241 44.8558C63.241 42.1571 63.6856 39.8418 64.575 37.9098C65.495 35.9778 66.7676 34.4905 68.393 33.4478C70.049 32.4051 71.9656 31.8838 74.143 31.8838ZM74.097 35.1958C72.165 35.1958 70.6316 35.8245 69.497 37.0818C68.393 38.3085 67.7336 40.0258 67.519 42.2338H80.077C80.077 40.8231 79.8623 39.5965 79.433 38.5538C79.0036 37.5111 78.3443 36.6985 77.455 36.1158C76.5963 35.5025 75.477 35.1958 74.097 35.1958Z" fill="#555555"/>
<path d="M56.8095 57H52.7615V22.04H56.8095V57Z" fill="#555555"/>
<path d="M34.1559 24.1558C38.4492 24.1558 41.5772 24.9991 43.5399 26.6858C45.5026 28.3724 46.4839 30.7491 46.4839 33.8158C46.4839 35.1651 46.2539 36.4684 45.7939 37.7258C45.3646 38.9524 44.6439 40.0564 43.6319 41.0378C42.6199 42.0191 41.2706 42.8011 39.5839 43.3838C37.8972 43.9358 35.8272 44.2118 33.3739 44.2118H29.6019V56.9998H25.4619V24.1558H34.1559ZM33.7879 27.6978H29.6019V40.6698H32.9139C34.9992 40.6698 36.7319 40.4551 38.1119 40.0258C39.4919 39.5658 40.5192 38.8451 41.1939 37.8638C41.8686 36.8824 42.2059 35.5944 42.2059 33.9998C42.2059 31.8838 41.5312 30.3044 40.1819 29.2618C38.8326 28.2191 36.7012 27.6978 33.7879 27.6978Z" fill="#555555"/>
<line x1="263.067" y1="16.0028" x2="263" y2="64.0028" stroke="#555555" stroke-width="4"/>
</svg>
