<svg width="580" height="80" viewBox="0 0 580 80" fill="none" xmlns="http://www.w3.org/2000/svg">
<path d="M253.487 52.3202C251.354 52.3202 249.647 51.5842 248.367 50.1122C247.087 48.6188 246.447 46.4002 246.447 43.4562C246.447 40.5122 247.087 38.2935 248.367 36.8002C249.669 35.2855 251.386 34.5282 253.519 34.5282C254.415 34.5282 255.194 34.6455 255.855 34.8802C256.517 35.0935 257.093 35.3922 257.583 35.7762C258.074 36.1602 258.49 36.5868 258.831 37.0562H259.023C259.002 36.7788 258.959 36.3735 258.895 35.8402C258.853 35.2855 258.831 34.8482 258.831 34.5282V27.6802H261.647V52.0002H259.375L258.959 49.6962H258.831C258.49 50.1868 258.074 50.6348 257.583 51.0402C257.093 51.4242 256.506 51.7335 255.823 51.9682C255.162 52.2028 254.383 52.3202 253.487 52.3202ZM253.935 49.9842C255.749 49.9842 257.018 49.4935 257.743 48.5122C258.49 47.5095 258.863 46.0055 258.863 44.0002V43.4882C258.863 41.3548 258.511 39.7228 257.807 38.5922C257.103 37.4402 255.802 36.8642 253.903 36.8642C252.389 36.8642 251.247 37.4722 250.479 38.6882C249.733 39.8828 249.359 41.4935 249.359 43.5202C249.359 45.5682 249.733 47.1575 250.479 48.2882C251.247 49.4188 252.399 49.9842 253.935 49.9842Z" fill="#555555"/>
<path d="M235.969 34.5278C237.441 34.5278 238.699 34.8478 239.745 35.4878C240.811 36.1278 241.622 37.0345 242.177 38.2078C242.753 39.3598 243.041 40.7145 243.041 42.2718V43.9678H231.297C231.339 45.9092 231.83 47.3918 232.769 48.4158C233.729 49.4185 235.062 49.9198 236.769 49.9198C237.857 49.9198 238.817 49.8238 239.649 49.6318C240.502 49.4185 241.377 49.1198 242.273 48.7358V51.1998C241.398 51.5838 240.534 51.8612 239.681 52.0318C238.827 52.2238 237.814 52.3198 236.641 52.3198C235.019 52.3198 233.579 51.9892 232.321 51.3278C231.083 50.6665 230.113 49.6852 229.409 48.3838C228.726 47.0612 228.385 45.4505 228.385 43.5518C228.385 41.6745 228.694 40.0638 229.313 38.7198C229.953 37.3758 230.838 36.3412 231.969 35.6158C233.121 34.8905 234.454 34.5278 235.969 34.5278ZM235.937 36.8318C234.593 36.8318 233.526 37.2692 232.737 38.1438C231.969 38.9972 231.51 40.1918 231.361 41.7278H240.097C240.097 40.7465 239.947 39.8932 239.649 39.1678C239.35 38.4425 238.891 37.8772 238.273 37.4718C237.675 37.0452 236.897 36.8318 235.937 36.8318Z" fill="#555555"/>
<path d="M215.035 40.3842C215.035 40.7255 215.014 41.1735 214.971 41.7282C214.95 42.2828 214.929 42.7628 214.907 43.1682H215.035C215.163 42.9975 215.355 42.7522 215.611 42.4322C215.867 42.1122 216.123 41.7922 216.379 41.4722C216.657 41.1308 216.891 40.8535 217.083 40.6402L222.555 34.8482H225.851L218.907 42.1762L226.331 52.0002H222.939L216.987 44.0002L215.035 45.6962V52.0002H212.251V27.6802H215.035V40.3842Z" fill="#555555"/>
<path d="M203.756 52.3198C202.241 52.3198 200.887 52.0105 199.692 51.3918C198.519 50.7732 197.591 49.8132 196.908 48.5118C196.247 47.2105 195.916 45.5465 195.916 43.5198C195.916 41.4078 196.268 39.6905 196.972 38.3678C197.676 37.0452 198.625 36.0745 199.82 35.4558C201.036 34.8372 202.412 34.5278 203.948 34.5278C204.823 34.5278 205.665 34.6238 206.476 34.8158C207.287 34.9865 207.948 35.1998 208.46 35.4558L207.596 37.7918C207.084 37.5998 206.487 37.4185 205.804 37.2478C205.121 37.0772 204.481 36.9918 203.884 36.9918C202.732 36.9918 201.783 37.2372 201.036 37.7278C200.289 38.2185 199.735 38.9438 199.372 39.9038C199.009 40.8638 198.828 42.0585 198.828 43.4878C198.828 44.8532 199.009 46.0158 199.372 46.9758C199.735 47.9358 200.279 48.6612 201.004 49.1518C201.729 49.6425 202.636 49.8878 203.724 49.8878C204.663 49.8878 205.484 49.7918 206.188 49.5998C206.913 49.4078 207.575 49.1732 208.172 48.8958V51.3918C207.596 51.6905 206.956 51.9145 206.252 52.0638C205.569 52.2345 204.737 52.3198 203.756 52.3198Z" fill="#555555"/>
<path d="M192.413 43.3918C192.413 44.8212 192.221 46.0905 191.837 47.1998C191.474 48.2878 190.941 49.2158 190.237 49.9838C189.554 50.7518 188.712 51.3385 187.709 51.7438C186.728 52.1278 185.629 52.3198 184.413 52.3198C183.282 52.3198 182.237 52.1278 181.277 51.7438C180.317 51.3385 179.485 50.7518 178.781 49.9838C178.077 49.2158 177.522 48.2878 177.117 47.1998C176.733 46.0905 176.541 44.8212 176.541 43.3918C176.541 41.4932 176.861 39.8932 177.501 38.5918C178.141 37.2692 179.058 36.2665 180.253 35.5838C181.448 34.8798 182.866 34.5278 184.509 34.5278C186.066 34.5278 187.432 34.8798 188.605 35.5838C189.8 36.2665 190.728 37.2692 191.389 38.5918C192.072 39.8932 192.413 41.4932 192.413 43.3918ZM179.453 43.3918C179.453 44.7358 179.624 45.9092 179.965 46.9118C180.328 47.8932 180.882 48.6505 181.629 49.1838C182.376 49.7172 183.325 49.9838 184.477 49.9838C185.629 49.9838 186.578 49.7172 187.325 49.1838C188.072 48.6505 188.616 47.8932 188.957 46.9118C189.32 45.9092 189.501 44.7358 189.501 43.3918C189.501 42.0265 189.32 40.8638 188.957 39.9038C188.594 38.9438 188.04 38.2078 187.293 37.6958C186.568 37.1625 185.618 36.8958 184.445 36.8958C182.696 36.8958 181.426 37.4718 180.637 38.6238C179.848 39.7758 179.453 41.3652 179.453 43.3918Z" fill="#555555"/>
<path d="M161.104 51.9999V29.1519H163.984V49.4399H173.968V51.9999H161.104Z" fill="#555555"/>
<path d="M112 30C112 25.5817 115.582 22 120 22H140C144.418 22 148 25.5817 148 30V50C148 54.4183 144.418 58 140 58H120C115.582 58 112 54.4183 112 50V30Z" fill="#106EBE"/>
<path d="M125.742 49L117 40.4678L119.186 38.3347L125.742 44.7339L139.814 31L142 33.1331L125.742 49Z" fill="white"/>
<path d="M456.487 52.3202C454.354 52.3202 452.647 51.5842 451.367 50.1122C450.087 48.6188 449.447 46.4002 449.447 43.4562C449.447 40.5122 450.087 38.2935 451.367 36.8002C452.669 35.2855 454.386 34.5282 456.519 34.5282C457.415 34.5282 458.194 34.6455 458.855 34.8802C459.517 35.0935 460.093 35.3922 460.583 35.7762C461.074 36.1602 461.49 36.5868 461.831 37.0562H462.023C462.002 36.7788 461.959 36.3735 461.895 35.8402C461.853 35.2855 461.831 34.8482 461.831 34.5282V27.6802H464.647V52.0002H462.375L461.959 49.6962H461.831C461.49 50.1868 461.074 50.6348 460.583 51.0402C460.093 51.4242 459.506 51.7335 458.823 51.9682C458.162 52.2028 457.383 52.3202 456.487 52.3202ZM456.935 49.9842C458.749 49.9842 460.018 49.4935 460.743 48.5122C461.49 47.5095 461.863 46.0055 461.863 44.0002V43.4882C461.863 41.3548 461.511 39.7228 460.807 38.5922C460.103 37.4402 458.802 36.8642 456.903 36.8642C455.389 36.8642 454.247 37.4722 453.479 38.6882C452.733 39.8828 452.359 41.4935 452.359 43.5202C452.359 45.5682 452.733 47.1575 453.479 48.2882C454.247 49.4188 455.399 49.9842 456.935 49.9842Z" fill="#555555"/>
<path d="M438.969 34.5278C440.441 34.5278 441.699 34.8478 442.745 35.4878C443.811 36.1278 444.622 37.0345 445.177 38.2078C445.753 39.3598 446.041 40.7145 446.041 42.2718V43.9678H434.297C434.339 45.9092 434.83 47.3918 435.769 48.4158C436.729 49.4185 438.062 49.9198 439.769 49.9198C440.857 49.9198 441.817 49.8238 442.649 49.6318C443.502 49.4185 444.377 49.1198 445.273 48.7358V51.1998C444.398 51.5838 443.534 51.8612 442.681 52.0318C441.827 52.2238 440.814 52.3198 439.641 52.3198C438.019 52.3198 436.579 51.9892 435.321 51.3278C434.083 50.6665 433.113 49.6852 432.409 48.3838C431.726 47.0612 431.385 45.4505 431.385 43.5518C431.385 41.6745 431.694 40.0638 432.313 38.7198C432.953 37.3758 433.838 36.3412 434.969 35.6158C436.121 34.8905 437.454 34.5278 438.969 34.5278ZM438.937 36.8318C437.593 36.8318 436.526 37.2692 435.737 38.1438C434.969 38.9972 434.51 40.1918 434.361 41.7278H443.097C443.097 40.7465 442.947 39.8932 442.649 39.1678C442.35 38.4425 441.891 37.8772 441.273 37.4718C440.675 37.0452 439.897 36.8318 438.937 36.8318Z" fill="#555555"/>
<path d="M418.035 40.3842C418.035 40.7255 418.014 41.1735 417.971 41.7282C417.95 42.2828 417.929 42.7628 417.907 43.1682H418.035C418.163 42.9975 418.355 42.7522 418.611 42.4322C418.867 42.1122 419.123 41.7922 419.379 41.4722C419.657 41.1308 419.891 40.8535 420.083 40.6402L425.555 34.8482H428.851L421.907 42.1762L429.331 52.0002H425.939L419.987 44.0002L418.035 45.6962V52.0002H415.251V27.6802H418.035V40.3842Z" fill="#555555"/>
<path d="M406.756 52.3198C405.241 52.3198 403.887 52.0105 402.692 51.3918C401.519 50.7732 400.591 49.8132 399.908 48.5118C399.247 47.2105 398.916 45.5465 398.916 43.5198C398.916 41.4078 399.268 39.6905 399.972 38.3678C400.676 37.0452 401.625 36.0745 402.82 35.4558C404.036 34.8372 405.412 34.5278 406.948 34.5278C407.823 34.5278 408.665 34.6238 409.476 34.8158C410.287 34.9865 410.948 35.1998 411.46 35.4558L410.596 37.7918C410.084 37.5998 409.487 37.4185 408.804 37.2478C408.121 37.0772 407.481 36.9918 406.884 36.9918C405.732 36.9918 404.783 37.2372 404.036 37.7278C403.289 38.2185 402.735 38.9438 402.372 39.9038C402.009 40.8638 401.828 42.0585 401.828 43.4878C401.828 44.8532 402.009 46.0158 402.372 46.9758C402.735 47.9358 403.279 48.6612 404.004 49.1518C404.729 49.6425 405.636 49.8878 406.724 49.8878C407.663 49.8878 408.484 49.7918 409.188 49.5998C409.913 49.4078 410.575 49.1732 411.172 48.8958V51.3918C410.596 51.6905 409.956 51.9145 409.252 52.0638C408.569 52.2345 407.737 52.3198 406.756 52.3198Z" fill="#555555"/>
<path d="M395.413 43.3918C395.413 44.8212 395.221 46.0905 394.837 47.1998C394.474 48.2878 393.941 49.2158 393.237 49.9838C392.554 50.7518 391.712 51.3385 390.709 51.7438C389.728 52.1278 388.629 52.3198 387.413 52.3198C386.282 52.3198 385.237 52.1278 384.277 51.7438C383.317 51.3385 382.485 50.7518 381.781 49.9838C381.077 49.2158 380.522 48.2878 380.117 47.1998C379.733 46.0905 379.541 44.8212 379.541 43.3918C379.541 41.4932 379.861 39.8932 380.501 38.5918C381.141 37.2692 382.058 36.2665 383.253 35.5838C384.448 34.8798 385.866 34.5278 387.509 34.5278C389.066 34.5278 390.432 34.8798 391.605 35.5838C392.8 36.2665 393.728 37.2692 394.389 38.5918C395.072 39.8932 395.413 41.4932 395.413 43.3918ZM382.453 43.3918C382.453 44.7358 382.624 45.9092 382.965 46.9118C383.328 47.8932 383.882 48.6505 384.629 49.1838C385.376 49.7172 386.325 49.9838 387.477 49.9838C388.629 49.9838 389.578 49.7172 390.325 49.1838C391.072 48.6505 391.616 47.8932 391.957 46.9118C392.32 45.9092 392.501 44.7358 392.501 43.3918C392.501 42.0265 392.32 40.8638 391.957 39.9038C391.594 38.9438 391.04 38.2078 390.293 37.6958C389.568 37.1625 388.618 36.8958 387.445 36.8958C385.696 36.8958 384.426 37.4718 383.637 38.6238C382.848 39.7758 382.453 41.3652 382.453 43.3918Z" fill="#555555"/>
<path d="M364.104 51.9999V29.1519H366.984V49.4399H376.968V51.9999H364.104Z" fill="#555555"/>
<path d="M315 30C315 25.5817 318.582 22 323 22H343C347.418 22 351 25.5817 351 30V50C351 54.4183 347.418 58 343 58H323C318.582 58 315 54.4183 315 50V30Z" fill="white"/>
<path d="M343 55V58H323V55H343ZM348 50V30C348 27.2386 345.761 25 343 25H323C320.239 25 318 27.2386 318 30V50C318 52.7614 320.239 55 323 55V58L322.588 57.9893C318.498 57.7817 315.218 54.5024 315.011 50.4121L315 50V30C315 25.5817 318.582 22 323 22H343C347.418 22 351 25.5817 351 30V50C351 54.2801 347.639 57.7748 343.412 57.9893L343 58V55C345.761 55 348 52.7614 348 50Z" fill="#CECECE"/>
</svg>
