<svg width="580" height="80" viewBox="0 0 580 80" fill="none" xmlns="http://www.w3.org/2000/svg">
<path d="M16 2H564C571.732 2 578 8.26802 578 16V64C578 71.732 571.732 78 564 78H16C8.26802 78 2 71.732 2 64V16C2 8.26801 8.26801 2 16 2Z" fill="#F5F5F5" stroke="#CECECE" stroke-width="4"/>
<path d="M71.3821 41.5319C71.3821 44.1999 71.1828 46.5766 70.7841 48.6619C70.3855 50.7472 69.7415 52.5259 68.8521 53.9979C67.9935 55.4392 66.8588 56.5432 65.4481 57.3099C64.0681 58.0766 62.3968 58.4599 60.4341 58.4599C57.9808 58.4599 55.9415 57.7852 54.3161 56.4359C52.7215 55.0866 51.5255 53.1546 50.7281 50.6399C49.9615 48.0946 49.5781 45.0586 49.5781 41.5319C49.5781 37.9746 49.9308 34.9386 50.6361 32.4239C51.3721 29.9092 52.5375 27.9926 54.1321 26.6739C55.7268 25.3246 57.8275 24.6499 60.4341 24.6499C62.8875 24.6499 64.9268 25.3246 66.5521 26.6739C68.1775 27.9926 69.3888 29.9092 70.1861 32.4239C70.9835 34.9386 71.3821 37.9746 71.3821 41.5319ZM53.6261 41.5319C53.6261 44.5372 53.8408 47.0366 54.2701 49.0299C54.7301 51.0232 55.4508 52.5259 56.4321 53.5379C57.4441 54.5192 58.7781 55.0099 60.4341 55.0099C62.0901 55.0099 63.4088 54.5192 64.3901 53.5379C65.4021 52.5566 66.1381 51.0692 66.5981 49.0759C67.0581 47.0519 67.2881 44.5372 67.2881 41.5319C67.2881 38.5266 67.0581 36.0426 66.5981 34.0799C66.1381 32.0866 65.4021 30.5992 64.3901 29.6179C63.4088 28.6059 62.0901 28.0999 60.4341 28.0999C58.7781 28.0999 57.4441 28.6059 56.4321 29.6179C55.4508 30.5992 54.7301 32.0866 54.2701 34.0799C53.8408 36.0426 53.6261 38.5266 53.6261 41.5319Z" fill="#555555"/>
<path d="M37.3302 57.9998H33.3742V35.0458C33.3742 34.1564 33.3742 33.4051 33.3742 32.7918C33.4049 32.1784 33.4356 31.6111 33.4662 31.0898C33.4969 30.5378 33.5276 29.9704 33.5582 29.3878C33.0676 29.8784 32.6229 30.2924 32.2242 30.6298C31.8256 30.9671 31.3196 31.3964 30.7062 31.9178L27.2102 34.7698L25.0942 32.0558L33.9722 25.1558H37.3302V57.9998Z" fill="#555555"/>
</svg>
