<svg width="580" height="285" viewBox="0 0 580 285" fill="none" xmlns="http://www.w3.org/2000/svg">
<path d="M17.6667 281C16.9333 281 16.3056 280.739 15.7833 280.217C15.2611 279.694 15 279.067 15 278.333V259.667C15 258.933 15.2611 258.306 15.7833 257.783C16.3056 257.261 16.9333 257 17.6667 257H36.3333C37.0667 257 37.6944 257.261 38.2167 257.783C38.7389 258.306 39 258.933 39 259.667V278.333C39 279.067 38.7389 279.694 38.2167 280.217C37.6944 280.739 37.0667 281 36.3333 281H17.6667ZM19 275.667H35L30 269L26 274.333L23 270.333L19 275.667Z" fill="#555555"/>
<path d="M0 16C0 7.16344 7.16344 0 16 0H564C572.837 0 580 7.16344 580 16V232C580 240.837 572.837 248 564 248H16C7.16345 248 0 240.837 0 232V16Z" fill="white"/>
<path d="M564 244V248H16V244H564ZM576 232V16C576 9.37259 570.627 4 564 4H16C9.37258 4 4 9.37258 4 16V232C4 238.627 9.37259 244 16 244V248L15.5869 247.995C7.07854 247.779 0.220505 240.921 0.00488281 232.413L0 232V16C0 7.30155 6.94127 0.22398 15.5869 0.00488281L16 0H564L564.413 0.00488281C573.059 0.223985 580 7.30156 580 16V232L579.995 232.413C579.779 240.921 572.921 247.779 564.413 247.995L564 248V244C570.627 244 576 238.627 576 232Z" fill="#CECECE"/>
<path d="M21 234.6H188.273V235.8H21V234.6ZM188.273 234H305.208V235.2H188.273V234Z" fill="#555555"/>
<path d="M302.664 229.176C303 229.176 303.344 229.144 303.696 229.08C304.048 229.016 304.352 228.944 304.608 228.864V230.784C304.336 230.912 303.968 231.016 303.504 231.096C303.04 231.192 302.576 231.24 302.112 231.24C301.408 231.24 300.76 231.12 300.168 230.88C299.592 230.64 299.128 230.224 298.776 229.632C298.424 229.04 298.248 228.216 298.248 227.16V220.008H296.448V218.856L298.344 217.896L299.232 215.16H300.792V218.064H304.488V220.008H300.792V227.112C300.792 227.816 300.96 228.336 301.296 228.672C301.648 229.008 302.104 229.176 302.664 229.176Z" fill="#555555"/>
<path d="M287.928 224.4L283.536 218.064H286.44L289.512 222.72L292.584 218.064H295.464L291.072 224.4L295.68 231H292.8L289.512 226.056L286.2 231H283.32L287.928 224.4Z" fill="#555555"/>
<path d="M276.799 217.824C277.935 217.824 278.911 218.064 279.727 218.544C280.543 219.008 281.167 219.68 281.599 220.56C282.047 221.44 282.271 222.48 282.271 223.68V225.072H273.583C273.615 226.4 273.959 227.416 274.615 228.12C275.287 228.824 276.223 229.176 277.423 229.176C278.255 229.176 278.991 229.104 279.631 228.96C280.287 228.8 280.959 228.568 281.647 228.264V230.376C281.007 230.664 280.351 230.88 279.679 231.024C279.023 231.168 278.239 231.24 277.327 231.24C276.079 231.24 274.975 230.992 274.015 230.496C273.055 230 272.303 229.264 271.759 228.288C271.231 227.296 270.967 226.08 270.967 224.64C270.967 223.184 271.207 221.952 271.687 220.944C272.183 219.936 272.863 219.168 273.727 218.64C274.607 218.096 275.631 217.824 276.799 217.824ZM276.799 219.792C275.887 219.792 275.151 220.088 274.591 220.68C274.047 221.272 273.727 222.112 273.631 223.2H279.727C279.727 222.528 279.623 221.936 279.415 221.424C279.207 220.912 278.887 220.512 278.455 220.224C278.023 219.936 277.471 219.792 276.799 219.792Z" fill="#555555"/>
<path d="M265.923 231H263.331V216.096H258.195V213.864H271.059V216.096H265.923V231Z" fill="#555555"/>
<path d="M248.989 221.88C248.989 222.216 248.973 222.6 248.941 223.032C248.925 223.464 248.901 223.864 248.869 224.232H248.941C249.069 224.072 249.221 223.88 249.397 223.656C249.589 223.416 249.781 223.176 249.973 222.936C250.165 222.696 250.341 222.488 250.501 222.312L254.461 218.064H257.413L252.205 223.608L257.749 231H254.749L250.477 225.216L248.989 226.464V231H246.469V212.76H248.989V221.88Z" fill="#555555"/>
<path d="M237.904 217.824C239.408 217.824 240.56 218.2 241.36 218.952C242.16 219.704 242.56 220.912 242.56 222.576V231H240.04V222.936C240.04 221.928 239.824 221.176 239.392 220.68C238.976 220.168 238.304 219.912 237.376 219.912C236.064 219.912 235.152 220.304 234.64 221.088C234.144 221.872 233.896 223 233.896 224.472V231H231.352V218.064H233.368L233.728 219.792H233.872C234.16 219.344 234.512 218.976 234.928 218.688C235.344 218.4 235.808 218.184 236.32 218.04C236.832 217.896 237.36 217.824 237.904 217.824Z" fill="#555555"/>
<path d="M227.357 218.064V231H224.813V218.064H227.357ZM226.109 213.144C226.493 213.144 226.829 213.256 227.117 213.48C227.405 213.704 227.549 214.08 227.549 214.608C227.549 215.12 227.405 215.496 227.117 215.736C226.829 215.96 226.493 216.072 226.109 216.072C225.693 216.072 225.341 215.96 225.053 215.736C224.781 215.496 224.645 215.12 224.645 214.608C224.645 214.08 224.781 213.704 225.053 213.48C225.341 213.256 225.693 213.144 226.109 213.144Z" fill="#555555"/>
<path d="M212.233 231V213.864H214.825V228.768H222.145V231H212.233Z" fill="#555555"/>
<path d="M203.532 213.864L197.148 231H194.724L201.108 213.864H203.532Z" fill="#555555"/>
<path d="M172.121 228.792C172.121 228.536 172.121 228.072 172.121 227.4C172.121 226.712 172.121 225.904 172.121 224.976C172.121 224.032 172.121 223.056 172.121 222.048C172.121 221.024 172.121 220.032 172.121 219.072C172.121 218.112 172.121 217.264 172.121 216.528C172.121 215.792 172.121 215.256 172.121 214.92C172.121 214.536 172.105 214.096 172.073 213.6C172.041 213.088 171.985 212.632 171.905 212.232H174.857C174.825 212.616 174.785 213.056 174.737 213.552C174.705 214.048 174.689 214.504 174.689 214.92C174.689 215.464 174.689 216.152 174.689 216.984C174.689 217.8 174.689 218.688 174.689 219.648C174.689 220.608 174.689 221.576 174.689 222.552C174.689 223.528 174.689 224.448 174.689 225.312C174.689 226.16 174.689 226.896 174.689 227.52C174.689 228.144 174.689 228.568 174.689 228.792C174.689 229.048 174.697 229.36 174.713 229.728C174.729 230.096 174.753 230.472 174.785 230.856C174.817 231.224 174.849 231.56 174.881 231.864H171.929C171.993 231.448 172.041 230.952 172.073 230.376C172.105 229.784 172.121 229.256 172.121 228.792ZM174.137 218.496C174.921 218.72 175.801 219 176.777 219.336C177.753 219.656 178.737 220.008 179.729 220.392C180.721 220.76 181.665 221.128 182.561 221.496C183.457 221.864 184.217 222.2 184.841 222.504L183.761 225.12C183.089 224.752 182.329 224.384 181.481 224.016C180.649 223.632 179.793 223.264 178.913 222.912C178.033 222.56 177.177 222.24 176.345 221.952C175.529 221.664 174.793 221.416 174.137 221.208V218.496Z" fill="#555555"/>
<path d="M159.834 214.848C159.738 214.96 159.618 215.144 159.474 215.4C159.33 215.656 159.218 215.888 159.138 216.096C158.802 216.864 158.386 217.72 157.89 218.664C157.41 219.608 156.858 220.552 156.234 221.496C155.626 222.424 154.986 223.272 154.314 224.04C153.434 225.048 152.458 226.032 151.386 226.992C150.33 227.952 149.21 228.84 148.026 229.656C146.842 230.456 145.618 231.152 144.354 231.744L142.41 229.704C143.706 229.192 144.954 228.56 146.154 227.808C147.37 227.056 148.498 226.232 149.538 225.336C150.578 224.44 151.49 223.552 152.274 222.672C152.818 222.064 153.346 221.392 153.858 220.656C154.37 219.904 154.826 219.152 155.226 218.4C155.626 217.648 155.914 216.96 156.09 216.336C155.946 216.336 155.65 216.336 155.202 216.336C154.754 216.336 154.218 216.336 153.594 216.336C152.986 216.336 152.346 216.336 151.674 216.336C151.018 216.336 150.378 216.336 149.754 216.336C149.146 216.336 148.618 216.336 148.17 216.336C147.722 216.336 147.426 216.336 147.282 216.336C146.978 216.336 146.642 216.352 146.274 216.384C145.922 216.4 145.594 216.424 145.29 216.456C145.002 216.472 144.794 216.48 144.666 216.48V213.768C144.826 213.784 145.066 213.808 145.386 213.84C145.706 213.856 146.042 213.88 146.394 213.912C146.746 213.928 147.042 213.936 147.282 213.936C147.458 213.936 147.77 213.936 148.218 213.936C148.682 213.936 149.218 213.936 149.826 213.936C150.45 213.936 151.098 213.936 151.77 213.936C152.442 213.936 153.082 213.936 153.69 213.936C154.298 213.936 154.826 213.936 155.274 213.936C155.722 213.936 156.026 213.936 156.186 213.936C156.634 213.936 157.042 213.912 157.41 213.864C157.778 213.816 158.066 213.76 158.274 213.696L159.834 214.848ZM154.626 222.456C155.266 222.984 155.938 223.576 156.642 224.232C157.346 224.888 158.034 225.568 158.706 226.272C159.378 226.96 160.002 227.624 160.578 228.264C161.17 228.904 161.666 229.472 162.066 229.968L159.954 231.84C159.362 231.04 158.682 230.2 157.914 229.32C157.146 228.44 156.33 227.56 155.466 226.68C154.602 225.784 153.738 224.952 152.874 224.184L154.626 222.456Z" fill="#555555"/>
<path d="M126.12 213.96C126.056 213.64 125.984 213.344 125.904 213.072C125.824 212.784 125.736 212.504 125.64 212.232L128.328 211.8C128.36 212.024 128.392 212.304 128.424 212.64C128.472 212.96 128.528 213.256 128.592 213.528C128.624 213.72 128.688 214.112 128.784 214.704C128.896 215.296 129.032 216.032 129.192 216.912C129.368 217.792 129.552 218.736 129.744 219.744C129.952 220.752 130.16 221.776 130.368 222.816C130.576 223.84 130.768 224.808 130.944 225.72C131.12 226.632 131.272 227.424 131.4 228.096C131.544 228.752 131.64 229.224 131.688 229.512C131.768 229.848 131.864 230.216 131.976 230.616C132.088 231.016 132.2 231.4 132.312 231.768L129.552 232.272C129.488 231.84 129.432 231.424 129.384 231.024C129.352 230.64 129.296 230.272 129.216 229.92C129.168 229.664 129.08 229.216 128.952 228.576C128.84 227.92 128.696 227.144 128.52 226.248C128.36 225.352 128.176 224.4 127.968 223.392C127.76 222.368 127.56 221.352 127.368 220.344C127.176 219.32 126.992 218.368 126.816 217.488C126.64 216.608 126.488 215.856 126.36 215.232C126.248 214.608 126.168 214.184 126.12 213.96ZM119.448 217.248C119.768 217.216 120.104 217.192 120.456 217.176C120.808 217.144 121.168 217.112 121.536 217.08C121.888 217.032 122.392 216.968 123.048 216.888C123.704 216.792 124.44 216.68 125.256 216.552C126.088 216.424 126.944 216.296 127.824 216.168C128.72 216.024 129.584 215.88 130.416 215.736C131.248 215.592 131.992 215.464 132.648 215.352C133.32 215.24 133.84 215.152 134.208 215.088C134.576 215.008 134.936 214.928 135.288 214.848C135.64 214.768 135.936 214.696 136.176 214.632L136.632 217.152C136.424 217.168 136.136 217.208 135.768 217.272C135.4 217.32 135.048 217.368 134.712 217.416C134.296 217.48 133.736 217.568 133.032 217.68C132.344 217.776 131.576 217.896 130.728 218.04C129.896 218.168 129.032 218.304 128.136 218.448C127.256 218.592 126.408 218.728 125.592 218.856C124.792 218.984 124.072 219.104 123.432 219.216C122.808 219.312 122.336 219.392 122.016 219.456C121.664 219.52 121.328 219.584 121.008 219.648C120.688 219.712 120.336 219.792 119.952 219.888L119.448 217.248ZM119.4 224.232C119.704 224.216 120.072 224.184 120.504 224.136C120.952 224.088 121.344 224.04 121.68 223.992C122.112 223.928 122.688 223.84 123.408 223.728C124.144 223.616 124.968 223.488 125.88 223.344C126.792 223.2 127.736 223.048 128.712 222.888C129.688 222.728 130.632 222.568 131.544 222.408C132.472 222.248 133.32 222.104 134.088 221.976C134.856 221.848 135.472 221.744 135.936 221.664C136.4 221.568 136.816 221.48 137.184 221.4C137.568 221.32 137.904 221.232 138.192 221.136L138.696 223.656C138.424 223.672 138.08 223.72 137.664 223.8C137.264 223.864 136.832 223.936 136.368 224.016C135.84 224.096 135.184 224.2 134.4 224.328C133.632 224.44 132.784 224.576 131.856 224.736C130.928 224.88 129.984 225.032 129.024 225.192C128.064 225.336 127.136 225.488 126.24 225.648C125.36 225.792 124.568 225.928 123.864 226.056C123.16 226.168 122.6 226.264 122.184 226.344C121.704 226.424 121.272 226.504 120.888 226.584C120.52 226.648 120.208 226.72 119.952 226.8L119.4 224.232Z" fill="#555555"/>
<path d="M98.0161 212.952C98.3841 213 98.7681 213.04 99.1681 213.072C99.5681 213.104 99.9601 213.12 100.344 213.12C100.648 213.12 101.12 213.12 101.76 213.12C102.416 213.12 103.152 213.12 103.968 213.12C104.8 213.12 105.632 213.12 106.464 213.12C107.296 213.12 108.032 213.12 108.672 213.12C109.312 213.12 109.768 213.12 110.04 213.12C110.408 213.12 110.8 213.104 111.216 213.072C111.648 213.04 112.056 213 112.44 212.952V215.424C112.056 215.392 111.656 215.376 111.24 215.376C110.824 215.36 110.424 215.352 110.04 215.352C109.768 215.352 109.312 215.352 108.672 215.352C108.032 215.352 107.296 215.352 106.464 215.352C105.648 215.352 104.824 215.352 103.992 215.352C103.176 215.352 102.44 215.352 101.784 215.352C101.128 215.352 100.656 215.352 100.368 215.352C99.9681 215.352 99.5601 215.36 99.1441 215.376C98.7281 215.376 98.3521 215.392 98.0161 215.424V212.952ZM95.1841 219.048C95.5201 219.08 95.8721 219.112 96.2401 219.144C96.6241 219.16 97.0001 219.168 97.3681 219.168C97.5601 219.168 97.9681 219.168 98.5921 219.168C99.2161 219.168 99.9681 219.168 100.848 219.168C101.744 219.168 102.696 219.168 103.704 219.168C104.728 219.168 105.752 219.168 106.776 219.168C107.8 219.168 108.752 219.168 109.632 219.168C110.512 219.168 111.256 219.168 111.864 219.168C112.488 219.168 112.888 219.168 113.064 219.168C113.32 219.168 113.648 219.16 114.048 219.144C114.448 219.112 114.792 219.08 115.08 219.048V221.52C114.808 221.488 114.48 221.472 114.096 221.472C113.728 221.456 113.384 221.448 113.064 221.448C112.888 221.448 112.488 221.448 111.864 221.448C111.256 221.448 110.512 221.448 109.632 221.448C108.752 221.448 107.8 221.448 106.776 221.448C105.752 221.448 104.728 221.448 103.704 221.448C102.696 221.448 101.744 221.448 100.848 221.448C99.9681 221.448 99.2161 221.448 98.5921 221.448C97.9681 221.448 97.5601 221.448 97.3681 221.448C97.0001 221.448 96.6241 221.456 96.2401 221.472C95.8561 221.472 95.5041 221.488 95.1841 221.52V219.048ZM106.92 220.32C106.92 221.84 106.8 223.224 106.56 224.472C106.32 225.72 105.936 226.848 105.408 227.856C105.12 228.384 104.728 228.928 104.232 229.488C103.752 230.032 103.208 230.552 102.6 231.048C101.992 231.544 101.336 231.968 100.632 232.32L98.4241 230.712C99.3041 230.344 100.144 229.84 100.944 229.2C101.744 228.544 102.384 227.856 102.864 227.136C103.472 226.192 103.864 225.152 104.04 224.016C104.216 222.864 104.312 221.632 104.328 220.32H106.92Z" fill="#555555"/>
<path d="M90.216 216.024C90.088 216.216 89.968 216.448 89.856 216.72C89.744 216.992 89.64 217.248 89.544 217.488C89.336 218.256 89.04 219.104 88.656 220.032C88.272 220.96 87.8 221.912 87.24 222.888C86.68 223.848 86.04 224.768 85.32 225.648C84.216 227.008 82.896 228.24 81.36 229.344C79.84 230.448 77.96 231.432 75.72 232.296L73.488 230.304C75.04 229.84 76.4 229.304 77.568 228.696C78.752 228.072 79.792 227.392 80.688 226.656C81.6 225.92 82.408 225.136 83.112 224.304C83.72 223.616 84.264 222.856 84.744 222.024C85.24 221.176 85.664 220.336 86.016 219.504C86.384 218.656 86.632 217.896 86.76 217.224H78.216L79.128 215.064C79.336 215.064 79.688 215.064 80.184 215.064C80.696 215.064 81.272 215.064 81.912 215.064C82.568 215.064 83.208 215.064 83.832 215.064C84.472 215.064 85.024 215.064 85.488 215.064C85.968 215.064 86.288 215.064 86.448 215.064C86.784 215.064 87.112 215.048 87.432 215.016C87.752 214.968 88.024 214.904 88.248 214.824L90.216 216.024ZM82.272 212.328C82.032 212.68 81.792 213.064 81.552 213.48C81.328 213.896 81.152 214.224 81.024 214.464C80.528 215.376 79.896 216.344 79.128 217.368C78.376 218.392 77.504 219.4 76.512 220.392C75.52 221.368 74.408 222.272 73.176 223.104L71.064 221.52C72.104 220.896 73.032 220.232 73.848 219.528C74.664 218.824 75.368 218.12 75.96 217.416C76.568 216.696 77.088 216.008 77.52 215.352C77.952 214.696 78.312 214.104 78.6 213.576C78.744 213.336 78.904 213.008 79.08 212.592C79.256 212.16 79.392 211.768 79.488 211.416L82.272 212.328Z" fill="#555555"/>
<path d="M50.5921 213.12C51.0241 213.408 51.5201 213.768 52.0801 214.2C52.6401 214.616 53.2081 215.064 53.7841 215.544C54.3761 216.024 54.9361 216.488 55.4641 216.936C55.9921 217.384 56.4161 217.784 56.7361 218.136L54.8401 220.08C54.5361 219.76 54.1361 219.376 53.6401 218.928C53.1441 218.464 52.6081 217.992 52.0321 217.512C51.4721 217.016 50.9121 216.552 50.3521 216.12C49.7921 215.672 49.2881 215.296 48.8401 214.992L50.5921 213.12ZM48.1201 229.176C49.4641 228.968 50.7041 228.696 51.8401 228.36C52.9761 228.008 54.0161 227.616 54.9601 227.184C55.9201 226.736 56.7841 226.28 57.5521 225.816C58.8321 225.032 60.0081 224.128 61.0801 223.104C62.1681 222.08 63.1201 221.024 63.9361 219.936C64.7521 218.848 65.4001 217.792 65.8801 216.768L67.3441 219.384C66.7681 220.424 66.0561 221.464 65.2081 222.504C64.3761 223.544 63.4321 224.544 62.3761 225.504C61.3201 226.448 60.1681 227.304 58.9201 228.072C58.1201 228.568 57.2401 229.048 56.2801 229.512C55.3361 229.976 54.3121 230.392 53.2081 230.76C52.1201 231.128 50.9601 231.424 49.7281 231.648L48.1201 229.176Z" fill="#555555"/>
<path d="M39.9121 212.616C39.8961 212.92 39.8721 213.256 39.8401 213.624C39.8241 213.992 39.8161 214.392 39.8161 214.824C39.8161 215.192 39.8161 215.648 39.8161 216.192C39.8161 216.72 39.8161 217.256 39.8161 217.8C39.8161 218.328 39.8161 218.76 39.8161 219.096C39.8161 220.456 39.7601 221.632 39.6481 222.624C39.5521 223.616 39.3921 224.472 39.1681 225.192C38.9441 225.896 38.6641 226.528 38.3281 227.088C38.0081 227.632 37.6241 228.152 37.1761 228.648C36.6641 229.256 36.0721 229.792 35.4001 230.256C34.7281 230.704 34.0481 231.08 33.3601 231.384C32.6721 231.688 32.0321 231.944 31.4401 232.152L29.4481 230.064C30.5841 229.776 31.6401 229.384 32.6161 228.888C33.6081 228.392 34.4721 227.744 35.2081 226.944C35.6241 226.448 35.9601 225.952 36.2161 225.456C36.4881 224.96 36.6881 224.408 36.8161 223.8C36.9601 223.192 37.0561 222.496 37.1041 221.712C37.1681 220.928 37.2001 220.008 37.2001 218.952C37.2001 218.6 37.2001 218.16 37.2001 217.632C37.2001 217.104 37.2001 216.584 37.2001 216.072C37.2001 215.56 37.2001 215.144 37.2001 214.824C37.2001 214.392 37.1841 213.992 37.1521 213.624C37.1201 213.256 37.0881 212.92 37.0561 212.616H39.9121ZM28.7761 212.808C28.7601 213.048 28.7361 213.32 28.7041 213.624C28.6881 213.928 28.6801 214.248 28.6801 214.584C28.6801 214.728 28.6801 215 28.6801 215.4C28.6801 215.784 28.6801 216.248 28.6801 216.792C28.6801 217.336 28.6801 217.904 28.6801 218.496C28.6801 219.088 28.6801 219.664 28.6801 220.224C28.6801 220.784 28.6801 221.28 28.6801 221.712C28.6801 222.128 28.6801 222.432 28.6801 222.624C28.6801 222.928 28.6881 223.272 28.7041 223.656C28.7361 224.024 28.7601 224.328 28.7761 224.568H26.0161C26.0321 224.376 26.0481 224.096 26.0641 223.728C26.0961 223.344 26.1121 222.976 26.1121 222.624C26.1121 222.432 26.1121 222.12 26.1121 221.688C26.1121 221.256 26.1121 220.768 26.1121 220.224C26.1121 219.664 26.1121 219.088 26.1121 218.496C26.1121 217.888 26.1121 217.32 26.1121 216.792C26.1121 216.248 26.1121 215.784 26.1121 215.4C26.1121 215 26.1121 214.728 26.1121 214.584C26.1121 214.36 26.1041 214.072 26.0881 213.72C26.0721 213.352 26.0481 213.048 26.0161 212.808H28.7761Z" fill="#555555"/>
<path d="M216.585 155.824C216.585 156.592 216.433 157.264 216.129 157.84C215.841 158.4 215.425 158.856 214.881 159.208C214.337 159.56 213.713 159.816 213.009 159.976V160.072C214.385 160.232 215.409 160.664 216.081 161.368C216.769 162.056 217.113 162.968 217.113 164.104C217.113 165.096 216.873 165.984 216.393 166.768C215.929 167.536 215.201 168.144 214.209 168.592C213.233 169.024 211.977 169.24 210.441 169.24C209.529 169.24 208.681 169.168 207.897 169.024C207.113 168.88 206.369 168.64 205.665 168.304V166C206.385 166.368 207.153 166.648 207.969 166.84C208.801 167.032 209.593 167.128 210.345 167.128C211.801 167.128 212.849 166.856 213.489 166.312C214.129 165.752 214.449 164.976 214.449 163.984C214.449 163.344 214.281 162.824 213.945 162.424C213.609 162.008 213.097 161.704 212.409 161.512C211.721 161.304 210.865 161.2 209.841 161.2H208.281V159.112H209.865C210.841 159.112 211.633 158.992 212.241 158.752C212.849 158.496 213.297 158.144 213.585 157.696C213.873 157.248 214.017 156.736 214.017 156.16C214.017 155.392 213.761 154.8 213.249 154.384C212.753 153.952 212.033 153.736 211.089 153.736C210.513 153.736 209.977 153.8 209.481 153.928C209.001 154.056 208.561 154.224 208.161 154.432C207.761 154.64 207.369 154.872 206.985 155.128L205.737 153.376C206.169 153.056 206.649 152.76 207.177 152.488C207.721 152.216 208.321 152.008 208.977 151.864C209.649 151.704 210.377 151.624 211.161 151.624C212.937 151.624 214.281 152.016 215.193 152.8C216.121 153.568 216.585 154.576 216.585 155.824Z" fill="#555555"/>
<path d="M202.093 167.176C202.429 167.176 202.773 167.144 203.125 167.08C203.477 167.016 203.781 166.944 204.037 166.864V168.784C203.765 168.912 203.397 169.016 202.933 169.096C202.469 169.192 202.005 169.24 201.541 169.24C200.837 169.24 200.189 169.12 199.597 168.88C199.021 168.64 198.557 168.224 198.205 167.632C197.853 167.04 197.677 166.216 197.677 165.16V158.008H195.877V156.856L197.773 155.896L198.661 153.16H200.221V156.064H203.917V158.008H200.221V165.112C200.221 165.816 200.389 166.336 200.725 166.672C201.077 167.008 201.533 167.176 202.093 167.176Z" fill="#555555"/>
<path d="M194.404 165.352C194.404 166.2 194.196 166.912 193.78 167.488C193.364 168.064 192.764 168.504 191.98 168.808C191.196 169.096 190.252 169.24 189.148 169.24C188.236 169.24 187.452 169.168 186.796 169.024C186.156 168.896 185.564 168.704 185.02 168.448V166.216C185.596 166.488 186.26 166.736 187.012 166.96C187.764 167.168 188.5 167.272 189.22 167.272C190.18 167.272 190.868 167.12 191.284 166.816C191.716 166.512 191.932 166.104 191.932 165.592C191.932 165.304 191.852 165.048 191.692 164.824C191.532 164.584 191.228 164.344 190.78 164.104C190.348 163.848 189.708 163.56 188.86 163.24C188.044 162.904 187.348 162.576 186.772 162.256C186.196 161.92 185.756 161.528 185.452 161.08C185.148 160.616 184.996 160.024 184.996 159.304C184.996 158.184 185.444 157.328 186.34 156.736C187.252 156.128 188.452 155.824 189.94 155.824C190.724 155.824 191.46 155.904 192.148 156.064C192.852 156.208 193.532 156.432 194.188 156.736L193.348 158.68C192.98 158.504 192.596 158.36 192.196 158.248C191.812 158.12 191.42 158.016 191.02 157.936C190.636 157.856 190.236 157.816 189.82 157.816C189.052 157.816 188.468 157.936 188.068 158.176C187.668 158.416 187.468 158.752 187.468 159.184C187.468 159.488 187.556 159.752 187.732 159.976C187.924 160.2 188.252 160.424 188.716 160.648C189.18 160.872 189.812 161.144 190.612 161.464C191.412 161.768 192.092 162.08 192.652 162.4C193.228 162.72 193.66 163.112 193.948 163.576C194.252 164.04 194.404 164.632 194.404 165.352Z" fill="#555555"/>
<path d="M181.817 156.064V169H179.273V156.064H181.817ZM180.569 151.144C180.953 151.144 181.289 151.256 181.577 151.48C181.865 151.704 182.009 152.08 182.009 152.608C182.009 153.12 181.865 153.496 181.577 153.736C181.289 153.96 180.953 154.072 180.569 154.072C180.153 154.072 179.801 153.96 179.513 153.736C179.241 153.496 179.105 153.12 179.105 152.608C179.105 152.08 179.241 151.704 179.513 151.48C179.801 151.256 180.153 151.144 180.569 151.144Z" fill="#555555"/>
<path d="M166.694 169V151.864H169.286V166.768H176.606V169H166.694Z" fill="#555555"/>
<path d="M157.993 151.864L151.609 169H149.185L155.569 151.864H157.993Z" fill="#555555"/>
<path d="M140.952 155.824C140.952 156.592 140.8 157.264 140.496 157.84C140.208 158.4 139.792 158.856 139.248 159.208C138.704 159.56 138.08 159.816 137.376 159.976V160.072C138.752 160.232 139.776 160.664 140.448 161.368C141.136 162.056 141.48 162.968 141.48 164.104C141.48 165.096 141.24 165.984 140.76 166.768C140.296 167.536 139.568 168.144 138.576 168.592C137.6 169.024 136.344 169.24 134.808 169.24C133.896 169.24 133.048 169.168 132.264 169.024C131.48 168.88 130.736 168.64 130.032 168.304V166C130.752 166.368 131.52 166.648 132.336 166.84C133.168 167.032 133.96 167.128 134.712 167.128C136.168 167.128 137.216 166.856 137.856 166.312C138.496 165.752 138.816 164.976 138.816 163.984C138.816 163.344 138.648 162.824 138.312 162.424C137.976 162.008 137.464 161.704 136.776 161.512C136.088 161.304 135.232 161.2 134.208 161.2H132.648V159.112H134.232C135.208 159.112 136 158.992 136.608 158.752C137.216 158.496 137.664 158.144 137.952 157.696C138.24 157.248 138.384 156.736 138.384 156.16C138.384 155.392 138.128 154.8 137.616 154.384C137.12 153.952 136.4 153.736 135.456 153.736C134.88 153.736 134.344 153.8 133.848 153.928C133.368 154.056 132.928 154.224 132.528 154.432C132.128 154.64 131.736 154.872 131.352 155.128L130.104 153.376C130.536 153.056 131.016 152.76 131.544 152.488C132.088 152.216 132.688 152.008 133.344 151.864C134.016 151.704 134.744 151.624 135.528 151.624C137.304 151.624 138.648 152.016 139.56 152.8C140.488 153.568 140.952 154.576 140.952 155.824Z" fill="#555555"/>
<path d="M112.848 166.792C112.848 166.536 112.848 166.072 112.848 165.4C112.848 164.712 112.848 163.904 112.848 162.976C112.848 162.032 112.848 161.056 112.848 160.048C112.848 159.024 112.848 158.032 112.848 157.072C112.848 156.112 112.848 155.264 112.848 154.528C112.848 153.792 112.848 153.256 112.848 152.92C112.848 152.536 112.832 152.096 112.8 151.6C112.768 151.088 112.712 150.632 112.632 150.232H115.584C115.552 150.616 115.512 151.056 115.464 151.552C115.432 152.048 115.416 152.504 115.416 152.92C115.416 153.464 115.416 154.152 115.416 154.984C115.416 155.8 115.416 156.688 115.416 157.648C115.416 158.608 115.416 159.576 115.416 160.552C115.416 161.528 115.416 162.448 115.416 163.312C115.416 164.16 115.416 164.896 115.416 165.52C115.416 166.144 115.416 166.568 115.416 166.792C115.416 167.048 115.424 167.36 115.44 167.728C115.456 168.096 115.48 168.472 115.512 168.856C115.544 169.224 115.576 169.56 115.608 169.864H112.656C112.72 169.448 112.768 168.952 112.8 168.376C112.832 167.784 112.848 167.256 112.848 166.792ZM114.864 156.496C115.648 156.72 116.528 157 117.504 157.336C118.48 157.656 119.464 158.008 120.456 158.392C121.448 158.76 122.392 159.128 123.288 159.496C124.184 159.864 124.944 160.2 125.568 160.504L124.488 163.12C123.816 162.752 123.056 162.384 122.208 162.016C121.376 161.632 120.52 161.264 119.64 160.912C118.76 160.56 117.904 160.24 117.072 159.952C116.256 159.664 115.52 159.416 114.864 159.208V156.496Z" fill="#555555"/>
<path d="M100.56 152.848C100.464 152.96 100.344 153.144 100.2 153.4C100.056 153.656 99.944 153.888 99.864 154.096C99.528 154.864 99.112 155.72 98.616 156.664C98.136 157.608 97.584 158.552 96.96 159.496C96.352 160.424 95.712 161.272 95.04 162.04C94.16 163.048 93.184 164.032 92.112 164.992C91.056 165.952 89.936 166.84 88.752 167.656C87.568 168.456 86.344 169.152 85.08 169.744L83.136 167.704C84.432 167.192 85.68 166.56 86.88 165.808C88.096 165.056 89.224 164.232 90.264 163.336C91.304 162.44 92.216 161.552 93 160.672C93.544 160.064 94.072 159.392 94.584 158.656C95.096 157.904 95.552 157.152 95.952 156.4C96.352 155.648 96.64 154.96 96.816 154.336C96.672 154.336 96.376 154.336 95.928 154.336C95.48 154.336 94.944 154.336 94.32 154.336C93.712 154.336 93.072 154.336 92.4 154.336C91.744 154.336 91.104 154.336 90.48 154.336C89.872 154.336 89.344 154.336 88.896 154.336C88.448 154.336 88.152 154.336 88.008 154.336C87.704 154.336 87.368 154.352 87 154.384C86.648 154.4 86.32 154.424 86.016 154.456C85.728 154.472 85.52 154.48 85.392 154.48V151.768C85.552 151.784 85.792 151.808 86.112 151.84C86.432 151.856 86.768 151.88 87.12 151.912C87.472 151.928 87.768 151.936 88.008 151.936C88.184 151.936 88.496 151.936 88.944 151.936C89.408 151.936 89.944 151.936 90.552 151.936C91.176 151.936 91.824 151.936 92.496 151.936C93.168 151.936 93.808 151.936 94.416 151.936C95.024 151.936 95.552 151.936 96 151.936C96.448 151.936 96.752 151.936 96.912 151.936C97.36 151.936 97.768 151.912 98.136 151.864C98.504 151.816 98.792 151.76 99 151.696L100.56 152.848ZM95.352 160.456C95.992 160.984 96.664 161.576 97.368 162.232C98.072 162.888 98.76 163.568 99.432 164.272C100.104 164.96 100.728 165.624 101.304 166.264C101.896 166.904 102.392 167.472 102.792 167.968L100.68 169.84C100.088 169.04 99.408 168.2 98.64 167.32C97.872 166.44 97.056 165.56 96.192 164.68C95.328 163.784 94.464 162.952 93.6 162.184L95.352 160.456Z" fill="#555555"/>
<path d="M75.9121 150.616C75.8961 150.92 75.8721 151.256 75.8401 151.624C75.8241 151.992 75.8161 152.392 75.8161 152.824C75.8161 153.192 75.8161 153.648 75.8161 154.192C75.8161 154.72 75.8161 155.256 75.8161 155.8C75.8161 156.328 75.8161 156.76 75.8161 157.096C75.8161 158.456 75.7601 159.632 75.6481 160.624C75.5521 161.616 75.3921 162.472 75.1681 163.192C74.9441 163.896 74.6641 164.528 74.3281 165.088C74.0081 165.632 73.6241 166.152 73.1761 166.648C72.6641 167.256 72.0721 167.792 71.4001 168.256C70.7281 168.704 70.0481 169.08 69.3601 169.384C68.6721 169.688 68.0321 169.944 67.4401 170.152L65.4481 168.064C66.5841 167.776 67.6401 167.384 68.6161 166.888C69.6081 166.392 70.4721 165.744 71.2081 164.944C71.6241 164.448 71.9601 163.952 72.2161 163.456C72.4881 162.96 72.6881 162.408 72.8161 161.8C72.9601 161.192 73.0561 160.496 73.1041 159.712C73.1681 158.928 73.2001 158.008 73.2001 156.952C73.2001 156.6 73.2001 156.16 73.2001 155.632C73.2001 155.104 73.2001 154.584 73.2001 154.072C73.2001 153.56 73.2001 153.144 73.2001 152.824C73.2001 152.392 73.1841 151.992 73.1521 151.624C73.1201 151.256 73.0881 150.92 73.0561 150.616H75.9121ZM64.7761 150.808C64.7601 151.048 64.7361 151.32 64.7041 151.624C64.6881 151.928 64.6801 152.248 64.6801 152.584C64.6801 152.728 64.6801 153 64.6801 153.4C64.6801 153.784 64.6801 154.248 64.6801 154.792C64.6801 155.336 64.6801 155.904 64.6801 156.496C64.6801 157.088 64.6801 157.664 64.6801 158.224C64.6801 158.784 64.6801 159.28 64.6801 159.712C64.6801 160.128 64.6801 160.432 64.6801 160.624C64.6801 160.928 64.6881 161.272 64.7041 161.656C64.7361 162.024 64.7601 162.328 64.7761 162.568H62.0161C62.0321 162.376 62.0481 162.096 62.0641 161.728C62.0961 161.344 62.1121 160.976 62.1121 160.624C62.1121 160.432 62.1121 160.12 62.1121 159.688C62.1121 159.256 62.1121 158.768 62.1121 158.224C62.1121 157.664 62.1121 157.088 62.1121 156.496C62.1121 155.888 62.1121 155.32 62.1121 154.792C62.1121 154.248 62.1121 153.784 62.1121 153.4C62.1121 153 62.1121 152.728 62.1121 152.584C62.1121 152.36 62.1041 152.072 62.0881 151.72C62.0721 151.352 62.0481 151.048 62.0161 150.808H64.7761Z" fill="#555555"/>
<path d="M36.1204 160.24C36.1204 159.472 36.2484 158.856 36.5044 158.392C36.7604 157.912 37.1044 157.568 37.5364 157.36C37.9844 157.152 38.4724 157.048 39.0004 157.048C39.5284 157.048 40.0084 157.152 40.4404 157.36C40.8724 157.568 41.2164 157.912 41.4724 158.392C41.7444 158.856 41.8804 159.472 41.8804 160.24C41.8804 160.992 41.7444 161.608 41.4724 162.088C41.2164 162.552 40.8724 162.896 40.4404 163.12C40.0084 163.328 39.5284 163.432 39.0004 163.432C38.4724 163.432 37.9844 163.328 37.5364 163.12C37.1044 162.896 36.7604 162.552 36.5044 162.088C36.2484 161.608 36.1204 160.992 36.1204 160.24Z" fill="#555555"/>
<path d="M217.257 138H205.737V136.032L210.153 131.544C211.017 130.664 211.737 129.904 212.313 129.264C212.889 128.608 213.321 127.984 213.609 127.392C213.897 126.784 214.041 126.128 214.041 125.424C214.041 124.544 213.785 123.888 213.273 123.456C212.761 123.008 212.097 122.784 211.281 122.784C210.497 122.784 209.793 122.936 209.169 123.24C208.545 123.528 207.897 123.936 207.225 124.464L205.857 122.76C206.321 122.36 206.817 122 207.345 121.68C207.889 121.36 208.489 121.104 209.145 120.912C209.817 120.72 210.553 120.624 211.353 120.624C212.441 120.624 213.377 120.816 214.161 121.2C214.945 121.568 215.545 122.096 215.961 122.784C216.393 123.472 216.609 124.28 216.609 125.208C216.609 125.896 216.505 126.544 216.297 127.152C216.089 127.744 215.785 128.328 215.385 128.904C215.001 129.48 214.529 130.064 213.969 130.656C213.409 131.248 212.793 131.872 212.121 132.528L208.929 135.624V135.744H217.257V138Z" fill="#555555"/>
<path d="M202.093 136.176C202.429 136.176 202.773 136.144 203.125 136.08C203.477 136.016 203.781 135.944 204.037 135.864V137.784C203.765 137.912 203.397 138.016 202.933 138.096C202.469 138.192 202.005 138.24 201.541 138.24C200.837 138.24 200.189 138.12 199.597 137.88C199.021 137.64 198.557 137.224 198.205 136.632C197.853 136.04 197.677 135.216 197.677 134.16V127.008H195.877V125.856L197.773 124.896L198.661 122.16H200.221V125.064H203.917V127.008H200.221V134.112C200.221 134.816 200.389 135.336 200.725 135.672C201.077 136.008 201.533 136.176 202.093 136.176Z" fill="#555555"/>
<path d="M194.404 134.352C194.404 135.2 194.196 135.912 193.78 136.488C193.364 137.064 192.764 137.504 191.98 137.808C191.196 138.096 190.252 138.24 189.148 138.24C188.236 138.24 187.452 138.168 186.796 138.024C186.156 137.896 185.564 137.704 185.02 137.448V135.216C185.596 135.488 186.26 135.736 187.012 135.96C187.764 136.168 188.5 136.272 189.22 136.272C190.18 136.272 190.868 136.12 191.284 135.816C191.716 135.512 191.932 135.104 191.932 134.592C191.932 134.304 191.852 134.048 191.692 133.824C191.532 133.584 191.228 133.344 190.78 133.104C190.348 132.848 189.708 132.56 188.86 132.24C188.044 131.904 187.348 131.576 186.772 131.256C186.196 130.92 185.756 130.528 185.452 130.08C185.148 129.616 184.996 129.024 184.996 128.304C184.996 127.184 185.444 126.328 186.34 125.736C187.252 125.128 188.452 124.824 189.94 124.824C190.724 124.824 191.46 124.904 192.148 125.064C192.852 125.208 193.532 125.432 194.188 125.736L193.348 127.68C192.98 127.504 192.596 127.36 192.196 127.248C191.812 127.12 191.42 127.016 191.02 126.936C190.636 126.856 190.236 126.816 189.82 126.816C189.052 126.816 188.468 126.936 188.068 127.176C187.668 127.416 187.468 127.752 187.468 128.184C187.468 128.488 187.556 128.752 187.732 128.976C187.924 129.2 188.252 129.424 188.716 129.648C189.18 129.872 189.812 130.144 190.612 130.464C191.412 130.768 192.092 131.08 192.652 131.4C193.228 131.72 193.66 132.112 193.948 132.576C194.252 133.04 194.404 133.632 194.404 134.352Z" fill="#555555"/>
<path d="M181.817 125.064V138H179.273V125.064H181.817ZM180.569 120.144C180.953 120.144 181.289 120.256 181.577 120.48C181.865 120.704 182.009 121.08 182.009 121.608C182.009 122.12 181.865 122.496 181.577 122.736C181.289 122.96 180.953 123.072 180.569 123.072C180.153 123.072 179.801 122.96 179.513 122.736C179.241 122.496 179.105 122.12 179.105 121.608C179.105 121.08 179.241 120.704 179.513 120.48C179.801 120.256 180.153 120.144 180.569 120.144Z" fill="#555555"/>
<path d="M166.694 138V120.864H169.286V135.768H176.606V138H166.694Z" fill="#555555"/>
<path d="M157.993 120.864L151.609 138H149.185L155.569 120.864H157.993Z" fill="#555555"/>
<path d="M141.624 138H130.104V136.032L134.52 131.544C135.384 130.664 136.104 129.904 136.68 129.264C137.256 128.608 137.688 127.984 137.976 127.392C138.264 126.784 138.408 126.128 138.408 125.424C138.408 124.544 138.152 123.888 137.64 123.456C137.128 123.008 136.464 122.784 135.648 122.784C134.864 122.784 134.16 122.936 133.536 123.24C132.912 123.528 132.264 123.936 131.592 124.464L130.224 122.76C130.688 122.36 131.184 122 131.712 121.68C132.256 121.36 132.856 121.104 133.512 120.912C134.184 120.72 134.92 120.624 135.72 120.624C136.808 120.624 137.744 120.816 138.528 121.2C139.312 121.568 139.912 122.096 140.328 122.784C140.76 123.472 140.976 124.28 140.976 125.208C140.976 125.896 140.872 126.544 140.664 127.152C140.456 127.744 140.152 128.328 139.752 128.904C139.368 129.48 138.896 130.064 138.336 130.656C137.776 131.248 137.16 131.872 136.488 132.528L133.296 135.624V135.744H141.624V138Z" fill="#555555"/>
<path d="M112.848 135.792C112.848 135.536 112.848 135.072 112.848 134.4C112.848 133.712 112.848 132.904 112.848 131.976C112.848 131.032 112.848 130.056 112.848 129.048C112.848 128.024 112.848 127.032 112.848 126.072C112.848 125.112 112.848 124.264 112.848 123.528C112.848 122.792 112.848 122.256 112.848 121.92C112.848 121.536 112.832 121.096 112.8 120.6C112.768 120.088 112.712 119.632 112.632 119.232H115.584C115.552 119.616 115.512 120.056 115.464 120.552C115.432 121.048 115.416 121.504 115.416 121.92C115.416 122.464 115.416 123.152 115.416 123.984C115.416 124.8 115.416 125.688 115.416 126.648C115.416 127.608 115.416 128.576 115.416 129.552C115.416 130.528 115.416 131.448 115.416 132.312C115.416 133.16 115.416 133.896 115.416 134.52C115.416 135.144 115.416 135.568 115.416 135.792C115.416 136.048 115.424 136.36 115.44 136.728C115.456 137.096 115.48 137.472 115.512 137.856C115.544 138.224 115.576 138.56 115.608 138.864H112.656C112.72 138.448 112.768 137.952 112.8 137.376C112.832 136.784 112.848 136.256 112.848 135.792ZM114.864 125.496C115.648 125.72 116.528 126 117.504 126.336C118.48 126.656 119.464 127.008 120.456 127.392C121.448 127.76 122.392 128.128 123.288 128.496C124.184 128.864 124.944 129.2 125.568 129.504L124.488 132.12C123.816 131.752 123.056 131.384 122.208 131.016C121.376 130.632 120.52 130.264 119.64 129.912C118.76 129.56 117.904 129.24 117.072 128.952C116.256 128.664 115.52 128.416 114.864 128.208V125.496Z" fill="#555555"/>
<path d="M100.56 121.848C100.464 121.96 100.344 122.144 100.2 122.4C100.056 122.656 99.944 122.888 99.864 123.096C99.528 123.864 99.112 124.72 98.616 125.664C98.136 126.608 97.584 127.552 96.96 128.496C96.352 129.424 95.712 130.272 95.04 131.04C94.16 132.048 93.184 133.032 92.112 133.992C91.056 134.952 89.936 135.84 88.752 136.656C87.568 137.456 86.344 138.152 85.08 138.744L83.136 136.704C84.432 136.192 85.68 135.56 86.88 134.808C88.096 134.056 89.224 133.232 90.264 132.336C91.304 131.44 92.216 130.552 93 129.672C93.544 129.064 94.072 128.392 94.584 127.656C95.096 126.904 95.552 126.152 95.952 125.4C96.352 124.648 96.64 123.96 96.816 123.336C96.672 123.336 96.376 123.336 95.928 123.336C95.48 123.336 94.944 123.336 94.32 123.336C93.712 123.336 93.072 123.336 92.4 123.336C91.744 123.336 91.104 123.336 90.48 123.336C89.872 123.336 89.344 123.336 88.896 123.336C88.448 123.336 88.152 123.336 88.008 123.336C87.704 123.336 87.368 123.352 87 123.384C86.648 123.4 86.32 123.424 86.016 123.456C85.728 123.472 85.52 123.48 85.392 123.48V120.768C85.552 120.784 85.792 120.808 86.112 120.84C86.432 120.856 86.768 120.88 87.12 120.912C87.472 120.928 87.768 120.936 88.008 120.936C88.184 120.936 88.496 120.936 88.944 120.936C89.408 120.936 89.944 120.936 90.552 120.936C91.176 120.936 91.824 120.936 92.496 120.936C93.168 120.936 93.808 120.936 94.416 120.936C95.024 120.936 95.552 120.936 96 120.936C96.448 120.936 96.752 120.936 96.912 120.936C97.36 120.936 97.768 120.912 98.136 120.864C98.504 120.816 98.792 120.76 99 120.696L100.56 121.848ZM95.352 129.456C95.992 129.984 96.664 130.576 97.368 131.232C98.072 131.888 98.76 132.568 99.432 133.272C100.104 133.96 100.728 134.624 101.304 135.264C101.896 135.904 102.392 136.472 102.792 136.968L100.68 138.84C100.088 138.04 99.408 137.2 98.64 136.32C97.872 135.44 97.056 134.56 96.192 133.68C95.328 132.784 94.464 131.952 93.6 131.184L95.352 129.456Z" fill="#555555"/>
<path d="M75.9121 119.616C75.8961 119.92 75.8721 120.256 75.8401 120.624C75.8241 120.992 75.8161 121.392 75.8161 121.824C75.8161 122.192 75.8161 122.648 75.8161 123.192C75.8161 123.72 75.8161 124.256 75.8161 124.8C75.8161 125.328 75.8161 125.76 75.8161 126.096C75.8161 127.456 75.7601 128.632 75.6481 129.624C75.5521 130.616 75.3921 131.472 75.1681 132.192C74.9441 132.896 74.6641 133.528 74.3281 134.088C74.0081 134.632 73.6241 135.152 73.1761 135.648C72.6641 136.256 72.0721 136.792 71.4001 137.256C70.7281 137.704 70.0481 138.08 69.3601 138.384C68.6721 138.688 68.0321 138.944 67.4401 139.152L65.4481 137.064C66.5841 136.776 67.6401 136.384 68.6161 135.888C69.6081 135.392 70.4721 134.744 71.2081 133.944C71.6241 133.448 71.9601 132.952 72.2161 132.456C72.4881 131.96 72.6881 131.408 72.8161 130.8C72.9601 130.192 73.0561 129.496 73.1041 128.712C73.1681 127.928 73.2001 127.008 73.2001 125.952C73.2001 125.6 73.2001 125.16 73.2001 124.632C73.2001 124.104 73.2001 123.584 73.2001 123.072C73.2001 122.56 73.2001 122.144 73.2001 121.824C73.2001 121.392 73.1841 120.992 73.1521 120.624C73.1201 120.256 73.0881 119.92 73.0561 119.616H75.9121ZM64.7761 119.808C64.7601 120.048 64.7361 120.32 64.7041 120.624C64.6881 120.928 64.6801 121.248 64.6801 121.584C64.6801 121.728 64.6801 122 64.6801 122.4C64.6801 122.784 64.6801 123.248 64.6801 123.792C64.6801 124.336 64.6801 124.904 64.6801 125.496C64.6801 126.088 64.6801 126.664 64.6801 127.224C64.6801 127.784 64.6801 128.28 64.6801 128.712C64.6801 129.128 64.6801 129.432 64.6801 129.624C64.6801 129.928 64.6881 130.272 64.7041 130.656C64.7361 131.024 64.7601 131.328 64.7761 131.568H62.0161C62.0321 131.376 62.0481 131.096 62.0641 130.728C62.0961 130.344 62.1121 129.976 62.1121 129.624C62.1121 129.432 62.1121 129.12 62.1121 128.688C62.1121 128.256 62.1121 127.768 62.1121 127.224C62.1121 126.664 62.1121 126.088 62.1121 125.496C62.1121 124.888 62.1121 124.32 62.1121 123.792C62.1121 123.248 62.1121 122.784 62.1121 122.4C62.1121 122 62.1121 121.728 62.1121 121.584C62.1121 121.36 62.1041 121.072 62.0881 120.72C62.0721 120.352 62.0481 120.048 62.0161 119.808H64.7761Z" fill="#555555"/>
<path d="M36.1204 129.24C36.1204 128.472 36.2484 127.856 36.5044 127.392C36.7604 126.912 37.1044 126.568 37.5364 126.36C37.9844 126.152 38.4724 126.048 39.0004 126.048C39.5284 126.048 40.0084 126.152 40.4404 126.36C40.8724 126.568 41.2164 126.912 41.4724 127.392C41.7444 127.856 41.8804 128.472 41.8804 129.24C41.8804 129.992 41.7444 130.608 41.4724 131.088C41.2164 131.552 40.8724 131.896 40.4404 132.12C40.0084 132.328 39.5284 132.432 39.0004 132.432C38.4724 132.432 37.9844 132.328 37.5364 132.12C37.1044 131.896 36.7604 131.552 36.5044 131.088C36.2484 130.608 36.1204 129.992 36.1204 129.24Z" fill="#555555"/>
<path d="M213.561 107H211.041V95.6238C211.041 95.2238 211.041 94.8558 211.041 94.5198C211.057 94.1678 211.073 93.8318 211.089 93.5118C211.105 93.1758 211.121 92.8558 211.137 92.5518C210.929 92.7598 210.713 92.9598 210.489 93.1518C210.265 93.3438 210.009 93.5678 209.721 93.8238L207.849 95.3358L206.553 93.7038L211.449 89.8638H213.561V107Z" fill="#555555"/>
<path d="M202.093 105.176C202.429 105.176 202.773 105.144 203.125 105.08C203.477 105.016 203.781 104.944 204.037 104.864V106.784C203.765 106.912 203.397 107.016 202.933 107.096C202.469 107.192 202.005 107.24 201.541 107.24C200.837 107.24 200.189 107.12 199.597 106.88C199.021 106.64 198.557 106.224 198.205 105.632C197.853 105.04 197.677 104.216 197.677 103.16V96.0082H195.877V94.8562L197.773 93.8962L198.661 91.1602H200.221V94.0642H203.917V96.0082H200.221V103.112C200.221 103.816 200.389 104.336 200.725 104.672C201.077 105.008 201.533 105.176 202.093 105.176Z" fill="#555555"/>
<path d="M194.404 103.352C194.404 104.2 194.196 104.912 193.78 105.488C193.364 106.064 192.764 106.504 191.98 106.808C191.196 107.096 190.252 107.24 189.148 107.24C188.236 107.24 187.452 107.168 186.796 107.024C186.156 106.896 185.564 106.704 185.02 106.448V104.216C185.596 104.488 186.26 104.736 187.012 104.96C187.764 105.168 188.5 105.272 189.22 105.272C190.18 105.272 190.868 105.12 191.284 104.816C191.716 104.512 191.932 104.104 191.932 103.592C191.932 103.304 191.852 103.048 191.692 102.824C191.532 102.584 191.228 102.344 190.78 102.104C190.348 101.848 189.708 101.56 188.86 101.24C188.044 100.904 187.348 100.576 186.772 100.256C186.196 99.9202 185.756 99.5282 185.452 99.0802C185.148 98.6162 184.996 98.0242 184.996 97.3042C184.996 96.1842 185.444 95.3282 186.34 94.7362C187.252 94.1282 188.452 93.8242 189.94 93.8242C190.724 93.8242 191.46 93.9042 192.148 94.0642C192.852 94.2082 193.532 94.4322 194.188 94.7362L193.348 96.6802C192.98 96.5042 192.596 96.3602 192.196 96.2482C191.812 96.1202 191.42 96.0162 191.02 95.9362C190.636 95.8562 190.236 95.8162 189.82 95.8162C189.052 95.8162 188.468 95.9362 188.068 96.1762C187.668 96.4162 187.468 96.7522 187.468 97.1842C187.468 97.4882 187.556 97.7522 187.732 97.9762C187.924 98.2002 188.252 98.4242 188.716 98.6482C189.18 98.8722 189.812 99.1442 190.612 99.4642C191.412 99.7682 192.092 100.08 192.652 100.4C193.228 100.72 193.66 101.112 193.948 101.576C194.252 102.04 194.404 102.632 194.404 103.352Z" fill="#555555"/>
<path d="M181.817 94.064V107H179.273V94.064H181.817ZM180.569 89.144C180.953 89.144 181.289 89.256 181.577 89.48C181.865 89.704 182.009 90.08 182.009 90.608C182.009 91.12 181.865 91.496 181.577 91.736C181.289 91.96 180.953 92.072 180.569 92.072C180.153 92.072 179.801 91.96 179.513 91.736C179.241 91.496 179.105 91.12 179.105 90.608C179.105 90.08 179.241 89.704 179.513 89.48C179.801 89.256 180.153 89.144 180.569 89.144Z" fill="#555555"/>
<path d="M166.694 107V89.8638H169.286V104.768H176.606V107H166.694Z" fill="#555555"/>
<path d="M157.993 89.8638L151.609 107H149.185L155.569 89.8638H157.993Z" fill="#555555"/>
<path d="M137.928 107H135.408V95.6238C135.408 95.2238 135.408 94.8558 135.408 94.5198C135.424 94.1678 135.44 93.8318 135.456 93.5118C135.472 93.1758 135.488 92.8558 135.504 92.5518C135.296 92.7598 135.08 92.9598 134.856 93.1518C134.632 93.3438 134.376 93.5678 134.088 93.8238L132.216 95.3358L130.92 93.7038L135.816 89.8638H137.928V107Z" fill="#555555"/>
<path d="M112.848 104.792C112.848 104.536 112.848 104.072 112.848 103.4C112.848 102.712 112.848 101.904 112.848 100.976C112.848 100.032 112.848 99.0559 112.848 98.0479C112.848 97.0239 112.848 96.0319 112.848 95.0719C112.848 94.1119 112.848 93.2639 112.848 92.5279C112.848 91.7919 112.848 91.2559 112.848 90.9199C112.848 90.5359 112.832 90.0959 112.8 89.5999C112.768 89.0879 112.712 88.6319 112.632 88.2319H115.584C115.552 88.6159 115.512 89.0559 115.464 89.5519C115.432 90.0479 115.416 90.5039 115.416 90.9199C115.416 91.4639 115.416 92.1519 115.416 92.9839C115.416 93.7999 115.416 94.6879 115.416 95.6479C115.416 96.6079 115.416 97.5759 115.416 98.5519C115.416 99.5279 115.416 100.448 115.416 101.312C115.416 102.16 115.416 102.896 115.416 103.52C115.416 104.144 115.416 104.568 115.416 104.792C115.416 105.048 115.424 105.36 115.44 105.728C115.456 106.096 115.48 106.472 115.512 106.856C115.544 107.224 115.576 107.56 115.608 107.864H112.656C112.72 107.448 112.768 106.952 112.8 106.376C112.832 105.784 112.848 105.256 112.848 104.792ZM114.864 94.4959C115.648 94.7199 116.528 94.9999 117.504 95.3359C118.48 95.6559 119.464 96.0079 120.456 96.3919C121.448 96.7599 122.392 97.1279 123.288 97.4959C124.184 97.8639 124.944 98.1999 125.568 98.5039L124.488 101.12C123.816 100.752 123.056 100.384 122.208 100.016C121.376 99.6319 120.52 99.2639 119.64 98.9119C118.76 98.5599 117.904 98.2399 117.072 97.9519C116.256 97.6639 115.52 97.4159 114.864 97.2079V94.4959Z" fill="#555555"/>
<path d="M100.56 90.8478C100.464 90.9598 100.344 91.1438 100.2 91.3998C100.056 91.6558 99.944 91.8878 99.864 92.0958C99.528 92.8638 99.112 93.7198 98.616 94.6638C98.136 95.6078 97.584 96.5518 96.96 97.4958C96.352 98.4238 95.712 99.2718 95.04 100.04C94.16 101.048 93.184 102.032 92.112 102.992C91.056 103.952 89.936 104.84 88.752 105.656C87.568 106.456 86.344 107.152 85.08 107.744L83.136 105.704C84.432 105.192 85.68 104.56 86.88 103.808C88.096 103.056 89.224 102.232 90.264 101.336C91.304 100.44 92.216 99.5518 93 98.6718C93.544 98.0638 94.072 97.3918 94.584 96.6558C95.096 95.9038 95.552 95.1518 95.952 94.3998C96.352 93.6478 96.64 92.9598 96.816 92.3358C96.672 92.3358 96.376 92.3358 95.928 92.3358C95.48 92.3358 94.944 92.3358 94.32 92.3358C93.712 92.3358 93.072 92.3358 92.4 92.3358C91.744 92.3358 91.104 92.3358 90.48 92.3358C89.872 92.3358 89.344 92.3358 88.896 92.3358C88.448 92.3358 88.152 92.3358 88.008 92.3358C87.704 92.3358 87.368 92.3518 87 92.3838C86.648 92.3998 86.32 92.4238 86.016 92.4558C85.728 92.4718 85.52 92.4798 85.392 92.4798V89.7678C85.552 89.7838 85.792 89.8078 86.112 89.8398C86.432 89.8558 86.768 89.8798 87.12 89.9118C87.472 89.9278 87.768 89.9358 88.008 89.9358C88.184 89.9358 88.496 89.9358 88.944 89.9358C89.408 89.9358 89.944 89.9358 90.552 89.9358C91.176 89.9358 91.824 89.9358 92.496 89.9358C93.168 89.9358 93.808 89.9358 94.416 89.9358C95.024 89.9358 95.552 89.9358 96 89.9358C96.448 89.9358 96.752 89.9358 96.912 89.9358C97.36 89.9358 97.768 89.9118 98.136 89.8638C98.504 89.8158 98.792 89.7598 99 89.6958L100.56 90.8478ZM95.352 98.4558C95.992 98.9838 96.664 99.5758 97.368 100.232C98.072 100.888 98.76 101.568 99.432 102.272C100.104 102.96 100.728 103.624 101.304 104.264C101.896 104.904 102.392 105.472 102.792 105.968L100.68 107.84C100.088 107.04 99.408 106.2 98.64 105.32C97.872 104.44 97.056 103.56 96.192 102.68C95.328 101.784 94.464 100.952 93.6 100.184L95.352 98.4558Z" fill="#555555"/>
<path d="M75.9121 88.6162C75.8961 88.9202 75.8721 89.2562 75.8401 89.6242C75.8241 89.9922 75.8161 90.3922 75.8161 90.8242C75.8161 91.1922 75.8161 91.6482 75.8161 92.1922C75.8161 92.7202 75.8161 93.2562 75.8161 93.8002C75.8161 94.3282 75.8161 94.7602 75.8161 95.0962C75.8161 96.4562 75.7601 97.6322 75.6481 98.6242C75.5521 99.6162 75.3921 100.472 75.1681 101.192C74.9441 101.896 74.6641 102.528 74.3281 103.088C74.0081 103.632 73.6241 104.152 73.1761 104.648C72.6641 105.256 72.0721 105.792 71.4001 106.256C70.7281 106.704 70.0481 107.08 69.3601 107.384C68.6721 107.688 68.0321 107.944 67.4401 108.152L65.4481 106.064C66.5841 105.776 67.6401 105.384 68.6161 104.888C69.6081 104.392 70.4721 103.744 71.2081 102.944C71.6241 102.448 71.9601 101.952 72.2161 101.456C72.4881 100.96 72.6881 100.408 72.8161 99.8002C72.9601 99.1922 73.0561 98.4962 73.1041 97.7122C73.1681 96.9282 73.2001 96.0082 73.2001 94.9522C73.2001 94.6002 73.2001 94.1602 73.2001 93.6322C73.2001 93.1042 73.2001 92.5842 73.2001 92.0722C73.2001 91.5602 73.2001 91.1442 73.2001 90.8242C73.2001 90.3922 73.1841 89.9922 73.1521 89.6242C73.1201 89.2562 73.0881 88.9202 73.0561 88.6162H75.9121ZM64.7761 88.8082C64.7601 89.0482 64.7361 89.3202 64.7041 89.6242C64.6881 89.9282 64.6801 90.2482 64.6801 90.5842C64.6801 90.7282 64.6801 91.0002 64.6801 91.4002C64.6801 91.7842 64.6801 92.2482 64.6801 92.7922C64.6801 93.3362 64.6801 93.9042 64.6801 94.4962C64.6801 95.0882 64.6801 95.6642 64.6801 96.2242C64.6801 96.7842 64.6801 97.2802 64.6801 97.7122C64.6801 98.1282 64.6801 98.4322 64.6801 98.6242C64.6801 98.9282 64.6881 99.2722 64.7041 99.6562C64.7361 100.024 64.7601 100.328 64.7761 100.568H62.0161C62.0321 100.376 62.0481 100.096 62.0641 99.7282C62.0961 99.3442 62.1121 98.9762 62.1121 98.6242C62.1121 98.4322 62.1121 98.1202 62.1121 97.6882C62.1121 97.2562 62.1121 96.7682 62.1121 96.2242C62.1121 95.6642 62.1121 95.0882 62.1121 94.4962C62.1121 93.8882 62.1121 93.3202 62.1121 92.7922C62.1121 92.2482 62.1121 91.7842 62.1121 91.4002C62.1121 91.0002 62.1121 90.7282 62.1121 90.5842C62.1121 90.3602 62.1041 90.0722 62.0881 89.7202C62.0721 89.3522 62.0481 89.0482 62.0161 88.8082H64.7761Z" fill="#555555"/>
<path d="M36.1204 98.2399C36.1204 97.4719 36.2484 96.8559 36.5044 96.3919C36.7604 95.9119 37.1044 95.5679 37.5364 95.3599C37.9844 95.1519 38.4724 95.0479 39.0004 95.0479C39.5284 95.0479 40.0084 95.1519 40.4404 95.3599C40.8724 95.5679 41.2164 95.9119 41.4724 96.3919C41.7444 96.8559 41.8804 97.4719 41.8804 98.2399C41.8804 98.9919 41.7444 99.6079 41.4724 100.088C41.2164 100.552 40.8724 100.896 40.4404 101.12C40.0084 101.328 39.5284 101.432 39.0004 101.432C38.4724 101.432 37.9844 101.328 37.5364 101.12C37.1044 100.896 36.7604 100.552 36.5044 100.088C36.2484 99.6079 36.1204 98.9919 36.1204 98.2399Z" fill="#555555"/>
<path d="M222.154 41.3522C222.154 42.2002 221.946 42.9122 221.53 43.4882C221.114 44.0642 220.514 44.5042 219.73 44.8082C218.946 45.0962 218.002 45.2402 216.898 45.2402C215.986 45.2402 215.202 45.1682 214.546 45.0242C213.906 44.8962 213.314 44.7042 212.77 44.4482V42.2162C213.346 42.4882 214.01 42.7362 214.762 42.9602C215.514 43.1682 216.25 43.2722 216.97 43.2722C217.93 43.2722 218.618 43.1202 219.034 42.8162C219.466 42.5122 219.682 42.1042 219.682 41.5922C219.682 41.3042 219.602 41.0482 219.442 40.8242C219.282 40.5842 218.978 40.3442 218.53 40.1042C218.098 39.8482 217.458 39.5602 216.61 39.2402C215.794 38.9042 215.098 38.5762 214.522 38.2562C213.946 37.9202 213.506 37.5282 213.202 37.0802C212.898 36.6162 212.746 36.0242 212.746 35.3042C212.746 34.1842 213.194 33.3282 214.09 32.7362C215.002 32.1282 216.202 31.8242 217.69 31.8242C218.474 31.8242 219.21 31.9042 219.898 32.0642C220.602 32.2082 221.282 32.4322 221.938 32.7362L221.098 34.6802C220.73 34.5042 220.346 34.3602 219.946 34.2482C219.562 34.1202 219.17 34.0162 218.77 33.9362C218.386 33.8562 217.986 33.8162 217.57 33.8162C216.802 33.8162 216.218 33.9362 215.818 34.1762C215.418 34.4162 215.218 34.7522 215.218 35.1842C215.218 35.4882 215.306 35.7522 215.482 35.9762C215.674 36.2002 216.002 36.4242 216.466 36.6482C216.93 36.8722 217.562 37.1442 218.362 37.4642C219.162 37.7682 219.842 38.0802 220.402 38.4002C220.978 38.7202 221.41 39.1122 221.698 39.5762C222.002 40.0402 222.154 40.6322 222.154 41.3522Z" fill="#555555"/>
<path d="M203.144 31.8242C203.976 31.8242 204.728 31.9842 205.4 32.3042C206.072 32.6242 206.64 33.1122 207.104 33.7682H207.224L207.512 32.0642H209.576V45.1682C209.576 46.3842 209.36 47.4082 208.928 48.2402C208.496 49.0722 207.832 49.6962 206.936 50.1122C206.056 50.5442 204.944 50.7602 203.6 50.7602C202.672 50.7602 201.816 50.6962 201.032 50.5682C200.248 50.4402 199.528 50.2402 198.872 49.9682V47.7362C199.336 47.9602 199.824 48.1442 200.336 48.2882C200.848 48.4482 201.392 48.5602 201.968 48.6242C202.544 48.7042 203.136 48.7442 203.744 48.7442C204.8 48.7442 205.616 48.4402 206.192 47.8322C206.768 47.2402 207.056 46.4002 207.056 45.3122V44.8802C207.056 44.6722 207.064 44.4002 207.08 44.0642C207.096 43.7122 207.112 43.4562 207.128 43.2962H207.032C206.584 43.9682 206.032 44.4642 205.376 44.7842C204.736 45.0882 203.992 45.2402 203.144 45.2402C201.512 45.2402 200.232 44.6562 199.304 43.4882C198.392 42.3042 197.936 40.6642 197.936 38.5682C197.936 37.1602 198.144 35.9602 198.56 34.9682C198.976 33.9602 199.568 33.1842 200.336 32.6402C201.12 32.0962 202.056 31.8242 203.144 31.8242ZM203.672 33.9362C203 33.9362 202.432 34.1202 201.968 34.4882C201.504 34.8402 201.152 35.3602 200.912 36.0482C200.672 36.7362 200.552 37.5842 200.552 38.5922C200.552 40.0962 200.816 41.2402 201.344 42.0242C201.888 42.8082 202.68 43.2002 203.72 43.2002C204.328 43.2002 204.84 43.1202 205.256 42.9602C205.688 42.8002 206.04 42.5522 206.312 42.2162C206.6 41.8802 206.808 41.4562 206.936 40.9442C207.08 40.4162 207.152 39.7842 207.152 39.0482V38.5682C207.152 37.4642 207.024 36.5762 206.768 35.9042C206.528 35.2162 206.152 34.7202 205.64 34.4162C205.128 34.0962 204.472 33.9362 203.672 33.9362Z" fill="#555555"/>
<path d="M190.115 31.8242C191.619 31.8242 192.77 32.2002 193.57 32.9522C194.37 33.7042 194.77 34.9122 194.77 36.5762V45.0002H192.251V36.9362C192.251 35.9282 192.034 35.1762 191.602 34.6802C191.186 34.1682 190.515 33.9122 189.587 33.9122C188.275 33.9122 187.362 34.3042 186.85 35.0882C186.354 35.8722 186.106 37.0002 186.106 38.4722V45.0002H183.562V32.0642H185.578L185.938 33.7922H186.082C186.37 33.3442 186.722 32.9762 187.138 32.6882C187.554 32.4002 188.019 32.1842 188.531 32.0402C189.043 31.8962 189.571 31.8242 190.115 31.8242Z" fill="#555555"/>
<path d="M179.567 32.064V45H177.023V32.064H179.567ZM178.319 27.144C178.703 27.144 179.039 27.256 179.327 27.48C179.615 27.704 179.759 28.08 179.759 28.608C179.759 29.12 179.615 29.496 179.327 29.736C179.039 29.96 178.703 30.072 178.319 30.072C177.903 30.072 177.551 29.96 177.263 29.736C176.991 29.496 176.855 29.12 176.855 28.608C176.855 28.08 176.991 27.704 177.263 27.48C177.551 27.256 177.903 27.144 178.319 27.144Z" fill="#555555"/>
<path d="M166.58 45.2398C165.028 45.2398 163.772 44.6798 162.812 43.5598C161.868 42.4398 161.396 40.7758 161.396 38.5678C161.396 36.3438 161.876 34.6638 162.836 33.5278C163.796 32.3918 165.06 31.8238 166.628 31.8238C167.284 31.8238 167.852 31.9118 168.332 32.0878C168.828 32.2478 169.252 32.4718 169.604 32.7598C169.972 33.0478 170.284 33.3678 170.54 33.7198H170.684C170.652 33.4958 170.612 33.1758 170.564 32.7598C170.516 32.3278 170.492 31.9438 170.492 31.6078V26.7598H173.036V44.9998H171.044L170.612 43.2718H170.492C170.252 43.6398 169.948 43.9758 169.58 44.2798C169.228 44.5678 168.804 44.7998 168.308 44.9758C167.812 45.1518 167.236 45.2398 166.58 45.2398ZM167.18 43.1518C168.428 43.1518 169.308 42.8078 169.82 42.1198C170.332 41.4158 170.588 40.3678 170.588 38.9758V38.5918C170.588 37.0718 170.34 35.9118 169.844 35.1118C169.364 34.3118 168.468 33.9118 167.156 33.9118C166.116 33.9118 165.332 34.3358 164.804 35.1838C164.276 36.0158 164.012 37.1598 164.012 38.6158C164.012 40.0718 164.276 41.1918 164.804 41.9758C165.332 42.7598 166.124 43.1518 167.18 43.1518Z" fill="#555555"/>
<path d="M153.375 31.8242C155.007 31.8242 156.223 32.1842 157.023 32.9042C157.823 33.6082 158.223 34.7202 158.223 36.2402V45.0002H156.423L155.919 43.2002H155.823C155.455 43.6642 155.071 44.0482 154.671 44.3522C154.287 44.6562 153.839 44.8802 153.327 45.0242C152.831 45.1682 152.223 45.2402 151.503 45.2402C150.735 45.2402 150.039 45.1042 149.415 44.8322C148.807 44.5442 148.327 44.1122 147.975 43.5362C147.623 42.9442 147.447 42.2082 147.447 41.3282C147.447 40.0162 147.943 39.0162 148.935 38.3282C149.943 37.6402 151.471 37.2642 153.519 37.2002L155.727 37.1282V36.4082C155.727 35.4482 155.511 34.7762 155.079 34.3922C154.647 34.0082 154.039 33.8162 153.255 33.8162C152.583 33.8162 151.943 33.9122 151.335 34.1042C150.727 34.2962 150.151 34.5282 149.607 34.8002L148.791 32.9522C149.399 32.6322 150.095 32.3682 150.879 32.1602C151.679 31.9362 152.511 31.8242 153.375 31.8242ZM153.975 38.8322C152.503 38.8962 151.479 39.1442 150.903 39.5762C150.343 39.9922 150.063 40.5842 150.063 41.3522C150.063 42.0242 150.263 42.5122 150.663 42.8162C151.079 43.1202 151.599 43.2722 152.223 43.2722C153.231 43.2722 154.063 42.9922 154.719 42.4322C155.375 41.8722 155.703 41.0322 155.703 39.9122V38.7842L153.975 38.8322Z" fill="#555555"/>
<path d="M139.713 31.8242C140.849 31.8242 141.825 32.0642 142.641 32.5442C143.457 33.0082 144.081 33.6802 144.513 34.5602C144.961 35.4402 145.185 36.4802 145.185 37.6802V39.0722H136.497C136.529 40.4002 136.873 41.4162 137.529 42.1202C138.201 42.8242 139.137 43.1762 140.337 43.1762C141.169 43.1762 141.905 43.1042 142.545 42.9602C143.201 42.8002 143.873 42.5682 144.561 42.2642V44.3762C143.921 44.6642 143.265 44.8802 142.593 45.0242C141.937 45.1682 141.153 45.2402 140.241 45.2402C138.993 45.2402 137.889 44.9922 136.929 44.4962C135.969 44.0002 135.217 43.2642 134.673 42.2882C134.145 41.2962 133.881 40.0802 133.881 38.6402C133.881 37.1842 134.121 35.9522 134.601 34.9442C135.097 33.9362 135.777 33.1682 136.641 32.6402C137.521 32.0962 138.545 31.8242 139.713 31.8242ZM139.713 33.7922C138.801 33.7922 138.065 34.0882 137.505 34.6802C136.961 35.2722 136.641 36.1122 136.545 37.2002H142.641C142.641 36.5282 142.537 35.9362 142.329 35.4242C142.121 34.9122 141.801 34.5122 141.369 34.2242C140.937 33.9362 140.385 33.7922 139.713 33.7922Z" fill="#555555"/>
<path d="M130.327 44.9998H127.735V37.1758H119.551V44.9998H116.959V27.8638H119.551V34.9678H127.735V27.8638H130.327V44.9998Z" fill="#555555"/>
<path d="M108.258 27.8638L101.874 44.9998H99.4504L105.834 27.8638H108.258Z" fill="#555555"/>
<path d="M77.4961 26.1602C77.4321 26.5922 77.3761 27.0562 77.3281 27.5522C77.2801 28.0322 77.2481 28.4882 77.2321 28.9202C77.2001 29.5762 77.1681 30.3922 77.1361 31.3682C77.1041 32.3282 77.0721 33.3522 77.0401 34.4402C77.0081 35.5122 76.9841 36.5762 76.9681 37.6322C76.9521 38.6722 76.9441 39.6082 76.9441 40.4402C76.9441 41.2882 77.0961 41.9602 77.4001 42.4562C77.7201 42.9522 78.1601 43.3122 78.7201 43.5362C79.2801 43.7442 79.9041 43.8482 80.5921 43.8482C81.6481 43.8482 82.6001 43.7122 83.4481 43.4402C84.2961 43.1682 85.0561 42.8002 85.7281 42.3362C86.4161 41.8722 87.0321 41.3442 87.5761 40.7522C88.1201 40.1602 88.6081 39.5442 89.0401 38.9042L90.7441 40.9922C90.3441 41.5682 89.8401 42.1682 89.2321 42.7922C88.6241 43.4162 87.8961 44.0002 87.0481 44.5442C86.2161 45.0882 85.2561 45.5282 84.1681 45.8642C83.0961 46.2002 81.8881 46.3682 80.5441 46.3682C79.3281 46.3682 78.2641 46.1842 77.3521 45.8162C76.4401 45.4482 75.7281 44.8562 75.2161 44.0402C74.7041 43.2242 74.4481 42.1522 74.4481 40.8242C74.4481 40.1362 74.4561 39.3602 74.4721 38.4962C74.4881 37.6322 74.5041 36.7442 74.5201 35.8322C74.5521 34.9042 74.5761 34.0002 74.5921 33.1202C74.6241 32.2402 74.6481 31.4322 74.6641 30.6962C74.6801 29.9602 74.6881 29.3682 74.6881 28.9202C74.6881 28.4082 74.6641 27.9202 74.6161 27.4562C74.5841 26.9762 74.5201 26.5362 74.4241 26.1362L77.4961 26.1602Z" fill="#555555"/>
<path d="M48.696 43.3201H65.4V45.5521H48.696V43.3201ZM55.704 24.9121H58.032V44.6641H55.704V24.9121ZM47.592 36.9361H49.872V47.0161H47.592V36.9361ZM64.2 36.9361H66.552V46.9921H64.2V36.9361ZM48.504 27.0241H50.784V33.3121H63.216V27.0001H65.592V35.4961H48.504V27.0241Z" fill="#555555"/>
<path d="M27.5281 31.4641V33.5041H38.4721V31.4641H27.5281ZM27.5281 35.3761V37.4401H38.4721V35.3761H27.5281ZM27.5281 27.5521V29.5681H38.4721V27.5521H27.5281ZM25.3201 25.5361H40.7761V39.4561H25.3201V25.5361ZM34.3441 37.9441H36.6721V43.8241C36.6721 44.1921 36.7361 44.4321 36.8641 44.5441C37.0081 44.6401 37.3281 44.6881 37.8241 44.6881C37.9201 44.6881 38.1041 44.6881 38.3761 44.6881C38.6641 44.6881 38.9761 44.6881 39.3121 44.6881C39.6481 44.6881 39.9601 44.6881 40.2481 44.6881C40.5521 44.6881 40.7761 44.6881 40.9201 44.6881C41.2401 44.6881 41.4721 44.6161 41.6161 44.4721C41.7761 44.3121 41.8881 43.9921 41.9521 43.5121C42.0161 43.0321 42.0641 42.3121 42.0961 41.3521C42.2561 41.4801 42.4561 41.6081 42.6961 41.7361C42.9521 41.8481 43.2161 41.9521 43.4881 42.0481C43.7601 42.1441 44.0001 42.2161 44.2081 42.2641C44.1281 43.4801 43.9841 44.4161 43.7761 45.0721C43.5681 45.7281 43.2561 46.1841 42.8401 46.4401C42.4241 46.6961 41.8561 46.8241 41.1361 46.8241C41.0241 46.8241 40.8401 46.8241 40.5841 46.8241C40.3441 46.8241 40.0721 46.8241 39.7681 46.8241C39.4641 46.8241 39.1601 46.8241 38.8561 46.8241C38.5521 46.8241 38.2801 46.8241 38.0401 46.8241C37.8161 46.8241 37.6481 46.8241 37.5361 46.8241C36.7041 46.8241 36.0481 46.7361 35.5681 46.5601C35.1041 46.3841 34.7841 46.0721 34.6081 45.6241C34.4321 45.1921 34.3441 44.6001 34.3441 43.8481V37.9441ZM28.5361 38.6641H30.9841C30.8561 39.7361 30.6561 40.7201 30.3841 41.6161C30.1281 42.4961 29.7201 43.2801 29.1601 43.9681C28.6001 44.6561 27.8321 45.2561 26.8561 45.7681C25.8961 46.2961 24.6561 46.7281 23.1361 47.0641C23.0721 46.8721 22.9681 46.6481 22.8241 46.3921C22.6801 46.1521 22.5201 45.9041 22.3441 45.6481C22.1681 45.4081 22.0001 45.2161 21.8401 45.0721C23.1841 44.8001 24.2721 44.4721 25.1041 44.0881C25.9521 43.7041 26.6081 43.2561 27.0721 42.7441C27.5361 42.2161 27.8721 41.6161 28.0801 40.9441C28.2881 40.2721 28.4401 39.5121 28.5361 38.6641Z" fill="#555555"/>
<path d="M533 39V33.3333L550.6 15.7667C550.867 15.5222 551.161 15.3333 551.483 15.2C551.806 15.0667 552.144 15 552.5 15C552.856 15 553.2 15.0667 553.533 15.2C553.867 15.3333 554.156 15.5333 554.4 15.8L556.233 17.6667C556.5 17.9111 556.694 18.2 556.817 18.5333C556.939 18.8667 557 19.2 557 19.5333C557 19.8889 556.939 20.2278 556.817 20.55C556.694 20.8722 556.5 21.1667 556.233 21.4333L538.667 39H533ZM552.467 21.4L554.333 19.5333L552.467 17.6667L550.6 19.5333L552.467 21.4Z" fill="#555555"/>
<path d="M55.3333 281V257H57.9999V259.667H60.6666V257H71.3333V259.667H73.9999V257H76.6666V281H73.9999V278.333H71.3333V281H60.6666V278.333H57.9999V281H55.3333ZM57.9999 275.667H60.6666V273H57.9999V275.667ZM57.9999 270.333H60.6666V267.667H57.9999V270.333ZM57.9999 265H60.6666V262.333H57.9999V265ZM71.3333 275.667H73.9999V273H71.3333V275.667ZM71.3333 270.333H73.9999V267.667H71.3333V270.333ZM71.3333 265H73.9999V262.333H71.3333V265Z" fill="#555555"/>
<path d="M561 69V71H23V69H561Z" fill="#555555"/>
</svg>
