<svg width="580" height="80" viewBox="0 0 580 80" fill="none" xmlns="http://www.w3.org/2000/svg">
<path d="M0 16C0 7.16344 7.16344 0 16 0H564C572.837 0 580 7.16344 580 16V64C580 72.8366 572.837 80 564 80H16C7.16345 80 0 72.8366 0 64V16Z" fill="#F5F5F5"/>
<path d="M564 76V80H16V76H564ZM576 64V16C576 9.37259 570.627 4 564 4H16C9.37258 4 4 9.37258 4 16V64C4 70.6274 9.37258 76 16 76V80C7.30156 80 0.223981 73.0587 0.00488281 64.4131L0 64V16C0 7.30155 6.94127 0.22398 15.5869 0.00488281L16 0H564L564.413 0.00488281C573.059 0.223985 580 7.30156 580 16V64C580 72.8366 572.837 80 564 80V76C570.627 76 576 70.6274 576 64Z" fill="#CECECE"/>
<path d="M139.407 24.6958C141.339 24.6958 143.041 25.0025 144.513 25.6158C145.985 26.1985 147.135 27.0725 147.963 28.2378C148.821 29.4031 149.251 30.8445 149.251 32.5618C149.251 33.8805 148.959 35.0305 148.377 36.0118C147.825 36.9931 147.073 37.8671 146.123 38.6338C145.172 39.3698 144.129 40.0291 142.995 40.6118C144.344 41.2558 145.571 41.9918 146.675 42.8198C147.779 43.6171 148.653 44.5525 149.297 45.6258C149.971 46.6991 150.309 47.9871 150.309 49.4898C150.309 51.3298 149.864 52.9245 148.975 54.2738C148.085 55.5925 146.828 56.6198 145.203 57.3558C143.608 58.0918 141.722 58.4598 139.545 58.4598C137.183 58.4598 135.175 58.1071 133.519 57.4018C131.893 56.6965 130.651 55.6998 129.793 54.4118C128.965 53.0931 128.551 51.4985 128.551 49.6278C128.551 48.1251 128.857 46.8218 129.471 45.7178C130.115 44.6138 130.958 43.6631 132.001 42.8658C133.043 42.0685 134.163 41.3938 135.359 40.8418C134.285 40.2285 133.304 39.5385 132.415 38.7718C131.556 37.9745 130.866 37.0698 130.345 36.0578C129.854 35.0458 129.609 33.8651 129.609 32.5158C129.609 30.8291 130.038 29.4185 130.897 28.2838C131.755 27.1185 132.921 26.2291 134.393 25.6158C135.865 25.0025 137.536 24.6958 139.407 24.6958ZM132.507 49.6738C132.507 51.2685 133.074 52.6025 134.209 53.6758C135.343 54.7185 137.091 55.2398 139.453 55.2398C140.955 55.2398 142.213 54.9945 143.225 54.5038C144.237 54.0131 145.003 53.3385 145.525 52.4798C146.077 51.6211 146.353 50.6398 146.353 49.5358C146.353 48.4625 146.061 47.5271 145.479 46.7298C144.927 45.9018 144.129 45.1658 143.087 44.5218C142.075 43.8778 140.863 43.2951 139.453 42.7738L138.717 42.4978C137.367 43.0805 136.233 43.7091 135.313 44.3838C134.393 45.0585 133.687 45.8251 133.197 46.6838C132.737 47.5425 132.507 48.5391 132.507 49.6738ZM139.361 27.9618C137.674 27.9618 136.279 28.3758 135.175 29.2038C134.101 30.0011 133.565 31.1665 133.565 32.6998C133.565 33.8345 133.825 34.7851 134.347 35.5518C134.899 36.3185 135.635 36.9778 136.555 37.5298C137.475 38.0511 138.487 38.5571 139.591 39.0478C140.664 38.5878 141.615 38.0818 142.443 37.5298C143.301 36.9778 143.976 36.3185 144.467 35.5518C144.988 34.7545 145.249 33.8038 145.249 32.6998C145.249 31.1665 144.712 30.0011 143.639 29.2038C142.565 28.3758 141.139 27.9618 139.361 27.9618Z" fill="#555555"/>
<path d="M113.083 24.6958C115.015 24.6958 116.717 25.0025 118.189 25.6158C119.661 26.1985 120.811 27.0725 121.639 28.2378C122.497 29.4031 122.927 30.8445 122.927 32.5618C122.927 33.8805 122.635 35.0305 122.053 36.0118C121.501 36.9931 120.749 37.8671 119.799 38.6338C118.848 39.3698 117.805 40.0291 116.671 40.6118C118.02 41.2558 119.247 41.9918 120.351 42.8198C121.455 43.6171 122.329 44.5525 122.973 45.6258C123.647 46.6991 123.985 47.9871 123.985 49.4898C123.985 51.3298 123.54 52.9245 122.651 54.2738C121.761 55.5925 120.504 56.6198 118.879 57.3558C117.284 58.0918 115.398 58.4598 113.221 58.4598C110.859 58.4598 108.851 58.1071 107.195 57.4018C105.569 56.6965 104.327 55.6998 103.469 54.4118C102.641 53.0931 102.227 51.4985 102.227 49.6278C102.227 48.1251 102.533 46.8218 103.147 45.7178C103.791 44.6138 104.634 43.6631 105.677 42.8658C106.719 42.0685 107.839 41.3938 109.035 40.8418C107.961 40.2285 106.98 39.5385 106.091 38.7718C105.232 37.9745 104.542 37.0698 104.021 36.0578C103.53 35.0458 103.285 33.8651 103.285 32.5158C103.285 30.8291 103.714 29.4185 104.573 28.2838C105.431 27.1185 106.597 26.2291 108.069 25.6158C109.541 25.0025 111.212 24.6958 113.083 24.6958ZM106.183 49.6738C106.183 51.2685 106.75 52.6025 107.885 53.6758C109.019 54.7185 110.767 55.2398 113.129 55.2398C114.631 55.2398 115.889 54.9945 116.901 54.5038C117.913 54.0131 118.679 53.3385 119.201 52.4798C119.753 51.6211 120.029 50.6398 120.029 49.5358C120.029 48.4625 119.737 47.5271 119.155 46.7298C118.603 45.9018 117.805 45.1658 116.763 44.5218C115.751 43.8778 114.539 43.2951 113.129 42.7738L112.393 42.4978C111.043 43.0805 109.909 43.7091 108.989 44.3838C108.069 45.0585 107.363 45.8251 106.873 46.6838C106.413 47.5425 106.183 48.5391 106.183 49.6738ZM113.037 27.9618C111.35 27.9618 109.955 28.3758 108.851 29.2038C107.777 30.0011 107.241 31.1665 107.241 32.6998C107.241 33.8345 107.501 34.7851 108.023 35.5518C108.575 36.3185 109.311 36.9778 110.231 37.5298C111.151 38.0511 112.163 38.5571 113.267 39.0478C114.34 38.5878 115.291 38.0818 116.119 37.5298C116.977 36.9778 117.652 36.3185 118.143 35.5518C118.664 34.7545 118.925 33.8038 118.925 32.6998C118.925 31.1665 118.388 30.0011 117.315 29.2038C116.241 28.3758 114.815 27.9618 113.037 27.9618Z" fill="#555555"/>
<path d="M97.7063 41.5319C97.7063 44.1999 97.507 46.5766 97.1083 48.6619C96.7097 50.7472 96.0657 52.5259 95.1763 53.9979C94.3177 55.4392 93.183 56.5432 91.7723 57.3099C90.3923 58.0766 88.721 58.4599 86.7583 58.4599C84.305 58.4599 82.2657 57.7852 80.6403 56.4359C79.0457 55.0866 77.8497 53.1546 77.0523 50.6399C76.2857 48.0946 75.9023 45.0586 75.9023 41.5319C75.9023 37.9746 76.255 34.9386 76.9603 32.4239C77.6963 29.9092 78.8617 27.9926 80.4563 26.6739C82.051 25.3246 84.1517 24.6499 86.7583 24.6499C89.2117 24.6499 91.251 25.3246 92.8763 26.6739C94.5017 27.9926 95.713 29.9092 96.5103 32.4239C97.3077 34.9386 97.7063 37.9746 97.7063 41.5319ZM79.9503 41.5319C79.9503 44.5372 80.165 47.0366 80.5943 49.0299C81.0543 51.0232 81.775 52.5259 82.7563 53.5379C83.7683 54.5192 85.1023 55.0099 86.7583 55.0099C88.4143 55.0099 89.733 54.5192 90.7143 53.5379C91.7263 52.5566 92.4623 51.0692 92.9223 49.0759C93.3823 47.0519 93.6123 44.5372 93.6123 41.5319C93.6123 38.5266 93.3823 36.0426 92.9223 34.0799C92.4623 32.0866 91.7263 30.5992 90.7143 29.6179C89.733 28.6059 88.4143 28.0999 86.7583 28.0999C85.1023 28.0999 83.7683 28.6059 82.7563 29.6179C81.775 30.5992 81.0543 32.0866 80.5943 34.0799C80.165 36.0426 79.9503 38.5266 79.9503 41.5319Z" fill="#555555"/>
<path d="M59.9742 37.8518C62.2128 37.8518 64.1602 38.2351 65.8162 39.0018C67.4722 39.7684 68.7448 40.8724 69.6342 42.3138C70.5542 43.7244 71.0142 45.4571 71.0142 47.5118C71.0142 49.7811 70.5235 51.7438 69.5422 53.3998C68.5608 55.0251 67.1502 56.2824 65.3102 57.1718C63.5008 58.0304 61.3082 58.4598 58.7322 58.4598C57.0455 58.4598 55.4508 58.3064 53.9482 57.9998C52.4762 57.6931 51.2342 57.2484 50.2222 56.6658V52.8478C51.3262 53.5224 52.6602 54.0591 54.2242 54.4578C55.8188 54.8258 57.3368 55.0098 58.7782 55.0098C60.4035 55.0098 61.8142 54.7644 63.0102 54.2738C64.2368 53.7524 65.1875 52.9704 65.8622 51.9278C66.5368 50.8544 66.8742 49.5204 66.8742 47.9258C66.8742 45.7791 66.2148 44.1384 64.8962 43.0038C63.5775 41.8384 61.4922 41.2558 58.6402 41.2558C57.7815 41.2558 56.8002 41.3324 55.6962 41.4858C54.5922 41.6391 53.7028 41.7924 53.0282 41.9458L51.0042 40.6578L52.2462 25.1558H68.7142V28.8358H55.6962L54.9142 38.3578C55.4355 38.2658 56.1408 38.1584 57.0302 38.0358C57.9195 37.9131 58.9008 37.8518 59.9742 37.8518Z" fill="#555555"/>
<path d="M44.92 57.9998H23.208V54.6418L31.81 45.9478C33.466 44.2918 34.8613 42.8198 35.996 41.5318C37.1307 40.2438 37.9893 38.9865 38.572 37.7598C39.1547 36.5025 39.446 35.1378 39.446 33.6658C39.446 31.8565 38.9093 30.4918 37.836 29.5718C36.7627 28.6211 35.3673 28.1458 33.65 28.1458C32.0553 28.1458 30.6447 28.4218 29.418 28.9738C28.222 29.5258 26.9953 30.2925 25.738 31.2738L23.576 28.5598C24.4347 27.8238 25.37 27.1645 26.382 26.5818C27.4247 25.9991 28.544 25.5391 29.74 25.2018C30.9667 24.8645 32.27 24.6958 33.65 24.6958C35.7047 24.6958 37.468 25.0485 38.94 25.7538C40.412 26.4591 41.5467 27.4711 42.344 28.7898C43.172 30.0778 43.586 31.6265 43.586 33.4358C43.586 34.7238 43.3867 35.9505 42.988 37.1158C42.5893 38.2505 42.022 39.3698 41.286 40.4738C40.55 41.5778 39.6607 42.6971 38.618 43.8318C37.5753 44.9665 36.4253 46.1471 35.168 47.3738L28.314 54.1358V54.3198H44.92V57.9998Z" fill="#555555"/>
</svg>
