<svg width="564" height="80" viewBox="0 0 564 80" fill="none" xmlns="http://www.w3.org/2000/svg">
<path d="M0 16C0 7.16344 7.16344 0 16 0H493C501.837 0 509 7.16344 509 16V64C509 72.8366 501.837 80 493 80H16C7.16344 80 0 72.8366 0 64V16Z" fill="white"/>
<path d="M493 76V80H16V76H493ZM505 64V16C505 9.47609 499.794 4.16811 493.31 4.00391L493 4H16C9.37258 4 4 9.37258 4 16V64C4 70.6274 9.37258 76 16 76V80L15.5869 79.9951C7.07854 79.7795 0.220502 72.9215 0.00488281 64.4131L0 64V16C0 7.16344 7.16344 1.03481e-07 16 0H493L493.413 0.00488281C502.059 0.223985 509 7.30156 509 16V64L508.995 64.4131C508.779 72.9215 501.921 79.7795 493.413 79.9951L493 80V76C499.627 76 505 70.6274 505 64Z" fill="#CECECE"/>
<path d="M458.016 42.5L458.016 37.5L505.661 37.5L505.661 42.5L458.016 42.5Z" fill="#CECECE"/>
<path d="M458 80L453 80L453 -1.97303e-07L458 0L458 80Z" fill="#CECECE"/>
<path d="M471.398 23.8164L481.398 13.8164L491.398 23.8164H471.398Z" fill="#5F6368"/>
<path d="M491.766 56.1836L481.766 66.1836L471.766 56.1836L491.766 56.1836Z" fill="#5F6368"/>
<path d="M74.3821 40.5319C74.3821 43.1999 74.1828 45.5766 73.7841 47.6619C73.3855 49.7472 72.7415 51.5259 71.8521 52.9979C70.9935 54.4392 69.8588 55.5432 68.4481 56.3099C67.0681 57.0766 65.3968 57.4599 63.4341 57.4599C60.9808 57.4599 58.9415 56.7852 57.3161 55.4359C55.7215 54.0866 54.5255 52.1546 53.7281 49.6399C52.9615 47.0946 52.5781 44.0586 52.5781 40.5319C52.5781 36.9746 52.9308 33.9386 53.6361 31.4239C54.3721 28.9092 55.5375 26.9926 57.1321 25.6739C58.7268 24.3246 60.8275 23.6499 63.4341 23.6499C65.8875 23.6499 67.9268 24.3246 69.5521 25.6739C71.1775 26.9926 72.3888 28.9092 73.1861 31.4239C73.9835 33.9386 74.3821 36.9746 74.3821 40.5319ZM56.6261 40.5319C56.6261 43.5372 56.8408 46.0366 57.2701 48.0299C57.7301 50.0232 58.4508 51.5259 59.4321 52.5379C60.4441 53.5192 61.7781 54.0099 63.4341 54.0099C65.0901 54.0099 66.4088 53.5192 67.3901 52.5379C68.4021 51.5566 69.1381 50.0692 69.5981 48.0759C70.0581 46.0519 70.2881 43.5372 70.2881 40.5319C70.2881 37.5266 70.0581 35.0426 69.5981 33.0799C69.1381 31.0866 68.4021 29.5992 67.3901 28.6179C66.4088 27.6059 65.0901 27.0999 63.4341 27.0999C61.7781 27.0999 60.4441 27.6059 59.4321 28.6179C58.4508 29.5992 57.7301 31.0866 57.2701 33.0799C56.8408 35.0426 56.6261 37.5266 56.6261 40.5319Z" fill="#555555"/>
<path d="M46.6778 31.8378C46.6778 33.3098 46.4018 34.5825 45.8498 35.6558C45.2978 36.7291 44.5005 37.6031 43.4578 38.2778C42.4458 38.9525 41.2498 39.4278 39.8698 39.7038V39.8878C42.5072 40.1945 44.4698 41.0225 45.7578 42.3718C47.0458 43.7211 47.6898 45.4845 47.6898 47.6618C47.6898 49.5631 47.2452 51.2651 46.3558 52.7678C45.4665 54.2398 44.0865 55.3898 42.2158 56.2178C40.3758 57.0458 37.9992 57.4598 35.0858 57.4598C33.3685 57.4598 31.7738 57.3218 30.3018 57.0458C28.8298 56.8005 27.4192 56.3405 26.0698 55.6658V51.8938C27.4498 52.5685 28.9372 53.1051 30.5318 53.5038C32.1265 53.8718 33.6598 54.0558 35.1318 54.0558C38.0758 54.0558 40.1918 53.4885 41.4798 52.3538C42.7985 51.1885 43.4578 49.5938 43.4578 47.5698C43.4578 46.1898 43.0898 45.0858 42.3538 44.2578C41.6485 43.3991 40.6058 42.7705 39.2258 42.3718C37.8458 41.9731 36.1898 41.7738 34.2578 41.7738H31.0838V38.3238H34.3038C36.1132 38.3238 37.6158 38.0631 38.8118 37.5418C40.0385 37.0205 40.9585 36.2998 41.5718 35.3798C42.2158 34.4291 42.5378 33.3405 42.5378 32.1138C42.5378 30.5191 42.0012 29.2925 40.9278 28.4338C39.8545 27.5445 38.3978 27.0998 36.5578 27.0998C35.3925 27.0998 34.3345 27.2225 33.3838 27.4678C32.4332 27.6825 31.5438 28.0045 30.7158 28.4338C29.9185 28.8325 29.1058 29.3078 28.2778 29.8598L26.2538 27.0998C27.0512 26.4865 27.9558 25.9191 28.9678 25.3978C30.0105 24.8765 31.1605 24.4625 32.4178 24.1558C33.6752 23.8491 35.0398 23.6958 36.5118 23.6958C39.9465 23.6958 42.4918 24.4625 44.1478 25.9958C45.8345 27.5291 46.6778 29.4765 46.6778 31.8378Z" fill="#555555"/>
<path d="M532.27 43.3381C530.706 43.3381 529.341 42.9241 528.176 42.0961C527.041 41.2375 526.152 40.0108 525.508 38.4161C524.895 36.8215 524.588 34.8895 524.588 32.6201C524.588 30.3508 524.895 28.4341 525.508 26.8701C526.152 25.2755 527.041 24.0641 528.176 23.2361C529.341 22.4081 530.706 21.9941 532.27 21.9941C534.57 21.9941 536.425 22.9141 537.836 24.7541C539.247 26.5941 539.952 29.2161 539.952 32.6201C539.952 34.8895 539.63 36.8215 538.986 38.4161C538.342 40.0108 537.437 41.2375 536.272 42.0961C535.137 42.9241 533.803 43.3381 532.27 43.3381ZM532.27 40.7161C533.619 40.7161 534.693 40.0415 535.49 38.6921C536.318 37.3121 536.732 35.2881 536.732 32.6201C536.732 29.8908 536.318 27.8821 535.49 26.5941C534.693 25.2755 533.619 24.6161 532.27 24.6161C530.921 24.6161 529.832 25.2755 529.004 26.5941C528.176 27.8821 527.762 29.8908 527.762 32.6201C527.762 35.2881 528.176 37.3121 529.004 38.6921C529.832 40.0415 530.921 40.7161 532.27 40.7161ZM555.776 57.0461C554.273 57.0461 552.939 56.6321 551.774 55.8041C550.609 54.9455 549.704 53.7188 549.06 52.1241C548.447 50.5295 548.14 48.5975 548.14 46.3281C548.14 44.0588 548.447 42.1421 549.06 40.5781C549.704 39.0141 550.609 37.8181 551.774 36.9901C552.939 36.1315 554.273 35.7021 555.776 35.7021C557.34 35.7021 558.689 36.1315 559.824 36.9901C560.989 37.8181 561.879 39.0141 562.492 40.5781C563.136 42.1421 563.458 44.0588 563.458 46.3281C563.458 48.5975 563.136 50.5295 562.492 52.1241C561.879 53.7188 560.989 54.9455 559.824 55.8041C558.689 56.6321 557.34 57.0461 555.776 57.0461ZM555.776 54.4241C557.156 54.4241 558.245 53.7495 559.042 52.4001C559.87 51.0508 560.284 49.0268 560.284 46.3281C560.284 43.6295 559.87 41.6208 559.042 40.3021C558.245 38.9835 557.156 38.3241 555.776 38.3241C554.457 38.3241 553.384 38.9835 552.556 40.3021C551.728 41.6208 551.314 43.6295 551.314 46.3281C551.314 49.0268 551.728 51.0508 552.556 52.4001C553.384 53.7495 554.457 54.4241 555.776 54.4241ZM533.236 57.0461L551.912 21.9941H554.718L536.042 57.0461H533.236Z" fill="#555555"/>
</svg>
