<svg width="580" height="232" viewBox="0 0 580 232" fill="none" xmlns="http://www.w3.org/2000/svg">
<path d="M0 16C0 7.16342 7.16344 0 16 0H564C572.837 0 580 7.16344 580 16V143.627C580 152.464 572.837 159.627 564 159.627H16C7.16345 159.627 0 152.464 0 143.627V16Z" fill="white"/>
<path d="M14.2979 156.518C14.8535 156.59 15.4218 156.627 16 156.627V159.627C15.2917 159.627 14.5942 159.58 13.9102 159.491L14.2979 156.518ZM17.9863 156.627V159.627H16V156.627H17.9863ZM25.9277 156.627V159.627H21.957V156.627H25.9277ZM33.8701 156.627V159.627H29.8994V156.627H33.8701ZM41.8125 156.627V159.627H37.8408V156.627H41.8125ZM49.7539 156.627V159.627H45.7832V156.627H49.7539ZM57.6963 156.627V159.627H53.7256V156.627H57.6963ZM65.6387 156.627V159.627H61.667V156.627H65.6387ZM73.5801 156.627V159.627H69.6094V156.627H73.5801ZM81.5225 156.627V159.627H77.5508V156.627H81.5225ZM89.4639 156.627V159.627H85.4932V156.627H89.4639ZM97.4062 156.627V159.627H93.4355V156.627H97.4062ZM105.349 156.627V159.627H101.377V156.627H105.349ZM113.29 156.627V159.627H109.319V156.627H113.29ZM121.232 156.627V159.627H117.262V156.627H121.232ZM129.175 156.627V159.627H125.203V156.627H129.175ZM137.116 156.627V159.627H133.146V156.627H137.116ZM145.059 156.627V159.627H141.087V156.627H145.059ZM153 156.627V159.627H149.029V156.627H153ZM160.942 156.627V159.627H156.972V156.627H160.942ZM168.885 156.627V159.627H164.913V156.627H168.885ZM176.826 156.627V159.627H172.855V156.627H176.826ZM184.769 156.627V159.627H180.798V156.627H184.769ZM192.711 156.627V159.627H188.739V156.627H192.711ZM200.652 156.627V159.627H196.682V156.627H200.652ZM208.595 156.627V159.627H204.623V156.627H208.595ZM216.536 156.627V159.627H212.565V156.627H216.536ZM224.479 156.627V159.627H220.508V156.627H224.479ZM232.421 156.627V159.627H228.449V156.627H232.421ZM240.362 156.627V159.627H236.392V156.627H240.362ZM248.305 156.627V159.627H244.334V156.627H248.305ZM256.247 156.627V159.627H252.275V156.627H256.247ZM264.188 156.627V159.627H260.218V156.627H264.188ZM272.131 156.627V159.627H268.159V156.627H272.131ZM280.072 156.627V159.627H276.102V156.627H280.072ZM288.015 156.627V159.627H284.044V156.627H288.015ZM295.957 156.627V159.627H291.985V156.627H295.957ZM303.898 156.627V159.627H299.928V156.627H303.898ZM311.841 156.627V159.627H307.87V156.627H311.841ZM319.783 156.627V159.627H315.812V156.627H319.783ZM327.725 156.627V159.627H323.754V156.627H327.725ZM335.667 156.627V159.627H331.695V156.627H335.667ZM343.608 156.627V159.627H339.638V156.627H343.608ZM351.551 156.627V159.627H347.58V156.627H351.551ZM359.493 156.627V159.627H355.521V156.627H359.493ZM367.435 156.627V159.627H363.464V156.627H367.435ZM375.377 156.627V159.627H371.406V156.627H375.377ZM383.319 156.627V159.627H379.348V156.627H383.319ZM391.261 156.627V159.627H387.29V156.627H391.261ZM399.203 156.627V159.627H395.231V156.627H399.203ZM407.145 156.627V159.627H403.174V156.627H407.145ZM415.087 156.627V159.627H411.116V156.627H415.087ZM423.029 156.627V159.627H419.058V156.627H423.029ZM430.971 156.627V159.627H427V156.627H430.971ZM438.913 156.627V159.627H434.942V156.627H438.913ZM446.855 156.627V159.627H442.884V156.627H446.855ZM454.797 156.627V159.627H450.826V156.627H454.797ZM462.739 156.627V159.627H458.769V156.627H462.739ZM470.681 156.627V159.627H466.71V156.627H470.681ZM478.623 156.627V159.627H474.652V156.627H478.623ZM486.565 156.627V159.627H482.594V156.627H486.565ZM494.507 156.627V159.627H490.536V156.627H494.507ZM502.449 156.627V159.627H498.479V156.627H502.449ZM510.392 156.627V159.627H506.42V156.627H510.392ZM518.333 156.627V159.627H514.362V156.627H518.333ZM526.275 156.627V159.627H522.305V156.627H526.275ZM534.218 156.627V159.627H530.246V156.627H534.218ZM542.159 156.627V159.627H538.188V156.627H542.159ZM550.102 156.627V159.627H546.131V156.627H550.102ZM558.044 156.627V159.627H554.072V156.627H558.044ZM564 156.627V159.627H562.015V156.627H564ZM566.089 159.491C565.405 159.58 564.708 159.627 564 159.627V156.627C564.578 156.627 565.147 156.59 565.702 156.518L566.089 159.491ZM8.08789 153.942C8.9833 154.63 9.96929 155.204 11.0244 155.642L10.4492 157.026L10.4502 157.027L9.875 158.412C8.57433 157.873 7.36067 157.166 6.25977 156.32L8.08789 153.942ZM573.739 156.32C572.638 157.166 571.425 157.873 570.124 158.412L569.975 158.05L569.55 157.027L568.976 155.642C570.031 155.204 571.017 154.63 571.912 153.942L573.739 156.32ZM3.98535 148.603C4.42294 149.658 4.99641 150.645 5.68457 151.54L3.30566 153.367C2.45961 152.266 1.75422 151.052 1.21484 149.751L3.98535 148.603ZM578.784 149.751C578.245 151.052 577.539 152.266 576.693 153.367L574.315 151.54C575.004 150.645 575.577 149.658 576.015 148.603L578.784 149.751ZM0 143.627V141.633H3V143.627C3 144.205 3.03788 144.773 3.11035 145.329L0.135742 145.716C0.0466168 145.032 0 144.335 0 143.627ZM580 143.627C580 144.335 579.952 145.032 579.863 145.716L578.377 145.523L576.89 145.329C576.962 144.773 577 144.205 577 143.627V141.633H580V143.627ZM3 133.656V137.645H0V133.656H3ZM580 133.656V137.645H577V133.656H580ZM3 125.68V129.668H0V125.68H3ZM580 125.68V129.668H577V125.68H580ZM3 117.703V121.691H0V117.703H3ZM580 117.703V121.691H577V117.703H580ZM3 109.727V113.715H0V109.727H3ZM580 109.727V113.715H577V109.727H580ZM3 101.75V105.738H0V101.75H3ZM580 101.75V105.738H577V101.75H580ZM3 93.7725V97.7607H0V93.7725H3ZM580 93.7725V97.7607H577V93.7725H580ZM3 85.7959V89.7842H0V85.7959H3ZM580 85.7959V89.7842H577V85.7959H580ZM3 77.8193V81.8076H0V77.8193H3ZM580 77.8193V81.8076H577V77.8193H580ZM3 69.8428V73.8311H0V69.8428H3ZM580 69.8428V73.8311H577V69.8428H580ZM3 61.8662V65.8545H0V61.8662H3ZM580 61.8662V65.8545H577V61.8662H580ZM3 53.8896V57.8779H0V53.8896H3ZM580 53.8896V57.8779H577V53.8896H580ZM3 45.9131V49.9014H0V45.9131H3ZM580 45.9131V49.9014H577V45.9131H580ZM3 37.9355V41.9238H0V37.9355H3ZM580 37.9355V41.9238H577V37.9355H580ZM3 29.959V33.9473H0V29.959H3ZM580 29.959V33.9473H577V29.959H580ZM3 21.9824V25.9707H0V21.9824H3ZM580 21.9824V25.9707H577V21.9824H580ZM0 16C0 15.2917 0.0465154 14.5941 0.135742 13.9102L3.11035 14.2979C3.03788 14.8535 3 15.4218 3 16V17.9941H0V16ZM580 17.9941H577V16C577 15.4218 576.962 14.8535 576.89 14.2979L579.863 13.9102C579.953 14.5942 580 15.2916 580 16V17.9941ZM5.68457 8.08789C4.99651 8.9833 4.4229 9.96931 3.98535 11.0244L1.21484 9.875C1.75419 8.57453 2.45979 7.36054 3.30566 6.25977L5.68457 8.08789ZM576.693 6.25977C577.539 7.36057 578.245 8.57448 578.784 9.875L577.4 10.4502L577.399 10.4492L576.015 11.0244C575.577 9.96931 575.003 8.9833 574.315 8.08789L576.693 6.25977ZM11.0244 3.98535C9.96931 4.4229 8.9833 4.99651 8.08789 5.68457L6.25977 3.30566C7.36054 2.45979 8.57453 1.75419 9.875 1.21484L11.0244 3.98535ZM570.124 1.21484C571.425 1.75413 572.638 2.45982 573.739 3.30566L571.912 5.68457C571.017 4.99651 570.031 4.4229 568.976 3.98535L570.124 1.21484ZM17.9854 0V3H16C15.4218 3 14.8535 3.03788 14.2979 3.11035L13.9102 0.135742C14.4608 0.0639111 15.0202 0.0192456 15.5869 0.00488281L16 0H17.9854ZM564.413 0.00488281C564.98 0.0192376 565.539 0.0639849 566.089 0.135742L565.702 3.11035C565.147 3.03788 564.578 3 564 3H562.014V0H564L564.413 0.00488281ZM25.9277 0V3H21.9561V0H25.9277ZM33.8691 0V3H29.8984V0H33.8691ZM41.8115 0V3H37.8408V0H41.8115ZM49.7539 0V3H45.7822V0H49.7539ZM57.6953 0V3H53.7246V0H57.6953ZM65.6377 0V3H61.667V0H65.6377ZM73.5801 0V3H69.6084V0H73.5801ZM81.5215 0V3H77.5508V0H81.5215ZM89.4639 0V3H85.4932V0H89.4639ZM97.4062 0V3H93.4346V0H97.4062ZM105.348 0V3H101.377V0H105.348ZM113.29 0V3H109.319V0H113.29ZM121.231 0V3H117.261V0H121.231ZM129.174 0V3H125.203V0H129.174ZM137.116 0V3H133.145V0H137.116ZM145.058 0V3H141.087V0H145.058ZM153 0V3H149.029V0H153ZM160.942 0V3H156.971V0H160.942ZM168.884 0V3H164.913V0H168.884ZM176.826 0V3H172.855V0H176.826ZM184.769 0V3H180.797V0H184.769ZM192.71 0V3H188.739V0H192.71ZM200.652 0V3H196.681V0H200.652ZM208.594 0V3H204.623V0H208.594ZM216.536 0V3H212.565V0H216.536ZM224.479 0V3H220.507V0H224.479ZM232.42 0V3H228.449V0H232.42ZM240.362 0V3H236.392V0H240.362ZM248.305 0V3H244.333V0H248.305ZM256.246 0V3H252.275V0H256.246ZM264.188 0V3H260.217V0H264.188ZM272.13 0V3H268.159V0H272.13ZM280.072 0V3H276.102V0H280.072ZM288.015 0V3H284.043V0H288.015ZM295.956 0V3H291.985V0H295.956ZM303.898 0V3H299.928V0H303.898ZM311.841 0V3H307.869V0H311.841ZM319.782 0V3H315.812V0H319.782ZM327.725 0V3H323.753V0H327.725ZM335.666 0V3H331.695V0H335.666ZM343.608 0V3H339.638V0H343.608ZM351.551 0V3H347.579V0H351.551ZM359.492 0V3H355.521V0H359.492ZM367.435 0V3H363.464V0H367.435ZM375.377 0V3H371.405V0H375.377ZM383.318 0V3H379.348V0H383.318ZM391.261 0V3H387.289V0H391.261ZM399.202 0V3H395.231V0H399.202ZM407.145 0V3H403.174V0H407.145ZM415.087 0V3H411.115V0H415.087ZM423.028 0V3H419.058V0H423.028ZM430.971 0V3H427V0H430.971ZM438.913 0V3H434.941V0H438.913ZM446.854 0V3H442.884V0H446.854ZM454.797 0V3H450.825V0H454.797ZM462.738 0V3H458.768V0H462.738ZM470.681 0V3H466.71V0H470.681ZM478.623 0V3H474.651V0H478.623ZM486.564 0V3H482.594V0H486.564ZM494.507 0V3H490.536V0H494.507ZM502.449 0V3H498.478V0H502.449ZM510.391 0V3H506.42V0H510.391ZM518.333 0V3H514.361V0H518.333ZM526.274 0V3H522.304V0H526.274ZM534.217 0V3H530.246V0H534.217ZM542.159 0V3H538.188V0H542.159ZM550.101 0V3H546.13V0H550.101ZM558.043 0V3H554.072V0H558.043Z" fill="#106EBE"/>
<path d="M511.787 73.0285C511.723 73.3165 511.667 73.6445 511.619 74.0125C511.587 74.3805 511.555 74.7405 511.523 75.0925C511.507 75.4445 511.499 75.7325 511.499 75.9565C511.483 76.4845 511.475 77.0285 511.475 77.5885C511.491 78.1485 511.507 78.7245 511.523 79.3165C511.555 79.8925 511.595 80.4685 511.643 81.0445C511.755 82.1965 511.915 83.2125 512.123 84.0925C512.331 84.9725 512.603 85.6605 512.939 86.1565C513.275 86.6365 513.699 86.8765 514.211 86.8765C514.483 86.8765 514.747 86.7245 515.003 86.4205C515.275 86.1165 515.515 85.7245 515.723 85.2445C515.947 84.7485 516.139 84.2285 516.299 83.6845C516.475 83.1405 516.627 82.6285 516.755 82.1485L519.155 85.0765C518.627 86.4685 518.099 87.5805 517.571 88.4125C517.059 89.2285 516.523 89.8205 515.963 90.1885C515.403 90.5405 514.795 90.7165 514.139 90.7165C513.275 90.7165 512.451 90.4285 511.667 89.8525C510.899 89.2765 510.243 88.3485 509.699 87.0685C509.155 85.7725 508.771 84.0525 508.547 81.9085C508.467 81.1725 508.403 80.3965 508.355 79.5805C508.323 78.7645 508.299 77.9885 508.283 77.2525C508.283 76.5165 508.283 75.9085 508.283 75.4285C508.283 75.0925 508.267 74.6925 508.235 74.2285C508.203 73.7645 508.155 73.3485 508.091 72.9805L511.787 73.0285ZM523.787 73.5805C524.235 74.1245 524.667 74.7885 525.083 75.5725C525.499 76.3565 525.883 77.1965 526.235 78.0925C526.587 78.9885 526.899 79.9085 527.171 80.8525C527.443 81.7805 527.659 82.6925 527.819 83.5885C527.995 84.4685 528.107 85.2765 528.155 86.0125L524.987 87.2365C524.907 86.2605 524.763 85.1965 524.555 84.0445C524.347 82.8925 524.067 81.7325 523.715 80.5645C523.363 79.3965 522.939 78.2925 522.443 77.2525C521.963 76.2125 521.395 75.3165 520.739 74.5645L523.787 73.5805Z" fill="#555555"/>
<path d="M493.715 73.1482C493.619 72.8762 493.507 72.5402 493.379 72.1402C493.251 71.7402 493.107 71.3402 492.947 70.9402L496.187 70.5562C496.315 71.1802 496.459 71.8042 496.619 72.4282C496.779 73.0362 496.955 73.6362 497.147 74.2282C497.339 74.8042 497.531 75.3482 497.723 75.8602C498.091 76.8522 498.523 77.8282 499.019 78.7882C499.531 79.7322 499.979 80.4762 500.363 81.0202C500.571 81.3242 500.779 81.6122 500.987 81.8842C501.211 82.1402 501.435 82.3882 501.659 82.6282L500.171 84.7882C499.835 84.7242 499.411 84.6602 498.899 84.5962C498.387 84.5162 497.827 84.4442 497.219 84.3802C496.627 84.3162 496.027 84.2522 495.419 84.1882C494.827 84.1242 494.283 84.0762 493.787 84.0442L494.027 81.5002C494.427 81.5322 494.851 81.5722 495.299 81.6202C495.747 81.6522 496.163 81.6842 496.547 81.7162C496.947 81.7482 497.275 81.7722 497.531 81.7882C497.243 81.3242 496.939 80.7962 496.619 80.2042C496.299 79.6122 495.987 78.9962 495.683 78.3562C495.379 77.7002 495.099 77.0442 494.843 76.3882C494.587 75.7162 494.363 75.1082 494.171 74.5642C493.995 74.0202 493.843 73.5482 493.715 73.1482ZM484.979 74.2762C486.467 74.4522 487.867 74.5722 489.179 74.6362C490.491 74.7002 491.715 74.7162 492.851 74.6842C493.987 74.6522 495.027 74.5802 495.971 74.4682C496.707 74.3722 497.419 74.2682 498.107 74.1562C498.811 74.0442 499.499 73.9082 500.171 73.7482C500.859 73.5882 501.507 73.4122 502.115 73.2202L502.499 76.2442C501.971 76.3882 501.395 76.5242 500.771 76.6522C500.163 76.7802 499.531 76.9002 498.875 77.0122C498.219 77.1082 497.571 77.1962 496.931 77.2762C495.315 77.4522 493.539 77.5562 491.603 77.5882C489.667 77.6202 487.475 77.5402 485.027 77.3482L484.979 74.2762ZM489.779 82.4602C489.411 83.0202 489.123 83.5722 488.915 84.1162C488.707 84.6442 488.603 85.1722 488.603 85.7002C488.603 86.7082 489.043 87.4442 489.923 87.9082C490.803 88.3562 492.059 88.5802 493.691 88.5802C495.003 88.5802 496.187 88.5242 497.243 88.4122C498.315 88.3002 499.275 88.1642 500.123 88.0042L499.955 91.0282C499.283 91.1562 498.403 91.2842 497.315 91.4122C496.243 91.5402 494.971 91.6042 493.499 91.6042C491.883 91.5882 490.475 91.3722 489.275 90.9562C488.075 90.5562 487.147 89.9562 486.491 89.1562C485.835 88.3402 485.507 87.3642 485.507 86.2282C485.507 85.4922 485.611 84.7722 485.819 84.0682C486.043 83.3482 486.363 82.5802 486.779 81.7642L489.779 82.4602Z" fill="#555555"/>
<path d="M468.203 71.3C468.107 71.636 468.003 72.036 467.891 72.5C467.795 72.948 467.723 73.308 467.675 73.58C467.563 74.124 467.419 74.788 467.243 75.572C467.083 76.356 466.907 77.188 466.715 78.068C466.523 78.932 466.323 79.772 466.115 80.588C465.891 81.42 465.627 82.332 465.323 83.324C465.035 84.316 464.715 85.316 464.363 86.324C464.027 87.332 463.683 88.3 463.331 89.228C462.979 90.156 462.635 90.98 462.299 91.7L458.939 90.572C459.307 89.964 459.683 89.22 460.067 88.34C460.467 87.46 460.859 86.524 461.243 85.532C461.627 84.524 461.979 83.524 462.299 82.532C462.619 81.524 462.891 80.604 463.115 79.772C463.259 79.196 463.403 78.612 463.547 78.02C463.691 77.428 463.819 76.852 463.931 76.292C464.059 75.732 464.163 75.212 464.243 74.732C464.339 74.236 464.411 73.812 464.459 73.46C464.507 73.012 464.539 72.564 464.555 72.116C464.571 71.668 464.563 71.3 464.531 71.012L468.203 71.3ZM462.083 74.9C463.059 74.9 464.075 74.852 465.131 74.756C466.187 74.66 467.251 74.524 468.323 74.348C469.395 74.156 470.459 73.94 471.515 73.7V76.7C470.523 76.94 469.467 77.14 468.347 77.3C467.227 77.46 466.123 77.588 465.035 77.684C463.947 77.764 462.947 77.804 462.035 77.804C461.459 77.804 460.939 77.796 460.475 77.78C460.011 77.748 459.563 77.724 459.131 77.708L459.059 74.708C459.683 74.772 460.219 74.82 460.667 74.852C461.115 74.884 461.587 74.9 462.083 74.9ZM469.619 78.572C470.291 78.492 471.035 78.436 471.851 78.404C472.667 78.356 473.459 78.332 474.227 78.332C474.915 78.332 475.611 78.348 476.315 78.38C477.035 78.412 477.747 78.468 478.451 78.548L478.379 81.428C477.787 81.348 477.131 81.276 476.411 81.212C475.707 81.148 474.987 81.116 474.251 81.116C473.419 81.116 472.627 81.14 471.875 81.188C471.123 81.22 470.371 81.284 469.619 81.38V78.572ZM470.915 84.596C470.819 84.932 470.739 85.284 470.675 85.652C470.611 86.02 470.579 86.332 470.579 86.588C470.579 86.86 470.635 87.108 470.747 87.332C470.859 87.556 471.035 87.756 471.275 87.932C471.515 88.092 471.843 88.22 472.259 88.316C472.691 88.396 473.227 88.436 473.867 88.436C474.667 88.436 475.483 88.396 476.315 88.316C477.147 88.236 477.995 88.116 478.859 87.956L478.739 91.004C478.067 91.1 477.323 91.18 476.507 91.244C475.691 91.324 474.803 91.364 473.843 91.364C471.827 91.364 470.283 91.028 469.211 90.356C468.155 89.684 467.627 88.748 467.627 87.548C467.627 86.988 467.667 86.428 467.747 85.868C467.843 85.308 467.939 84.796 468.035 84.332L470.915 84.596ZM475.883 71.996C476.091 72.284 476.307 72.628 476.531 73.028C476.771 73.428 477.003 73.828 477.227 74.228C477.451 74.628 477.635 74.98 477.779 75.284L475.859 76.124C475.699 75.788 475.515 75.42 475.307 75.02C475.099 74.62 474.883 74.22 474.659 73.82C474.435 73.42 474.211 73.076 473.987 72.788L475.883 71.996ZM478.715 70.916C478.939 71.204 479.171 71.556 479.411 71.972C479.651 72.372 479.883 72.772 480.107 73.172C480.347 73.556 480.531 73.892 480.659 74.18L478.763 74.996C478.507 74.484 478.203 73.916 477.851 73.292C477.499 72.668 477.155 72.132 476.819 71.684L478.715 70.916Z" fill="#555555"/>
<path d="M451.163 72.8841C450.779 73.1561 450.403 73.4441 450.035 73.7481C449.667 74.0361 449.347 74.3001 449.075 74.5401C448.675 74.8441 448.195 75.2201 447.635 75.6681C447.091 76.1001 446.515 76.5561 445.907 77.0361C445.315 77.5001 444.739 77.9561 444.179 78.4041C443.619 78.8521 443.139 79.2521 442.739 79.6041C442.323 79.9721 442.043 80.2761 441.899 80.5161C441.755 80.7401 441.755 80.9641 441.899 81.1881C442.059 81.4121 442.355 81.7161 442.787 82.1001C443.139 82.4041 443.587 82.7801 444.131 83.2281C444.691 83.6761 445.291 84.1721 445.931 84.7161C446.587 85.2441 447.251 85.7961 447.923 86.3721C448.611 86.9321 449.267 87.4921 449.891 88.0521C450.531 88.5961 451.099 89.1081 451.595 89.5881L448.787 92.1561C448.115 91.4041 447.419 90.6601 446.699 89.9241C446.331 89.5561 445.851 89.1081 445.259 88.5801C444.683 88.0361 444.051 87.4681 443.363 86.8761C442.691 86.2841 442.019 85.7001 441.347 85.1241C440.675 84.5321 440.067 84.0041 439.523 83.5401C438.723 82.8681 438.203 82.2521 437.963 81.6921C437.739 81.1321 437.771 80.5801 438.059 80.0361C438.363 79.4761 438.915 78.8681 439.715 78.2121C440.195 77.8441 440.739 77.4121 441.347 76.9161C441.955 76.4041 442.579 75.8841 443.219 75.3561C443.859 74.8121 444.467 74.2921 445.043 73.7961C445.619 73.2841 446.107 72.8361 446.507 72.4521C446.859 72.1001 447.211 71.7401 447.563 71.3721C447.915 71.0041 448.179 70.6841 448.355 70.4121L451.163 72.8841Z" fill="#555555"/>
<path d="M411.978 73.6763C412.458 73.6603 412.914 73.6443 413.346 73.6283C413.778 73.5963 414.114 73.5723 414.354 73.5563C414.85 73.5083 415.458 73.4523 416.178 73.3883C416.898 73.3243 417.706 73.2523 418.602 73.1723C419.514 73.0923 420.482 73.0123 421.506 72.9323C422.53 72.8363 423.594 72.7403 424.698 72.6443C425.53 72.5803 426.362 72.5243 427.194 72.4763C428.026 72.4123 428.81 72.3643 429.546 72.3323C430.298 72.2843 430.946 72.2523 431.49 72.2363L431.514 75.3083C431.082 75.3083 430.586 75.3163 430.026 75.3323C429.466 75.3483 428.906 75.3803 428.346 75.4283C427.802 75.4603 427.314 75.5243 426.882 75.6203C426.162 75.8123 425.49 76.1403 424.866 76.6043C424.258 77.0523 423.722 77.5883 423.258 78.2123C422.794 78.8363 422.434 79.5083 422.178 80.2283C421.938 80.9323 421.818 81.6443 421.818 82.3643C421.818 83.1483 421.954 83.8443 422.226 84.4523C422.498 85.0443 422.874 85.5563 423.354 85.9883C423.85 86.4043 424.426 86.7563 425.082 87.0443C425.738 87.3163 426.442 87.5243 427.194 87.6683C427.962 87.8123 428.754 87.9083 429.57 87.9563L428.442 91.2443C427.434 91.1803 426.45 91.0203 425.49 90.7643C424.546 90.5083 423.658 90.1563 422.826 89.7083C422.01 89.2603 421.29 88.7163 420.666 88.0763C420.042 87.4203 419.554 86.6763 419.202 85.8443C418.85 84.9963 418.674 84.0523 418.674 83.0123C418.674 81.8443 418.858 80.7803 419.226 79.8203C419.594 78.8603 420.05 78.0203 420.594 77.3003C421.138 76.5643 421.682 75.9963 422.226 75.5963C421.778 75.6443 421.234 75.7083 420.594 75.7883C419.97 75.8523 419.29 75.9323 418.554 76.0283C417.834 76.1083 417.098 76.1963 416.346 76.2923C415.594 76.3883 414.866 76.5003 414.162 76.6283C413.474 76.7403 412.85 76.8523 412.29 76.9643L411.978 73.6763Z" fill="#555555"/>
<path d="M395.904 71.1564C395.84 71.6524 395.776 72.1884 395.712 72.7644C395.664 73.3404 395.624 73.8684 395.592 74.3484C395.576 75.0044 395.544 75.8044 395.496 76.7484C395.464 77.6764 395.432 78.6524 395.4 79.6764C395.384 80.7004 395.36 81.7084 395.328 82.7004C395.312 83.6924 395.304 84.5564 395.304 85.2924C395.304 86.0924 395.448 86.7324 395.736 87.2124C396.04 87.6764 396.44 88.0124 396.936 88.2204C397.432 88.4124 397.992 88.5084 398.616 88.5084C399.608 88.5084 400.512 88.3804 401.328 88.1244C402.144 87.8524 402.888 87.4924 403.56 87.0444C404.232 86.5964 404.832 86.0764 405.36 85.4844C405.904 84.8924 406.392 84.2684 406.824 83.6124L409.008 86.2524C408.624 86.8284 408.12 87.4364 407.496 88.0764C406.872 88.7164 406.128 89.3164 405.264 89.8764C404.416 90.4364 403.432 90.8924 402.312 91.2444C401.192 91.5964 399.952 91.7724 398.592 91.7724C397.28 91.7724 396.136 91.5644 395.16 91.1484C394.2 90.7484 393.448 90.1244 392.904 89.2764C392.376 88.4124 392.112 87.3004 392.112 85.9404C392.112 85.2844 392.12 84.5404 392.136 83.7084C392.152 82.8604 392.176 81.9804 392.208 81.0684C392.24 80.1564 392.264 79.2684 392.28 78.4044C392.296 77.5244 392.312 76.7324 392.328 76.0284C392.344 75.3244 392.352 74.7644 392.352 74.3484C392.352 73.7724 392.328 73.2124 392.28 72.6684C392.232 72.1084 392.152 71.5884 392.04 71.1084L395.904 71.1564Z" fill="#555555"/>
<path d="M382.296 72.5963C382.296 72.9803 382.432 73.3083 382.704 73.5803C382.976 73.8363 383.296 73.9643 383.664 73.9643C384.048 73.9643 384.376 73.8363 384.648 73.5803C384.92 73.3083 385.056 72.9803 385.056 72.5963C385.056 72.2123 384.92 71.8843 384.648 71.6123C384.376 71.3403 384.048 71.2043 383.664 71.2043C383.296 71.2043 382.976 71.3403 382.704 71.6123C382.432 71.8843 382.296 72.2123 382.296 72.5963ZM380.808 72.5963C380.808 72.0683 380.936 71.5883 381.192 71.1563C381.464 70.7083 381.816 70.3563 382.248 70.1003C382.68 69.8443 383.152 69.7163 383.664 69.7163C384.192 69.7163 384.672 69.8443 385.104 70.1003C385.552 70.3563 385.904 70.7083 386.16 71.1563C386.416 71.5883 386.544 72.0683 386.544 72.5963C386.544 73.1083 386.416 73.5803 386.16 74.0123C385.904 74.4443 385.552 74.7963 385.104 75.0683C384.672 75.3243 384.192 75.4523 383.664 75.4523C383.152 75.4523 382.68 75.3243 382.248 75.0683C381.816 74.7963 381.464 74.4443 381.192 74.0123C380.936 73.5803 380.808 73.1083 380.808 72.5963ZM383.712 74.4923C383.6 74.7163 383.504 74.9883 383.424 75.3083C383.344 75.6123 383.264 75.8923 383.184 76.1483C383.056 76.7403 382.888 77.4043 382.68 78.1403C382.472 78.8603 382.224 79.6123 381.936 80.3963C381.648 81.1803 381.304 81.9563 380.904 82.7243C380.52 83.4923 380.08 84.2123 379.584 84.8843C378.864 85.8443 378.024 86.7403 377.064 87.5723C376.104 88.4043 375.032 89.1563 373.848 89.8283C372.664 90.5003 371.36 91.0683 369.936 91.5323L367.32 88.6523C368.92 88.2683 370.296 87.7963 371.448 87.2363C372.6 86.6763 373.6 86.0363 374.448 85.3163C375.312 84.5963 376.072 83.8283 376.728 83.0123C377.256 82.3403 377.704 81.6123 378.072 80.8283C378.456 80.0443 378.768 79.2603 379.008 78.4763C379.264 77.6763 379.44 76.9323 379.536 76.2443C379.296 76.2443 378.896 76.2443 378.336 76.2443C377.792 76.2443 377.144 76.2443 376.392 76.2443C375.656 76.2443 374.88 76.2443 374.064 76.2443C373.264 76.2443 372.488 76.2443 371.736 76.2443C370.984 76.2443 370.304 76.2443 369.696 76.2443C369.104 76.2443 368.664 76.2443 368.376 76.2443C367.816 76.2443 367.272 76.2523 366.744 76.2683C366.232 76.2843 365.824 76.3083 365.52 76.3403V72.9563C365.76 72.9883 366.048 73.0203 366.384 73.0523C366.736 73.0843 367.088 73.1083 367.44 73.1243C367.808 73.1403 368.12 73.1483 368.376 73.1483C368.632 73.1483 368.992 73.1483 369.456 73.1483C369.936 73.1483 370.488 73.1483 371.112 73.1483C371.736 73.1483 372.384 73.1483 373.056 73.1483C373.744 73.1483 374.424 73.1483 375.096 73.1483C375.784 73.1483 376.424 73.1483 377.016 73.1483C377.608 73.1483 378.12 73.1483 378.552 73.1483C378.984 73.1483 379.296 73.1483 379.488 73.1483C379.728 73.1483 380.016 73.1403 380.352 73.1243C380.704 73.1083 381.04 73.0523 381.36 72.9563L383.712 74.4923Z" fill="#555555"/>
<path d="M351.12 75.9321C351.232 76.1881 351.376 76.5561 351.552 77.0361C351.744 77.5001 351.944 78.0041 352.152 78.5481C352.36 79.0761 352.544 79.5801 352.704 80.0601C352.864 80.5401 352.992 80.9161 353.088 81.1881L350.208 82.1961C350.144 81.8921 350.032 81.5081 349.872 81.0441C349.712 80.5801 349.536 80.0921 349.344 79.5801C349.152 79.0521 348.96 78.5481 348.768 78.0681C348.576 77.5881 348.408 77.1881 348.264 76.8681L351.12 75.9321ZM359.976 77.6841C359.848 78.0681 359.736 78.3961 359.64 78.6681C359.56 78.9401 359.48 79.1961 359.4 79.4361C359.096 80.6521 358.68 81.8681 358.152 83.0841C357.624 84.2841 356.952 85.4121 356.136 86.4681C355.016 87.9081 353.744 89.1321 352.32 90.1401C350.912 91.1321 349.504 91.8921 348.096 92.4201L345.576 89.8521C346.456 89.6121 347.384 89.2601 348.36 88.7961C349.336 88.3161 350.28 87.7401 351.192 87.0681C352.104 86.3961 352.888 85.6521 353.544 84.8361C354.088 84.1481 354.568 83.3641 354.984 82.4841C355.416 81.5881 355.768 80.6361 356.04 79.6281C356.328 78.6041 356.52 77.5961 356.616 76.6041L359.976 77.6841ZM345.552 77.2041C345.712 77.5081 345.888 77.9001 346.08 78.3801C346.288 78.8601 346.496 79.3641 346.704 79.8921C346.912 80.4201 347.112 80.9321 347.304 81.4281C347.512 81.9241 347.672 82.3401 347.784 82.6761L344.856 83.7801C344.76 83.4601 344.616 83.0441 344.424 82.5321C344.248 82.0201 344.048 81.4841 343.824 80.9241C343.6 80.3481 343.384 79.8201 343.176 79.3401C342.984 78.8601 342.816 78.4921 342.672 78.2361L345.552 77.2041Z" fill="#555555"/>
<path d="M318.024 73.1724C318.52 73.1884 318.984 73.2044 319.416 73.2204C319.864 73.2204 320.248 73.2204 320.568 73.2204C320.824 73.2204 321.216 73.2204 321.744 73.2204C322.288 73.2204 322.92 73.2204 323.64 73.2204C324.36 73.2204 325.128 73.2204 325.944 73.2204C326.76 73.2204 327.576 73.2204 328.392 73.2204C329.224 73.2204 330 73.2204 330.72 73.2204C331.44 73.2204 332.064 73.2204 332.592 73.2204C333.136 73.2204 333.528 73.2204 333.768 73.2204C334.072 73.2204 334.432 73.2204 334.848 73.2204C335.28 73.2044 335.712 73.1884 336.144 73.1724C336.128 73.5404 336.112 73.9324 336.096 74.3484C336.096 74.7484 336.096 75.1324 336.096 75.5004C336.096 75.7244 336.096 76.0764 336.096 76.5564C336.096 77.0204 336.096 77.5804 336.096 78.2364C336.096 78.8764 336.096 79.5644 336.096 80.3004C336.096 81.0204 336.096 81.7484 336.096 82.4844C336.096 83.2204 336.096 83.9164 336.096 84.5724C336.096 85.2124 336.096 85.7724 336.096 86.2524C336.096 86.7164 336.096 87.0524 336.096 87.2604C336.096 87.5004 336.096 87.8044 336.096 88.1724C336.112 88.5244 336.12 88.8844 336.12 89.2524C336.12 89.6044 336.12 89.9164 336.12 90.1884C336.136 90.4444 336.144 90.5804 336.144 90.5964H332.832C332.832 90.5644 332.832 90.3724 332.832 90.0204C332.848 89.6524 332.856 89.2204 332.856 88.7244C332.872 88.2284 332.88 87.7644 332.88 87.3324C332.88 87.1244 332.88 86.7724 332.88 86.2764C332.88 85.7804 332.88 85.1964 332.88 84.5244C332.88 83.8524 332.88 83.1404 332.88 82.3884C332.88 81.6364 332.88 80.9004 332.88 80.1804C332.88 79.4604 332.88 78.8044 332.88 78.2124C332.88 77.6204 332.88 77.1484 332.88 76.7964C332.88 76.4444 332.88 76.2684 332.88 76.2684H321.288C321.288 76.2684 321.288 76.4444 321.288 76.7964C321.288 77.1484 321.288 77.6204 321.288 78.2124C321.288 78.7884 321.288 79.4444 321.288 80.1804C321.288 80.9004 321.288 81.6364 321.288 82.3884C321.288 83.1244 321.288 83.8364 321.288 84.5244C321.288 85.1964 321.288 85.7804 321.288 86.2764C321.288 86.7724 321.288 87.1244 321.288 87.3324C321.288 87.6204 321.288 87.9484 321.288 88.3164C321.288 88.6684 321.288 89.0124 321.288 89.3484C321.304 89.6844 321.312 89.9644 321.312 90.1884C321.312 90.4284 321.312 90.5644 321.312 90.5964H318C318 90.5644 318 90.4284 318 90.1884C318.016 89.9484 318.024 89.6524 318.024 89.3004C318.04 88.9484 318.048 88.5884 318.048 88.2204C318.064 87.8524 318.072 87.5244 318.072 87.2364C318.072 87.0284 318.072 86.6924 318.072 86.2284C318.072 85.7484 318.072 85.1804 318.072 84.5244C318.072 83.8684 318.072 83.1804 318.072 82.4604C318.072 81.7244 318.072 80.9884 318.072 80.2524C318.072 79.5164 318.072 78.8284 318.072 78.1884C318.072 77.5324 318.072 76.9724 318.072 76.5084C318.072 76.0444 318.072 75.7084 318.072 75.5004C318.072 75.1644 318.072 74.7804 318.072 74.3484C318.072 73.9004 318.056 73.5084 318.024 73.1724ZM334.08 86.2284V89.3004H319.656V86.2284H334.08Z" fill="#555555"/>
<path d="M307.368 72.3322C307.592 72.6522 307.84 73.0282 308.112 73.4602C308.384 73.8922 308.64 74.3242 308.88 74.7562C309.136 75.1882 309.36 75.5882 309.552 75.9562L307.464 76.8922C307.24 76.3802 307.016 75.9242 306.792 75.5242C306.584 75.1242 306.368 74.7402 306.144 74.3722C305.92 73.9882 305.656 73.5882 305.352 73.1722L307.368 72.3322ZM310.512 71.0122C310.752 71.3322 311.008 71.7002 311.28 72.1162C311.568 72.5322 311.84 72.9562 312.096 73.3882C312.368 73.8042 312.592 74.1962 312.768 74.5642L310.752 75.5482C310.496 75.0362 310.248 74.5882 310.008 74.2042C309.784 73.8042 309.552 73.4282 309.312 73.0762C309.088 72.7082 308.824 72.3322 308.52 71.9482L310.512 71.0122ZM297.792 88.2442C297.792 87.9242 297.792 87.4202 297.792 86.7322C297.792 86.0282 297.792 85.2202 297.792 84.3082C297.792 83.3802 297.792 82.4202 297.792 81.4282C297.792 80.4202 297.792 79.4522 297.792 78.5242C297.792 77.5802 297.792 76.7482 297.792 76.0282C297.792 75.3082 297.792 74.7802 297.792 74.4442C297.792 74.0122 297.768 73.5242 297.72 72.9802C297.688 72.4362 297.632 71.9562 297.552 71.5402H301.296C301.248 71.9562 301.2 72.4202 301.152 72.9322C301.104 73.4442 301.08 73.9482 301.08 74.4442C301.08 74.8762 301.08 75.4762 301.08 76.2442C301.08 77.0122 301.08 77.8682 301.08 78.8122C301.08 79.7402 301.08 80.6922 301.08 81.6682C301.08 82.6442 301.08 83.5802 301.08 84.4762C301.08 85.3562 301.08 86.1322 301.08 86.8042C301.08 87.4602 301.08 87.9402 301.08 88.2442C301.08 88.4522 301.088 88.7642 301.104 89.1802C301.136 89.5802 301.168 89.9962 301.2 90.4282C301.248 90.8602 301.288 91.2442 301.32 91.5802H297.552C297.632 91.1162 297.688 90.5642 297.72 89.9242C297.768 89.2682 297.792 88.7082 297.792 88.2442ZM300.384 77.7562C301.184 77.9642 302.072 78.2362 303.048 78.5722C304.04 78.8922 305.04 79.2442 306.048 79.6282C307.056 79.9962 308.008 80.3642 308.904 80.7322C309.8 81.0842 310.536 81.4042 311.112 81.6922L309.768 85.0282C309.08 84.6602 308.328 84.3002 307.512 83.9482C306.696 83.5962 305.864 83.2522 305.016 82.9162C304.184 82.5642 303.368 82.2442 302.568 81.9562C301.768 81.6682 301.04 81.4202 300.384 81.2122V77.7562Z" fill="#555555"/>
<path d="M277.344 90.4764C276.016 90.4764 274.888 90.2684 273.96 89.8524C273.048 89.4364 272.36 88.8524 271.896 88.1004C271.432 87.3484 271.2 86.4924 271.2 85.5324C271.2 84.6524 271.4 83.8924 271.8 83.2524C272.216 82.6124 272.736 82.0444 273.36 81.5484C274 81.0524 274.68 80.6044 275.4 80.2044C276.12 79.8044 276.792 79.4124 277.416 79.0284C278.056 78.6284 278.576 78.1964 278.976 77.7324C279.392 77.2684 279.6 76.7404 279.6 76.1484C279.6 75.6204 279.448 75.1964 279.144 74.8764C278.856 74.5564 278.456 74.3964 277.944 74.3964C277.368 74.3964 276.912 74.5804 276.576 74.9484C276.24 75.3004 276.072 75.8124 276.072 76.4844C276.072 77.0284 276.24 77.6044 276.576 78.2124C276.912 78.8204 277.368 79.4444 277.944 80.0844C278.52 80.7084 279.16 81.3324 279.864 81.9564C280.568 82.5644 281.28 83.1644 282 83.7564C282.736 84.3324 283.424 84.8684 284.064 85.3644C284.768 85.9244 285.44 86.4124 286.08 86.8284C286.72 87.2284 287.232 87.5324 287.616 87.7404L286.056 90.4764C285.416 90.1084 284.768 89.7164 284.112 89.3004C283.472 88.8844 282.72 88.3084 281.856 87.5724C280.864 86.7404 279.856 85.8844 278.832 85.0044C277.824 84.1084 276.896 83.2044 276.048 82.2924C275.2 81.3644 274.52 80.4284 274.008 79.4844C273.496 78.5244 273.24 77.5644 273.24 76.6044C273.24 75.6604 273.44 74.8524 273.84 74.1804C274.24 73.5084 274.784 72.9884 275.472 72.6204C276.176 72.2524 276.968 72.0684 277.848 72.0684C279.208 72.0684 280.288 72.4204 281.088 73.1244C281.888 73.8284 282.288 74.7964 282.288 76.0284C282.288 76.8604 282.096 77.5884 281.712 78.2124C281.344 78.8364 280.856 79.3884 280.248 79.8684C279.64 80.3484 278.992 80.7964 278.304 81.2124C277.632 81.6284 276.992 82.0444 276.384 82.4604C275.792 82.8604 275.304 83.3004 274.92 83.7804C274.536 84.2604 274.344 84.8124 274.344 85.4364C274.344 86.2044 274.656 86.7884 275.28 87.1884C275.904 87.5884 276.696 87.7884 277.656 87.7884C278.408 87.7884 279.136 87.5484 279.84 87.0684C280.56 86.5724 281.216 85.9324 281.808 85.1484C282.336 84.4764 282.768 83.7484 283.104 82.9644C283.456 82.1644 283.696 81.2684 283.824 80.2764H286.944C286.704 81.4924 286.352 82.6284 285.888 83.6844C285.424 84.7404 284.84 85.7724 284.136 86.7804C283.32 87.9164 282.384 88.8204 281.328 89.4924C280.272 90.1484 278.944 90.4764 277.344 90.4764Z" fill="#555555"/>
<path d="M261.696 70.5321C261.904 70.8201 262.12 71.1641 262.344 71.5641C262.584 71.9641 262.816 72.3641 263.04 72.7641C263.264 73.1641 263.448 73.5161 263.592 73.8201L261.672 74.6361C261.432 74.1401 261.136 73.5801 260.784 72.9561C260.448 72.3161 260.12 71.7641 259.8 71.3001L261.696 70.5321ZM264.528 69.4521C264.736 69.7401 264.96 70.0921 265.2 70.5081C265.456 70.9081 265.696 71.3081 265.92 71.7081C266.16 72.0921 266.344 72.4281 266.472 72.7161L264.576 73.5321C264.32 73.0201 264.016 72.4521 263.664 71.8281C263.312 71.2041 262.968 70.6681 262.632 70.2201L264.528 69.4521ZM263.856 75.8121C263.712 76.0361 263.568 76.3081 263.424 76.6281C263.28 76.9321 263.16 77.2361 263.064 77.5401C262.856 78.2441 262.56 79.0521 262.176 79.9641C261.792 80.8601 261.328 81.7881 260.784 82.7481C260.24 83.7081 259.6 84.6441 258.864 85.5561C257.728 86.9321 256.392 88.1801 254.856 89.3001C253.336 90.4201 251.448 91.4281 249.192 92.3241L246.36 89.7801C247.992 89.2841 249.4 88.7321 250.584 88.1241C251.768 87.5001 252.8 86.8281 253.68 86.1081C254.56 85.3881 255.344 84.6281 256.032 83.8281C256.576 83.2041 257.08 82.5001 257.544 81.7161C258.024 80.9321 258.424 80.1481 258.744 79.3641C259.08 78.5801 259.312 77.8921 259.44 77.3001H251.352L252.456 74.5881C252.664 74.5881 253.008 74.5881 253.488 74.5881C253.968 74.5881 254.504 74.5881 255.096 74.5881C255.688 74.5881 256.272 74.5881 256.848 74.5881C257.44 74.5881 257.96 74.5881 258.408 74.5881C258.856 74.5881 259.152 74.5881 259.296 74.5881C259.68 74.5881 260.056 74.5641 260.424 74.5161C260.808 74.4521 261.128 74.3801 261.384 74.3001L263.856 75.8121ZM256.032 72.0201C255.744 72.4361 255.464 72.8841 255.192 73.3641C254.92 73.8441 254.712 74.2121 254.568 74.4681C254.024 75.4281 253.352 76.4281 252.552 77.4681C251.752 78.4921 250.848 79.4921 249.84 80.4681C248.848 81.4281 247.776 82.3081 246.624 83.1081L243.936 81.0921C244.992 80.4521 245.92 79.7881 246.72 79.1001C247.52 78.4121 248.216 77.7321 248.808 77.0601C249.4 76.3721 249.912 75.7161 250.344 75.0921C250.776 74.4521 251.136 73.8761 251.424 73.3641C251.616 73.0761 251.816 72.6921 252.024 72.2121C252.248 71.7161 252.408 71.2681 252.504 70.8681L256.032 72.0201Z" fill="#555555"/>
<path d="M231.12 75.9321C231.232 76.1881 231.376 76.5561 231.552 77.0361C231.744 77.5001 231.944 78.0041 232.152 78.5481C232.36 79.0761 232.544 79.5801 232.704 80.0601C232.864 80.5401 232.992 80.9161 233.088 81.1881L230.208 82.1961C230.144 81.8921 230.032 81.5081 229.872 81.0441C229.712 80.5801 229.536 80.0921 229.344 79.5801C229.152 79.0521 228.96 78.5481 228.768 78.0681C228.576 77.5881 228.408 77.1881 228.264 76.8681L231.12 75.9321ZM239.976 77.6841C239.848 78.0681 239.736 78.3961 239.64 78.6681C239.56 78.9401 239.48 79.1961 239.4 79.4361C239.096 80.6521 238.68 81.8681 238.152 83.0841C237.624 84.2841 236.952 85.4121 236.136 86.4681C235.016 87.9081 233.744 89.1321 232.32 90.1401C230.912 91.1321 229.504 91.8921 228.096 92.4201L225.576 89.8521C226.456 89.6121 227.384 89.2601 228.36 88.7961C229.336 88.3161 230.28 87.7401 231.192 87.0681C232.104 86.3961 232.888 85.6521 233.544 84.8361C234.088 84.1481 234.568 83.3641 234.984 82.4841C235.416 81.5881 235.768 80.6361 236.04 79.6281C236.328 78.6041 236.52 77.5961 236.616 76.6041L239.976 77.6841ZM225.552 77.2041C225.712 77.5081 225.888 77.9001 226.08 78.3801C226.288 78.8601 226.496 79.3641 226.704 79.8921C226.912 80.4201 227.112 80.9321 227.304 81.4281C227.512 81.9241 227.672 82.3401 227.784 82.6761L224.856 83.7801C224.76 83.4601 224.616 83.0441 224.424 82.5321C224.248 82.0201 224.048 81.4841 223.824 80.9241C223.6 80.3481 223.384 79.8201 223.176 79.3401C222.984 78.8601 222.816 78.4921 222.672 78.2361L225.552 77.2041Z" fill="#555555"/>
<path d="M200.352 71.7803C200.688 71.8283 201.088 71.8603 201.552 71.8763C202.016 71.8923 202.448 71.9003 202.848 71.9003C203.152 71.9003 203.616 71.9003 204.24 71.9003C204.88 71.9003 205.584 71.9003 206.352 71.9003C207.136 71.9003 207.912 71.9003 208.68 71.9003C209.448 71.9003 210.136 71.9003 210.744 71.9003C211.352 71.9003 211.8 71.9003 212.088 71.9003C212.456 71.9003 212.896 71.8923 213.408 71.8763C213.92 71.8603 214.344 71.8283 214.68 71.7803V74.8763C214.36 74.8443 213.944 74.8283 213.432 74.8283C212.936 74.8123 212.472 74.8043 212.04 74.8043C211.784 74.8043 211.344 74.8043 210.72 74.8043C210.112 74.8043 209.416 74.8043 208.632 74.8043C207.864 74.8043 207.088 74.8043 206.304 74.8043C205.536 74.8043 204.84 74.8043 204.216 74.8043C203.592 74.8043 203.136 74.8043 202.848 74.8043C202.464 74.8043 202.04 74.8123 201.576 74.8283C201.128 74.8443 200.72 74.8603 200.352 74.8763V71.7803ZM216.696 78.7403C216.616 78.9003 216.528 79.0763 216.432 79.2683C216.352 79.4603 216.288 79.6203 216.24 79.7483C215.872 80.9003 215.408 82.0523 214.848 83.2043C214.304 84.3403 213.584 85.4043 212.688 86.3963C211.488 87.7403 210.144 88.8363 208.656 89.6843C207.168 90.5163 205.656 91.1483 204.12 91.5803L201.744 88.8683C203.552 88.4843 205.16 87.9243 206.568 87.1883C207.976 86.4523 209.136 85.6123 210.048 84.6683C210.688 84.0123 211.2 83.3243 211.584 82.6043C211.984 81.8683 212.296 81.1723 212.52 80.5163C212.344 80.5163 212.04 80.5163 211.608 80.5163C211.176 80.5163 210.656 80.5163 210.048 80.5163C209.456 80.5163 208.816 80.5163 208.128 80.5163C207.44 80.5163 206.736 80.5163 206.016 80.5163C205.296 80.5163 204.608 80.5163 203.952 80.5163C203.296 80.5163 202.704 80.5163 202.176 80.5163C201.664 80.5163 201.248 80.5163 200.928 80.5163C200.64 80.5163 200.232 80.5243 199.704 80.5403C199.176 80.5563 198.656 80.5883 198.144 80.6363V77.5163C198.656 77.5483 199.152 77.5803 199.632 77.6123C200.128 77.6443 200.56 77.6603 200.928 77.6603C201.168 77.6603 201.528 77.6603 202.008 77.6603C202.504 77.6603 203.072 77.6603 203.712 77.6603C204.352 77.6603 205.032 77.6603 205.752 77.6603C206.488 77.6603 207.216 77.6603 207.936 77.6603C208.672 77.6603 209.368 77.6603 210.024 77.6603C210.68 77.6603 211.248 77.6603 211.728 77.6603C212.208 77.6603 212.568 77.6603 212.808 77.6603C213.192 77.6603 213.536 77.6363 213.84 77.5883C214.16 77.5403 214.4 77.4843 214.56 77.4203L216.696 78.7403Z" fill="#555555"/>
<path d="M187.368 72.3322C187.592 72.6522 187.84 73.0282 188.112 73.4602C188.384 73.8922 188.64 74.3242 188.88 74.7562C189.136 75.1882 189.36 75.5882 189.552 75.9562L187.464 76.8922C187.24 76.3802 187.016 75.9242 186.792 75.5242C186.584 75.1242 186.368 74.7402 186.144 74.3722C185.92 73.9882 185.656 73.5882 185.352 73.1722L187.368 72.3322ZM190.512 71.0122C190.752 71.3322 191.008 71.7002 191.28 72.1162C191.568 72.5322 191.84 72.9562 192.096 73.3882C192.368 73.8042 192.592 74.1962 192.768 74.5642L190.752 75.5482C190.496 75.0362 190.248 74.5882 190.008 74.2042C189.784 73.8042 189.552 73.4282 189.312 73.0762C189.088 72.7082 188.824 72.3322 188.52 71.9482L190.512 71.0122ZM177.792 88.2442C177.792 87.9242 177.792 87.4202 177.792 86.7322C177.792 86.0282 177.792 85.2202 177.792 84.3082C177.792 83.3802 177.792 82.4202 177.792 81.4282C177.792 80.4202 177.792 79.4522 177.792 78.5242C177.792 77.5802 177.792 76.7482 177.792 76.0282C177.792 75.3082 177.792 74.7802 177.792 74.4442C177.792 74.0122 177.768 73.5242 177.72 72.9802C177.688 72.4362 177.632 71.9562 177.552 71.5402H181.296C181.248 71.9562 181.2 72.4202 181.152 72.9322C181.104 73.4442 181.08 73.9482 181.08 74.4442C181.08 74.8762 181.08 75.4762 181.08 76.2442C181.08 77.0122 181.08 77.8682 181.08 78.8122C181.08 79.7402 181.08 80.6922 181.08 81.6682C181.08 82.6442 181.08 83.5802 181.08 84.4762C181.08 85.3562 181.08 86.1322 181.08 86.8042C181.08 87.4602 181.08 87.9402 181.08 88.2442C181.08 88.4522 181.088 88.7642 181.104 89.1802C181.136 89.5802 181.168 89.9962 181.2 90.4282C181.248 90.8602 181.288 91.2442 181.32 91.5802H177.552C177.632 91.1162 177.688 90.5642 177.72 89.9242C177.768 89.2682 177.792 88.7082 177.792 88.2442ZM180.384 77.7562C181.184 77.9642 182.072 78.2362 183.048 78.5722C184.04 78.8922 185.04 79.2442 186.048 79.6282C187.056 79.9962 188.008 80.3642 188.904 80.7322C189.8 81.0842 190.536 81.4042 191.112 81.6922L189.768 85.0282C189.08 84.6602 188.328 84.3002 187.512 83.9482C186.696 83.5962 185.864 83.2522 185.016 82.9162C184.184 82.5642 183.368 82.2442 182.568 81.9562C181.768 81.6682 181.04 81.4202 180.384 81.2122V77.7562Z" fill="#555555"/>
<path d="M158.664 70.9403C158.584 71.3723 158.456 71.9323 158.28 72.6203C158.104 73.3083 157.848 74.0843 157.512 74.9483C157.256 75.5403 156.96 76.1563 156.624 76.7963C156.304 77.4203 155.976 77.9803 155.64 78.4763C155.848 78.3803 156.112 78.3003 156.432 78.2363C156.752 78.1563 157.08 78.1003 157.416 78.0683C157.768 78.0203 158.08 77.9963 158.352 77.9963C159.36 77.9963 160.192 78.2843 160.848 78.8603C161.52 79.4363 161.856 80.2923 161.856 81.4283C161.856 81.7483 161.856 82.1403 161.856 82.6043C161.872 83.0683 161.888 83.5563 161.904 84.0683C161.92 84.5643 161.936 85.0523 161.952 85.5323C161.968 86.0123 161.976 86.4443 161.976 86.8283H159.096C159.128 86.5563 159.144 86.2363 159.144 85.8683C159.16 85.4843 159.168 85.0843 159.168 84.6683C159.184 84.2523 159.192 83.8523 159.192 83.4683C159.208 83.0683 159.216 82.7083 159.216 82.3883C159.216 81.6203 159.008 81.0923 158.592 80.8043C158.192 80.5003 157.744 80.3483 157.248 80.3483C156.576 80.3483 155.896 80.5163 155.208 80.8523C154.536 81.1723 153.968 81.5563 153.504 82.0043C153.152 82.3563 152.792 82.7483 152.424 83.1803C152.072 83.6123 151.688 84.1003 151.272 84.6443L148.704 82.7243C149.744 81.7643 150.64 80.8363 151.392 79.9403C152.16 79.0443 152.808 78.1563 153.336 77.2763C153.864 76.3963 154.296 75.5163 154.632 74.6363C154.872 73.9963 155.064 73.3323 155.208 72.6443C155.368 71.9403 155.464 71.2843 155.496 70.6763L158.664 70.9403ZM149.64 73.1483C150.248 73.2443 150.952 73.3163 151.752 73.3643C152.552 73.4123 153.256 73.4363 153.864 73.4363C154.92 73.4363 156.072 73.4123 157.32 73.3643C158.584 73.3163 159.864 73.2363 161.16 73.1243C162.456 72.9963 163.688 72.8363 164.856 72.6443L164.832 75.4283C163.984 75.5403 163.064 75.6443 162.072 75.7403C161.096 75.8203 160.096 75.8923 159.072 75.9563C158.064 76.0043 157.096 76.0443 156.168 76.0763C155.24 76.0923 154.416 76.1003 153.696 76.1003C153.376 76.1003 152.976 76.1003 152.496 76.1003C152.032 76.0843 151.552 76.0683 151.056 76.0523C150.56 76.0203 150.088 75.9883 149.64 75.9563V73.1483ZM168.648 79.9643C168.392 80.0443 168.088 80.1483 167.736 80.2763C167.4 80.3883 167.056 80.5083 166.704 80.6363C166.368 80.7483 166.064 80.8603 165.792 80.9723C165.024 81.2763 164.112 81.6443 163.056 82.0763C162.016 82.5083 160.928 83.0123 159.792 83.5883C159.072 83.9723 158.464 84.3483 157.968 84.7163C157.472 85.0843 157.096 85.4603 156.84 85.8443C156.584 86.2123 156.456 86.6203 156.456 87.0683C156.456 87.4043 156.528 87.6843 156.672 87.9083C156.816 88.1163 157.032 88.2843 157.32 88.4123C157.608 88.5403 157.968 88.6283 158.4 88.6763C158.832 88.7243 159.344 88.7483 159.936 88.7483C160.96 88.7483 162.088 88.6923 163.32 88.5803C164.552 88.4523 165.696 88.2843 166.752 88.0763L166.656 91.1723C166.144 91.2363 165.496 91.3003 164.712 91.3643C163.928 91.4443 163.112 91.5003 162.264 91.5323C161.432 91.5643 160.632 91.5803 159.864 91.5803C158.616 91.5803 157.496 91.4603 156.504 91.2203C155.512 90.9803 154.728 90.5723 154.152 89.9963C153.592 89.4043 153.312 88.5963 153.312 87.5723C153.312 86.7403 153.496 85.9883 153.864 85.3163C154.248 84.6443 154.752 84.0363 155.376 83.4923C156 82.9483 156.68 82.4603 157.416 82.0283C158.168 81.5803 158.904 81.1723 159.624 80.8043C160.36 80.4203 161.024 80.0923 161.616 79.8203C162.208 79.5483 162.76 79.3083 163.272 79.1003C163.8 78.8763 164.304 78.6523 164.784 78.4283C165.248 78.2203 165.696 78.0203 166.128 77.8283C166.56 77.6203 167 77.4043 167.448 77.1803L168.648 79.9643Z" fill="#555555"/>
<path d="M135.072 89.6601C135.12 89.4201 135.16 89.1481 135.192 88.8441C135.24 88.5241 135.264 88.2041 135.264 87.8841C135.264 87.7081 135.264 87.3561 135.264 86.8281C135.264 86.3001 135.264 85.6601 135.264 84.9081C135.264 84.1561 135.264 83.3481 135.264 82.4841C135.264 81.6041 135.264 80.7161 135.264 79.8201C135.264 78.9241 135.264 78.0841 135.264 77.3001C135.264 76.5001 135.264 75.8041 135.264 75.2121C135.264 74.6041 135.264 74.1641 135.264 73.8921C135.264 73.3481 135.232 72.8761 135.168 72.4761C135.12 72.0761 135.088 71.8601 135.072 71.8281H138.648C138.632 71.8601 138.6 72.0841 138.552 72.5001C138.504 72.9001 138.48 73.3721 138.48 73.9161C138.48 74.1881 138.48 74.5961 138.48 75.1401C138.48 75.6681 138.48 76.2841 138.48 76.9881C138.48 77.6761 138.48 78.4121 138.48 79.1961C138.48 79.9801 138.48 80.7561 138.48 81.5241C138.48 82.2761 138.48 82.9961 138.48 83.6841C138.48 84.3561 138.48 84.9321 138.48 85.4121C138.48 85.8921 138.48 86.2441 138.48 86.4681C139.136 86.1801 139.816 85.7881 140.52 85.2921C141.224 84.7961 141.912 84.2201 142.584 83.5641C143.272 82.8921 143.88 82.1721 144.408 81.4041L146.256 84.0441C145.6 84.9081 144.8 85.7561 143.856 86.5881C142.928 87.4201 141.968 88.1801 140.976 88.8681C139.984 89.5561 139.032 90.1321 138.12 90.5961C137.864 90.7401 137.656 90.8681 137.496 90.9801C137.336 91.1081 137.2 91.2201 137.088 91.3161L135.072 89.6601ZM123.96 89.3001C125.016 88.5641 125.88 87.6761 126.552 86.6361C127.224 85.5961 127.72 84.5721 128.04 83.5641C128.216 83.0361 128.344 82.3881 128.424 81.6201C128.52 80.8361 128.592 80.0041 128.64 79.1241C128.688 78.2281 128.712 77.3481 128.712 76.4841C128.728 75.6041 128.736 74.7961 128.736 74.0601C128.736 73.5801 128.712 73.1721 128.664 72.8361C128.632 72.4841 128.584 72.1561 128.52 71.8521H132.048C132.032 71.8841 132.008 72.0201 131.976 72.2601C131.96 72.4841 131.936 72.7561 131.904 73.0761C131.888 73.3801 131.88 73.7001 131.88 74.0361C131.88 74.7401 131.872 75.5641 131.856 76.5081C131.84 77.4361 131.808 78.3881 131.76 79.3641C131.712 80.3401 131.64 81.2681 131.544 82.1481C131.448 83.0121 131.32 83.7481 131.16 84.3561C130.792 85.7161 130.24 86.9801 129.504 88.1481C128.784 89.3001 127.912 90.3321 126.888 91.2441L123.96 89.3001Z" fill="#555555"/>
<path d="M100.488 80.8521C102.648 80.2921 104.6 79.6441 106.344 78.9081C108.104 78.1561 109.648 77.3721 110.976 76.5561C111.808 76.0441 112.64 75.4601 113.472 74.8041C114.32 74.1321 115.112 73.4441 115.848 72.7401C116.6 72.0361 117.232 71.3641 117.744 70.7241L120.336 73.1961C119.6 73.9161 118.792 74.6441 117.912 75.3801C117.048 76.1161 116.144 76.8201 115.2 77.4921C114.256 78.1641 113.32 78.7801 112.392 79.3401C111.48 79.8681 110.456 80.4121 109.32 80.9721C108.2 81.5321 107.016 82.0601 105.768 82.5561C104.52 83.0521 103.264 83.4921 102 83.8761L100.488 80.8521ZM110.472 78.0921L113.88 77.3001V88.1001C113.88 88.4521 113.888 88.8361 113.904 89.2521C113.92 89.6681 113.944 90.0521 113.976 90.4041C114.008 90.7721 114.048 91.0521 114.096 91.2441H110.304C110.336 91.0521 110.36 90.7721 110.376 90.4041C110.408 90.0521 110.432 89.6681 110.448 89.2521C110.464 88.8361 110.472 88.4521 110.472 88.1001V78.0921Z" fill="#555555"/>
<path d="M96.3359 78.2121C96.2239 78.3401 96.0959 78.5001 95.9519 78.6921C95.8079 78.8841 95.6959 79.0441 95.6159 79.1721C95.4079 79.5081 95.1199 79.9241 94.7519 80.4201C94.3999 80.9161 93.9999 81.4521 93.5519 82.0281C93.1039 82.5881 92.6479 83.1161 92.1839 83.6121C91.7199 84.1081 91.2719 84.5241 90.8399 84.8601L88.4399 83.1801C88.8879 82.8601 89.3439 82.4841 89.8079 82.0521C90.2719 81.6201 90.6879 81.1801 91.0559 80.7321C91.4239 80.2681 91.7039 79.8681 91.8959 79.5321C91.7039 79.5321 91.3439 79.5321 90.8159 79.5321C90.2879 79.5321 89.6639 79.5321 88.9439 79.5321C88.2399 79.5321 87.4959 79.5321 86.7119 79.5321C85.9279 79.5321 85.1759 79.5321 84.4559 79.5321C83.7359 79.5321 83.1119 79.5321 82.5839 79.5321C82.0559 79.5321 81.6879 79.5321 81.4799 79.5321C81.0799 79.5321 80.6719 79.5481 80.2559 79.5801C79.8559 79.5961 79.4319 79.6281 78.9839 79.6761V76.5801C79.3679 76.6441 79.7759 76.6921 80.2079 76.7241C80.6559 76.7561 81.0799 76.7721 81.4799 76.7721C81.6879 76.7721 82.0719 76.7721 82.6319 76.7721C83.2079 76.7721 83.8879 76.7721 84.6719 76.7721C85.4559 76.7721 86.2719 76.7721 87.1199 76.7721C87.9679 76.7721 88.7759 76.7721 89.5439 76.7721C90.3119 76.7721 90.9679 76.7721 91.5119 76.7721C92.0719 76.7721 92.4399 76.7721 92.6159 76.7721C92.7919 76.7721 93.0079 76.7641 93.2639 76.7481C93.5199 76.7321 93.7679 76.7161 94.0079 76.7001C94.2639 76.6681 94.4479 76.6361 94.5599 76.6041L96.3359 78.2121ZM88.1039 80.7321C88.0719 81.6281 88.0319 82.5161 87.9839 83.3961C87.9359 84.2601 87.8159 85.1081 87.6239 85.9401C87.4479 86.7561 87.1599 87.5561 86.7599 88.3401C86.3599 89.1081 85.7999 89.8361 85.0799 90.5241C84.3759 91.2281 83.4639 91.8921 82.3439 92.5161L79.7999 90.4761C80.1199 90.3481 80.4319 90.2121 80.7359 90.0681C81.0559 89.9081 81.3919 89.7001 81.7439 89.4441C82.6559 88.8201 83.3439 88.1641 83.8079 87.4761C84.2719 86.7721 84.5759 86.0121 84.7199 85.1961C84.8799 84.3641 84.9599 83.4441 84.9599 82.4361C84.9599 82.1481 84.9439 81.8601 84.9119 81.5721C84.8799 81.2681 84.8399 80.9881 84.7919 80.7321H88.1039Z" fill="#555555"/>
<path d="M72.3361 74.2044C72.2241 74.4284 72.1201 74.7004 72.0241 75.0204C71.9441 75.3244 71.8721 75.6124 71.8081 75.8844C71.6801 76.4604 71.5121 77.1164 71.3041 77.8524C71.0961 78.5884 70.8481 79.3484 70.5601 80.1324C70.2721 80.9164 69.9281 81.6924 69.5281 82.4604C69.1441 83.2284 68.7041 83.9484 68.2081 84.6204C67.4881 85.5644 66.6481 86.4604 65.6881 87.3084C64.7281 88.1404 63.6561 88.8924 62.4721 89.5644C61.2881 90.2204 59.9841 90.7804 58.5601 91.2444L55.9441 88.3884C57.5281 88.0044 58.8961 87.5324 60.0481 86.9724C61.2161 86.3964 62.2321 85.7564 63.0961 85.0524C63.9601 84.3324 64.7121 83.5644 65.3521 82.7484C65.8801 82.0764 66.3281 81.3484 66.6961 80.5644C67.0801 79.7804 67.3921 78.9884 67.6321 78.1884C67.8881 77.3884 68.0641 76.6524 68.1601 75.9804C67.9201 75.9804 67.5201 75.9804 66.9601 75.9804C66.4161 75.9804 65.7681 75.9804 65.0161 75.9804C64.2801 75.9804 63.5041 75.9804 62.6881 75.9804C61.8881 75.9804 61.1121 75.9804 60.3601 75.9804C59.6081 75.9804 58.9281 75.9804 58.3201 75.9804C57.7281 75.9804 57.2801 75.9804 56.9761 75.9804C56.4321 75.9804 55.8961 75.9884 55.3681 76.0044C54.8561 76.0204 54.4401 76.0444 54.1201 76.0764V72.6924C54.3761 72.7084 54.6721 72.7324 55.0081 72.7644C55.3441 72.7964 55.6961 72.8284 56.0641 72.8604C56.4321 72.8764 56.7441 72.8844 57.0001 72.8844C57.2401 72.8844 57.6001 72.8844 58.0801 72.8844C58.5601 72.8844 59.1121 72.8844 59.7361 72.8844C60.3601 72.8844 61.0081 72.8844 61.6801 72.8844C62.3681 72.8844 63.0481 72.8844 63.7201 72.8844C64.3921 72.8844 65.0241 72.8844 65.6161 72.8844C66.2081 72.8844 66.7201 72.8844 67.1521 72.8844C67.6001 72.8844 67.9121 72.8844 68.0881 72.8844C68.3281 72.8844 68.6241 72.8764 68.9761 72.8604C69.3281 72.8284 69.6561 72.7724 69.9601 72.6924L72.3361 74.2044Z" fill="#555555"/>
<path d="M0 182C0 173.163 7.16344 166 16 166H564C572.837 166 580 173.163 580 182V216C580 224.837 572.837 232 564 232H16C7.16345 232 0 224.837 0 216V182Z" fill="#DEECF9"/>
<path d="M564 229V232H16V229H564ZM577 216V182C577 174.82 571.18 169 564 169H16C8.8203 169 3 174.82 3 182V216C3 223.18 8.8203 229 16 229V232C7.30156 232 0.223981 225.059 0.00488281 216.413L0 216V182C2.53692e-07 173.302 6.94127 166.224 15.5869 166.005L16 166H564L564.413 166.005C573.059 166.224 580 173.302 580 182V216L579.995 216.413C579.776 225.059 572.698 232 564 232V229C571.18 229 577 223.18 577 216Z" fill="#106EBE"/>
<path d="M68 212H218.909V213.2H68V212ZM224.184 212H329.409V213.2H224.184V212ZM334.7 212H337.355V213.2H334.7V212Z" fill="#555555"/>
<path d="M336.395 202.424C336.395 203.704 336.267 204.96 336.011 206.192C335.771 207.424 335.387 208.592 334.859 209.696C334.347 210.816 333.683 211.848 332.867 212.792H330.611C331.347 211.784 331.963 210.712 332.459 209.576C332.955 208.456 333.323 207.288 333.563 206.072C333.819 204.856 333.947 203.632 333.947 202.4C333.947 201.136 333.819 199.888 333.563 198.656C333.323 197.424 332.955 196.232 332.459 195.08C331.963 193.928 331.339 192.856 330.587 191.864H332.867C333.683 192.824 334.347 193.872 334.859 195.008C335.387 196.144 335.771 197.336 336.011 198.584C336.267 199.832 336.395 201.112 336.395 202.424Z" fill="#555555"/>
<path d="M321.413 191.864C322.869 191.864 324.085 192 325.061 192.272C326.053 192.544 326.797 193 327.293 193.64C327.805 194.264 328.061 195.096 328.061 196.136C328.061 196.808 327.941 197.408 327.701 197.936C327.461 198.448 327.109 198.88 326.645 199.232C326.197 199.568 325.637 199.792 324.965 199.904V200.024C325.653 200.136 326.269 200.344 326.813 200.648C327.357 200.936 327.789 201.36 328.109 201.92C328.429 202.48 328.589 203.208 328.589 204.104C328.589 205.144 328.341 206.032 327.845 206.768C327.365 207.488 326.669 208.04 325.757 208.424C324.861 208.808 323.789 209 322.541 209H316.397V191.864H321.413ZM321.845 199.016C323.189 199.016 324.109 198.8 324.605 198.368C325.117 197.936 325.373 197.296 325.373 196.448C325.373 195.584 325.069 194.968 324.461 194.6C323.853 194.232 322.885 194.048 321.557 194.048H318.989V199.016H321.845ZM318.989 201.128V206.84H322.133C323.525 206.84 324.493 206.568 325.037 206.024C325.581 205.48 325.853 204.76 325.853 203.864C325.853 203.32 325.733 202.84 325.493 202.424C325.253 202.008 324.845 201.688 324.269 201.464C323.709 201.24 322.941 201.128 321.965 201.128H318.989Z" fill="#555555"/>
<path d="M314.121 209H311.121L305.505 201.104L303.825 202.496V209H301.233V191.864H303.825V200.144C304.241 199.648 304.657 199.16 305.073 198.68C305.489 198.2 305.905 197.72 306.321 197.24L310.953 191.864H313.929L307.377 199.352L314.121 209Z" fill="#555555"/>
<path d="M291.987 198.368C293.123 198.368 294.115 198.568 294.963 198.968C295.811 199.368 296.467 199.944 296.931 200.696C297.411 201.448 297.651 202.368 297.651 203.456C297.651 204.656 297.395 205.688 296.883 206.552C296.371 207.416 295.627 208.08 294.651 208.544C293.691 209.008 292.515 209.24 291.123 209.24C290.243 209.24 289.411 209.16 288.627 209C287.843 208.84 287.179 208.608 286.635 208.304V205.976C287.211 206.312 287.907 206.584 288.723 206.792C289.555 207 290.347 207.104 291.099 207.104C291.915 207.104 292.611 206.984 293.187 206.744C293.779 206.488 294.235 206.112 294.555 205.616C294.891 205.104 295.059 204.464 295.059 203.696C295.059 202.656 294.731 201.864 294.075 201.32C293.435 200.76 292.419 200.48 291.027 200.48C290.579 200.48 290.075 200.52 289.515 200.6C288.971 200.68 288.531 200.76 288.195 200.84L287.019 200.144L287.667 191.864H296.475V194.12H289.875L289.491 198.608C289.763 198.56 290.107 198.512 290.523 198.464C290.939 198.4 291.427 198.368 291.987 198.368Z" fill="#555555"/>
<path d="M284.756 205.208H282.38V209H279.908V205.208H271.964V203.192L279.86 191.792H282.38V203.048H284.756V205.208ZM279.908 198.392C279.908 198.008 279.908 197.64 279.908 197.288C279.924 196.936 279.94 196.6 279.956 196.28C279.972 195.944 279.98 195.64 279.98 195.368C279.996 195.08 280.012 194.824 280.028 194.6H279.932C279.804 194.92 279.644 195.248 279.452 195.584C279.276 195.92 279.092 196.216 278.9 196.472L274.364 203.048H279.908V198.392Z" fill="#555555"/>
<path d="M266.554 207.584C266.554 206.96 266.714 206.52 267.034 206.264C267.354 206.008 267.738 205.88 268.186 205.88C268.65 205.88 269.042 206.008 269.362 206.264C269.682 206.52 269.842 206.96 269.842 207.584C269.842 208.208 269.682 208.656 269.362 208.928C269.042 209.2 268.65 209.336 268.186 209.336C267.738 209.336 267.354 209.2 267.034 208.928C266.714 208.656 266.554 208.208 266.554 207.584Z" fill="#555555"/>
<path d="M263.14 195.824C263.14 196.592 262.988 197.264 262.684 197.84C262.396 198.4 261.98 198.856 261.436 199.208C260.892 199.56 260.268 199.816 259.564 199.976V200.072C260.94 200.232 261.964 200.664 262.636 201.368C263.324 202.056 263.668 202.968 263.668 204.104C263.668 205.096 263.428 205.984 262.948 206.768C262.484 207.536 261.756 208.144 260.764 208.592C259.788 209.024 258.532 209.24 256.996 209.24C256.084 209.24 255.236 209.168 254.452 209.024C253.668 208.88 252.924 208.64 252.22 208.304V206C252.94 206.368 253.708 206.648 254.524 206.84C255.356 207.032 256.148 207.128 256.9 207.128C258.356 207.128 259.404 206.856 260.044 206.312C260.684 205.752 261.004 204.976 261.004 203.984C261.004 203.344 260.836 202.824 260.5 202.424C260.164 202.008 259.652 201.704 258.964 201.512C258.276 201.304 257.42 201.2 256.396 201.2H254.836V199.112H256.42C257.396 199.112 258.188 198.992 258.796 198.752C259.404 198.496 259.852 198.144 260.14 197.696C260.428 197.248 260.572 196.736 260.572 196.16C260.572 195.392 260.316 194.8 259.804 194.384C259.308 193.952 258.588 193.736 257.644 193.736C257.068 193.736 256.532 193.8 256.036 193.928C255.556 194.056 255.116 194.224 254.716 194.432C254.316 194.64 253.924 194.872 253.54 195.128L252.292 193.376C252.724 193.056 253.204 192.76 253.732 192.488C254.276 192.216 254.876 192.008 255.532 191.864C256.204 191.704 256.932 191.624 257.716 191.624C259.492 191.624 260.836 192.016 261.748 192.8C262.676 193.568 263.14 194.576 263.14 195.824Z" fill="#555555"/>
<path d="M250.077 209H238.557V207.032L242.973 202.544C243.837 201.664 244.557 200.904 245.133 200.264C245.709 199.608 246.141 198.984 246.429 198.392C246.717 197.784 246.861 197.128 246.861 196.424C246.861 195.544 246.605 194.888 246.093 194.456C245.581 194.008 244.917 193.784 244.101 193.784C243.317 193.784 242.613 193.936 241.989 194.24C241.365 194.528 240.717 194.936 240.045 195.464L238.677 193.76C239.141 193.36 239.637 193 240.165 192.68C240.709 192.36 241.309 192.104 241.965 191.912C242.637 191.72 243.373 191.624 244.173 191.624C245.261 191.624 246.197 191.816 246.981 192.2C247.765 192.568 248.365 193.096 248.781 193.784C249.213 194.472 249.429 195.28 249.429 196.208C249.429 196.896 249.325 197.544 249.117 198.152C248.909 198.744 248.605 199.328 248.205 199.904C247.821 200.48 247.349 201.064 246.789 201.656C246.229 202.248 245.613 202.872 244.941 203.528L241.749 206.624V206.744H250.077V209Z" fill="#555555"/>
<path d="M232.647 209H230.127V197.624C230.127 197.224 230.127 196.856 230.127 196.52C230.143 196.168 230.159 195.832 230.175 195.512C230.191 195.176 230.207 194.856 230.223 194.552C230.015 194.76 229.799 194.96 229.575 195.152C229.351 195.344 229.095 195.568 228.807 195.824L226.935 197.336L225.639 195.704L230.535 191.864H232.647V209Z" fill="#555555"/>
<path d="M217.202 202.424C217.202 201.112 217.322 199.832 217.562 198.584C217.818 197.336 218.21 196.144 218.738 195.008C219.266 193.872 219.93 192.824 220.73 191.864H223.01C222.274 192.856 221.65 193.928 221.138 195.08C220.642 196.232 220.266 197.424 220.01 198.656C219.754 199.888 219.626 201.136 219.626 202.4C219.626 203.632 219.754 204.856 220.01 206.072C220.266 207.288 220.642 208.456 221.138 209.576C221.634 210.712 222.25 211.784 222.986 212.792H220.73C219.93 211.848 219.266 210.816 218.738 209.696C218.21 208.592 217.818 207.424 217.562 206.192C217.322 204.96 217.202 203.704 217.202 202.424Z" fill="#555555"/>
<path d="M208.155 202.4L203.763 196.064H206.667L209.739 200.72L212.811 196.064H215.691L211.299 202.4L215.907 209H213.027L209.739 204.056L206.427 209H203.547L208.155 202.4Z" fill="#555555"/>
<path d="M202.17 205.352C202.17 206.2 201.962 206.912 201.546 207.488C201.13 208.064 200.53 208.504 199.746 208.808C198.962 209.096 198.018 209.24 196.914 209.24C196.002 209.24 195.218 209.168 194.562 209.024C193.922 208.896 193.33 208.704 192.786 208.448V206.216C193.362 206.488 194.026 206.736 194.778 206.96C195.53 207.168 196.266 207.272 196.986 207.272C197.946 207.272 198.634 207.12 199.05 206.816C199.482 206.512 199.698 206.104 199.698 205.592C199.698 205.304 199.618 205.048 199.458 204.824C199.298 204.584 198.994 204.344 198.546 204.104C198.114 203.848 197.474 203.56 196.626 203.24C195.81 202.904 195.114 202.576 194.538 202.256C193.962 201.92 193.522 201.528 193.218 201.08C192.914 200.616 192.762 200.024 192.762 199.304C192.762 198.184 193.21 197.328 194.106 196.736C195.018 196.128 196.218 195.824 197.706 195.824C198.49 195.824 199.226 195.904 199.914 196.064C200.618 196.208 201.298 196.432 201.954 196.736L201.114 198.68C200.746 198.504 200.362 198.36 199.962 198.248C199.578 198.12 199.186 198.016 198.786 197.936C198.402 197.856 198.002 197.816 197.586 197.816C196.818 197.816 196.234 197.936 195.834 198.176C195.434 198.416 195.234 198.752 195.234 199.184C195.234 199.488 195.322 199.752 195.498 199.976C195.69 200.2 196.018 200.424 196.482 200.648C196.946 200.872 197.578 201.144 198.378 201.464C199.178 201.768 199.858 202.08 200.418 202.4C200.994 202.72 201.426 203.112 201.714 203.576C202.018 204.04 202.17 204.632 202.17 205.352Z" fill="#555555"/>
<path d="M189.583 209H187.039V190.76H189.583V209Z" fill="#555555"/>
<path d="M176.96 202.4L172.568 196.064H175.472L178.544 200.72L181.616 196.064H184.496L180.104 202.4L184.712 209H181.832L178.544 204.056L175.232 209H172.352L176.96 202.4Z" fill="#555555"/>
<path d="M167.085 207.584C167.085 206.96 167.245 206.52 167.565 206.264C167.885 206.008 168.269 205.88 168.717 205.88C169.181 205.88 169.573 206.008 169.893 206.264C170.213 206.52 170.373 206.96 170.373 207.584C170.373 208.208 170.213 208.656 169.893 208.928C169.573 209.2 169.181 209.336 168.717 209.336C168.269 209.336 167.885 209.2 167.565 208.928C167.245 208.656 167.085 208.208 167.085 207.584Z" fill="#555555"/>
<path d="M158.799 195.824C159.935 195.824 160.911 196.064 161.727 196.544C162.543 197.008 163.167 197.68 163.599 198.56C164.047 199.44 164.271 200.48 164.271 201.68V203.072H155.583C155.615 204.4 155.959 205.416 156.615 206.12C157.287 206.824 158.223 207.176 159.423 207.176C160.255 207.176 160.991 207.104 161.631 206.96C162.287 206.8 162.959 206.568 163.647 206.264V208.376C163.007 208.664 162.351 208.88 161.679 209.024C161.023 209.168 160.239 209.24 159.327 209.24C158.079 209.24 156.975 208.992 156.015 208.496C155.055 208 154.303 207.264 153.759 206.288C153.231 205.296 152.967 204.08 152.967 202.64C152.967 201.184 153.207 199.952 153.687 198.944C154.183 197.936 154.863 197.168 155.727 196.64C156.607 196.096 157.631 195.824 158.799 195.824ZM158.799 197.792C157.887 197.792 157.151 198.088 156.591 198.68C156.047 199.272 155.727 200.112 155.631 201.2H161.727C161.727 200.528 161.623 199.936 161.415 199.424C161.207 198.912 160.887 198.512 160.455 198.224C160.023 197.936 159.471 197.792 158.799 197.792Z" fill="#555555"/>
<path d="M149.716 209H147.172V190.76H149.716V209Z" fill="#555555"/>
<path d="M143.177 196.064V209H140.633V196.064H143.177ZM141.929 191.144C142.313 191.144 142.649 191.256 142.937 191.48C143.225 191.704 143.369 192.08 143.369 192.608C143.369 193.12 143.225 193.496 142.937 193.736C142.649 193.96 142.313 194.072 141.929 194.072C141.513 194.072 141.161 193.96 140.873 193.736C140.601 193.496 140.465 193.12 140.465 192.608C140.465 192.08 140.601 191.704 140.873 191.48C141.161 191.256 141.513 191.144 141.929 191.144Z" fill="#555555"/>
<path d="M130.809 209H128.241V191.864H137.889V194.072H130.809V199.664H137.433V201.872H130.809V209Z" fill="#555555"/>
<path d="M123.958 209H121.414V190.76H123.958V209Z" fill="#555555"/>
<path d="M112.768 195.824C113.904 195.824 114.88 196.064 115.696 196.544C116.512 197.008 117.136 197.68 117.568 198.56C118.016 199.44 118.24 200.48 118.24 201.68V203.072H109.552C109.584 204.4 109.928 205.416 110.584 206.12C111.256 206.824 112.192 207.176 113.392 207.176C114.224 207.176 114.96 207.104 115.6 206.96C116.256 206.8 116.928 206.568 117.616 206.264V208.376C116.976 208.664 116.32 208.88 115.648 209.024C114.992 209.168 114.208 209.24 113.296 209.24C112.048 209.24 110.944 208.992 109.984 208.496C109.024 208 108.272 207.264 107.728 206.288C107.2 205.296 106.936 204.08 106.936 202.64C106.936 201.184 107.176 199.952 107.656 198.944C108.152 197.936 108.832 197.168 109.696 196.64C110.576 196.096 111.6 195.824 112.768 195.824ZM112.768 197.792C111.856 197.792 111.12 198.088 110.56 198.68C110.016 199.272 109.696 200.112 109.6 201.2H115.696C115.696 200.528 115.592 199.936 115.384 199.424C115.176 198.912 114.856 198.512 114.424 198.224C113.992 197.936 113.44 197.792 112.768 197.792Z" fill="#555555"/>
<path d="M101.122 209.24C99.9379 209.24 98.8979 209.008 98.0019 208.544C97.1059 208.08 96.4099 207.36 95.9139 206.384C95.4179 205.392 95.1699 204.136 95.1699 202.616C95.1699 201.016 95.4339 199.72 95.9619 198.728C96.5059 197.736 97.2339 197.008 98.1459 196.544C99.0739 196.064 100.13 195.824 101.314 195.824C102.034 195.824 102.706 195.904 103.33 196.064C103.97 196.208 104.498 196.376 104.914 196.568L104.146 198.632C103.698 198.456 103.218 198.304 102.706 198.176C102.21 198.048 101.738 197.984 101.29 197.984C100.49 197.984 99.8259 198.16 99.2979 198.512C98.7859 198.848 98.4019 199.36 98.1459 200.048C97.9059 200.72 97.7859 201.568 97.7859 202.592C97.7859 203.568 97.9139 204.392 98.1699 205.064C98.4259 205.736 98.8019 206.248 99.2979 206.6C99.8099 206.936 100.442 207.104 101.194 207.104C101.914 207.104 102.546 207.024 103.09 206.864C103.634 206.704 104.146 206.496 104.626 206.24V208.448C104.162 208.72 103.658 208.92 103.114 209.048C102.57 209.176 101.906 209.24 101.122 209.24Z" fill="#555555"/>
<path d="M86.3033 202.4L81.9113 196.064H84.8153L87.8873 200.72L90.9593 196.064H93.8393L89.4473 202.4L94.0553 209H91.1753L87.8873 204.056L84.5753 209H81.6953L86.3033 202.4Z" fill="#555555"/>
<path d="M79.9278 209H70.2798V191.864H79.9278V194.072H72.8718V198.968H79.4958V201.152H72.8718V206.768H79.9278V209Z" fill="#555555"/>
<path d="M51 199.047C51 207.91 43.6127 215.094 34.5 215.094C25.3873 215.094 18 207.91 18 199.047C18 190.185 25.3873 183 34.5 183C43.6127 183 51 190.185 51 199.047Z" fill="#555555"/>
<path d="M25.5556 210L32.5556 203.35C33.1111 203.772 33.75 204.106 34.4722 204.353C35.1944 204.599 35.963 204.722 36.7778 204.722C38.7963 204.722 40.5046 204.058 41.9028 202.73C43.3009 201.402 44 199.779 44 197.861C44 195.944 43.3009 194.321 41.9028 192.992C40.5046 191.664 38.7963 191 36.7778 191C34.7593 191 33.0509 191.664 31.6528 192.992C30.2546 194.321 29.5556 195.944 29.5556 197.861C29.5556 198.635 29.6852 199.365 29.9444 200.051C30.2037 200.737 30.5556 201.344 31 201.872L24 208.522L25.5556 210ZM36.7778 202.611C35.3889 202.611 34.2083 202.149 33.2361 201.226C32.2639 200.302 31.7778 199.181 31.7778 197.861C31.7778 196.542 32.2639 195.42 33.2361 194.497C34.2083 193.573 35.3889 193.111 36.7778 193.111C38.1667 193.111 39.3472 193.573 40.3194 194.497C41.2917 195.42 41.7778 196.542 41.7778 197.861C41.7778 199.181 41.2917 200.302 40.3194 201.226C39.3472 202.149 38.1667 202.611 36.7778 202.611ZM37.8889 201.028V198.917H40.1111V196.806H37.8889V194.694H35.6667V196.806H33.4444V198.917H35.6667V201.028H37.8889Z" fill="white"/>
<path d="M533.56 207.75L539.5 201.81L545.44 207.75L547.75 205.44L541.81 199.5L547.75 193.56L545.44 191.25L539.5 197.19L533.56 191.25L531.25 193.56L537.19 199.5L531.25 205.44L533.56 207.75ZM539.5 216C537.217 216 535.073 215.567 533.065 214.701C531.058 213.834 529.311 212.659 527.826 211.174C526.341 209.689 525.166 207.943 524.299 205.935C523.433 203.928 523 201.783 523 199.5C523 197.217 523.433 195.073 524.299 193.065C525.166 191.058 526.341 189.311 527.826 187.826C529.311 186.341 531.058 185.166 533.065 184.299C535.073 183.433 537.217 183 539.5 183C541.783 183 543.928 183.433 545.935 184.299C547.943 185.166 549.689 186.341 551.174 187.826C552.659 189.311 553.834 191.058 554.701 193.065C555.567 195.073 556 197.217 556 199.5C556 201.783 555.567 203.928 554.701 205.935C553.834 207.943 552.659 209.689 551.174 211.174C549.689 212.659 547.943 213.834 545.935 214.701C543.928 215.567 541.783 216 539.5 216Z" fill="#555555"/>
</svg>
