<svg width="580" height="80" viewBox="0 0 580 80" fill="none" xmlns="http://www.w3.org/2000/svg">
<path d="M0 16C0 7.16344 7.16344 0 16 0H564C572.837 0 580 7.16344 580 16V64C580 72.8366 572.837 80 564 80H16C7.16345 80 0 72.8366 0 64V16Z" fill="white"/>
<path d="M564 76V80H16V76H564ZM576 64V16C576 9.37259 570.627 4 564 4H16C9.37258 4 4 9.37258 4 16V64C4 70.6274 9.37259 76 16 76V80C7.30156 80 0.223981 73.0587 0.00488281 64.4131L0 64V16C0 7.30155 6.94127 0.22398 15.5869 0.00488281L16 0H564L564.413 0.00488281C573.059 0.223985 580 7.30156 580 16V64C580 72.8366 572.837 80 564 80V76C570.627 76 576 70.6274 576 64Z" fill="#CECECE"/>
<path d="M541.829 49.3375L544.337 46.8292L537.708 40.2V31.9583H534.125V41.6333L541.829 49.3375ZM535.917 58.8333C533.438 58.8333 531.109 58.363 528.929 57.4224C526.749 56.4818 524.853 55.2052 523.241 53.5927C521.628 51.9802 520.352 50.084 519.411 47.9042C518.47 45.7243 518 43.3951 518 40.9167C518 38.4382 518.47 36.109 519.411 33.9292C520.352 31.7493 521.628 29.8531 523.241 28.2406C524.853 26.6281 526.749 25.3516 528.929 24.4109C531.109 23.4703 533.438 23 535.917 23C538.395 23 540.724 23.4703 542.904 24.4109C545.084 25.3516 546.98 26.6281 548.593 28.2406C550.205 29.8531 551.482 31.7493 552.422 33.9292C553.363 36.109 553.833 38.4382 553.833 40.9167C553.833 43.3951 553.363 45.7243 552.422 47.9042C551.482 50.084 550.205 51.9802 548.593 53.5927C546.98 55.2052 545.084 56.4818 542.904 57.4224C540.724 58.363 538.395 58.8333 535.917 58.8333Z" fill="#555555"/>
<path d="M255.83 57.9998H251.874V35.0458C251.874 34.1564 251.874 33.4051 251.874 32.7918C251.904 32.1784 251.935 31.6111 251.966 31.0898C251.996 30.5378 252.027 29.9704 252.058 29.3878C251.567 29.8784 251.122 30.2924 250.724 30.6298C250.325 30.9671 249.819 31.3964 249.206 31.9178L245.71 34.7698L243.594 32.0558L252.472 25.1558H255.83V57.9998Z" fill="#555555"/>
<path d="M237.234 41.5319C237.234 44.1999 237.034 46.5766 236.636 48.6619C236.237 50.7472 235.593 52.5259 234.704 53.9979C233.845 55.4392 232.71 56.5432 231.3 57.3099C229.92 58.0766 228.248 58.4599 226.286 58.4599C223.832 58.4599 221.793 57.7852 220.168 56.4359C218.573 55.0866 217.377 53.1546 216.58 50.6399C215.813 48.0946 215.43 45.0586 215.43 41.5319C215.43 37.9746 215.782 34.9386 216.488 32.4239C217.224 29.9092 218.389 27.9926 219.984 26.6739C221.578 25.3246 223.679 24.6499 226.286 24.6499C228.739 24.6499 230.778 25.3246 232.404 26.6739C234.029 27.9926 235.24 29.9092 236.038 32.4239C236.835 34.9386 237.234 37.9746 237.234 41.5319ZM219.478 41.5319C219.478 44.5372 219.692 47.0366 220.122 49.0299C220.582 51.0232 221.302 52.5259 222.284 53.5379C223.296 54.5192 224.63 55.0099 226.286 55.0099C227.942 55.0099 229.26 54.5192 230.242 53.5379C231.254 52.5566 231.99 51.0692 232.45 49.0759C232.91 47.0519 233.14 44.5372 233.14 41.5319C233.14 38.5266 232.91 36.0426 232.45 34.0799C231.99 32.0866 231.254 30.5992 230.242 29.6179C229.26 28.6059 227.942 28.0999 226.286 28.0999C224.63 28.0999 223.296 28.6059 222.284 29.6179C221.302 30.5992 220.582 32.0866 220.122 34.0799C219.692 36.0426 219.478 38.5266 219.478 41.5319Z" fill="#555555"/>
<path d="M212.713 25.1558L200.477 57.9998H196.521L208.757 25.1558H212.713Z" fill="#555555"/>
<path d="M186.066 57.9998H182.11V35.0458C182.11 34.1564 182.11 33.4051 182.11 32.7918C182.141 32.1784 182.171 31.6111 182.202 31.0898C182.233 30.5378 182.263 29.9704 182.294 29.3878C181.803 29.8784 181.359 30.2924 180.96 30.6298C180.561 30.9671 180.055 31.3964 179.442 31.9178L175.946 34.7698L173.83 32.0558L182.708 25.1558H186.066V57.9998Z" fill="#555555"/>
<path d="M167.47 41.5319C167.47 44.1999 167.271 46.5766 166.872 48.6619C166.473 50.7472 165.829 52.5259 164.94 53.9979C164.081 55.4392 162.947 56.5432 161.536 57.3099C160.156 58.0766 158.485 58.4599 156.522 58.4599C154.069 58.4599 152.029 57.7852 150.404 56.4359C148.809 55.0866 147.613 53.1546 146.816 50.6399C146.049 48.0946 145.666 45.0586 145.666 41.5319C145.666 37.9746 146.019 34.9386 146.724 32.4239C147.46 29.9092 148.625 27.9926 150.22 26.6739C151.815 25.3246 153.915 24.6499 156.522 24.6499C158.975 24.6499 161.015 25.3246 162.64 26.6739C164.265 27.9926 165.477 29.9092 166.274 32.4239C167.071 34.9386 167.47 37.9746 167.47 41.5319ZM149.714 41.5319C149.714 44.5372 149.929 47.0366 150.358 49.0299C150.818 51.0232 151.539 52.5259 152.52 53.5379C153.532 54.5192 154.866 55.0099 156.522 55.0099C158.178 55.0099 159.497 54.5192 160.478 53.5379C161.49 52.5566 162.226 51.0692 162.686 49.0759C163.146 47.0519 163.376 44.5372 163.376 41.5319C163.376 38.5266 163.146 36.0426 162.686 34.0799C162.226 32.0866 161.49 30.5992 160.478 29.6179C159.497 28.6059 158.178 28.0999 156.522 28.0999C154.866 28.0999 153.532 28.6059 152.52 29.6179C151.539 30.5992 150.818 32.0866 150.358 34.0799C149.929 36.0426 149.714 38.5266 149.714 41.5319Z" fill="#555555"/>
<path d="M142.949 25.1558L130.713 57.9998H126.757L138.993 25.1558H142.949Z" fill="#555555"/>
<path d="M112.623 37.8518C114.861 37.8518 116.809 38.2351 118.465 39.0018C120.121 39.7684 121.393 40.8724 122.283 42.3138C123.203 43.7244 123.663 45.4571 123.663 47.5118C123.663 49.7811 123.172 51.7438 122.191 53.3998C121.209 55.0251 119.799 56.2824 117.959 57.1718C116.149 58.0304 113.957 58.4598 111.381 58.4598C109.694 58.4598 108.099 58.3064 106.597 57.9998C105.125 57.6931 103.883 57.2484 102.871 56.6658V52.8478C103.975 53.5224 105.309 54.0591 106.873 54.4578C108.467 54.8258 109.985 55.0098 111.427 55.0098C113.052 55.0098 114.463 54.7644 115.659 54.2738C116.885 53.7524 117.836 52.9704 118.511 51.9278C119.185 50.8544 119.523 49.5204 119.523 47.9258C119.523 45.7791 118.863 44.1384 117.545 43.0038C116.226 41.8384 114.141 41.2558 111.289 41.2558C110.43 41.2558 109.449 41.3324 108.345 41.4858C107.241 41.6391 106.351 41.7924 105.677 41.9458L103.653 40.6578L104.895 25.1558H121.363V28.8358H108.345L107.563 38.3578C108.084 38.2658 108.789 38.1584 109.679 38.0358C110.568 37.9131 111.549 37.8518 112.623 37.8518Z" fill="#555555"/>
<path d="M97.5684 57.9998H75.8564V54.6418L84.4584 45.9478C86.1144 44.2918 87.5098 42.8198 88.6444 41.5318C89.7791 40.2438 90.6378 38.9865 91.2204 37.7598C91.8031 36.5025 92.0944 35.1378 92.0944 33.6658C92.0944 31.8565 91.5578 30.4918 90.4844 29.5718C89.4111 28.6211 88.0158 28.1458 86.2984 28.1458C84.7038 28.1458 83.2931 28.4218 82.0664 28.9738C80.8704 29.5258 79.6438 30.2925 78.3864 31.2738L76.2244 28.5598C77.0831 27.8238 78.0184 27.1645 79.0304 26.5818C80.0731 25.9991 81.1924 25.5391 82.3884 25.2018C83.6151 24.8645 84.9184 24.6958 86.2984 24.6958C88.3531 24.6958 90.1164 25.0485 91.5884 25.7538C93.0604 26.4591 94.1951 27.4711 94.9924 28.7898C95.8204 30.0778 96.2344 31.6265 96.2344 33.4358C96.2344 34.7238 96.0351 35.9505 95.6364 37.1158C95.2378 38.2505 94.6704 39.3698 93.9344 40.4738C93.1984 41.5778 92.3091 42.6971 91.2664 43.8318C90.2238 44.9665 89.0738 46.1471 87.8164 47.3738L80.9624 54.1358V54.3198H97.5684V57.9998Z" fill="#555555"/>
<path d="M71.3821 41.5319C71.3821 44.1999 71.1828 46.5766 70.7841 48.6619C70.3855 50.7472 69.7415 52.5259 68.8521 53.9979C67.9935 55.4392 66.8588 56.5432 65.4481 57.3099C64.0681 58.0766 62.3968 58.4599 60.4341 58.4599C57.9808 58.4599 55.9415 57.7852 54.3161 56.4359C52.7215 55.0866 51.5255 53.1546 50.7281 50.6399C49.9615 48.0946 49.5781 45.0586 49.5781 41.5319C49.5781 37.9746 49.9308 34.9386 50.6361 32.4239C51.3721 29.9092 52.5375 27.9926 54.1321 26.6739C55.7268 25.3246 57.8275 24.6499 60.4341 24.6499C62.8875 24.6499 64.9268 25.3246 66.5521 26.6739C68.1775 27.9926 69.3888 29.9092 70.1861 32.4239C70.9835 34.9386 71.3821 37.9746 71.3821 41.5319ZM53.6261 41.5319C53.6261 44.5372 53.8408 47.0366 54.2701 49.0299C54.7301 51.0232 55.4508 52.5259 56.4321 53.5379C57.4441 54.5192 58.7781 55.0099 60.4341 55.0099C62.0901 55.0099 63.4088 54.5192 64.3901 53.5379C65.4021 52.5566 66.1381 51.0692 66.5981 49.0759C67.0581 47.0519 67.2881 44.5372 67.2881 41.5319C67.2881 38.5266 67.0581 36.0426 66.5981 34.0799C66.1381 32.0866 65.4021 30.5992 64.3901 29.6179C63.4088 28.6059 62.0901 28.0999 60.4341 28.0999C58.7781 28.0999 57.4441 28.6059 56.4321 29.6179C55.4508 30.5992 54.7301 32.0866 54.2701 34.0799C53.8408 36.0426 53.6261 38.5266 53.6261 41.5319Z" fill="#555555"/>
<path d="M44.92 57.9998H23.208V54.6418L31.81 45.9478C33.466 44.2918 34.8613 42.8198 35.996 41.5318C37.1307 40.2438 37.9893 38.9865 38.572 37.7598C39.1547 36.5025 39.446 35.1378 39.446 33.6658C39.446 31.8565 38.9093 30.4918 37.836 29.5718C36.7627 28.6211 35.3673 28.1458 33.65 28.1458C32.0553 28.1458 30.6447 28.4218 29.418 28.9738C28.222 29.5258 26.9953 30.2925 25.738 31.2738L23.576 28.5598C24.4347 27.8238 25.37 27.1645 26.382 26.5818C27.4247 25.9991 28.544 25.5391 29.74 25.2018C30.9667 24.8645 32.27 24.6958 33.65 24.6958C35.7047 24.6958 37.468 25.0485 38.94 25.7538C40.412 26.4591 41.5467 27.4711 42.344 28.7898C43.172 30.0778 43.586 31.6265 43.586 33.4358C43.586 34.7238 43.3867 35.9505 42.988 37.1158C42.5893 38.2505 42.022 39.3698 41.286 40.4738C40.55 41.5778 39.6607 42.6971 38.618 43.8318C37.5753 44.9665 36.4253 46.1471 35.168 47.3738L28.314 54.1358V54.3198H44.92V57.9998Z" fill="#555555"/>
</svg>
