<svg width="581" height="80" viewBox="0 0 581 80" fill="none" xmlns="http://www.w3.org/2000/svg">
<circle cx="19" cy="40" r="16.5" fill="white" stroke="#CECECE" stroke-width="3"/>
<path d="M180.797 32.8667C181.069 32.8667 181.359 32.8848 181.667 32.9211C181.993 32.9392 182.274 32.9755 182.51 33.0298L182.211 35.232C181.975 35.1777 181.712 35.1324 181.422 35.0961C181.15 35.0599 180.888 35.0417 180.634 35.0417C180.072 35.0417 179.537 35.1595 179.03 35.3952C178.522 35.6308 178.069 35.9661 177.67 36.4011C177.272 36.818 176.954 37.3255 176.719 37.9236C176.501 38.5218 176.393 39.1924 176.393 39.9355V47.7113H174V33.1386H175.958L176.229 35.803H176.338C176.646 35.2592 177.018 34.7699 177.453 34.3348C177.888 33.8817 178.386 33.5283 178.948 33.2745C179.51 33.0026 180.126 32.8667 180.797 32.8667Z" fill="#555555"/>
<path d="M164.281 32.8667C165.532 32.8667 166.601 33.1386 167.489 33.6823C168.396 34.2261 169.084 34.9964 169.556 35.9933C170.045 36.9721 170.29 38.123 170.29 39.4462V40.8871H160.312C160.348 42.5365 160.765 43.7962 161.562 44.6662C162.378 45.5181 163.511 45.9441 164.961 45.9441C165.885 45.9441 166.701 45.8625 167.408 45.6994C168.133 45.5181 168.876 45.2644 169.637 44.9381V47.0316C168.894 47.3578 168.16 47.5935 167.435 47.7385C166.71 47.9016 165.849 47.9832 164.852 47.9832C163.475 47.9832 162.251 47.7022 161.182 47.1403C160.13 46.5785 159.306 45.7447 158.708 44.6391C158.128 43.5153 157.838 42.1468 157.838 40.5337C157.838 38.9387 158.1 37.5702 158.626 36.4283C159.17 35.2864 159.922 34.4073 160.883 33.7911C161.861 33.1748 162.994 32.8667 164.281 32.8667ZM164.254 34.8242C163.112 34.8242 162.206 35.1958 161.535 35.9389C160.883 36.6639 160.493 37.679 160.366 38.984H167.788C167.788 38.1502 167.662 37.4252 167.408 36.8089C167.154 36.1927 166.764 35.7124 166.239 35.368C165.731 35.0055 165.07 34.8242 164.254 34.8242Z" fill="#555555"/>
<path d="M148.055 47.7114L142.536 33.1387H145.092L148.191 41.73C148.336 42.1288 148.49 42.5729 148.653 43.0622C148.816 43.5516 148.961 44.0229 149.088 44.476C149.215 44.911 149.306 45.2826 149.36 45.5907H149.469C149.541 45.2826 149.641 44.902 149.768 44.4488C149.913 43.9957 150.067 43.5244 150.23 43.0351C150.411 42.5457 150.565 42.1107 150.692 41.73L153.792 33.1387H156.347L150.801 47.7114H148.055Z" fill="#555555"/>
<path d="M140.413 32.8667C140.685 32.8667 140.975 32.8848 141.283 32.9211C141.609 32.9392 141.89 32.9755 142.126 33.0298L141.827 35.232C141.591 35.1777 141.329 35.1324 141.039 35.0961C140.767 35.0599 140.504 35.0417 140.25 35.0417C139.688 35.0417 139.153 35.1595 138.646 35.3952C138.138 35.6308 137.685 35.9661 137.287 36.4011C136.888 36.818 136.571 37.3255 136.335 37.9236C136.117 38.5218 136.009 39.1924 136.009 39.9355V47.7113H133.616V33.1386H135.574L135.846 35.803H135.954C136.262 35.2592 136.634 34.7699 137.069 34.3348C137.504 33.8817 138.003 33.5283 138.564 33.2745C139.126 33.0026 139.743 32.8667 140.413 32.8667Z" fill="#555555"/>
<path d="M123.897 32.8667C125.148 32.8667 126.217 33.1386 127.106 33.6823C128.012 34.2261 128.701 34.9964 129.172 35.9933C129.661 36.9721 129.906 38.123 129.906 39.4462V40.8871H119.928C119.964 42.5365 120.381 43.7962 121.179 44.6662C121.994 45.5181 123.127 45.9441 124.577 45.9441C125.501 45.9441 126.317 45.8625 127.024 45.6994C127.749 45.5181 128.492 45.2644 129.253 44.9381V47.0316C128.51 47.3578 127.776 47.5935 127.051 47.7385C126.326 47.9016 125.465 47.9832 124.468 47.9832C123.091 47.9832 121.867 47.7022 120.798 47.1403C119.747 46.5785 118.922 45.7447 118.324 44.6391C117.744 43.5153 117.454 42.1468 117.454 40.5337C117.454 38.9387 117.717 37.5702 118.242 36.4283C118.786 35.2864 119.538 34.4073 120.499 33.7911C121.478 33.1748 122.61 32.8667 123.897 32.8667ZM123.87 34.8242C122.728 34.8242 121.822 35.1958 121.151 35.9389C120.499 36.6639 120.109 37.679 119.982 38.984H127.405C127.405 38.1502 127.278 37.4252 127.024 36.8089C126.77 36.1927 126.381 35.7124 125.855 35.368C125.347 35.0055 124.686 34.8242 123.87 34.8242Z" fill="#555555"/>
<path d="M114.685 42.5185C114.685 43.6785 114.404 44.6663 113.842 45.482C113.28 46.2795 112.474 46.8957 111.422 47.3307C110.389 47.7657 109.166 47.9832 107.752 47.9832C107.027 47.9832 106.329 47.947 105.658 47.8745C105.006 47.802 104.408 47.7023 103.864 47.5754C103.32 47.4304 102.84 47.2582 102.423 47.0589V44.7207C103.076 45.0107 103.882 45.2735 104.843 45.5092C105.822 45.7448 106.828 45.8626 107.861 45.8626C108.821 45.8626 109.628 45.7357 110.28 45.482C110.933 45.2282 111.422 44.8657 111.749 44.3944C112.075 43.9232 112.238 43.3704 112.238 42.736C112.238 42.1016 112.102 41.5669 111.83 41.1319C111.558 40.6969 111.087 40.2981 110.416 39.9356C109.764 39.555 108.848 39.1563 107.67 38.7394C106.837 38.4312 106.103 38.105 105.468 37.7606C104.852 37.3981 104.335 36.9903 103.918 36.5372C103.502 36.084 103.184 35.5674 102.967 34.9874C102.767 34.4074 102.668 33.7368 102.668 32.9755C102.668 31.9424 102.931 31.0633 103.456 30.3383C103.982 29.5952 104.707 29.0242 105.631 28.6255C106.574 28.2267 107.652 28.0273 108.867 28.0273C109.936 28.0273 110.915 28.127 111.803 28.3264C112.691 28.5258 113.498 28.7886 114.223 29.1149L113.461 31.2083C112.791 30.9183 112.057 30.6736 111.259 30.4743C110.48 30.2749 109.664 30.1752 108.812 30.1752C107.997 30.1752 107.317 30.293 106.773 30.5286C106.229 30.7643 105.822 31.0996 105.55 31.5346C105.278 31.9515 105.142 32.4408 105.142 33.0027C105.142 33.6552 105.278 34.199 105.55 34.634C105.822 35.069 106.266 35.4587 106.882 35.8031C107.498 36.1475 108.332 36.519 109.383 36.9178C110.525 37.3347 111.486 37.7878 112.265 38.2772C113.063 38.7484 113.661 39.3194 114.06 39.99C114.476 40.6606 114.685 41.5035 114.685 42.5185Z" fill="#555555"/>
<path d="M82.354 47.7115V28.2993H84.8009V45.5364H93.2835V47.7115H82.354Z" fill="#555555"/>
<path d="M78.0513 37.978C78.0513 39.5549 77.8338 40.9867 77.3988 42.2736C76.9819 43.5605 76.3566 44.648 75.5229 45.5362C74.6891 46.4243 73.6469 47.0768 72.3963 47.4937L77.0454 52.3332H73.5381L69.7862 47.9559C69.6775 47.9559 69.5597 47.9559 69.4328 47.9559C69.324 47.974 69.2153 47.9831 69.1065 47.9831C67.584 47.9831 66.2609 47.7475 65.1371 47.2762C64.0133 46.7868 63.0799 46.1071 62.3367 45.2371C61.5936 44.349 61.0408 43.2887 60.6783 42.0561C60.3158 40.8236 60.1345 39.4552 60.1345 37.9508C60.1345 35.957 60.4608 34.217 61.1133 32.7307C61.7658 31.2444 62.7536 30.0844 64.0768 29.2506C65.418 28.4169 67.1037 28 69.1337 28C71.0731 28 72.7044 28.4169 74.0275 29.2506C75.3507 30.0663 76.3476 31.2263 77.0182 32.7307C77.707 34.217 78.0513 35.9661 78.0513 37.978ZM62.7174 37.978C62.7174 39.6092 62.9439 41.0139 63.3971 42.1921C63.8502 43.3702 64.548 44.2765 65.4905 44.9109C66.4512 45.5453 67.6565 45.8624 69.1065 45.8624C70.5747 45.8624 71.7709 45.5453 72.6953 44.9109C73.6378 44.2765 74.3357 43.3702 74.7888 42.1921C75.2419 41.0139 75.4685 39.6092 75.4685 37.978C75.4685 35.531 74.961 33.6188 73.946 32.2413C72.931 30.8457 71.3269 30.1478 69.1337 30.1478C67.6656 30.1478 66.4512 30.465 65.4905 31.0994C64.548 31.7157 63.8502 32.6129 63.3971 33.791C62.9439 34.951 62.7174 36.3467 62.7174 37.978Z" fill="#555555"/>
<path d="M57.2031 42.518C57.2031 43.678 56.9222 44.6658 56.3603 45.4815C55.7984 46.279 54.9919 46.8952 53.9406 47.3303C52.9075 47.7653 51.684 47.9828 50.2702 47.9828C49.5452 47.9828 48.8474 47.9465 48.1768 47.874C47.5243 47.8015 46.9261 47.7018 46.3824 47.5749C45.8386 47.4299 45.3583 47.2578 44.9414 47.0584V44.7202C45.5939 45.0102 46.4005 45.273 47.3611 45.5087C48.3399 45.7443 49.3458 45.8621 50.379 45.8621C51.3396 45.8621 52.1462 45.7352 52.7987 45.4815C53.4512 45.2277 53.9406 44.8652 54.2669 44.394C54.5931 43.9227 54.7562 43.3699 54.7562 42.7355C54.7562 42.1011 54.6203 41.5664 54.3484 41.1314C54.0765 40.6964 53.6053 40.2977 52.9346 39.9351C52.2821 39.5545 51.3668 39.1558 50.1887 38.7389C49.3549 38.4308 48.6208 38.1045 47.9864 37.7601C47.3702 37.3976 46.8536 36.9898 46.4367 36.5367C46.0199 36.0835 45.7027 35.567 45.4852 34.987C45.2858 34.4069 45.1861 33.7363 45.1861 32.975C45.1861 31.9419 45.4489 31.0628 45.9745 30.3378C46.5002 29.5947 47.2252 29.0237 48.1496 28.625C49.0921 28.2262 50.1705 28.0269 51.3849 28.0269C52.4543 28.0269 53.4331 28.1265 54.3212 28.3259C55.2094 28.5253 56.0159 28.7881 56.7409 29.1144L55.9797 31.2078C55.3091 30.9178 54.575 30.6731 53.7775 30.4738C52.9981 30.2744 52.1824 30.1747 51.3306 30.1747C50.5149 30.1747 49.8352 30.2925 49.2915 30.5281C48.7477 30.7638 48.3399 31.0991 48.068 31.5341C47.7961 31.951 47.6602 32.4404 47.6602 33.0022C47.6602 33.6547 47.7961 34.1985 48.068 34.6335C48.3399 35.0685 48.784 35.4582 49.4002 35.8026C50.0165 36.147 50.8502 36.5185 51.9015 36.9173C53.0434 37.3342 54.004 37.7873 54.7834 38.2767C55.5809 38.7479 56.1791 39.3189 56.5778 39.9895C56.9947 40.6602 57.2031 41.503 57.2031 42.518Z" fill="#555555"/>
<circle cx="234" cy="40" r="16.5" fill="white" stroke="#CECECE" stroke-width="3"/>
<path d="M396.022 46.7115V27.2993H398.469V44.5364H406.952V46.7115H396.022Z" fill="#555555"/>
<path d="M391.72 36.978C391.72 38.5549 391.502 39.9867 391.067 41.2736C390.65 42.5605 390.025 43.648 389.191 44.5362C388.357 45.4243 387.315 46.0768 386.064 46.4937L390.714 51.3332H387.206L383.454 46.9559C383.346 46.9559 383.228 46.9559 383.101 46.9559C382.992 46.974 382.883 46.9831 382.775 46.9831C381.252 46.9831 379.929 46.7475 378.805 46.2762C377.682 45.7868 376.748 45.1071 376.005 44.2371C375.262 43.349 374.709 42.2887 374.346 41.0561C373.984 39.8236 373.803 38.4552 373.803 36.9508C373.803 34.957 374.129 33.217 374.782 31.7307C375.434 30.2444 376.422 29.0844 377.745 28.2506C379.086 27.4169 380.772 27 382.802 27C384.741 27 386.373 27.4169 387.696 28.2506C389.019 29.0663 390.016 30.2263 390.686 31.7307C391.375 33.217 391.72 34.9661 391.72 36.978ZM376.386 36.978C376.386 38.6092 376.612 40.0139 377.065 41.1921C377.518 42.3702 378.216 43.2765 379.159 43.9109C380.119 44.5453 381.325 44.8624 382.775 44.8624C384.243 44.8624 385.439 44.5453 386.364 43.9109C387.306 43.2765 388.004 42.3702 388.457 41.1921C388.91 40.0139 389.137 38.6092 389.137 36.978C389.137 34.531 388.629 32.6188 387.614 31.2413C386.599 29.8457 384.995 29.1478 382.802 29.1478C381.334 29.1478 380.119 29.465 379.159 30.0994C378.216 30.7157 377.518 31.6129 377.065 32.791C376.612 33.951 376.386 35.3467 376.386 36.978Z" fill="#555555"/>
<path d="M370.872 41.5185C370.872 42.6785 370.591 43.6663 370.029 44.482C369.467 45.2795 368.66 45.8957 367.609 46.3307C366.576 46.7657 365.352 46.9832 363.939 46.9832C363.214 46.9832 362.516 46.947 361.845 46.8745C361.193 46.802 360.595 46.7023 360.051 46.5754C359.507 46.4304 359.027 46.2582 358.61 46.0589V43.7207C359.262 44.0107 360.069 44.2735 361.03 44.5092C362.008 44.7448 363.014 44.8626 364.047 44.8626C365.008 44.8626 365.815 44.7357 366.467 44.482C367.12 44.2282 367.609 43.8657 367.935 43.3944C368.262 42.9232 368.425 42.3704 368.425 41.736C368.425 41.1016 368.289 40.5669 368.017 40.1319C367.745 39.6969 367.274 39.2981 366.603 38.9356C365.951 38.555 365.035 38.1563 363.857 37.7394C363.023 37.4312 362.289 37.105 361.655 36.7606C361.039 36.3981 360.522 35.9903 360.105 35.5372C359.688 35.084 359.371 34.5674 359.154 33.9874C358.954 33.4074 358.855 32.7368 358.855 31.9755C358.855 30.9424 359.117 30.0633 359.643 29.3383C360.169 28.5952 360.894 28.0242 361.818 27.6255C362.761 27.2267 363.839 27.0273 365.053 27.0273C366.123 27.0273 367.102 27.127 367.99 27.3264C368.878 27.5258 369.684 27.7886 370.409 28.1149L369.648 30.2083C368.978 29.9183 368.243 29.6736 367.446 29.4743C366.667 29.2749 365.851 29.1752 364.999 29.1752C364.183 29.1752 363.504 29.293 362.96 29.5286C362.416 29.7643 362.008 30.0996 361.736 30.5346C361.465 30.9515 361.329 31.4408 361.329 32.0027C361.329 32.6552 361.465 33.199 361.736 33.634C362.008 34.069 362.452 34.4587 363.069 34.8031C363.685 35.1475 364.519 35.519 365.57 35.9178C366.712 36.3347 367.672 36.7878 368.452 37.2772C369.249 37.7484 369.848 38.3194 370.246 38.99C370.663 39.6606 370.872 40.5035 370.872 41.5185Z" fill="#555555"/>
<path d="M349.816 31.8667C351.067 31.8667 352.136 32.1386 353.024 32.6823C353.931 33.2261 354.619 33.9964 355.091 34.9933C355.58 35.9721 355.825 37.123 355.825 38.4462V39.8871H345.847C345.883 41.5365 346.3 42.7962 347.097 43.6662C347.913 44.5181 349.046 44.9441 350.496 44.9441C351.42 44.9441 352.236 44.8625 352.943 44.6994C353.668 44.5181 354.411 44.2644 355.172 43.9381V46.0316C354.429 46.3578 353.695 46.5935 352.97 46.7385C352.245 46.9016 351.384 46.9832 350.387 46.9832C349.01 46.9832 347.786 46.7022 346.717 46.1403C345.665 45.5785 344.841 44.7447 344.243 43.6391C343.663 42.5153 343.373 41.1468 343.373 39.5337C343.373 37.9387 343.635 36.5702 344.161 35.4283C344.705 34.2864 345.457 33.4073 346.418 32.7911C347.396 32.1748 348.529 31.8667 349.816 31.8667ZM349.789 33.8242C348.647 33.8242 347.741 34.1958 347.07 34.9389C346.418 35.6639 346.028 36.679 345.901 37.984H353.323C353.323 37.1502 353.196 36.4252 352.943 35.8089C352.689 35.1927 352.299 34.7124 351.774 34.368C351.266 34.0055 350.605 33.8242 349.789 33.8242Z" fill="#555555"/>
<path d="M340.285 31.8667C340.557 31.8667 340.847 31.8848 341.155 31.9211C341.482 31.9392 341.762 31.9755 341.998 32.0298L341.699 34.232C341.463 34.1777 341.201 34.1324 340.911 34.0961C340.639 34.0599 340.376 34.0417 340.122 34.0417C339.56 34.0417 339.026 34.1595 338.518 34.3952C338.011 34.6308 337.557 34.9661 337.159 35.4011C336.76 35.818 336.443 36.3255 336.207 36.9236C335.99 37.5218 335.881 38.1924 335.881 38.9355V46.7113H333.488V32.1386H335.446L335.718 34.803H335.826C336.135 34.2592 336.506 33.7699 336.941 33.3348C337.376 32.8817 337.875 32.5283 338.436 32.2745C338.998 32.0026 339.615 31.8667 340.285 31.8667Z" fill="#555555"/>
<path d="M321.927 31.8667C322.888 31.8667 323.749 32.048 324.51 32.4105C325.289 32.773 325.951 33.3258 326.495 34.0689H326.631L326.957 32.1386H328.86V46.956C328.86 48.3335 328.624 49.4844 328.153 50.4088C327.682 51.3514 326.966 52.0582 326.005 52.5295C325.045 53.0007 323.821 53.2364 322.335 53.2364C321.284 53.2364 320.314 53.1548 319.426 52.9917C318.556 52.8467 317.776 52.6201 317.088 52.312V50.1098C317.559 50.3454 318.076 50.5448 318.637 50.7079C319.199 50.8892 319.806 51.0251 320.459 51.1157C321.111 51.2063 321.782 51.2517 322.471 51.2517C323.722 51.2517 324.7 50.8801 325.407 50.137C326.132 49.4119 326.495 48.4151 326.495 47.1463V46.5753C326.495 46.3578 326.504 46.0497 326.522 45.651C326.54 45.2341 326.558 44.9441 326.576 44.7809H326.468C325.96 45.5241 325.326 46.0769 324.564 46.4394C323.821 46.8019 322.951 46.9832 321.954 46.9832C320.069 46.9832 318.592 46.3216 317.523 44.9984C316.471 43.6753 315.946 41.8265 315.946 39.4521C315.946 37.8933 316.181 36.5521 316.653 35.4283C317.142 34.2864 317.831 33.4073 318.719 32.7911C319.607 32.1748 320.676 31.8667 321.927 31.8667ZM322.253 33.8786C321.438 33.8786 320.74 34.0961 320.16 34.5311C319.598 34.9661 319.163 35.6005 318.855 36.4343C318.565 37.268 318.42 38.283 318.42 39.4793C318.42 41.2737 318.746 42.6512 319.399 43.6119C320.069 44.5544 321.039 45.0256 322.308 45.0256C323.051 45.0256 323.685 44.935 324.211 44.7538C324.737 44.5544 325.172 44.2553 325.516 43.8566C325.86 43.4397 326.114 42.914 326.277 42.2797C326.44 41.6453 326.522 40.8931 326.522 40.0231V39.4521C326.522 38.129 326.368 37.0596 326.06 36.2439C325.77 35.4283 325.307 34.8302 324.673 34.4495C324.039 34.0689 323.232 33.8786 322.253 33.8786Z" fill="#555555"/>
<path d="M311.805 45.0251C312.167 45.0251 312.539 44.9979 312.919 44.9436C313.3 44.871 313.608 44.7985 313.844 44.726V46.5476C313.59 46.6745 313.227 46.7742 312.756 46.8467C312.285 46.9373 311.832 46.9826 311.397 46.9826C310.636 46.9826 309.929 46.8558 309.276 46.602C308.642 46.3301 308.125 45.8679 307.726 45.2154C307.328 44.5629 307.128 43.6476 307.128 42.4695V33.9868H305.062V32.8449L307.155 31.8934L308.107 28.7939H309.521V32.1381H313.735V33.9868H309.521V42.4151C309.521 43.3032 309.729 43.9648 310.146 44.3998C310.581 44.8167 311.134 45.0251 311.805 45.0251Z" fill="#555555"/>
<path d="M303.416 42.6875C303.416 43.63 303.18 44.4184 302.709 45.0528C302.238 45.6872 301.567 46.1675 300.697 46.4938C299.827 46.82 298.794 46.9832 297.598 46.9832C296.583 46.9832 295.704 46.9016 294.96 46.7385C294.235 46.5753 293.592 46.3488 293.03 46.0588V43.8837C293.61 44.1737 294.308 44.4456 295.124 44.6994C295.957 44.935 296.8 45.0528 297.652 45.0528C298.866 45.0528 299.746 44.8625 300.289 44.4819C300.833 44.0831 301.105 43.5575 301.105 42.905C301.105 42.5425 301.005 42.2162 300.806 41.9262C300.606 41.6362 300.244 41.3462 299.718 41.0562C299.211 40.7662 298.477 40.4399 297.516 40.0774C296.574 39.7149 295.767 39.3524 295.096 38.9899C294.426 38.6274 293.909 38.1924 293.547 37.6849C293.184 37.1774 293.003 36.5249 293.003 35.7274C293.003 34.4949 293.501 33.5433 294.498 32.8727C295.513 32.202 296.836 31.8667 298.468 31.8667C299.356 31.8667 300.181 31.9573 300.942 32.1386C301.721 32.3017 302.446 32.5373 303.117 32.8455L302.301 34.7486C301.902 34.5674 301.476 34.4133 301.023 34.2864C300.588 34.1414 300.144 34.0327 299.691 33.9602C299.238 33.8695 298.776 33.8242 298.305 33.8242C297.326 33.8242 296.574 33.9874 296.048 34.3136C295.54 34.6217 295.287 35.0477 295.287 35.5914C295.287 35.9902 295.405 36.3346 295.64 36.6246C295.876 36.8965 296.265 37.1683 296.809 37.4402C297.371 37.694 298.114 38.0021 299.039 38.3646C299.963 38.709 300.751 39.0624 301.404 39.4249C302.056 39.7874 302.555 40.2315 302.899 40.7571C303.244 41.2646 303.416 41.9081 303.416 42.6875Z" fill="#555555"/>
<path d="M290.136 39.3977C290.136 40.6121 289.973 41.6906 289.647 42.6331C289.339 43.5575 288.885 44.3459 288.287 44.9984C287.707 45.651 286.991 46.1494 286.139 46.4938C285.306 46.82 284.372 46.9832 283.339 46.9832C282.378 46.9832 281.49 46.82 280.675 46.4938C279.859 46.1494 279.152 45.651 278.554 44.9984C277.956 44.3459 277.485 43.5575 277.14 42.6331C276.814 41.6906 276.651 40.6121 276.651 39.3977C276.651 37.7846 276.923 36.4252 277.467 35.3196C278.01 34.1958 278.79 33.3439 279.805 32.7639C280.82 32.1658 282.025 31.8667 283.421 31.8667C284.744 31.8667 285.904 32.1658 286.901 32.7639C287.916 33.3439 288.704 34.1958 289.266 35.3196C289.846 36.4252 290.136 37.7846 290.136 39.3977ZM279.125 39.3977C279.125 40.5396 279.27 41.5365 279.56 42.3884C279.868 43.2222 280.339 43.8656 280.974 44.3188C281.608 44.7719 282.415 44.9984 283.393 44.9984C284.372 44.9984 285.179 44.7719 285.813 44.3188C286.448 43.8656 286.91 43.2222 287.2 42.3884C287.508 41.5365 287.662 40.5396 287.662 39.3977C287.662 38.2377 287.508 37.2499 287.2 36.4343C286.892 35.6186 286.42 34.9933 285.786 34.5583C285.17 34.1052 284.363 33.8786 283.366 33.8786C281.88 33.8786 280.802 34.368 280.131 35.3467C279.46 36.3255 279.125 37.6758 279.125 39.3977Z" fill="#555555"/>
<path d="M266.47 27.2993C269.007 27.2993 270.856 27.7978 272.016 28.7947C273.176 29.7915 273.756 31.1962 273.756 33.0088C273.756 33.8063 273.62 34.5766 273.348 35.3197C273.094 36.0448 272.668 36.6973 272.07 37.2773C271.472 37.8573 270.675 38.3195 269.678 38.6639C268.681 38.9901 267.457 39.1532 266.007 39.1532H263.778V46.7115H261.331V27.2993H266.47ZM266.252 29.3928H263.778V37.0598H265.735C266.968 37.0598 267.992 36.9329 268.808 36.6791C269.623 36.4073 270.231 35.9813 270.629 35.4013C271.028 34.8213 271.227 34.06 271.227 33.1175C271.227 31.8669 270.829 30.9334 270.031 30.3172C269.234 29.7009 267.974 29.3928 266.252 29.3928Z" fill="#555555"/>
<circle cx="468" cy="40" r="16.5" fill="white" stroke="#CECECE" stroke-width="3"/>
<path d="M570.07 46.7115V27.2993H572.517V44.5364H581V46.7115H570.07Z" fill="#555555"/>
<path d="M565.767 36.978C565.767 38.5549 565.55 39.9867 565.115 41.2736C564.698 42.5605 564.073 43.648 563.239 44.5362C562.405 45.4243 561.363 46.0768 560.112 46.4937L564.761 51.3332H561.254L557.502 46.9559C557.394 46.9559 557.276 46.9559 557.149 46.9559C557.04 46.974 556.931 46.9831 556.823 46.9831C555.3 46.9831 553.977 46.7475 552.853 46.2762C551.729 45.7868 550.796 45.1071 550.053 44.2371C549.31 43.349 548.757 42.2887 548.394 41.0561C548.032 39.8236 547.851 38.4552 547.851 36.9508C547.851 34.957 548.177 33.217 548.829 31.7307C549.482 30.2444 550.47 29.0844 551.793 28.2506C553.134 27.4169 554.82 27 556.85 27C558.789 27 560.42 27.4169 561.744 28.2506C563.067 29.0663 564.064 30.2263 564.734 31.7307C565.423 33.217 565.767 34.9661 565.767 36.978ZM550.433 36.978C550.433 38.6092 550.66 40.0139 551.113 41.1921C551.566 42.3702 552.264 43.2765 553.207 43.9109C554.167 44.5453 555.373 44.8624 556.823 44.8624C558.291 44.8624 559.487 44.5453 560.411 43.9109C561.354 43.2765 562.052 42.3702 562.505 41.1921C562.958 40.0139 563.185 38.6092 563.185 36.978C563.185 34.531 562.677 32.6188 561.662 31.2413C560.647 29.8457 559.043 29.1478 556.85 29.1478C555.382 29.1478 554.167 29.465 553.207 30.0994C552.264 30.7157 551.566 31.6129 551.113 32.791C550.66 33.951 550.433 35.3467 550.433 36.978Z" fill="#555555"/>
<path d="M544.919 41.5185C544.919 42.6785 544.638 43.6663 544.076 44.482C543.514 45.2795 542.708 45.8957 541.656 46.3307C540.623 46.7657 539.4 46.9832 537.986 46.9832C537.261 46.9832 536.563 46.947 535.893 46.8745C535.24 46.802 534.642 46.7023 534.098 46.5754C533.554 46.4304 533.074 46.2582 532.657 46.0589V43.7207C533.31 44.0107 534.116 44.2735 535.077 44.5092C536.056 44.7448 537.062 44.8626 538.095 44.8626C539.055 44.8626 539.862 44.7357 540.515 44.482C541.167 44.2282 541.656 43.8657 541.983 43.3944C542.309 42.9232 542.472 42.3704 542.472 41.736C542.472 41.1016 542.336 40.5669 542.064 40.1319C541.792 39.6969 541.321 39.2981 540.65 38.9356C539.998 38.555 539.083 38.1563 537.904 37.7394C537.071 37.4312 536.337 37.105 535.702 36.7606C535.086 36.3981 534.569 35.9903 534.153 35.5372C533.736 35.084 533.418 34.5674 533.201 33.9874C533.002 33.4074 532.902 32.7368 532.902 31.9755C532.902 30.9424 533.165 30.0633 533.69 29.3383C534.216 28.5952 534.941 28.0242 535.865 27.6255C536.808 27.2267 537.886 27.0273 539.101 27.0273C540.17 27.0273 541.149 27.127 542.037 27.3264C542.925 27.5258 543.732 27.7886 544.457 28.1149L543.696 30.2083C543.025 29.9183 542.291 29.6736 541.493 29.4743C540.714 29.2749 539.898 29.1752 539.046 29.1752C538.231 29.1752 537.551 29.293 537.007 29.5286C536.464 29.7643 536.056 30.0996 535.784 30.5346C535.512 30.9515 535.376 31.4408 535.376 32.0027C535.376 32.6552 535.512 33.199 535.784 33.634C536.056 34.069 536.5 34.4587 537.116 34.8031C537.732 35.1475 538.566 35.519 539.617 35.9178C540.759 36.3347 541.72 36.7878 542.499 37.2772C543.297 37.7484 543.895 38.3194 544.294 38.99C544.711 39.6606 544.919 40.5035 544.919 41.5185Z" fill="#555555"/>
<path d="M517.439 32.1387H519.995L523.148 40.431C523.33 40.9204 523.493 41.3916 523.638 41.8447C523.801 42.2979 523.946 42.7419 524.073 43.177C524.2 43.5938 524.299 44.0017 524.372 44.4004H524.481C524.589 43.9473 524.762 43.3582 524.997 42.6332C525.233 41.8901 525.478 41.1469 525.731 40.4038L528.695 32.1387H531.278L524.997 48.7233C524.653 49.6295 524.245 50.418 523.774 51.0886C523.321 51.7774 522.759 52.303 522.088 52.6655C521.436 53.0462 520.638 53.2365 519.696 53.2365C519.261 53.2365 518.88 53.2093 518.554 53.1549C518.227 53.1187 517.946 53.0733 517.711 53.019V51.1158C517.91 51.1521 518.146 51.1883 518.418 51.2246C518.708 51.2608 519.007 51.2789 519.315 51.2789C519.877 51.2789 520.357 51.1702 520.756 50.9527C521.173 50.7533 521.526 50.4542 521.816 50.0555C522.106 49.6749 522.351 49.2217 522.55 48.6961L523.312 46.7658L517.439 32.1387Z" fill="#555555"/>
<path d="M503.947 46.7115L497.558 29.6919H497.45C497.486 30.0544 497.513 30.5165 497.531 31.0784C497.567 31.6403 497.595 32.2566 497.613 32.9272C497.631 33.5797 497.64 34.2504 497.64 34.9391V46.7115H495.383V27.2993H498.999L504.981 43.2042H505.089L511.179 27.2993H514.768V46.7115H512.349V34.776C512.349 34.1416 512.358 33.5163 512.376 32.9C512.394 32.2656 512.421 31.6766 512.457 31.1328C512.494 30.5709 512.521 30.0997 512.539 29.719H512.43L505.959 46.7115H503.947Z" fill="#555555"/>
<circle cx="19" cy="40" r="11" fill="#106EBE"/>
</svg>
