<svg width="580" height="80" viewBox="0 0 580 80" fill="none" xmlns="http://www.w3.org/2000/svg">
<path d="M16 2H564C571.732 2 578 8.26802 578 16V64C578 71.732 571.732 78 564 78H16C8.26802 78 2 71.732 2 64V16C2 8.26801 8.26801 2 16 2Z" fill="white" stroke="#CECECE" stroke-width="4"/>
<line y1="-3" x2="21.9485" y2="-3" transform="matrix(0.729492 0.68399 -0.729492 0.68399 520 37)" stroke="#555555" stroke-width="6"/>
<line y1="-3" x2="21.9485" y2="-3" transform="matrix(0.729492 -0.68399 0.729492 0.68399 536.001 52.0127)" stroke="#555555" stroke-width="6"/>
<path d="M254.203 31.8838C254.663 31.8838 255.154 31.9145 255.675 31.9758C256.227 32.0065 256.702 32.0678 257.101 32.1598L256.595 35.8858C256.196 35.7938 255.752 35.7171 255.261 35.6558C254.801 35.5945 254.356 35.5638 253.927 35.5638C252.976 35.5638 252.072 35.7631 251.213 36.1618C250.354 36.5605 249.588 37.1278 248.913 37.8638C248.238 38.5691 247.702 39.4278 247.303 40.4398C246.935 41.4518 246.751 42.5865 246.751 43.8438V56.9998H242.703V32.3438H246.015L246.475 36.8518H246.659C247.18 35.9318 247.809 35.1038 248.545 34.3678C249.281 33.6011 250.124 33.0031 251.075 32.5738C252.026 32.1138 253.068 31.8838 254.203 31.8838Z" fill="#555555"/>
<path d="M226.26 31.8838C228.376 31.8838 230.185 32.3438 231.688 33.2638C233.221 34.1838 234.387 35.4871 235.184 37.1738C236.012 38.8298 236.426 40.7771 236.426 43.0158V45.4538H219.544C219.605 48.2445 220.311 50.3758 221.66 51.8478C223.04 53.2891 224.957 54.0098 227.41 54.0098C228.974 54.0098 230.354 53.8718 231.55 53.5958C232.777 53.2891 234.034 52.8598 235.322 52.3078V55.8498C234.065 56.4018 232.823 56.8005 231.596 57.0458C230.369 57.3218 228.913 57.4598 227.226 57.4598C224.895 57.4598 222.825 56.9845 221.016 56.0338C219.237 55.0831 217.842 53.6725 216.83 51.8018C215.849 49.9005 215.358 47.5851 215.358 44.8558C215.358 42.1571 215.803 39.8418 216.692 37.9098C217.612 35.9778 218.885 34.4905 220.51 33.4478C222.166 32.4051 224.083 31.8838 226.26 31.8838ZM226.214 35.1958C224.282 35.1958 222.749 35.8245 221.614 37.0818C220.51 38.3085 219.851 40.0258 219.636 42.2338H232.194C232.194 40.8231 231.979 39.5965 231.55 38.5538C231.121 37.5111 230.461 36.6985 229.572 36.1158C228.713 35.5025 227.594 35.1958 226.214 35.1958Z" fill="#555555"/>
<path d="M198.807 57.0002L189.469 32.3442H193.793L199.037 46.8802C199.282 47.5549 199.543 48.3062 199.819 49.1342C200.095 49.9622 200.34 50.7596 200.555 51.5262C200.769 52.2622 200.923 52.8909 201.015 53.4122H201.199C201.321 52.8909 201.49 52.2469 201.705 51.4802C201.95 50.7136 202.211 49.9162 202.487 49.0882C202.793 48.2602 203.054 47.5242 203.269 46.8802L208.513 32.3442H212.837L203.453 57.0002H198.807Z" fill="#555555"/>
<path d="M185.877 31.8838C186.337 31.8838 186.828 31.9145 187.349 31.9758C187.901 32.0065 188.376 32.0678 188.775 32.1598L188.269 35.8858C187.87 35.7938 187.426 35.7171 186.935 35.6558C186.475 35.5945 186.03 35.5638 185.601 35.5638C184.65 35.5638 183.746 35.7631 182.887 36.1618C182.028 36.5605 181.262 37.1278 180.587 37.8638C179.912 38.5691 179.376 39.4278 178.977 40.4398C178.609 41.4518 178.425 42.5865 178.425 43.8438V56.9998H174.377V32.3438H177.689L178.149 36.8518H178.333C178.854 35.9318 179.483 35.1038 180.219 34.3678C180.955 33.6011 181.798 33.0031 182.749 32.5738C183.7 32.1138 184.742 31.8838 185.877 31.8838Z" fill="#555555"/>
<path d="M157.934 31.8838C160.05 31.8838 161.859 32.3438 163.362 33.2638C164.895 34.1838 166.061 35.4871 166.858 37.1738C167.686 38.8298 168.1 40.7771 168.1 43.0158V45.4538H151.218C151.279 48.2445 151.985 50.3758 153.334 51.8478C154.714 53.2891 156.631 54.0098 159.084 54.0098C160.648 54.0098 162.028 53.8718 163.224 53.5958C164.451 53.2891 165.708 52.8598 166.996 52.3078V55.8498C165.739 56.4018 164.497 56.8005 163.27 57.0458C162.043 57.3218 160.587 57.4598 158.9 57.4598C156.569 57.4598 154.499 56.9845 152.69 56.0338C150.911 55.0831 149.516 53.6725 148.504 51.8018C147.523 49.9005 147.032 47.5851 147.032 44.8558C147.032 42.1571 147.477 39.8418 148.366 37.9098C149.286 35.9778 150.559 34.4905 152.184 33.4478C153.84 32.4051 155.757 31.8838 157.934 31.8838ZM157.888 35.1958C155.956 35.1958 154.423 35.8245 153.288 37.0818C152.184 38.3085 151.525 40.0258 151.31 42.2338H163.868C163.868 40.8231 163.653 39.5965 163.224 38.5538C162.795 37.5111 162.135 36.6985 161.246 36.1158C160.387 35.5025 159.268 35.1958 157.888 35.1958Z" fill="#555555"/>
<path d="M142.348 48.2138C142.348 50.1765 141.872 51.8478 140.922 53.2278C139.971 54.5771 138.606 55.6198 136.828 56.3558C135.08 57.0918 133.01 57.4598 130.618 57.4598C129.391 57.4598 128.21 57.3985 127.076 57.2758C125.972 57.1531 124.96 56.9845 124.04 56.7698C123.12 56.5245 122.307 56.2331 121.602 55.8958V51.9398C122.706 52.4305 124.07 52.8751 125.696 53.2738C127.352 53.6725 129.054 53.8718 130.802 53.8718C132.427 53.8718 133.792 53.6571 134.896 53.2278C136 52.7985 136.828 52.1851 137.38 51.3878C137.932 50.5905 138.208 49.6551 138.208 48.5818C138.208 47.5085 137.978 46.6038 137.518 45.8678C137.058 45.1318 136.26 44.4571 135.126 43.8438C134.022 43.1998 132.473 42.5251 130.48 41.8198C129.069 41.2985 127.827 40.7465 126.754 40.1638C125.711 39.5505 124.837 38.8605 124.132 38.0938C123.426 37.3271 122.89 36.4531 122.522 35.4718C122.184 34.4905 122.016 33.3558 122.016 32.0678C122.016 30.3198 122.46 28.8325 123.35 27.6058C124.239 26.3485 125.466 25.3825 127.03 24.7078C128.624 24.0331 130.449 23.6958 132.504 23.6958C134.313 23.6958 135.969 23.8645 137.472 24.2018C138.974 24.5391 140.339 24.9838 141.566 25.5358L140.278 29.0778C139.143 28.5871 137.901 28.1731 136.552 27.8358C135.233 27.4985 133.853 27.3298 132.412 27.3298C131.032 27.3298 129.882 27.5291 128.962 27.9278C128.042 28.3265 127.352 28.8938 126.892 29.6298C126.432 30.3351 126.202 31.1631 126.202 32.1138C126.202 33.2178 126.432 34.1378 126.892 34.8738C127.352 35.6098 128.103 36.2691 129.146 36.8518C130.188 37.4345 131.599 38.0631 133.378 38.7378C135.31 39.4431 136.935 40.2098 138.254 41.0378C139.603 41.8351 140.615 42.8011 141.29 43.9358C141.995 45.0705 142.348 46.4965 142.348 48.2138Z" fill="#555555"/>
<path d="M87.6455 56.9998V24.1558H91.7855V53.3198H106.138V56.9998H87.6455Z" fill="#555555"/>
<path d="M80.366 40.5319C80.366 43.1999 79.998 45.6226 79.262 47.7999C78.5567 49.9772 77.4987 51.8172 76.088 53.3199C74.6773 54.8226 72.914 55.9266 70.798 56.6319L78.664 64.8199H72.73L66.382 57.4139C66.198 57.4139 65.9987 57.4139 65.784 57.4139C65.6 57.4446 65.416 57.4599 65.232 57.4599C62.656 57.4599 60.4173 57.0612 58.516 56.2639C56.6147 55.4359 55.0353 54.2859 53.778 52.8139C52.5207 51.3112 51.5853 49.5172 50.972 47.4319C50.3587 45.3466 50.052 43.0312 50.052 40.4859C50.052 37.1126 50.604 34.1686 51.708 31.6539C52.812 29.1392 54.4833 27.1766 56.722 25.7659C58.9913 24.3552 61.8433 23.6499 65.278 23.6499C68.5593 23.6499 71.3193 24.3552 73.558 25.7659C75.7967 27.1459 77.4833 29.1086 78.618 31.6539C79.7833 34.1686 80.366 37.1279 80.366 40.5319ZM54.422 40.5319C54.422 43.2919 54.8053 45.6686 55.572 47.6619C56.3387 49.6552 57.5193 51.1886 59.114 52.2619C60.7393 53.3352 62.7787 53.8719 65.232 53.8719C67.716 53.8719 69.74 53.3352 71.304 52.2619C72.8987 51.1886 74.0793 49.6552 74.846 47.6619C75.6127 45.6686 75.996 43.2919 75.996 40.5319C75.996 36.3919 75.1373 33.1566 73.42 30.8259C71.7027 28.4646 68.9887 27.2839 65.278 27.2839C62.794 27.2839 60.7393 27.8206 59.114 28.8939C57.5193 29.9366 56.3387 31.4546 55.572 33.4479C54.8053 35.4106 54.422 37.7719 54.422 40.5319Z" fill="#555555"/>
<path d="M45.0919 48.2138C45.0919 50.1765 44.6166 51.8478 43.6659 53.2278C42.7153 54.5771 41.3506 55.6198 39.5719 56.3558C37.8239 57.0918 35.7539 57.4598 33.3619 57.4598C32.1353 57.4598 30.9546 57.3985 29.8199 57.2758C28.7159 57.1531 27.7039 56.9845 26.7839 56.7698C25.8639 56.5245 25.0513 56.2331 24.3459 55.8958V51.9398C25.4499 52.4305 26.8146 52.8751 28.4399 53.2738C30.0959 53.6725 31.7979 53.8718 33.5459 53.8718C35.1713 53.8718 36.5359 53.6571 37.6399 53.2278C38.7439 52.7985 39.5719 52.1851 40.1239 51.3878C40.6759 50.5905 40.9519 49.6551 40.9519 48.5818C40.9519 47.5085 40.7219 46.6038 40.2619 45.8678C39.8019 45.1318 39.0046 44.4571 37.8699 43.8438C36.7659 43.1998 35.2173 42.5251 33.2239 41.8198C31.8133 41.2985 30.5713 40.7465 29.4979 40.1638C28.4553 39.5505 27.5813 38.8605 26.8759 38.0938C26.1706 37.3271 25.6339 36.4531 25.2659 35.4718C24.9286 34.4905 24.7599 33.3558 24.7599 32.0678C24.7599 30.3198 25.2046 28.8325 26.0939 27.6058C26.9833 26.3485 28.2099 25.3825 29.7739 24.7078C31.3686 24.0331 33.1933 23.6958 35.2479 23.6958C37.0573 23.6958 38.7133 23.8645 40.2159 24.2018C41.7186 24.5391 43.0833 24.9838 44.3099 25.5358L43.0219 29.0778C41.8873 28.5871 40.6453 28.1731 39.2959 27.8358C37.9773 27.4985 36.5973 27.3298 35.1559 27.3298C33.7759 27.3298 32.6259 27.5291 31.7059 27.9278C30.7859 28.3265 30.0959 28.8938 29.6359 29.6298C29.1759 30.3351 28.9459 31.1631 28.9459 32.1138C28.9459 33.2178 29.1759 34.1378 29.6359 34.8738C30.0959 35.6098 30.8473 36.2691 31.8899 36.8518C32.9326 37.4345 34.3433 38.0631 36.1219 38.7378C38.0539 39.4431 39.6793 40.2098 40.9979 41.0378C42.3473 41.8351 43.3593 42.8011 44.0339 43.9358C44.7393 45.0705 45.0919 46.4965 45.0919 48.2138Z" fill="#555555"/>
</svg>
