<svg width="580" height="285" viewBox="0 0 580 285" fill="none" xmlns="http://www.w3.org/2000/svg">
<path d="M17.6667 281C16.9333 281 16.3056 280.739 15.7833 280.217C15.2611 279.694 15 279.067 15 278.333V259.667C15 258.933 15.2611 258.306 15.7833 257.783C16.3056 257.261 16.9333 257 17.6667 257H36.3333C37.0667 257 37.6944 257.261 38.2167 257.783C38.7389 258.306 39 258.933 39 259.667V278.333C39 279.067 38.7389 279.694 38.2167 280.217C37.6944 280.739 37.0667 281 36.3333 281H17.6667ZM19 275.667H35L30 269L26 274.333L23 270.333L19 275.667Z" fill="#555555"/>
<path d="M55.3333 281V257H57.9999V259.667H60.6666V257H71.3333V259.667H73.9999V257H76.6666V281H73.9999V278.333H71.3333V281H60.6666V278.333H57.9999V281H55.3333ZM57.9999 275.667H60.6666V273H57.9999V275.667ZM57.9999 270.333H60.6666V267.667H57.9999V270.333ZM57.9999 265H60.6666V262.333H57.9999V265ZM71.3333 275.667H73.9999V273H71.3333V275.667ZM71.3333 270.333H73.9999V267.667H71.3333V270.333ZM71.3333 265H73.9999V262.333H71.3333V265Z" fill="#555555"/>
<path d="M0 16C0 7.16344 7.16344 0 16 0H564C572.837 0 580 7.16344 580 16V232C580 240.837 572.837 248 564 248H16C7.16345 248 0 240.837 0 232V16Z" fill="white"/>
<path d="M564 244V248H16V244H564ZM576 232V16C576 9.37259 570.627 4 564 4H16C9.47608 4 4.16811 9.20608 4.00391 15.6904L4 16V232C4 238.627 9.37258 244 16 244V248C7.16345 248 0 240.837 0 232V16C0 7.30155 6.94127 0.22398 15.5869 0.00488281L16 0H564L564.413 0.00488281C573.059 0.223985 580 7.30156 580 16V232C580 240.837 572.837 248 564 248V244C570.627 244 576 238.627 576 232Z" fill="#CECECE"/>
<path d="M533 39V33.3333L550.6 15.7667C550.867 15.5222 551.161 15.3333 551.483 15.2C551.806 15.0667 552.144 15 552.5 15C552.856 15 553.2 15.0667 553.533 15.2C553.867 15.3333 554.156 15.5333 554.4 15.8L556.233 17.6667C556.5 17.9111 556.694 18.2 556.817 18.5333C556.939 18.8667 557 19.2 557 19.5333C557 19.8889 556.939 20.2278 556.817 20.55C556.694 20.8722 556.5 21.1667 556.233 21.4333L538.667 39H533ZM552.467 21.4L554.333 19.5333L552.467 17.6667L550.6 19.5333L552.467 21.4Z" fill="#555555"/>
<mask id="mask0_345_746" style="mask-type:alpha" maskUnits="userSpaceOnUse" x="21" y="152" width="489" height="92">
<path d="M21 152H510V244H21V152Z" fill="#D9D9D9"/>
</mask>
<g mask="url(#mask0_345_746)">
<path d="M26 153H510V187H26V153Z" fill="#106EBE"/>
<path d="M510 185V187H26V185H510Z" fill="#8F8F8F"/>
<path d="M26 223H510V244H26V223Z" fill="#F5F5F5"/>
<path d="M510 223V225H26V223H510Z" fill="#8F8F8F"/>
<path d="M510 152V244H508V154H27V244H25V152H510Z" fill="#8F8F8F"/>
<path d="M500.075 165.656C500.251 165.656 500.459 165.664 500.699 165.68C500.939 165.696 501.131 165.72 501.275 165.752L501.011 169.112C500.899 169.08 500.731 169.056 500.507 169.04C500.299 169.008 500.115 168.992 499.955 168.992C499.491 168.992 499.043 169.056 498.611 169.184C498.179 169.296 497.787 169.48 497.435 169.736C497.099 169.992 496.827 170.336 496.619 170.768C496.427 171.184 496.331 171.704 496.331 172.328V179H492.755V165.896H495.467L495.995 168.104H496.163C496.419 167.656 496.739 167.248 497.123 166.88C497.507 166.512 497.947 166.216 498.443 165.992C498.955 165.768 499.499 165.656 500.075 165.656Z" fill="white"/>
<path d="M483.975 165.656C485.191 165.656 486.231 165.888 487.095 166.352C487.975 166.816 488.655 167.488 489.135 168.368C489.615 169.248 489.855 170.328 489.855 171.608V173.336H481.407C481.439 174.344 481.735 175.136 482.295 175.712C482.871 176.288 483.663 176.576 484.671 176.576C485.519 176.576 486.287 176.496 486.975 176.336C487.663 176.16 488.375 175.896 489.111 175.544V178.304C488.471 178.624 487.791 178.856 487.071 179C486.367 179.16 485.511 179.24 484.503 179.24C483.191 179.24 482.031 179 481.023 178.52C480.015 178.024 479.223 177.28 478.647 176.288C478.071 175.296 477.783 174.048 477.783 172.544C477.783 171.008 478.039 169.736 478.551 168.728C479.079 167.704 479.807 166.936 480.735 166.424C481.663 165.912 482.743 165.656 483.975 165.656ZM483.999 168.2C483.311 168.2 482.735 168.424 482.271 168.872C481.823 169.32 481.559 170.016 481.479 170.96H486.495C486.495 170.432 486.399 169.96 486.207 169.544C486.031 169.128 485.759 168.8 485.391 168.56C485.023 168.32 484.559 168.2 483.999 168.2Z" fill="white"/>
<path d="M467.54 179.24C466.084 179.24 464.892 178.672 463.964 177.536C463.052 176.384 462.596 174.696 462.596 172.472C462.596 170.232 463.06 168.536 463.988 167.384C464.916 166.232 466.132 165.656 467.636 165.656C468.26 165.656 468.812 165.744 469.292 165.92C469.772 166.08 470.18 166.304 470.516 166.592C470.868 166.88 471.164 167.208 471.404 167.576H471.524C471.476 167.32 471.42 166.952 471.356 166.472C471.292 165.976 471.26 165.472 471.26 164.96V160.76H474.836V179H472.1L471.404 177.296H471.26C471.036 177.648 470.748 177.976 470.396 178.28C470.06 178.568 469.66 178.8 469.196 178.976C468.732 179.152 468.18 179.24 467.54 179.24ZM468.788 176.384C469.78 176.384 470.476 176.096 470.876 175.52C471.276 174.928 471.484 174.048 471.5 172.88V172.496C471.5 171.216 471.3 170.24 470.9 169.568C470.516 168.896 469.796 168.56 468.74 168.56C467.956 168.56 467.34 168.904 466.892 169.592C466.444 170.264 466.22 171.24 466.22 172.52C466.22 173.8 466.444 174.768 466.892 175.424C467.34 176.064 467.972 176.384 468.788 176.384Z" fill="white"/>
<path d="M460.278 165.656C460.454 165.656 460.662 165.664 460.902 165.68C461.142 165.696 461.334 165.72 461.478 165.752L461.214 169.112C461.102 169.08 460.934 169.056 460.71 169.04C460.502 169.008 460.318 168.992 460.158 168.992C459.694 168.992 459.246 169.056 458.814 169.184C458.382 169.296 457.99 169.48 457.638 169.736C457.302 169.992 457.03 170.336 456.822 170.768C456.63 171.184 456.534 171.704 456.534 172.328V179H452.958V165.896H455.67L456.198 168.104H456.366C456.622 167.656 456.942 167.248 457.326 166.88C457.71 166.512 458.15 166.216 458.646 165.992C459.158 165.768 459.702 165.656 460.278 165.656Z" fill="white"/>
<path d="M449.696 170.408C449.696 171.736 449.528 172.944 449.192 174.032C448.872 175.104 448.376 176.032 447.704 176.816C447.048 177.6 446.2 178.2 445.16 178.616C444.136 179.032 442.928 179.24 441.536 179.24C440.144 179.24 438.928 179.032 437.888 178.616C436.864 178.184 436.016 177.584 435.344 176.816C434.688 176.032 434.192 175.096 433.856 174.008C433.536 172.92 433.376 171.712 433.376 170.384C433.376 168.608 433.664 167.064 434.24 165.752C434.832 164.44 435.728 163.424 436.928 162.704C438.144 161.968 439.688 161.6 441.56 161.6C443.416 161.6 444.944 161.968 446.144 162.704C447.344 163.424 448.232 164.448 448.808 165.776C449.4 167.088 449.696 168.632 449.696 170.408ZM437.192 170.408C437.192 171.608 437.344 172.64 437.648 173.504C437.952 174.368 438.424 175.032 439.064 175.496C439.704 175.96 440.528 176.192 441.536 176.192C442.576 176.192 443.408 175.96 444.032 175.496C444.672 175.032 445.136 174.368 445.424 173.504C445.728 172.64 445.88 171.608 445.88 170.408C445.88 168.6 445.544 167.184 444.872 166.16C444.2 165.136 443.096 164.624 441.56 164.624C440.536 164.624 439.704 164.856 439.064 165.32C438.424 165.784 437.952 166.448 437.648 167.312C437.344 168.176 437.192 169.208 437.192 170.408Z" fill="white"/>
<path d="M400.139 165.656C401.355 165.656 402.395 165.888 403.259 166.352C404.139 166.816 404.819 167.488 405.299 168.368C405.779 169.248 406.019 170.328 406.019 171.608V173.336H397.571C397.603 174.344 397.899 175.136 398.459 175.712C399.035 176.288 399.827 176.576 400.835 176.576C401.683 176.576 402.451 176.496 403.139 176.336C403.827 176.16 404.539 175.896 405.275 175.544V178.304C404.635 178.624 403.955 178.856 403.235 179C402.531 179.16 401.675 179.24 400.667 179.24C399.355 179.24 398.195 179 397.187 178.52C396.179 178.024 395.387 177.28 394.811 176.288C394.235 175.296 393.947 174.048 393.947 172.544C393.947 171.008 394.203 169.736 394.715 168.728C395.243 167.704 395.971 166.936 396.899 166.424C397.827 165.912 398.907 165.656 400.139 165.656ZM400.163 168.2C399.475 168.2 398.899 168.424 398.435 168.872C397.987 169.32 397.723 170.016 397.643 170.96H402.659C402.659 170.432 402.563 169.96 402.371 169.544C402.195 169.128 401.923 168.8 401.555 168.56C401.187 168.32 400.723 168.2 400.163 168.2Z" fill="white"/>
<path d="M387.739 179.24C386.443 179.24 385.339 179.008 384.427 178.544C383.515 178.064 382.819 177.328 382.339 176.336C381.859 175.344 381.619 174.072 381.619 172.52C381.619 170.92 381.891 169.616 382.435 168.608C382.979 167.6 383.731 166.856 384.691 166.376C385.667 165.896 386.787 165.656 388.051 165.656C388.947 165.656 389.723 165.744 390.379 165.92C391.051 166.096 391.635 166.304 392.131 166.544L391.075 169.304C390.515 169.08 389.987 168.896 389.491 168.752C389.011 168.608 388.531 168.536 388.051 168.536C387.427 168.536 386.907 168.688 386.491 168.992C386.075 169.28 385.763 169.72 385.555 170.312C385.363 170.888 385.267 171.616 385.267 172.496C385.267 173.36 385.371 174.08 385.579 174.656C385.803 175.216 386.123 175.64 386.539 175.928C386.955 176.2 387.459 176.336 388.051 176.336C388.803 176.336 389.467 176.24 390.043 176.048C390.619 175.84 391.179 175.56 391.723 175.208V178.256C391.179 178.608 390.603 178.856 389.995 179C389.403 179.16 388.651 179.24 387.739 179.24Z" fill="white"/>
<path d="M378.675 165.896V179H375.099V165.896H378.675ZM376.899 160.76C377.427 160.76 377.883 160.888 378.267 161.144C378.651 161.384 378.843 161.84 378.843 162.512C378.843 163.168 378.651 163.624 378.267 163.88C377.883 164.136 377.427 164.264 376.899 164.264C376.355 164.264 375.891 164.136 375.507 163.88C375.139 163.624 374.955 163.168 374.955 162.512C374.955 161.84 375.139 161.384 375.507 161.144C375.891 160.888 376.355 160.76 376.899 160.76Z" fill="white"/>
<path d="M371.52 165.656C371.696 165.656 371.904 165.664 372.144 165.68C372.384 165.696 372.576 165.72 372.72 165.752L372.456 169.112C372.344 169.08 372.176 169.056 371.952 169.04C371.744 169.008 371.56 168.992 371.4 168.992C370.936 168.992 370.488 169.056 370.056 169.184C369.624 169.296 369.232 169.48 368.88 169.736C368.544 169.992 368.272 170.336 368.064 170.768C367.872 171.184 367.776 171.704 367.776 172.328V179H364.2V165.896H366.912L367.44 168.104H367.608C367.864 167.656 368.184 167.248 368.568 166.88C368.952 166.512 369.392 166.216 369.888 165.992C370.4 165.768 370.944 165.656 371.52 165.656Z" fill="white"/>
<path d="M354.89 161.864C357.098 161.864 358.706 162.344 359.714 163.304C360.738 164.248 361.25 165.552 361.25 167.216C361.25 167.968 361.138 168.688 360.914 169.376C360.69 170.048 360.314 170.656 359.786 171.2C359.274 171.728 358.594 172.144 357.746 172.448C356.898 172.752 355.85 172.904 354.602 172.904H353.042V179H349.418V161.864H354.89ZM354.698 164.84H353.042V169.928H354.242C354.93 169.928 355.522 169.84 356.018 169.664C356.514 169.488 356.898 169.208 357.17 168.824C357.442 168.44 357.578 167.944 357.578 167.336C357.578 166.488 357.346 165.864 356.882 165.464C356.418 165.048 355.69 164.84 354.698 164.84Z" fill="white"/>
<path d="M308.145 165.656C308.321 165.656 308.529 165.664 308.769 165.68C309.009 165.696 309.201 165.72 309.345 165.752L309.081 169.112C308.969 169.08 308.801 169.056 308.577 169.04C308.369 169.008 308.185 168.992 308.025 168.992C307.561 168.992 307.113 169.056 306.681 169.184C306.249 169.296 305.857 169.48 305.505 169.736C305.169 169.992 304.897 170.336 304.689 170.768C304.497 171.184 304.401 171.704 304.401 172.328V179H300.825V165.896H303.537L304.065 168.104H304.233C304.489 167.656 304.809 167.248 305.193 166.88C305.577 166.512 306.017 166.216 306.513 165.992C307.025 165.768 307.569 165.656 308.145 165.656Z" fill="white"/>
<path d="M297.87 172.424C297.87 173.512 297.718 174.48 297.414 175.328C297.126 176.176 296.702 176.896 296.142 177.488C295.598 178.064 294.934 178.504 294.15 178.808C293.366 179.096 292.478 179.24 291.486 179.24C290.574 179.24 289.726 179.096 288.942 178.808C288.174 178.504 287.51 178.064 286.95 177.488C286.39 176.896 285.95 176.176 285.63 175.328C285.326 174.48 285.174 173.512 285.174 172.424C285.174 170.968 285.43 169.744 285.942 168.752C286.454 167.744 287.19 166.976 288.15 166.448C289.11 165.92 290.246 165.656 291.558 165.656C292.79 165.656 293.878 165.92 294.822 166.448C295.766 166.976 296.51 167.744 297.054 168.752C297.598 169.744 297.87 170.968 297.87 172.424ZM288.822 172.424C288.822 173.288 288.91 174.016 289.086 174.608C289.278 175.184 289.574 175.624 289.974 175.928C290.374 176.216 290.894 176.36 291.534 176.36C292.174 176.36 292.686 176.216 293.07 175.928C293.47 175.624 293.758 175.184 293.934 174.608C294.126 174.016 294.222 173.288 294.222 172.424C294.222 171.56 294.126 170.84 293.934 170.264C293.758 169.688 293.47 169.256 293.07 168.968C292.67 168.68 292.15 168.536 291.51 168.536C290.566 168.536 289.878 168.864 289.446 169.52C289.03 170.16 288.822 171.128 288.822 172.424Z" fill="white"/>
<path d="M273.768 164.48C273.768 165.12 273.744 165.736 273.696 166.328C273.664 166.92 273.632 167.336 273.6 167.576H273.792C274.08 167.128 274.416 166.768 274.8 166.496C275.184 166.208 275.608 166 276.072 165.872C276.552 165.728 277.056 165.656 277.584 165.656C278.528 165.656 279.352 165.824 280.056 166.16C280.76 166.496 281.304 167.016 281.688 167.72C282.088 168.424 282.288 169.336 282.288 170.456V179H278.712V171.344C278.712 170.4 278.536 169.696 278.184 169.232C277.848 168.752 277.32 168.512 276.6 168.512C275.88 168.512 275.312 168.68 274.896 169.016C274.496 169.352 274.208 169.84 274.032 170.48C273.856 171.12 273.768 171.904 273.768 172.832V179H270.192V160.76H273.768V164.48Z" fill="white"/>
<path d="M265.306 176.384C265.706 176.384 266.09 176.344 266.458 176.264C266.826 176.184 267.194 176.088 267.562 175.976V178.64C267.178 178.8 266.698 178.936 266.122 179.048C265.562 179.176 264.946 179.24 264.274 179.24C263.49 179.24 262.786 179.112 262.162 178.856C261.554 178.6 261.066 178.16 260.698 177.536C260.346 176.896 260.17 176.016 260.17 174.896V168.584H258.466V167.072L260.434 165.872L261.466 163.112H263.746V165.896H267.418V168.584H263.746V174.896C263.746 175.392 263.89 175.768 264.178 176.024C264.466 176.264 264.842 176.384 265.306 176.384Z" fill="white"/>
<path d="M256.036 165.896V179H253.3L252.82 177.32H252.628C252.356 177.768 252.004 178.136 251.572 178.424C251.156 178.696 250.692 178.896 250.18 179.024C249.668 179.168 249.14 179.24 248.596 179.24C247.668 179.24 246.852 179.072 246.148 178.736C245.444 178.4 244.9 177.88 244.516 177.176C244.132 176.472 243.94 175.56 243.94 174.44V165.896H247.516V173.552C247.516 174.48 247.684 175.184 248.02 175.664C248.356 176.144 248.892 176.384 249.628 176.384C250.364 176.384 250.932 176.216 251.332 175.88C251.748 175.544 252.036 175.056 252.196 174.416C252.372 173.776 252.46 172.992 252.46 172.064V165.896H256.036Z" fill="white"/>
<path d="M238.218 179L236.97 174.92H230.73L229.482 179H225.57L231.618 161.792H236.058L242.13 179H238.218ZM234.858 167.888C234.778 167.616 234.674 167.272 234.546 166.856C234.418 166.44 234.29 166.016 234.162 165.584C234.034 165.152 233.93 164.776 233.85 164.456C233.77 164.776 233.658 165.176 233.514 165.656C233.386 166.12 233.258 166.568 233.13 167C233.018 167.416 232.93 167.712 232.866 167.888L231.642 171.872H236.106L234.858 167.888Z" fill="white"/>
<path d="M128.854 168.92C128.854 169.416 128.83 169.912 128.782 170.408C128.75 170.888 128.71 171.376 128.662 171.872H128.71C128.87 171.648 129.03 171.424 129.19 171.2C129.366 170.976 129.542 170.752 129.718 170.528C129.894 170.304 130.078 170.088 130.27 169.88L133.942 165.896H137.974L132.766 171.584L138.286 179H134.158L130.39 173.696L128.854 174.92V179H125.278V160.76H128.854V168.92Z" fill="white"/>
<path d="M122.323 172.424C122.323 173.512 122.171 174.48 121.867 175.328C121.579 176.176 121.155 176.896 120.595 177.488C120.051 178.064 119.387 178.504 118.603 178.808C117.819 179.096 116.931 179.24 115.939 179.24C115.027 179.24 114.179 179.096 113.395 178.808C112.627 178.504 111.963 178.064 111.403 177.488C110.843 176.896 110.403 176.176 110.083 175.328C109.779 174.48 109.627 173.512 109.627 172.424C109.627 170.968 109.883 169.744 110.395 168.752C110.907 167.744 111.643 166.976 112.603 166.448C113.563 165.92 114.699 165.656 116.011 165.656C117.243 165.656 118.331 165.92 119.275 166.448C120.219 166.976 120.963 167.744 121.507 168.752C122.051 169.744 122.323 170.968 122.323 172.424ZM113.275 172.424C113.275 173.288 113.363 174.016 113.539 174.608C113.731 175.184 114.027 175.624 114.427 175.928C114.827 176.216 115.347 176.36 115.987 176.36C116.627 176.36 117.139 176.216 117.523 175.928C117.923 175.624 118.211 175.184 118.387 174.608C118.579 174.016 118.675 173.288 118.675 172.424C118.675 171.56 118.579 170.84 118.387 170.264C118.211 169.688 117.923 169.256 117.523 168.968C117.123 168.68 116.603 168.536 115.963 168.536C115.019 168.536 114.331 168.864 113.899 169.52C113.483 170.16 113.275 171.128 113.275 172.424Z" fill="white"/>
<path d="M107.464 172.424C107.464 173.512 107.312 174.48 107.008 175.328C106.72 176.176 106.296 176.896 105.736 177.488C105.192 178.064 104.528 178.504 103.744 178.808C102.96 179.096 102.072 179.24 101.08 179.24C100.168 179.24 99.3196 179.096 98.5356 178.808C97.7676 178.504 97.1036 178.064 96.5436 177.488C95.9836 176.896 95.5436 176.176 95.2236 175.328C94.9196 174.48 94.7676 173.512 94.7676 172.424C94.7676 170.968 95.0236 169.744 95.5356 168.752C96.0476 167.744 96.7836 166.976 97.7436 166.448C98.7036 165.92 99.8396 165.656 101.152 165.656C102.384 165.656 103.472 165.92 104.416 166.448C105.36 166.976 106.104 167.744 106.648 168.752C107.192 169.744 107.464 170.968 107.464 172.424ZM98.4156 172.424C98.4156 173.288 98.5036 174.016 98.6796 174.608C98.8716 175.184 99.1676 175.624 99.5676 175.928C99.9676 176.216 100.488 176.36 101.128 176.36C101.768 176.36 102.28 176.216 102.664 175.928C103.064 175.624 103.352 175.184 103.528 174.608C103.72 174.016 103.816 173.288 103.816 172.424C103.816 171.56 103.72 170.84 103.528 170.264C103.352 169.688 103.064 169.256 102.664 168.968C102.264 168.68 101.744 168.536 101.104 168.536C100.16 168.536 99.4716 168.864 99.0396 169.52C98.6236 170.16 98.4156 171.128 98.4156 172.424Z" fill="white"/>
<path d="M85.0504 161.864C86.5704 161.864 87.8424 162.008 88.8664 162.296C89.9064 162.568 90.6824 163.024 91.1944 163.664C91.7224 164.288 91.9864 165.136 91.9864 166.208C91.9864 166.848 91.8824 167.432 91.6744 167.96C91.4664 168.488 91.1624 168.92 90.7624 169.256C90.3784 169.592 89.9064 169.808 89.3464 169.904V170.024C89.9224 170.136 90.4424 170.336 90.9064 170.624C91.3704 170.912 91.7384 171.328 92.0104 171.872C92.2824 172.416 92.4184 173.136 92.4184 174.032C92.4184 175.072 92.1624 175.968 91.6504 176.72C91.1544 177.456 90.4344 178.024 89.4904 178.424C88.5464 178.808 87.4264 179 86.1304 179H79.7224V161.864H85.0504ZM85.4584 168.656C86.5144 168.656 87.2424 168.488 87.6424 168.152C88.0584 167.816 88.2664 167.328 88.2664 166.688C88.2664 166.032 88.0264 165.56 87.5464 165.272C87.0664 164.984 86.3064 164.84 85.2664 164.84H83.3464V168.656H85.4584ZM83.3464 171.536V176H85.7224C86.8104 176 87.5704 175.792 88.0024 175.376C88.4344 174.944 88.6504 174.376 88.6504 173.672C88.6504 173.24 88.5544 172.864 88.3624 172.544C88.1864 172.224 87.8744 171.976 87.4264 171.8C86.9784 171.624 86.3704 171.536 85.6024 171.536H83.3464Z" fill="white"/>
<path d="M63.696 170.264C63.696 172.184 63.328 173.792 62.592 175.088C61.856 176.384 60.784 177.36 59.376 178.016C57.984 178.672 56.304 179 54.336 179H49.488V161.864H54.864C56.656 161.864 58.208 162.184 59.52 162.824C60.848 163.464 61.872 164.408 62.592 165.656C63.328 166.888 63.696 168.424 63.696 170.264ZM59.928 170.36C59.928 169.096 59.744 168.056 59.376 167.24C59.008 166.424 58.456 165.824 57.72 165.44C57 165.04 56.112 164.84 55.056 164.84H53.112V176H54.672C56.448 176 57.768 175.528 58.632 174.584C59.496 173.64 59.928 172.232 59.928 170.36Z" fill="white"/>
<path d="M46.5681 179H38.7681V176.936L40.8561 175.976V164.888L38.7681 163.928V161.864H46.5681V163.928L44.4801 164.888V175.976L46.5681 176.936V179Z" fill="white"/>
<path d="M74 244L72 244L72 153L74 153L74 244ZM216.5 244L214.5 244L214.5 153L216.5 153L216.5 244ZM339 244L337 244L337 153L339 153L339 244ZM426.5 244L424.5 244L424.5 153L426.5 153L426.5 244Z" fill="#8F8F8F"/>
<path d="M50.4801 246H39.1521V244.248L43.6401 239.712C44.5041 238.848 45.2321 238.08 45.8241 237.408C46.4161 236.736 46.8641 236.08 47.1681 235.44C47.4721 234.784 47.6241 234.072 47.6241 233.304C47.6241 232.36 47.3441 231.648 46.7841 231.168C46.2241 230.672 45.4961 230.424 44.6001 230.424C43.7681 230.424 43.0321 230.568 42.3921 230.856C41.7681 231.144 41.1281 231.544 40.4721 232.056L39.3441 230.64C39.7921 230.256 40.2801 229.912 40.8081 229.608C41.3521 229.304 41.9361 229.064 42.5601 228.888C43.2001 228.712 43.8801 228.624 44.6001 228.624C45.6721 228.624 46.5921 228.808 47.3601 229.176C48.1281 229.544 48.7201 230.072 49.1361 230.76C49.5681 231.432 49.7841 232.24 49.7841 233.184C49.7841 233.856 49.6801 234.496 49.4721 235.104C49.2641 235.696 48.9681 236.28 48.5841 236.856C48.2001 237.432 47.7361 238.016 47.1921 238.608C46.6481 239.2 46.0481 239.816 45.3921 240.456L41.8161 243.984V244.08H50.4801V246Z" fill="#888888"/>
<path d="M46.52 214H44.456V202.024C44.456 201.56 44.456 201.168 44.456 200.848C44.472 200.528 44.488 200.232 44.504 199.96C44.52 199.672 44.536 199.376 44.552 199.072C44.296 199.328 44.064 199.544 43.856 199.72C43.648 199.896 43.384 200.12 43.064 200.392L41.24 201.88L40.136 200.464L44.768 196.864H46.52V214Z" fill="#888888"/>
<path d="M156.144 246H144.816V244.248L149.304 239.712C150.168 238.848 150.896 238.08 151.488 237.408C152.08 236.736 152.528 236.08 152.832 235.44C153.136 234.784 153.288 234.072 153.288 233.304C153.288 232.36 153.008 231.648 152.448 231.168C151.888 230.672 151.16 230.424 150.264 230.424C149.432 230.424 148.696 230.568 148.056 230.856C147.432 231.144 146.792 231.544 146.136 232.056L145.008 230.64C145.456 230.256 145.944 229.912 146.472 229.608C147.016 229.304 147.6 229.064 148.224 228.888C148.864 228.712 149.544 228.624 150.264 228.624C151.336 228.624 152.256 228.808 153.024 229.176C153.792 229.544 154.384 230.072 154.8 230.76C155.232 231.432 155.448 232.24 155.448 233.184C155.448 233.856 155.344 234.496 155.136 235.104C154.928 235.696 154.632 236.28 154.248 236.856C153.864 237.432 153.4 238.016 152.856 238.608C152.312 239.2 151.712 239.816 151.056 240.456L147.48 243.984V244.08H156.144V246Z" fill="#888888"/>
<path d="M142.481 237.408C142.481 238.8 142.377 240.04 142.169 241.128C141.961 242.216 141.625 243.144 141.161 243.912C140.713 244.664 140.121 245.24 139.385 245.64C138.665 246.04 137.793 246.24 136.769 246.24C135.489 246.24 134.425 245.888 133.577 245.184C132.745 244.48 132.121 243.472 131.705 242.16C131.305 240.832 131.105 239.248 131.105 237.408C131.105 235.552 131.289 233.968 131.657 232.656C132.041 231.344 132.649 230.344 133.481 229.656C134.313 228.952 135.409 228.6 136.769 228.6C138.049 228.6 139.113 228.952 139.961 229.656C140.809 230.344 141.441 231.344 141.857 232.656C142.273 233.968 142.481 235.552 142.481 237.408ZM133.217 237.408C133.217 238.976 133.329 240.28 133.553 241.32C133.793 242.36 134.169 243.144 134.681 243.672C135.209 244.184 135.905 244.44 136.769 244.44C137.633 244.44 138.321 244.184 138.833 243.672C139.361 243.16 139.745 242.384 139.985 241.344C140.225 240.288 140.345 238.976 140.345 237.408C140.345 235.84 140.225 234.544 139.985 233.52C139.745 232.48 139.361 231.704 138.833 231.192C138.321 230.664 137.633 230.4 136.769 230.4C135.905 230.4 135.209 230.664 134.681 231.192C134.169 231.704 133.793 232.48 133.553 233.52C133.329 234.544 133.217 235.84 133.217 237.408Z" fill="#888888"/>
<path d="M123.391 232.896C124.495 232.896 125.439 233.136 126.223 233.616C127.023 234.096 127.631 234.776 128.047 235.656C128.479 236.52 128.695 237.536 128.695 238.704V239.976H119.887C119.919 241.432 120.287 242.544 120.991 243.312C121.711 244.064 122.711 244.44 123.991 244.44C124.807 244.44 125.527 244.368 126.151 244.224C126.791 244.064 127.447 243.84 128.119 243.552V245.4C127.463 245.688 126.815 245.896 126.175 246.024C125.535 246.168 124.775 246.24 123.895 246.24C122.679 246.24 121.599 245.992 120.655 245.496C119.727 245 118.999 244.264 118.471 243.288C117.959 242.296 117.703 241.088 117.703 239.664C117.703 238.256 117.935 237.048 118.399 236.04C118.879 235.032 119.543 234.256 120.391 233.712C121.255 233.168 122.255 232.896 123.391 232.896ZM123.367 234.624C122.359 234.624 121.559 234.952 120.967 235.608C120.391 236.248 120.047 237.144 119.935 238.296H126.487C126.487 237.56 126.375 236.92 126.151 236.376C125.927 235.832 125.583 235.408 125.119 235.104C124.671 234.784 124.087 234.624 123.367 234.624Z" fill="#888888"/>
<path d="M114.347 246H112.235V227.76H114.347V246Z" fill="#888888"/>
<path d="M107.859 244.512C108.179 244.512 108.507 244.488 108.843 244.44C109.179 244.376 109.451 244.312 109.659 244.248V245.856C109.435 245.968 109.115 246.056 108.699 246.12C108.283 246.2 107.883 246.24 107.499 246.24C106.827 246.24 106.203 246.128 105.627 245.904C105.067 245.664 104.611 245.256 104.259 244.68C103.907 244.104 103.731 243.296 103.731 242.256V234.768H101.907V233.76L103.755 232.92L104.595 230.184H105.843V233.136H109.563V234.768H105.843V242.208C105.843 242.992 106.027 243.576 106.395 243.96C106.779 244.328 107.267 244.512 107.859 244.512Z" fill="#888888"/>
<path d="M99.488 233.136V246H97.376V233.136H99.488ZM98.456 228.312C98.776 228.312 99.056 228.424 99.296 228.648C99.552 228.856 99.68 229.192 99.68 229.656C99.68 230.104 99.552 230.44 99.296 230.664C99.056 230.888 98.776 231 98.456 231C98.104 231 97.808 230.888 97.568 230.664C97.328 230.44 97.208 230.104 97.208 229.656C97.208 229.192 97.328 228.856 97.568 228.648C97.808 228.424 98.104 228.312 98.456 228.312Z" fill="#888888"/>
<path d="M89.752 246H87.592V230.76H82.24V228.864H95.08V230.76H89.752V246Z" fill="#888888"/>
<path d="M152.184 214H150.12V202.024C150.12 201.56 150.12 201.168 150.12 200.848C150.136 200.528 150.152 200.232 150.168 199.96C150.184 199.672 150.2 199.376 150.216 199.072C149.96 199.328 149.728 199.544 149.52 199.72C149.312 199.896 149.048 200.12 148.728 200.392L146.904 201.88L145.8 200.464L150.432 196.864H152.184V214Z" fill="#888888"/>
<path d="M142.481 205.408C142.481 206.8 142.377 208.04 142.169 209.128C141.961 210.216 141.625 211.144 141.161 211.912C140.713 212.664 140.121 213.24 139.385 213.64C138.665 214.04 137.793 214.24 136.769 214.24C135.489 214.24 134.425 213.888 133.577 213.184C132.745 212.48 132.121 211.472 131.705 210.16C131.305 208.832 131.105 207.248 131.105 205.408C131.105 203.552 131.289 201.968 131.657 200.656C132.041 199.344 132.649 198.344 133.481 197.656C134.313 196.952 135.409 196.6 136.769 196.6C138.049 196.6 139.113 196.952 139.961 197.656C140.809 198.344 141.441 199.344 141.857 200.656C142.273 201.968 142.481 203.552 142.481 205.408ZM133.217 205.408C133.217 206.976 133.329 208.28 133.553 209.32C133.793 210.36 134.169 211.144 134.681 211.672C135.209 212.184 135.905 212.44 136.769 212.44C137.633 212.44 138.321 212.184 138.833 211.672C139.361 211.16 139.745 210.384 139.985 209.344C140.225 208.288 140.345 206.976 140.345 205.408C140.345 203.84 140.225 202.544 139.985 201.52C139.745 200.48 139.361 199.704 138.833 199.192C138.321 198.664 137.633 198.4 136.769 198.4C135.905 198.4 135.209 198.664 134.681 199.192C134.169 199.704 133.793 200.48 133.553 201.52C133.329 202.544 133.217 203.84 133.217 205.408Z" fill="#888888"/>
<path d="M123.391 200.896C124.495 200.896 125.439 201.136 126.223 201.616C127.023 202.096 127.631 202.776 128.047 203.656C128.479 204.52 128.695 205.536 128.695 206.704V207.976H119.887C119.919 209.432 120.287 210.544 120.991 211.312C121.711 212.064 122.711 212.44 123.991 212.44C124.807 212.44 125.527 212.368 126.151 212.224C126.791 212.064 127.447 211.84 128.119 211.552V213.4C127.463 213.688 126.815 213.896 126.175 214.024C125.535 214.168 124.775 214.24 123.895 214.24C122.679 214.24 121.599 213.992 120.655 213.496C119.727 213 118.999 212.264 118.471 211.288C117.959 210.296 117.703 209.088 117.703 207.664C117.703 206.256 117.935 205.048 118.399 204.04C118.879 203.032 119.543 202.256 120.391 201.712C121.255 201.168 122.255 200.896 123.391 200.896ZM123.367 202.624C122.359 202.624 121.559 202.952 120.967 203.608C120.391 204.248 120.047 205.144 119.935 206.296H126.487C126.487 205.56 126.375 204.92 126.151 204.376C125.927 203.832 125.583 203.408 125.119 203.104C124.671 202.784 124.087 202.624 123.367 202.624Z" fill="#888888"/>
<path d="M114.347 214H112.235V195.76H114.347V214Z" fill="#888888"/>
<path d="M107.859 212.512C108.179 212.512 108.507 212.488 108.843 212.44C109.179 212.376 109.451 212.312 109.659 212.248V213.856C109.435 213.968 109.115 214.056 108.699 214.12C108.283 214.2 107.883 214.24 107.499 214.24C106.827 214.24 106.203 214.128 105.627 213.904C105.067 213.664 104.611 213.256 104.259 212.68C103.907 212.104 103.731 211.296 103.731 210.256V202.768H101.907V201.76L103.755 200.92L104.595 198.184H105.843V201.136H109.563V202.768H105.843V210.208C105.843 210.992 106.027 211.576 106.395 211.96C106.779 212.328 107.267 212.512 107.859 212.512Z" fill="#888888"/>
<path d="M99.488 201.136V214H97.376V201.136H99.488ZM98.456 196.312C98.776 196.312 99.056 196.424 99.296 196.648C99.552 196.856 99.68 197.192 99.68 197.656C99.68 198.104 99.552 198.44 99.296 198.664C99.056 198.888 98.776 199 98.456 199C98.104 199 97.808 198.888 97.568 198.664C97.328 198.44 97.208 198.104 97.208 197.656C97.208 197.192 97.328 196.856 97.568 196.648C97.808 196.424 98.104 196.312 98.456 196.312Z" fill="#888888"/>
<path d="M89.752 214H87.592V198.76H82.24V196.864H95.08V198.76H89.752V214Z" fill="#888888"/>
<path d="M317.878 246H306.55V244.248L311.038 239.712C311.902 238.848 312.63 238.08 313.222 237.408C313.814 236.736 314.262 236.08 314.566 235.44C314.87 234.784 315.022 234.072 315.022 233.304C315.022 232.36 314.742 231.648 314.182 231.168C313.622 230.672 312.894 230.424 311.998 230.424C311.166 230.424 310.43 230.568 309.79 230.856C309.166 231.144 308.526 231.544 307.87 232.056L306.742 230.64C307.19 230.256 307.678 229.912 308.206 229.608C308.75 229.304 309.334 229.064 309.958 228.888C310.598 228.712 311.278 228.624 311.998 228.624C313.07 228.624 313.99 228.808 314.758 229.176C315.526 229.544 316.118 230.072 316.534 230.76C316.966 231.432 317.182 232.24 317.182 233.184C317.182 233.856 317.078 234.496 316.87 235.104C316.662 235.696 316.366 236.28 315.982 236.856C315.598 237.432 315.134 238.016 314.59 238.608C314.046 239.2 313.446 239.816 312.79 240.456L309.214 243.984V244.08H317.878V246Z" fill="#888888"/>
<path d="M304.216 237.408C304.216 238.8 304.112 240.04 303.904 241.128C303.696 242.216 303.36 243.144 302.896 243.912C302.448 244.664 301.856 245.24 301.12 245.64C300.4 246.04 299.528 246.24 298.504 246.24C297.224 246.24 296.16 245.888 295.312 245.184C294.48 244.48 293.856 243.472 293.44 242.16C293.04 240.832 292.84 239.248 292.84 237.408C292.84 235.552 293.024 233.968 293.392 232.656C293.776 231.344 294.384 230.344 295.216 229.656C296.048 228.952 297.144 228.6 298.504 228.6C299.784 228.6 300.848 228.952 301.696 229.656C302.544 230.344 303.176 231.344 303.592 232.656C304.008 233.968 304.216 235.552 304.216 237.408ZM294.952 237.408C294.952 238.976 295.064 240.28 295.288 241.32C295.528 242.36 295.904 243.144 296.416 243.672C296.944 244.184 297.64 244.44 298.504 244.44C299.368 244.44 300.056 244.184 300.568 243.672C301.096 243.16 301.48 242.384 301.72 241.344C301.96 240.288 302.08 238.976 302.08 237.408C302.08 235.84 301.96 234.544 301.72 233.52C301.48 232.48 301.096 231.704 300.568 231.192C300.056 230.664 299.368 230.4 298.504 230.4C297.64 230.4 296.944 230.664 296.416 231.192C295.904 231.704 295.528 232.48 295.288 233.52C295.064 234.544 294.952 235.84 294.952 237.408Z" fill="#888888"/>
<path d="M285.125 232.896C286.229 232.896 287.173 233.136 287.957 233.616C288.757 234.096 289.365 234.776 289.781 235.656C290.213 236.52 290.429 237.536 290.429 238.704V239.976H281.621C281.653 241.432 282.021 242.544 282.725 243.312C283.445 244.064 284.445 244.44 285.725 244.44C286.541 244.44 287.261 244.368 287.885 244.224C288.525 244.064 289.181 243.84 289.853 243.552V245.4C289.197 245.688 288.549 245.896 287.909 246.024C287.269 246.168 286.509 246.24 285.629 246.24C284.413 246.24 283.333 245.992 282.389 245.496C281.461 245 280.733 244.264 280.205 243.288C279.693 242.296 279.437 241.088 279.437 239.664C279.437 238.256 279.669 237.048 280.133 236.04C280.613 235.032 281.277 234.256 282.125 233.712C282.989 233.168 283.989 232.896 285.125 232.896ZM285.101 234.624C284.093 234.624 283.293 234.952 282.701 235.608C282.125 236.248 281.781 237.144 281.669 238.296H288.221C288.221 237.56 288.109 236.92 287.885 236.376C287.661 235.832 287.317 235.408 286.853 235.104C286.405 234.784 285.821 234.624 285.101 234.624Z" fill="#888888"/>
<path d="M271.84 232.896C273.296 232.896 274.384 233.272 275.104 234.024C275.824 234.76 276.184 235.96 276.184 237.624V246H274.096V237.72C274.096 236.712 273.88 235.952 273.448 235.44C273.032 234.928 272.376 234.672 271.48 234.672C270.232 234.672 269.336 235.032 268.792 235.752C268.264 236.472 268 237.52 268 238.896V246H265.912V237.72C265.912 237.048 265.816 236.488 265.624 236.04C265.432 235.576 265.144 235.232 264.76 235.008C264.376 234.784 263.88 234.672 263.272 234.672C262.408 234.672 261.728 234.856 261.232 235.224C260.736 235.576 260.376 236.096 260.152 236.784C259.944 237.472 259.84 238.32 259.84 239.328V246H257.728V233.136H259.432L259.744 234.888H259.864C260.136 234.44 260.464 234.072 260.848 233.784C261.248 233.48 261.688 233.256 262.168 233.112C262.648 232.968 263.144 232.896 263.656 232.896C264.648 232.896 265.472 233.072 266.128 233.424C266.8 233.776 267.288 234.32 267.592 235.056H267.712C268.144 234.32 268.728 233.776 269.464 233.424C270.216 233.072 271.008 232.896 271.84 232.896Z" fill="#888888"/>
<path d="M249.146 232.92C250.714 232.92 251.874 233.264 252.626 233.952C253.378 234.64 253.754 235.736 253.754 237.24V246H252.218L251.81 244.176H251.714C251.346 244.64 250.962 245.032 250.562 245.352C250.178 245.656 249.73 245.88 249.218 246.024C248.722 246.168 248.114 246.24 247.394 246.24C246.626 246.24 245.93 246.104 245.306 245.832C244.698 245.56 244.218 245.144 243.866 244.584C243.514 244.008 243.338 243.288 243.338 242.424C243.338 241.144 243.842 240.16 244.85 239.472C245.858 238.768 247.41 238.384 249.506 238.32L251.69 238.248V237.48C251.69 236.408 251.458 235.664 250.994 235.248C250.53 234.832 249.874 234.624 249.026 234.624C248.354 234.624 247.714 234.728 247.106 234.936C246.498 235.128 245.93 235.352 245.402 235.608L244.754 234.024C245.314 233.72 245.978 233.464 246.746 233.256C247.514 233.032 248.314 232.92 249.146 232.92ZM249.77 239.784C248.17 239.848 247.058 240.104 246.434 240.552C245.826 241 245.522 241.632 245.522 242.448C245.522 243.168 245.738 243.696 246.17 244.032C246.618 244.368 247.186 244.536 247.874 244.536C248.962 244.536 249.866 244.24 250.586 243.648C251.306 243.04 251.666 242.112 251.666 240.864V239.712L249.77 239.784Z" fill="#888888"/>
<path d="M239.912 246H237.392L228.224 231.768H228.128C228.144 232.056 228.16 232.376 228.176 232.728C228.208 233.08 228.232 233.464 228.248 233.88C228.264 234.28 228.28 234.696 228.296 235.128C228.312 235.56 228.32 235.992 228.32 236.424V246H226.328V228.864H228.824L237.968 243.048H238.064C238.048 242.856 238.032 242.592 238.016 242.256C238 241.904 237.984 241.52 237.968 241.104C237.952 240.672 237.936 240.232 237.92 239.784C237.904 239.336 237.896 238.92 237.896 238.536V228.864H239.912V246Z" fill="#888888"/>
<path d="M313.918 214H311.854V202.024C311.854 201.56 311.854 201.168 311.854 200.848C311.87 200.528 311.886 200.232 311.902 199.96C311.918 199.672 311.934 199.376 311.95 199.072C311.694 199.328 311.462 199.544 311.254 199.72C311.046 199.896 310.782 200.12 310.462 200.392L308.638 201.88L307.534 200.464L312.166 196.864H313.918V214Z" fill="#888888"/>
<path d="M304.216 205.408C304.216 206.8 304.112 208.04 303.904 209.128C303.696 210.216 303.36 211.144 302.896 211.912C302.448 212.664 301.856 213.24 301.12 213.64C300.4 214.04 299.528 214.24 298.504 214.24C297.224 214.24 296.16 213.888 295.312 213.184C294.48 212.48 293.856 211.472 293.44 210.16C293.04 208.832 292.84 207.248 292.84 205.408C292.84 203.552 293.024 201.968 293.392 200.656C293.776 199.344 294.384 198.344 295.216 197.656C296.048 196.952 297.144 196.6 298.504 196.6C299.784 196.6 300.848 196.952 301.696 197.656C302.544 198.344 303.176 199.344 303.592 200.656C304.008 201.968 304.216 203.552 304.216 205.408ZM294.952 205.408C294.952 206.976 295.064 208.28 295.288 209.32C295.528 210.36 295.904 211.144 296.416 211.672C296.944 212.184 297.64 212.44 298.504 212.44C299.368 212.44 300.056 212.184 300.568 211.672C301.096 211.16 301.48 210.384 301.72 209.344C301.96 208.288 302.08 206.976 302.08 205.408C302.08 203.84 301.96 202.544 301.72 201.52C301.48 200.48 301.096 199.704 300.568 199.192C300.056 198.664 299.368 198.4 298.504 198.4C297.64 198.4 296.944 198.664 296.416 199.192C295.904 199.704 295.528 200.48 295.288 201.52C295.064 202.544 294.952 203.84 294.952 205.408Z" fill="#888888"/>
<path d="M285.125 200.896C286.229 200.896 287.173 201.136 287.957 201.616C288.757 202.096 289.365 202.776 289.781 203.656C290.213 204.52 290.429 205.536 290.429 206.704V207.976H281.621C281.653 209.432 282.021 210.544 282.725 211.312C283.445 212.064 284.445 212.44 285.725 212.44C286.541 212.44 287.261 212.368 287.885 212.224C288.525 212.064 289.181 211.84 289.853 211.552V213.4C289.197 213.688 288.549 213.896 287.909 214.024C287.269 214.168 286.509 214.24 285.629 214.24C284.413 214.24 283.333 213.992 282.389 213.496C281.461 213 280.733 212.264 280.205 211.288C279.693 210.296 279.437 209.088 279.437 207.664C279.437 206.256 279.669 205.048 280.133 204.04C280.613 203.032 281.277 202.256 282.125 201.712C282.989 201.168 283.989 200.896 285.125 200.896ZM285.101 202.624C284.093 202.624 283.293 202.952 282.701 203.608C282.125 204.248 281.781 205.144 281.669 206.296H288.221C288.221 205.56 288.109 204.92 287.885 204.376C287.661 203.832 287.317 203.408 286.853 203.104C286.405 202.784 285.821 202.624 285.101 202.624Z" fill="#888888"/>
<path d="M271.84 200.896C273.296 200.896 274.384 201.272 275.104 202.024C275.824 202.76 276.184 203.96 276.184 205.624V214H274.096V205.72C274.096 204.712 273.88 203.952 273.448 203.44C273.032 202.928 272.376 202.672 271.48 202.672C270.232 202.672 269.336 203.032 268.792 203.752C268.264 204.472 268 205.52 268 206.896V214H265.912V205.72C265.912 205.048 265.816 204.488 265.624 204.04C265.432 203.576 265.144 203.232 264.76 203.008C264.376 202.784 263.88 202.672 263.272 202.672C262.408 202.672 261.728 202.856 261.232 203.224C260.736 203.576 260.376 204.096 260.152 204.784C259.944 205.472 259.84 206.32 259.84 207.328V214H257.728V201.136H259.432L259.744 202.888H259.864C260.136 202.44 260.464 202.072 260.848 201.784C261.248 201.48 261.688 201.256 262.168 201.112C262.648 200.968 263.144 200.896 263.656 200.896C264.648 200.896 265.472 201.072 266.128 201.424C266.8 201.776 267.288 202.32 267.592 203.056H267.712C268.144 202.32 268.728 201.776 269.464 201.424C270.216 201.072 271.008 200.896 271.84 200.896Z" fill="#888888"/>
<path d="M249.146 200.92C250.714 200.92 251.874 201.264 252.626 201.952C253.378 202.64 253.754 203.736 253.754 205.24V214H252.218L251.81 212.176H251.714C251.346 212.64 250.962 213.032 250.562 213.352C250.178 213.656 249.73 213.88 249.218 214.024C248.722 214.168 248.114 214.24 247.394 214.24C246.626 214.24 245.93 214.104 245.306 213.832C244.698 213.56 244.218 213.144 243.866 212.584C243.514 212.008 243.338 211.288 243.338 210.424C243.338 209.144 243.842 208.16 244.85 207.472C245.858 206.768 247.41 206.384 249.506 206.32L251.69 206.248V205.48C251.69 204.408 251.458 203.664 250.994 203.248C250.53 202.832 249.874 202.624 249.026 202.624C248.354 202.624 247.714 202.728 247.106 202.936C246.498 203.128 245.93 203.352 245.402 203.608L244.754 202.024C245.314 201.72 245.978 201.464 246.746 201.256C247.514 201.032 248.314 200.92 249.146 200.92ZM249.77 207.784C248.17 207.848 247.058 208.104 246.434 208.552C245.826 209 245.522 209.632 245.522 210.448C245.522 211.168 245.738 211.696 246.17 212.032C246.618 212.368 247.186 212.536 247.874 212.536C248.962 212.536 249.866 212.24 250.586 211.648C251.306 211.04 251.666 210.112 251.666 208.864V207.712L249.77 207.784Z" fill="#888888"/>
<path d="M239.912 214H237.392L228.224 199.768H228.128C228.144 200.056 228.16 200.376 228.176 200.728C228.208 201.08 228.232 201.464 228.248 201.88C228.264 202.28 228.28 202.696 228.296 203.128C228.312 203.56 228.32 203.992 228.32 204.424V214H226.328V196.864H228.824L237.968 211.048H238.064C238.048 210.856 238.032 210.592 238.016 210.256C238 209.904 237.984 209.52 237.968 209.104C237.952 208.672 237.936 208.232 237.92 207.784C237.904 207.336 237.896 206.92 237.896 206.536V196.864H239.912V214Z" fill="#888888"/>
<path d="M405.177 237.408C405.177 238.8 405.073 240.04 404.865 241.128C404.657 242.216 404.321 243.144 403.857 243.912C403.409 244.664 402.817 245.24 402.081 245.64C401.361 246.04 400.489 246.24 399.465 246.24C398.185 246.24 397.121 245.888 396.273 245.184C395.441 244.48 394.817 243.472 394.401 242.16C394.001 240.832 393.801 239.248 393.801 237.408C393.801 235.552 393.985 233.968 394.353 232.656C394.737 231.344 395.345 230.344 396.177 229.656C397.009 228.952 398.105 228.6 399.465 228.6C400.745 228.6 401.809 228.952 402.657 229.656C403.505 230.344 404.137 231.344 404.553 232.656C404.969 233.968 405.177 235.552 405.177 237.408ZM395.913 237.408C395.913 238.976 396.025 240.28 396.249 241.32C396.489 242.36 396.865 243.144 397.377 243.672C397.905 244.184 398.601 244.44 399.465 244.44C400.329 244.44 401.017 244.184 401.529 243.672C402.057 243.16 402.441 242.384 402.681 241.344C402.921 240.288 403.041 238.976 403.041 237.408C403.041 235.84 402.921 234.544 402.681 233.52C402.441 232.48 402.057 231.704 401.529 231.192C401.017 230.664 400.329 230.4 399.465 230.4C398.601 230.4 397.905 230.664 397.377 231.192C396.865 231.704 396.489 232.48 396.249 233.52C396.025 234.544 395.913 235.84 395.913 237.408Z" fill="#888888"/>
<path d="M385.73 228.624C386.738 228.624 387.626 228.784 388.394 229.104C389.162 229.408 389.762 229.864 390.194 230.472C390.642 231.08 390.866 231.832 390.866 232.728C390.866 233.416 390.714 234.016 390.41 234.528C390.122 235.04 389.73 235.496 389.234 235.896C388.738 236.28 388.194 236.624 387.602 236.928C388.306 237.264 388.946 237.648 389.522 238.08C390.098 238.496 390.554 238.984 390.89 239.544C391.242 240.104 391.418 240.776 391.418 241.56C391.418 242.52 391.186 243.352 390.722 244.056C390.258 244.744 389.602 245.28 388.754 245.664C387.922 246.048 386.938 246.24 385.802 246.24C384.57 246.24 383.522 246.056 382.658 245.688C381.81 245.32 381.162 244.8 380.714 244.128C380.282 243.44 380.066 242.608 380.066 241.632C380.066 240.848 380.226 240.168 380.546 239.592C380.882 239.016 381.322 238.52 381.866 238.104C382.41 237.688 382.994 237.336 383.618 237.048C383.058 236.728 382.546 236.368 382.082 235.968C381.634 235.552 381.274 235.08 381.002 234.552C380.746 234.024 380.618 233.408 380.618 232.704C380.618 231.824 380.842 231.088 381.29 230.496C381.738 229.888 382.346 229.424 383.114 229.104C383.882 228.784 384.754 228.624 385.73 228.624ZM382.13 241.656C382.13 242.488 382.426 243.184 383.018 243.744C383.61 244.288 384.522 244.56 385.754 244.56C386.538 244.56 387.194 244.432 387.722 244.176C388.25 243.92 388.65 243.568 388.922 243.12C389.21 242.672 389.354 242.16 389.354 241.584C389.354 241.024 389.202 240.536 388.898 240.12C388.61 239.688 388.194 239.304 387.65 238.968C387.122 238.632 386.49 238.328 385.754 238.056L385.37 237.912C384.666 238.216 384.074 238.544 383.594 238.896C383.114 239.248 382.746 239.648 382.49 240.096C382.25 240.544 382.13 241.064 382.13 241.656ZM385.706 230.328C384.826 230.328 384.098 230.544 383.522 230.976C382.962 231.392 382.682 232 382.682 232.8C382.682 233.392 382.818 233.888 383.09 234.288C383.378 234.688 383.762 235.032 384.242 235.32C384.722 235.592 385.25 235.856 385.826 236.112C386.386 235.872 386.882 235.608 387.314 235.32C387.762 235.032 388.114 234.688 388.37 234.288C388.642 233.872 388.778 233.376 388.778 232.8C388.778 232 388.498 231.392 387.938 230.976C387.378 230.544 386.634 230.328 385.706 230.328Z" fill="#888888"/>
<path d="M371.756 235.488C372.924 235.488 373.94 235.688 374.804 236.088C375.668 236.488 376.332 237.064 376.796 237.816C377.276 238.552 377.516 239.456 377.516 240.528C377.516 241.712 377.26 242.736 376.748 243.6C376.236 244.448 375.5 245.104 374.54 245.568C373.596 246.016 372.452 246.24 371.108 246.24C370.228 246.24 369.396 246.16 368.612 246C367.844 245.84 367.196 245.608 366.668 245.304V243.312C367.244 243.664 367.94 243.944 368.756 244.152C369.588 244.344 370.38 244.44 371.132 244.44C371.98 244.44 372.716 244.312 373.34 244.056C373.98 243.784 374.476 243.376 374.828 242.832C375.18 242.272 375.356 241.576 375.356 240.744C375.356 239.624 375.012 238.768 374.324 238.176C373.636 237.568 372.548 237.264 371.06 237.264C370.612 237.264 370.1 237.304 369.524 237.384C368.948 237.464 368.484 237.544 368.132 237.624L367.076 236.952L367.724 228.864H376.316V230.784H369.524L369.116 235.752C369.388 235.704 369.756 235.648 370.22 235.584C370.684 235.52 371.196 235.488 371.756 235.488Z" fill="#888888"/>
<path d="M363.342 243.48C363.198 244.04 363.014 244.648 362.79 245.304C362.566 245.96 362.318 246.608 362.046 247.248C361.79 247.904 361.534 248.52 361.278 249.096H359.718C359.878 248.488 360.03 247.832 360.174 247.128C360.334 246.44 360.478 245.76 360.606 245.088C360.734 244.4 360.838 243.776 360.918 243.216H363.174L363.342 243.48Z" fill="#888888"/>
<path d="M357.48 246H346.152V244.248L350.64 239.712C351.504 238.848 352.232 238.08 352.824 237.408C353.416 236.736 353.864 236.08 354.168 235.44C354.472 234.784 354.624 234.072 354.624 233.304C354.624 232.36 354.344 231.648 353.784 231.168C353.224 230.672 352.496 230.424 351.6 230.424C350.768 230.424 350.032 230.568 349.392 230.856C348.768 231.144 348.128 231.544 347.472 232.056L346.344 230.64C346.792 230.256 347.28 229.912 347.808 229.608C348.352 229.304 348.936 229.064 349.56 228.888C350.2 228.712 350.88 228.624 351.6 228.624C352.672 228.624 353.592 228.808 354.36 229.176C355.128 229.544 355.72 230.072 356.136 230.76C356.568 231.432 356.784 232.24 356.784 233.184C356.784 233.856 356.68 234.496 356.472 235.104C356.264 235.696 355.968 236.28 355.584 236.856C355.2 237.432 354.736 238.016 354.192 238.608C353.648 239.2 353.048 239.816 352.392 240.456L348.816 243.984V244.08H357.48V246Z" fill="#888888"/>
<path d="M405.177 205.408C405.177 206.8 405.073 208.04 404.865 209.128C404.657 210.216 404.321 211.144 403.857 211.912C403.409 212.664 402.817 213.24 402.081 213.64C401.361 214.04 400.489 214.24 399.465 214.24C398.185 214.24 397.121 213.888 396.273 213.184C395.441 212.48 394.817 211.472 394.401 210.16C394.001 208.832 393.801 207.248 393.801 205.408C393.801 203.552 393.985 201.968 394.353 200.656C394.737 199.344 395.345 198.344 396.177 197.656C397.009 196.952 398.105 196.6 399.465 196.6C400.745 196.6 401.809 196.952 402.657 197.656C403.505 198.344 404.137 199.344 404.553 200.656C404.969 201.968 405.177 203.552 405.177 205.408ZM395.913 205.408C395.913 206.976 396.025 208.28 396.249 209.32C396.489 210.36 396.865 211.144 397.377 211.672C397.905 212.184 398.601 212.44 399.465 212.44C400.329 212.44 401.017 212.184 401.529 211.672C402.057 211.16 402.441 210.384 402.681 209.344C402.921 208.288 403.041 206.976 403.041 205.408C403.041 203.84 402.921 202.544 402.681 201.52C402.441 200.48 402.057 199.704 401.529 199.192C401.017 198.664 400.329 198.4 399.465 198.4C398.601 198.4 397.905 198.664 397.377 199.192C396.865 199.704 396.489 200.48 396.249 201.52C396.025 202.544 395.913 203.84 395.913 205.408Z" fill="#888888"/>
<path d="M392.139 210.112H389.643V214H387.603V210.112H379.395V208.312L387.459 196.768H389.643V208.216H392.139V210.112ZM387.603 202.816C387.603 202.4 387.603 202.024 387.603 201.688C387.619 201.336 387.635 201.008 387.651 200.704C387.667 200.4 387.675 200.112 387.675 199.84C387.691 199.552 387.707 199.28 387.723 199.024H387.627C387.499 199.328 387.339 199.656 387.147 200.008C386.955 200.36 386.771 200.656 386.595 200.896L381.459 208.216H387.603V202.816Z" fill="#888888"/>
<path d="M377.636 214H366.308V212.248L370.796 207.712C371.66 206.848 372.388 206.08 372.98 205.408C373.572 204.736 374.02 204.08 374.324 203.44C374.628 202.784 374.78 202.072 374.78 201.304C374.78 200.36 374.5 199.648 373.94 199.168C373.38 198.672 372.652 198.424 371.756 198.424C370.924 198.424 370.188 198.568 369.548 198.856C368.924 199.144 368.284 199.544 367.628 200.056L366.5 198.64C366.948 198.256 367.436 197.912 367.964 197.608C368.508 197.304 369.092 197.064 369.716 196.888C370.356 196.712 371.036 196.624 371.756 196.624C372.828 196.624 373.748 196.808 374.516 197.176C375.284 197.544 375.876 198.072 376.292 198.76C376.724 199.432 376.94 200.24 376.94 201.184C376.94 201.856 376.836 202.496 376.628 203.104C376.42 203.696 376.124 204.28 375.74 204.856C375.356 205.432 374.892 206.016 374.348 206.608C373.804 207.2 373.204 207.816 372.548 208.456L368.972 211.984V212.08H377.636V214Z" fill="#888888"/>
<path d="M363.342 211.48C363.198 212.04 363.014 212.648 362.79 213.304C362.566 213.96 362.318 214.608 362.046 215.248C361.79 215.904 361.534 216.52 361.278 217.096H359.718C359.878 216.488 360.03 215.832 360.174 215.128C360.334 214.44 360.478 213.76 360.606 213.088C360.734 212.4 360.838 211.776 360.918 211.216H363.174L363.342 211.48Z" fill="#888888"/>
<path d="M353.52 214H351.456V202.024C351.456 201.56 351.456 201.168 351.456 200.848C351.472 200.528 351.488 200.232 351.504 199.96C351.52 199.672 351.536 199.376 351.552 199.072C351.296 199.328 351.064 199.544 350.856 199.72C350.648 199.896 350.384 200.12 350.064 200.392L348.24 201.88L347.136 200.464L351.768 196.864H353.52V214Z" fill="#888888"/>
<path d="M447.054 238.68C447.054 237.688 447.118 236.712 447.246 235.752C447.39 234.792 447.63 233.888 447.966 233.04C448.302 232.176 448.766 231.416 449.358 230.76C449.95 230.088 450.694 229.568 451.59 229.2C452.502 228.816 453.606 228.624 454.902 228.624C455.238 228.624 455.606 228.64 456.006 228.672C456.422 228.704 456.758 228.76 457.014 228.84V230.64C456.726 230.544 456.398 230.472 456.03 230.424C455.678 230.376 455.318 230.352 454.95 230.352C453.846 230.352 452.926 230.536 452.19 230.904C451.454 231.272 450.87 231.776 450.438 232.416C450.022 233.056 449.718 233.792 449.526 234.624C449.334 235.456 449.214 236.344 449.166 237.288H449.31C449.55 236.904 449.854 236.56 450.222 236.256C450.59 235.952 451.03 235.712 451.542 235.536C452.07 235.36 452.678 235.272 453.366 235.272C454.358 235.272 455.222 235.48 455.958 235.896C456.71 236.296 457.294 236.888 457.71 237.672C458.126 238.44 458.334 239.376 458.334 240.48C458.334 241.664 458.11 242.688 457.662 243.552C457.214 244.416 456.582 245.08 455.766 245.544C454.966 246.008 454.006 246.24 452.886 246.24C452.07 246.24 451.31 246.088 450.606 245.784C449.902 245.48 449.278 245.016 448.734 244.392C448.206 243.768 447.79 242.984 447.486 242.04C447.198 241.08 447.054 239.96 447.054 238.68ZM452.862 244.464C453.87 244.464 454.686 244.144 455.31 243.504C455.934 242.848 456.246 241.84 456.246 240.48C456.246 239.392 455.966 238.528 455.406 237.888C454.862 237.248 454.038 236.928 452.934 236.928C452.182 236.928 451.526 237.088 450.966 237.408C450.406 237.712 449.966 238.104 449.646 238.584C449.342 239.064 449.19 239.56 449.19 240.072C449.19 240.6 449.262 241.12 449.406 241.632C449.566 242.144 449.798 242.616 450.102 243.048C450.422 243.48 450.806 243.824 451.254 244.08C451.718 244.336 452.254 244.464 452.862 244.464Z" fill="#888888"/>
<path d="M440.52 246H438.456V234.024C438.456 233.56 438.456 233.168 438.456 232.848C438.472 232.528 438.488 232.232 438.504 231.96C438.52 231.672 438.536 231.376 438.552 231.072C438.296 231.328 438.064 231.544 437.856 231.72C437.648 231.896 437.384 232.12 437.064 232.392L435.24 233.88L434.136 232.464L438.768 228.864H440.52V246Z" fill="#888888"/>
<path d="M454.254 214H452.19V202.024C452.19 201.56 452.19 201.168 452.19 200.848C452.206 200.528 452.222 200.232 452.238 199.96C452.254 199.672 452.27 199.376 452.286 199.072C452.03 199.328 451.798 199.544 451.59 199.72C451.382 199.896 451.118 200.12 450.798 200.392L448.974 201.88L447.87 200.464L452.502 196.864H454.254V214Z" fill="#888888"/>
<path d="M443.832 200.872C443.832 201.64 443.688 202.304 443.4 202.864C443.112 203.424 442.696 203.88 442.152 204.232C441.624 204.584 441 204.832 440.28 204.976V205.072C441.656 205.232 442.68 205.664 443.352 206.368C444.024 207.072 444.36 207.992 444.36 209.128C444.36 210.12 444.128 211.008 443.664 211.792C443.2 212.56 442.48 213.16 441.504 213.592C440.544 214.024 439.304 214.24 437.784 214.24C436.888 214.24 436.056 214.168 435.288 214.024C434.52 213.896 433.784 213.656 433.08 213.304V211.336C433.8 211.688 434.576 211.968 435.408 212.176C436.24 212.368 437.04 212.464 437.808 212.464C439.344 212.464 440.448 212.168 441.12 211.576C441.808 210.968 442.152 210.136 442.152 209.08C442.152 208.36 441.96 207.784 441.576 207.352C441.208 206.904 440.664 206.576 439.944 206.368C439.224 206.16 438.36 206.056 437.352 206.056H435.696V204.256H437.376C438.32 204.256 439.104 204.12 439.728 203.848C440.368 203.576 440.848 203.2 441.168 202.72C441.504 202.224 441.672 201.656 441.672 201.016C441.672 200.184 441.392 199.544 440.832 199.096C440.272 198.632 439.512 198.4 438.552 198.4C437.944 198.4 437.392 198.464 436.896 198.592C436.4 198.704 435.936 198.872 435.504 199.096C435.088 199.304 434.664 199.552 434.232 199.84L433.176 198.4C433.592 198.08 434.064 197.784 434.592 197.512C435.136 197.24 435.736 197.024 436.392 196.864C437.048 196.704 437.76 196.624 438.528 196.624C440.32 196.624 441.648 197.024 442.512 197.824C443.392 198.624 443.832 199.64 443.832 200.872Z" fill="#888888"/>
</g>
<g clip-path="url(#clip0_345_746)">
<path d="M89.8661 70.8219C89.6345 68.8466 89.2085 66.8987 88.5941 65.0062C87.1793 61.0643 85.0968 57.392 82.4367 54.1481C79.1443 50.2199 74.9323 47.1552 70.1704 45.2232C68.8937 44.6954 67.5805 44.2593 66.241 43.9183C65.3579 43.6928 64.4667 43.4995 63.5754 43.3625C63.1298 43.29 62.6275 43.2337 62.1495 43.1853C61.2016 43.0806 60.2537 43.0001 59.2976 43.0001C56.9062 42.9605 54.5178 43.1847 52.1761 43.6686L51.9735 43.725C48.8057 44.4177 45.3057 45.9482 43.1343 48.4533C41.5504 50.2731 40.7253 52.6257 40.8277 55.0301C40.9301 57.4346 41.9522 59.7093 43.6853 61.3895C38.9933 61.6373 34.468 63.2013 30.6331 65.9003L29.985 66.3756L29.8067 66.5206C28.8929 67.2173 28.1822 68.1435 27.7479 69.2038C27.3136 70.2642 27.1713 71.4205 27.3356 72.5537C27.4655 73.3798 27.7604 74.1717 28.2029 74.8828C28.6454 75.5938 29.2265 76.2096 29.912 76.694C30.8357 77.3384 31.978 77.6847 32.7882 78.4822C33.5147 79.191 33.9896 80.1155 34.1412 81.1161C34.3195 82.3566 33.3959 83.8065 32.7558 84.8456C33.5006 84.2997 34.3187 83.8604 35.1864 83.5407C35.8351 83.2642 36.5113 83.0563 37.2037 82.9205C38.7026 82.6708 40.169 82.6144 41.5383 81.8653C42.8245 81.1292 43.8364 79.9988 44.4225 78.6433C44.8182 77.8047 45.0354 76.8939 45.0605 75.9681C45.0856 75.0422 44.918 74.1211 44.5684 73.2626C44.3091 72.6665 43.9445 72.1268 43.6691 71.5388C42.3323 68.6873 43.2883 64.7807 46.0996 63.1133H46.1564C47.5622 62.1897 49.2613 61.814 50.9284 62.0581L51.1957 62.1225C51.6094 62.2021 52.0159 62.3153 52.411 62.4608L52.5407 62.5011L53.2779 62.7508C53.6506 62.8717 54.0152 63.0086 54.3798 63.1616C56.3621 63.9486 58.2331 64.9884 59.9458 66.2547C62.6882 68.284 64.9871 70.8463 66.7028 73.7861C66.4682 73.2991 66.3543 72.7632 66.3706 72.2235C66.3765 71.4681 66.6283 70.735 67.0884 70.1338C67.5485 69.5326 68.192 69.0958 68.9227 68.8887C69.8762 68.7142 70.8572 68.7585 71.7909 69.0181C72.7246 69.2777 73.5864 69.7459 74.3105 70.3869C74.3105 70.3869 82.5744 76.4282 81.5536 91.1043C81.4187 92.9312 81.1643 94.7474 80.792 96.5414C81.7555 95.593 82.6566 94.5841 83.4899 93.5208C84.3596 92.4118 85.1501 91.2437 85.8557 90.0249C88.6174 85.3083 90.0634 79.9445 90.0444 74.4869C90.0545 73.2629 89.995 72.0393 89.8661 70.8219ZM155.808 107.359V98.386H159.048C160.604 98.386 161.965 98.9821 161.965 100.722C161.961 101.168 161.809 101.601 161.532 101.952C161.255 102.303 160.869 102.553 160.434 102.663C160.974 102.765 161.456 103.063 161.787 103.499C162.118 103.936 162.274 104.479 162.224 105.023C162.218 105.509 162.059 105.981 161.768 106.371C161.477 106.762 161.07 107.051 160.604 107.198C160.101 107.352 159.573 107.412 159.048 107.375L155.808 107.359ZM157.055 102.164H158.611C159.794 102.164 160.636 101.987 160.636 100.811C160.636 99.6345 159.826 99.417 158.611 99.4492H157.055V102.164ZM157.055 106.288H159.146C160.11 106.288 160.912 105.869 160.912 104.757C160.912 103.646 160.102 103.227 159.146 103.227H157.055V106.288ZM167.79 101.117H168.981V107.359H167.815V106.441C167.59 106.8 167.271 107.092 166.893 107.286C166.516 107.48 166.092 107.569 165.668 107.544C165.378 107.548 165.091 107.491 164.825 107.377C164.559 107.263 164.321 107.094 164.125 106.882C163.929 106.67 163.781 106.419 163.689 106.146C163.598 105.873 163.565 105.584 163.593 105.297V101.117H164.784V104.806C164.784 105.893 165.036 106.683 166.17 106.683C166.459 106.69 166.745 106.614 166.991 106.462C167.237 106.31 167.434 106.09 167.555 105.829C167.715 105.356 167.794 104.861 167.79 104.363V101.117ZM172.959 100.931C174.15 100.931 175.487 101.431 175.39 102.848H174.126C174.175 102.043 173.567 101.793 172.878 101.793C172.19 101.793 171.728 102.091 171.728 102.784C171.728 103.477 172.797 103.533 173.251 103.67C174.312 104.016 175.536 104.137 175.536 105.539C175.536 107.069 174.037 107.544 172.749 107.544C171.46 107.544 170.318 106.948 170.318 105.507H171.566C171.561 105.671 171.592 105.834 171.656 105.985C171.721 106.136 171.816 106.272 171.938 106.383C172.059 106.494 172.203 106.579 172.359 106.63C172.516 106.682 172.682 106.7 172.846 106.683C173.543 106.683 174.256 106.409 174.256 105.603C174.256 104.21 170.44 105.257 170.44 102.824C170.496 101.519 171.825 100.931 172.959 100.931ZM177.124 98.386H178.533V99.6667H177.124V98.386ZM177.237 107.359V101.117H178.42V107.359H177.237ZM181.847 102.035C182.036 101.7 182.311 101.421 182.644 101.227C182.977 101.033 183.357 100.931 183.743 100.931C184.18 100.931 186.125 101.044 186.125 103.042V107.359H184.934V103.412C184.934 102.381 184.496 101.801 183.5 101.801C183.07 101.797 182.656 101.962 182.349 102.26C182.171 102.43 181.847 102.703 181.847 103.928V107.359H180.656V101.117H181.823L181.847 102.035ZM189.082 104.459C188.993 105.555 189.439 106.683 190.654 106.683C190.84 106.713 191.03 106.703 191.211 106.653C191.393 106.604 191.562 106.516 191.706 106.396C191.85 106.276 191.967 106.127 192.049 105.958C192.13 105.789 192.174 105.605 192.177 105.418H193.433C193.238 106.836 192.145 107.544 190.638 107.544C188.628 107.544 187.826 106.127 187.826 104.322C187.826 102.518 188.758 100.964 190.743 100.964C192.728 100.964 193.506 102.18 193.506 103.912V104.492L189.082 104.459ZM192.258 103.654C192.258 102.615 191.804 101.809 190.638 101.809C190.408 101.814 190.181 101.867 189.973 101.965C189.766 102.063 189.581 102.204 189.433 102.379C189.284 102.553 189.174 102.757 189.111 102.977C189.048 103.197 189.032 103.428 189.066 103.654H192.258ZM197.265 100.931C198.448 100.931 199.785 101.431 199.696 102.848H198.432C198.488 102.043 197.873 101.793 197.184 101.793C196.495 101.793 196.033 102.091 196.033 102.784C196.033 103.477 197.111 103.533 197.557 103.67C198.626 104.016 199.849 104.137 199.849 105.539C199.849 107.069 198.351 107.544 197.062 107.544C195.774 107.544 194.632 106.948 194.632 105.507H195.888C195.883 105.67 195.914 105.832 195.978 105.983C196.041 106.133 196.137 106.269 196.257 106.38C196.377 106.491 196.52 106.576 196.676 106.628C196.831 106.68 196.996 106.699 197.16 106.683C197.856 106.683 198.569 106.409 198.569 105.603C198.569 104.21 194.761 105.257 194.761 102.824C194.802 101.519 196.123 100.931 197.265 100.931ZM203.512 100.931C204.694 100.931 206.031 101.431 205.942 102.848H204.686C204.743 102.043 204.127 101.793 203.439 101.793C202.75 101.793 202.288 102.091 202.288 102.784C202.288 103.477 203.366 103.533 203.811 103.67C204.873 104.016 206.104 104.137 206.104 105.539C206.104 107.069 204.605 107.544 203.317 107.544C202.029 107.544 200.887 106.948 200.887 105.507H202.142C202.138 105.67 202.169 105.832 202.232 105.983C202.296 106.133 202.391 106.269 202.512 106.38C202.632 106.491 202.775 106.576 202.93 106.628C203.086 106.68 203.251 106.699 203.414 106.683C204.119 106.683 204.824 106.409 204.824 105.603C204.824 104.21 201.016 105.257 201.016 102.824C201.049 101.519 202.369 100.931 203.512 100.931ZM212.715 107.359L216.515 98.386H217.876L221.53 107.359H220.145L219.164 105.023H214.976L214.004 107.359H212.715ZM215.446 103.952H218.808L217.188 99.6103L215.446 103.952ZM222.737 102.236C222.737 101.866 222.737 101.495 222.681 101.117H223.888V102.115C224.067 101.714 224.372 101.381 224.758 101.168C225.144 100.954 225.589 100.871 226.027 100.931C227.785 100.931 228.66 102.542 228.66 104.234C228.66 105.925 227.914 107.544 225.646 107.544C225.307 107.537 224.974 107.45 224.675 107.292C224.375 107.134 224.117 106.909 223.92 106.634V109.727H222.737V102.236ZM225.703 101.793C224.35 101.793 223.928 103.106 223.928 104.21C223.928 105.313 224.261 106.626 225.589 106.626C227.039 106.626 227.477 105.354 227.477 104.21C227.477 103.066 227.088 101.801 225.662 101.801L225.703 101.793ZM230.329 102.236C230.329 101.866 230.329 101.495 230.272 101.117H231.479V102.115C231.658 101.714 231.964 101.381 232.349 101.168C232.735 100.954 233.181 100.871 233.618 100.931C235.376 100.931 236.259 102.542 236.259 104.234C236.259 105.925 235.506 107.544 233.246 107.544C232.913 107.531 232.589 107.442 232.296 107.284C232.004 107.127 231.752 106.904 231.56 106.634H231.52V109.727H230.329V102.236ZM233.27 101.801C231.917 101.801 231.496 103.114 231.496 104.218C231.496 105.321 231.836 106.634 233.156 106.634C234.607 106.634 235.044 105.362 235.044 104.218C235.044 103.074 234.72 101.801 233.27 101.801ZM238.042 107.359V98.386H239.225V107.359H238.042ZM241.372 98.386H242.781V99.6667H241.372V98.386ZM241.485 107.359V101.117H242.668V107.359H241.485ZM248.437 103.122C248.372 102.317 247.999 101.793 247.148 101.793C246.014 101.793 245.577 102.768 245.577 104.21C245.577 105.652 246.014 106.626 247.148 106.626C247.959 106.626 248.428 106.119 248.485 105.225H249.676C249.663 105.54 249.586 105.85 249.451 106.135C249.315 106.421 249.124 106.676 248.888 106.887C248.651 107.098 248.375 107.26 248.075 107.363C247.775 107.466 247.457 107.509 247.14 107.488C245.123 107.488 244.329 106.07 244.329 104.266C244.329 102.462 245.253 100.907 247.238 100.907C247.541 100.886 247.846 100.927 248.133 101.028C248.42 101.128 248.684 101.286 248.907 101.491C249.131 101.696 249.31 101.944 249.434 102.221C249.558 102.497 249.624 102.796 249.628 103.098L248.437 103.122ZM254.87 103.501C254.87 102.422 254.813 101.793 253.549 101.793C253.406 101.779 253.261 101.793 253.124 101.836C252.987 101.878 252.859 101.948 252.75 102.04C252.64 102.133 252.55 102.246 252.486 102.374C252.421 102.502 252.383 102.641 252.374 102.784H251.094C251.159 101.415 252.236 100.931 253.476 100.931C254.716 100.931 256.036 101.318 256.036 103.058V106.038C256.036 106.312 256.036 106.844 256.085 107.359H255.275C255.161 107.359 254.951 107.416 254.942 107.271C254.942 106.989 254.886 106.715 254.878 106.425C254.701 106.783 254.421 107.082 254.073 107.281C253.725 107.481 253.326 107.572 252.925 107.544C251.839 107.544 250.738 106.989 250.738 105.764C250.738 104.016 252.301 103.501 253.792 103.501H254.87ZM253.687 104.306C252.957 104.347 251.993 104.604 251.993 105.515C251.987 105.675 252.015 105.834 252.076 105.983C252.137 106.131 252.229 106.264 252.347 106.374C252.465 106.483 252.605 106.566 252.758 106.616C252.911 106.667 253.073 106.684 253.233 106.666C254.635 106.666 254.894 105.466 254.853 104.306H253.687ZM258.216 101.117V99.7876L259.407 99.417V101.117H260.857V101.962H259.407V105.99C259.407 106.433 259.755 106.642 260.217 106.642C260.427 106.642 260.636 106.618 260.841 106.57V107.44C260.565 107.44 260.298 107.512 260.03 107.512C259.759 107.516 259.488 107.494 259.22 107.448C258.942 107.403 258.69 107.257 258.515 107.037C258.305 106.739 258.24 106.715 258.24 105.885V101.954H257.17V101.084L258.216 101.117ZM262.226 98.386H263.644V99.6667H262.226V98.386ZM262.339 107.359V101.117H263.53V107.359H262.339ZM271.349 104.218C271.349 106.159 270.287 107.528 268.221 107.528C266.155 107.528 265.102 106.159 265.102 104.218C265.102 102.277 266.164 100.915 268.221 100.915C270.279 100.915 271.349 102.301 271.349 104.218ZM268.221 106.634C269.639 106.634 270.101 105.523 270.101 104.218C270.101 102.913 269.639 101.801 268.221 101.801C266.804 101.801 266.35 102.913 266.35 104.218C266.35 105.523 266.828 106.683 268.238 106.683L268.221 106.634ZM274.087 102.035C274.276 101.7 274.551 101.421 274.884 101.227C275.218 101.033 275.597 100.931 275.983 100.931C276.421 100.931 278.365 101.044 278.365 103.042V107.359H277.174V103.412C277.174 102.381 276.737 101.801 275.74 101.801C275.31 101.797 274.897 101.962 274.59 102.26C274.411 102.43 274.087 102.703 274.087 103.928V107.359H272.896V101.117H274.063L274.087 102.035ZM286.499 98.386H289.529C291.207 98.3135 292.657 98.9337 292.657 100.891C292.657 102.848 291.117 103.364 289.457 103.404H287.755V107.359H286.499V98.386ZM289.74 102.333C289.943 102.354 290.149 102.333 290.344 102.27C290.538 102.208 290.717 102.105 290.869 101.969C291.021 101.833 291.143 101.667 291.226 101.481C291.309 101.295 291.352 101.094 291.352 100.891C291.352 100.688 291.309 100.487 291.226 100.301C291.143 100.115 291.021 99.9492 290.869 99.8132C290.717 99.6773 290.538 99.5746 290.344 99.5119C290.149 99.4492 289.943 99.4278 289.74 99.4492H287.779V102.333H289.74ZM293.937 107.359V98.386H295.128V107.359H293.937ZM300.516 103.501C300.516 102.422 300.451 101.793 299.195 101.793C298.917 101.782 298.645 101.879 298.438 102.064C298.23 102.25 298.104 102.508 298.085 102.784H296.829C296.894 101.415 297.972 100.931 299.203 100.931C300.435 100.931 301.771 101.318 301.771 103.058V106.038C301.771 106.312 301.771 106.844 301.82 107.359H301.01C300.896 107.359 300.686 107.416 300.678 107.271C300.678 106.989 300.621 106.715 300.613 106.425C300.436 106.783 300.155 107.08 299.808 107.28C299.46 107.479 299.061 107.571 298.66 107.544C297.575 107.544 296.473 106.989 296.473 105.764C296.473 104.016 298.036 103.501 299.519 103.501H300.516ZM299.333 104.306C298.604 104.347 297.639 104.604 297.639 105.515C297.63 105.678 297.656 105.841 297.717 105.992C297.778 106.144 297.872 106.28 297.992 106.391C298.112 106.503 298.255 106.587 298.411 106.637C298.567 106.687 298.732 106.703 298.895 106.683C300.297 106.683 300.556 105.482 300.516 104.322L299.333 104.306ZM303.643 101.117V99.7876L304.834 99.417V101.117H306.284V101.962H304.834V105.99C304.834 106.433 305.182 106.642 305.644 106.642C305.854 106.642 306.064 106.618 306.268 106.57V107.44C305.993 107.44 305.725 107.512 305.458 107.512C305.186 107.516 304.915 107.494 304.648 107.448C304.369 107.403 304.118 107.257 303.943 107.037C303.732 106.739 303.667 106.715 303.667 105.885V101.954H302.598V101.084L303.643 101.117ZM308.293 107.359V101.938H307.07V101.133H308.293V99.9245C308.29 99.679 308.34 99.4356 308.44 99.2109C308.539 98.9862 308.686 98.7854 308.871 98.622C309.055 98.4586 309.272 98.3364 309.508 98.2637C309.744 98.1911 309.993 98.1696 310.238 98.2007C310.524 98.2167 310.809 98.2571 311.089 98.3215V99.3043C310.886 99.3043 310.692 99.264 310.489 99.264C309.817 99.264 309.428 99.4412 309.468 100.126V101.117H310.918V101.922H309.468V107.359H308.293ZM317.983 104.218C317.983 106.159 316.914 107.528 314.856 107.528C312.798 107.528 311.729 106.159 311.729 104.218C311.729 102.277 312.79 100.915 314.856 100.915C316.922 100.915 317.983 102.301 317.983 104.218ZM314.856 106.634C316.266 106.634 316.728 105.523 316.728 104.218C316.728 102.913 316.266 101.801 314.856 101.801C313.446 101.801 312.976 102.913 312.976 104.218C312.976 105.523 313.479 106.683 314.856 106.683V106.634ZM320.26 107.359H319.077V101.117H320.26V102.325C320.356 101.917 320.598 101.557 320.941 101.312C321.283 101.068 321.704 100.956 322.123 100.996H322.537V102.115C322.372 102.062 322.199 102.041 322.026 102.051C320.527 102.099 320.26 102.856 320.26 104.218V107.359ZM324.821 102.011C324.985 101.681 325.239 101.404 325.555 101.213C325.87 101.022 326.234 100.924 326.604 100.931C327.795 100.931 328.492 101.326 328.816 102.099C329.02 101.731 329.324 101.426 329.694 101.22C330.063 101.013 330.483 100.913 330.906 100.931C331.196 100.9 331.489 100.929 331.768 101.016C332.046 101.103 332.303 101.246 332.523 101.437C332.743 101.628 332.921 101.861 333.046 102.124C333.17 102.386 333.239 102.671 333.247 102.961V107.359H332.056V103.67C332.056 102.808 331.935 101.842 330.541 101.842C330.238 101.838 329.941 101.93 329.692 102.103C329.443 102.277 329.256 102.523 329.156 102.808C329.05 103.248 329.009 103.701 329.034 104.153V107.375H327.843V103.67C327.843 102.583 327.592 101.842 326.458 101.842C326.125 101.831 325.797 101.923 325.519 102.105C325.241 102.287 325.025 102.549 324.902 102.856C324.812 103.282 324.784 103.719 324.821 104.153V107.375H323.63V101.117H324.821V102.011Z" fill="#71696C"/>
<path d="M43.5153 56.5406C43.53 57.6598 43.7976 58.7613 44.2982 59.7638C44.7989 60.7663 45.5198 61.644 46.4077 62.3322C41.5465 62.5496 37.4956 64.362 33.7282 66.5932L33.3474 66.1744L32.6912 66.5771C32.5615 66.6577 32.8046 67.1651 32.6912 67.2537C32.3509 67.4551 31.6055 67.2054 31.2085 67.3262C30.3436 67.5943 29.4253 67.6448 28.5359 67.4733C27.6465 67.3018 26.8138 66.9136 26.1124 66.3435C25.6123 65.8647 25.23 65.2777 24.9953 64.6281C24.7607 63.9784 24.6799 63.2837 24.7594 62.598C25.2536 56.4681 31.2409 51.8607 38.0951 50.6041C42.7213 49.7261 47.7364 50.2497 52.2978 51.0552C47.9227 57.5958 43.5153 56.5567 43.5153 56.5567" fill="#4C4043"/>
<path d="M70.0491 86.1747C70.0535 89.8691 69.2263 93.5177 67.6281 96.853C66.0299 100.188 63.7013 103.126 60.8129 105.45C60.5375 105.676 60.2458 105.901 59.9541 106.119C55.2685 109.572 49.5148 111.285 43.6915 110.961C37.8681 110.637 32.3425 108.297 28.0731 104.347L27.8301 104.113C30.2089 106.073 33.0603 107.383 36.1034 107.914C39.1465 108.445 42.2763 108.179 45.1844 107.142C44.7874 107.142 44.3742 107.19 43.9772 107.19C40.6981 107.192 37.522 106.052 35.0003 103.968C36.7878 104.747 38.7493 105.047 40.6897 104.838C42.63 104.629 44.4813 103.918 46.0594 102.776C46.6821 102.324 47.2575 101.812 47.777 101.246C48.9349 99.9704 49.7798 98.4459 50.2453 96.7915C50.7109 95.1372 50.7845 93.3981 50.4603 91.7107C50.1361 90.0234 49.4229 88.4337 48.3768 87.0664C47.3306 85.6992 45.98 84.5916 44.4309 83.8307C43.3936 83.317 42.2804 82.9717 41.1334 82.8077C40.597 82.728 40.0554 82.6876 39.513 82.6869H38.3788C40.5663 82.3325 43.0536 80.9712 44.0501 79.0058C44.6727 77.9624 44.9703 76.759 44.9054 75.5476C44.8406 74.3362 44.416 73.171 43.6855 72.1993C42.1786 69.9117 42.7619 66.6575 44.4957 64.5068C45.3447 63.4479 46.4915 62.6642 47.79 62.2553C49.0885 61.8465 50.4801 61.8311 51.7874 62.2112C52.219 62.3332 52.6436 62.4784 53.0594 62.6461C53.7022 62.7938 54.3211 63.0297 54.8985 63.3469C55.5045 63.5827 56.0968 63.8516 56.6729 64.1524C57.8306 64.7515 58.9386 65.441 59.9865 66.2145C62.729 68.2437 65.0279 70.8061 66.7435 73.7459C66.7923 73.8495 66.8492 73.9491 66.9137 74.0439C68.9903 77.7523 70.0702 81.9303 70.0491 86.1747Z" fill="#E4D6CF"/>
<path d="M33.9145 93.1344C33.558 93.1666 33.2015 93.1827 32.845 93.1827C31.856 93.1837 30.8708 93.062 29.9121 92.8202C29.4103 92.6919 28.9177 92.5305 28.4376 92.3369C25.6686 91.2224 23.4246 89.1102 22.1539 86.4223C20.8832 83.7344 20.6795 80.6687 21.5834 77.838C21.7535 77.3466 21.948 76.8714 22.1586 76.3881V76.3156C23.5864 73.0217 25.7276 70.0816 28.4295 67.7048C28.6482 67.5035 28.8427 67.3343 29.0695 67.149C29.2964 66.9638 29.426 66.843 29.6124 66.706L29.8149 66.5449C29.222 66.9905 28.712 67.5357 28.308 68.1559C27.7433 69.0073 27.3983 69.9839 27.3033 70.9993V71.6034C27.3005 72.3398 27.4295 73.0707 27.6841 73.7622C27.979 74.5639 28.4337 75.2981 29.0209 75.9209L29.1019 76.0256C29.7121 76.6534 30.4457 77.1497 31.2571 77.4836C32.1051 77.8176 32.8359 78.3918 33.3587 79.135C33.8815 79.8781 34.1733 80.7575 34.198 81.6641V81.8171C34.1683 82.855 33.7527 83.8452 33.0314 84.5961C32.8189 84.8355 32.5916 85.0615 32.3508 85.2727C31.4824 85.8816 30.8008 86.7182 30.382 87.6892C30.1642 88.4801 30.1642 89.3147 30.382 90.1057C30.6794 90.8576 31.1564 91.5263 31.7718 92.054C32.3873 92.5816 33.1227 92.9524 33.9145 93.1344Z" fill="#FCC800"/>
<path d="M50.9204 62.0342C49.2427 61.7819 47.5306 62.1579 46.1159 63.0894V63.1377C43.3289 64.8051 42.3729 68.7118 43.6854 71.5632C43.9608 72.1512 44.3254 72.6909 44.5847 73.287C44.9343 74.1455 45.1019 75.0666 45.0768 75.9925C45.0517 76.9184 44.8345 77.8291 44.4389 78.6677C43.8527 80.0232 42.8408 81.1536 41.5546 81.8897C40.1854 82.6388 38.7189 82.6952 37.2201 82.9449C36.5331 83.0818 35.8624 83.2897 35.2189 83.5651C34.3513 83.8848 33.5331 84.3241 32.7883 84.87C33.4284 83.8309 34.352 82.381 34.1737 81.1406C34.0221 80.1399 33.5472 79.2154 32.8207 78.5066C32.0105 77.7011 30.8682 77.3628 29.9445 76.7184C29.2602 76.2376 28.6791 75.6259 28.2353 74.9191C27.7916 74.2124 27.494 73.4248 27.36 72.6023C27.1957 71.4691 27.338 70.3128 27.7723 69.2524C28.2066 68.192 28.9173 67.2658 29.8311 66.5691L30.0094 66.4242L30.6575 65.9489C34.4802 63.2369 38.9969 61.6563 43.6854 61.3898H45.0465C47.0233 61.371 48.9953 61.5873 50.9204 62.0342ZM53.6669 86.0863H53.197C53.3656 86.4174 53.6471 86.678 53.9913 86.8215C54.3354 86.9651 54.7197 86.9822 55.0754 86.8698C55.4311 86.7574 55.7349 86.5229 55.9326 86.2081C56.1303 85.8934 56.2088 85.519 56.1542 85.1519C56.1315 84.9894 56.0823 84.8315 56.0084 84.6848C55.7306 85.0606 55.3807 85.3781 54.9788 85.6186C54.5769 85.8592 54.131 86.0182 53.6669 86.0863ZM50.6773 87.5523C50.5505 87.5603 50.4233 87.5603 50.2965 87.5523C50.4338 87.815 50.6599 88.021 50.9351 88.1342C51.2102 88.2473 51.5167 88.2602 51.8004 88.1707C52.0842 88.0811 52.3271 87.8948 52.4863 87.6447C52.6454 87.3945 52.7106 87.0965 52.6704 86.8032C52.6472 86.6722 52.6063 86.5448 52.5489 86.4246C52.3276 86.7265 52.0482 86.9816 51.7269 87.1752C51.4056 87.3688 51.0489 87.497 50.6773 87.5523ZM51.7873 81.5836C51.5596 81.6613 51.3268 81.7232 51.0905 81.7689C51.456 82.1801 51.9515 82.4555 52.4953 82.5495C53.0392 82.6436 53.599 82.5508 54.0828 82.2864C54.5665 82.022 54.9454 81.6018 55.1569 81.0949C55.3685 80.588 55.4002 80.0246 55.2468 79.4974C55.159 79.262 55.039 79.0397 54.8903 78.8369C54.5821 79.4763 54.149 80.0485 53.6163 80.5201C53.0835 80.9916 52.4618 81.3531 51.7873 81.5836ZM47.9065 84.4028C47.721 84.4661 47.5315 84.5172 47.3393 84.5559C47.6229 84.9089 48.0228 85.151 48.4685 85.2394C48.9141 85.3278 49.3769 85.257 49.7751 85.0393C50.1733 84.8216 50.4813 84.4711 50.6449 84.0496C50.8085 83.6281 50.8171 83.1627 50.6692 82.7355C50.5993 82.5488 50.5039 82.3726 50.3857 82.2119C49.8841 83.2401 48.9924 84.0282 47.9065 84.4028Z" fill="#71696C"/>
<path d="M66.8893 74.076C66.8248 73.9812 66.768 73.8816 66.7192 73.7779C65.0035 70.8381 62.7047 68.2758 59.9622 66.2465C59.2997 65.7587 58.6129 65.3043 57.9043 64.8853C61.7834 68.4876 64.4827 73.167 65.6512 78.3149C66.8197 83.4628 66.4034 88.8412 64.4565 93.7507C62.5095 98.6603 59.1219 102.874 54.7342 105.844C50.3464 108.814 45.1614 110.403 39.8533 110.404H39.6345C41.4222 110.799 43.2478 110.999 45.079 111C50.4364 111.006 55.6529 109.294 59.9541 106.119C60.2458 105.901 60.5374 105.676 60.8129 105.45C65.3756 101.766 68.4861 96.6013 69.5975 90.8631C70.7088 85.1249 69.7499 79.1808 66.8893 74.076Z" fill="#D1C5BE"/>
<path d="M34.1981 81.664V81.3016C34.172 81.0784 34.1287 80.8576 34.0684 80.6411C34.0684 80.5525 34.0117 80.4558 33.9793 80.3672L33.9307 80.2383C33.9121 80.1745 33.8877 80.1125 33.8578 80.053C33.8578 79.9725 33.7849 79.8919 33.7443 79.8114V79.747C33.5752 79.4209 33.3686 79.1154 33.1286 78.8367L33.0719 78.7723L32.8855 78.579L32.764 78.4421C32.6041 78.2897 32.4306 78.1522 32.2455 78.0312C29.0047 79.6422 26.8901 82.2843 26.8901 85.2163C26.8901 88.2691 29.1587 90.9595 32.6182 92.5946C31.7062 92.1884 30.9753 91.4644 30.5634 90.5592C30.1514 89.6541 30.0869 88.6303 30.3821 87.6811C30.8008 86.71 31.4824 85.8735 32.3508 85.2646C32.4967 85.1357 32.6344 84.9988 32.7721 84.8619C32.9099 84.7249 32.9504 84.6846 33.0314 84.588C33.7527 83.8371 34.1683 82.8469 34.1981 81.809V81.664Z" fill="#D9AD00"/>
<path d="M81.5537 91.1044C84.0063 86.0972 85.1423 80.5537 84.8558 74.9917C84.5693 69.4297 82.8695 64.0306 79.9153 59.2988C76.9611 54.5669 72.8488 50.6566 67.9625 47.9332C63.0762 45.2097 57.5753 43.762 51.9737 43.7251C48.8059 44.4178 45.3058 45.9483 43.1345 48.4534C41.5506 50.2732 40.7254 52.6257 40.8278 55.0302C40.9302 57.4346 41.9524 59.7094 43.6855 61.3896H45.0466C47.0142 61.3866 48.9751 61.6164 50.888 62.0743L51.1554 62.1387C51.5691 62.2183 51.9756 62.3315 52.3707 62.4771L52.5003 62.5173L53.2376 62.767C53.6103 62.8879 53.9749 63.0248 54.3395 63.1778C56.3217 63.9648 58.1927 65.0046 59.9055 66.2709C62.6479 68.3002 64.9468 70.8625 66.6625 73.8023C66.4392 73.307 66.3392 72.7655 66.3708 72.2236C66.3767 71.4682 66.6285 70.735 67.0886 70.1339C67.5487 69.5327 68.1922 69.0959 68.9229 68.8888C69.8764 68.7143 70.8574 68.7585 71.7911 69.0182C72.7248 69.2778 73.5866 69.746 74.3107 70.387C74.3107 70.387 82.5746 76.4283 81.5537 91.1044Z" fill="#71696C"/>
<path d="M89.8662 70.8219C89.6346 68.8466 89.2086 66.8987 88.5942 65.0062C87.1794 61.0643 85.0969 57.392 82.4368 54.1481C79.1444 50.2199 74.9324 47.1552 70.1705 45.2232C68.8938 44.6954 67.5806 44.2593 66.2411 43.9183C65.358 43.6928 64.4668 43.4995 63.5756 43.3625C63.13 43.29 62.6276 43.2337 62.1496 43.1853C61.2017 43.0806 60.2538 43.0001 59.2978 43.0001C56.9063 42.9605 54.5179 43.1847 52.1762 43.6686L51.9736 43.725C57.5753 43.7619 63.0761 45.2096 67.9624 47.9331C72.8487 50.6565 76.961 54.5668 79.9152 59.2987C82.8695 64.0305 84.5692 69.4296 84.8557 74.9916C85.1423 80.5536 84.0062 86.0971 81.5537 91.1043C81.4188 92.9312 81.1644 94.7474 80.7921 96.5414C81.7556 95.593 82.6567 94.5841 83.49 93.5208C84.3597 92.4118 85.1502 91.2437 85.8558 90.0249C88.6175 85.3083 90.0635 79.9445 90.0445 74.4869C90.0547 73.2629 89.9951 72.0392 89.8662 70.8219Z" fill="#655D60"/>
<path d="M57.3047 56.7901C56.8992 55.3151 57.0977 53.7404 57.8568 52.4105C58.616 51.0807 59.874 50.1038 61.3557 49.6936L61.6716 49.6131C60.85 49.168 59.9325 48.9266 58.997 48.9092C58.0615 48.8919 57.1356 49.0991 56.2979 49.5134C55.4601 49.9276 54.7352 50.5367 54.1847 51.2889C53.6342 52.0411 53.2743 52.9142 53.1356 53.8342C52.9969 54.7541 53.0834 55.6938 53.3878 56.5734C53.6922 57.453 54.2056 58.2467 54.8843 58.887C55.5631 59.5273 56.3871 59.9954 57.2866 60.2515C58.1861 60.5077 59.1345 60.5444 60.0512 60.3584C59.3757 59.9777 58.7843 59.4655 58.3124 58.8524C57.8405 58.2393 57.4978 57.5378 57.3047 56.7901ZM65.7469 58.5058C65.7317 57.2844 66.2042 56.1068 67.0607 55.2311C67.9172 54.3554 69.0879 53.853 70.3164 53.8339H70.5756C70.0297 53.3303 69.3696 52.9652 68.6514 52.7696C67.9332 52.574 67.1781 52.5536 66.4503 52.7102C65.7224 52.8669 65.0434 53.1959 64.4709 53.6693C63.8983 54.1427 63.4492 54.7466 63.1616 55.4295C62.8741 56.1124 62.7566 56.8543 62.8192 57.5921C62.8818 58.3298 63.1226 59.0416 63.5211 59.667C63.9197 60.2925 64.4642 60.813 65.1084 61.1844C65.7526 61.5557 66.4775 61.767 67.2214 61.8003C66.7662 61.3773 66.4011 60.8678 66.1478 60.3018C65.8945 59.7359 65.7582 59.1251 65.7469 58.5058Z" fill="#E4D6CF"/>
<path d="M29.815 66.5449C29.815 66.5449 25.7965 69.5816 24.0302 72.8036C22.264 76.0256 22.9527 79.8598 26.2178 80.7458C28.7455 81.4385 32.4157 81.1888 31.8891 85.6191C32.8521 84.7309 33.9694 84.024 35.1866 83.5328C36.2737 81.8293 36.7026 79.7917 36.3937 77.7977L29.9122 74.5354C29.9122 74.5354 28.9643 67.1652 29.815 66.5449Z" fill="#71696C"/>
<path d="M23.3496 80.7133C23.3496 80.812 23.3201 80.9086 23.265 80.9907C23.2098 81.0729 23.1313 81.1369 23.0395 81.1747C22.9477 81.2125 22.8467 81.2224 22.7493 81.2031C22.6519 81.1838 22.5623 81.1363 22.4921 81.0664C22.4218 80.9966 22.374 80.9076 22.3546 80.8107C22.3352 80.7138 22.3452 80.6134 22.3832 80.5222C22.4212 80.4309 22.4856 80.3529 22.5682 80.298C22.6508 80.2432 22.7479 80.2139 22.8473 80.2139C22.9805 80.2139 23.1083 80.2665 23.2025 80.3601C23.2967 80.4538 23.3496 80.5808 23.3496 80.7133Z" fill="#4C4043"/>
<path d="M35.3162 75.5985C34.8668 75.963 34.3495 76.236 33.7939 76.4017C33.2383 76.5675 32.6553 76.6227 32.0782 76.5644C31.5011 76.506 30.9413 76.3352 30.4306 76.0617C29.9199 75.7881 29.4685 75.4173 29.1021 74.9702L28.6646 75.3246C29.073 75.8469 29.5824 76.2827 30.1627 76.6064C30.7431 76.9301 31.3826 77.1352 32.0439 77.2095C32.7051 77.2838 33.3746 77.226 34.013 77.0393C34.6514 76.8526 35.2458 76.5408 35.7612 76.1224C36.2766 75.7039 36.7027 75.1872 37.0143 74.6027C37.3259 74.0181 37.5168 73.3775 37.5758 72.7186C37.6347 72.0596 37.5605 71.3955 37.3575 70.7655C37.1545 70.1354 36.8268 69.5521 36.3938 69.0498L35.9563 69.4042C36.324 69.8525 36.5991 70.3684 36.766 70.9225C36.9329 71.4766 36.9881 72.058 36.9287 72.6334C36.8692 73.2087 36.6962 73.7668 36.4195 74.2756C36.1428 74.7844 35.7679 75.2339 35.3162 75.5985Z" fill="#FCC800"/>
<path d="M35.3162 75.5986C35.7673 75.2335 36.1415 74.7835 36.4175 74.2744C36.6934 73.7653 36.8657 73.2071 36.9244 72.6317C36.9831 72.0564 36.9271 71.4752 36.7596 70.9214C36.5921 70.3676 36.3163 69.852 35.9482 69.4043L29.1021 74.9703C29.4685 75.4173 29.9199 75.7882 30.4306 76.0618C30.9413 76.3353 31.5011 76.5061 32.0782 76.5645C32.6553 76.6228 33.2383 76.5675 33.7939 76.4018C34.3495 76.2361 34.8668 75.9631 35.3162 75.5986Z" fill="white"/>
<mask id="mask1_345_746" style="mask-type:luminance" maskUnits="userSpaceOnUse" x="29" y="69" width="8" height="8">
<path d="M35.3162 75.5986C35.7673 75.2335 36.1415 74.7835 36.4175 74.2744C36.6934 73.7653 36.8657 73.2071 36.9244 72.6317C36.9831 72.0564 36.9271 71.4752 36.7596 70.9214C36.5921 70.3676 36.3163 69.852 35.9482 69.4043L29.1021 74.9703C29.4685 75.4173 29.9199 75.7882 30.4306 76.0618C30.9413 76.3353 31.5011 76.5061 32.0782 76.5645C32.6553 76.6228 33.2383 76.5675 33.7939 76.4018C34.3495 76.2361 34.8668 75.9631 35.3162 75.5986Z" fill="white"/>
</mask>
<g mask="url(#mask1_345_746)">
<path d="M37.8279 68.9452C38.3021 69.5225 38.5936 70.2266 38.6655 70.9685C38.7374 71.7104 38.5864 72.4569 38.2317 73.1136C37.877 73.7702 37.3345 74.3076 36.6726 74.6578C36.0108 75.0079 35.2594 75.1552 34.5134 75.0809C33.7675 75.0066 33.0604 74.7141 32.4816 74.2404C31.9027 73.7667 31.4781 73.1331 31.2614 72.4195C31.0448 71.706 31.0457 70.9446 31.2641 70.2315C31.4826 69.5185 31.9087 68.8859 32.4887 68.4136C33.2682 67.7816 34.268 67.4826 35.2688 67.5823C36.2697 67.6819 37.1899 68.1721 37.8279 68.9452Z" fill="#4C4043"/>
<path d="M34.1739 74.036C34.1739 74.2048 34.1235 74.3699 34.0292 74.5103C33.9348 74.6507 33.8007 74.7602 33.6437 74.8248C33.4868 74.8894 33.3141 74.9063 33.1476 74.8734C32.981 74.8404 32.8279 74.7591 32.7078 74.6397C32.5877 74.5203 32.5059 74.3682 32.4728 74.2025C32.4397 74.0369 32.4567 73.8652 32.5217 73.7092C32.5867 73.5532 32.6967 73.4198 32.838 73.326C32.9792 73.2322 33.1452 73.1821 33.3151 73.1821C33.5422 73.1842 33.7594 73.2749 33.92 73.4345C34.0806 73.5942 34.1718 73.8102 34.1739 74.036Z" fill="white"/>
</g>
<path d="M109.262 85.8363V50.2495H120.305C128.229 50.2978 134.889 52.1746 134.889 61.1801C134.889 67.6241 130.481 71.869 122.501 72.1187H116.91V85.8122L109.262 85.8363ZM116.943 66.2386C121.196 66.0372 126.746 67.5194 126.746 61.2123C126.746 54.9053 121.196 56.3793 116.943 56.1941V66.2386ZM147.074 50.2495V85.8363H139.644V50.2495H147.074ZM160.62 75.4454C160.62 78.6674 161.066 81.6478 164.874 81.6478C167.45 81.6478 168.738 80.7134 169.435 78.4258H176.119C175.479 84.5314 170.675 86.5532 164.874 86.5532C156.359 86.5532 152.94 81.7766 152.94 73.5042C152.94 66.0695 157.298 60.3504 164.874 60.3504C169.532 60.3504 173.397 61.9614 175.479 66.2628C176.141 67.6587 176.558 69.1572 176.711 70.693C176.881 72.2631 176.949 73.8425 176.913 75.4213L160.62 75.4454ZM169.265 70.5239C169.265 67.8174 168.528 65.3042 164.906 65.3042C161.495 65.3042 160.75 67.8174 160.653 70.5239H169.265ZM182.179 68.1074C182.228 65.0062 183.565 63.0891 185.55 61.9534C187.812 60.7928 190.339 60.2376 192.882 60.3424C197.881 60.3424 203.479 62.1709 203.479 69.6056V83.1299C203.539 84.0383 203.656 84.9422 203.828 85.8363H197.144C196.987 84.7422 196.903 83.6389 196.892 82.5338H196.811C195.126 85.3933 192.55 86.5613 189.179 86.5613C184.529 86.5613 181.077 83.9031 181.077 79.0702C181.098 77.394 181.611 75.7603 182.552 74.3696C183.493 72.9788 184.822 71.8914 186.376 71.2407C189.35 69.9681 193.109 69.815 196.098 69.9117V67.616C196.085 67.1891 195.985 66.7692 195.805 66.3818C195.624 65.9944 195.366 65.6475 195.046 65.3622C194.726 65.0768 194.352 64.8588 193.945 64.7215C193.538 64.5842 193.108 64.5303 192.679 64.5632C192.224 64.5678 191.774 64.6645 191.358 64.8474C190.941 65.0304 190.567 65.2957 190.257 65.6274C189.947 65.959 189.708 66.3499 189.554 66.7762C189.401 67.2026 189.337 67.6555 189.366 68.1074H182.179ZM188.175 78.1036C188.16 78.5779 188.243 79.0501 188.42 79.4909C188.597 79.9316 188.863 80.3315 189.202 80.6655C189.541 80.9995 189.946 81.2606 190.391 81.4323C190.836 81.6041 191.311 81.6829 191.788 81.6639C195.904 81.6639 196.05 77.137 196.05 74.2291C193.473 74.1647 188.175 74.1164 188.175 78.1036ZM221.927 67.7127C221.83 66.0372 220.242 65.2962 218.557 65.2962C216.531 65.2962 215.592 65.8842 215.592 67.5113C215.592 71.4018 229.802 69.1867 229.802 78.4419C229.802 83.8629 223.167 86.5693 218.557 86.5693C212.764 86.5693 207.717 84.3059 207.611 78.6352H214.498C214.644 80.5603 216.377 81.6397 218.549 81.6397C220.582 81.6397 222.122 80.8342 222.122 78.8849C222.122 76.9356 218.549 76.0818 217.066 75.7354C212.31 74.5997 207.903 73.5686 207.903 67.8093C207.903 62.638 214.19 60.3665 218.549 60.3665C223.799 60.3665 228.271 62.2434 228.603 67.7046L221.927 67.7127ZM235.012 68.1074C235.06 65.0062 236.397 63.0891 238.382 61.9534C240.644 60.7928 243.171 60.2376 245.714 60.3424C250.713 60.3424 256.312 62.1709 256.312 69.6056V83.1299C256.368 84.0387 256.484 84.9428 256.66 85.8363H249.968C249.818 84.7416 249.737 83.6386 249.725 82.5338H249.628C247.943 85.3933 245.366 86.5613 241.996 86.5613C237.337 86.5613 233.894 83.9031 233.894 79.0702C233.913 77.3935 234.424 75.759 235.366 74.3678C236.307 72.9766 237.637 71.8897 239.192 71.2407C242.166 69.9681 245.925 69.815 248.915 69.9117V67.616C248.902 67.1891 248.802 66.7692 248.621 66.3818C248.44 65.9944 248.182 65.6475 247.862 65.3622C247.543 65.0768 247.168 64.8588 246.761 64.7215C246.355 64.5842 245.924 64.5303 245.496 64.5632C245.04 64.5678 244.591 64.6645 244.174 64.8474C243.758 65.0304 243.383 65.2957 243.073 65.6274C242.763 65.959 242.524 66.3499 242.371 66.7762C242.218 67.2026 242.153 67.6555 242.182 68.1074H235.012ZM241.007 78.1036C240.991 78.5775 241.074 79.0495 241.25 79.4903C241.425 79.931 241.691 80.331 242.029 80.6651C242.368 80.9993 242.772 81.2604 243.216 81.4323C243.661 81.6041 244.136 81.683 244.613 81.6639C248.728 81.6639 248.874 77.137 248.874 74.2291C246.306 74.1647 241.007 74.1164 241.007 78.1036ZM270.028 63.9429L270.126 64.0879C271.665 61.8245 273.99 60.3424 277.758 60.3424C280.237 60.3424 285.049 62.1709 285.932 65.7634C286.249 67.0531 286.414 68.3748 286.427 69.7022V85.8122H278.997V70.9669C278.948 68.3087 278.187 65.3284 274.541 65.3284C272.208 65.3284 270.182 67.3985 270.077 70.9669V85.8363H262.647V61.1157H270.028V63.9429ZM295.436 61.1157V56.2827L302.865 53.6245V61.1559H308.464V66.0372H302.865V77.5156C302.865 80.7375 303.36 81.6478 305.936 81.6478C306.746 81.6478 307.556 81.5511 308.318 81.5028V85.8363C307.508 86.231 303.513 86.5774 302.468 86.5774C296.675 86.5774 295.436 83.5729 295.436 78.2002V66.0372H290.437V61.1157H295.436ZM320.203 75.4454C320.203 78.6674 320.649 81.6478 324.457 81.6478C327.033 81.6478 328.321 80.7134 329.018 78.4258H335.702C335.062 84.5314 330.258 86.5532 324.457 86.5532C315.942 86.5532 312.523 81.7766 312.523 73.5042C312.523 66.0695 316.882 60.3504 324.457 60.3504C329.115 60.3504 332.98 61.9614 335.062 66.2628C335.724 67.6595 336.143 69.1574 336.302 70.693C336.466 72.2635 336.531 73.8427 336.496 75.4213L320.203 75.4454ZM328.816 70.5239C328.816 67.8174 328.078 65.3042 324.457 65.3042C321.046 65.3042 320.301 67.8174 320.203 70.5239H328.816ZM357.18 67.5113C359.692 66.6172 363.889 64.8371 366.903 57.3782C364.804 58.377 360.924 59.1664 356.281 60.5599C351.639 61.9534 349.168 67.4871 348.463 69.4203V61.3009H341.276V85.8363H348.463V80.2623C348.463 80.2623 348.463 76.0737 354.855 73.8183C359.02 72.3443 361.596 70.395 363.994 65.5298C363.978 65.5539 359.765 68.0107 357.18 67.5113ZM355.811 85.8363V83.9031H357.667V85.8363H355.811ZM361.823 79.3924C362.067 79.0288 362.402 78.7354 362.796 78.5416C363.19 78.3479 363.629 78.2607 364.067 78.2888C364.804 78.2888 366.214 78.8285 366.498 79.8998C366.59 80.2824 366.639 80.6743 366.643 81.0678V85.8122H364.456V81.4544C364.456 80.6489 364.221 79.779 363.135 79.779C362.455 79.779 361.855 80.3912 361.823 81.4544V85.8363H359.66V78.5869H361.831L361.823 79.3924ZM370.192 82.7755C370.192 83.7179 370.322 84.6039 371.448 84.6039C371.751 84.647 372.059 84.5734 372.309 84.3982C372.559 84.2231 372.732 83.9595 372.793 83.6615H374.762C374.575 85.4578 373.141 86.078 371.448 86.078C368.936 86.078 367.932 84.6684 367.932 82.2277C367.932 80.0368 369.212 78.3533 371.448 78.3533C372.085 78.2846 372.727 78.4105 373.291 78.7141C373.854 79.0177 374.31 79.4847 374.6 80.0529C374.796 80.4635 374.92 80.9051 374.964 81.3578C375.012 81.8207 375.031 82.2861 375.021 82.7513L370.192 82.7755ZM372.736 81.3175C372.736 80.512 372.517 79.779 371.448 79.779C370.378 79.779 370.225 80.5201 370.192 81.3175H372.736ZM377.16 78.5466V77.1128L379.355 76.3073V78.5224H380.976V79.9804H379.355V83.3554C379.355 84.314 379.501 84.5798 380.255 84.5798C380.49 84.5798 380.725 84.5798 380.96 84.5314V85.8122C380.394 85.9474 379.815 86.0204 379.234 86.0297C377.524 86.0297 377.16 85.1436 377.16 83.5648V80.0045H375.685V78.5466H377.16Z" fill="#71696C"/>
</g>
<defs>
<clipPath id="clip0_345_746">
<rect width="360" height="68" fill="white" transform="translate(21 43)"/>
</clipPath>
</defs>
</svg>
