<svg width="580" height="80" viewBox="0 0 580 80" fill="none" xmlns="http://www.w3.org/2000/svg">
<path d="M0 16C0 7.16344 7.16344 0 16 0H564C572.837 0 580 7.16344 580 16V64C580 72.8366 572.837 80 564 80H16C7.16345 80 0 72.8366 0 64V16Z" fill="white"/>
<path d="M564 76V80H16V76H564ZM576 64V16C576 9.37259 570.627 4 564 4H16C9.37258 4 4 9.37258 4 16V64C4 70.6274 9.37258 76 16 76V80C7.30156 80 0.223981 73.0587 0.00488281 64.4131L0 64V16C0 7.30155 6.94127 0.22398 15.5869 0.00488281L16 0H564L564.413 0.00488281C573.059 0.223985 580 7.30156 580 16V64C580 72.8366 572.837 80 564 80V76C570.627 76 576 70.6274 576 64Z" fill="#CECECE"/>
<path d="M530 80L525 80L525 -2.02165e-07L530 0L530 80Z" fill="#CECECE"/>
<path d="M530 42.5L530 37.5L576.5 37.5L576.5 42.5L530 42.5Z" fill="#CECECE"/>
<path d="M124.031 41.5324C124.031 44.2004 123.831 46.5771 123.433 48.6624C123.034 50.7477 122.39 52.5264 121.501 53.9984C120.642 55.4397 119.507 56.5437 118.097 57.3104C116.717 58.0771 115.045 58.4604 113.083 58.4604C110.629 58.4604 108.59 57.7857 106.965 56.4364C105.37 55.0871 104.174 53.1551 103.377 50.6404C102.61 48.0951 102.227 45.0591 102.227 41.5324C102.227 37.9751 102.579 34.9391 103.285 32.4244C104.021 29.9097 105.186 27.9931 106.781 26.6744C108.375 25.3251 110.476 24.6504 113.083 24.6504C115.536 24.6504 117.575 25.3251 119.201 26.6744C120.826 27.9931 122.037 29.9097 122.835 32.4244C123.632 34.9391 124.031 37.9751 124.031 41.5324ZM106.275 41.5324C106.275 44.5377 106.489 47.0371 106.919 49.0304C107.379 51.0237 108.099 52.5264 109.081 53.5384C110.093 54.5197 111.427 55.0104 113.083 55.0104C114.739 55.0104 116.057 54.5197 117.039 53.5384C118.051 52.5571 118.787 51.0697 119.247 49.0764C119.707 47.0524 119.937 44.5377 119.937 41.5324C119.937 38.5271 119.707 36.0431 119.247 34.0804C118.787 32.0871 118.051 30.5997 117.039 29.6184C116.057 28.6064 114.739 28.1004 113.083 28.1004C111.427 28.1004 110.093 28.6064 109.081 29.6184C108.099 30.5997 107.379 32.0871 106.919 34.0804C106.489 36.0431 106.275 38.5271 106.275 41.5324Z" fill="#555555"/>
<path d="M97.7063 41.5324C97.7063 44.2004 97.507 46.5771 97.1083 48.6624C96.7097 50.7477 96.0657 52.5264 95.1763 53.9984C94.3177 55.4397 93.183 56.5437 91.7723 57.3104C90.3923 58.0771 88.721 58.4604 86.7583 58.4604C84.305 58.4604 82.2657 57.7857 80.6403 56.4364C79.0457 55.0871 77.8497 53.1551 77.0523 50.6404C76.2857 48.0951 75.9023 45.0591 75.9023 41.5324C75.9023 37.9751 76.255 34.9391 76.9603 32.4244C77.6963 29.9097 78.8617 27.9931 80.4563 26.6744C82.051 25.3251 84.1517 24.6504 86.7583 24.6504C89.2117 24.6504 91.251 25.3251 92.8763 26.6744C94.5017 27.9931 95.713 29.9097 96.5103 32.4244C97.3077 34.9391 97.7063 37.9751 97.7063 41.5324ZM79.9503 41.5324C79.9503 44.5377 80.165 47.0371 80.5943 49.0304C81.0543 51.0237 81.775 52.5264 82.7563 53.5384C83.7683 54.5197 85.1023 55.0104 86.7583 55.0104C88.4143 55.0104 89.733 54.5197 90.7143 53.5384C91.7263 52.5571 92.4623 51.0697 92.9223 49.0764C93.3823 47.0524 93.6123 44.5377 93.6123 41.5324C93.6123 38.5271 93.3823 36.0431 92.9223 34.0804C92.4623 32.0871 91.7263 30.5997 90.7143 29.6184C89.733 28.6064 88.4143 28.1004 86.7583 28.1004C85.1023 28.1004 83.7683 28.6064 82.7563 29.6184C81.775 30.5997 81.0543 32.0871 80.5943 34.0804C80.165 36.0431 79.9503 38.5271 79.9503 41.5324Z" fill="#555555"/>
<path d="M71.3821 41.5324C71.3821 44.2004 71.1828 46.5771 70.7841 48.6624C70.3855 50.7477 69.7415 52.5264 68.8521 53.9984C67.9935 55.4397 66.8588 56.5437 65.4481 57.3104C64.0681 58.0771 62.3968 58.4604 60.4341 58.4604C57.9808 58.4604 55.9415 57.7857 54.3161 56.4364C52.7215 55.0871 51.5255 53.1551 50.7281 50.6404C49.9615 48.0951 49.5781 45.0591 49.5781 41.5324C49.5781 37.9751 49.9308 34.9391 50.6361 32.4244C51.3721 29.9097 52.5375 27.9931 54.1321 26.6744C55.7268 25.3251 57.8275 24.6504 60.4341 24.6504C62.8875 24.6504 64.9268 25.3251 66.5521 26.6744C68.1775 27.9931 69.3888 29.9097 70.1861 32.4244C70.9835 34.9391 71.3821 37.9751 71.3821 41.5324ZM53.6261 41.5324C53.6261 44.5377 53.8408 47.0371 54.2701 49.0304C54.7301 51.0237 55.4508 52.5264 56.4321 53.5384C57.4441 54.5197 58.7781 55.0104 60.4341 55.0104C62.0901 55.0104 63.4088 54.5197 64.3901 53.5384C65.4021 52.5571 66.1381 51.0697 66.5981 49.0764C67.0581 47.0524 67.2881 44.5377 67.2881 41.5324C67.2881 38.5271 67.0581 36.0431 66.5981 34.0804C66.1381 32.0871 65.4021 30.5997 64.3901 29.6184C63.4088 28.6064 62.0901 28.1004 60.4341 28.1004C58.7781 28.1004 57.4441 28.6064 56.4321 29.6184C55.4508 30.5997 54.7301 32.0871 54.2701 34.0804C53.8408 36.0431 53.6261 38.5271 53.6261 41.5324Z" fill="#555555"/>
<path d="M46.3918 50.5482H41.6078V58.0002H37.6978V50.5482H21.9658V47.0982L37.4218 24.9722H41.6078V46.9142H46.3918V50.5482ZM37.6978 36.5642C37.6978 35.7668 37.6978 35.0462 37.6978 34.4022C37.7285 33.7275 37.7592 33.0988 37.7898 32.5162C37.8205 31.9335 37.8358 31.3815 37.8358 30.8602C37.8665 30.3082 37.8972 29.7868 37.9278 29.2962H37.7438C37.4985 29.8788 37.1918 30.5075 36.8238 31.1822C36.4558 31.8568 36.1032 32.4242 35.7658 32.8842L25.9218 46.9142H37.6978V36.5642Z" fill="#555555"/>
<path d="M543 24L553 14L563 24H543Z" fill="#5F6368"/>
<path d="M563 56L553 66L543 56L563 56Z" fill="#5F6368"/>
</svg>
