<svg width="580" height="286" viewBox="0 0 580 286" fill="none" xmlns="http://www.w3.org/2000/svg">
<path d="M19.6667 282C18.9333 282 18.3056 281.739 17.7833 281.217C17.2611 280.694 17 280.067 17 279.333V260.667C17 259.933 17.2611 259.306 17.7833 258.783C18.3056 258.261 18.9333 258 19.6667 258H38.3333C39.0667 258 39.6944 258.261 40.2167 258.783C40.7389 259.306 41 259.933 41 260.667V279.333C41 280.067 40.7389 280.694 40.2167 281.217C39.6944 281.739 39.0667 282 38.3333 282H19.6667ZM21 276.667H37L32 270L28 275.333L25 271.333L21 276.667Z" fill="#555555"/>
<path d="M0 16C0 7.16344 7.16344 0 16 0H564C572.837 0 580 7.16344 580 16V232C580 240.837 572.837 248 564 248H16C7.16345 248 0 240.837 0 232V16Z" fill="#FFF9E3"/>
<path d="M564 244V248H16V244H564ZM576 232V16C576 9.37259 570.627 4 564 4H16C9.47608 4 4.16811 9.20608 4.00391 15.6904L4 16V232C4 238.627 9.37258 244 16 244V248C7.16345 248 0 240.837 0 232V16C0 7.30155 6.94127 0.22398 15.5869 0.00488281L16 0H564L564.413 0.00488281C573.059 0.223985 580 7.30156 580 16V232C580 240.837 572.837 248 564 248V244C570.627 244 576 238.627 576 232Z" fill="#CECECE"/>
<path d="M198 152L196 152L196 125L198 125L198 152Z" fill="#555555"/>
<path d="M190.381 142.352C190.381 143.2 190.173 143.912 189.757 144.488C189.341 145.064 188.741 145.504 187.957 145.808C187.173 146.096 186.229 146.24 185.125 146.24C184.213 146.24 183.429 146.168 182.773 146.024C182.133 145.896 181.541 145.704 180.997 145.448V143.216C181.573 143.488 182.237 143.736 182.989 143.96C183.741 144.168 184.477 144.272 185.197 144.272C186.157 144.272 186.845 144.12 187.261 143.816C187.693 143.512 187.909 143.104 187.909 142.592C187.909 142.304 187.829 142.048 187.669 141.824C187.509 141.584 187.205 141.344 186.757 141.104C186.325 140.848 185.685 140.56 184.837 140.24C184.021 139.904 183.325 139.576 182.749 139.256C182.173 138.92 181.733 138.528 181.429 138.08C181.125 137.616 180.973 137.024 180.973 136.304C180.973 135.184 181.421 134.328 182.317 133.736C183.229 133.128 184.429 132.824 185.917 132.824C186.701 132.824 187.437 132.904 188.125 133.064C188.829 133.208 189.509 133.432 190.165 133.736L189.325 135.68C188.957 135.504 188.573 135.36 188.173 135.248C187.789 135.12 187.397 135.016 186.997 134.936C186.613 134.856 186.213 134.816 185.797 134.816C185.029 134.816 184.445 134.936 184.045 135.176C183.645 135.416 183.445 135.752 183.445 136.184C183.445 136.488 183.533 136.752 183.709 136.976C183.901 137.2 184.229 137.424 184.693 137.648C185.157 137.872 185.789 138.144 186.589 138.464C187.389 138.768 188.069 139.08 188.629 139.4C189.205 139.72 189.637 140.112 189.925 140.576C190.229 141.04 190.381 141.632 190.381 142.352Z" fill="#555555"/>
<path d="M173.143 132.824C174.279 132.824 175.255 133.064 176.071 133.544C176.887 134.008 177.511 134.68 177.943 135.56C178.391 136.44 178.615 137.48 178.615 138.68V140.072H169.927C169.959 141.4 170.303 142.416 170.959 143.12C171.631 143.824 172.567 144.176 173.767 144.176C174.599 144.176 175.335 144.104 175.975 143.96C176.631 143.8 177.303 143.568 177.991 143.264V145.376C177.351 145.664 176.695 145.88 176.023 146.024C175.367 146.168 174.583 146.24 173.671 146.24C172.423 146.24 171.319 145.992 170.359 145.496C169.399 145 168.647 144.264 168.103 143.288C167.575 142.296 167.311 141.08 167.311 139.64C167.311 138.184 167.551 136.952 168.031 135.944C168.527 134.936 169.207 134.168 170.071 133.64C170.951 133.096 171.975 132.824 173.143 132.824ZM173.143 134.792C172.231 134.792 171.495 135.088 170.935 135.68C170.391 136.272 170.071 137.112 169.975 138.2H176.071C176.071 137.528 175.967 136.936 175.759 136.424C175.551 135.912 175.231 135.512 174.799 135.224C174.367 134.936 173.815 134.792 173.143 134.792Z" fill="#555555"/>
<path d="M164.073 133.064V146H162.033L161.673 144.296H161.553C161.281 144.744 160.929 145.112 160.497 145.4C160.065 145.688 159.593 145.896 159.081 146.024C158.569 146.168 158.041 146.24 157.497 146.24C156.489 146.24 155.633 146.08 154.929 145.76C154.241 145.424 153.713 144.912 153.345 144.224C152.993 143.52 152.817 142.624 152.817 141.536V133.064H155.385V141.152C155.385 142.16 155.593 142.912 156.009 143.408C156.441 143.904 157.105 144.152 158.001 144.152C158.897 144.152 159.601 143.976 160.113 143.624C160.625 143.272 160.985 142.76 161.193 142.088C161.417 141.4 161.529 140.576 161.529 139.616V133.064H164.073Z" fill="#555555"/>
<path d="M149.904 142.352C149.904 143.2 149.696 143.912 149.28 144.488C148.864 145.064 148.264 145.504 147.48 145.808C146.696 146.096 145.752 146.24 144.648 146.24C143.736 146.24 142.952 146.168 142.296 146.024C141.656 145.896 141.064 145.704 140.52 145.448V143.216C141.096 143.488 141.76 143.736 142.512 143.96C143.264 144.168 144 144.272 144.72 144.272C145.68 144.272 146.368 144.12 146.784 143.816C147.216 143.512 147.432 143.104 147.432 142.592C147.432 142.304 147.352 142.048 147.192 141.824C147.032 141.584 146.728 141.344 146.28 141.104C145.848 140.848 145.208 140.56 144.36 140.24C143.544 139.904 142.848 139.576 142.272 139.256C141.696 138.92 141.256 138.528 140.952 138.08C140.648 137.616 140.496 137.024 140.496 136.304C140.496 135.184 140.944 134.328 141.84 133.736C142.752 133.128 143.952 132.824 145.44 132.824C146.224 132.824 146.96 132.904 147.648 133.064C148.352 133.208 149.032 133.432 149.688 133.736L148.848 135.68C148.48 135.504 148.096 135.36 147.696 135.248C147.312 135.12 146.92 135.016 146.52 134.936C146.136 134.856 145.736 134.816 145.32 134.816C144.552 134.816 143.968 134.936 143.568 135.176C143.168 135.416 142.968 135.752 142.968 136.184C142.968 136.488 143.056 136.752 143.232 136.976C143.424 137.2 143.752 137.424 144.216 137.648C144.68 137.872 145.312 138.144 146.112 138.464C146.912 138.768 147.592 139.08 148.152 139.4C148.728 139.72 149.16 140.112 149.448 140.576C149.752 141.04 149.904 141.632 149.904 142.352Z" fill="#555555"/>
<path d="M138.279 142.352C138.279 143.2 138.071 143.912 137.655 144.488C137.239 145.064 136.639 145.504 135.855 145.808C135.071 146.096 134.127 146.24 133.023 146.24C132.111 146.24 131.327 146.168 130.671 146.024C130.031 145.896 129.439 145.704 128.895 145.448V143.216C129.471 143.488 130.135 143.736 130.887 143.96C131.639 144.168 132.375 144.272 133.095 144.272C134.055 144.272 134.743 144.12 135.159 143.816C135.591 143.512 135.807 143.104 135.807 142.592C135.807 142.304 135.727 142.048 135.567 141.824C135.407 141.584 135.103 141.344 134.655 141.104C134.223 140.848 133.583 140.56 132.735 140.24C131.919 139.904 131.223 139.576 130.647 139.256C130.071 138.92 129.631 138.528 129.327 138.08C129.023 137.616 128.871 137.024 128.871 136.304C128.871 135.184 129.319 134.328 130.215 133.736C131.127 133.128 132.327 132.824 133.815 132.824C134.599 132.824 135.335 132.904 136.023 133.064C136.727 133.208 137.407 133.432 138.063 133.736L137.223 135.68C136.855 135.504 136.471 135.36 136.071 135.248C135.687 135.12 135.295 135.016 134.895 134.936C134.511 134.856 134.111 134.816 133.695 134.816C132.927 134.816 132.343 134.936 131.943 135.176C131.543 135.416 131.343 135.752 131.343 136.184C131.343 136.488 131.431 136.752 131.607 136.976C131.799 137.2 132.127 137.424 132.591 137.648C133.055 137.872 133.687 138.144 134.487 138.464C135.287 138.768 135.967 139.08 136.527 139.4C137.103 139.72 137.535 140.112 137.823 140.576C138.127 141.04 138.279 141.632 138.279 142.352Z" fill="#555555"/>
<path d="M126.771 146H120.123V144.512L122.163 143.912V130.976L120.123 130.352V128.864H126.771V130.352L124.755 130.976V143.912L126.771 144.512V146Z" fill="#555555"/>
<path d="M112.79 128.864L106.406 146H103.982L110.366 128.864H112.79Z" fill="#555555"/>
<path d="M77.8992 131.312V132.848H82.0512V131.312H77.8992ZM77.8992 128.288V129.8H82.0512V128.288H77.8992ZM75.8832 126.728H84.1632V134.432H75.8832V126.728ZM74.6112 136.04H85.4352V137.744H74.6112V136.04ZM85.2912 126.848H96.3072V128.504H85.2912V126.848ZM79.2432 136.568H81.1872V145.928L79.2432 144.8V136.568ZM80.2512 140.048H85.0032V141.752H80.2512V140.048ZM89.9952 127.256L92.0832 127.688C91.8272 128.312 91.5712 128.952 91.3152 129.608C91.0592 130.264 90.8112 130.824 90.5712 131.288L88.9152 130.856C89.1232 130.344 89.3232 129.752 89.5152 129.08C89.7232 128.392 89.8832 127.784 89.9952 127.256ZM88.1952 134.72V136.208H93.3312V134.72H88.1952ZM88.1952 137.744V139.256H93.3312V137.744H88.1952ZM88.1952 131.696V133.184H93.3312V131.696H88.1952ZM86.1552 130.088H95.4432V140.864H86.1552V130.088ZM88.1232 141.176L90.0192 141.752C89.4912 142.424 88.8352 143.08 88.0512 143.72C87.2672 144.36 86.4992 144.888 85.7472 145.304C85.6512 145.176 85.5072 145.024 85.3152 144.848C85.1392 144.672 84.9552 144.504 84.7632 144.344C84.5872 144.168 84.4192 144.032 84.2592 143.936C84.9952 143.6 85.7152 143.192 86.4192 142.712C87.1232 142.216 87.6912 141.704 88.1232 141.176ZM76.0032 138.896H77.8752C77.8432 140.096 77.7552 141.264 77.6112 142.4C77.4672 143.536 77.2352 144.6 76.9152 145.592C76.5952 146.568 76.1472 147.408 75.5712 148.112C75.4272 147.888 75.2192 147.624 74.9472 147.32C74.6752 147.016 74.4192 146.776 74.1792 146.6C74.6592 146.04 75.0272 145.344 75.2832 144.512C75.5392 143.68 75.7152 142.784 75.8112 141.824C75.9072 140.848 75.9712 139.872 76.0032 138.896ZM77.4912 141.104C77.8752 142.128 78.3792 142.944 79.0032 143.552C79.6272 144.16 80.3632 144.624 81.2112 144.944C82.0592 145.248 83.0192 145.448 84.0912 145.544C85.1632 145.64 86.3472 145.688 87.6432 145.688C87.8992 145.688 88.3232 145.688 88.9152 145.688C89.5232 145.688 90.2032 145.688 90.9552 145.688C91.7232 145.672 92.4992 145.664 93.2832 145.664C94.0672 145.664 94.7712 145.664 95.3952 145.664C96.0352 145.648 96.5232 145.632 96.8592 145.616C96.6992 145.84 96.5392 146.136 96.3792 146.504C96.2352 146.888 96.1392 147.224 96.0912 147.512H94.3392H87.6432C86.1392 147.512 84.7792 147.44 83.5632 147.296C82.3472 147.168 81.2672 146.896 80.3232 146.48C79.3792 146.08 78.5552 145.488 77.8512 144.704C77.1632 143.904 76.5872 142.856 76.1232 141.56L77.4912 141.104ZM91.4832 141.944L93.0432 141.08C93.5072 141.368 93.9712 141.696 94.4352 142.064C94.8992 142.432 95.3312 142.8 95.7312 143.168C96.1312 143.52 96.4592 143.848 96.7152 144.152L95.0832 145.16C94.8272 144.84 94.4992 144.488 94.0992 144.104C93.6992 143.72 93.2672 143.336 92.8032 142.952C92.3552 142.568 91.9152 142.232 91.4832 141.944Z" fill="#555555"/>
<path d="M59.2753 138.032H72.3073V140.024H59.2753V138.032ZM67.4353 139.184C67.8513 139.936 68.3553 140.696 68.9473 141.464C69.5553 142.216 70.2033 142.912 70.8913 143.552C71.5953 144.192 72.2833 144.728 72.9553 145.16C72.7953 145.288 72.6113 145.456 72.4033 145.664C72.2113 145.856 72.0273 146.056 71.8513 146.264C71.6753 146.488 71.5233 146.688 71.3953 146.864C70.7233 146.352 70.0353 145.712 69.3313 144.944C68.6433 144.176 67.9873 143.352 67.3633 142.472C66.7553 141.576 66.2353 140.688 65.8033 139.808L67.4353 139.184ZM62.1313 132.368V134.456H69.5473V132.368H62.1313ZM62.1313 128.528V130.592H69.5473V128.528H62.1313ZM60.0913 126.704H71.6593V136.28H60.0913V126.704ZM64.2193 139.064L65.9473 139.64C65.5153 140.616 64.9793 141.576 64.3393 142.52C63.6993 143.464 63.0033 144.32 62.2513 145.088C61.4993 145.856 60.7233 146.496 59.9233 147.008C59.8113 146.832 59.6593 146.632 59.4673 146.408C59.2913 146.2 59.1073 145.992 58.9153 145.784C58.7393 145.576 58.5633 145.408 58.3873 145.28C59.1713 144.864 59.9313 144.328 60.6673 143.672C61.4033 143.016 62.0833 142.288 62.7073 141.488C63.3313 140.672 63.8353 139.864 64.2193 139.064ZM64.7953 127.616H66.7873V135.392H66.9073V147.992H64.6993V135.392H64.7953V127.616ZM51.4513 133.04H58.3633V134.792H51.4513V133.04ZM51.5473 126.536H58.2913V128.312H51.5473V126.536ZM51.4513 136.28H58.3633V138.032H51.4513V136.28ZM50.3713 129.728H58.9873V131.552H50.3713V129.728ZM52.4353 139.568H58.3873V146.696H52.4353V144.872H56.4433V141.392H52.4353V139.568ZM51.4033 139.568H53.2993V147.728H51.4033V139.568Z" fill="#555555"/>
<path d="M38.3665 144.584C38.3665 143.96 38.5265 143.52 38.8465 143.264C39.1665 143.008 39.5505 142.88 39.9985 142.88C40.4625 142.88 40.8545 143.008 41.1745 143.264C41.4945 143.52 41.6545 143.96 41.6545 144.584C41.6545 145.208 41.4945 145.656 41.1745 145.928C40.8545 146.2 40.4625 146.336 39.9985 146.336C39.5505 146.336 39.1665 146.2 38.8465 145.928C38.5265 145.656 38.3665 145.208 38.3665 144.584Z" fill="#555555"/>
<path d="M36.272 142.208H33.896V146H31.424V142.208H23.48V140.192L31.376 128.792H33.896V140.048H36.272V142.208ZM31.424 135.392C31.424 135.008 31.424 134.64 31.424 134.288C31.44 133.936 31.456 133.6 31.472 133.28C31.488 132.944 31.496 132.64 31.496 132.368C31.512 132.08 31.528 131.824 31.544 131.6H31.448C31.32 131.92 31.16 132.248 30.968 132.584C30.792 132.92 30.608 133.216 30.416 133.472L25.88 140.048H31.424V135.392Z" fill="#555555"/>
<path d="M398.224 109.352C398.224 110.2 398.016 110.912 397.6 111.488C397.184 112.064 396.584 112.504 395.8 112.808C395.016 113.096 394.072 113.24 392.968 113.24C392.056 113.24 391.272 113.168 390.616 113.024C389.976 112.896 389.384 112.704 388.84 112.448V110.216C389.416 110.488 390.08 110.736 390.832 110.96C391.584 111.168 392.32 111.272 393.04 111.272C394 111.272 394.688 111.12 395.104 110.816C395.536 110.512 395.752 110.104 395.752 109.592C395.752 109.304 395.672 109.048 395.512 108.824C395.352 108.584 395.048 108.344 394.6 108.104C394.168 107.848 393.528 107.56 392.68 107.24C391.864 106.904 391.168 106.576 390.592 106.256C390.016 105.92 389.576 105.528 389.272 105.08C388.968 104.616 388.816 104.024 388.816 103.304C388.816 102.184 389.264 101.328 390.16 100.736C391.072 100.128 392.272 99.8242 393.76 99.8242C394.544 99.8242 395.28 99.9042 395.968 100.064C396.672 100.208 397.352 100.432 398.008 100.736L397.168 102.68C396.8 102.504 396.416 102.36 396.016 102.248C395.632 102.12 395.24 102.016 394.84 101.936C394.456 101.856 394.056 101.816 393.64 101.816C392.872 101.816 392.288 101.936 391.888 102.176C391.488 102.416 391.288 102.752 391.288 103.184C391.288 103.488 391.376 103.752 391.552 103.976C391.744 104.2 392.072 104.424 392.536 104.648C393 104.872 393.632 105.144 394.432 105.464C395.232 105.768 395.912 106.08 396.472 106.4C397.048 106.72 397.48 107.112 397.768 107.576C398.072 108.04 398.224 108.632 398.224 109.352Z" fill="#555555"/>
<path d="M380.986 99.8242C382.122 99.8242 383.098 100.064 383.914 100.544C384.73 101.008 385.354 101.68 385.786 102.56C386.234 103.44 386.458 104.48 386.458 105.68V107.072H377.77C377.802 108.4 378.146 109.416 378.802 110.12C379.474 110.824 380.41 111.176 381.61 111.176C382.442 111.176 383.178 111.104 383.818 110.96C384.474 110.8 385.146 110.568 385.834 110.264V112.376C385.194 112.664 384.538 112.88 383.866 113.024C383.21 113.168 382.426 113.24 381.514 113.24C380.266 113.24 379.162 112.992 378.202 112.496C377.242 112 376.49 111.264 375.946 110.288C375.418 109.296 375.154 108.08 375.154 106.64C375.154 105.184 375.394 103.952 375.874 102.944C376.37 101.936 377.05 101.168 377.914 100.64C378.794 100.096 379.818 99.8242 380.986 99.8242ZM380.986 101.792C380.074 101.792 379.338 102.088 378.778 102.68C378.234 103.272 377.914 104.112 377.818 105.2H383.914C383.914 104.528 383.81 103.936 383.602 103.424C383.394 102.912 383.074 102.512 382.642 102.224C382.21 101.936 381.658 101.792 380.986 101.792Z" fill="#555555"/>
<path d="M365.479 99.8242C366.311 99.8242 367.064 99.9842 367.736 100.304C368.408 100.624 368.976 101.112 369.44 101.768H369.56L369.848 100.064H371.911V113.168C371.911 114.384 371.695 115.408 371.263 116.24C370.831 117.072 370.167 117.696 369.271 118.112C368.391 118.544 367.279 118.76 365.935 118.76C365.007 118.76 364.151 118.696 363.367 118.568C362.583 118.44 361.863 118.24 361.207 117.968V115.736C361.671 115.96 362.16 116.144 362.672 116.288C363.184 116.448 363.727 116.56 364.303 116.624C364.879 116.704 365.471 116.744 366.079 116.744C367.135 116.744 367.951 116.44 368.527 115.832C369.103 115.24 369.392 114.4 369.392 113.312V112.88C369.392 112.672 369.399 112.4 369.415 112.064C369.431 111.712 369.448 111.456 369.464 111.296H369.367C368.919 111.968 368.367 112.464 367.711 112.784C367.071 113.088 366.327 113.24 365.479 113.24C363.847 113.24 362.567 112.656 361.639 111.488C360.727 110.304 360.271 108.664 360.271 106.568C360.271 105.16 360.48 103.96 360.896 102.968C361.312 101.96 361.904 101.184 362.672 100.64C363.456 100.096 364.391 99.8242 365.479 99.8242ZM366.008 101.936C365.336 101.936 364.767 102.12 364.303 102.488C363.839 102.84 363.487 103.36 363.247 104.048C363.007 104.736 362.888 105.584 362.888 106.592C362.888 108.096 363.152 109.24 363.68 110.024C364.224 110.808 365.016 111.2 366.056 111.2C366.664 111.2 367.175 111.12 367.591 110.96C368.023 110.8 368.375 110.552 368.647 110.216C368.935 109.88 369.143 109.456 369.271 108.944C369.415 108.416 369.487 107.784 369.487 107.048V106.568C369.487 105.464 369.359 104.576 369.103 103.904C368.863 103.216 368.487 102.72 367.975 102.416C367.463 102.096 366.808 101.936 366.008 101.936Z" fill="#555555"/>
<path d="M352.45 99.8242C353.954 99.8242 355.106 100.2 355.906 100.952C356.706 101.704 357.106 102.912 357.106 104.576V113H354.586V104.936C354.586 103.928 354.37 103.176 353.938 102.68C353.522 102.168 352.85 101.912 351.922 101.912C350.61 101.912 349.698 102.304 349.186 103.088C348.69 103.872 348.442 105 348.442 106.472V113H345.898V100.064H347.914L348.274 101.792H348.418C348.706 101.344 349.058 100.976 349.474 100.688C349.89 100.4 350.354 100.184 350.866 100.04C351.378 99.8962 351.906 99.8242 352.45 99.8242Z" fill="#555555"/>
<path d="M337.252 99.8242C338.388 99.8242 339.364 100.064 340.18 100.544C340.996 101.008 341.62 101.68 342.052 102.56C342.5 103.44 342.724 104.48 342.724 105.68V107.072H334.036C334.068 108.4 334.412 109.416 335.068 110.12C335.74 110.824 336.676 111.176 337.876 111.176C338.708 111.176 339.444 111.104 340.084 110.96C340.74 110.8 341.412 110.568 342.1 110.264V112.376C341.46 112.664 340.804 112.88 340.132 113.024C339.476 113.168 338.692 113.24 337.78 113.24C336.532 113.24 335.428 112.992 334.468 112.496C333.508 112 332.756 111.264 332.212 110.288C331.684 109.296 331.42 108.08 331.42 106.64C331.42 105.184 331.66 103.952 332.14 102.944C332.636 101.936 333.316 101.168 334.18 100.64C335.06 100.096 336.084 99.8242 337.252 99.8242ZM337.252 101.792C336.34 101.792 335.604 102.088 335.044 102.68C334.5 103.272 334.18 104.112 334.084 105.2H340.18C340.18 104.528 340.076 103.936 339.868 103.424C339.66 102.912 339.34 102.512 338.908 102.224C338.476 101.936 337.924 101.792 337.252 101.792Z" fill="#555555"/>
<path d="M328.169 113H325.625V94.7598H328.169V113Z" fill="#555555"/>
<path d="M321.63 113H319.086V94.7598H321.63V113Z" fill="#555555"/>
<path d="M310.321 99.8242C311.953 99.8242 313.169 100.184 313.969 100.904C314.769 101.608 315.169 102.72 315.169 104.24V113H313.369L312.865 111.2H312.769C312.401 111.664 312.017 112.048 311.617 112.352C311.233 112.656 310.785 112.88 310.273 113.024C309.777 113.168 309.169 113.24 308.449 113.24C307.681 113.24 306.985 113.104 306.361 112.832C305.753 112.544 305.273 112.112 304.921 111.536C304.569 110.944 304.393 110.208 304.393 109.328C304.393 108.016 304.889 107.016 305.881 106.328C306.889 105.64 308.417 105.264 310.465 105.2L312.673 105.128V104.408C312.673 103.448 312.457 102.776 312.025 102.392C311.593 102.008 310.985 101.816 310.201 101.816C309.529 101.816 308.889 101.912 308.281 102.104C307.673 102.296 307.097 102.528 306.553 102.8L305.737 100.952C306.345 100.632 307.041 100.368 307.825 100.16C308.625 99.9362 309.457 99.8242 310.321 99.8242ZM310.921 106.832C309.449 106.896 308.425 107.144 307.849 107.576C307.289 107.992 307.009 108.584 307.009 109.352C307.009 110.024 307.209 110.512 307.609 110.816C308.025 111.12 308.545 111.272 309.169 111.272C310.177 111.272 311.009 110.992 311.665 110.432C312.321 109.872 312.649 109.032 312.649 107.912V106.784L310.921 106.832Z" fill="#555555"/>
<path d="M292.732 99.6318C292.732 100.032 292.716 100.432 292.684 100.832C292.652 101.232 292.619 101.56 292.587 101.816H292.755C293.027 101.368 293.363 101 293.763 100.712C294.179 100.424 294.636 100.208 295.132 100.064C295.644 99.9198 296.163 99.8478 296.691 99.8478C297.715 99.8478 298.571 100.016 299.259 100.352C299.963 100.672 300.492 101.184 300.844 101.888C301.212 102.576 301.396 103.472 301.396 104.576V113H298.875V104.936C298.875 103.928 298.66 103.176 298.228 102.68C297.812 102.168 297.139 101.912 296.211 101.912C295.331 101.912 294.636 102.088 294.124 102.44C293.628 102.792 293.267 103.312 293.043 104C292.835 104.672 292.732 105.504 292.732 106.496V113H290.188V94.7598H292.732V99.6318Z" fill="#555555"/>
<path d="M282.608 97.856C281.76 97.856 281 98.008 280.328 98.312C279.656 98.6 279.08 99.032 278.6 99.608C278.136 100.184 277.776 100.88 277.52 101.696C277.28 102.512 277.16 103.432 277.16 104.456C277.16 105.8 277.36 106.968 277.76 107.96C278.16 108.936 278.76 109.688 279.56 110.216C280.36 110.744 281.368 111.008 282.584 111.008C283.32 111.008 284.024 110.944 284.696 110.816C285.384 110.672 286.08 110.488 286.784 110.264V112.496C286.112 112.752 285.424 112.936 284.72 113.048C284.016 113.176 283.2 113.24 282.272 113.24C280.528 113.24 279.072 112.88 277.904 112.16C276.752 111.44 275.888 110.416 275.312 109.088C274.736 107.76 274.448 106.208 274.448 104.432C274.448 103.136 274.624 101.952 274.976 100.88C275.344 99.792 275.872 98.856 276.56 98.072C277.248 97.288 278.096 96.688 279.104 96.272C280.128 95.84 281.304 95.624 282.632 95.624C283.496 95.624 284.344 95.72 285.176 95.912C286.008 96.088 286.76 96.344 287.432 96.68L286.472 98.84C285.912 98.584 285.304 98.36 284.648 98.168C284.008 97.96 283.328 97.856 282.608 97.856Z" fill="#555555"/>
<path d="M260.119 99.8242C261.255 99.8242 262.231 100.064 263.047 100.544C263.863 101.008 264.487 101.68 264.919 102.56C265.367 103.44 265.591 104.48 265.591 105.68V107.072H256.903C256.935 108.4 257.279 109.416 257.935 110.12C258.607 110.824 259.543 111.176 260.743 111.176C261.575 111.176 262.311 111.104 262.951 110.96C263.607 110.8 264.279 110.568 264.967 110.264V112.376C264.327 112.664 263.671 112.88 262.999 113.024C262.343 113.168 261.559 113.24 260.647 113.24C259.399 113.24 258.295 112.992 257.335 112.496C256.375 112 255.623 111.264 255.079 110.288C254.551 109.296 254.287 108.08 254.287 106.64C254.287 105.184 254.527 103.952 255.007 102.944C255.503 101.936 256.183 101.168 257.047 100.64C257.927 100.096 258.951 99.8242 260.119 99.8242ZM260.119 101.792C259.207 101.792 258.471 102.088 257.911 102.68C257.367 103.272 257.047 104.112 256.951 105.2H263.047C263.047 104.528 262.943 103.936 262.735 103.424C262.527 102.912 262.207 102.512 261.775 102.224C261.343 101.936 260.791 101.792 260.119 101.792Z" fill="#555555"/>
<path d="M251.689 99.8242C251.913 99.8242 252.161 99.8402 252.433 99.8722C252.705 99.8882 252.929 99.9122 253.105 99.9442L252.841 102.32C252.665 102.272 252.457 102.232 252.217 102.2C251.977 102.168 251.753 102.152 251.545 102.152C251.065 102.152 250.601 102.248 250.153 102.44C249.721 102.616 249.329 102.88 248.977 103.232C248.625 103.568 248.345 103.984 248.137 104.48C247.945 104.976 247.849 105.544 247.849 106.184V113H245.305V100.064H247.321L247.657 102.368H247.753C248.025 101.904 248.353 101.48 248.737 101.096C249.121 100.712 249.561 100.408 250.057 100.184C250.553 99.9442 251.097 99.8242 251.689 99.8242Z" fill="#555555"/>
<path d="M241.323 100.064V113H239.283L238.923 111.296H238.803C238.531 111.744 238.179 112.112 237.747 112.4C237.315 112.688 236.843 112.896 236.331 113.024C235.819 113.168 235.291 113.24 234.747 113.24C233.739 113.24 232.883 113.08 232.179 112.76C231.491 112.424 230.963 111.912 230.595 111.224C230.243 110.52 230.067 109.624 230.067 108.536V100.064H232.635V108.152C232.635 109.16 232.843 109.912 233.259 110.408C233.691 110.904 234.355 111.152 235.251 111.152C236.147 111.152 236.851 110.976 237.363 110.624C237.875 110.272 238.235 109.76 238.443 109.088C238.667 108.4 238.779 107.576 238.779 106.616V100.064H241.323Z" fill="#555555"/>
<path d="M225.656 111.176C225.992 111.176 226.336 111.144 226.688 111.08C227.04 111.016 227.344 110.944 227.6 110.864V112.784C227.328 112.912 226.96 113.016 226.496 113.096C226.032 113.192 225.568 113.24 225.104 113.24C224.4 113.24 223.752 113.12 223.16 112.88C222.584 112.64 222.12 112.224 221.768 111.632C221.416 111.04 221.24 110.216 221.24 109.16V102.008H219.44V100.856L221.336 99.8962L222.224 97.1602H223.784V100.064H227.48V102.008H223.784V109.112C223.784 109.816 223.952 110.336 224.288 110.672C224.64 111.008 225.096 111.176 225.656 111.176Z" fill="#555555"/>
<path d="M217.019 100.064V113H214.979L214.619 111.296H214.499C214.227 111.744 213.875 112.112 213.443 112.4C213.011 112.688 212.539 112.896 212.027 113.024C211.515 113.168 210.987 113.24 210.443 113.24C209.435 113.24 208.579 113.08 207.875 112.76C207.187 112.424 206.659 111.912 206.291 111.224C205.939 110.52 205.763 109.624 205.763 108.536V100.064H208.331V108.152C208.331 109.16 208.539 109.912 208.955 110.408C209.387 110.904 210.051 111.152 210.947 111.152C211.843 111.152 212.547 110.976 213.059 110.624C213.571 110.272 213.931 109.76 214.139 109.088C214.363 108.4 214.475 107.576 214.475 106.616V100.064H217.019Z" fill="#555555"/>
<path d="M196.059 113H193.491V95.8638H203.139V98.0718H196.059V103.664H202.683V105.872H196.059V113Z" fill="#555555"/>
<path d="M184.789 95.8638L178.405 113H175.981L182.365 95.8638H184.789Z" fill="#555555"/>
<path d="M149.899 98.312V99.848H154.051V98.312H149.899ZM149.899 95.288V96.8H154.051V95.288H149.899ZM147.883 93.728H156.163V101.432H147.883V93.728ZM146.611 103.04H157.435V104.744H146.611V103.04ZM157.291 93.848H168.307V95.504H157.291V93.848ZM151.243 103.568H153.187V112.928L151.243 111.8V103.568ZM152.251 107.048H157.003V108.752H152.251V107.048ZM161.995 94.256L164.083 94.688C163.827 95.312 163.571 95.952 163.315 96.608C163.059 97.264 162.811 97.824 162.571 98.288L160.915 97.856C161.123 97.344 161.323 96.752 161.515 96.08C161.723 95.392 161.883 94.784 161.995 94.256ZM160.195 101.72V103.208H165.331V101.72H160.195ZM160.195 104.744V106.256H165.331V104.744H160.195ZM160.195 98.696V100.184H165.331V98.696H160.195ZM158.155 97.088H167.443V107.864H158.155V97.088ZM160.123 108.176L162.019 108.752C161.491 109.424 160.835 110.08 160.051 110.72C159.267 111.36 158.499 111.888 157.747 112.304C157.651 112.176 157.507 112.024 157.315 111.848C157.139 111.672 156.955 111.504 156.763 111.344C156.587 111.168 156.419 111.032 156.259 110.936C156.995 110.6 157.715 110.192 158.419 109.712C159.123 109.216 159.691 108.704 160.123 108.176ZM148.003 105.896H149.875C149.843 107.096 149.755 108.264 149.611 109.4C149.467 110.536 149.235 111.6 148.915 112.592C148.595 113.568 148.147 114.408 147.571 115.112C147.427 114.888 147.219 114.624 146.947 114.32C146.675 114.016 146.419 113.776 146.179 113.6C146.659 113.04 147.027 112.344 147.283 111.512C147.539 110.68 147.715 109.784 147.811 108.824C147.907 107.848 147.971 106.872 148.003 105.896ZM149.491 108.104C149.875 109.128 150.379 109.944 151.003 110.552C151.627 111.16 152.363 111.624 153.211 111.944C154.059 112.248 155.019 112.448 156.091 112.544C157.163 112.64 158.347 112.688 159.643 112.688C159.899 112.688 160.323 112.688 160.915 112.688C161.523 112.688 162.203 112.688 162.955 112.688C163.723 112.672 164.499 112.664 165.283 112.664C166.067 112.664 166.771 112.664 167.395 112.664C168.035 112.648 168.523 112.632 168.859 112.616C168.699 112.84 168.539 113.136 168.379 113.504C168.235 113.888 168.139 114.224 168.091 114.512H166.339H159.643C158.139 114.512 156.779 114.44 155.563 114.296C154.347 114.168 153.267 113.896 152.323 113.48C151.379 113.08 150.555 112.488 149.851 111.704C149.163 110.904 148.587 109.856 148.123 108.56L149.491 108.104ZM163.483 108.944L165.043 108.08C165.507 108.368 165.971 108.696 166.435 109.064C166.899 109.432 167.331 109.8 167.731 110.168C168.131 110.52 168.459 110.848 168.715 111.152L167.083 112.16C166.827 111.84 166.499 111.488 166.099 111.104C165.699 110.72 165.267 110.336 164.803 109.952C164.355 109.568 163.915 109.232 163.483 108.944Z" fill="#555555"/>
<path d="M131.275 105.032H144.307V107.024H131.275V105.032ZM139.435 106.184C139.851 106.936 140.355 107.696 140.947 108.464C141.555 109.216 142.203 109.912 142.891 110.552C143.595 111.192 144.283 111.728 144.955 112.16C144.795 112.288 144.611 112.456 144.403 112.664C144.211 112.856 144.027 113.056 143.851 113.264C143.675 113.488 143.523 113.688 143.395 113.864C142.723 113.352 142.035 112.712 141.331 111.944C140.643 111.176 139.987 110.352 139.363 109.472C138.755 108.576 138.235 107.688 137.803 106.808L139.435 106.184ZM134.131 99.3681V101.456H141.547V99.3681H134.131ZM134.131 95.5281V97.5921H141.547V95.5281H134.131ZM132.091 93.7041H143.659V103.28H132.091V93.7041ZM136.219 106.064L137.947 106.64C137.515 107.616 136.979 108.576 136.339 109.52C135.699 110.464 135.003 111.32 134.251 112.088C133.499 112.856 132.723 113.496 131.923 114.008C131.811 113.832 131.659 113.632 131.467 113.408C131.291 113.2 131.107 112.992 130.915 112.784C130.739 112.576 130.563 112.408 130.387 112.28C131.171 111.864 131.931 111.328 132.667 110.672C133.403 110.016 134.083 109.288 134.707 108.488C135.331 107.672 135.835 106.864 136.219 106.064ZM136.795 94.6161H138.787V102.392H138.907V114.992H136.699V102.392H136.795V94.6161ZM123.451 100.04H130.363V101.792H123.451V100.04ZM123.547 93.5361H130.291V95.3121H123.547V93.5361ZM123.451 103.28H130.363V105.032H123.451V103.28ZM122.371 96.7281H130.987V98.5521H122.371V96.7281ZM124.435 106.568H130.387V113.696H124.435V111.872H128.443V108.392H124.435V106.568ZM123.403 106.568H125.299V114.728H123.403V106.568Z" fill="#555555"/>
<path d="M111.355 96.5838C111.195 97.8158 110.987 99.1198 110.731 100.496C110.491 101.856 110.163 103.208 109.747 104.552C109.267 106.184 108.723 107.568 108.115 108.704C107.523 109.824 106.875 110.68 106.171 111.272C105.467 111.864 104.723 112.16 103.939 112.16C103.139 112.16 102.395 111.888 101.707 111.344C101.019 110.784 100.459 110.008 100.027 109.016C99.5952 108.008 99.3792 106.84 99.3792 105.512C99.3792 104.168 99.6512 102.896 100.195 101.696C100.755 100.496 101.523 99.4318 102.499 98.5038C103.475 97.5758 104.611 96.8478 105.907 96.3198C107.203 95.7918 108.603 95.5278 110.107 95.5278C111.547 95.5278 112.843 95.7598 113.995 96.2238C115.163 96.6878 116.155 97.3358 116.971 98.1678C117.803 98.9838 118.435 99.9438 118.867 101.048C119.299 102.152 119.515 103.328 119.515 104.576C119.515 106.256 119.163 107.752 118.459 109.064C117.771 110.36 116.755 111.424 115.411 112.256C114.067 113.072 112.419 113.624 110.467 113.912L109.051 111.656C109.467 111.608 109.851 111.56 110.203 111.512C110.555 111.448 110.883 111.384 111.187 111.32C111.955 111.144 112.683 110.872 113.371 110.504C114.075 110.136 114.699 109.672 115.243 109.112C115.787 108.536 116.211 107.864 116.515 107.096C116.835 106.328 116.995 105.464 116.995 104.504C116.995 103.544 116.843 102.656 116.539 101.84C116.235 101.008 115.787 100.288 115.195 99.6798C114.603 99.0718 113.875 98.5998 113.011 98.2638C112.147 97.9118 111.171 97.7358 110.083 97.7358C108.771 97.7358 107.603 97.9678 106.579 98.4318C105.555 98.8958 104.683 99.5118 103.963 100.28C103.259 101.032 102.723 101.848 102.355 102.728C101.987 103.608 101.803 104.456 101.803 105.272C101.803 106.184 101.915 106.944 102.139 107.552C102.363 108.144 102.643 108.584 102.979 108.872C103.315 109.16 103.659 109.304 104.011 109.304C104.363 109.304 104.723 109.128 105.091 108.776C105.459 108.408 105.827 107.832 106.195 107.048C106.579 106.264 106.955 105.264 107.323 104.048C107.691 102.896 107.995 101.672 108.235 100.376C108.491 99.0638 108.675 97.7838 108.787 96.5358L111.355 96.5838Z" fill="#555555"/>
<path d="M86.8513 102.608L88.9153 103.232C88.3873 104.176 87.7473 105.08 86.9953 105.944C86.2593 106.792 85.4673 107.576 84.6193 108.296C83.7713 109.016 82.9073 109.648 82.0273 110.192C81.9313 110.032 81.7873 109.848 81.5953 109.64C81.4193 109.432 81.2353 109.224 81.0433 109.016C80.8513 108.792 80.6753 108.616 80.5153 108.488C81.7953 107.816 83.0033 106.968 84.1393 105.944C85.2913 104.92 86.1953 103.808 86.8513 102.608ZM87.0673 92.6958L89.0593 93.7278C88.4513 94.4638 87.7953 95.2078 87.0913 95.9598C86.4033 96.7118 85.7633 97.3598 85.1713 97.9038L83.5873 96.9918C83.9873 96.6078 84.3953 96.1678 84.8113 95.6718C85.2433 95.1758 85.6593 94.6718 86.0593 94.1598C86.4593 93.6318 86.7953 93.1438 87.0673 92.6958ZM91.6513 94.5198L93.6913 95.6238C92.8593 96.5038 91.9553 97.4158 90.9793 98.3598C90.0033 99.2878 89.0193 100.184 88.0273 101.048C87.0353 101.912 86.0913 102.672 85.1953 103.328L83.6833 102.32C84.3393 101.824 85.0273 101.256 85.7473 100.616C86.4673 99.9758 87.1873 99.3118 87.9073 98.6238C88.6273 97.9198 89.3073 97.2158 89.9473 96.5118C90.5873 95.8078 91.1553 95.1438 91.6513 94.5198ZM81.4753 96.8478L82.8433 95.3838C83.4513 95.7678 84.0833 96.1998 84.7393 96.6798C85.3953 97.1438 86.0033 97.6158 86.5633 98.0958C87.1393 98.5758 87.6033 99.0158 87.9553 99.4158L86.4913 101.072C86.1713 100.656 85.7313 100.2 85.1713 99.7038C84.6113 99.1918 84.0113 98.6878 83.3713 98.1918C82.7313 97.6958 82.0993 97.2478 81.4753 96.8478ZM91.3633 99.6078L93.1153 98.6478C93.6273 99.1758 94.1313 99.7518 94.6273 100.376C95.1233 101 95.5793 101.616 95.9953 102.224C96.4273 102.832 96.7553 103.392 96.9793 103.904L95.0833 104.984C94.8753 104.504 94.5713 103.952 94.1713 103.328C93.7713 102.688 93.3233 102.048 92.8273 101.408C92.3473 100.752 91.8593 100.152 91.3633 99.6078ZM80.8033 101.696C81.9713 101.68 83.3153 101.664 84.8353 101.648C86.3553 101.632 87.9793 101.608 89.7073 101.576C91.4353 101.528 93.1553 101.48 94.8673 101.432L94.7713 103.28C93.1233 103.344 91.4673 103.408 89.8033 103.472C88.1553 103.52 86.5713 103.568 85.0513 103.616C83.5473 103.664 82.1953 103.704 80.9953 103.736L80.8033 101.696ZM85.6273 106.424C86.2993 107.544 87.1953 108.56 88.3153 109.472C89.4353 110.368 90.7313 111.128 92.2033 111.752C93.6913 112.36 95.2913 112.816 97.0033 113.12C96.8433 113.28 96.6753 113.472 96.4993 113.696C96.3233 113.936 96.1553 114.176 95.9953 114.416C95.8513 114.656 95.7233 114.872 95.6113 115.064C93.8513 114.68 92.2193 114.12 90.7153 113.384C89.2113 112.648 87.8753 111.752 86.7073 110.696C85.5393 109.624 84.5633 108.4 83.7793 107.024L85.6273 106.424ZM86.1793 105.224H93.0433V106.952H84.6673L86.1793 105.224ZM92.3233 105.224H92.7313L93.1153 105.128L94.5553 105.8C94.0113 107.112 93.2913 108.28 92.3953 109.304C91.5153 110.312 90.4993 111.192 89.3473 111.944C88.2113 112.696 86.9793 113.328 85.6513 113.84C84.3393 114.368 82.9873 114.792 81.5953 115.112C81.4833 114.824 81.3153 114.488 81.0913 114.104C80.8833 113.72 80.6833 113.408 80.4913 113.168C81.7873 112.928 83.0433 112.592 84.2593 112.16C85.4753 111.728 86.6113 111.192 87.6673 110.552C88.7393 109.912 89.6673 109.176 90.4513 108.344C91.2513 107.512 91.8753 106.576 92.3233 105.536V105.224ZM79.6753 97.7598L81.6913 98.5038C81.1473 99.4638 80.5233 100.424 79.8193 101.384C79.1153 102.328 78.3633 103.224 77.5633 104.072C76.7793 104.904 75.9953 105.648 75.2113 106.304C75.1473 106.128 75.0353 105.912 74.8753 105.656C74.7313 105.4 74.5793 105.136 74.4193 104.864C74.2593 104.592 74.1153 104.384 73.9873 104.24C74.6913 103.696 75.3953 103.08 76.0993 102.392C76.8033 101.704 77.4593 100.968 78.0673 100.184C78.6913 99.3838 79.2273 98.5758 79.6753 97.7598ZM79.1713 92.7438L81.1873 93.5358C80.7073 94.2238 80.1473 94.9198 79.5073 95.6238C78.8673 96.3278 78.2033 96.9998 77.5153 97.6398C76.8273 98.2798 76.1393 98.8478 75.4513 99.3438C75.3553 99.1838 75.2353 99.0078 75.0913 98.8158C74.9473 98.6078 74.7953 98.3998 74.6353 98.1918C74.4913 97.9838 74.3553 97.8158 74.2273 97.6878C74.8353 97.2558 75.4513 96.7678 76.0753 96.2238C76.6993 95.6638 77.2833 95.0798 77.8273 94.4718C78.3713 93.8638 78.8193 93.2878 79.1713 92.7438ZM77.5633 102.536L79.4593 100.64L79.6993 100.736V115.088H77.5633V102.536Z" fill="#555555"/>
<path d="M61.4352 94.88C60.9392 95.616 60.3392 96.384 59.6352 97.184C58.9312 97.968 58.1552 98.752 57.3072 99.536C56.4592 100.32 55.5552 101.08 54.5952 101.816C53.6512 102.536 52.6832 103.2 51.6912 103.808C51.5952 103.632 51.4592 103.432 51.2832 103.208C51.1232 102.984 50.9472 102.768 50.7552 102.56C50.5792 102.336 50.4112 102.152 50.2512 102.008C51.2752 101.416 52.2832 100.744 53.2752 99.992C54.2672 99.24 55.1952 98.448 56.0592 97.616C56.9392 96.768 57.7312 95.92 58.4352 95.072C59.1392 94.224 59.7152 93.408 60.1632 92.624H62.4432C63.0992 93.536 63.8272 94.432 64.6272 95.312C65.4272 96.192 66.2832 97.032 67.1952 97.832C68.1232 98.632 69.0672 99.368 70.0272 100.04C71.0032 100.696 71.9552 101.264 72.8832 101.744C72.5952 102.016 72.3232 102.328 72.0672 102.68C71.8112 103.032 71.5792 103.376 71.3712 103.712C70.4432 103.168 69.5072 102.544 68.5632 101.84C67.6192 101.12 66.6992 100.368 65.8032 99.584C64.9072 98.8 64.0832 98.008 63.3312 97.208C62.5952 96.408 61.9632 95.632 61.4352 94.88ZM56.3232 100.232H66.6912V102.344H56.3232V100.232ZM53.1312 105.032H67.4112V107.192H53.1312V105.032ZM67.0032 105.032H67.3392L67.7232 104.912L69.5232 105.464C69.1392 106.392 68.6992 107.416 68.2032 108.536C67.7072 109.64 67.1872 110.76 66.6432 111.896C66.0992 113.032 65.5792 114.104 65.0832 115.112L62.6832 114.44C63.0672 113.704 63.4592 112.92 63.8592 112.088C64.2752 111.24 64.6752 110.4 65.0592 109.568C65.4592 108.736 65.8272 107.952 66.1632 107.216C66.4992 106.48 66.7792 105.848 67.0032 105.32V105.032Z" fill="#555555"/>
<path d="M38.3665 111.584C38.3665 110.96 38.5265 110.52 38.8465 110.264C39.1665 110.008 39.5505 109.88 39.9985 109.88C40.4625 109.88 40.8545 110.008 41.1745 110.264C41.4945 110.52 41.6545 110.96 41.6545 111.584C41.6545 112.208 41.4945 112.656 41.1745 112.928C40.8545 113.2 40.4625 113.336 39.9985 113.336C39.5505 113.336 39.1665 113.2 38.8465 112.928C38.5265 112.656 38.3665 112.208 38.3665 111.584Z" fill="#555555"/>
<path d="M34.952 99.824C34.952 100.592 34.8 101.264 34.496 101.84C34.208 102.4 33.792 102.856 33.248 103.208C32.704 103.56 32.08 103.816 31.376 103.976V104.072C32.752 104.232 33.776 104.664 34.448 105.368C35.136 106.056 35.48 106.968 35.48 108.104C35.48 109.096 35.24 109.984 34.76 110.768C34.296 111.536 33.568 112.144 32.576 112.592C31.6 113.024 30.344 113.24 28.808 113.24C27.896 113.24 27.048 113.168 26.264 113.024C25.48 112.88 24.736 112.64 24.032 112.304V110C24.752 110.368 25.52 110.648 26.336 110.84C27.168 111.032 27.96 111.128 28.712 111.128C30.168 111.128 31.216 110.856 31.856 110.312C32.496 109.752 32.816 108.976 32.816 107.984C32.816 107.344 32.648 106.824 32.312 106.424C31.976 106.008 31.464 105.704 30.776 105.512C30.088 105.304 29.232 105.2 28.208 105.2H26.648V103.112H28.232C29.208 103.112 30 102.992 30.608 102.752C31.216 102.496 31.664 102.144 31.952 101.696C32.24 101.248 32.384 100.736 32.384 100.16C32.384 99.392 32.128 98.8 31.616 98.384C31.12 97.952 30.4 97.736 29.456 97.736C28.88 97.736 28.344 97.8 27.848 97.928C27.368 98.056 26.928 98.224 26.528 98.432C26.128 98.64 25.736 98.872 25.352 99.128L24.104 97.376C24.536 97.056 25.016 96.76 25.544 96.488C26.088 96.216 26.688 96.008 27.344 95.864C28.016 95.704 28.744 95.624 29.528 95.624C31.304 95.624 32.648 96.016 33.56 96.8C34.488 97.568 34.952 98.576 34.952 99.824Z" fill="#555555"/>
<path d="M212.575 66.8242C214.079 66.8242 215.231 67.2002 216.031 67.9522C216.831 68.7042 217.231 69.9122 217.231 71.5762V80.0002H214.711V71.9362C214.711 70.9282 214.495 70.1762 214.063 69.6802C213.647 69.1682 212.975 68.9122 212.047 68.9122C210.735 68.9122 209.823 69.3042 209.311 70.0882C208.815 70.8722 208.567 72.0002 208.567 73.4722V80.0002H206.023V67.0642H208.039L208.399 68.7922H208.543C208.831 68.3442 209.183 67.9762 209.599 67.6882C210.015 67.4002 210.479 67.1842 210.991 67.0402C211.503 66.8962 212.031 66.8242 212.575 66.8242Z" fill="#555555"/>
<path d="M202.798 73.5202C202.798 74.5922 202.654 75.5442 202.366 76.3762C202.078 77.2082 201.67 77.9122 201.142 78.4882C200.614 79.0642 199.974 79.5042 199.222 79.8082C198.47 80.0962 197.622 80.2402 196.678 80.2402C195.814 80.2402 195.014 80.0962 194.278 79.8082C193.542 79.5042 192.902 79.0642 192.358 78.4882C191.83 77.9122 191.414 77.2082 191.11 76.3762C190.806 75.5442 190.654 74.5842 190.654 73.4962C190.654 72.0722 190.894 70.8642 191.374 69.8722C191.87 68.8802 192.574 68.1282 193.486 67.6162C194.414 67.0882 195.502 66.8242 196.75 66.8242C197.934 66.8242 198.974 67.0882 199.87 67.6162C200.782 68.1282 201.494 68.8802 202.006 69.8722C202.534 70.8642 202.798 72.0802 202.798 73.5202ZM193.27 73.5202C193.27 74.4802 193.39 75.3122 193.63 76.0162C193.87 76.7042 194.246 77.2322 194.758 77.6002C195.27 77.9682 195.926 78.1522 196.726 78.1522C197.526 78.1522 198.182 77.9682 198.694 77.6002C199.206 77.2322 199.582 76.7042 199.822 76.0162C200.062 75.3122 200.182 74.4802 200.182 73.5202C200.182 72.5282 200.054 71.6962 199.798 71.0242C199.558 70.3522 199.182 69.8402 198.67 69.4882C198.174 69.1202 197.518 68.9362 196.702 68.9362C195.502 68.9362 194.63 69.3362 194.086 70.1362C193.542 70.9362 193.27 72.0642 193.27 73.5202Z" fill="#555555"/>
<path d="M187.403 67.064V80H184.859V67.064H187.403ZM186.155 62.144C186.539 62.144 186.875 62.256 187.163 62.48C187.451 62.704 187.595 63.08 187.595 63.608C187.595 64.12 187.451 64.496 187.163 64.736C186.875 64.96 186.539 65.072 186.155 65.072C185.739 65.072 185.387 64.96 185.099 64.736C184.827 64.496 184.691 64.12 184.691 63.608C184.691 63.08 184.827 62.704 185.099 62.48C185.387 62.256 185.739 62.144 186.155 62.144Z" fill="#555555"/>
<path d="M180.328 78.1762C180.664 78.1762 181.008 78.1442 181.36 78.0802C181.712 78.0162 182.016 77.9442 182.272 77.8642V79.7842C182 79.9122 181.632 80.0162 181.168 80.0962C180.704 80.1922 180.24 80.2402 179.776 80.2402C179.072 80.2402 178.424 80.1202 177.832 79.8802C177.256 79.6402 176.792 79.2242 176.44 78.6322C176.088 78.0402 175.912 77.2162 175.912 76.1602V69.0082H174.112V67.8562L176.008 66.8962L176.896 64.1602H178.456V67.0642H182.152V69.0082H178.456V76.1122C178.456 76.8162 178.624 77.3362 178.96 77.6722C179.312 78.0082 179.768 78.1762 180.328 78.1762Z" fill="#555555"/>
<path d="M169.114 80.2402C167.93 80.2402 166.89 80.0082 165.994 79.5442C165.098 79.0802 164.402 78.3602 163.906 77.3842C163.41 76.3922 163.162 75.1362 163.162 73.6162C163.162 72.0162 163.426 70.7202 163.954 69.7282C164.498 68.7362 165.226 68.0082 166.138 67.5442C167.066 67.0642 168.122 66.8242 169.306 66.8242C170.026 66.8242 170.698 66.9042 171.322 67.0642C171.962 67.2082 172.49 67.3762 172.906 67.5682L172.138 69.6322C171.69 69.4562 171.21 69.3042 170.698 69.1762C170.202 69.0482 169.73 68.9842 169.282 68.9842C168.482 68.9842 167.818 69.1602 167.29 69.5122C166.778 69.8482 166.394 70.3602 166.138 71.0482C165.898 71.7202 165.778 72.5682 165.778 73.5922C165.778 74.5682 165.906 75.3922 166.162 76.0642C166.418 76.7362 166.794 77.2482 167.29 77.6002C167.802 77.9362 168.434 78.1042 169.186 78.1042C169.906 78.1042 170.538 78.0242 171.082 77.8642C171.626 77.7042 172.138 77.4962 172.618 77.2402V79.4482C172.154 79.7202 171.65 79.9202 171.106 80.0482C170.562 80.1762 169.898 80.2402 169.114 80.2402Z" fill="#555555"/>
<path d="M155.141 66.8242C156.773 66.8242 157.989 67.1842 158.789 67.9042C159.589 68.6082 159.989 69.7202 159.989 71.2402V80.0002H158.189L157.685 78.2002H157.589C157.221 78.6642 156.837 79.0482 156.437 79.3522C156.053 79.6562 155.605 79.8802 155.093 80.0242C154.597 80.1682 153.989 80.2402 153.269 80.2402C152.501 80.2402 151.805 80.1042 151.181 79.8322C150.573 79.5442 150.093 79.1122 149.741 78.5362C149.389 77.9442 149.213 77.2082 149.213 76.3282C149.213 75.0162 149.709 74.0162 150.701 73.3282C151.709 72.6402 153.237 72.2642 155.285 72.2002L157.493 72.1282V71.4082C157.493 70.4482 157.277 69.7762 156.845 69.3922C156.413 69.0082 155.805 68.8162 155.021 68.8162C154.349 68.8162 153.709 68.9122 153.101 69.1042C152.493 69.2962 151.917 69.5282 151.373 69.8002L150.557 67.9522C151.165 67.6322 151.861 67.3682 152.645 67.1602C153.445 66.9362 154.277 66.8242 155.141 66.8242ZM155.741 73.8322C154.269 73.8962 153.245 74.1442 152.669 74.5762C152.109 74.9922 151.829 75.5842 151.829 76.3522C151.829 77.0242 152.029 77.5122 152.429 77.8162C152.845 78.1202 153.365 78.2722 153.989 78.2722C154.997 78.2722 155.829 77.9922 156.485 77.4322C157.141 76.8722 157.469 76.0322 157.469 74.9122V73.7842L155.741 73.8322Z" fill="#555555"/>
<path d="M141.478 66.8242C142.614 66.8242 143.59 67.0642 144.406 67.5442C145.222 68.0082 145.846 68.6802 146.278 69.5602C146.726 70.4402 146.95 71.4802 146.95 72.6802V74.0722H138.262C138.294 75.4002 138.638 76.4162 139.294 77.1202C139.966 77.8242 140.902 78.1762 142.102 78.1762C142.934 78.1762 143.67 78.1042 144.31 77.9602C144.966 77.8002 145.638 77.5682 146.326 77.2642V79.3762C145.686 79.6642 145.03 79.8802 144.358 80.0242C143.702 80.1682 142.918 80.2402 142.006 80.2402C140.758 80.2402 139.654 79.9922 138.694 79.4962C137.734 79.0002 136.982 78.2642 136.438 77.2882C135.91 76.2962 135.646 75.0802 135.646 73.6402C135.646 72.1842 135.886 70.9522 136.366 69.9442C136.862 68.9362 137.542 68.1682 138.406 67.6402C139.286 67.0962 140.31 66.8242 141.478 66.8242ZM141.478 68.7922C140.566 68.7922 139.83 69.0882 139.27 69.6802C138.726 70.2722 138.406 71.1122 138.31 72.2002H144.406C144.406 71.5282 144.302 70.9362 144.094 70.4242C143.886 69.9122 143.566 69.5122 143.134 69.2242C142.702 68.9362 142.15 68.7922 141.478 68.7922Z" fill="#555555"/>
<path d="M126.291 62.8638C127.763 62.8638 128.971 63.0478 129.915 63.4158C130.859 63.7838 131.563 64.3358 132.027 65.0718C132.491 65.7918 132.723 66.7038 132.723 67.8078C132.723 68.6878 132.555 69.4318 132.219 70.0398C131.899 70.6318 131.483 71.1198 130.971 71.5038C130.459 71.8718 129.923 72.1678 129.363 72.3918L134.163 79.9998H131.187L127.059 73.0638H124.083V79.9998H121.491V62.8638H126.291ZM126.123 65.0718H124.083V70.9038H126.243C127.123 70.9038 127.843 70.7918 128.403 70.5678C128.979 70.3438 129.395 70.0078 129.651 69.5598C129.923 69.1118 130.059 68.5598 130.059 67.9038C130.059 67.2158 129.915 66.6718 129.627 66.2718C129.355 65.8558 128.923 65.5518 128.331 65.3598C127.755 65.1678 127.019 65.0718 126.123 65.0718Z" fill="#555555"/>
<path d="M112.79 62.8638L106.406 79.9998H103.982L110.366 62.8638H112.79Z" fill="#555555"/>
<path d="M83.7312 69.6081H85.9632V78.5361C85.9632 78.9521 86.0272 79.2241 86.1552 79.3521C86.2832 79.4641 86.5472 79.5201 86.9472 79.5201C87.0432 79.5201 87.2032 79.5201 87.4272 79.5201C87.6672 79.5201 87.9312 79.5201 88.2192 79.5201C88.5072 79.5201 88.7712 79.5201 89.0112 79.5201C89.2672 79.5201 89.4592 79.5201 89.5872 79.5201C89.8752 79.5201 90.0912 79.4241 90.2352 79.2321C90.3792 79.0241 90.4832 78.6321 90.5472 78.0561C90.6112 77.4801 90.6592 76.6161 90.6912 75.4641C90.8512 75.6081 91.0512 75.7441 91.2912 75.8721C91.5312 75.9841 91.7792 76.0881 92.0352 76.1841C92.2912 76.2801 92.5152 76.3601 92.7072 76.4241C92.6272 77.7521 92.4912 78.7921 92.2992 79.5441C92.1072 80.2961 91.8112 80.8161 91.4112 81.1041C91.0272 81.4081 90.4752 81.5601 89.7552 81.5601C89.6432 81.5601 89.4352 81.5601 89.1312 81.5601C88.8432 81.5601 88.5232 81.5601 88.1712 81.5601C87.8352 81.5601 87.5152 81.5601 87.2112 81.5601C86.9232 81.5601 86.7232 81.5601 86.6112 81.5601C85.8432 81.5601 85.2512 81.4641 84.8352 81.2721C84.4192 81.0961 84.1312 80.7841 83.9712 80.3361C83.8112 79.9041 83.7312 79.3041 83.7312 78.5361V69.6081ZM80.3712 71.5761L82.4352 72.0321C82.3392 72.9281 82.2032 73.8561 82.0272 74.8161C81.8672 75.7761 81.6592 76.6881 81.4032 77.5521C81.1472 78.4161 80.8192 79.1761 80.4192 79.8321L78.4272 78.9201C78.7952 78.2961 79.1072 77.5841 79.3632 76.7841C79.6352 75.9681 79.8512 75.1121 80.0112 74.2161C80.1712 73.3201 80.2912 72.4401 80.3712 71.5761ZM83.9952 66.8481L85.5312 65.3601C86.1712 65.6641 86.8512 66.0241 87.5712 66.4401C88.2912 66.8401 88.9792 67.2561 89.6352 67.6881C90.2912 68.1041 90.8352 68.5041 91.2672 68.8881L89.6112 70.5681C89.2272 70.2001 88.7152 69.7921 88.0752 69.3441C87.4512 68.8961 86.7792 68.4561 86.0592 68.0241C85.3552 67.5761 84.6672 67.1841 83.9952 66.8481ZM91.5072 71.8161L93.5472 71.0241C94.0592 71.8401 94.5472 72.7201 95.0112 73.6641C95.4912 74.6081 95.8992 75.5361 96.2352 76.4481C96.5712 77.3441 96.8112 78.1601 96.9552 78.8961L94.7232 79.8081C94.6112 79.1041 94.3952 78.2881 94.0752 77.3601C93.7552 76.4321 93.3712 75.4881 92.9232 74.5281C92.4912 73.5521 92.0192 72.6481 91.5072 71.8161ZM85.0752 59.7441H87.4272V63.9681H85.0752V59.7441ZM77.3952 62.7201H96.4272V64.8801H77.3952V62.7201ZM76.3152 62.7201H78.5952V68.8641C78.5952 69.8081 78.5632 70.8481 78.4992 71.9841C78.4352 73.1201 78.3152 74.2801 78.1392 75.4641C77.9792 76.6481 77.7312 77.8081 77.3952 78.9441C77.0752 80.0641 76.6512 81.0881 76.1232 82.0161C75.9952 81.8881 75.8112 81.7361 75.5712 81.5601C75.3312 81.3841 75.0832 81.2161 74.8272 81.0561C74.5712 80.9121 74.3552 80.8001 74.1792 80.7201C74.6752 79.8561 75.0672 78.9201 75.3552 77.9121C75.6432 76.9041 75.8512 75.8721 75.9792 74.8161C76.1232 73.7441 76.2112 72.7041 76.2432 71.6961C76.2912 70.6721 76.3152 69.7281 76.3152 68.8641V62.7201Z" fill="#555555"/>
<path d="M54.5952 61.1362H71.3712V63.3922H54.5952V61.1362ZM54.8592 67.2802H68.2992V69.4642H54.8592V67.2802ZM53.4672 61.1362H55.7472V67.7602C55.7472 68.7842 55.7072 69.9122 55.6272 71.1442C55.5472 72.3762 55.3952 73.6402 55.1712 74.9362C54.9472 76.2162 54.6192 77.4642 54.1872 78.6802C53.7712 79.8802 53.2112 80.9762 52.5072 81.9682C52.3792 81.8242 52.1952 81.6642 51.9552 81.4882C51.7312 81.3282 51.4912 81.1682 51.2352 81.0082C50.9952 80.8482 50.7792 80.7202 50.5872 80.6242C51.2592 79.7122 51.7872 78.7122 52.1712 77.6242C52.5552 76.5202 52.8352 75.3922 53.0112 74.2402C53.2032 73.0882 53.3232 71.9602 53.3712 70.8562C53.4352 69.7362 53.4672 68.7042 53.4672 67.7602V61.1362ZM67.6752 67.2802H68.1072L68.5632 67.1842L70.1472 67.8322C69.6192 69.8162 68.8992 71.5842 67.9872 73.1362C67.0912 74.6722 66.0352 76.0162 64.8192 77.1682C63.6032 78.3042 62.2512 79.2722 60.7632 80.0722C59.2912 80.8722 57.7312 81.5202 56.0832 82.0162C55.9872 81.8082 55.8592 81.5762 55.6992 81.3202C55.5552 81.0642 55.3952 80.8082 55.2192 80.5522C55.0592 80.2962 54.8992 80.0882 54.7392 79.9282C56.2592 79.5442 57.7072 79.0002 59.0832 78.2962C60.4592 77.5922 61.7152 76.7362 62.8512 75.7282C63.9872 74.7042 64.9632 73.5282 65.7792 72.2002C66.6112 70.8562 67.2432 69.3522 67.6752 67.6882V67.2802ZM59.0112 68.4562C60.0032 71.4482 61.5872 73.9202 63.7632 75.8722C65.9552 77.8082 68.8112 79.1602 72.3312 79.9282C72.1552 80.0882 71.9712 80.2962 71.7792 80.5522C71.5872 80.8082 71.4032 81.0642 71.2272 81.3202C71.0672 81.5922 70.9312 81.8322 70.8192 82.0402C68.3712 81.4322 66.2432 80.5522 64.4352 79.4002C62.6432 78.2322 61.1312 76.7922 59.8992 75.0802C58.6672 73.3522 57.6432 71.3522 56.8272 69.0802L59.0112 68.4562Z" fill="#555555"/>
<path d="M38.3665 78.5839C38.3665 77.9599 38.5265 77.5199 38.8465 77.2639C39.1665 77.0079 39.5505 76.8799 39.9985 76.8799C40.4625 76.8799 40.8545 77.0079 41.1745 77.2639C41.4945 77.5199 41.6545 77.9599 41.6545 78.5839C41.6545 79.2079 41.4945 79.6559 41.1745 79.9279C40.8545 80.1999 40.4625 80.3359 39.9985 80.3359C39.5505 80.3359 39.1665 80.1999 38.8465 79.9279C38.5265 79.6559 38.3665 79.2079 38.3665 78.5839Z" fill="#555555"/>
<path d="M35.624 80H24.104V78.032L28.52 73.544C29.384 72.664 30.104 71.904 30.68 71.264C31.256 70.608 31.688 69.984 31.976 69.392C32.264 68.784 32.408 68.128 32.408 67.424C32.408 66.544 32.152 65.888 31.64 65.456C31.128 65.008 30.464 64.784 29.648 64.784C28.864 64.784 28.16 64.936 27.536 65.24C26.912 65.528 26.264 65.936 25.592 66.464L24.224 64.76C24.688 64.36 25.184 64 25.712 63.68C26.256 63.36 26.856 63.104 27.512 62.912C28.184 62.72 28.92 62.624 29.72 62.624C30.808 62.624 31.744 62.816 32.528 63.2C33.312 63.568 33.912 64.096 34.328 64.784C34.76 65.472 34.976 66.28 34.976 67.208C34.976 67.896 34.872 68.544 34.664 69.152C34.456 69.744 34.152 70.328 33.752 70.904C33.368 71.48 32.896 72.064 32.336 72.656C31.776 73.248 31.16 73.872 30.488 74.528L27.296 77.624V77.744H35.624V80Z" fill="#555555"/>
<path d="M249.815 47.2398C248.263 47.2398 247.007 46.6798 246.047 45.5598C245.103 44.4398 244.631 42.7758 244.631 40.5678C244.631 38.3438 245.111 36.6638 246.071 35.5278C247.031 34.3918 248.295 33.8238 249.863 33.8238C250.519 33.8238 251.087 33.9118 251.567 34.0878C252.063 34.2478 252.487 34.4718 252.839 34.7598C253.207 35.0478 253.519 35.3678 253.775 35.7198H253.919C253.887 35.4958 253.847 35.1758 253.799 34.7598C253.751 34.3278 253.727 33.9438 253.727 33.6078V28.7598H256.271V46.9998H254.279L253.847 45.2718H253.727C253.487 45.6398 253.183 45.9758 252.815 46.2798C252.463 46.5678 252.039 46.7998 251.543 46.9758C251.047 47.1518 250.471 47.2398 249.815 47.2398ZM250.415 45.1518C251.663 45.1518 252.543 44.8078 253.055 44.1198C253.567 43.4158 253.823 42.3678 253.823 40.9758V40.5918C253.823 39.0718 253.575 37.9118 253.079 37.1118C252.599 36.3118 251.703 35.9118 250.391 35.9118C249.351 35.9118 248.567 36.3358 248.039 37.1838C247.511 38.0158 247.247 39.1598 247.247 40.6158C247.247 42.0718 247.511 43.1918 248.039 43.9758C248.567 44.7598 249.359 45.1518 250.415 45.1518Z" fill="#555555"/>
<path d="M236.81 33.8242C238.314 33.8242 239.466 34.2002 240.266 34.9522C241.066 35.7042 241.466 36.9122 241.466 38.5762V47.0002H238.946V38.9362C238.946 37.9282 238.73 37.1762 238.298 36.6802C237.882 36.1682 237.21 35.9122 236.282 35.9122C234.97 35.9122 234.058 36.3042 233.546 37.0882C233.05 37.8722 232.802 39.0002 232.802 40.4722V47.0002H230.258V34.0642H232.274L232.634 35.7922H232.778C233.066 35.3442 233.418 34.9762 233.834 34.6882C234.25 34.4002 234.714 34.1842 235.226 34.0402C235.738 33.8962 236.266 33.8242 236.81 33.8242Z" fill="#555555"/>
<path d="M226.277 34.064V47H224.237L223.877 45.296H223.757C223.485 45.744 223.133 46.112 222.701 46.4C222.269 46.688 221.797 46.896 221.285 47.024C220.773 47.168 220.245 47.24 219.701 47.24C218.693 47.24 217.837 47.08 217.133 46.76C216.445 46.424 215.917 45.912 215.549 45.224C215.197 44.52 215.021 43.624 215.021 42.536V34.064H217.589V42.152C217.589 43.16 217.797 43.912 218.213 44.408C218.645 44.904 219.309 45.152 220.205 45.152C221.101 45.152 221.805 44.976 222.317 44.624C222.829 44.272 223.189 43.76 223.397 43.088C223.621 42.4 223.733 41.576 223.733 40.616V34.064H226.277Z" fill="#555555"/>
<path d="M211.915 40.5202C211.915 41.5922 211.771 42.5442 211.483 43.3762C211.195 44.2082 210.787 44.9122 210.259 45.4882C209.731 46.0642 209.091 46.5042 208.339 46.8082C207.587 47.0962 206.739 47.2402 205.795 47.2402C204.931 47.2402 204.131 47.0962 203.395 46.8082C202.659 46.5042 202.019 46.0642 201.475 45.4882C200.947 44.9122 200.531 44.2082 200.227 43.3762C199.923 42.5442 199.771 41.5842 199.771 40.4962C199.771 39.0722 200.011 37.8642 200.491 36.8722C200.987 35.8802 201.691 35.1282 202.603 34.6162C203.531 34.0882 204.619 33.8242 205.867 33.8242C207.051 33.8242 208.091 34.0882 208.987 34.6162C209.899 35.1282 210.611 35.8802 211.123 36.8722C211.651 37.8642 211.915 39.0802 211.915 40.5202ZM202.387 40.5202C202.387 41.4802 202.507 42.3122 202.747 43.0162C202.987 43.7042 203.363 44.2322 203.875 44.6002C204.387 44.9682 205.043 45.1522 205.843 45.1522C206.643 45.1522 207.299 44.9682 207.811 44.6002C208.323 44.2322 208.699 43.7042 208.939 43.0162C209.179 42.3122 209.299 41.4802 209.299 40.5202C209.299 39.5282 209.171 38.6962 208.915 38.0242C208.675 37.3522 208.299 36.8402 207.787 36.4882C207.291 36.1202 206.635 35.9362 205.819 35.9362C204.619 35.9362 203.747 36.3362 203.203 37.1362C202.659 37.9362 202.387 39.0642 202.387 40.5202Z" fill="#555555"/>
<path d="M197.173 33.8242C197.397 33.8242 197.645 33.8402 197.917 33.8722C198.189 33.8882 198.413 33.9122 198.589 33.9442L198.325 36.3202C198.149 36.2722 197.941 36.2322 197.701 36.2002C197.461 36.1682 197.237 36.1522 197.029 36.1522C196.549 36.1522 196.085 36.2482 195.637 36.4402C195.205 36.6162 194.813 36.8802 194.461 37.2322C194.109 37.5682 193.829 37.9842 193.621 38.4802C193.429 38.9762 193.333 39.5442 193.333 40.1842V47.0002H190.789V34.0642H192.805L193.141 36.3682H193.237C193.509 35.9042 193.837 35.4802 194.221 35.0962C194.605 34.7122 195.045 34.4082 195.541 34.1842C196.037 33.9442 196.581 33.8242 197.173 33.8242Z" fill="#555555"/>
<path d="M180.37 33.8242C181.202 33.8242 181.954 33.9842 182.626 34.3042C183.298 34.6242 183.866 35.1122 184.33 35.7682H184.45L184.738 34.0642H186.802V47.1682C186.802 48.3842 186.586 49.4082 186.154 50.2402C185.722 51.0722 185.058 51.6962 184.162 52.1122C183.282 52.5442 182.17 52.7602 180.826 52.7602C179.898 52.7602 179.042 52.6962 178.258 52.5682C177.474 52.4402 176.754 52.2402 176.098 51.9682V49.7362C176.562 49.9602 177.05 50.1442 177.562 50.2882C178.074 50.4482 178.618 50.5602 179.194 50.6242C179.77 50.7042 180.362 50.7442 180.97 50.7442C182.026 50.7442 182.842 50.4402 183.418 49.8322C183.994 49.2402 184.282 48.4002 184.282 47.3122V46.8802C184.282 46.6722 184.29 46.4002 184.306 46.0642C184.322 45.7122 184.338 45.4562 184.354 45.2962H184.258C183.81 45.9682 183.258 46.4642 182.602 46.7842C181.962 47.0882 181.218 47.2402 180.37 47.2402C178.738 47.2402 177.458 46.6562 176.53 45.4882C175.618 44.3042 175.162 42.6642 175.162 40.5682C175.162 39.1602 175.37 37.9602 175.786 36.9682C176.202 35.9602 176.794 35.1842 177.562 34.6402C178.346 34.0962 179.282 33.8242 180.37 33.8242ZM180.898 35.9362C180.226 35.9362 179.658 36.1202 179.194 36.4882C178.73 36.8402 178.378 37.3602 178.138 38.0482C177.898 38.7362 177.778 39.5842 177.778 40.5922C177.778 42.0962 178.042 43.2402 178.57 44.0242C179.114 44.8082 179.906 45.2002 180.946 45.2002C181.554 45.2002 182.066 45.1202 182.482 44.9602C182.914 44.8002 183.266 44.5522 183.538 44.2162C183.826 43.8802 184.034 43.4562 184.162 42.9442C184.306 42.4162 184.378 41.7842 184.378 41.0482V40.5682C184.378 39.4642 184.25 38.5762 183.994 37.9042C183.754 37.2162 183.378 36.7202 182.866 36.4162C182.354 36.0962 181.698 35.9362 180.898 35.9362Z" fill="#555555"/>
<path d="M165.02 37.8798C165.02 38.2158 165.004 38.5998 164.972 39.0318C164.956 39.4638 164.932 39.8638 164.9 40.2318H164.972C165.1 40.0718 165.252 39.8798 165.428 39.6558C165.62 39.4158 165.812 39.1758 166.004 38.9358C166.196 38.6958 166.372 38.4878 166.532 38.3118L170.492 34.0638H173.444L168.236 39.6078L173.78 46.9998H170.78L166.508 41.2158L165.02 42.4638V46.9998H162.5V28.7598H165.02V37.8798Z" fill="#555555"/>
<path d="M155.942 47.2402C154.758 47.2402 153.718 47.0082 152.822 46.5442C151.926 46.0802 151.23 45.3602 150.734 44.3842C150.238 43.3922 149.99 42.1362 149.99 40.6162C149.99 39.0162 150.254 37.7202 150.782 36.7282C151.326 35.7362 152.054 35.0082 152.966 34.5442C153.894 34.0642 154.95 33.8242 156.134 33.8242C156.854 33.8242 157.526 33.9042 158.15 34.0642C158.79 34.2082 159.318 34.3762 159.734 34.5682L158.966 36.6322C158.518 36.4562 158.038 36.3042 157.526 36.1762C157.03 36.0482 156.558 35.9842 156.11 35.9842C155.31 35.9842 154.646 36.1602 154.118 36.5122C153.606 36.8482 153.222 37.3602 152.966 38.0482C152.726 38.7202 152.606 39.5682 152.606 40.5922C152.606 41.5682 152.734 42.3922 152.99 43.0642C153.246 43.7362 153.622 44.2482 154.118 44.6002C154.63 44.9362 155.262 45.1042 156.014 45.1042C156.734 45.1042 157.366 45.0242 157.91 44.8642C158.454 44.7042 158.966 44.4962 159.446 44.2402V46.4482C158.982 46.7202 158.478 46.9202 157.934 47.0482C157.39 47.1762 156.726 47.2402 155.942 47.2402Z" fill="#555555"/>
<path d="M141.969 33.8242C143.601 33.8242 144.817 34.1842 145.617 34.9042C146.417 35.6082 146.817 36.7202 146.817 38.2402V47.0002H145.017L144.513 45.2002H144.417C144.049 45.6642 143.665 46.0482 143.265 46.3522C142.881 46.6562 142.433 46.8802 141.921 47.0242C141.425 47.1682 140.817 47.2402 140.097 47.2402C139.329 47.2402 138.633 47.1042 138.009 46.8322C137.401 46.5442 136.921 46.1122 136.569 45.5362C136.217 44.9442 136.041 44.2082 136.041 43.3282C136.041 42.0162 136.537 41.0162 137.529 40.3282C138.537 39.6402 140.065 39.2642 142.113 39.2002L144.321 39.1282V38.4082C144.321 37.4482 144.105 36.7762 143.673 36.3922C143.241 36.0082 142.633 35.8162 141.849 35.8162C141.177 35.8162 140.537 35.9122 139.929 36.1042C139.321 36.2962 138.745 36.5282 138.201 36.8002L137.385 34.9522C137.993 34.6322 138.689 34.3682 139.473 34.1602C140.273 33.9362 141.105 33.8242 141.969 33.8242ZM142.569 40.8322C141.097 40.8962 140.073 41.1442 139.497 41.5762C138.937 41.9922 138.657 42.5842 138.657 43.3522C138.657 44.0242 138.857 44.5122 139.257 44.8162C139.673 45.1202 140.193 45.2722 140.817 45.2722C141.825 45.2722 142.657 44.9922 143.313 44.4322C143.969 43.8722 144.297 43.0322 144.297 41.9122V40.7842L142.569 40.8322Z" fill="#555555"/>
<path d="M126.507 29.8638C127.963 29.8638 129.179 29.9998 130.155 30.2718C131.147 30.5438 131.891 30.9998 132.387 31.6398C132.899 32.2638 133.155 33.0958 133.155 34.1358C133.155 34.8078 133.035 35.4078 132.795 35.9358C132.555 36.4478 132.203 36.8798 131.739 37.2318C131.291 37.5678 130.731 37.7918 130.059 37.9038V38.0238C130.747 38.1358 131.363 38.3438 131.907 38.6478C132.451 38.9358 132.883 39.3598 133.203 39.9198C133.523 40.4798 133.683 41.2078 133.683 42.1038C133.683 43.1438 133.435 44.0318 132.939 44.7678C132.459 45.4878 131.763 46.0398 130.851 46.4238C129.955 46.8078 128.883 46.9998 127.635 46.9998H121.491V29.8638H126.507ZM126.939 37.0158C128.283 37.0158 129.203 36.7998 129.699 36.3678C130.211 35.9358 130.467 35.2958 130.467 34.4478C130.467 33.5838 130.163 32.9678 129.555 32.5998C128.947 32.2318 127.979 32.0478 126.651 32.0478H124.083V37.0158H126.939ZM124.083 39.1278V44.8398H127.227C128.619 44.8398 129.587 44.5678 130.131 44.0238C130.675 43.4798 130.947 42.7598 130.947 41.8638C130.947 41.3198 130.827 40.8398 130.587 40.4238C130.347 40.0078 129.939 39.6878 129.363 39.4638C128.803 39.2398 128.035 39.1278 127.059 39.1278H124.083Z" fill="#555555"/>
<path d="M112.79 29.8638L106.406 46.9998H103.982L110.366 29.8638H112.79Z" fill="#555555"/>
<path d="M79.7714 31.7121V33.0081H91.1954V31.7121H79.7714ZM79.7714 29.0241V30.2961H91.1954V29.0241H79.7714ZM77.5874 27.5361H93.4514V34.4961H77.5874V27.5361ZM74.8514 35.7681H96.0914V37.5681H74.8514V35.7681ZM80.3234 40.2321V42.2721H90.7394V40.2321H80.3234ZM78.1634 38.6241H93.0194V43.8801H78.1634V38.6241ZM84.3314 34.1841H86.6594V36.7761H84.3314V34.1841ZM84.4034 42.9201H86.6834V46.9761C86.6834 47.4881 86.6114 47.8721 86.4674 48.1281C86.3234 48.4001 86.0434 48.6001 85.6274 48.7281C85.2274 48.8561 84.7234 48.9281 84.1154 48.9441C83.5234 48.9761 82.8034 48.9921 81.9554 48.9921C81.9074 48.7201 81.8194 48.4161 81.6914 48.0801C81.5634 47.7601 81.4354 47.4721 81.3074 47.2161C81.6754 47.2321 82.0434 47.2401 82.4114 47.2401C82.7954 47.2561 83.1234 47.2641 83.3954 47.2641C83.6834 47.2641 83.8834 47.2641 83.9954 47.2641C84.1554 47.2481 84.2594 47.2081 84.3074 47.1441C84.3714 47.0961 84.4034 47.0081 84.4034 46.8801V42.9201ZM88.3874 45.4401L89.8754 44.1921C90.5634 44.4481 91.2994 44.7521 92.0834 45.1041C92.8674 45.4561 93.6194 45.8161 94.3394 46.1841C95.0594 46.5521 95.6594 46.9041 96.1394 47.2401L94.5314 48.6081C94.0994 48.2881 93.5314 47.9361 92.8274 47.5521C92.1394 47.1681 91.4034 46.7921 90.6194 46.4241C89.8354 46.0401 89.0914 45.7121 88.3874 45.4401ZM80.2754 44.2161L82.3634 45.0321C81.8194 45.4961 81.1874 45.9521 80.4674 46.4001C79.7634 46.8481 79.0354 47.2641 78.2834 47.6481C77.5314 48.0481 76.8034 48.3841 76.0994 48.6561C75.9874 48.5121 75.8274 48.3361 75.6194 48.1281C75.4114 47.9361 75.2034 47.7361 74.9954 47.5281C74.7874 47.3201 74.6034 47.1601 74.4434 47.0481C75.1474 46.8241 75.8594 46.5601 76.5794 46.2561C77.2994 45.9521 77.9794 45.6241 78.6194 45.2721C79.2754 44.9201 79.8274 44.5681 80.2754 44.2161Z" fill="#555555"/>
<path d="M54.0192 36.5122H67.4592V38.2162H56.3232V49.0402H54.0192V36.5122ZM66.8592 36.5122H69.1872V46.6402C69.1872 47.2162 69.0992 47.6562 68.9232 47.9602C68.7632 48.2802 68.4672 48.5202 68.0352 48.6802C67.6032 48.8402 67.0512 48.9362 66.3792 48.9682C65.7072 49.0002 64.8832 49.0162 63.9072 49.0162C63.8592 48.7122 63.7632 48.3762 63.6192 48.0082C63.4752 47.6402 63.3232 47.3122 63.1632 47.0242C63.6112 47.0402 64.0512 47.0562 64.4832 47.0722C64.9152 47.0882 65.2992 47.0882 65.6352 47.0722C65.9712 47.0722 66.1952 47.0722 66.3072 47.0722C66.5152 47.0562 66.6592 47.0162 66.7392 46.9522C66.8192 46.8882 66.8592 46.7762 66.8592 46.6162V36.5122ZM55.7712 39.8962H67.5552V41.5282H55.7712V39.8962ZM51.4032 28.7122H58.5792V30.4882H51.4032V28.7122ZM50.8032 33.3442C51.7792 33.2162 52.9472 33.0482 54.3072 32.8402C55.6832 32.6162 57.0912 32.4002 58.5312 32.1922L58.6272 33.8722C57.2992 34.1282 55.9792 34.3762 54.6672 34.6162C53.3712 34.8402 52.1952 35.0482 51.1392 35.2402L50.8032 33.3442ZM55.7712 43.3042H67.6032V44.9362H55.7712V43.3042ZM57.1872 26.7202H59.4672V35.8402H57.1872V26.7202ZM69.9072 27.7282L71.4432 29.3602C70.7552 29.6322 69.9952 29.8962 69.1632 30.1522C68.3312 30.4082 67.4832 30.6482 66.6192 30.8722C65.7712 31.0962 64.9472 31.2882 64.1472 31.4482C64.0992 31.2402 64.0112 30.9842 63.8832 30.6802C63.7712 30.3602 63.6512 30.0962 63.5232 29.8882C64.2752 29.6962 65.0432 29.4802 65.8272 29.2402C66.6272 29.0002 67.3792 28.7522 68.0832 28.4962C68.7872 28.2402 69.3952 27.9842 69.9072 27.7282ZM62.5392 26.7202H64.8192V32.8882C64.8192 33.2242 64.8912 33.4482 65.0352 33.5602C65.1792 33.6562 65.4992 33.7042 65.9952 33.7042C66.1232 33.7042 66.3232 33.7042 66.5952 33.7042C66.8832 33.7042 67.2032 33.7042 67.5552 33.7042C67.9232 33.7042 68.2592 33.7042 68.5632 33.7042C68.8832 33.7042 69.1152 33.7042 69.2592 33.7042C69.5152 33.7042 69.7152 33.6562 69.8592 33.5602C70.0032 33.4642 70.1072 33.2802 70.1712 33.0082C70.2352 32.7202 70.2752 32.2962 70.2912 31.7362C70.5472 31.9122 70.8672 32.0722 71.2512 32.2162C71.6512 32.3602 72.0032 32.4642 72.3072 32.5282C72.2272 33.3282 72.0832 33.9602 71.8752 34.4242C71.6832 34.8722 71.3952 35.1922 71.0112 35.3842C70.6432 35.5602 70.1312 35.6482 69.4752 35.6482C69.3792 35.6482 69.2032 35.6482 68.9472 35.6482C68.6912 35.6482 68.3952 35.6482 68.0592 35.6482C67.7392 35.6482 67.4192 35.6482 67.0992 35.6482C66.7792 35.6482 66.4912 35.6482 66.2352 35.6482C65.9952 35.6482 65.8192 35.6482 65.7072 35.6482C64.8752 35.6482 64.2272 35.5682 63.7632 35.4082C63.2992 35.2322 62.9792 34.9442 62.8032 34.5442C62.6272 34.1442 62.5392 33.5922 62.5392 32.8882V26.7202Z" fill="#555555"/>
<path d="M38.3665 45.5839C38.3665 44.9599 38.5265 44.5199 38.8465 44.2639C39.1665 44.0079 39.5505 43.8799 39.9985 43.8799C40.4625 43.8799 40.8545 44.0079 41.1745 44.2639C41.4945 44.5199 41.6545 44.9599 41.6545 45.5839C41.6545 46.2079 41.4945 46.6559 41.1745 46.9279C40.8545 47.1999 40.4625 47.3359 39.9985 47.3359C39.5505 47.3359 39.1665 47.1999 38.8465 46.9279C38.5265 46.6559 38.3665 46.2079 38.3665 45.5839Z" fill="#555555"/>
<path d="M31.9279 46.9998H29.4079V35.6238C29.4079 35.2238 29.4079 34.8558 29.4079 34.5198C29.4239 34.1678 29.4399 33.8318 29.4559 33.5118C29.4719 33.1758 29.4879 32.8558 29.5039 32.5518C29.2959 32.7598 29.0799 32.9598 28.8559 33.1518C28.6319 33.3438 28.3759 33.5678 28.0879 33.8238L26.2159 35.3358L24.9199 33.7038L29.8159 29.8638H31.9279V46.9998Z" fill="#555555"/>
<path d="M535 40V34.3333L552.6 16.7667C552.867 16.5222 553.161 16.3333 553.483 16.2C553.806 16.0667 554.144 16 554.5 16C554.856 16 555.2 16.0667 555.533 16.2C555.867 16.3333 556.156 16.5333 556.4 16.8L558.233 18.6667C558.5 18.9111 558.694 19.2 558.817 19.5333C558.939 19.8667 559 20.2 559 20.5333C559 20.8889 558.939 21.2278 558.817 21.55C558.694 21.8722 558.5 22.1667 558.233 22.4333L540.667 40H535ZM554.467 22.4L556.333 20.5333L554.467 18.6667L552.6 20.5333L554.467 22.4Z" fill="#555555"/>
<path d="M57.3333 282V258H59.9999V260.667H62.6666V258H73.3333V260.667H75.9999V258H78.6666V282H75.9999V279.333H73.3333V282H62.6666V279.333H59.9999V282H57.3333ZM59.9999 276.667H62.6666V274H59.9999V276.667ZM59.9999 271.333H62.6666V268.667H59.9999V271.333ZM59.9999 266H62.6666V263.333H59.9999V266ZM73.3333 276.667H75.9999V274H73.3333V276.667ZM73.3333 271.333H75.9999V268.667H73.3333V271.333ZM73.3333 266H75.9999V263.333H73.3333V266Z" fill="#555555"/>
</svg>
