<svg width="580" height="80" viewBox="0 0 580 80" fill="none" xmlns="http://www.w3.org/2000/svg">
<path d="M0 16C0 7.16344 7.16344 0 16 0H564C572.837 0 580 7.16344 580 16V64C580 72.8366 572.837 80 564 80H16C7.16345 80 0 72.8366 0 64V16Z" fill="white"/>
<path d="M564 76V80H16V76H564ZM576 64V16C576 9.37259 570.627 4 564 4H16C9.37258 4 4 9.37258 4 16V64C4 70.6274 9.37258 76 16 76V80C7.30156 80 0.223981 73.0587 0.00488281 64.4131L0 64V16C0 7.30155 6.94127 0.22398 15.5869 0.00488281L16 0H564L564.413 0.00488281C573.059 0.223985 580 7.30156 580 16V64C580 72.8366 572.837 80 564 80V76C570.627 76 576 70.6274 576 64Z" fill="#CECECE"/>
<path d="M136.339 41.5319C136.339 44.1999 136.14 46.5766 135.741 48.6619C135.342 50.7472 134.698 52.5259 133.809 53.9979C132.95 55.4392 131.816 56.5432 130.405 57.3099C129.025 58.0766 127.354 58.4599 125.391 58.4599C122.938 58.4599 120.898 57.7852 119.273 56.4359C117.678 55.0866 116.482 53.1546 115.685 50.6399C114.918 48.0946 114.535 45.0586 114.535 41.5319C114.535 37.9746 114.888 34.9386 115.593 32.4239C116.329 29.9092 117.494 27.9926 119.089 26.6739C120.684 25.3246 122.784 24.6499 125.391 24.6499C127.844 24.6499 129.884 25.3246 131.509 26.6739C133.134 27.9926 134.346 29.9092 135.143 32.4239C135.94 34.9386 136.339 37.9746 136.339 41.5319ZM118.583 41.5319C118.583 44.5372 118.798 47.0366 119.227 49.0299C119.687 51.0232 120.408 52.5259 121.389 53.5379C122.401 54.5192 123.735 55.0099 125.391 55.0099C127.047 55.0099 128.366 54.5192 129.347 53.5379C130.359 52.5566 131.095 51.0692 131.555 49.0759C132.015 47.0519 132.245 44.5372 132.245 41.5319C132.245 38.5266 132.015 36.0426 131.555 34.0799C131.095 32.0866 130.359 30.5992 129.347 29.6179C128.366 28.6059 127.047 28.0999 125.391 28.0999C123.735 28.0999 122.401 28.6059 121.389 29.6179C120.408 30.5992 119.687 32.0866 119.227 34.0799C118.798 36.0426 118.583 38.5266 118.583 41.5319Z" fill="#555555"/>
<path d="M110.015 41.5319C110.015 44.1999 109.816 46.5766 109.417 48.6619C109.018 50.7472 108.374 52.5259 107.485 53.9979C106.626 55.4392 105.492 56.5432 104.081 57.3099C102.701 58.0766 101.03 58.4599 99.0669 58.4599C96.6136 58.4599 94.5743 57.7852 92.9489 56.4359C91.3543 55.0866 90.1583 53.1546 89.3609 50.6399C88.5943 48.0946 88.2109 45.0586 88.2109 41.5319C88.2109 37.9746 88.5636 34.9386 89.2689 32.4239C90.0049 29.9092 91.1703 27.9926 92.7649 26.6739C94.3596 25.3246 96.4603 24.6499 99.0669 24.6499C101.52 24.6499 103.56 25.3246 105.185 26.6739C106.81 27.9926 108.022 29.9092 108.819 32.4239C109.616 34.9386 110.015 37.9746 110.015 41.5319ZM92.2589 41.5319C92.2589 44.5372 92.4736 47.0366 92.9029 49.0299C93.3629 51.0232 94.0836 52.5259 95.0649 53.5379C96.0769 54.5192 97.4109 55.0099 99.0669 55.0099C100.723 55.0099 102.042 54.5192 103.023 53.5379C104.035 52.5566 104.771 51.0692 105.231 49.0759C105.691 47.0519 105.921 44.5372 105.921 41.5319C105.921 38.5266 105.691 36.0426 105.231 34.0799C104.771 32.0866 104.035 30.5992 103.023 29.6179C102.042 28.6059 100.723 28.0999 99.0669 28.0999C97.4109 28.0999 96.0769 28.6059 95.0649 29.6179C94.0836 30.5992 93.3629 32.0866 92.9029 34.0799C92.4736 36.0426 92.2589 38.5266 92.2589 41.5319Z" fill="#555555"/>
<path d="M83.6907 41.5319C83.6907 44.1999 83.4914 46.5766 83.0927 48.6619C82.6941 50.7472 82.05 52.5259 81.1607 53.9979C80.3021 55.4392 79.1674 56.5432 77.7567 57.3099C76.3767 58.0766 74.7054 58.4599 72.7427 58.4599C70.2894 58.4599 68.2501 57.7852 66.6247 56.4359C65.0301 55.0866 63.834 53.1546 63.0367 50.6399C62.27 48.0946 61.8867 45.0586 61.8867 41.5319C61.8867 37.9746 62.2394 34.9386 62.9447 32.4239C63.6807 29.9092 64.846 27.9926 66.4407 26.6739C68.0354 25.3246 70.1361 24.6499 72.7427 24.6499C75.1961 24.6499 77.2354 25.3246 78.8607 26.6739C80.4861 27.9926 81.6974 29.9092 82.4947 32.4239C83.292 34.9386 83.6907 37.9746 83.6907 41.5319ZM65.9347 41.5319C65.9347 44.5372 66.1494 47.0366 66.5787 49.0299C67.0387 51.0232 67.7594 52.5259 68.7407 53.5379C69.7527 54.5192 71.0867 55.0099 72.7427 55.0099C74.3987 55.0099 75.7174 54.5192 76.6987 53.5379C77.7107 52.5566 78.4467 51.0692 78.9067 49.0759C79.3667 47.0519 79.5967 44.5372 79.5967 41.5319C79.5967 38.5266 79.3667 36.0426 78.9067 34.0799C78.4467 32.0866 77.7107 30.5992 76.6987 29.6179C75.7174 28.6059 74.3987 28.0999 72.7427 28.0999C71.0867 28.0999 69.7527 28.6059 68.7407 29.6179C67.7594 30.5992 67.0387 32.0866 66.5787 34.0799C66.1494 36.0426 65.9347 38.5266 65.9347 41.5319Z" fill="#555555"/>
<path d="M56.1565 53.1701C55.8805 54.2434 55.5278 55.4087 55.0985 56.6661C54.6691 57.9234 54.1938 59.1654 53.6724 60.3921C53.1818 61.6494 52.6911 62.8301 52.2004 63.9341H49.2104C49.5171 62.7687 49.8084 61.5114 50.0844 60.1621C50.3911 58.8434 50.6671 57.5401 50.9124 56.2521C51.1578 54.9334 51.3571 53.7374 51.5105 52.6641H55.8344L56.1565 53.1701Z" fill="#555555"/>
<path d="M43.6778 32.8378C43.6778 34.3098 43.4018 35.5825 42.8498 36.6558C42.2978 37.7291 41.5005 38.6031 40.4578 39.2778C39.4458 39.9525 38.2498 40.4278 36.8698 40.7038V40.8878C39.5072 41.1945 41.4698 42.0225 42.7578 43.3718C44.0458 44.7211 44.6898 46.4845 44.6898 48.6618C44.6898 50.5631 44.2452 52.2651 43.3558 53.7678C42.4665 55.2398 41.0865 56.3898 39.2158 57.2178C37.3758 58.0458 34.9992 58.4598 32.0858 58.4598C30.3685 58.4598 28.7738 58.3218 27.3018 58.0458C25.8298 57.8005 24.4192 57.3405 23.0698 56.6658V52.8938C24.4498 53.5685 25.9372 54.1051 27.5318 54.5038C29.1265 54.8718 30.6598 55.0558 32.1318 55.0558C35.0758 55.0558 37.1918 54.4885 38.4798 53.3538C39.7985 52.1885 40.4578 50.5938 40.4578 48.5698C40.4578 47.1898 40.0898 46.0858 39.3538 45.2578C38.6485 44.3991 37.6058 43.7705 36.2258 43.3718C34.8458 42.9731 33.1898 42.7738 31.2578 42.7738H28.0838V39.3238H31.3038C33.1132 39.3238 34.6158 39.0631 35.8118 38.5418C37.0385 38.0205 37.9585 37.2998 38.5718 36.3798C39.2158 35.4291 39.5378 34.3405 39.5378 33.1138C39.5378 31.5191 39.0012 30.2925 37.9278 29.4338C36.8545 28.5445 35.3978 28.0998 33.5578 28.0998C32.3925 28.0998 31.3345 28.2225 30.3838 28.4678C29.4332 28.6825 28.5438 29.0045 27.7158 29.4338C26.9185 29.8325 26.1058 30.3078 25.2778 30.8598L23.2538 28.0998C24.0512 27.4865 24.9558 26.9191 25.9678 26.3978C27.0105 25.8765 28.1605 25.4625 29.4178 25.1558C30.6752 24.8491 32.0398 24.6958 33.5118 24.6958C36.9465 24.6958 39.4918 25.4625 41.1478 26.9958C42.8345 28.5291 43.6778 30.4765 43.6778 32.8378Z" fill="#555555"/>
</svg>
