<svg width="580" height="80" viewBox="0 0 580 80" fill="none" xmlns="http://www.w3.org/2000/svg">
<path d="M0 16C0 7.16344 7.16344 0 16 0H564C572.837 0 580 7.16344 580 16V64C580 72.8366 572.837 80 564 80H16C7.16345 80 0 72.8366 0 64V16Z" fill="white"/>
<path d="M564 76V80H16V76H564ZM576 64V16C576 9.37259 570.627 4 564 4H16C9.37258 4 4 9.37258 4 16V64C4 70.6274 9.37258 76 16 76V80C7.30156 80 0.223981 73.0587 0.00488281 64.4131L0 64V16C0 7.30155 6.94127 0.22398 15.5869 0.00488281L16 0H564L564.413 0.00488281C573.059 0.223985 580 7.30156 580 16V64C580 72.8366 572.837 80 564 80V76C570.627 76 576 70.6274 576 64Z" fill="#CECECE"/>
<path d="M541.829 49.3375L544.337 46.8292L537.708 40.2V31.9583H534.125V41.6333L541.829 49.3375ZM535.917 58.8333C533.438 58.8333 531.109 58.363 528.929 57.4224C526.749 56.4818 524.853 55.2052 523.241 53.5927C521.628 51.9802 520.352 50.084 519.411 47.9042C518.47 45.7243 518 43.3951 518 40.9167C518 38.4382 518.47 36.109 519.411 33.9292C520.352 31.7493 521.628 29.8531 523.241 28.2406C524.853 26.6281 526.749 25.3516 528.929 24.4109C531.109 23.4703 533.438 23 535.917 23C538.395 23 540.724 23.4703 542.904 24.4109C545.084 25.3516 546.98 26.6281 548.593 28.2406C550.205 29.8531 551.482 31.7493 552.422 33.9292C553.363 36.109 553.833 38.4382 553.833 40.9167C553.833 43.3951 553.363 45.7243 552.422 47.9042C551.482 50.084 550.205 51.9802 548.593 53.5927C546.98 55.2052 545.084 56.4818 542.904 57.4224C540.724 58.363 538.395 58.8333 535.917 58.8333Z" fill="#555555"/>
<path d="M393.113 41.5319C393.113 44.1999 392.913 46.5766 392.515 48.6619C392.116 50.7472 391.472 52.5259 390.583 53.9979C389.724 55.4392 388.589 56.5432 387.179 57.3099C385.799 58.0766 384.127 58.4599 382.165 58.4599C379.711 58.4599 377.672 57.7852 376.047 56.4359C374.452 55.0866 373.256 53.1546 372.459 50.6399C371.692 48.0946 371.309 45.0586 371.309 41.5319C371.309 37.9746 371.661 34.9386 372.367 32.4239C373.103 29.9092 374.268 27.9926 375.863 26.6739C377.457 25.3246 379.558 24.6499 382.165 24.6499C384.618 24.6499 386.657 25.3246 388.283 26.6739C389.908 27.9926 391.119 29.9092 391.917 32.4239C392.714 34.9386 393.113 37.9746 393.113 41.5319ZM375.357 41.5319C375.357 44.5372 375.571 47.0366 376.001 49.0299C376.461 51.0232 377.181 52.5259 378.163 53.5379C379.175 54.5192 380.509 55.0099 382.165 55.0099C383.821 55.0099 385.139 54.5192 386.121 53.5379C387.133 52.5566 387.869 51.0692 388.329 49.0759C388.789 47.0519 389.019 44.5372 389.019 41.5319C389.019 38.5266 388.789 36.0426 388.329 34.0799C387.869 32.0866 387.133 30.5992 386.121 29.6179C385.139 28.6059 383.821 28.0999 382.165 28.0999C380.509 28.0999 379.175 28.6059 378.163 29.6179C377.181 30.5992 376.461 32.0866 376.001 34.0799C375.571 36.0426 375.357 38.5266 375.357 41.5319Z" fill="#555555"/>
<path d="M359.06 57.9998H355.104V35.0458C355.104 34.1564 355.104 33.4051 355.104 32.7918C355.135 32.1784 355.166 31.6111 355.196 31.0898C355.227 30.5378 355.258 29.9704 355.288 29.3878C354.798 29.8784 354.353 30.2924 353.954 30.6298C353.556 30.9671 353.05 31.3964 352.436 31.9178L348.94 34.7698L346.824 32.0558L355.702 25.1558H359.06V57.9998Z" fill="#555555"/>
<path d="M333.734 55.5162C333.734 54.3815 334.01 53.5842 334.562 53.1242C335.114 52.6642 335.773 52.4342 336.54 52.4342C337.337 52.4342 338.012 52.6642 338.564 53.1242C339.147 53.5842 339.438 54.3815 339.438 55.5162C339.438 56.6202 339.147 57.4175 338.564 57.9082C338.012 58.3989 337.337 58.6442 336.54 58.6442C335.773 58.6442 335.114 58.3989 334.562 57.9082C334.01 57.4175 333.734 56.6202 333.734 55.5162ZM333.734 35.8282C333.734 34.6629 334.01 33.8502 334.562 33.3902C335.114 32.9302 335.773 32.7002 336.54 32.7002C337.337 32.7002 338.012 32.9302 338.564 33.3902C339.147 33.8502 339.438 34.6629 339.438 35.8282C339.438 36.9322 339.147 37.7295 338.564 38.2202C338.012 38.7109 337.337 38.9562 336.54 38.9562C335.773 38.9562 335.114 38.7109 334.562 38.2202C334.01 37.7295 333.734 36.9322 333.734 35.8282Z" fill="#555555"/>
<path d="M328.156 41.5319C328.156 44.1999 327.956 46.5766 327.558 48.6619C327.159 50.7472 326.515 52.5259 325.626 53.9979C324.767 55.4392 323.632 56.5432 322.222 57.3099C320.842 58.0766 319.17 58.4599 317.208 58.4599C314.754 58.4599 312.715 57.7852 311.09 56.4359C309.495 55.0866 308.299 53.1546 307.502 50.6399C306.735 48.0946 306.352 45.0586 306.352 41.5319C306.352 37.9746 306.704 34.9386 307.41 32.4239C308.146 29.9092 309.311 27.9926 310.906 26.6739C312.5 25.3246 314.601 24.6499 317.208 24.6499C319.661 24.6499 321.7 25.3246 323.326 26.6739C324.951 27.9926 326.162 29.9092 326.96 32.4239C327.757 34.9386 328.156 37.9746 328.156 41.5319ZM310.4 41.5319C310.4 44.5372 310.614 47.0366 311.044 49.0299C311.504 51.0232 312.224 52.5259 313.206 53.5379C314.218 54.5192 315.552 55.0099 317.208 55.0099C318.864 55.0099 320.182 54.5192 321.164 53.5379C322.176 52.5566 322.912 51.0692 323.372 49.0759C323.832 47.0519 324.062 44.5372 324.062 41.5319C324.062 38.5266 323.832 36.0426 323.372 34.0799C322.912 32.0866 322.176 30.5992 321.164 29.6179C320.182 28.6059 318.864 28.0999 317.208 28.0999C315.552 28.0999 314.218 28.6059 313.206 29.6179C312.224 30.5992 311.504 32.0866 311.044 34.0799C310.614 36.0426 310.4 38.5266 310.4 41.5319Z" fill="#555555"/>
<path d="M294.103 57.9998H290.147V35.0458C290.147 34.1564 290.147 33.4051 290.147 32.7918C290.178 32.1784 290.209 31.6111 290.239 31.0898C290.27 30.5378 290.301 29.9704 290.331 29.3878C289.841 29.8784 289.396 30.2924 288.997 30.6298C288.599 30.9671 288.093 31.3964 287.479 31.9178L283.983 34.7698L281.867 32.0558L290.745 25.1558H294.103V57.9998Z" fill="#555555"/>
<path d="M263.558 41.5319C263.558 44.1999 263.359 46.5766 262.96 48.6619C262.561 50.7472 261.917 52.5259 261.028 53.9979C260.169 55.4392 259.035 56.5432 257.624 57.3099C256.244 58.0766 254.573 58.4599 252.61 58.4599C250.157 58.4599 248.117 57.7852 246.492 56.4359C244.897 55.0866 243.701 53.1546 242.904 50.6399C242.137 48.0946 241.754 45.0586 241.754 41.5319C241.754 37.9746 242.107 34.9386 242.812 32.4239C243.548 29.9092 244.713 27.9926 246.308 26.6739C247.903 25.3246 250.003 24.6499 252.61 24.6499C255.063 24.6499 257.103 25.3246 258.728 26.6739C260.353 27.9926 261.565 29.9092 262.362 32.4239C263.159 34.9386 263.558 37.9746 263.558 41.5319ZM245.802 41.5319C245.802 44.5372 246.017 47.0366 246.446 49.0299C246.906 51.0232 247.627 52.5259 248.608 53.5379C249.62 54.5192 250.954 55.0099 252.61 55.0099C254.266 55.0099 255.585 54.5192 256.566 53.5379C257.578 52.5566 258.314 51.0692 258.774 49.0759C259.234 47.0519 259.464 44.5372 259.464 41.5319C259.464 38.5266 259.234 36.0426 258.774 34.0799C258.314 32.0866 257.578 30.5992 256.566 29.6179C255.585 28.6059 254.266 28.0999 252.61 28.0999C250.954 28.0999 249.62 28.6059 248.608 29.6179C247.627 30.5992 246.906 32.0866 246.446 34.0799C246.017 36.0426 245.802 38.5266 245.802 41.5319Z" fill="#555555"/>
<path d="M229.506 57.9998H225.55V35.0458C225.55 34.1564 225.55 33.4051 225.55 32.7918C225.58 32.1784 225.611 31.6111 225.642 31.0898C225.672 30.5378 225.703 29.9704 225.734 29.3878C225.243 29.8784 224.798 30.2924 224.4 30.6298C224.001 30.9671 223.495 31.3964 222.882 31.9178L219.386 34.7698L217.27 32.0558L226.148 25.1558H229.506V57.9998Z" fill="#555555"/>
<path d="M212.713 25.1558L200.477 57.9998H196.521L208.757 25.1558H212.713Z" fill="#555555"/>
<path d="M193.794 41.5319C193.794 44.1999 193.595 46.5766 193.196 48.6619C192.798 50.7472 192.154 52.5259 191.264 53.9979C190.406 55.4392 189.271 56.5432 187.86 57.3099C186.48 58.0766 184.809 58.4599 182.846 58.4599C180.393 58.4599 178.354 57.7852 176.728 56.4359C175.134 55.0866 173.938 53.1546 173.14 50.6399C172.374 48.0946 171.99 45.0586 171.99 41.5319C171.99 37.9746 172.343 34.9386 173.048 32.4239C173.784 29.9092 174.95 27.9926 176.544 26.6739C178.139 25.3246 180.24 24.6499 182.846 24.6499C185.3 24.6499 187.339 25.3246 188.964 26.6739C190.59 27.9926 191.801 29.9092 192.598 32.4239C193.396 34.9386 193.794 37.9746 193.794 41.5319ZM176.038 41.5319C176.038 44.5372 176.253 47.0366 176.682 49.0299C177.142 51.0232 177.863 52.5259 178.844 53.5379C179.856 54.5192 181.19 55.0099 182.846 55.0099C184.502 55.0099 185.821 54.5192 186.802 53.5379C187.814 52.5566 188.55 51.0692 189.01 49.0759C189.47 47.0519 189.7 44.5372 189.7 41.5319C189.7 38.5266 189.47 36.0426 189.01 34.0799C188.55 32.0866 187.814 30.5992 186.802 29.6179C185.821 28.6059 184.502 28.0999 182.846 28.0999C181.19 28.0999 179.856 28.6059 178.844 29.6179C177.863 30.5992 177.142 32.0866 176.682 34.0799C176.253 36.0426 176.038 38.5266 176.038 41.5319Z" fill="#555555"/>
<path d="M159.742 57.9998H155.786V35.0458C155.786 34.1564 155.786 33.4051 155.786 32.7918C155.817 32.1784 155.847 31.6111 155.878 31.0898C155.909 30.5378 155.939 29.9704 155.97 29.3878C155.479 29.8784 155.035 30.2924 154.636 30.6298C154.237 30.9671 153.731 31.3964 153.118 31.9178L149.622 34.7698L147.506 32.0558L156.384 25.1558H159.742V57.9998Z" fill="#555555"/>
<path d="M142.949 25.1558L130.713 57.9998H126.757L138.993 25.1558H142.949Z" fill="#555555"/>
<path d="M112.623 37.8518C114.861 37.8518 116.809 38.2351 118.465 39.0018C120.121 39.7684 121.393 40.8724 122.283 42.3138C123.203 43.7244 123.663 45.4571 123.663 47.5118C123.663 49.7811 123.172 51.7438 122.191 53.3998C121.209 55.0251 119.799 56.2824 117.959 57.1718C116.149 58.0304 113.957 58.4598 111.381 58.4598C109.694 58.4598 108.099 58.3064 106.597 57.9998C105.125 57.6931 103.883 57.2484 102.871 56.6658V52.8478C103.975 53.5224 105.309 54.0591 106.873 54.4578C108.467 54.8258 109.985 55.0098 111.427 55.0098C113.052 55.0098 114.463 54.7644 115.659 54.2738C116.885 53.7524 117.836 52.9704 118.511 51.9278C119.185 50.8544 119.523 49.5204 119.523 47.9258C119.523 45.7791 118.863 44.1384 117.545 43.0038C116.226 41.8384 114.141 41.2558 111.289 41.2558C110.43 41.2558 109.449 41.3324 108.345 41.4858C107.241 41.6391 106.351 41.7924 105.677 41.9458L103.653 40.6578L104.895 25.1558H121.363V28.8358H108.345L107.563 38.3578C108.084 38.2658 108.789 38.1584 109.679 38.0358C110.568 37.9131 111.549 37.8518 112.623 37.8518Z" fill="#555555"/>
<path d="M97.5684 57.9998H75.8564V54.6418L84.4584 45.9478C86.1144 44.2918 87.5098 42.8198 88.6444 41.5318C89.7791 40.2438 90.6378 38.9865 91.2204 37.7598C91.8031 36.5025 92.0944 35.1378 92.0944 33.6658C92.0944 31.8565 91.5578 30.4918 90.4844 29.5718C89.4111 28.6211 88.0158 28.1458 86.2984 28.1458C84.7038 28.1458 83.2931 28.4218 82.0664 28.9738C80.8704 29.5258 79.6438 30.2925 78.3864 31.2738L76.2244 28.5598C77.0831 27.8238 78.0184 27.1645 79.0304 26.5818C80.0731 25.9991 81.1924 25.5391 82.3884 25.2018C83.6151 24.8645 84.9184 24.6958 86.2984 24.6958C88.3531 24.6958 90.1164 25.0485 91.5884 25.7538C93.0604 26.4591 94.1951 27.4711 94.9924 28.7898C95.8204 30.0778 96.2344 31.6265 96.2344 33.4358C96.2344 34.7238 96.0351 35.9505 95.6364 37.1158C95.2378 38.2505 94.6704 39.3698 93.9344 40.4738C93.1984 41.5778 92.3091 42.6971 91.2664 43.8318C90.2238 44.9665 89.0738 46.1471 87.8164 47.3738L80.9624 54.1358V54.3198H97.5684V57.9998Z" fill="#555555"/>
<path d="M71.3821 41.5319C71.3821 44.1999 71.1828 46.5766 70.7841 48.6619C70.3855 50.7472 69.7415 52.5259 68.8521 53.9979C67.9935 55.4392 66.8588 56.5432 65.4481 57.3099C64.0681 58.0766 62.3968 58.4599 60.4341 58.4599C57.9808 58.4599 55.9415 57.7852 54.3161 56.4359C52.7215 55.0866 51.5255 53.1546 50.7281 50.6399C49.9615 48.0946 49.5781 45.0586 49.5781 41.5319C49.5781 37.9746 49.9308 34.9386 50.6361 32.4239C51.3721 29.9092 52.5375 27.9926 54.1321 26.6739C55.7268 25.3246 57.8275 24.6499 60.4341 24.6499C62.8875 24.6499 64.9268 25.3246 66.5521 26.6739C68.1775 27.9926 69.3888 29.9092 70.1861 32.4239C70.9835 34.9386 71.3821 37.9746 71.3821 41.5319ZM53.6261 41.5319C53.6261 44.5372 53.8408 47.0366 54.2701 49.0299C54.7301 51.0232 55.4508 52.5259 56.4321 53.5379C57.4441 54.5192 58.7781 55.0099 60.4341 55.0099C62.0901 55.0099 63.4088 54.5192 64.3901 53.5379C65.4021 52.5566 66.1381 51.0692 66.5981 49.0759C67.0581 47.0519 67.2881 44.5372 67.2881 41.5319C67.2881 38.5266 67.0581 36.0426 66.5981 34.0799C66.1381 32.0866 65.4021 30.5992 64.3901 29.6179C63.4088 28.6059 62.0901 28.0999 60.4341 28.0999C58.7781 28.0999 57.4441 28.6059 56.4321 29.6179C55.4508 30.5992 54.7301 32.0866 54.2701 34.0799C53.8408 36.0426 53.6261 38.5266 53.6261 41.5319Z" fill="#555555"/>
<path d="M44.92 57.9998H23.208V54.6418L31.81 45.9478C33.466 44.2918 34.8613 42.8198 35.996 41.5318C37.1307 40.2438 37.9893 38.9865 38.572 37.7598C39.1547 36.5025 39.446 35.1378 39.446 33.6658C39.446 31.8565 38.9093 30.4918 37.836 29.5718C36.7627 28.6211 35.3673 28.1458 33.65 28.1458C32.0553 28.1458 30.6447 28.4218 29.418 28.9738C28.222 29.5258 26.9953 30.2925 25.738 31.2738L23.576 28.5598C24.4347 27.8238 25.37 27.1645 26.382 26.5818C27.4247 25.9991 28.544 25.5391 29.74 25.2018C30.9667 24.8645 32.27 24.6958 33.65 24.6958C35.7047 24.6958 37.468 25.0485 38.94 25.7538C40.412 26.4591 41.5467 27.4711 42.344 28.7898C43.172 30.0778 43.586 31.6265 43.586 33.4358C43.586 34.7238 43.3867 35.9505 42.988 37.1158C42.5893 38.2505 42.022 39.3698 41.286 40.4738C40.55 41.5778 39.6607 42.6971 38.618 43.8318C37.5753 44.9665 36.4253 46.1471 35.168 47.3738L28.314 54.1358V54.3198H44.92V57.9998Z" fill="#555555"/>
</svg>
