<svg width="580" height="287" viewBox="0 0 580 287" fill="none" xmlns="http://www.w3.org/2000/svg">
<path d="M0 16C0 7.16344 7.16344 0 16 0H564C572.837 0 580 7.16344 580 16V232C580 240.837 572.837 248 564 248H16C7.16345 248 0 240.837 0 232V16Z" fill="white"/>
<path d="M79.9 261.8V259.1H77.2001V256.4H79.9V253.7H82.6V256.4H85.3001V259.1H82.6V261.8H79.9ZM68.2 277.1C70 277.1 71.5 276.488 72.7001 275.263C73.9 274.038 74.5 272.55 74.5 270.8C74.5 269.075 73.9 267.594 72.7001 266.356C71.5 265.119 70 264.5 68.2 264.5C66.4 264.5 64.9 265.119 63.7 266.356C62.5 267.594 61.9 269.081 61.9 270.819C61.9 272.556 62.5 274.038 63.7 275.263C64.9 276.488 66.4 277.1 68.2 277.1ZM68.2 274.4C67.15 274.4 66.2875 274.063 65.6125 273.388C64.9375 272.713 64.6 271.869 64.6 270.856C64.6 269.844 64.9375 268.981 65.6125 268.269C66.2875 267.556 67.15 267.2 68.2 267.2C69.25 267.2 70.1125 267.556 70.7875 268.269C71.4625 268.981 71.8 269.844 71.8 270.856C71.8 271.869 71.4625 272.713 70.7875 273.388C70.1125 274.063 69.25 274.4 68.2 274.4ZM56.5 281.6C55.775 281.6 55.1438 281.331 54.6063 280.794C54.0688 280.256 53.8 279.625 53.8 278.9V262.7C53.8 261.975 54.0688 261.344 54.6063 260.806C55.1438 260.269 55.775 260 56.5 260H61L63.7 256.4H74.5V261.8H77.2001V264.5H82.6V278.9C82.6 279.625 82.3357 280.256 81.8069 280.794C81.2782 281.331 80.6425 281.6 79.9 281.6H56.5Z" fill="#555555"/>
<path d="M17.0999 281.6C16.3574 281.6 15.7218 281.331 15.193 280.794C14.6643 280.256 14.3999 279.625 14.3999 278.9V259.1C14.3999 258.375 14.6643 257.744 15.193 257.206C15.7218 256.669 16.3574 256.4 17.0999 256.4H36.8999C37.6424 256.4 38.278 256.669 38.8068 257.206C39.3355 257.744 39.5999 258.375 39.5999 259.1V278.9C39.5999 279.625 39.3355 280.256 38.8068 280.794C38.278 281.331 37.6424 281.6 36.8999 281.6H17.0999ZM18.8999 276.2H35.0999L29.6999 269L25.6499 274.4L22.9499 270.8L18.8999 276.2ZM21.5999 265.4C22.0999 265.4 22.5249 265.225 22.8749 264.875C23.2249 264.525 23.3999 264.1 23.3999 263.6C23.3999 263.1 23.2249 262.675 22.8749 262.325C22.5249 261.975 22.0999 261.8 21.5999 261.8C21.0999 261.8 20.6749 261.975 20.3249 262.325C19.9749 262.675 19.7999 263.1 19.7999 263.6C19.7999 264.1 19.9749 264.525 20.3249 264.875C20.6749 265.225 21.0999 265.4 21.5999 265.4Z" fill="#555555"/>
<path d="M564 244V248H16V244H564ZM576 232V16C576 9.37259 570.627 4 564 4H16C9.37258 4 4 9.37258 4 16V232C4 238.627 9.37259 244 16 244V248L15.5869 247.995C7.07854 247.779 0.220505 240.921 0.00488281 232.413L0 232V16C0 7.30155 6.94127 0.22398 15.5869 0.00488281L16 0H564L564.413 0.00488281C573.059 0.223985 580 7.30156 580 16V232L579.995 232.413C579.779 240.921 572.921 247.779 564.413 247.995L564 248V244C570.627 244 576 238.627 576 232Z" fill="#CECECE"/>
<path d="M189.705 32.8242C190.841 32.8242 191.817 33.0642 192.633 33.5442C193.449 34.0082 194.073 34.6802 194.505 35.5602C194.953 36.4402 195.177 37.4802 195.177 38.6802V40.0722H186.489C186.521 41.4002 186.865 42.4162 187.521 43.1202C188.193 43.8242 189.129 44.1762 190.329 44.1762C191.161 44.1762 191.897 44.1042 192.537 43.9602C193.193 43.8002 193.865 43.5682 194.553 43.2642V45.3762C193.913 45.6642 193.257 45.8802 192.585 46.0242C191.929 46.1682 191.145 46.2402 190.233 46.2402C188.985 46.2402 187.881 45.9922 186.921 45.4962C185.961 45.0002 185.209 44.2642 184.665 43.2882C184.137 42.2962 183.873 41.0802 183.873 39.6402C183.873 38.1842 184.113 36.9522 184.593 35.9442C185.089 34.9362 185.769 34.1682 186.633 33.6402C187.513 33.0962 188.537 32.8242 189.705 32.8242ZM189.705 34.7922C188.793 34.7922 188.057 35.0882 187.497 35.6802C186.953 36.2722 186.633 37.1122 186.537 38.2002H192.633C192.633 37.5282 192.529 36.9362 192.321 36.4242C192.113 35.9122 191.793 35.5122 191.361 35.2242C190.929 34.9362 190.377 34.7922 189.705 34.7922Z" fill="#A8A8A8"/>
<path d="M174.198 32.8242C175.03 32.8242 175.782 32.9842 176.454 33.3042C177.126 33.6242 177.694 34.1122 178.158 34.7682H178.278L178.566 33.0642H180.63V46.1682C180.63 47.3842 180.414 48.4082 179.982 49.2402C179.55 50.0722 178.886 50.6962 177.99 51.1122C177.11 51.5442 175.998 51.7602 174.654 51.7602C173.726 51.7602 172.87 51.6962 172.086 51.5682C171.302 51.4402 170.582 51.2402 169.926 50.9682V48.7362C170.39 48.9602 170.878 49.1442 171.39 49.2882C171.902 49.4482 172.446 49.5602 173.022 49.6242C173.598 49.7042 174.19 49.7442 174.798 49.7442C175.854 49.7442 176.67 49.4402 177.246 48.8322C177.822 48.2402 178.11 47.4002 178.11 46.3122V45.8802C178.11 45.6722 178.118 45.4002 178.134 45.0642C178.15 44.7122 178.166 44.4562 178.182 44.2962H178.086C177.638 44.9682 177.086 45.4642 176.43 45.7842C175.79 46.0882 175.046 46.2402 174.198 46.2402C172.566 46.2402 171.286 45.6562 170.358 44.4882C169.446 43.3042 168.99 41.6642 168.99 39.5682C168.99 38.1602 169.198 36.9602 169.614 35.9682C170.03 34.9602 170.622 34.1842 171.39 33.6402C172.174 33.0962 173.11 32.8242 174.198 32.8242ZM174.726 34.9362C174.054 34.9362 173.486 35.1202 173.022 35.4882C172.558 35.8402 172.206 36.3602 171.966 37.0482C171.726 37.7362 171.606 38.5842 171.606 39.5922C171.606 41.0962 171.87 42.2402 172.398 43.0242C172.942 43.8082 173.734 44.2002 174.774 44.2002C175.382 44.2002 175.894 44.1202 176.31 43.9602C176.742 43.8002 177.094 43.5522 177.366 43.2162C177.654 42.8802 177.862 42.4562 177.99 41.9442C178.134 41.4162 178.206 40.7842 178.206 40.0482V39.5682C178.206 38.4642 178.078 37.5762 177.822 36.9042C177.582 36.2162 177.206 35.7202 176.694 35.4162C176.182 35.0962 175.526 34.9362 174.726 34.9362Z" fill="#A8A8A8"/>
<path d="M160.969 32.8242C162.601 32.8242 163.817 33.1842 164.617 33.9042C165.417 34.6082 165.817 35.7202 165.817 37.2402V46.0002H164.017L163.513 44.2002H163.417C163.049 44.6642 162.665 45.0482 162.265 45.3522C161.881 45.6562 161.433 45.8802 160.921 46.0242C160.425 46.1682 159.817 46.2402 159.097 46.2402C158.329 46.2402 157.633 46.1042 157.009 45.8322C156.401 45.5442 155.921 45.1122 155.569 44.5362C155.217 43.9442 155.041 43.2082 155.041 42.3282C155.041 41.0162 155.537 40.0162 156.529 39.3282C157.537 38.6402 159.065 38.2642 161.113 38.2002L163.321 38.1282V37.4082C163.321 36.4482 163.105 35.7762 162.673 35.3922C162.241 35.0082 161.633 34.8162 160.849 34.8162C160.177 34.8162 159.537 34.9122 158.929 35.1042C158.321 35.2962 157.745 35.5282 157.201 35.8002L156.385 33.9522C156.993 33.6322 157.689 33.3682 158.473 33.1602C159.273 32.9362 160.105 32.8242 160.969 32.8242ZM161.569 39.8322C160.097 39.8962 159.073 40.1442 158.497 40.5762C157.937 40.9922 157.657 41.5842 157.657 42.3522C157.657 43.0242 157.857 43.5122 158.257 43.8162C158.673 44.1202 159.193 44.2722 159.817 44.2722C160.825 44.2722 161.657 43.9922 162.313 43.4322C162.969 42.8722 163.297 42.0322 163.297 40.9122V39.7842L161.569 39.8322Z" fill="#A8A8A8"/>
<path d="M152.92 42.3522C152.92 43.2002 152.712 43.9122 152.296 44.4882C151.88 45.0642 151.28 45.5042 150.496 45.8082C149.712 46.0962 148.768 46.2402 147.664 46.2402C146.752 46.2402 145.968 46.1682 145.312 46.0242C144.672 45.8962 144.08 45.7042 143.536 45.4482V43.2162C144.112 43.4882 144.776 43.7362 145.528 43.9602C146.28 44.1682 147.016 44.2722 147.736 44.2722C148.696 44.2722 149.384 44.1202 149.8 43.8162C150.232 43.5122 150.448 43.1042 150.448 42.5922C150.448 42.3042 150.368 42.0482 150.208 41.8242C150.048 41.5842 149.744 41.3442 149.296 41.1042C148.864 40.8482 148.224 40.5602 147.376 40.2402C146.56 39.9042 145.864 39.5762 145.288 39.2562C144.712 38.9202 144.272 38.5282 143.968 38.0802C143.664 37.6162 143.512 37.0242 143.512 36.3042C143.512 35.1842 143.96 34.3282 144.856 33.7362C145.768 33.1282 146.968 32.8242 148.456 32.8242C149.24 32.8242 149.976 32.9042 150.664 33.0642C151.368 33.2082 152.048 33.4322 152.704 33.7362L151.864 35.6802C151.496 35.5042 151.112 35.3602 150.712 35.2482C150.328 35.1202 149.936 35.0162 149.536 34.9362C149.152 34.8562 148.752 34.8162 148.336 34.8162C147.568 34.8162 146.984 34.9362 146.584 35.1762C146.184 35.4162 145.984 35.7522 145.984 36.1842C145.984 36.4882 146.072 36.7522 146.248 36.9762C146.44 37.2002 146.768 37.4242 147.232 37.6482C147.696 37.8722 148.328 38.1442 149.128 38.4642C149.928 38.7682 150.608 39.0802 151.168 39.4002C151.744 39.7202 152.176 40.1122 152.464 40.5762C152.768 41.0402 152.92 41.6322 152.92 42.3522Z" fill="#A8A8A8"/>
<path d="M141.295 42.3522C141.295 43.2002 141.087 43.9122 140.671 44.4882C140.255 45.0642 139.655 45.5042 138.871 45.8082C138.087 46.0962 137.143 46.2402 136.039 46.2402C135.127 46.2402 134.343 46.1682 133.687 46.0242C133.047 45.8962 132.455 45.7042 131.911 45.4482V43.2162C132.487 43.4882 133.151 43.7362 133.903 43.9602C134.655 44.1682 135.391 44.2722 136.111 44.2722C137.071 44.2722 137.759 44.1202 138.175 43.8162C138.607 43.5122 138.823 43.1042 138.823 42.5922C138.823 42.3042 138.743 42.0482 138.583 41.8242C138.423 41.5842 138.119 41.3442 137.671 41.1042C137.239 40.8482 136.599 40.5602 135.751 40.2402C134.935 39.9042 134.239 39.5762 133.663 39.2562C133.087 38.9202 132.647 38.5282 132.343 38.0802C132.039 37.6162 131.887 37.0242 131.887 36.3042C131.887 35.1842 132.335 34.3282 133.231 33.7362C134.143 33.1282 135.343 32.8242 136.831 32.8242C137.615 32.8242 138.351 32.9042 139.039 33.0642C139.743 33.2082 140.423 33.4322 141.079 33.7362L140.239 35.6802C139.871 35.5042 139.487 35.3602 139.087 35.2482C138.703 35.1202 138.311 35.0162 137.911 34.9362C137.527 34.8562 137.127 34.8162 136.711 34.8162C135.943 34.8162 135.359 34.9362 134.959 35.1762C134.559 35.4162 134.359 35.7522 134.359 36.1842C134.359 36.4882 134.447 36.7522 134.623 36.9762C134.815 37.2002 135.143 37.4242 135.607 37.6482C136.071 37.8722 136.703 38.1442 137.503 38.4642C138.303 38.7682 138.983 39.0802 139.543 39.4002C140.119 39.7202 140.551 40.1122 140.839 40.5762C141.143 41.0402 141.295 41.6322 141.295 42.3522Z" fill="#A8A8A8"/>
<path d="M124.057 32.8242C125.193 32.8242 126.169 33.0642 126.985 33.5442C127.801 34.0082 128.425 34.6802 128.857 35.5602C129.305 36.4402 129.529 37.4802 129.529 38.6802V40.0722H120.841C120.873 41.4002 121.217 42.4162 121.873 43.1202C122.545 43.8242 123.481 44.1762 124.681 44.1762C125.513 44.1762 126.249 44.1042 126.889 43.9602C127.545 43.8002 128.217 43.5682 128.905 43.2642V45.3762C128.265 45.6642 127.609 45.8802 126.937 46.0242C126.281 46.1682 125.497 46.2402 124.585 46.2402C123.337 46.2402 122.233 45.9922 121.273 45.4962C120.313 45.0002 119.561 44.2642 119.017 43.2882C118.489 42.2962 118.225 41.0802 118.225 39.6402C118.225 38.1842 118.465 36.9522 118.945 35.9442C119.441 34.9362 120.121 34.1682 120.985 33.6402C121.865 33.0962 122.889 32.8242 124.057 32.8242ZM124.057 34.7922C123.145 34.7922 122.409 35.0882 121.849 35.6802C121.305 36.2722 120.985 37.1122 120.889 38.2002H126.985C126.985 37.5282 126.881 36.9362 126.673 36.4242C126.465 35.9122 126.145 35.5122 125.713 35.2242C125.281 34.9362 124.729 34.7922 124.057 34.7922Z" fill="#A8A8A8"/>
<path d="M104.689 45.9998L99.5053 31.4318H99.4093C99.4253 31.7518 99.4493 32.1838 99.4813 32.7278C99.5133 33.2718 99.5373 33.8558 99.5533 34.4798C99.5693 35.1038 99.5773 35.7198 99.5773 36.3278V45.9998H97.2253V28.8638H100.921L105.841 42.6158H105.937L111.001 28.8638H114.697V45.9998H112.177V36.1838C112.177 35.6238 112.185 35.0478 112.201 34.4558C112.233 33.8478 112.257 33.2798 112.273 32.7518C112.305 32.2238 112.329 31.7918 112.345 31.4558H112.249L106.921 45.9998H104.689Z" fill="#A8A8A8"/>
<path d="M82.0566 32.8242C83.1926 32.8242 84.1686 33.0642 84.9846 33.5442C85.8006 34.0082 86.4246 34.6802 86.8566 35.5602C87.3046 36.4402 87.5286 37.4802 87.5286 38.6802V40.0722H78.8406C78.8726 41.4002 79.2166 42.4162 79.8726 43.1202C80.5446 43.8242 81.4806 44.1762 82.6806 44.1762C83.5126 44.1762 84.2486 44.1042 84.8886 43.9602C85.5446 43.8002 86.2166 43.5682 86.9046 43.2642V45.3762C86.2646 45.6642 85.6086 45.8802 84.9366 46.0242C84.2806 46.1682 83.4966 46.2402 82.5846 46.2402C81.3366 46.2402 80.2326 45.9922 79.2726 45.4962C78.3126 45.0002 77.5606 44.2642 77.0166 43.2882C76.4886 42.2962 76.2246 41.0802 76.2246 39.6402C76.2246 38.1842 76.4646 36.9522 76.9446 35.9442C77.4406 34.9362 78.1206 34.1682 78.9846 33.6402C79.8646 33.0962 80.8886 32.8242 82.0566 32.8242ZM82.0566 34.7922C81.1446 34.7922 80.4086 35.0882 79.8486 35.6802C79.3046 36.2722 78.9846 37.1122 78.8886 38.2002H84.9846C84.9846 37.5282 84.8806 36.9362 84.6726 36.4242C84.4646 35.9122 84.1446 35.5122 83.7126 35.2242C83.2806 34.9362 82.7286 34.7922 82.0566 34.7922Z" fill="#A8A8A8"/>
<path d="M66.5258 46.2398C64.9738 46.2398 63.7178 45.6798 62.7578 44.5598C61.8138 43.4398 61.3418 41.7758 61.3418 39.5678C61.3418 37.3438 61.8218 35.6638 62.7818 34.5278C63.7418 33.3918 65.0058 32.8238 66.5738 32.8238C67.2298 32.8238 67.7978 32.9118 68.2778 33.0878C68.7738 33.2478 69.1978 33.4718 69.5498 33.7598C69.9178 34.0478 70.2298 34.3678 70.4858 34.7198H70.6298C70.5978 34.4958 70.5578 34.1758 70.5098 33.7598C70.4618 33.3278 70.4378 32.9438 70.4378 32.6078V27.7598H72.9818V45.9998H70.9898L70.5578 44.2718H70.4378C70.1978 44.6398 69.8938 44.9758 69.5258 45.2798C69.1738 45.5678 68.7498 45.7998 68.2538 45.9758C67.7578 46.1518 67.1818 46.2398 66.5258 46.2398ZM67.1258 44.1518C68.3738 44.1518 69.2538 43.8078 69.7658 43.1198C70.2778 42.4158 70.5338 41.3678 70.5338 39.9758V39.5918C70.5338 38.0718 70.2858 36.9118 69.7898 36.1118C69.3098 35.3118 68.4138 34.9118 67.1018 34.9118C66.0618 34.9118 65.2778 35.3358 64.7498 36.1838C64.2218 37.0158 63.9578 38.1598 63.9578 39.6158C63.9578 41.0718 64.2218 42.1918 64.7498 42.9758C65.2778 43.7598 66.0698 44.1518 67.1258 44.1518Z" fill="#A8A8A8"/>
<path d="M58.0907 33.064V46H55.5467V33.064H58.0907ZM56.8427 28.144C57.2267 28.144 57.5627 28.256 57.8507 28.48C58.1387 28.704 58.2827 29.08 58.2827 29.608C58.2827 30.12 58.1387 30.496 57.8507 30.736C57.5627 30.96 57.2267 31.072 56.8427 31.072C56.4267 31.072 56.0747 30.96 55.7867 30.736C55.5147 30.496 55.3787 30.12 55.3787 29.608C55.3787 29.08 55.5147 28.704 55.7867 28.48C56.0747 28.256 56.4267 28.144 56.8427 28.144Z" fill="#A8A8A8"/>
<path d="M51.5656 33.064V46H49.5256L49.1656 44.296H49.0456C48.7736 44.744 48.4216 45.112 47.9896 45.4C47.5576 45.688 47.0856 45.896 46.5736 46.024C46.0616 46.168 45.5336 46.24 44.9896 46.24C43.9816 46.24 43.1256 46.08 42.4216 45.76C41.7336 45.424 41.2056 44.912 40.8376 44.224C40.4856 43.52 40.3096 42.624 40.3096 41.536V33.064H42.8776V41.152C42.8776 42.16 43.0856 42.912 43.5016 43.408C43.9336 43.904 44.5976 44.152 45.4936 44.152C46.3896 44.152 47.0936 43.976 47.6056 43.624C48.1176 43.272 48.4776 42.76 48.6856 42.088C48.9096 41.4 49.0216 40.576 49.0216 39.616V33.064H51.5656Z" fill="#A8A8A8"/>
<path d="M30.4319 36.784H36.6239V45.328C35.7119 45.632 34.7759 45.856 33.8159 46C32.8719 46.16 31.7919 46.24 30.5759 46.24C28.8319 46.24 27.3519 45.888 26.1359 45.184C24.9359 44.48 24.0159 43.472 23.3759 42.16C22.7519 40.848 22.4399 39.272 22.4399 37.432C22.4399 35.64 22.7919 34.088 23.4959 32.776C24.1999 31.464 25.2079 30.448 26.5199 29.728C27.8479 28.992 29.4559 28.624 31.3439 28.624C32.2879 28.624 33.1919 28.72 34.0559 28.912C34.9199 29.088 35.7199 29.336 36.4559 29.656L35.5199 31.816C34.9279 31.544 34.2639 31.32 33.5279 31.144C32.8079 30.952 32.0479 30.856 31.2479 30.856C29.9839 30.856 28.8879 31.128 27.9599 31.672C27.0479 32.2 26.3439 32.96 25.8479 33.952C25.3679 34.928 25.1279 36.096 25.1279 37.456C25.1279 38.736 25.3279 39.872 25.7279 40.864C26.1279 41.856 26.7599 42.632 27.6239 43.192C28.4879 43.752 29.6159 44.032 31.0079 44.032C31.4719 44.032 31.8799 44.016 32.2319 43.984C32.5839 43.936 32.9039 43.888 33.1919 43.84C33.4959 43.776 33.7839 43.72 34.0559 43.672V39.016H30.4319V36.784Z" fill="#A8A8A8"/>
<path d="M533 39V33.3333L550.6 15.7667C550.867 15.5222 551.161 15.3333 551.483 15.2C551.806 15.0667 552.144 15 552.5 15C552.856 15 553.2 15.0667 553.533 15.2C553.867 15.3333 554.156 15.5333 554.4 15.8L556.233 17.6667C556.5 17.9111 556.694 18.2 556.817 18.5333C556.939 18.8667 557 19.2 557 19.5333C557 19.8889 556.939 20.2278 556.817 20.55C556.694 20.8722 556.5 21.1667 556.233 21.4333L538.667 39H533ZM552.467 21.4L554.333 19.5333L552.467 17.6667L550.6 19.5333L552.467 21.4Z" fill="#555555"/>
</svg>
