<svg width="546" height="80" viewBox="0 0 546 80" fill="none" xmlns="http://www.w3.org/2000/svg">
<path d="M0 16C0 7.16344 7.16344 0 16 0H493C501.837 0 509 7.16344 509 16V64C509 72.8366 501.837 80 493 80H16C7.16344 80 0 72.8366 0 64V16Z" fill="white"/>
<path d="M493 76V80H16V76H493ZM505 64V16C505 9.37258 499.627 4 493 4H16C9.37258 4 4 9.37258 4 16V64C4 70.6274 9.37258 76 16 76V80L15.5869 79.9951C7.07854 79.7795 0.220502 72.9215 0.00488281 64.4131L0 64V16C0 7.16344 7.16344 3.10049e-07 16 0H493C501.837 0 509 7.16344 509 16V64C509 72.6984 502.059 79.776 493.413 79.9951L493 80V76C499.627 76 505 70.6274 505 64Z" fill="#CECECE"/>
<path d="M458.016 42.5L458.016 37.5L505.661 37.5L505.661 42.5L458.016 42.5Z" fill="#CECECE"/>
<path d="M458 80L453 80L453 -1.97303e-07L458 0L458 80Z" fill="#CECECE"/>
<path d="M471.398 23.8164L481.398 13.8164L491.398 23.8164H471.398Z" fill="#5F6368"/>
<path d="M491.766 56.1836L481.766 66.1836L471.766 56.1836L491.766 56.1836Z" fill="#5F6368"/>
<path d="M74.3821 40.5319C74.3821 43.1999 74.1828 45.5766 73.7841 47.6619C73.3855 49.7472 72.7415 51.5259 71.8521 52.9979C70.9935 54.4392 69.8588 55.5432 68.4481 56.3099C67.0681 57.0766 65.3968 57.4599 63.4341 57.4599C60.9808 57.4599 58.9415 56.7852 57.3161 55.4359C55.7215 54.0866 54.5255 52.1546 53.7281 49.6399C52.9615 47.0946 52.5781 44.0586 52.5781 40.5319C52.5781 36.9746 52.9308 33.9386 53.6361 31.4239C54.3721 28.9092 55.5375 26.9926 57.1321 25.6739C58.7268 24.3246 60.8275 23.6499 63.4341 23.6499C65.8875 23.6499 67.9268 24.3246 69.5521 25.6739C71.1775 26.9926 72.3888 28.9092 73.1861 31.4239C73.9835 33.9386 74.3821 36.9746 74.3821 40.5319ZM56.6261 40.5319C56.6261 43.5372 56.8408 46.0366 57.2701 48.0299C57.7301 50.0232 58.4508 51.5259 59.4321 52.5379C60.4441 53.5192 61.7781 54.0099 63.4341 54.0099C65.0901 54.0099 66.4088 53.5192 67.3901 52.5379C68.4021 51.5566 69.1381 50.0692 69.5981 48.0759C70.0581 46.0519 70.2881 43.5372 70.2881 40.5319C70.2881 37.5266 70.0581 35.0426 69.5981 33.0799C69.1381 31.0866 68.4021 29.5992 67.3901 28.6179C66.4088 27.6059 65.0901 27.0999 63.4341 27.0999C61.7781 27.0999 60.4441 27.6059 59.4321 28.6179C58.4508 29.5992 57.7301 31.0866 57.2701 33.0799C56.8408 35.0426 56.6261 37.5266 56.6261 40.5319Z" fill="#555555"/>
<path d="M47.92 56.9998H26.208V53.6418L34.81 44.9478C36.466 43.2918 37.8613 41.8198 38.996 40.5318C40.1307 39.2438 40.9893 37.9865 41.572 36.7598C42.1547 35.5025 42.446 34.1378 42.446 32.6658C42.446 30.8565 41.9093 29.4918 40.836 28.5718C39.7627 27.6211 38.3673 27.1458 36.65 27.1458C35.0553 27.1458 33.6447 27.4218 32.418 27.9738C31.222 28.5258 29.9953 29.2925 28.738 30.2738L26.576 27.5598C27.4347 26.8238 28.37 26.1645 29.382 25.5818C30.4247 24.9991 31.544 24.5391 32.74 24.2018C33.9667 23.8645 35.27 23.6958 36.65 23.6958C38.7047 23.6958 40.468 24.0485 41.94 24.7538C43.412 25.4591 44.5467 26.4711 45.344 27.7898C46.172 29.0778 46.586 30.6265 46.586 32.4358C46.586 33.7238 46.3867 34.9505 45.988 36.1158C45.5893 37.2505 45.022 38.3698 44.286 39.4738C43.55 40.5778 42.6607 41.6971 41.618 42.8318C40.5753 43.9665 39.4253 45.1471 38.168 46.3738L31.314 53.1358V53.3198H47.92V56.9998Z" fill="#555555"/>
<path d="M528.958 32.298C528.958 32.8807 528.927 33.4787 528.866 34.092C528.835 34.7054 528.789 35.2574 528.728 35.748H529.004C529.525 34.8894 530.185 34.184 530.982 33.632C531.779 33.08 532.669 32.666 533.65 32.39C534.631 32.0834 535.643 31.93 536.686 31.93C538.679 31.93 540.335 32.252 541.654 32.896C543.003 33.5094 544.015 34.4754 544.69 35.794C545.365 37.1127 545.702 38.83 545.702 40.946V57H541.7V41.222C541.7 39.2287 541.255 37.7414 540.366 36.76C539.477 35.7787 538.081 35.288 536.18 35.288C534.34 35.288 532.899 35.6407 531.856 36.346C530.813 37.0207 530.062 38.0327 529.602 39.382C529.173 40.7007 528.958 42.326 528.958 44.258V57H524.91V22.04H528.958V32.298Z" fill="#555555"/>
</svg>
