<svg width="580" height="80" viewBox="0 0 580 80" fill="none" xmlns="http://www.w3.org/2000/svg">
<path d="M0 16C0 7.16344 7.16344 0 16 0H564C572.837 0 580 7.16344 580 16V64C580 72.8366 572.837 80 564 80H16C7.16345 80 0 72.8366 0 64V16Z" fill="#FF8C00"/>
<path d="M564 76V80H16V76H564ZM576 64V16C576 9.37259 570.627 4 564 4H16C9.37258 4 4 9.37258 4 16V64C4 70.6274 9.37258 76 16 76V80C7.30156 80 0.223981 73.0587 0.00488281 64.4131L0 64V16C0 7.30155 6.94127 0.22398 15.5869 0.00488281L16 0H564L564.413 0.00488281C573.059 0.223985 580 7.30156 580 16V64C580 72.8366 572.837 80 564 80V76C570.627 76 576 70.6274 576 64Z" fill="#CECECE"/>
<path d="M269.005 31.8838C271.949 31.8838 274.172 32.6045 275.675 34.0458C277.177 35.4565 277.929 37.7565 277.929 40.9458V56.9998H273.927V41.2218C273.927 39.2285 273.482 37.7411 272.593 36.7598C271.703 35.7785 270.308 35.2878 268.407 35.2878C265.677 35.2878 263.791 36.0545 262.749 37.5878C261.706 39.1211 261.185 41.3291 261.185 44.2118V56.9998H257.137V32.3438H260.403L261.001 35.7018H261.231C261.783 34.8431 262.457 34.1378 263.255 33.5858C264.083 33.0031 264.987 32.5738 265.969 32.2978C266.95 32.0218 267.962 31.8838 269.005 31.8838Z" fill="white"/>
<path d="M250.721 44.6258C250.721 46.6805 250.445 48.5051 249.893 50.0998C249.371 51.6638 248.605 52.9978 247.593 54.1018C246.611 55.2058 245.4 56.0491 243.959 56.6318C242.548 57.1838 240.969 57.4598 239.221 57.4598C237.595 57.4598 236.093 57.1838 234.713 56.6318C233.333 56.0491 232.137 55.2058 231.125 54.1018C230.113 52.9978 229.315 51.6638 228.733 50.0998C228.181 48.5051 227.905 46.6805 227.905 44.6258C227.905 41.8965 228.365 39.5965 229.285 37.7258C230.205 35.8245 231.523 34.3831 233.241 33.4018C234.958 32.3898 236.997 31.8838 239.359 31.8838C241.597 31.8838 243.56 32.3898 245.247 33.4018C246.964 34.3831 248.298 35.8245 249.249 37.7258C250.23 39.5965 250.721 41.8965 250.721 44.6258ZM232.091 44.6258C232.091 46.5578 232.336 48.2445 232.827 49.6858C233.348 51.0965 234.145 52.1851 235.219 52.9518C236.292 53.7185 237.657 54.1018 239.313 54.1018C240.969 54.1018 242.333 53.7185 243.407 52.9518C244.48 52.1851 245.262 51.0965 245.753 49.6858C246.274 48.2445 246.535 46.5578 246.535 44.6258C246.535 42.6631 246.274 40.9918 245.753 39.6118C245.231 38.2318 244.434 37.1738 243.361 36.4378C242.318 35.6711 240.953 35.2878 239.267 35.2878C236.752 35.2878 234.927 36.1158 233.793 37.7718C232.658 39.4278 232.091 41.7125 232.091 44.6258Z" fill="white"/>
<path d="M221.474 32.3441V57.0001H217.426V32.3441H221.474ZM219.496 23.0981C220.109 23.0981 220.646 23.3128 221.106 23.7421C221.596 24.1408 221.842 24.7848 221.842 25.6741C221.842 26.5328 221.596 27.1768 221.106 27.6061C220.646 28.0355 220.109 28.2501 219.496 28.2501C218.821 28.2501 218.254 28.0355 217.794 27.6061C217.334 27.1768 217.104 26.5328 217.104 25.6741C217.104 24.7848 217.334 24.1408 217.794 23.7421C218.254 23.3128 218.821 23.0981 219.496 23.0981Z" fill="white"/>
<path d="M209.038 54.148C209.652 54.148 210.28 54.102 210.924 54.01C211.568 53.8874 212.09 53.7647 212.488 53.642V56.724C212.059 56.9387 211.446 57.1074 210.648 57.23C209.851 57.3834 209.084 57.46 208.348 57.46C207.06 57.46 205.864 57.2454 204.76 56.816C203.687 56.356 202.813 55.574 202.138 54.47C201.464 53.366 201.126 51.8174 201.126 49.824V35.472H197.63V33.54L201.172 31.93L202.782 26.686H205.174V32.344H212.304V35.472H205.174V49.732C205.174 51.2347 205.527 52.354 206.232 53.09C206.968 53.7954 207.904 54.148 209.038 54.148Z" fill="white"/>
<path d="M184.358 31.9302C187.363 31.9302 189.586 32.5895 191.028 33.9082C192.469 35.2268 193.19 37.3275 193.19 40.2102V57.0002H190.246L189.464 53.5042H189.28C188.574 54.3935 187.838 55.1448 187.072 55.7582C186.336 56.3408 185.477 56.7702 184.496 57.0462C183.545 57.3222 182.38 57.4602 181 57.4602C179.528 57.4602 178.194 57.1995 176.998 56.6782C175.832 56.1568 174.912 55.3595 174.238 54.2862C173.563 53.1822 173.226 51.8022 173.226 50.1462C173.226 47.6928 174.192 45.8068 176.124 44.4882C178.056 43.1388 181.03 42.4028 185.048 42.2802L189.234 42.1422V40.6702C189.234 38.6155 188.789 37.1895 187.9 36.3922C187.01 35.5948 185.753 35.1962 184.128 35.1962C182.84 35.1962 181.613 35.3955 180.448 35.7942C179.282 36.1622 178.194 36.5915 177.182 37.0822L175.94 34.0462C177.013 33.4635 178.286 32.9728 179.758 32.5742C181.23 32.1448 182.763 31.9302 184.358 31.9302ZM185.554 45.0862C182.487 45.2088 180.356 45.6995 179.16 46.5582C177.994 47.4168 177.412 48.6282 177.412 50.1922C177.412 51.5722 177.826 52.5842 178.654 53.2282C179.512 53.8722 180.601 54.1942 181.92 54.1942C184.005 54.1942 185.738 53.6268 187.118 52.4922C188.498 51.3268 189.188 49.5482 189.188 47.1562V44.9482L185.554 45.0862Z" fill="white"/>
<path d="M168.416 31.8838C168.876 31.8838 169.367 31.9145 169.888 31.9758C170.44 32.0065 170.915 32.0678 171.314 32.1598L170.808 35.8858C170.409 35.7938 169.965 35.7171 169.474 35.6558C169.014 35.5945 168.569 35.5638 168.14 35.5638C167.189 35.5638 166.285 35.7631 165.426 36.1618C164.567 36.5605 163.801 37.1278 163.126 37.8638C162.451 38.5691 161.915 39.4278 161.516 40.4398C161.148 41.4518 160.964 42.5865 160.964 43.8438V56.9998H156.916V32.3438H160.228L160.688 36.8518H160.872C161.393 35.9318 162.022 35.1038 162.758 34.3678C163.494 33.6011 164.337 33.0031 165.288 32.5738C166.239 32.1138 167.281 31.8838 168.416 31.8838Z" fill="white"/>
<path d="M140.469 31.9302C143.474 31.9302 145.698 32.5895 147.139 33.9082C148.58 35.2268 149.301 37.3275 149.301 40.2102V57.0002H146.357L145.575 53.5042H145.391C144.686 54.3935 143.95 55.1448 143.183 55.7582C142.447 56.3408 141.588 56.7702 140.607 57.0462C139.656 57.3222 138.491 57.4602 137.111 57.4602C135.639 57.4602 134.305 57.1995 133.109 56.6782C131.944 56.1568 131.024 55.3595 130.349 54.2862C129.674 53.1822 129.337 51.8022 129.337 50.1462C129.337 47.6928 130.303 45.8068 132.235 44.4882C134.167 43.1388 137.142 42.4028 141.159 42.2802L145.345 42.1422V40.6702C145.345 38.6155 144.9 37.1895 144.011 36.3922C143.122 35.5948 141.864 35.1962 140.239 35.1962C138.951 35.1962 137.724 35.3955 136.559 35.7942C135.394 36.1622 134.305 36.5915 133.293 37.0822L132.051 34.0462C133.124 33.4635 134.397 32.9728 135.869 32.5742C137.341 32.1448 138.874 31.9302 140.469 31.9302ZM141.665 45.0862C138.598 45.2088 136.467 45.6995 135.271 46.5582C134.106 47.4168 133.523 48.6282 133.523 50.1922C133.523 51.5722 133.937 52.5842 134.765 53.2282C135.624 53.8722 136.712 54.1942 138.031 54.1942C140.116 54.1942 141.849 53.6268 143.229 52.4922C144.609 51.3268 145.299 49.5482 145.299 47.1562V44.9482L141.665 45.0862Z" fill="white"/>
<path d="M114.56 31.8838C117.596 31.8838 120.034 32.9418 121.874 35.0578C123.745 37.1738 124.68 40.3631 124.68 44.6258C124.68 47.4165 124.251 49.7778 123.392 51.7098C122.564 53.6111 121.383 55.0525 119.85 56.0338C118.347 56.9845 116.569 57.4598 114.514 57.4598C113.257 57.4598 112.137 57.2911 111.156 56.9538C110.175 56.6165 109.331 56.1871 108.626 55.6658C107.951 55.1138 107.369 54.5158 106.878 53.8718H106.602C106.663 54.3931 106.725 55.0525 106.786 55.8498C106.847 56.6471 106.878 57.3371 106.878 57.9198V68.0398H102.83V32.3438H106.142L106.694 35.7018H106.878C107.369 34.9965 107.951 34.3525 108.626 33.7698C109.331 33.1871 110.159 32.7271 111.11 32.3898C112.091 32.0525 113.241 31.8838 114.56 31.8838ZM113.824 35.2878C112.168 35.2878 110.834 35.6098 109.822 36.2538C108.81 36.8671 108.074 37.8025 107.614 39.0598C107.154 40.3171 106.909 41.9118 106.878 43.8438V44.6258C106.878 46.6498 107.093 48.3671 107.522 49.7778C107.951 51.1885 108.672 52.2618 109.684 52.9978C110.727 53.7338 112.137 54.1018 113.916 54.1018C115.419 54.1018 116.645 53.6878 117.596 52.8598C118.577 52.0318 119.298 50.9125 119.758 49.5018C120.249 48.0605 120.494 46.4198 120.494 44.5798C120.494 41.7585 119.942 39.5045 118.838 37.8178C117.765 36.1311 116.093 35.2878 113.824 35.2878Z" fill="white"/>
<path d="M86.3869 31.8838C88.5029 31.8838 90.3122 32.3438 91.8149 33.2638C93.3482 34.1838 94.5135 35.4871 95.3109 37.1738C96.1389 38.8298 96.5529 40.7771 96.5529 43.0158V45.4538H79.6709C79.7322 48.2445 80.4375 50.3758 81.7869 51.8478C83.1669 53.2891 85.0835 54.0098 87.5369 54.0098C89.1009 54.0098 90.4809 53.8718 91.6769 53.5958C92.9035 53.2891 94.1609 52.8598 95.4489 52.3078V55.8498C94.1915 56.4018 92.9495 56.8005 91.7229 57.0458C90.4962 57.3218 89.0395 57.4598 87.3529 57.4598C85.0222 57.4598 82.9522 56.9845 81.1429 56.0338C79.3642 55.0831 77.9689 53.6725 76.9569 51.8018C75.9755 49.9005 75.4849 47.5851 75.4849 44.8558C75.4849 42.1571 75.9295 39.8418 76.8189 37.9098C77.7389 35.9778 79.0115 34.4905 80.6369 33.4478C82.2929 32.4051 84.2095 31.8838 86.3869 31.8838ZM86.3409 35.1958C84.4089 35.1958 82.8755 35.8245 81.7409 37.0818C80.6369 38.3085 79.9775 40.0258 79.7629 42.2338H92.3209C92.3209 40.8231 92.1062 39.5965 91.6769 38.5538C91.2475 37.5111 90.5882 36.6985 89.6989 36.1158C88.8402 35.5025 87.7209 35.1958 86.3409 35.1958Z" fill="white"/>
<path d="M70.2617 31.8838C70.7217 31.8838 71.2124 31.9145 71.7337 31.9758C72.2857 32.0065 72.7611 32.0678 73.1597 32.1598L72.6537 35.8858C72.2551 35.7938 71.8104 35.7171 71.3197 35.6558C70.8597 35.5945 70.4151 35.5638 69.9857 35.5638C69.0351 35.5638 68.1304 35.7631 67.2717 36.1618C66.4131 36.5605 65.6464 37.1278 64.9717 37.8638C64.2971 38.5691 63.7604 39.4278 63.3617 40.4398C62.9937 41.4518 62.8097 42.5865 62.8097 43.8438V56.9998H58.7617V32.3438H62.0737L62.5337 36.8518H62.7177C63.2391 35.9318 63.8677 35.1038 64.6037 34.3678C65.3397 33.6011 66.1831 33.0031 67.1337 32.5738C68.0844 32.1138 69.1271 31.8838 70.2617 31.8838Z" fill="white"/>
<path d="M40.1559 24.1558C44.4492 24.1558 47.5772 24.9991 49.5399 26.6858C51.5026 28.3724 52.4839 30.7491 52.4839 33.8158C52.4839 35.1651 52.2539 36.4684 51.7939 37.7258C51.3646 38.9524 50.6439 40.0564 49.6319 41.0378C48.6199 42.0191 47.2706 42.8011 45.5839 43.3838C43.8972 43.9358 41.8272 44.2118 39.3739 44.2118H35.6019V56.9998H31.4619V24.1558H40.1559ZM39.7879 27.6978H35.6019V40.6698H38.9139C40.9992 40.6698 42.7319 40.4551 44.1119 40.0258C45.4919 39.5658 46.5192 38.8451 47.1939 37.8638C47.8686 36.8824 48.2059 35.5944 48.2059 33.9998C48.2059 31.8838 47.5312 30.3044 46.1819 29.2618C44.8326 28.2191 42.7012 27.6978 39.7879 27.6978Z" fill="white"/>
<path d="M540.388 47.9084L536.011 52.0123L520 36.9999L524.377 32.896L540.388 47.9084Z" fill="white"/>
<path d="M547.636 32.8963L552.013 37.0003L536.001 52.0126L531.625 47.9087L547.636 32.8963Z" fill="white"/>
</svg>
