<svg width="580" height="80" viewBox="0 0 580 80" fill="none" xmlns="http://www.w3.org/2000/svg">
<path d="M0 16C0 7.16344 7.16344 0 16 0H564C572.837 0 580 7.16344 580 16V64C580 72.8366 572.837 80 564 80H16C7.16345 80 0 72.8366 0 64V16Z" fill="#FFF9E3"/>
<path d="M564 76V80H16V76H564ZM576 64V16C576 9.37259 570.627 4 564 4H16C9.37258 4 4 9.37258 4 16V64C4 70.6274 9.37258 76 16 76V80C7.30156 80 0.223981 73.0587 0.00488281 64.4131L0 64V16C0 7.30155 6.94127 0.22398 15.5869 0.00488281L16 0H564L564.413 0.00488281C573.059 0.223985 580 7.30156 580 16V64C580 72.8366 572.837 80 564 80V76C570.627 76 576 70.6274 576 64Z" fill="#CECECE"/>
<path d="M285 64.0058L281 64.0002L281.067 16.0002L285.067 16.0059L285 64.0058Z" fill="#555555"/>
<path d="M263.219 31.8838C265.335 31.8838 267.144 32.3438 268.647 33.2638C270.18 34.1838 271.346 35.4871 272.143 37.1738C272.971 38.8298 273.385 40.7771 273.385 43.0158V45.4538H256.503C256.564 48.2445 257.27 50.3758 258.619 51.8478C259.999 53.2891 261.916 54.0098 264.369 54.0098C265.933 54.0098 267.313 53.8718 268.509 53.5958C269.736 53.2891 270.993 52.8598 272.281 52.3078V55.8498C271.024 56.4018 269.782 56.8005 268.555 57.0458C267.328 57.3218 265.872 57.4598 264.185 57.4598C261.854 57.4598 259.784 56.9845 257.975 56.0338C256.196 55.0831 254.801 53.6725 253.789 51.8018C252.808 49.9005 252.317 47.5851 252.317 44.8558C252.317 42.1571 252.762 39.8418 253.651 37.9098C254.571 35.9778 255.844 34.4905 257.469 33.4478C259.125 32.4051 261.042 31.8838 263.219 31.8838ZM263.173 35.1958C261.241 35.1958 259.708 35.8245 258.573 37.0818C257.469 38.3085 256.81 40.0258 256.595 42.2338H269.153C269.153 40.8231 268.938 39.5965 268.509 38.5538C268.08 37.5111 267.42 36.6985 266.531 36.1158C265.672 35.5025 264.553 35.1958 263.173 35.1958Z" fill="#555555"/>
<path d="M245.886 57H241.838V22.04H245.886V57Z" fill="#555555"/>
<path d="M233.45 54.148C234.064 54.148 234.692 54.102 235.336 54.01C235.98 53.8874 236.502 53.7647 236.9 53.642V56.724C236.471 56.9387 235.858 57.1074 235.06 57.23C234.263 57.3834 233.496 57.46 232.76 57.46C231.472 57.46 230.276 57.2454 229.172 56.816C228.099 56.356 227.225 55.574 226.55 54.47C225.876 53.366 225.538 51.8174 225.538 49.824V35.472H222.042V33.54L225.584 31.93L227.194 26.686H229.586V32.344H236.716V35.472H229.586V49.732C229.586 51.2347 229.939 52.354 230.644 53.09C231.38 53.7954 232.316 54.148 233.45 54.148Z" fill="#555555"/>
<path d="M217.405 32.3441V57.0001H213.357V32.3441H217.405ZM215.427 23.0981C216.04 23.0981 216.577 23.3128 217.037 23.7421C217.528 24.1408 217.773 24.7848 217.773 25.6741C217.773 26.5328 217.528 27.1768 217.037 27.6061C216.577 28.0355 216.04 28.2501 215.427 28.2501C214.752 28.2501 214.185 28.0355 213.725 27.6061C213.265 27.1768 213.035 26.5328 213.035 25.6741C213.035 24.7848 213.265 24.1408 213.725 23.7421C214.185 23.3128 214.752 23.0981 215.427 23.0981Z" fill="#555555"/>
<path d="M198.745 56.9998H194.605V27.7898H184.347V24.1558H208.957V27.7898H198.745V56.9998Z" fill="#555555"/>
<path d="M156.286 57.46C153.22 57.46 150.767 56.402 148.927 54.286C147.087 52.1394 146.167 48.95 146.167 44.718C146.167 40.486 147.087 37.2967 148.927 35.15C150.797 32.9727 153.266 31.884 156.333 31.884C157.621 31.884 158.74 32.0527 159.691 32.39C160.641 32.6967 161.469 33.126 162.174 33.678C162.88 34.23 163.478 34.8434 163.969 35.518H164.245C164.214 35.1194 164.153 34.5367 164.061 33.77C163.999 32.9727 163.969 32.344 163.969 31.884V22.04H168.017V57H164.751L164.153 53.688H163.969C163.478 54.3934 162.88 55.0374 162.174 55.62C161.469 56.172 160.626 56.6167 159.645 56.954C158.694 57.2914 157.574 57.46 156.286 57.46ZM156.931 54.102C159.537 54.102 161.362 53.3967 162.405 51.986C163.478 50.5447 164.015 48.3827 164.015 45.5V44.764C164.015 41.6974 163.509 39.3514 162.497 37.726C161.485 36.07 159.614 35.242 156.885 35.242C154.707 35.242 153.067 36.116 151.963 37.864C150.889 39.5814 150.353 41.8967 150.353 44.81C150.353 47.754 150.889 50.0387 151.963 51.664C153.067 53.2894 154.723 54.102 156.931 54.102Z" fill="#555555"/>
<path d="M140.943 31.8838C141.403 31.8838 141.894 31.9145 142.415 31.9758C142.967 32.0065 143.443 32.0678 143.841 32.1598L143.335 35.8858C142.937 35.7938 142.492 35.7171 142.001 35.6558C141.541 35.5945 141.097 35.5638 140.667 35.5638C139.717 35.5638 138.812 35.7631 137.953 36.1618C137.095 36.5605 136.328 37.1278 135.653 37.8638C134.979 38.5691 134.442 39.4278 134.043 40.4398C133.675 41.4518 133.491 42.5865 133.491 43.8438V56.9998H129.443V32.3438H132.755L133.215 36.8518H133.399C133.921 35.9318 134.549 35.1038 135.285 34.3678C136.021 33.6011 136.865 33.0031 137.815 32.5738C138.766 32.1138 139.809 31.8838 140.943 31.8838Z" fill="#555555"/>
<path d="M123.027 44.6258C123.027 46.6805 122.751 48.5051 122.199 50.0998C121.678 51.6638 120.911 52.9978 119.899 54.1018C118.918 55.2058 117.707 56.0491 116.265 56.6318C114.855 57.1838 113.275 57.4598 111.527 57.4598C109.902 57.4598 108.399 57.1838 107.019 56.6318C105.639 56.0491 104.443 55.2058 103.431 54.1018C102.419 52.9978 101.622 51.6638 101.039 50.0998C100.487 48.5051 100.211 46.6805 100.211 44.6258C100.211 41.8965 100.671 39.5965 101.591 37.7258C102.511 35.8245 103.83 34.3831 105.547 33.4018C107.265 32.3898 109.304 31.8838 111.665 31.8838C113.904 31.8838 115.867 32.3898 117.553 33.4018C119.271 34.3831 120.605 35.8245 121.555 37.7258C122.537 39.5965 123.027 41.8965 123.027 44.6258ZM104.397 44.6258C104.397 46.5578 104.643 48.2445 105.133 49.6858C105.655 51.0965 106.452 52.1851 107.525 52.9518C108.599 53.7185 109.963 54.1018 111.619 54.1018C113.275 54.1018 114.64 53.7185 115.713 52.9518C116.787 52.1851 117.569 51.0965 118.059 49.6858C118.581 48.2445 118.841 46.5578 118.841 44.6258C118.841 42.6631 118.581 40.9918 118.059 39.6118C117.538 38.2318 116.741 37.1738 115.667 36.4378C114.625 35.6711 113.26 35.2878 111.573 35.2878C109.059 35.2878 107.234 36.1158 106.099 37.7718C104.965 39.4278 104.397 41.7125 104.397 44.6258Z" fill="#555555"/>
<path d="M89.3799 57.4598C87.2025 57.4598 85.2552 57.0151 83.5379 56.1258C81.8512 55.2365 80.5172 53.8565 79.5359 51.9858C78.5852 50.1151 78.1099 47.7231 78.1099 44.8098C78.1099 41.7738 78.6159 39.3051 79.6279 37.4038C80.6399 35.5025 82.0045 34.1071 83.7219 33.2178C85.4699 32.3285 87.4479 31.8838 89.6559 31.8838C90.9132 31.8838 92.1245 32.0218 93.2899 32.2978C94.4552 32.5431 95.4059 32.8498 96.1419 33.2178L94.8999 36.5758C94.1639 36.2998 93.3052 36.0391 92.3239 35.7938C91.3425 35.5485 90.4225 35.4258 89.5639 35.4258C87.9079 35.4258 86.5432 35.7785 85.4699 36.4838C84.3965 37.1891 83.5992 38.2318 83.0779 39.6118C82.5565 40.9918 82.2959 42.7091 82.2959 44.7638C82.2959 46.7265 82.5565 48.3978 83.0779 49.7778C83.5992 51.1578 84.3812 52.2005 85.4239 52.9058C86.4665 53.6111 87.7699 53.9638 89.3339 53.9638C90.6832 53.9638 91.8639 53.8258 92.8759 53.5498C93.9185 53.2738 94.8692 52.9365 95.7279 52.5378V56.1258C94.8999 56.5551 93.9799 56.8771 92.9679 57.0918C91.9865 57.3371 90.7905 57.4598 89.3799 57.4598Z" fill="#555555"/>
<path d="M63.047 31.8838C65.163 31.8838 66.9724 32.3438 68.475 33.2638C70.0084 34.1838 71.1737 35.4871 71.971 37.1738C72.799 38.8298 73.213 40.7771 73.213 43.0158V45.4538H56.331C56.3924 48.2445 57.0977 50.3758 58.447 51.8478C59.827 53.2891 61.7437 54.0098 64.197 54.0098C65.761 54.0098 67.141 53.8718 68.337 53.5958C69.5637 53.2891 70.821 52.8598 72.109 52.3078V55.8498C70.8517 56.4018 69.6097 56.8005 68.383 57.0458C67.1564 57.3218 65.6997 57.4598 64.013 57.4598C61.6824 57.4598 59.6124 56.9845 57.803 56.0338C56.0244 55.0831 54.629 53.6725 53.617 51.8018C52.6357 49.9005 52.145 47.5851 52.145 44.8558C52.145 42.1571 52.5897 39.8418 53.479 37.9098C54.399 35.9778 55.6717 34.4905 57.297 33.4478C58.953 32.4051 60.8697 31.8838 63.047 31.8838ZM63.001 35.1958C61.069 35.1958 59.5357 35.8245 58.401 37.0818C57.297 38.3085 56.6377 40.0258 56.423 42.2338H68.981C68.981 40.8231 68.7664 39.5965 68.337 38.5538C67.9077 37.5111 67.2484 36.6985 66.359 36.1158C65.5004 35.5025 64.381 35.1958 63.001 35.1958Z" fill="#555555"/>
<path d="M34.5239 24.1558C37.2532 24.1558 39.4919 24.5084 41.2399 25.2138C43.0186 25.8884 44.3372 26.9158 45.1959 28.2958C46.0546 29.6758 46.4839 31.4084 46.4839 33.4938C46.4839 35.2418 46.1619 36.6984 45.5179 37.8638C44.8739 39.0291 44.0459 39.9644 43.0339 40.6698C42.0526 41.3444 41.0099 41.8811 39.9059 42.2798L48.9219 56.9998H44.0919L36.1339 43.4298H29.6019V56.9998H25.4619V24.1558H34.5239ZM34.2939 27.7438H29.6019V39.9338H34.5239C36.3026 39.9338 37.7592 39.7038 38.8939 39.2438C40.0286 38.7531 40.8566 38.0478 41.3779 37.1278C41.9299 36.2078 42.2059 35.0578 42.2059 33.6778C42.2059 32.2364 41.9146 31.0864 41.3319 30.2278C40.7799 29.3691 39.9212 28.7404 38.7559 28.3418C37.5906 27.9431 36.1032 27.7438 34.2939 27.7438Z" fill="#555555"/>
</svg>
