<svg width="580" height="285" viewBox="0 0 580 285" fill="none" xmlns="http://www.w3.org/2000/svg">
<path d="M17.6667 281C16.9333 281 16.3056 280.739 15.7833 280.217C15.2611 279.694 15 279.067 15 278.333V259.667C15 258.933 15.2611 258.306 15.7833 257.783C16.3056 257.261 16.9333 257 17.6667 257H36.3333C37.0667 257 37.6944 257.261 38.2167 257.783C38.7389 258.306 39 258.933 39 259.667V278.333C39 279.067 38.7389 279.694 38.2167 280.217C37.6944 280.739 37.0667 281 36.3333 281H17.6667ZM19 275.667H35L30 269L26 274.333L23 270.333L19 275.667Z" fill="#555555"/>
<path d="M0 16C0 7.16344 7.16344 0 16 0H564C572.837 0 580 7.16344 580 16V232C580 240.837 572.837 248 564 248H16C7.16345 248 0 240.837 0 232V16Z" fill="white"/>
<path d="M564 244V248H16V244H564ZM576 232V16C576 9.37259 570.627 4 564 4H16C9.37258 4 4 9.37258 4 16V232C4 238.627 9.37259 244 16 244V248L15.5869 247.995C7.07854 247.779 0.220505 240.921 0.00488281 232.413L0 232V16C0 7.30155 6.94127 0.22398 15.5869 0.00488281L16 0H564L564.413 0.00488281C573.059 0.223985 580 7.30156 580 16V232L579.995 232.413C579.779 240.921 572.921 247.779 564.413 247.995L564 248V244C570.627 244 576 238.627 576 232Z" fill="#CECECE"/>
<path d="M253.853 32.8242C254.989 32.8242 255.965 33.0642 256.781 33.5442C257.597 34.0082 258.221 34.6802 258.653 35.5602C259.101 36.4402 259.325 37.4802 259.325 38.6802V40.0722H250.637C250.669 41.4002 251.013 42.4162 251.669 43.1202C252.341 43.8242 253.277 44.1762 254.477 44.1762C255.309 44.1762 256.045 44.1042 256.685 43.9602C257.341 43.8002 258.013 43.5682 258.701 43.2642V45.3762C258.061 45.6642 257.405 45.8802 256.733 46.0242C256.077 46.1682 255.293 46.2402 254.381 46.2402C253.133 46.2402 252.029 45.9922 251.069 45.4962C250.109 45.0002 249.357 44.2642 248.813 43.2882C248.285 42.2962 248.021 41.0802 248.021 39.6402C248.021 38.1842 248.261 36.9522 248.741 35.9442C249.237 34.9362 249.917 34.1682 250.781 33.6402C251.661 33.0962 252.685 32.8242 253.853 32.8242ZM253.853 34.7922C252.941 34.7922 252.205 35.0882 251.645 35.6802C251.101 36.2722 250.781 37.1122 250.685 38.2002H256.781C256.781 37.5282 256.677 36.9362 256.469 36.4242C256.261 35.9122 255.941 35.5122 255.509 35.2242C255.077 34.9362 254.525 34.7922 253.853 34.7922Z" fill="#A8A8A8"/>
<path d="M238.347 32.8242C239.179 32.8242 239.931 32.9842 240.603 33.3042C241.275 33.6242 241.843 34.1122 242.307 34.7682H242.427L242.715 33.0642H244.779V46.1682C244.779 47.3842 244.563 48.4082 244.131 49.2402C243.699 50.0722 243.035 50.6962 242.139 51.1122C241.259 51.5442 240.147 51.7602 238.803 51.7602C237.875 51.7602 237.019 51.6962 236.235 51.5682C235.451 51.4402 234.731 51.2402 234.075 50.9682V48.7362C234.539 48.9602 235.027 49.1442 235.539 49.2882C236.051 49.4482 236.595 49.5602 237.171 49.6242C237.747 49.7042 238.339 49.7442 238.947 49.7442C240.003 49.7442 240.819 49.4402 241.395 48.8322C241.971 48.2402 242.259 47.4002 242.259 46.3122V45.8802C242.259 45.6722 242.267 45.4002 242.283 45.0642C242.299 44.7122 242.315 44.4562 242.331 44.2962H242.235C241.787 44.9682 241.235 45.4642 240.579 45.7842C239.939 46.0882 239.195 46.2402 238.347 46.2402C236.715 46.2402 235.435 45.6562 234.507 44.4882C233.595 43.3042 233.139 41.6642 233.139 39.5682C233.139 38.1602 233.347 36.9602 233.763 35.9682C234.179 34.9602 234.771 34.1842 235.539 33.6402C236.323 33.0962 237.259 32.8242 238.347 32.8242ZM238.875 34.9362C238.203 34.9362 237.635 35.1202 237.171 35.4882C236.707 35.8402 236.355 36.3602 236.115 37.0482C235.875 37.7362 235.755 38.5842 235.755 39.5922C235.755 41.0962 236.019 42.2402 236.547 43.0242C237.091 43.8082 237.883 44.2002 238.923 44.2002C239.531 44.2002 240.043 44.1202 240.459 43.9602C240.891 43.8002 241.243 43.5522 241.515 43.2162C241.803 42.8802 242.011 42.4562 242.139 41.9442C242.283 41.4162 242.355 40.7842 242.355 40.0482V39.5682C242.355 38.4642 242.227 37.5762 241.971 36.9042C241.731 36.2162 241.355 35.7202 240.843 35.4162C240.331 35.0962 239.675 34.9362 238.875 34.9362Z" fill="#A8A8A8"/>
<path d="M225.117 32.8242C226.749 32.8242 227.965 33.1842 228.765 33.9042C229.565 34.6082 229.965 35.7202 229.965 37.2402V46.0002H228.165L227.661 44.2002H227.565C227.197 44.6642 226.813 45.0482 226.413 45.3522C226.029 45.6562 225.581 45.8802 225.069 46.0242C224.573 46.1682 223.965 46.2402 223.245 46.2402C222.477 46.2402 221.781 46.1042 221.157 45.8322C220.549 45.5442 220.069 45.1122 219.717 44.5362C219.365 43.9442 219.189 43.2082 219.189 42.3282C219.189 41.0162 219.685 40.0162 220.677 39.3282C221.685 38.6402 223.213 38.2642 225.261 38.2002L227.469 38.1282V37.4082C227.469 36.4482 227.253 35.7762 226.821 35.3922C226.389 35.0082 225.781 34.8162 224.997 34.8162C224.325 34.8162 223.685 34.9122 223.077 35.1042C222.469 35.2962 221.893 35.5282 221.349 35.8002L220.533 33.9522C221.141 33.6322 221.837 33.3682 222.621 33.1602C223.421 32.9362 224.253 32.8242 225.117 32.8242ZM225.717 39.8322C224.245 39.8962 223.221 40.1442 222.645 40.5762C222.085 40.9922 221.805 41.5842 221.805 42.3522C221.805 43.0242 222.005 43.5122 222.405 43.8162C222.821 44.1202 223.341 44.2722 223.965 44.2722C224.973 44.2722 225.805 43.9922 226.461 43.4322C227.117 42.8722 227.445 42.0322 227.445 40.9122V39.7842L225.717 39.8322Z" fill="#A8A8A8"/>
<path d="M217.068 42.3522C217.068 43.2002 216.86 43.9122 216.444 44.4882C216.028 45.0642 215.428 45.5042 214.644 45.8082C213.86 46.0962 212.916 46.2402 211.812 46.2402C210.9 46.2402 210.116 46.1682 209.46 46.0242C208.82 45.8962 208.228 45.7042 207.684 45.4482V43.2162C208.26 43.4882 208.924 43.7362 209.676 43.9602C210.428 44.1682 211.164 44.2722 211.884 44.2722C212.844 44.2722 213.532 44.1202 213.948 43.8162C214.38 43.5122 214.596 43.1042 214.596 42.5922C214.596 42.3042 214.516 42.0482 214.356 41.8242C214.196 41.5842 213.892 41.3442 213.444 41.1042C213.012 40.8482 212.372 40.5602 211.524 40.2402C210.708 39.9042 210.012 39.5762 209.436 39.2562C208.86 38.9202 208.42 38.5282 208.116 38.0802C207.812 37.6162 207.66 37.0242 207.66 36.3042C207.66 35.1842 208.108 34.3282 209.004 33.7362C209.916 33.1282 211.116 32.8242 212.604 32.8242C213.388 32.8242 214.124 32.9042 214.812 33.0642C215.516 33.2082 216.196 33.4322 216.852 33.7362L216.012 35.6802C215.644 35.5042 215.26 35.3602 214.86 35.2482C214.476 35.1202 214.084 35.0162 213.684 34.9362C213.3 34.8562 212.9 34.8162 212.484 34.8162C211.716 34.8162 211.132 34.9362 210.732 35.1762C210.332 35.4162 210.132 35.7522 210.132 36.1842C210.132 36.4882 210.22 36.7522 210.396 36.9762C210.588 37.2002 210.916 37.4242 211.38 37.6482C211.844 37.8722 212.476 38.1442 213.276 38.4642C214.076 38.7682 214.756 39.0802 215.316 39.4002C215.892 39.7202 216.324 40.1122 216.612 40.5762C216.916 41.0402 217.068 41.6322 217.068 42.3522Z" fill="#A8A8A8"/>
<path d="M205.443 42.3522C205.443 43.2002 205.235 43.9122 204.819 44.4882C204.403 45.0642 203.803 45.5042 203.019 45.8082C202.235 46.0962 201.291 46.2402 200.187 46.2402C199.275 46.2402 198.491 46.1682 197.835 46.0242C197.195 45.8962 196.603 45.7042 196.059 45.4482V43.2162C196.635 43.4882 197.299 43.7362 198.051 43.9602C198.803 44.1682 199.539 44.2722 200.259 44.2722C201.219 44.2722 201.907 44.1202 202.323 43.8162C202.755 43.5122 202.971 43.1042 202.971 42.5922C202.971 42.3042 202.891 42.0482 202.731 41.8242C202.571 41.5842 202.267 41.3442 201.819 41.1042C201.387 40.8482 200.747 40.5602 199.899 40.2402C199.083 39.9042 198.387 39.5762 197.811 39.2562C197.235 38.9202 196.795 38.5282 196.491 38.0802C196.187 37.6162 196.035 37.0242 196.035 36.3042C196.035 35.1842 196.483 34.3282 197.379 33.7362C198.291 33.1282 199.491 32.8242 200.979 32.8242C201.763 32.8242 202.499 32.9042 203.187 33.0642C203.891 33.2082 204.571 33.4322 205.227 33.7362L204.387 35.6802C204.019 35.5042 203.635 35.3602 203.235 35.2482C202.851 35.1202 202.459 35.0162 202.059 34.9362C201.675 34.8562 201.275 34.8162 200.859 34.8162C200.091 34.8162 199.507 34.9362 199.107 35.1762C198.707 35.4162 198.507 35.7522 198.507 36.1842C198.507 36.4882 198.595 36.7522 198.771 36.9762C198.963 37.2002 199.291 37.4242 199.755 37.6482C200.219 37.8722 200.851 38.1442 201.651 38.4642C202.451 38.7682 203.131 39.0802 203.691 39.4002C204.267 39.7202 204.699 40.1122 204.987 40.5762C205.291 41.0402 205.443 41.6322 205.443 42.3522Z" fill="#A8A8A8"/>
<path d="M188.205 32.8242C189.341 32.8242 190.317 33.0642 191.133 33.5442C191.949 34.0082 192.573 34.6802 193.005 35.5602C193.453 36.4402 193.677 37.4802 193.677 38.6802V40.0722H184.989C185.021 41.4002 185.365 42.4162 186.021 43.1202C186.693 43.8242 187.629 44.1762 188.829 44.1762C189.661 44.1762 190.397 44.1042 191.037 43.9602C191.693 43.8002 192.365 43.5682 193.053 43.2642V45.3762C192.413 45.6642 191.757 45.8802 191.085 46.0242C190.429 46.1682 189.645 46.2402 188.733 46.2402C187.485 46.2402 186.381 45.9922 185.421 45.4962C184.461 45.0002 183.709 44.2642 183.165 43.2882C182.637 42.2962 182.373 41.0802 182.373 39.6402C182.373 38.1842 182.613 36.9522 183.093 35.9442C183.589 34.9362 184.269 34.1682 185.133 33.6402C186.013 33.0962 187.037 32.8242 188.205 32.8242ZM188.205 34.7922C187.293 34.7922 186.557 35.0882 185.997 35.6802C185.453 36.2722 185.133 37.1122 185.037 38.2002H191.133C191.133 37.5282 191.029 36.9362 190.821 36.4242C190.613 35.9122 190.293 35.5122 189.861 35.2242C189.429 34.9362 188.877 34.7922 188.205 34.7922Z" fill="#A8A8A8"/>
<path d="M168.838 45.9998L163.654 31.4318H163.558C163.574 31.7518 163.598 32.1838 163.63 32.7278C163.662 33.2718 163.686 33.8558 163.702 34.4798C163.718 35.1038 163.726 35.7198 163.726 36.3278V45.9998H161.374V28.8638H165.07L169.99 42.6158H170.086L175.15 28.8638H178.846V45.9998H176.326V36.1838C176.326 35.6238 176.334 35.0478 176.35 34.4558C176.382 33.8478 176.406 33.2798 176.422 32.7518C176.454 32.2238 176.478 31.7918 176.494 31.4558H176.398L171.07 45.9998H168.838Z" fill="#A8A8A8"/>
<path d="M146.205 32.8242C147.341 32.8242 148.317 33.0642 149.133 33.5442C149.949 34.0082 150.573 34.6802 151.005 35.5602C151.453 36.4402 151.677 37.4802 151.677 38.6802V40.0722H142.989C143.021 41.4002 143.365 42.4162 144.021 43.1202C144.693 43.8242 145.629 44.1762 146.829 44.1762C147.661 44.1762 148.397 44.1042 149.037 43.9602C149.693 43.8002 150.365 43.5682 151.053 43.2642V45.3762C150.413 45.6642 149.757 45.8802 149.085 46.0242C148.429 46.1682 147.645 46.2402 146.733 46.2402C145.485 46.2402 144.381 45.9922 143.421 45.4962C142.461 45.0002 141.709 44.2642 141.165 43.2882C140.637 42.2962 140.373 41.0802 140.373 39.6402C140.373 38.1842 140.613 36.9522 141.093 35.9442C141.589 34.9362 142.269 34.1682 143.133 33.6402C144.013 33.0962 145.037 32.8242 146.205 32.8242ZM146.205 34.7922C145.293 34.7922 144.557 35.0882 143.997 35.6802C143.453 36.2722 143.133 37.1122 143.037 38.2002H149.133C149.133 37.5282 149.029 36.9362 148.821 36.4242C148.613 35.9122 148.293 35.5122 147.861 35.2242C147.429 34.9362 146.877 34.7922 146.205 34.7922Z" fill="#A8A8A8"/>
<path d="M130.674 46.2398C129.122 46.2398 127.866 45.6798 126.906 44.5598C125.962 43.4398 125.49 41.7758 125.49 39.5678C125.49 37.3438 125.97 35.6638 126.93 34.5278C127.89 33.3918 129.154 32.8238 130.722 32.8238C131.378 32.8238 131.946 32.9118 132.426 33.0878C132.922 33.2478 133.346 33.4718 133.698 33.7598C134.066 34.0478 134.378 34.3678 134.634 34.7198H134.778C134.746 34.4958 134.706 34.1758 134.658 33.7598C134.61 33.3278 134.586 32.9438 134.586 32.6078V27.7598H137.13V45.9998H135.138L134.706 44.2718H134.586C134.346 44.6398 134.042 44.9758 133.674 45.2798C133.322 45.5678 132.898 45.7998 132.402 45.9758C131.906 46.1518 131.33 46.2398 130.674 46.2398ZM131.274 44.1518C132.522 44.1518 133.402 43.8078 133.914 43.1198C134.426 42.4158 134.682 41.3678 134.682 39.9758V39.5918C134.682 38.0718 134.434 36.9118 133.938 36.1118C133.458 35.3118 132.562 34.9118 131.25 34.9118C130.21 34.9118 129.426 35.3358 128.898 36.1838C128.37 37.0158 128.106 38.1598 128.106 39.6158C128.106 41.0718 128.37 42.1918 128.898 42.9758C129.426 43.7598 130.218 44.1518 131.274 44.1518Z" fill="#A8A8A8"/>
<path d="M122.239 33.064V46H119.695V33.064H122.239ZM120.991 28.144C121.375 28.144 121.711 28.256 121.999 28.48C122.287 28.704 122.431 29.08 122.431 29.608C122.431 30.12 122.287 30.496 121.999 30.736C121.711 30.96 121.375 31.072 120.991 31.072C120.575 31.072 120.223 30.96 119.935 30.736C119.663 30.496 119.527 30.12 119.527 29.608C119.527 29.08 119.663 28.704 119.935 28.48C120.223 28.256 120.575 28.144 120.991 28.144Z" fill="#A8A8A8"/>
<path d="M115.714 33.064V46H113.674L113.314 44.296H113.194C112.922 44.744 112.57 45.112 112.138 45.4C111.706 45.688 111.234 45.896 110.722 46.024C110.21 46.168 109.682 46.24 109.138 46.24C108.13 46.24 107.274 46.08 106.57 45.76C105.882 45.424 105.354 44.912 104.986 44.224C104.634 43.52 104.458 42.624 104.458 41.536V33.064H107.026V41.152C107.026 42.16 107.234 42.912 107.65 43.408C108.082 43.904 108.746 44.152 109.642 44.152C110.538 44.152 111.242 43.976 111.754 43.624C112.266 43.272 112.626 42.76 112.834 42.088C113.058 41.4 113.17 40.576 113.17 39.616V33.064H115.714Z" fill="#A8A8A8"/>
<path d="M94.5804 36.784H100.772V45.328C99.8604 45.632 98.9244 45.856 97.9644 46C97.0204 46.16 95.9404 46.24 94.7244 46.24C92.9804 46.24 91.5004 45.888 90.2844 45.184C89.0844 44.48 88.1644 43.472 87.5244 42.16C86.9004 40.848 86.5884 39.272 86.5884 37.432C86.5884 35.64 86.9404 34.088 87.6444 32.776C88.3484 31.464 89.3564 30.448 90.6684 29.728C91.9964 28.992 93.6044 28.624 95.4924 28.624C96.4364 28.624 97.3404 28.72 98.2044 28.912C99.0684 29.088 99.8684 29.336 100.604 29.656L99.6684 31.816C99.0764 31.544 98.4124 31.32 97.6764 31.144C96.9564 30.952 96.1964 30.856 95.3964 30.856C94.1324 30.856 93.0364 31.128 92.1084 31.672C91.1964 32.2 90.4924 32.96 89.9964 33.952C89.5164 34.928 89.2764 36.096 89.2764 37.456C89.2764 38.736 89.4764 39.872 89.8764 40.864C90.2764 41.856 90.9084 42.632 91.7724 43.192C92.6364 43.752 93.7644 44.032 95.1564 44.032C95.6204 44.032 96.0284 44.016 96.3804 43.984C96.7324 43.936 97.0524 43.888 97.3404 43.84C97.6444 43.776 97.9324 43.72 98.2044 43.672V39.016H94.5804V36.784Z" fill="#A8A8A8"/>
<path d="M66.2817 33.064H69.0177L71.7057 40.408C71.8497 40.776 71.9777 41.136 72.0897 41.488C72.2017 41.84 72.2977 42.192 72.3777 42.544C72.4737 42.88 72.5457 43.216 72.5937 43.552H72.6897C72.7697 43.136 72.8977 42.648 73.0737 42.088C73.2497 41.512 73.4337 40.944 73.6257 40.384L76.1697 33.064H78.9057L73.3617 47.752C73.0577 48.584 72.6817 49.296 72.2337 49.888C71.7857 50.496 71.2497 50.96 70.6257 51.28C70.0177 51.6 69.2977 51.76 68.4657 51.76C68.0657 51.76 67.7217 51.736 67.4337 51.688C67.1457 51.656 66.8977 51.616 66.6897 51.568V49.552C66.8657 49.584 67.0737 49.616 67.3137 49.648C67.5697 49.68 67.8337 49.696 68.1057 49.696C68.6017 49.696 69.0257 49.6 69.3777 49.408C69.7457 49.216 70.0497 48.944 70.2897 48.592C70.5457 48.24 70.7617 47.84 70.9377 47.392L71.4657 46L66.2817 33.064Z" fill="#A8A8A8"/>
<path d="M57.807 46.2398C56.255 46.2398 54.999 45.6798 54.039 44.5598C53.095 43.4398 52.623 41.7758 52.623 39.5678C52.623 37.3438 53.103 35.6638 54.063 34.5278C55.023 33.3918 56.287 32.8238 57.855 32.8238C58.511 32.8238 59.079 32.9118 59.559 33.0878C60.055 33.2478 60.479 33.4718 60.831 33.7598C61.199 34.0478 61.511 34.3678 61.767 34.7198H61.911C61.879 34.4958 61.839 34.1758 61.791 33.7598C61.743 33.3278 61.719 32.9438 61.719 32.6078V27.7598H64.263V45.9998H62.271L61.839 44.2718H61.719C61.479 44.6398 61.175 44.9758 60.807 45.2798C60.455 45.5678 60.031 45.7998 59.535 45.9758C59.039 46.1518 58.463 46.2398 57.807 46.2398ZM58.407 44.1518C59.655 44.1518 60.535 43.8078 61.047 43.1198C61.559 42.4158 61.8151 41.3678 61.8151 39.9758V39.5918C61.8151 38.0718 61.567 36.9118 61.071 36.1118C60.591 35.3118 59.695 34.9118 58.383 34.9118C57.343 34.9118 56.559 35.3358 56.031 36.1838C55.503 37.0158 55.239 38.1598 55.239 39.6158C55.239 41.0718 55.503 42.1918 56.031 42.9758C56.559 43.7598 57.351 44.1518 58.407 44.1518Z" fill="#A8A8A8"/>
<path d="M50.142 39.5202C50.142 40.5922 49.998 41.5442 49.71 42.3762C49.422 43.2082 49.014 43.9122 48.486 44.4882C47.958 45.0642 47.318 45.5042 46.566 45.8082C45.814 46.0962 44.966 46.2402 44.022 46.2402C43.158 46.2402 42.358 46.0962 41.622 45.8082C40.886 45.5042 40.246 45.0642 39.702 44.4882C39.174 43.9122 38.758 43.2082 38.454 42.3762C38.15 41.5442 37.998 40.5842 37.998 39.4962C37.998 38.0722 38.238 36.8642 38.718 35.8722C39.214 34.8802 39.918 34.1282 40.83 33.6162C41.758 33.0882 42.846 32.8242 44.094 32.8242C45.278 32.8242 46.318 33.0882 47.214 33.6162C48.126 34.1282 48.838 34.8802 49.35 35.8722C49.878 36.8642 50.142 38.0802 50.142 39.5202ZM40.614 39.5202C40.614 40.4802 40.734 41.3122 40.974 42.0162C41.214 42.7042 41.59 43.2322 42.102 43.6002C42.614 43.9682 43.27 44.1522 44.07 44.1522C44.87 44.1522 45.526 43.9682 46.038 43.6002C46.55 43.2322 46.926 42.7042 47.166 42.0162C47.406 41.3122 47.526 40.4802 47.526 39.5202C47.526 38.5282 47.398 37.6962 47.142 37.0242C46.902 36.3522 46.526 35.8402 46.014 35.4882C45.518 35.1202 44.862 34.9362 44.046 34.9362C42.846 34.9362 41.974 35.3362 41.43 36.1362C40.886 36.9362 40.614 38.0642 40.614 39.5202Z" fill="#A8A8A8"/>
<path d="M28.2958 28.8638C29.7518 28.8638 30.9678 28.9998 31.9438 29.2718C32.9358 29.5438 33.6798 29.9998 34.1758 30.6398C34.6878 31.2638 34.9438 32.0958 34.9438 33.1358C34.9438 33.8078 34.8238 34.4078 34.5838 34.9358C34.3438 35.4478 33.9918 35.8798 33.5278 36.2318C33.0798 36.5678 32.5198 36.7918 31.8478 36.9038V37.0238C32.5358 37.1358 33.1518 37.3438 33.6958 37.6478C34.2398 37.9358 34.6718 38.3598 34.9918 38.9198C35.3118 39.4798 35.4718 40.2078 35.4718 41.1038C35.4718 42.1438 35.2238 43.0318 34.7278 43.7678C34.2478 44.4878 33.5518 45.0398 32.6398 45.4238C31.7438 45.8078 30.6718 45.9998 29.4238 45.9998H23.2798V28.8638H28.2958ZM28.7278 36.0158C30.0718 36.0158 30.9918 35.7998 31.4878 35.3678C31.9998 34.9358 32.2558 34.2958 32.2558 33.4478C32.2558 32.5838 31.9518 31.9678 31.3438 31.5998C30.7358 31.2318 29.7678 31.0478 28.4398 31.0478H25.8718V36.0158H28.7278ZM25.8718 38.1278V43.8398H29.0158C30.4078 43.8398 31.3758 43.5678 31.9198 43.0238C32.4638 42.4798 32.7358 41.7598 32.7358 40.8638C32.7358 40.3198 32.6158 39.8398 32.3758 39.4238C32.1358 39.0078 31.7278 38.6878 31.1518 38.4638C30.5918 38.2398 29.8238 38.1278 28.8478 38.1278H25.8718Z" fill="#A8A8A8"/>
<path d="M533 39V33.3333L550.6 15.7667C550.867 15.5222 551.161 15.3333 551.483 15.2C551.806 15.0667 552.144 15 552.5 15C552.856 15 553.2 15.0667 553.533 15.2C553.867 15.3333 554.156 15.5333 554.4 15.8L556.233 17.6667C556.5 17.9111 556.694 18.2 556.817 18.5333C556.939 18.8667 557 19.2 557 19.5333C557 19.8889 556.939 20.2278 556.817 20.55C556.694 20.8722 556.5 21.1667 556.233 21.4333L538.667 39H533ZM552.467 21.4L554.333 19.5333L552.467 17.6667L550.6 19.5333L552.467 21.4Z" fill="#555555"/>
<path d="M55.3335 281V257H58.0002V259.667H60.6668V257H71.3335V259.667H74.0002V257H76.6668V281H74.0002V278.333H71.3335V281H60.6668V278.333H58.0002V281H55.3335ZM58.0002 275.667H60.6668V273H58.0002V275.667ZM58.0002 270.333H60.6668V267.667H58.0002V270.333ZM58.0002 265H60.6668V262.333H58.0002V265ZM71.3335 275.667H74.0002V273H71.3335V275.667ZM71.3335 270.333H74.0002V267.667H71.3335V270.333ZM71.3335 265H74.0002V262.333H71.3335V265Z" fill="#555555"/>
</svg>
