<svg width="580" height="80" viewBox="0 0 580 80" fill="none" xmlns="http://www.w3.org/2000/svg">
<path d="M495.878 43.2321L489.958 34.8481H493.158L497.574 41.3121L501.958 34.8481H505.126L499.206 43.2321L505.446 52.0001H502.246L497.574 45.1521L492.838 52.0001H489.67L495.878 43.2321Z" fill="#555555"/>
<path d="M487.976 43.3918C487.976 44.8212 487.784 46.0905 487.4 47.1998C487.037 48.2878 486.504 49.2158 485.8 49.9838C485.117 50.7518 484.274 51.3385 483.272 51.7438C482.29 52.1278 481.192 52.3198 479.976 52.3198C478.845 52.3198 477.8 52.1278 476.84 51.7438C475.88 51.3385 475.048 50.7518 474.344 49.9838C473.64 49.2158 473.085 48.2878 472.68 47.1998C472.296 46.0905 472.104 44.8212 472.104 43.3918C472.104 41.4932 472.424 39.8932 473.064 38.5918C473.704 37.2692 474.621 36.2665 475.816 35.5838C477.01 34.8798 478.429 34.5278 480.072 34.5278C481.629 34.5278 482.994 34.8798 484.168 35.5838C485.362 36.2665 486.29 37.2692 486.952 38.5918C487.634 39.8932 487.976 41.4932 487.976 43.3918ZM475.016 43.3918C475.016 44.7358 475.186 45.9092 475.528 46.9118C475.89 47.8932 476.445 48.6505 477.192 49.1838C477.938 49.7172 478.888 49.9838 480.04 49.9838C481.192 49.9838 482.141 49.7172 482.888 49.1838C483.634 48.6505 484.178 47.8932 484.52 46.9118C484.882 45.9092 485.064 44.7358 485.064 43.3918C485.064 42.0265 484.882 40.8638 484.52 39.9038C484.157 38.9438 483.602 38.2078 482.856 37.6958C482.13 37.1625 481.181 36.8958 480.008 36.8958C478.258 36.8958 476.989 37.4718 476.2 38.6238C475.41 39.7758 475.016 41.3652 475.016 43.3918Z" fill="#555555"/>
<path d="M459.163 29.1519C461.062 29.1519 462.651 29.3332 463.931 29.6959C465.233 30.0585 466.203 30.6559 466.843 31.4879C467.505 32.3199 467.835 33.4292 467.835 34.8159C467.835 35.7119 467.665 36.5119 467.323 37.2159C467.003 37.8985 466.513 38.4745 465.851 38.9439C465.211 39.3919 464.422 39.7012 463.483 39.8719V40.0319C464.443 40.1812 465.307 40.4585 466.075 40.8639C466.865 41.2692 467.483 41.8452 467.931 42.5919C468.379 43.3385 468.603 44.3092 468.603 45.5039C468.603 46.8905 468.283 48.0745 467.643 49.0559C467.003 50.0159 466.086 50.7519 464.891 51.2639C463.718 51.7545 462.31 51.9999 460.667 51.9999H452.635V29.1519H459.163ZM459.739 38.8799C461.702 38.8799 463.046 38.5705 463.771 37.9519C464.497 37.3119 464.859 36.3732 464.859 35.1359C464.859 33.8772 464.411 32.9812 463.515 32.4479C462.641 31.8932 461.233 31.6159 459.291 31.6159H455.515V38.8799H459.739ZM455.515 41.2799V49.5679H460.123C462.15 49.5679 463.558 49.1732 464.347 48.3839C465.137 47.5945 465.531 46.5599 465.531 45.2799C465.531 44.4692 465.35 43.7652 464.987 43.1679C464.646 42.5705 464.059 42.1119 463.227 41.7919C462.417 41.4505 461.307 41.2799 459.899 41.2799H455.515Z" fill="#555555"/>
<path d="M437.942 40.3842C437.942 40.7255 437.92 41.1735 437.878 41.7282C437.856 42.2828 437.835 42.7628 437.814 43.1682H437.942C438.07 42.9975 438.262 42.7522 438.518 42.4322C438.774 42.1122 439.03 41.7922 439.286 41.4722C439.563 41.1308 439.798 40.8535 439.99 40.6402L445.462 34.8482H448.758L441.814 42.1762L449.238 52.0002H445.846L439.894 44.0002L437.942 45.6962V52.0002H435.158V27.6802H437.942V40.3842Z" fill="#555555"/>
<path d="M426.662 52.3198C425.148 52.3198 423.793 52.0105 422.598 51.3918C421.425 50.7732 420.497 49.8132 419.814 48.5118C419.153 47.2105 418.822 45.5465 418.822 43.5198C418.822 41.4078 419.174 39.6905 419.878 38.3678C420.582 37.0452 421.532 36.0745 422.726 35.4558C423.942 34.8372 425.318 34.5278 426.854 34.5278C427.729 34.5278 428.572 34.6238 429.382 34.8158C430.193 34.9865 430.854 35.1998 431.366 35.4558L430.502 37.7918C429.99 37.5998 429.393 37.4185 428.71 37.2478C428.028 37.0772 427.388 36.9918 426.79 36.9918C425.638 36.9918 424.689 37.2372 423.942 37.7278C423.196 38.2185 422.641 38.9438 422.278 39.9038C421.916 40.8638 421.734 42.0585 421.734 43.4878C421.734 44.8532 421.916 46.0158 422.278 46.9758C422.641 47.9358 423.185 48.6612 423.91 49.1518C424.636 49.6425 425.542 49.8878 426.63 49.8878C427.569 49.8878 428.39 49.7918 429.094 49.5998C429.82 49.4078 430.481 49.1732 431.078 48.8958V51.3918C430.502 51.6905 429.862 51.9145 429.158 52.0638C428.476 52.2345 427.644 52.3198 426.662 52.3198Z" fill="#555555"/>
<path d="M408.344 34.5278C409.816 34.5278 411.074 34.8478 412.12 35.4878C413.186 36.1278 413.997 37.0345 414.552 38.2078C415.128 39.3598 415.416 40.7145 415.416 42.2718V43.9678H403.672C403.714 45.9092 404.205 47.3918 405.144 48.4158C406.104 49.4185 407.437 49.9198 409.144 49.9198C410.232 49.9198 411.192 49.8238 412.024 49.6318C412.877 49.4185 413.752 49.1198 414.648 48.7358V51.1998C413.773 51.5838 412.909 51.8612 412.056 52.0318C411.202 52.2238 410.189 52.3198 409.016 52.3198C407.394 52.3198 405.954 51.9892 404.696 51.3278C403.458 50.6665 402.488 49.6852 401.784 48.3838C401.101 47.0612 400.76 45.4505 400.76 43.5518C400.76 41.6745 401.069 40.0638 401.688 38.7198C402.328 37.3758 403.213 36.3412 404.344 35.6158C405.496 34.8905 406.829 34.5278 408.344 34.5278ZM408.312 36.8318C406.968 36.8318 405.901 37.2692 405.112 38.1438C404.344 38.9972 403.885 40.1918 403.736 41.7278H412.472C412.472 40.7465 412.322 39.8932 412.024 39.1678C411.725 38.4425 411.266 37.8772 410.648 37.4718C410.05 37.0452 409.272 36.8318 408.312 36.8318Z" fill="#555555"/>
<path d="M384.755 34.8162C384.755 35.2215 384.734 35.6375 384.691 36.0642C384.67 36.4908 384.638 36.8748 384.595 37.2162H384.787C385.15 36.6188 385.608 36.1282 386.163 35.7442C386.718 35.3602 387.336 35.0722 388.019 34.8802C388.702 34.6668 389.406 34.5602 390.131 34.5602C391.518 34.5602 392.67 34.7842 393.587 35.2322C394.526 35.6588 395.23 36.3308 395.699 37.2482C396.168 38.1655 396.403 39.3602 396.403 40.8322V52.0002H393.619V41.0242C393.619 39.6375 393.31 38.6028 392.691 37.9202C392.072 37.2375 391.102 36.8962 389.779 36.8962C388.499 36.8962 387.496 37.1415 386.771 37.6322C386.046 38.1015 385.523 38.8055 385.203 39.7442C384.904 40.6615 384.755 41.7922 384.755 43.1362V52.0002H381.939V27.6802H384.755V34.8162Z" fill="#555555"/>
<path d="M371.896 31.36C370.68 31.36 369.581 31.5734 368.6 32C367.619 32.4054 366.787 33.0134 366.104 33.824C365.421 34.6134 364.899 35.584 364.536 36.736C364.173 37.8667 363.992 39.1467 363.992 40.576C363.992 42.4534 364.28 44.0854 364.856 45.472C365.453 46.8587 366.328 47.9254 367.48 48.672C368.653 49.4187 370.115 49.792 371.864 49.792C372.867 49.792 373.816 49.7067 374.712 49.536C375.608 49.3654 376.483 49.152 377.336 48.896V51.392C376.483 51.712 375.597 51.9467 374.68 52.096C373.784 52.2454 372.707 52.32 371.448 52.32C369.123 52.32 367.181 51.84 365.624 50.88C364.067 49.92 362.893 48.5547 362.104 46.784C361.336 45.0134 360.952 42.9334 360.952 40.544C360.952 38.816 361.187 37.2374 361.656 35.808C362.147 34.3787 362.851 33.1414 363.768 32.096C364.707 31.0507 365.859 30.2507 367.224 29.696C368.589 29.12 370.157 28.832 371.928 28.832C373.101 28.832 374.232 28.9494 375.32 29.184C376.408 29.4187 377.379 29.7494 378.232 30.176L377.08 32.608C376.376 32.288 375.587 32 374.712 31.744C373.859 31.488 372.92 31.36 371.896 31.36Z" fill="#555555"/>
<path d="M256.878 43.2321L250.958 34.8481H254.158L258.574 41.3121L262.958 34.8481H266.126L260.206 43.2321L266.446 52.0001H263.246L258.574 45.1521L253.838 52.0001H250.67L256.878 43.2321Z" fill="#555555"/>
<path d="M248.976 43.3918C248.976 44.8212 248.784 46.0905 248.4 47.1998C248.037 48.2878 247.504 49.2158 246.8 49.9838C246.117 50.7518 245.274 51.3385 244.272 51.7438C243.29 52.1278 242.192 52.3198 240.976 52.3198C239.845 52.3198 238.8 52.1278 237.84 51.7438C236.88 51.3385 236.048 50.7518 235.344 49.9838C234.64 49.2158 234.085 48.2878 233.68 47.1998C233.296 46.0905 233.104 44.8212 233.104 43.3918C233.104 41.4932 233.424 39.8932 234.064 38.5918C234.704 37.2692 235.621 36.2665 236.816 35.5838C238.01 34.8798 239.429 34.5278 241.072 34.5278C242.629 34.5278 243.994 34.8798 245.168 35.5838C246.362 36.2665 247.29 37.2692 247.952 38.5918C248.634 39.8932 248.976 41.4932 248.976 43.3918ZM236.016 43.3918C236.016 44.7358 236.186 45.9092 236.528 46.9118C236.89 47.8932 237.445 48.6505 238.192 49.1838C238.938 49.7172 239.888 49.9838 241.04 49.9838C242.192 49.9838 243.141 49.7172 243.888 49.1838C244.634 48.6505 245.178 47.8932 245.52 46.9118C245.882 45.9092 246.064 44.7358 246.064 43.3918C246.064 42.0265 245.882 40.8638 245.52 39.9038C245.157 38.9438 244.602 38.2078 243.856 37.6958C243.13 37.1625 242.181 36.8958 241.008 36.8958C239.258 36.8958 237.989 37.4718 237.2 38.6238C236.41 39.7758 236.016 41.3652 236.016 43.3918Z" fill="#555555"/>
<path d="M220.163 29.1519C222.062 29.1519 223.651 29.3332 224.931 29.6959C226.233 30.0585 227.203 30.6559 227.843 31.4879C228.505 32.3199 228.835 33.4292 228.835 34.8159C228.835 35.7119 228.665 36.5119 228.323 37.2159C228.003 37.8985 227.513 38.4745 226.851 38.9439C226.211 39.3919 225.422 39.7012 224.483 39.8719V40.0319C225.443 40.1812 226.307 40.4585 227.075 40.8639C227.865 41.2692 228.483 41.8452 228.931 42.5919C229.379 43.3385 229.603 44.3092 229.603 45.5039C229.603 46.8905 229.283 48.0745 228.643 49.0559C228.003 50.0159 227.086 50.7519 225.891 51.2639C224.718 51.7545 223.31 51.9999 221.667 51.9999H213.635V29.1519H220.163ZM220.739 38.8799C222.702 38.8799 224.046 38.5705 224.771 37.9519C225.497 37.3119 225.859 36.3732 225.859 35.1359C225.859 33.8772 225.411 32.9812 224.515 32.4479C223.641 31.8932 222.233 31.6159 220.291 31.6159H216.515V38.8799H220.739ZM216.515 41.2799V49.5679H221.123C223.15 49.5679 224.558 49.1732 225.347 48.3839C226.137 47.5945 226.531 46.5599 226.531 45.2799C226.531 44.4692 226.35 43.7652 225.987 43.1679C225.646 42.5705 225.059 42.1119 224.227 41.7919C223.417 41.4505 222.307 41.2799 220.899 41.2799H216.515Z" fill="#555555"/>
<path d="M198.942 40.3842C198.942 40.7255 198.92 41.1735 198.878 41.7282C198.856 42.2828 198.835 42.7628 198.814 43.1682H198.942C199.07 42.9975 199.262 42.7522 199.518 42.4322C199.774 42.1122 200.03 41.7922 200.286 41.4722C200.563 41.1308 200.798 40.8535 200.99 40.6402L206.462 34.8482H209.758L202.814 42.1762L210.238 52.0002H206.846L200.894 44.0002L198.942 45.6962V52.0002H196.158V27.6802H198.942V40.3842Z" fill="#555555"/>
<path d="M187.662 52.3198C186.148 52.3198 184.793 52.0105 183.598 51.3918C182.425 50.7732 181.497 49.8132 180.814 48.5118C180.153 47.2105 179.822 45.5465 179.822 43.5198C179.822 41.4078 180.174 39.6905 180.878 38.3678C181.582 37.0452 182.532 36.0745 183.726 35.4558C184.942 34.8372 186.318 34.5278 187.854 34.5278C188.729 34.5278 189.572 34.6238 190.382 34.8158C191.193 34.9865 191.854 35.1998 192.366 35.4558L191.502 37.7918C190.99 37.5998 190.393 37.4185 189.71 37.2478C189.028 37.0772 188.388 36.9918 187.79 36.9918C186.638 36.9918 185.689 37.2372 184.942 37.7278C184.196 38.2185 183.641 38.9438 183.278 39.9038C182.916 40.8638 182.734 42.0585 182.734 43.4878C182.734 44.8532 182.916 46.0158 183.278 46.9758C183.641 47.9358 184.185 48.6612 184.91 49.1518C185.636 49.6425 186.542 49.8878 187.63 49.8878C188.569 49.8878 189.39 49.7918 190.094 49.5998C190.82 49.4078 191.481 49.1732 192.078 48.8958V51.3918C191.502 51.6905 190.862 51.9145 190.158 52.0638C189.476 52.2345 188.644 52.3198 187.662 52.3198Z" fill="#555555"/>
<path d="M169.344 34.5278C170.816 34.5278 172.074 34.8478 173.12 35.4878C174.186 36.1278 174.997 37.0345 175.552 38.2078C176.128 39.3598 176.416 40.7145 176.416 42.2718V43.9678H164.672C164.714 45.9092 165.205 47.3918 166.144 48.4158C167.104 49.4185 168.437 49.9198 170.144 49.9198C171.232 49.9198 172.192 49.8238 173.024 49.6318C173.877 49.4185 174.752 49.1198 175.648 48.7358V51.1998C174.773 51.5838 173.909 51.8612 173.056 52.0318C172.202 52.2238 171.189 52.3198 170.016 52.3198C168.394 52.3198 166.954 51.9892 165.696 51.3278C164.458 50.6665 163.488 49.6852 162.784 48.3838C162.101 47.0612 161.76 45.4505 161.76 43.5518C161.76 41.6745 162.069 40.0638 162.688 38.7198C163.328 37.3758 164.213 36.3412 165.344 35.6158C166.496 34.8905 167.829 34.5278 169.344 34.5278ZM169.312 36.8318C167.968 36.8318 166.901 37.2692 166.112 38.1438C165.344 38.9972 164.885 40.1918 164.736 41.7278H173.472C173.472 40.7465 173.322 39.8932 173.024 39.1678C172.725 38.4425 172.266 37.8772 171.648 37.4718C171.05 37.0452 170.272 36.8318 169.312 36.8318Z" fill="#555555"/>
<path d="M145.755 34.8162C145.755 35.2215 145.734 35.6375 145.691 36.0642C145.67 36.4908 145.638 36.8748 145.595 37.2162H145.787C146.15 36.6188 146.608 36.1282 147.163 35.7442C147.718 35.3602 148.336 35.0722 149.019 34.8802C149.702 34.6668 150.406 34.5602 151.131 34.5602C152.518 34.5602 153.67 34.7842 154.587 35.2322C155.526 35.6588 156.23 36.3308 156.699 37.2482C157.168 38.1655 157.403 39.3602 157.403 40.8322V52.0002H154.619V41.0242C154.619 39.6375 154.31 38.6028 153.691 37.9202C153.072 37.2375 152.102 36.8962 150.779 36.8962C149.499 36.8962 148.496 37.1415 147.771 37.6322C147.046 38.1015 146.523 38.8055 146.203 39.7442C145.904 40.6615 145.755 41.7922 145.755 43.1362V52.0002H142.939V27.6802H145.755V34.8162Z" fill="#555555"/>
<path d="M132.896 31.36C131.68 31.36 130.581 31.5734 129.6 32C128.619 32.4054 127.787 33.0134 127.104 33.824C126.421 34.6134 125.899 35.584 125.536 36.736C125.173 37.8667 124.992 39.1467 124.992 40.576C124.992 42.4534 125.28 44.0854 125.856 45.472C126.453 46.8587 127.328 47.9254 128.48 48.672C129.653 49.4187 131.115 49.792 132.864 49.792C133.867 49.792 134.816 49.7067 135.712 49.536C136.608 49.3654 137.483 49.152 138.336 48.896V51.392C137.483 51.712 136.597 51.9467 135.68 52.096C134.784 52.2454 133.707 52.32 132.448 52.32C130.123 52.32 128.181 51.84 126.624 50.88C125.067 49.92 123.893 48.5547 123.104 46.784C122.336 45.0134 121.952 42.9334 121.952 40.544C121.952 38.816 122.187 37.2374 122.656 35.808C123.147 34.3787 123.851 33.1414 124.768 32.096C125.707 31.0507 126.859 30.2507 128.224 29.696C129.589 29.12 131.157 28.832 132.928 28.832C134.101 28.832 135.232 28.9494 136.32 29.184C137.408 29.4187 138.379 29.7494 139.232 30.176L138.08 32.608C137.376 32.288 136.587 32 135.712 31.744C134.859 31.488 133.92 31.36 132.896 31.36Z" fill="#555555"/>
<rect x="74" y="22" width="36" height="36" rx="8" fill="#106EBE"/>
<path d="M87.7423 49L79 40.4678L81.1856 38.3347L87.7423 44.7339L101.814 31L104 33.1331L87.7423 49Z" fill="white"/>
<rect x="314.5" y="23.5" width="33" height="33" rx="6.5" fill="white" stroke="#CECECE" stroke-width="3"/>
</svg>
