<svg width="580" height="285" viewBox="0 0 580 285" fill="none" xmlns="http://www.w3.org/2000/svg">
<path d="M0 18.3871C0 8.23218 7.16344 0 16 0H564C572.837 0 580 8.23218 580 18.3871V266.613C580 276.768 572.837 285 564 285H16C7.16345 285 0 276.768 0 266.613V18.3871Z" fill="#DEECF9"/>
<path d="M564 280.403V285H16V280.403H564ZM576 266.613V18.3871C576 10.7709 570.627 4.59678 564 4.59677H16C9.37258 4.59677 4 10.7709 4 18.3871V266.613C4 274.229 9.37259 280.403 16 280.403V285L15.5869 284.994C7.07854 284.747 0.220505 276.865 0.00488281 267.088L0 266.613V18.3871C0 8.3909 6.94127 0.257397 15.5869 0.0056113L16 0H564L564.413 0.0056113C573.059 0.257402 580 8.3909 580 18.3871V266.613L579.995 267.088C579.779 276.865 572.921 284.747 564.413 284.994L564 285V280.403C570.627 280.403 576 274.229 576 266.613Z" fill="#DEECF9"/>
<path d="M19.8485 273.078C19.1295 273.078 18.514 272.822 18.0019 272.31C17.4899 271.798 17.2339 271.182 17.2339 270.463V252.161C17.2339 251.442 17.4899 250.826 18.0019 250.314C18.514 249.802 19.1295 249.546 19.8485 249.546H38.1509C38.8699 249.546 39.4855 249.802 39.9975 250.314C40.5095 250.826 40.7655 251.442 40.7655 252.161V270.463C40.7655 271.182 40.5095 271.798 39.9975 272.31C39.4855 272.822 38.8699 273.078 38.1509 273.078H19.8485ZM21.1558 267.849H36.8436L31.9412 261.312L28.0192 266.541L25.0778 262.62L21.1558 267.849Z" fill="#555555"/>
<path d="M4 22C4 13.1635 11.1634 6 20 6H558C566.837 6 574 13.1634 574 22V228.415C574 237.252 566.837 244.415 558 244.415H20C11.1634 244.415 4 237.252 4 228.415V22Z" fill="white"/>
<path d="M558 240.415V244.415H20V240.415H558ZM570 228.415V22C570 15.4761 564.794 10.1681 558.31 10.0039L558 10H20C13.3726 10 8.00001 15.3726 8 22V228.415C8 235.043 13.3726 240.415 20 240.415V244.415L19.5869 244.41C10.9413 244.191 4 237.114 4 228.415V22C4.00001 13.1635 11.1635 6 20 6H558C566.837 6 574 13.1634 574 22V228.415C574 237.114 567.059 244.191 558.413 244.41L558 244.415V240.415C564.627 240.415 570 235.043 570 228.415Z" fill="#CECECE"/>
<path d="M311.353 42.0361C312.489 42.0361 313.465 42.2761 314.281 42.7561C315.097 43.2201 315.722 43.8921 316.154 44.7721C316.602 45.6521 316.826 46.6921 316.826 47.8921V49.2841H308.138C308.17 50.6121 308.513 51.6281 309.169 52.3321C309.841 53.0361 310.778 53.3881 311.978 53.3881C312.81 53.3881 313.545 53.3161 314.185 53.1721C314.841 53.0121 315.514 52.7801 316.202 52.4761V54.5881C315.562 54.8761 314.905 55.0921 314.233 55.2361C313.577 55.3801 312.794 55.4521 311.882 55.4521C310.634 55.4521 309.529 55.2041 308.569 54.7081C307.609 54.2121 306.858 53.4761 306.314 52.5001C305.786 51.5081 305.521 50.2921 305.521 48.8521C305.521 47.3961 305.761 46.1641 306.241 45.1561C306.737 44.1481 307.417 43.3801 308.281 42.8521C309.161 42.3081 310.185 42.0361 311.353 42.0361ZM311.353 44.0041C310.441 44.0041 309.706 44.3001 309.146 44.8921C308.602 45.4841 308.281 46.3241 308.185 47.4121H314.281C314.281 46.7401 314.178 46.1481 313.97 45.6361C313.762 45.1241 313.441 44.7241 313.009 44.4361C312.577 44.1481 312.025 44.0041 311.353 44.0041Z" fill="#A8A8A8"/>
<path d="M295.847 42.0361C296.679 42.0361 297.431 42.1961 298.103 42.5161C298.775 42.8361 299.343 43.3241 299.807 43.9801H299.927L300.215 42.2761H302.279V55.3801C302.279 56.5961 302.063 57.6201 301.631 58.4521C301.199 59.2841 300.535 59.9081 299.639 60.3241C298.759 60.7561 297.647 60.9721 296.303 60.9721C295.375 60.9721 294.519 60.9081 293.735 60.7801C292.951 60.6521 292.231 60.4521 291.575 60.1801V57.9481C292.039 58.1721 292.527 58.3561 293.039 58.5001C293.551 58.6601 294.095 58.7721 294.671 58.8361C295.247 58.9161 295.839 58.9561 296.447 58.9561C297.503 58.9561 298.319 58.6521 298.895 58.0441C299.471 57.4521 299.759 56.6121 299.759 55.5241V55.0921C299.759 54.8841 299.767 54.6121 299.783 54.2761C299.799 53.9241 299.815 53.6681 299.831 53.5081H299.735C299.287 54.1801 298.735 54.6761 298.079 54.9961C297.439 55.3001 296.695 55.4521 295.847 55.4521C294.215 55.4521 292.935 54.8681 292.007 53.7001C291.095 52.5161 290.639 50.8761 290.639 48.7801C290.639 47.3721 290.847 46.1721 291.263 45.1801C291.679 44.1721 292.271 43.3961 293.039 42.8521C293.823 42.3081 294.759 42.0361 295.847 42.0361ZM296.375 44.1481C295.703 44.1481 295.135 44.3321 294.671 44.7001C294.207 45.0521 293.855 45.5721 293.615 46.2601C293.375 46.9481 293.255 47.7961 293.255 48.8041C293.255 50.3081 293.519 51.4521 294.047 52.2361C294.591 53.0201 295.383 53.4121 296.423 53.4121C297.031 53.4121 297.543 53.3321 297.959 53.1721C298.391 53.0121 298.743 52.7641 299.015 52.4281C299.303 52.0921 299.511 51.6681 299.639 51.1561C299.783 50.6281 299.855 49.9961 299.855 49.2601V48.7801C299.855 47.6761 299.727 46.7881 299.471 46.1161C299.231 45.4281 298.855 44.9321 298.343 44.6281C297.831 44.3081 297.175 44.1481 296.375 44.1481Z" fill="#A8A8A8"/>
<path d="M282.617 42.0361C284.249 42.0361 285.465 42.3961 286.265 43.1161C287.065 43.8201 287.465 44.9321 287.465 46.4521V55.2121H285.665L285.161 53.4121H285.065C284.697 53.8761 284.313 54.2601 283.913 54.5641C283.529 54.8681 283.081 55.0921 282.569 55.2361C282.073 55.3801 281.465 55.4521 280.745 55.4521C279.977 55.4521 279.281 55.3161 278.657 55.0441C278.049 54.7561 277.569 54.3241 277.217 53.7481C276.865 53.1561 276.689 52.4201 276.689 51.5401C276.689 50.2281 277.185 49.2281 278.177 48.5401C279.185 47.8521 280.713 47.4761 282.761 47.4121L284.969 47.3401V46.6201C284.969 45.6601 284.753 44.9881 284.321 44.6041C283.889 44.2201 283.281 44.0281 282.497 44.0281C281.825 44.0281 281.185 44.1241 280.577 44.3161C279.969 44.5081 279.393 44.7401 278.849 45.0121L278.033 43.1641C278.641 42.8441 279.337 42.5801 280.121 42.3721C280.921 42.1481 281.753 42.0361 282.617 42.0361ZM283.217 49.0441C281.745 49.1081 280.721 49.3561 280.145 49.7881C279.585 50.2041 279.305 50.7961 279.305 51.5641C279.305 52.2361 279.505 52.7241 279.905 53.0281C280.321 53.3321 280.841 53.4841 281.465 53.4841C282.473 53.4841 283.305 53.2041 283.961 52.6441C284.617 52.0841 284.945 51.2441 284.945 50.1241V48.9961L283.217 49.0441Z" fill="#A8A8A8"/>
<path d="M274.568 51.5641C274.568 52.4121 274.36 53.1241 273.944 53.7001C273.528 54.2761 272.928 54.7161 272.144 55.0201C271.36 55.3081 270.416 55.4521 269.312 55.4521C268.4 55.4521 267.616 55.3801 266.96 55.2361C266.32 55.1081 265.728 54.9161 265.184 54.6601V52.4281C265.76 52.7001 266.424 52.9481 267.176 53.1721C267.928 53.3801 268.664 53.4841 269.384 53.4841C270.344 53.4841 271.032 53.3321 271.448 53.0281C271.88 52.7241 272.096 52.3161 272.096 51.8041C272.096 51.5161 272.016 51.2601 271.856 51.0361C271.696 50.7961 271.392 50.5561 270.944 50.3161C270.512 50.0601 269.872 49.7721 269.024 49.4521C268.208 49.1161 267.512 48.7881 266.936 48.4681C266.36 48.1321 265.92 47.7401 265.616 47.2921C265.312 46.8281 265.16 46.2361 265.16 45.5161C265.16 44.3961 265.608 43.5401 266.504 42.9481C267.416 42.3401 268.616 42.0361 270.104 42.0361C270.888 42.0361 271.624 42.1161 272.312 42.2761C273.016 42.4201 273.696 42.6441 274.352 42.9481L273.512 44.8921C273.144 44.7161 272.76 44.5721 272.36 44.4601C271.976 44.3321 271.584 44.2281 271.184 44.1481C270.8 44.0681 270.4 44.0281 269.984 44.0281C269.216 44.0281 268.632 44.1481 268.232 44.3881C267.832 44.6281 267.632 44.9641 267.632 45.3961C267.632 45.7001 267.72 45.9641 267.896 46.1881C268.088 46.4121 268.416 46.6361 268.88 46.8601C269.344 47.0841 269.976 47.3561 270.776 47.6761C271.576 47.9801 272.256 48.2921 272.816 48.6121C273.392 48.9321 273.824 49.3241 274.112 49.7881C274.416 50.2521 274.568 50.8441 274.568 51.5641Z" fill="#A8A8A8"/>
<path d="M262.943 51.5641C262.943 52.4121 262.735 53.1241 262.319 53.7001C261.903 54.2761 261.303 54.7161 260.519 55.0201C259.735 55.3081 258.791 55.4521 257.687 55.4521C256.775 55.4521 255.991 55.3801 255.335 55.2361C254.695 55.1081 254.103 54.9161 253.559 54.6601V52.4281C254.135 52.7001 254.799 52.9481 255.551 53.1721C256.303 53.3801 257.039 53.4841 257.759 53.4841C258.719 53.4841 259.407 53.3321 259.823 53.0281C260.255 52.7241 260.471 52.3161 260.471 51.8041C260.471 51.5161 260.391 51.2601 260.231 51.0361C260.071 50.7961 259.767 50.5561 259.319 50.3161C258.887 50.0601 258.247 49.7721 257.399 49.4521C256.583 49.1161 255.887 48.7881 255.311 48.4681C254.735 48.1321 254.295 47.7401 253.991 47.2921C253.687 46.8281 253.535 46.2361 253.535 45.5161C253.535 44.3961 253.983 43.5401 254.879 42.9481C255.791 42.3401 256.991 42.0361 258.479 42.0361C259.263 42.0361 259.999 42.1161 260.687 42.2761C261.391 42.4201 262.071 42.6441 262.727 42.9481L261.887 44.8921C261.519 44.7161 261.135 44.5721 260.735 44.4601C260.351 44.3321 259.959 44.2281 259.559 44.1481C259.175 44.0681 258.775 44.0281 258.359 44.0281C257.591 44.0281 257.007 44.1481 256.607 44.3881C256.207 44.6281 256.007 44.9641 256.007 45.3961C256.007 45.7001 256.095 45.9641 256.271 46.1881C256.463 46.4121 256.791 46.6361 257.255 46.8601C257.719 47.0841 258.351 47.3561 259.151 47.6761C259.951 47.9801 260.631 48.2921 261.191 48.6121C261.767 48.9321 262.199 49.3241 262.487 49.7881C262.791 50.2521 262.943 50.8441 262.943 51.5641Z" fill="#A8A8A8"/>
<path d="M245.705 42.0361C246.841 42.0361 247.817 42.2761 248.633 42.7561C249.449 43.2201 250.073 43.8921 250.505 44.7721C250.953 45.6521 251.177 46.6921 251.177 47.8921V49.2841H242.489C242.521 50.6121 242.865 51.6281 243.521 52.3321C244.193 53.0361 245.129 53.3881 246.329 53.3881C247.161 53.3881 247.897 53.3161 248.537 53.1721C249.193 53.0121 249.865 52.7801 250.553 52.4761V54.5881C249.913 54.8761 249.257 55.0921 248.585 55.2361C247.929 55.3801 247.145 55.4521 246.233 55.4521C244.985 55.4521 243.881 55.2041 242.921 54.7081C241.961 54.2121 241.209 53.4761 240.665 52.5001C240.137 51.5081 239.873 50.2921 239.873 48.8521C239.873 47.3961 240.113 46.1641 240.593 45.1561C241.089 44.1481 241.769 43.3801 242.633 42.8521C243.513 42.3081 244.537 42.0361 245.705 42.0361ZM245.705 44.0041C244.793 44.0041 244.057 44.3001 243.497 44.8921C242.953 45.4841 242.633 46.3241 242.537 47.4121H248.633C248.633 46.7401 248.529 46.1481 248.321 45.6361C248.113 45.1241 247.793 44.7241 247.361 44.4361C246.929 44.1481 246.377 44.0041 245.705 44.0041Z" fill="#A8A8A8"/>
<path d="M226.338 55.2122L221.154 40.6442H221.058C221.074 40.9642 221.098 41.3962 221.13 41.9402C221.162 42.4842 221.186 43.0682 221.202 43.6922C221.218 44.3162 221.226 44.9322 221.226 45.5402V55.2122H218.874V38.0762H222.57L227.49 51.8282H227.586L232.65 38.0762H236.346V55.2122H233.826V45.3962C233.826 44.8362 233.834 44.2602 233.85 43.6682C233.882 43.0602 233.906 42.4922 233.922 41.9642C233.954 41.4362 233.978 41.0042 233.994 40.6682H233.898L228.57 55.2122H226.338Z" fill="#A8A8A8"/>
<path d="M203.705 42.0361C204.841 42.0361 205.817 42.2761 206.633 42.7561C207.449 43.2201 208.073 43.8921 208.505 44.7721C208.953 45.6521 209.177 46.6921 209.177 47.8921V49.2841H200.489C200.521 50.6121 200.865 51.6281 201.521 52.3321C202.193 53.0361 203.129 53.3881 204.329 53.3881C205.161 53.3881 205.897 53.3161 206.537 53.1721C207.193 53.0121 207.865 52.7801 208.553 52.4761V54.5881C207.913 54.8761 207.257 55.0921 206.585 55.2361C205.929 55.3801 205.145 55.4521 204.233 55.4521C202.985 55.4521 201.881 55.2041 200.921 54.7081C199.961 54.2121 199.209 53.4761 198.665 52.5001C198.137 51.5081 197.873 50.2921 197.873 48.8521C197.873 47.3961 198.113 46.1641 198.593 45.1561C199.089 44.1481 199.769 43.3801 200.633 42.8521C201.513 42.3081 202.537 42.0361 203.705 42.0361ZM203.705 44.0041C202.793 44.0041 202.057 44.3001 201.497 44.8921C200.953 45.4841 200.633 46.3241 200.537 47.4121H206.633C206.633 46.7401 206.529 46.1481 206.321 45.6361C206.113 45.1241 205.793 44.7241 205.361 44.4361C204.929 44.1481 204.377 44.0041 203.705 44.0041Z" fill="#A8A8A8"/>
<path d="M188.174 55.4522C186.622 55.4522 185.366 54.8922 184.406 53.7722C183.462 52.6522 182.99 50.9882 182.99 48.7802C182.99 46.5562 183.47 44.8762 184.43 43.7402C185.39 42.6042 186.654 42.0362 188.222 42.0362C188.878 42.0362 189.446 42.1242 189.926 42.3002C190.422 42.4602 190.846 42.6842 191.198 42.9722C191.566 43.2602 191.878 43.5802 192.134 43.9322H192.278C192.246 43.7082 192.206 43.3882 192.158 42.9722C192.11 42.5402 192.086 42.1562 192.086 41.8202V36.9722H194.63V55.2122H192.638L192.206 53.4842H192.086C191.846 53.8522 191.542 54.1882 191.174 54.4922C190.822 54.7802 190.398 55.0122 189.902 55.1882C189.406 55.3642 188.83 55.4522 188.174 55.4522ZM188.774 53.3642C190.022 53.3642 190.902 53.0202 191.414 52.3322C191.926 51.6282 192.182 50.5802 192.182 49.1882V48.8042C192.182 47.2842 191.934 46.1242 191.438 45.3242C190.958 44.5242 190.062 44.1242 188.75 44.1242C187.71 44.1242 186.926 44.5482 186.398 45.3962C185.87 46.2282 185.606 47.3722 185.606 48.8282C185.606 50.2842 185.87 51.4042 186.398 52.1882C186.926 52.9722 187.718 53.3642 188.774 53.3642Z" fill="#A8A8A8"/>
<path d="M179.739 42.2764V55.2124H177.195V42.2764H179.739ZM178.491 37.3564C178.875 37.3564 179.211 37.4684 179.499 37.6924C179.787 37.9164 179.931 38.2924 179.931 38.8204C179.931 39.3324 179.787 39.7084 179.499 39.9484C179.211 40.1724 178.875 40.2844 178.491 40.2844C178.075 40.2844 177.723 40.1724 177.435 39.9484C177.163 39.7084 177.027 39.3324 177.027 38.8204C177.027 38.2924 177.163 37.9164 177.435 37.6924C177.723 37.4684 178.075 37.3564 178.491 37.3564Z" fill="#A8A8A8"/>
<path d="M173.214 42.2764V55.2124H171.174L170.814 53.5084H170.694C170.422 53.9564 170.07 54.3244 169.638 54.6124C169.206 54.9004 168.734 55.1084 168.222 55.2364C167.71 55.3804 167.182 55.4524 166.638 55.4524C165.63 55.4524 164.774 55.2924 164.07 54.9724C163.382 54.6364 162.854 54.1244 162.486 53.4364C162.134 52.7324 161.958 51.8364 161.958 50.7484V42.2764H164.526V50.3644C164.526 51.3724 164.734 52.1244 165.15 52.6204C165.582 53.1164 166.246 53.3644 167.142 53.3644C168.038 53.3644 168.742 53.1884 169.254 52.8364C169.766 52.4844 170.126 51.9724 170.334 51.3004C170.558 50.6124 170.67 49.7884 170.67 48.8284V42.2764H173.214Z" fill="#A8A8A8"/>
<path d="M152.08 45.9964H158.272V54.5404C157.36 54.8444 156.424 55.0684 155.464 55.2124C154.52 55.3724 153.44 55.4524 152.224 55.4524C150.48 55.4524 149 55.1004 147.784 54.3964C146.584 53.6924 145.664 52.6844 145.024 51.3724C144.4 50.0604 144.088 48.4844 144.088 46.6444C144.088 44.8524 144.44 43.3004 145.144 41.9884C145.848 40.6764 146.856 39.6604 148.168 38.9404C149.496 38.2044 151.104 37.8364 152.992 37.8364C153.936 37.8364 154.84 37.9324 155.704 38.1244C156.568 38.3004 157.368 38.5484 158.104 38.8684L157.168 41.0284C156.576 40.7564 155.912 40.5324 155.176 40.3564C154.456 40.1644 153.696 40.0684 152.896 40.0684C151.632 40.0684 150.536 40.3404 149.608 40.8844C148.696 41.4124 147.992 42.1724 147.496 43.1644C147.016 44.1404 146.776 45.3084 146.776 46.6684C146.776 47.9484 146.976 49.0844 147.376 50.0764C147.776 51.0684 148.408 51.8444 149.272 52.4044C150.136 52.9644 151.264 53.2444 152.656 53.2444C153.12 53.2444 153.528 53.2284 153.88 53.1964C154.232 53.1484 154.552 53.1004 154.84 53.0524C155.144 52.9884 155.432 52.9324 155.704 52.8844V48.2284H152.08V45.9964Z" fill="#A8A8A8"/>
<path d="M133.875 53.3886C134.211 53.3886 134.555 53.3566 134.907 53.2926C135.259 53.2286 135.563 53.1566 135.819 53.0766V54.9966C135.547 55.1246 135.179 55.2286 134.715 55.3086C134.251 55.4046 133.787 55.4526 133.323 55.4526C132.619 55.4526 131.971 55.3326 131.379 55.0926C130.803 54.8526 130.339 54.4366 129.987 53.8446C129.635 53.2526 129.459 52.4286 129.459 51.3726V44.2206H127.659V43.0686L129.555 42.1086L130.443 39.3726H132.003V42.2766H135.699V44.2206H132.003V51.3246C132.003 52.0286 132.171 52.5486 132.507 52.8846C132.859 53.2206 133.315 53.3886 133.875 53.3886Z" fill="#A8A8A8"/>
<path d="M120.654 42.0361C122.158 42.0361 123.31 42.4121 124.11 43.1641C124.91 43.9161 125.31 45.1241 125.31 46.7881V55.2121H122.79V47.1481C122.79 46.1401 122.574 45.3881 122.142 44.8921C121.726 44.3801 121.054 44.1241 120.126 44.1241C118.814 44.1241 117.902 44.5161 117.39 45.3001C116.894 46.0841 116.646 47.2121 116.646 48.6841V55.2121H114.102V42.2761H116.118L116.478 44.0041H116.622C116.91 43.5561 117.262 43.1881 117.678 42.9001C118.094 42.6121 118.558 42.3961 119.07 42.2521C119.582 42.1081 120.11 42.0361 120.654 42.0361Z" fill="#A8A8A8"/>
<path d="M105.455 42.0361C106.591 42.0361 107.567 42.2761 108.383 42.7561C109.199 43.2201 109.823 43.8921 110.255 44.7721C110.703 45.6521 110.927 46.6921 110.927 47.8921V49.2841H102.239C102.271 50.6121 102.615 51.6281 103.271 52.3321C103.943 53.0361 104.879 53.3881 106.079 53.3881C106.911 53.3881 107.647 53.3161 108.287 53.1721C108.943 53.0121 109.615 52.7801 110.303 52.4761V54.5881C109.663 54.8761 109.007 55.0921 108.335 55.2361C107.679 55.3801 106.895 55.4521 105.983 55.4521C104.735 55.4521 103.631 55.2041 102.671 54.7081C101.711 54.2121 100.959 53.4761 100.415 52.5001C99.887 51.5081 99.623 50.2921 99.623 48.8521C99.623 47.3961 99.863 46.1641 100.343 45.1561C100.839 44.1481 101.519 43.3801 102.383 42.8521C103.263 42.3081 104.287 42.0361 105.455 42.0361ZM105.455 44.0041C104.543 44.0041 103.807 44.3001 103.247 44.8921C102.703 45.4841 102.383 46.3241 102.287 47.4121H108.383C108.383 46.7401 108.279 46.1481 108.071 45.6361C107.863 45.1241 107.543 44.7241 107.111 44.4361C106.679 44.1481 106.127 44.0041 105.455 44.0041Z" fill="#A8A8A8"/>
<path d="M92.0819 42.0361C93.5379 42.0361 94.6339 42.4121 95.3699 43.1641C96.1059 43.9161 96.4739 45.1241 96.4739 46.7881V55.2121H93.9299V47.1241C93.9299 46.1321 93.7299 45.3881 93.3299 44.8921C92.9459 44.3801 92.3379 44.1241 91.5059 44.1241C90.3539 44.1241 89.5299 44.4841 89.0339 45.2041C88.5379 45.9081 88.2899 46.9321 88.2899 48.2761V55.2121H85.7699V47.1241C85.7699 46.4681 85.6739 45.9161 85.4819 45.4681C85.3059 45.0201 85.0419 44.6841 84.6899 44.4601C84.3379 44.2361 83.8819 44.1241 83.3219 44.1241C82.5219 44.1241 81.8899 44.3001 81.4259 44.6521C80.9619 45.0041 80.6259 45.5241 80.4179 46.2121C80.2259 46.8841 80.1299 47.7081 80.1299 48.6841V55.2121H77.5859V42.2761H79.6019L79.9619 44.0041H80.1059C80.3779 43.5561 80.7059 43.1881 81.0899 42.9001C81.4899 42.6121 81.9299 42.3961 82.4099 42.2521C82.8899 42.1081 83.3859 42.0361 83.8979 42.0361C84.8739 42.0361 85.6979 42.2121 86.3699 42.5641C87.0419 42.9001 87.5299 43.4201 87.8339 44.1241H88.0259C88.4419 43.4041 89.0179 42.8761 89.7539 42.5401C90.4899 42.2041 91.2659 42.0361 92.0819 42.0361Z" fill="#A8A8A8"/>
<path d="M69.3007 42.0361C70.7567 42.0361 71.8527 42.4121 72.5887 43.1641C73.3247 43.9161 73.6927 45.1241 73.6927 46.7881V55.2121H71.1487V47.1241C71.1487 46.1321 70.9487 45.3881 70.5487 44.8921C70.1647 44.3801 69.5567 44.1241 68.7247 44.1241C67.5727 44.1241 66.7487 44.4841 66.2527 45.2041C65.7567 45.9081 65.5087 46.9321 65.5087 48.2761V55.2121H62.9887V47.1241C62.9887 46.4681 62.8927 45.9161 62.7007 45.4681C62.5247 45.0201 62.2607 44.6841 61.9087 44.4601C61.5567 44.2361 61.1007 44.1241 60.5407 44.1241C59.7407 44.1241 59.1087 44.3001 58.6447 44.6521C58.1807 45.0041 57.8447 45.5241 57.6367 46.2121C57.4447 46.8841 57.3487 47.7081 57.3487 48.6841V55.2121H54.8047V42.2761H56.8207L57.1807 44.0041H57.3247C57.5967 43.5561 57.9247 43.1881 58.3087 42.9001C58.7087 42.6121 59.1487 42.3961 59.6287 42.2521C60.1087 42.1081 60.6047 42.0361 61.1167 42.0361C62.0927 42.0361 62.9167 42.2121 63.5887 42.5641C64.2607 42.9001 64.7487 43.4201 65.0527 44.1241H65.2447C65.6607 43.4041 66.2367 42.8761 66.9727 42.5401C67.7087 42.2041 68.4847 42.0361 69.3007 42.0361Z" fill="#A8A8A8"/>
<path d="M51.5795 48.7321C51.5795 49.8041 51.4355 50.7561 51.1475 51.5881C50.8595 52.4201 50.4515 53.1241 49.9235 53.7001C49.3955 54.2761 48.7555 54.7161 48.0035 55.0201C47.2515 55.3081 46.4035 55.4521 45.4595 55.4521C44.5955 55.4521 43.7955 55.3081 43.0595 55.0201C42.3235 54.7161 41.6835 54.2761 41.1395 53.7001C40.6115 53.1241 40.1955 52.4201 39.8915 51.5881C39.5875 50.7561 39.4355 49.7961 39.4355 48.7081C39.4355 47.2841 39.6755 46.0761 40.1555 45.0841C40.6515 44.0921 41.3555 43.3401 42.2675 42.8281C43.1955 42.3001 44.2835 42.0361 45.5315 42.0361C46.7155 42.0361 47.7555 42.3001 48.6515 42.8281C49.5635 43.3401 50.2755 44.0921 50.7875 45.0841C51.3155 46.0761 51.5795 47.2921 51.5795 48.7321ZM42.0515 48.7321C42.0515 49.6921 42.1715 50.5241 42.4115 51.2281C42.6515 51.9161 43.0275 52.4441 43.5395 52.8121C44.0515 53.1801 44.7075 53.3641 45.5075 53.3641C46.3075 53.3641 46.9635 53.1801 47.4755 52.8121C47.9875 52.4441 48.3635 51.9161 48.6035 51.2281C48.8435 50.5241 48.9635 49.6921 48.9635 48.7321C48.9635 47.7401 48.8355 46.9081 48.5795 46.2361C48.3395 45.5641 47.9635 45.0521 47.4515 44.7001C46.9555 44.3321 46.2995 44.1481 45.4835 44.1481C44.2835 44.1481 43.4115 44.5481 42.8675 45.3481C42.3235 46.1481 42.0515 47.2761 42.0515 48.7321Z" fill="#A8A8A8"/>
<path d="M32.5999 40.0684C31.7519 40.0684 30.9919 40.2204 30.3199 40.5244C29.6479 40.8124 29.0719 41.2444 28.5919 41.8204C28.1279 42.3964 27.7679 43.0924 27.5119 43.9084C27.2719 44.7244 27.1519 45.6444 27.1519 46.6684C27.1519 48.0124 27.3519 49.1804 27.7519 50.1724C28.1519 51.1484 28.7519 51.9004 29.5519 52.4284C30.3519 52.9564 31.3599 53.2204 32.5759 53.2204C33.3119 53.2204 34.0159 53.1564 34.6879 53.0284C35.3759 52.8844 36.0719 52.7004 36.7759 52.4764V54.7084C36.1039 54.9644 35.4159 55.1484 34.7119 55.2604C34.0079 55.3884 33.1919 55.4524 32.2639 55.4524C30.5199 55.4524 29.0639 55.0924 27.8959 54.3724C26.7439 53.6524 25.8799 52.6284 25.3039 51.3004C24.7279 49.9724 24.4399 48.4204 24.4399 46.6444C24.4399 45.3484 24.6159 44.1644 24.9679 43.0924C25.3359 42.0044 25.8639 41.0684 26.5519 40.2844C27.2399 39.5004 28.0879 38.9004 29.0959 38.4844C30.1199 38.0524 31.2959 37.8364 32.6239 37.8364C33.4879 37.8364 34.3359 37.9324 35.1679 38.1244C35.9999 38.3004 36.7519 38.5564 37.4239 38.8924L36.4639 41.0524C35.9039 40.7964 35.2959 40.5724 34.6399 40.3804C33.9999 40.1724 33.3199 40.0684 32.5999 40.0684Z" fill="#A8A8A8"/>
<path d="M535.234 47.7074V42.1514L552.491 24.9275C552.752 24.6878 553.041 24.5026 553.357 24.3719C553.673 24.2411 554.005 24.1758 554.354 24.1758C554.702 24.1758 555.04 24.2411 555.367 24.3719C555.694 24.5026 555.977 24.6987 556.217 24.9602L558.014 26.7904C558.276 27.0301 558.466 27.3133 558.586 27.6402C558.706 27.967 558.766 28.2938 558.766 28.6206C558.766 28.9693 558.706 29.3015 558.586 29.6175C558.466 29.9334 558.276 30.2221 558.014 30.4836L540.79 47.7074H535.234ZM554.321 30.4509L556.151 28.6206L554.321 26.7904L552.491 28.6206L554.321 30.4509Z" fill="#555555"/>
<path d="M57.5415 273.078V249.546H60.1561V252.161H62.7708V249.546H73.2293V252.161H75.8439V249.546H78.4585V273.078H75.8439V270.463H73.2293V273.078H62.7708V270.463H60.1561V273.078H57.5415ZM60.1561 267.849H62.7708V265.234H60.1561V267.849ZM60.1561 262.62H62.7708V260.005H60.1561V262.62ZM60.1561 257.39H62.7708V254.776H60.1561V257.39ZM73.2293 267.849H75.8439V265.234H73.2293V267.849ZM73.2293 262.62H75.8439V260.005H73.2293V262.62ZM73.2293 257.39H75.8439V254.776H73.2293V257.39Z" fill="#555555"/>
</svg>
