<svg width="546" height="80" viewBox="0 0 546 80" fill="none" xmlns="http://www.w3.org/2000/svg">
<path d="M0 16C0 7.16344 7.16344 0 16 0H493C501.837 0 509 7.16344 509 16V64C509 72.8366 501.837 80 493 80H16C7.16344 80 0 72.8366 0 64V16Z" fill="white"/>
<path d="M493 76V80H16V76H493ZM505 64V16C505 9.47609 499.794 4.16811 493.31 4.00391L493 4H16C9.37258 4 4 9.37258 4 16V64C4 70.6274 9.37258 76 16 76V80L15.5869 79.9951C7.07854 79.7795 0.220502 72.9215 0.00488281 64.4131L0 64V16C0 7.16344 7.16344 1.03481e-07 16 0H493L493.413 0.00488281C502.059 0.223985 509 7.30156 509 16V64L508.995 64.4131C508.779 72.9215 501.921 79.7795 493.413 79.9951L493 80V76C499.627 76 505 70.6274 505 64Z" fill="#CECECE"/>
<path d="M127.031 40.5319C127.031 43.1999 126.831 45.5766 126.433 47.6619C126.034 49.7472 125.39 51.5259 124.501 52.9979C123.642 54.4392 122.507 55.5432 121.097 56.3099C119.717 57.0766 118.045 57.4599 116.083 57.4599C113.629 57.4599 111.59 56.7852 109.965 55.4359C108.37 54.0866 107.174 52.1546 106.377 49.6399C105.61 47.0946 105.227 44.0586 105.227 40.5319C105.227 36.9746 105.579 33.9386 106.285 31.4239C107.021 28.9092 108.186 26.9926 109.781 25.6739C111.375 24.3246 113.476 23.6499 116.083 23.6499C118.536 23.6499 120.575 24.3246 122.201 25.6739C123.826 26.9926 125.037 28.9092 125.835 31.4239C126.632 33.9386 127.031 36.9746 127.031 40.5319ZM109.275 40.5319C109.275 43.5372 109.489 46.0366 109.919 48.0299C110.379 50.0232 111.099 51.5259 112.081 52.5379C113.093 53.5192 114.427 54.0099 116.083 54.0099C117.739 54.0099 119.057 53.5192 120.039 52.5379C121.051 51.5566 121.787 50.0692 122.247 48.0759C122.707 46.0519 122.937 43.5372 122.937 40.5319C122.937 37.5266 122.707 35.0426 122.247 33.0799C121.787 31.0866 121.051 29.5992 120.039 28.6179C119.057 27.6059 117.739 27.0999 116.083 27.0999C114.427 27.0999 113.093 27.6059 112.081 28.6179C111.099 29.5992 110.379 31.0866 109.919 33.0799C109.489 35.0426 109.275 37.5266 109.275 40.5319Z" fill="#555555"/>
<path d="M100.706 40.5319C100.706 43.1999 100.507 45.5766 100.108 47.6619C99.7097 49.7472 99.0657 51.5259 98.1763 52.9979C97.3177 54.4392 96.183 55.5432 94.7723 56.3099C93.3923 57.0766 91.721 57.4599 89.7583 57.4599C87.305 57.4599 85.2657 56.7852 83.6403 55.4359C82.0457 54.0866 80.8497 52.1546 80.0523 49.6399C79.2857 47.0946 78.9023 44.0586 78.9023 40.5319C78.9023 36.9746 79.255 33.9386 79.9603 31.4239C80.6963 28.9092 81.8617 26.9926 83.4563 25.6739C85.051 24.3246 87.1517 23.6499 89.7583 23.6499C92.2117 23.6499 94.251 24.3246 95.8763 25.6739C97.5017 26.9926 98.713 28.9092 99.5103 31.4239C100.308 33.9386 100.706 36.9746 100.706 40.5319ZM82.9503 40.5319C82.9503 43.5372 83.165 46.0366 83.5943 48.0299C84.0543 50.0232 84.775 51.5259 85.7563 52.5379C86.7683 53.5192 88.1023 54.0099 89.7583 54.0099C91.4143 54.0099 92.733 53.5192 93.7143 52.5379C94.7263 51.5566 95.4623 50.0692 95.9223 48.0759C96.3823 46.0519 96.6123 43.5372 96.6123 40.5319C96.6123 37.5266 96.3823 35.0426 95.9223 33.0799C95.4623 31.0866 94.7263 29.5992 93.7143 28.6179C92.733 27.6059 91.4143 27.0999 89.7583 27.0999C88.1023 27.0999 86.7683 27.6059 85.7563 28.6179C84.775 29.5992 84.0543 31.0866 83.5943 33.0799C83.165 35.0426 82.9503 37.5266 82.9503 40.5319Z" fill="#555555"/>
<path d="M74.3821 40.5319C74.3821 43.1999 74.1828 45.5766 73.7841 47.6619C73.3855 49.7472 72.7415 51.5259 71.8521 52.9979C70.9935 54.4392 69.8588 55.5432 68.4481 56.3099C67.0681 57.0766 65.3968 57.4599 63.4341 57.4599C60.9808 57.4599 58.9415 56.7852 57.3161 55.4359C55.7215 54.0866 54.5255 52.1546 53.7281 49.6399C52.9615 47.0946 52.5781 44.0586 52.5781 40.5319C52.5781 36.9746 52.9308 33.9386 53.6361 31.4239C54.3721 28.9092 55.5375 26.9926 57.1321 25.6739C58.7268 24.3246 60.8275 23.6499 63.4341 23.6499C65.8875 23.6499 67.9268 24.3246 69.5521 25.6739C71.1775 26.9926 72.3888 28.9092 73.1861 31.4239C73.9835 33.9386 74.3821 36.9746 74.3821 40.5319ZM56.6261 40.5319C56.6261 43.5372 56.8408 46.0366 57.2701 48.0299C57.7301 50.0232 58.4508 51.5259 59.4321 52.5379C60.4441 53.5192 61.7781 54.0099 63.4341 54.0099C65.0901 54.0099 66.4088 53.5192 67.3901 52.5379C68.4021 51.5566 69.1381 50.0692 69.5981 48.0759C70.0581 46.0519 70.2881 43.5372 70.2881 40.5319C70.2881 37.5266 70.0581 35.0426 69.5981 33.0799C69.1381 31.0866 68.4021 29.5992 67.3901 28.6179C66.4088 27.6059 65.0901 27.0999 63.4341 27.0999C61.7781 27.0999 60.4441 27.6059 59.4321 28.6179C58.4508 29.5992 57.7301 31.0866 57.2701 33.0799C56.8408 35.0426 56.6261 37.5266 56.6261 40.5319Z" fill="#555555"/>
<path d="M36.65 36.8518C38.8886 36.8518 40.836 37.2351 42.492 38.0018C44.148 38.7684 45.4206 39.8724 46.3099 41.3138C47.23 42.7244 47.69 44.4571 47.69 46.5118C47.69 48.7811 47.1993 50.7438 46.2179 52.3998C45.2366 54.0251 43.826 55.2824 41.986 56.1718C40.1766 57.0304 37.984 57.4598 35.408 57.4598C33.7213 57.4598 32.1266 57.3064 30.6239 56.9998C29.1519 56.6931 27.9099 56.2484 26.8979 55.6658V51.8478C28.0019 52.5224 29.3359 53.0591 30.8999 53.4578C32.4946 53.8258 34.0126 54.0098 35.4539 54.0098C37.0793 54.0098 38.49 53.7644 39.686 53.2738C40.9126 52.7524 41.8633 51.9704 42.538 50.9278C43.2126 49.8544 43.5499 48.5204 43.5499 46.9258C43.5499 44.7791 42.8906 43.1384 41.5719 42.0038C40.2533 40.8384 38.1679 40.2558 35.3159 40.2558C34.4573 40.2558 33.476 40.3324 32.372 40.4858C31.268 40.6391 30.3786 40.7924 29.7039 40.9458L27.6799 39.6578L28.9219 24.1558H45.3899V27.8358H32.372L31.5899 37.3578C32.1113 37.2658 32.8166 37.1584 33.7059 37.0358C34.5953 36.9131 35.5766 36.8518 36.65 36.8518Z" fill="#555555"/>
<path d="M533.65 31.8838C535.276 31.8838 536.732 32.1905 538.02 32.8038C539.339 33.4171 540.458 34.3525 541.378 35.6098H541.608L542.16 32.3438H545.38V57.4138C545.38 59.7445 544.982 61.6918 544.184 63.2558C543.387 64.8505 542.176 66.0465 540.55 66.8438C538.925 67.6411 536.855 68.0398 534.34 68.0398C532.562 68.0398 530.921 67.9018 529.418 67.6258C527.946 67.3805 526.628 66.9971 525.462 66.4758V62.7498C526.26 63.1485 527.134 63.4858 528.084 63.7618C529.035 64.0685 530.062 64.2985 531.166 64.4518C532.27 64.6051 533.405 64.6818 534.57 64.6818C536.686 64.6818 538.342 64.0531 539.538 62.7958C540.765 61.5691 541.378 59.8825 541.378 57.7358V56.7698C541.378 56.4018 541.394 55.8805 541.424 55.2058C541.455 54.5005 541.486 54.0098 541.516 53.7338H541.332C540.474 54.9911 539.4 55.9265 538.112 56.5398C536.855 57.1531 535.383 57.4598 533.696 57.4598C530.507 57.4598 528.008 56.3405 526.198 54.1018C524.42 51.8631 523.53 48.7351 523.53 44.7178C523.53 42.0805 523.929 39.8111 524.726 37.9098C525.554 35.9778 526.72 34.4905 528.222 33.4478C529.725 32.4051 531.534 31.8838 533.65 31.8838ZM534.202 35.2878C532.822 35.2878 531.642 35.6558 530.66 36.3918C529.71 37.1278 528.974 38.2011 528.452 39.6118C527.962 41.0225 527.716 42.7398 527.716 44.7638C527.716 47.7998 528.268 50.1305 529.372 51.7558C530.507 53.3505 532.148 54.1478 534.294 54.1478C535.552 54.1478 536.625 53.9945 537.514 53.6878C538.404 53.3505 539.14 52.8445 539.722 52.1698C540.305 51.4645 540.734 50.5751 541.01 49.5018C541.286 48.4285 541.424 47.1558 541.424 45.6838V44.7178C541.424 42.4791 541.164 40.6698 540.642 39.2898C540.152 37.9098 539.37 36.8978 538.296 36.2538C537.223 35.6098 535.858 35.2878 534.202 35.2878Z" fill="#555555"/>
</svg>
