<svg width="580" height="80" viewBox="0 0 580 80" fill="none" xmlns="http://www.w3.org/2000/svg">
<path d="M0 16C0 7.16344 7.16344 0 16 0H564C572.837 0 580 7.16344 580 16V64C580 72.8366 572.837 80 564 80H16C7.16345 80 0 72.8366 0 64V16Z" fill="white"/>
<path d="M564 76V80H16V76H564ZM576 64V16C576 9.37259 570.627 4 564 4H16C9.37258 4 4 9.37258 4 16V64C4 70.6274 9.37258 76 16 76V80C7.30156 80 0.223981 73.0587 0.00488281 64.4131L0 64V16C0 7.30155 6.94127 0.22398 15.5869 0.00488281L16 0H564L564.413 0.00488281C573.059 0.223985 580 7.30156 580 16V64C580 72.8366 572.837 80 564 80V76C570.627 76 576 70.6274 576 64Z" fill="#CECECE"/>
<path d="M541.829 49.3375L544.337 46.8292L537.708 40.2V31.9583H534.125V41.6333L541.829 49.3375ZM535.917 58.8333C533.438 58.8333 531.109 58.363 528.929 57.4224C526.749 56.4818 524.853 55.2052 523.241 53.5927C521.628 51.9802 520.352 50.084 519.411 47.9042C518.47 45.7243 518 43.3951 518 40.9167C518 38.4382 518.47 36.109 519.411 33.9292C520.352 31.7493 521.628 29.8531 523.241 28.2406C524.853 26.6281 526.749 25.3516 528.929 24.4109C531.109 23.4703 533.438 23 535.917 23C538.395 23 540.724 23.4703 542.904 24.4109C545.084 25.3516 546.98 26.6281 548.593 28.2406C550.205 29.8531 551.482 31.7493 552.422 33.9292C553.363 36.109 553.833 38.4382 553.833 40.9167C553.833 43.3951 553.363 45.7243 552.422 47.9042C551.482 50.084 550.205 51.9802 548.593 53.5927C546.98 55.2052 545.084 56.4818 542.904 57.4224C540.724 58.363 538.395 58.8333 535.917 58.8333Z" fill="#555555"/>
<path d="M255.83 57.9998H251.874V35.0458C251.874 34.1564 251.874 33.4051 251.874 32.7918C251.904 32.1784 251.935 31.6111 251.966 31.0898C251.996 30.5378 252.027 29.9704 252.058 29.3878C251.567 29.8784 251.122 30.2924 250.724 30.6298C250.325 30.9671 249.819 31.3964 249.206 31.9178L245.71 34.7698L243.594 32.0558L252.472 25.1558H255.83V57.9998Z" fill="#555555"/>
<path d="M235.854 32.8378C235.854 34.3098 235.578 35.5825 235.026 36.6558C234.474 37.7291 233.676 38.6031 232.634 39.2778C231.622 39.9525 230.426 40.4278 229.046 40.7038V40.8878C231.683 41.1945 233.646 42.0225 234.934 43.3718C236.222 44.7211 236.866 46.4845 236.866 48.6618C236.866 50.5631 236.421 52.2651 235.532 53.7678C234.642 55.2398 233.262 56.3898 231.392 57.2178C229.552 58.0458 227.175 58.4598 224.262 58.4598C222.544 58.4598 220.95 58.3218 219.478 58.0458C218.006 57.8005 216.595 57.3405 215.246 56.6658V52.8938C216.626 53.5685 218.113 54.1051 219.708 54.5038C221.302 54.8718 222.836 55.0558 224.308 55.0558C227.252 55.0558 229.368 54.4885 230.656 53.3538C231.974 52.1885 232.634 50.5938 232.634 48.5698C232.634 47.1898 232.266 46.0858 231.53 45.2578C230.824 44.3991 229.782 43.7705 228.402 43.3718C227.022 42.9731 225.366 42.7738 223.434 42.7738H220.26V39.3238H223.48C225.289 39.3238 226.792 39.0631 227.988 38.5418C229.214 38.0205 230.134 37.2998 230.748 36.3798C231.392 35.4291 231.714 34.3405 231.714 33.1138C231.714 31.5191 231.177 30.2925 230.104 29.4338C229.03 28.5445 227.574 28.0998 225.734 28.0998C224.568 28.0998 223.51 28.2225 222.56 28.4678C221.609 28.6825 220.72 29.0045 219.892 29.4338C219.094 29.8325 218.282 30.3078 217.454 30.8598L215.43 28.0998C216.227 27.4865 217.132 26.9191 218.144 26.3978C219.186 25.8765 220.336 25.4625 221.594 25.1558C222.851 24.8491 224.216 24.6958 225.688 24.6958C229.122 24.6958 231.668 25.4625 233.324 26.9958C235.01 28.5291 235.854 30.4765 235.854 32.8378Z" fill="#555555"/>
<path d="M212.713 25.1558L200.477 57.9998H196.521L208.757 25.1558H212.713Z" fill="#555555"/>
<path d="M193.656 57.9998H171.944V54.6418L180.546 45.9478C182.202 44.2918 183.598 42.8198 184.732 41.5318C185.867 40.2438 186.726 38.9865 187.308 37.7598C187.891 36.5025 188.182 35.1378 188.182 33.6658C188.182 31.8565 187.646 30.4918 186.572 29.5718C185.499 28.6211 184.104 28.1458 182.386 28.1458C180.792 28.1458 179.381 28.4218 178.154 28.9738C176.958 29.5258 175.732 30.2925 174.474 31.2738L172.312 28.5598C173.171 27.8238 174.106 27.1645 175.118 26.5818C176.161 25.9991 177.28 25.5391 178.476 25.2018C179.703 24.8645 181.006 24.6958 182.386 24.6958C184.441 24.6958 186.204 25.0485 187.676 25.7538C189.148 26.4591 190.283 27.4711 191.08 28.7898C191.908 30.0778 192.322 31.6265 192.322 33.4358C192.322 34.7238 192.123 35.9505 191.724 37.1158C191.326 38.2505 190.758 39.3698 190.022 40.4738C189.286 41.5778 188.397 42.6971 187.354 43.8318C186.312 44.9665 185.162 46.1471 183.904 47.3738L177.05 54.1358V54.3198H193.656V57.9998Z" fill="#555555"/>
<path d="M159.742 57.9998H155.786V35.0458C155.786 34.1564 155.786 33.4051 155.786 32.7918C155.817 32.1784 155.847 31.6111 155.878 31.0898C155.909 30.5378 155.939 29.9704 155.97 29.3878C155.479 29.8784 155.035 30.2924 154.636 30.6298C154.237 30.9671 153.731 31.3964 153.118 31.9178L149.622 34.7698L147.506 32.0558L156.384 25.1558H159.742V57.9998Z" fill="#555555"/>
<path d="M142.949 25.1558L130.713 57.9998H126.757L138.993 25.1558H142.949Z" fill="#555555"/>
<path d="M112.623 37.8518C114.861 37.8518 116.809 38.2351 118.465 39.0018C120.121 39.7684 121.393 40.8724 122.283 42.3138C123.203 43.7244 123.663 45.4571 123.663 47.5118C123.663 49.7811 123.172 51.7438 122.191 53.3998C121.209 55.0251 119.799 56.2824 117.959 57.1718C116.149 58.0304 113.957 58.4598 111.381 58.4598C109.694 58.4598 108.099 58.3064 106.597 57.9998C105.125 57.6931 103.883 57.2484 102.871 56.6658V52.8478C103.975 53.5224 105.309 54.0591 106.873 54.4578C108.467 54.8258 109.985 55.0098 111.427 55.0098C113.052 55.0098 114.463 54.7644 115.659 54.2738C116.885 53.7524 117.836 52.9704 118.511 51.9278C119.185 50.8544 119.523 49.5204 119.523 47.9258C119.523 45.7791 118.863 44.1384 117.545 43.0038C116.226 41.8384 114.141 41.2558 111.289 41.2558C110.43 41.2558 109.449 41.3324 108.345 41.4858C107.241 41.6391 106.351 41.7924 105.677 41.9458L103.653 40.6578L104.895 25.1558H121.363V28.8358H108.345L107.563 38.3578C108.084 38.2658 108.789 38.1584 109.679 38.0358C110.568 37.9131 111.549 37.8518 112.623 37.8518Z" fill="#555555"/>
<path d="M97.5684 57.9998H75.8564V54.6418L84.4584 45.9478C86.1144 44.2918 87.5098 42.8198 88.6444 41.5318C89.7791 40.2438 90.6378 38.9865 91.2204 37.7598C91.8031 36.5025 92.0944 35.1378 92.0944 33.6658C92.0944 31.8565 91.5578 30.4918 90.4844 29.5718C89.4111 28.6211 88.0158 28.1458 86.2984 28.1458C84.7038 28.1458 83.2931 28.4218 82.0664 28.9738C80.8704 29.5258 79.6438 30.2925 78.3864 31.2738L76.2244 28.5598C77.0831 27.8238 78.0184 27.1645 79.0304 26.5818C80.0731 25.9991 81.1924 25.5391 82.3884 25.2018C83.6151 24.8645 84.9184 24.6958 86.2984 24.6958C88.3531 24.6958 90.1164 25.0485 91.5884 25.7538C93.0604 26.4591 94.1951 27.4711 94.9924 28.7898C95.8204 30.0778 96.2344 31.6265 96.2344 33.4358C96.2344 34.7238 96.0351 35.9505 95.6364 37.1158C95.2378 38.2505 94.6704 39.3698 93.9344 40.4738C93.1984 41.5778 92.3091 42.6971 91.2664 43.8318C90.2238 44.9665 89.0738 46.1471 87.8164 47.3738L80.9624 54.1358V54.3198H97.5684V57.9998Z" fill="#555555"/>
<path d="M71.3821 41.5319C71.3821 44.1999 71.1828 46.5766 70.7841 48.6619C70.3855 50.7472 69.7415 52.5259 68.8521 53.9979C67.9935 55.4392 66.8588 56.5432 65.4481 57.3099C64.0681 58.0766 62.3968 58.4599 60.4341 58.4599C57.9808 58.4599 55.9415 57.7852 54.3161 56.4359C52.7215 55.0866 51.5255 53.1546 50.7281 50.6399C49.9615 48.0946 49.5781 45.0586 49.5781 41.5319C49.5781 37.9746 49.9308 34.9386 50.6361 32.4239C51.3721 29.9092 52.5375 27.9926 54.1321 26.6739C55.7268 25.3246 57.8275 24.6499 60.4341 24.6499C62.8875 24.6499 64.9268 25.3246 66.5521 26.6739C68.1775 27.9926 69.3888 29.9092 70.1861 32.4239C70.9835 34.9386 71.3821 37.9746 71.3821 41.5319ZM53.6261 41.5319C53.6261 44.5372 53.8408 47.0366 54.2701 49.0299C54.7301 51.0232 55.4508 52.5259 56.4321 53.5379C57.4441 54.5192 58.7781 55.0099 60.4341 55.0099C62.0901 55.0099 63.4088 54.5192 64.3901 53.5379C65.4021 52.5566 66.1381 51.0692 66.5981 49.0759C67.0581 47.0519 67.2881 44.5372 67.2881 41.5319C67.2881 38.5266 67.0581 36.0426 66.5981 34.0799C66.1381 32.0866 65.4021 30.5992 64.3901 29.6179C63.4088 28.6059 62.0901 28.0999 60.4341 28.0999C58.7781 28.0999 57.4441 28.6059 56.4321 29.6179C55.4508 30.5992 54.7301 32.0866 54.2701 34.0799C53.8408 36.0426 53.6261 38.5266 53.6261 41.5319Z" fill="#555555"/>
<path d="M44.92 57.9998H23.208V54.6418L31.81 45.9478C33.466 44.2918 34.8613 42.8198 35.996 41.5318C37.1307 40.2438 37.9893 38.9865 38.572 37.7598C39.1547 36.5025 39.446 35.1378 39.446 33.6658C39.446 31.8565 38.9093 30.4918 37.836 29.5718C36.7627 28.6211 35.3673 28.1458 33.65 28.1458C32.0553 28.1458 30.6447 28.4218 29.418 28.9738C28.222 29.5258 26.9953 30.2925 25.738 31.2738L23.576 28.5598C24.4347 27.8238 25.37 27.1645 26.382 26.5818C27.4247 25.9991 28.544 25.5391 29.74 25.2018C30.9667 24.8645 32.27 24.6958 33.65 24.6958C35.7047 24.6958 37.468 25.0485 38.94 25.7538C40.412 26.4591 41.5467 27.4711 42.344 28.7898C43.172 30.0778 43.586 31.6265 43.586 33.4358C43.586 34.7238 43.3867 35.9505 42.988 37.1158C42.5893 38.2505 42.022 39.3698 41.286 40.4738C40.55 41.5778 39.6607 42.6971 38.618 43.8318C37.5753 44.9665 36.4253 46.1471 35.168 47.3738L28.314 54.1358V54.3198H44.92V57.9998Z" fill="#555555"/>
</svg>
