<svg width="580" height="80" viewBox="0 0 580 80" fill="none" xmlns="http://www.w3.org/2000/svg">
<path d="M16 2H564C571.732 2 578 8.26802 578 16V64C578 71.732 571.732 78 564 78H16C8.26802 78 2 71.732 2 64V16C2 8.26801 8.26801 2 16 2Z" fill="white" stroke="#CECECE" stroke-width="4"/>
<path d="M124.031 41.5319C124.031 44.1999 123.831 46.5766 123.433 48.6619C123.034 50.7472 122.39 52.5259 121.501 53.9979C120.642 55.4392 119.507 56.5432 118.097 57.3099C116.717 58.0766 115.045 58.4599 113.083 58.4599C110.629 58.4599 108.59 57.7852 106.965 56.4359C105.37 55.0866 104.174 53.1546 103.377 50.6399C102.61 48.0946 102.227 45.0586 102.227 41.5319C102.227 37.9746 102.579 34.9386 103.285 32.4239C104.021 29.9092 105.186 27.9926 106.781 26.6739C108.375 25.3246 110.476 24.6499 113.083 24.6499C115.536 24.6499 117.575 25.3246 119.201 26.6739C120.826 27.9926 122.037 29.9092 122.835 32.4239C123.632 34.9386 124.031 37.9746 124.031 41.5319ZM106.275 41.5319C106.275 44.5372 106.489 47.0366 106.919 49.0299C107.379 51.0232 108.099 52.5259 109.081 53.5379C110.093 54.5192 111.427 55.0099 113.083 55.0099C114.739 55.0099 116.057 54.5192 117.039 53.5379C118.051 52.5566 118.787 51.0692 119.247 49.0759C119.707 47.0519 119.937 44.5372 119.937 41.5319C119.937 38.5266 119.707 36.0426 119.247 34.0799C118.787 32.0866 118.051 30.5992 117.039 29.6179C116.057 28.6059 114.739 28.0999 113.083 28.0999C111.427 28.0999 110.093 28.6059 109.081 29.6179C108.099 30.5992 107.379 32.0866 106.919 34.0799C106.489 36.0426 106.275 38.5266 106.275 41.5319Z" fill="#555555"/>
<path d="M97.7063 41.5319C97.7063 44.1999 97.507 46.5766 97.1083 48.6619C96.7097 50.7472 96.0657 52.5259 95.1763 53.9979C94.3177 55.4392 93.183 56.5432 91.7723 57.3099C90.3923 58.0766 88.721 58.4599 86.7583 58.4599C84.305 58.4599 82.2657 57.7852 80.6403 56.4359C79.0457 55.0866 77.8497 53.1546 77.0523 50.6399C76.2857 48.0946 75.9023 45.0586 75.9023 41.5319C75.9023 37.9746 76.255 34.9386 76.9603 32.4239C77.6963 29.9092 78.8617 27.9926 80.4563 26.6739C82.051 25.3246 84.1517 24.6499 86.7583 24.6499C89.2117 24.6499 91.251 25.3246 92.8763 26.6739C94.5017 27.9926 95.713 29.9092 96.5103 32.4239C97.3077 34.9386 97.7063 37.9746 97.7063 41.5319ZM79.9503 41.5319C79.9503 44.5372 80.165 47.0366 80.5943 49.0299C81.0543 51.0232 81.775 52.5259 82.7563 53.5379C83.7683 54.5192 85.1023 55.0099 86.7583 55.0099C88.4143 55.0099 89.733 54.5192 90.7143 53.5379C91.7263 52.5566 92.4623 51.0692 92.9223 49.0759C93.3823 47.0519 93.6123 44.5372 93.6123 41.5319C93.6123 38.5266 93.3823 36.0426 92.9223 34.0799C92.4623 32.0866 91.7263 30.5992 90.7143 29.6179C89.733 28.6059 88.4143 28.0999 86.7583 28.0999C85.1023 28.0999 83.7683 28.6059 82.7563 29.6179C81.775 30.5992 81.0543 32.0866 80.5943 34.0799C80.165 36.0426 79.9503 38.5266 79.9503 41.5319Z" fill="#555555"/>
<path d="M71.3821 41.5319C71.3821 44.1999 71.1828 46.5766 70.7841 48.6619C70.3855 50.7472 69.7415 52.5259 68.8521 53.9979C67.9935 55.4392 66.8588 56.5432 65.4481 57.3099C64.0681 58.0766 62.3968 58.4599 60.4341 58.4599C57.9808 58.4599 55.9415 57.7852 54.3161 56.4359C52.7215 55.0866 51.5255 53.1546 50.7281 50.6399C49.9615 48.0946 49.5781 45.0586 49.5781 41.5319C49.5781 37.9746 49.9308 34.9386 50.6361 32.4239C51.3721 29.9092 52.5375 27.9926 54.1321 26.6739C55.7268 25.3246 57.8275 24.6499 60.4341 24.6499C62.8875 24.6499 64.9268 25.3246 66.5521 26.6739C68.1775 27.9926 69.3888 29.9092 70.1861 32.4239C70.9835 34.9386 71.3821 37.9746 71.3821 41.5319ZM53.6261 41.5319C53.6261 44.5372 53.8408 47.0366 54.2701 49.0299C54.7301 51.0232 55.4508 52.5259 56.4321 53.5379C57.4441 54.5192 58.7781 55.0099 60.4341 55.0099C62.0901 55.0099 63.4088 54.5192 64.3901 53.5379C65.4021 52.5566 66.1381 51.0692 66.5981 49.0759C67.0581 47.0519 67.2881 44.5372 67.2881 41.5319C67.2881 38.5266 67.0581 36.0426 66.5981 34.0799C66.1381 32.0866 65.4021 30.5992 64.3901 29.6179C63.4088 28.6059 62.0901 28.0999 60.4341 28.0999C58.7781 28.0999 57.4441 28.6059 56.4321 29.6179C55.4508 30.5992 54.7301 32.0866 54.2701 34.0799C53.8408 36.0426 53.6261 38.5266 53.6261 41.5319Z" fill="#555555"/>
<path d="M37.3302 57.9998H33.3742V35.0458C33.3742 34.1564 33.3742 33.4051 33.3742 32.7918C33.4049 32.1784 33.4356 31.6111 33.4662 31.0898C33.4969 30.5378 33.5276 29.9704 33.5582 29.3878C33.0676 29.8784 32.6229 30.2924 32.2242 30.6298C31.8256 30.9671 31.3196 31.3964 30.7062 31.9178L27.2102 34.7698L25.0942 32.0558L33.9722 25.1558H37.3302V57.9998Z" fill="#555555"/>
</svg>
