<svg width="580" height="80" viewBox="0 0 580 80" fill="none" xmlns="http://www.w3.org/2000/svg">
<path d="M0 16C0 7.16344 7.16344 0 16 0H564C572.837 0 580 7.16344 580 16V64C580 72.8366 572.837 80 564 80H16C7.16345 80 0 72.8366 0 64V16Z" fill="white"/>
<path d="M564 76V80H16V76H564ZM576 64V16C576 9.37259 570.627 4 564 4H16C9.37258 4 4 9.37258 4 16V64C4 70.6274 9.37258 76 16 76V80C7.30156 80 0.223981 73.0587 0.00488281 64.4131L0 64V16C0 7.30155 6.94127 0.22398 15.5869 0.00488281L16 0H564L564.413 0.00488281C573.059 0.223985 580 7.30156 580 16V64C580 72.8366 572.837 80 564 80V76C570.627 76 576 70.6274 576 64Z" fill="#CECECE"/>
<path d="M182.339 41.5319C182.339 44.1999 182.14 46.5766 181.741 48.6619C181.342 50.7472 180.698 52.5259 179.809 53.9979C178.95 55.4392 177.816 56.5432 176.405 57.3099C175.025 58.0766 173.354 58.4599 171.391 58.4599C168.938 58.4599 166.898 57.7852 165.273 56.4359C163.678 55.0866 162.482 53.1546 161.685 50.6399C160.918 48.0946 160.535 45.0586 160.535 41.5319C160.535 37.9746 160.888 34.9386 161.593 32.4239C162.329 29.9092 163.494 27.9926 165.089 26.6739C166.684 25.3246 168.784 24.6499 171.391 24.6499C173.844 24.6499 175.884 25.3246 177.509 26.6739C179.134 27.9926 180.346 29.9092 181.143 32.4239C181.94 34.9386 182.339 37.9746 182.339 41.5319ZM164.583 41.5319C164.583 44.5372 164.798 47.0366 165.227 49.0299C165.687 51.0232 166.408 52.5259 167.389 53.5379C168.401 54.5192 169.735 55.0099 171.391 55.0099C173.047 55.0099 174.366 54.5192 175.347 53.5379C176.359 52.5566 177.095 51.0692 177.555 49.0759C178.015 47.0519 178.245 44.5372 178.245 41.5319C178.245 38.5266 178.015 36.0426 177.555 34.0799C177.095 32.0866 176.359 30.5992 175.347 29.6179C174.366 28.6059 173.047 28.0999 171.391 28.0999C169.735 28.0999 168.401 28.6059 167.389 29.6179C166.408 30.5992 165.687 32.0866 165.227 34.0799C164.798 36.0426 164.583 38.5266 164.583 41.5319Z" fill="#555555"/>
<path d="M156.015 41.5319C156.015 44.1999 155.816 46.5766 155.417 48.6619C155.018 50.7472 154.374 52.5259 153.485 53.9979C152.626 55.4392 151.492 56.5432 150.081 57.3099C148.701 58.0766 147.03 58.4599 145.067 58.4599C142.614 58.4599 140.574 57.7852 138.949 56.4359C137.354 55.0866 136.158 53.1546 135.361 50.6399C134.594 48.0946 134.211 45.0586 134.211 41.5319C134.211 37.9746 134.564 34.9386 135.269 32.4239C136.005 29.9092 137.17 27.9926 138.765 26.6739C140.36 25.3246 142.46 24.6499 145.067 24.6499C147.52 24.6499 149.56 25.3246 151.185 26.6739C152.81 27.9926 154.022 29.9092 154.819 32.4239C155.616 34.9386 156.015 37.9746 156.015 41.5319ZM138.259 41.5319C138.259 44.5372 138.474 47.0366 138.903 49.0299C139.363 51.0232 140.084 52.5259 141.065 53.5379C142.077 54.5192 143.411 55.0099 145.067 55.0099C146.723 55.0099 148.042 54.5192 149.023 53.5379C150.035 52.5566 150.771 51.0692 151.231 49.0759C151.691 47.0519 151.921 44.5372 151.921 41.5319C151.921 38.5266 151.691 36.0426 151.231 34.0799C150.771 32.0866 150.035 30.5992 149.023 29.6179C148.042 28.6059 146.723 28.0999 145.067 28.0999C143.411 28.0999 142.077 28.6059 141.065 29.6179C140.084 30.5992 139.363 32.0866 138.903 34.0799C138.474 36.0426 138.259 38.5266 138.259 41.5319Z" fill="#555555"/>
<path d="M129.691 41.5319C129.691 44.1999 129.491 46.5766 129.093 48.6619C128.694 50.7472 128.05 52.5259 127.161 53.9979C126.302 55.4392 125.167 56.5432 123.757 57.3099C122.377 58.0766 120.705 58.4599 118.743 58.4599C116.289 58.4599 114.25 57.7852 112.625 56.4359C111.03 55.0866 109.834 53.1546 109.037 50.6399C108.27 48.0946 107.887 45.0586 107.887 41.5319C107.887 37.9746 108.239 34.9386 108.945 32.4239C109.681 29.9092 110.846 27.9926 112.441 26.6739C114.035 25.3246 116.136 24.6499 118.743 24.6499C121.196 24.6499 123.235 25.3246 124.861 26.6739C126.486 27.9926 127.697 29.9092 128.495 32.4239C129.292 34.9386 129.691 37.9746 129.691 41.5319ZM111.935 41.5319C111.935 44.5372 112.149 47.0366 112.579 49.0299C113.039 51.0232 113.759 52.5259 114.741 53.5379C115.753 54.5192 117.087 55.0099 118.743 55.0099C120.399 55.0099 121.717 54.5192 122.699 53.5379C123.711 52.5566 124.447 51.0692 124.907 49.0759C125.367 47.0519 125.597 44.5372 125.597 41.5319C125.597 38.5266 125.367 36.0426 124.907 34.0799C124.447 32.0866 123.711 30.5992 122.699 29.6179C121.717 28.6059 120.399 28.0999 118.743 28.0999C117.087 28.0999 115.753 28.6059 114.741 29.6179C113.759 30.5992 113.039 32.0866 112.579 34.0799C112.149 36.0426 111.935 38.5266 111.935 41.5319Z" fill="#555555"/>
<path d="M102.156 53.1701C101.88 54.2434 101.528 55.4087 101.098 56.6661C100.669 57.9234 100.194 59.1654 99.6724 60.3921C99.1818 61.6494 98.6911 62.8301 98.2004 63.9341H95.2104C95.5171 62.7687 95.8084 61.5114 96.0844 60.1621C96.3911 58.8434 96.6671 57.5401 96.9124 56.2521C97.1578 54.9334 97.3571 53.7374 97.5104 52.6641H101.834L102.156 53.1701Z" fill="#555555"/>
<path d="M90.92 57.9998H69.208V54.6418L77.81 45.9478C79.466 44.2918 80.8613 42.8198 81.996 41.5318C83.1307 40.2438 83.9893 38.9865 84.572 37.7598C85.1547 36.5025 85.446 35.1378 85.446 33.6658C85.446 31.8565 84.9093 30.4918 83.836 29.5718C82.7627 28.6211 81.3673 28.1458 79.65 28.1458C78.0553 28.1458 76.6447 28.4218 75.418 28.9738C74.222 29.5258 72.9953 30.2925 71.738 31.2738L69.576 28.5598C70.4347 27.8238 71.37 27.1645 72.382 26.5818C73.4247 25.9991 74.544 25.5391 75.74 25.2018C76.9667 24.8645 78.27 24.6958 79.65 24.6958C81.7047 24.6958 83.468 25.0485 84.94 25.7538C86.412 26.4591 87.5467 27.4711 88.344 28.7898C89.172 30.0778 89.586 31.6265 89.586 33.4358C89.586 34.7238 89.3867 35.9505 88.988 37.1158C88.5893 38.2505 88.022 39.3698 87.286 40.4738C86.55 41.5778 85.6607 42.6971 84.618 43.8318C83.5753 44.9665 82.4253 46.1471 81.168 47.3738L74.314 54.1358V54.3198H90.92V57.9998Z" fill="#555555"/>
<path d="M41.8842 58V50.226H32.7762V47.788H41.8842V44.476H32.7762V41.992H40.6882L29.5562 24.834H34.4782L39.9522 34.126C40.5042 35.0766 40.9795 35.92 41.3782 36.656C41.7768 37.392 42.1755 38.1127 42.5742 38.818C42.9728 39.4927 43.4175 40.2746 43.9082 41.164H44.1382C44.6595 40.2746 45.1195 39.4773 45.5182 38.772C45.9168 38.0667 46.3155 37.346 46.7142 36.61C47.1435 35.874 47.6035 35.046 48.0942 34.126L53.5222 24.834H58.3982L47.3122 41.992H55.1782V44.476H46.1162V47.788H55.1782V50.226H46.1162V58H41.8842Z" fill="#555555"/>
</svg>
