<svg width="580" height="80" viewBox="0 0 580 80" fill="none" xmlns="http://www.w3.org/2000/svg">
<path d="M0 16C0 7.16344 7.16344 0 16 0H564C572.837 0 580 7.16344 580 16V64C580 72.8366 572.837 80 564 80H16C7.16345 80 0 72.8366 0 64V16Z" fill="white"/>
<path d="M564 76V80H16V76H564ZM576 64V16C576 9.37259 570.627 4 564 4H16C9.37258 4 4 9.37258 4 16V64C4 70.6274 9.37258 76 16 76V80C7.30156 80 0.223981 73.0587 0.00488281 64.4131L0 64V16C0 7.30155 6.94127 0.22398 15.5869 0.00488281L16 0H564L564.413 0.00488281C573.059 0.223985 580 7.30156 580 16V64C580 72.8366 572.837 80 564 80V76C570.627 76 576 70.6274 576 64Z" fill="#CECECE"/>
<path d="M535 41.0002C532.983 41.0002 531.257 40.2821 529.821 38.846C528.385 37.4099 527.667 35.6835 527.667 33.6668C527.667 31.6502 528.385 29.9238 529.821 28.4877C531.257 27.0516 532.983 26.3335 535 26.3335C537.017 26.3335 538.743 27.0516 540.179 28.4877C541.615 29.9238 542.333 31.6502 542.333 33.6668C542.333 35.6835 541.615 37.4099 540.179 38.846C538.743 40.2821 537.017 41.0002 535 41.0002ZM520.333 55.6668V50.5335C520.333 49.4946 520.601 48.5397 521.136 47.6689C521.67 46.7981 522.381 46.1335 523.267 45.6752C525.161 44.7279 527.086 44.0175 529.042 43.5439C530.997 43.0703 532.983 42.8335 535 42.8335C537.017 42.8335 539.003 43.0703 540.958 43.5439C542.914 44.0175 544.839 44.7279 546.733 45.6752C547.62 46.1335 548.33 46.7981 548.865 47.6689C549.399 48.5397 549.667 49.4946 549.667 50.5335V55.6668H520.333Z" fill="#555555"/>
<path d="M283.658 32.8838C285.774 32.8838 287.584 33.3438 289.086 34.2638C290.62 35.1838 291.785 36.4871 292.582 38.1738C293.41 39.8298 293.824 41.7771 293.824 44.0158V46.4538H276.942C277.004 49.2445 277.709 51.3758 279.058 52.8478C280.438 54.2891 282.355 55.0098 284.808 55.0098C286.372 55.0098 287.752 54.8718 288.948 54.5958C290.175 54.2891 291.432 53.8598 292.72 53.3078V56.8498C291.463 57.4018 290.221 57.8005 288.994 58.0458C287.768 58.3218 286.311 58.4598 284.624 58.4598C282.294 58.4598 280.224 57.9845 278.414 57.0338C276.636 56.0831 275.24 54.6725 274.228 52.8018C273.247 50.9005 272.756 48.5851 272.756 45.8558C272.756 43.1571 273.201 40.8418 274.09 38.9098C275.01 36.9778 276.283 35.4905 277.908 34.4478C279.564 33.4051 281.481 32.8838 283.658 32.8838ZM283.612 36.1958C281.68 36.1958 280.147 36.8245 279.012 38.0818C277.908 39.3085 277.249 41.0258 277.034 43.2338H289.592C289.592 41.8231 289.378 40.5965 288.948 39.5538C288.519 38.5111 287.86 37.6985 286.97 37.1158C286.112 36.5025 284.992 36.1958 283.612 36.1958Z" fill="#555555"/>
<path d="M258.194 32.8838C260.985 32.8838 263.07 33.6045 264.45 35.0458C265.83 36.4565 266.52 38.7565 266.52 41.9458V57.9998H262.518V42.1298C262.518 40.1978 262.104 38.7411 261.276 37.7598C260.479 36.7785 259.222 36.2878 257.504 36.2878C255.112 36.2878 253.395 36.9778 252.352 38.3578C251.34 39.7378 250.834 41.7465 250.834 44.3838V57.9998H246.832V42.1298C246.832 40.8418 246.648 39.7685 246.28 38.9098C245.912 38.0205 245.36 37.3611 244.624 36.9318C243.888 36.5025 242.938 36.2878 241.772 36.2878C240.116 36.2878 238.813 36.6405 237.862 37.3458C236.912 38.0205 236.222 39.0171 235.792 40.3358C235.394 41.6545 235.194 43.2798 235.194 45.2118V57.9998H231.146V33.3438H234.412L235.01 36.7018H235.24C235.762 35.8431 236.39 35.1378 237.126 34.5858C237.893 34.0031 238.736 33.5738 239.656 33.2978C240.576 33.0218 241.527 32.8838 242.508 32.8838C244.41 32.8838 245.989 33.2211 247.246 33.8958C248.534 34.5705 249.47 35.6131 250.052 37.0238H250.282C251.11 35.6131 252.23 34.5705 253.64 33.8958C255.082 33.2211 256.6 32.8838 258.194 32.8838Z" fill="#555555"/>
<path d="M214.699 32.9302C217.705 32.9302 219.928 33.5895 221.369 34.9082C222.811 36.2268 223.531 38.3275 223.531 41.2102V58.0002H220.587L219.805 54.5042H219.621C218.916 55.3935 218.18 56.1448 217.413 56.7582C216.677 57.3408 215.819 57.7702 214.837 58.0462C213.887 58.3222 212.721 58.4602 211.341 58.4602C209.869 58.4602 208.535 58.1995 207.339 57.6782C206.174 57.1568 205.254 56.3595 204.579 55.2862C203.905 54.1822 203.567 52.8022 203.567 51.1462C203.567 48.6928 204.533 46.8068 206.465 45.4882C208.397 44.1388 211.372 43.4028 215.389 43.2802L219.575 43.1422V41.6702C219.575 39.6155 219.131 38.1895 218.241 37.3922C217.352 36.5948 216.095 36.1962 214.469 36.1962C213.181 36.1962 211.955 36.3955 210.789 36.7942C209.624 37.1622 208.535 37.5915 207.523 38.0822L206.281 35.0462C207.355 34.4635 208.627 33.9728 210.099 33.5742C211.571 33.1448 213.105 32.9302 214.699 32.9302ZM215.895 46.0862C212.829 46.2088 210.697 46.6995 209.501 47.5582C208.336 48.4168 207.753 49.6282 207.753 51.1922C207.753 52.5722 208.167 53.5842 208.995 54.2282C209.854 54.8722 210.943 55.1942 212.261 55.1942C214.347 55.1942 216.079 54.6268 217.459 53.4922C218.839 52.3268 219.529 50.5482 219.529 48.1562V45.9482L215.895 46.0862Z" fill="#555555"/>
<path d="M197 57.9998H192.17L174.598 30.7218H174.414C174.445 31.2738 174.475 31.8871 174.506 32.5618C174.567 33.2364 174.613 33.9724 174.644 34.7698C174.675 35.5364 174.705 36.3338 174.736 37.1618C174.767 37.9898 174.782 38.8178 174.782 39.6458V57.9998H170.964V25.1558H175.748L193.274 52.3418H193.458C193.427 51.9738 193.397 51.4678 193.366 50.8238C193.335 50.1491 193.305 49.4131 193.274 48.6158C193.243 47.7878 193.213 46.9444 193.182 46.0858C193.151 45.2271 193.136 44.4298 193.136 43.6938V25.1558H197V57.9998Z" fill="#555555"/>
<path d="M162.91 32.8838C163.37 32.8838 163.861 32.9145 164.382 32.9758C164.934 33.0065 165.409 33.0678 165.808 33.1598L165.302 36.8858C164.903 36.7938 164.459 36.7171 163.968 36.6558C163.508 36.5945 163.063 36.5638 162.634 36.5638C161.683 36.5638 160.779 36.7631 159.92 37.1618C159.061 37.5605 158.295 38.1278 157.62 38.8638C156.945 39.5691 156.409 40.4278 156.01 41.4398C155.642 42.4518 155.458 43.5865 155.458 44.8438V57.9998H151.41V33.3438H154.722L155.182 37.8518H155.366C155.887 36.9318 156.516 36.1038 157.252 35.3678C157.988 34.6011 158.831 34.0031 159.782 33.5738C160.733 33.1138 161.775 32.8838 162.91 32.8838Z" fill="#555555"/>
<path d="M134.967 32.8838C137.083 32.8838 138.892 33.3438 140.395 34.2638C141.928 35.1838 143.094 36.4871 143.891 38.1738C144.719 39.8298 145.133 41.7771 145.133 44.0158V46.4538H128.251C128.312 49.2445 129.018 51.3758 130.367 52.8478C131.747 54.2891 133.664 55.0098 136.117 55.0098C137.681 55.0098 139.061 54.8718 140.257 54.5958C141.484 54.2891 142.741 53.8598 144.029 53.3078V56.8498C142.772 57.4018 141.53 57.8005 140.303 58.0458C139.076 58.3218 137.62 58.4598 135.933 58.4598C133.602 58.4598 131.532 57.9845 129.723 57.0338C127.944 56.0831 126.549 54.6725 125.537 52.8018C124.556 50.9005 124.065 48.5851 124.065 45.8558C124.065 43.1571 124.51 40.8418 125.399 38.9098C126.319 36.9778 127.592 35.4905 129.217 34.4478C130.873 33.4051 132.79 32.8838 134.967 32.8838ZM134.921 36.1958C132.989 36.1958 131.456 36.8245 130.321 38.0818C129.217 39.3085 128.558 41.0258 128.343 43.2338H140.901C140.901 41.8231 140.686 40.5965 140.257 39.5538C139.828 38.5111 139.168 37.6985 138.279 37.1158C137.42 36.5025 136.301 36.1958 134.921 36.1958Z" fill="#555555"/>
<path d="M108.878 32.8838C111.822 32.8838 114.045 33.6045 115.548 35.0458C117.05 36.4565 117.802 38.7565 117.802 41.9458V57.9998H113.8V42.2218C113.8 40.2285 113.355 38.7411 112.466 37.7598C111.576 36.7785 110.181 36.2878 108.28 36.2878C105.55 36.2878 103.664 37.0545 102.622 38.5878C101.579 40.1211 101.058 42.3291 101.058 45.2118V57.9998H97.0098V33.3438H100.276L100.874 36.7018H101.104C101.656 35.8431 102.33 35.1378 103.128 34.5858C103.956 34.0031 104.86 33.5738 105.842 33.2978C106.823 33.0218 107.835 32.8838 108.878 32.8838Z" fill="#555555"/>
<path d="M76.7634 44.0619C76.5794 43.4179 76.3954 42.7892 76.2114 42.1758C76.0274 41.5318 75.8587 40.9339 75.7054 40.3819C75.5827 39.7992 75.46 39.2625 75.3374 38.7719C75.2147 38.2812 75.1227 37.8672 75.0614 37.5299H74.8774C74.816 37.8672 74.724 38.2812 74.6014 38.7719C74.5094 39.2625 74.3867 39.7992 74.2334 40.3819C74.1107 40.9645 73.9574 41.5779 73.7734 42.2219C73.62 42.8352 73.436 43.4638 73.2214 44.1078L68.8054 57.9538H64.2054L57.4434 33.2979H61.6294L65.0334 46.4538C65.2787 47.3432 65.5087 48.2479 65.7234 49.1679C65.938 50.0572 66.122 50.9159 66.2754 51.7439C66.4594 52.5412 66.582 53.2312 66.6434 53.8139H66.8274C66.9194 53.4459 67.0267 52.9858 67.1494 52.4338C67.272 51.8818 67.3947 51.2992 67.5174 50.6859C67.6707 50.0725 67.824 49.4592 67.9774 48.8459C68.1614 48.2325 68.33 47.6805 68.4834 47.1898L72.8534 33.2979H77.2694L81.5014 47.1898C81.716 47.8952 81.9307 48.6465 82.1454 49.4439C82.3907 50.2412 82.6054 51.0232 82.7894 51.7899C82.9734 52.5259 83.096 53.1852 83.1574 53.7678H83.3414C83.4027 53.2465 83.51 52.6025 83.6634 51.8358C83.8474 51.0385 84.0467 50.1798 84.2614 49.2598C84.5067 48.3092 84.752 47.3738 84.9974 46.4538L88.4474 33.2979H92.5874L85.7334 57.9538H80.9954L76.7634 44.0619Z" fill="#555555"/>
<path d="M54.1202 41.5319C54.1202 44.0772 53.7982 46.3926 53.1542 48.4779C52.5102 50.5326 51.5442 52.3112 50.2562 53.8139C48.9988 55.3166 47.4195 56.4666 45.5182 57.2639C43.6475 58.0612 41.4702 58.4599 38.9862 58.4599C36.4102 58.4599 34.1715 58.0612 32.2702 57.2639C30.3688 56.4359 28.7895 55.2859 27.5322 53.8139C26.2748 52.3112 25.3395 50.5172 24.7262 48.4319C24.1128 46.3466 23.8062 44.0312 23.8062 41.4859C23.8062 38.1126 24.3582 35.1686 25.4622 32.6539C26.5662 30.1392 28.2375 28.1766 30.4762 26.7659C32.7455 25.3552 35.5975 24.6499 39.0322 24.6499C42.3135 24.6499 45.0735 25.3552 47.3122 26.7659C49.5508 28.1459 51.2375 30.1086 52.3722 32.6539C53.5375 35.1686 54.1202 38.1279 54.1202 41.5319ZM28.1762 41.5319C28.1762 44.2919 28.5595 46.6686 29.3262 48.6619C30.0928 50.6552 31.2735 52.1886 32.8682 53.2619C34.4935 54.3352 36.5328 54.8719 38.9862 54.8719C41.4702 54.8719 43.4942 54.3352 45.0582 53.2619C46.6528 52.1886 47.8335 50.6552 48.6002 48.6619C49.3668 46.6686 49.7502 44.2919 49.7502 41.5319C49.7502 37.3919 48.8915 34.1566 47.1742 31.8259C45.4568 29.4646 42.7428 28.2839 39.0322 28.2839C36.5482 28.2839 34.4935 28.8206 32.8682 29.8939C31.2735 30.9366 30.0928 32.4546 29.3262 34.4479C28.5595 36.4106 28.1762 38.7719 28.1762 41.5319Z" fill="#555555"/>
</svg>
