<svg width="580" height="165" viewBox="0 0 580 165" fill="none" xmlns="http://www.w3.org/2000/svg">
<path d="M0 16C0 7.16344 7.16344 0 16 0H564C572.837 0 580 7.16344 580 16V148.133C580 156.969 572.837 164.133 564 164.133H16C7.16345 164.133 0 156.969 0 148.133V16Z" fill="white"/>
<path d="M14.4277 160.031C14.9405 160.098 15.4652 160.133 16 160.133V164.133L15.5869 164.128C15.0201 164.114 14.4608 164.068 13.9102 163.996L14.4277 160.031ZM17.9863 160.133V164.133H16V160.133H17.9863ZM25.9277 160.133V164.133H21.957V160.133H25.9277ZM33.8701 160.133V164.133H29.8994V160.133H33.8701ZM41.8125 160.133V164.133H37.8408V160.133H41.8125ZM49.7539 160.133V164.133H45.7832V160.133H49.7539ZM57.6963 160.133V164.133H53.7256V160.133H57.6963ZM65.6387 160.133V164.133H61.667V160.133H65.6387ZM73.5801 160.133V164.133H69.6094V160.133H73.5801ZM81.5225 160.133V164.133H77.5508V160.133H81.5225ZM89.4639 160.133V164.133H85.4932V160.133H89.4639ZM97.4062 160.133V164.133H93.4355V160.133H97.4062ZM105.349 160.133V164.133H101.377V160.133H105.349ZM113.29 160.133V164.133H109.319V160.133H113.29ZM121.232 160.133V164.133H117.262V160.133H121.232ZM129.175 160.133V164.133H125.203V160.133H129.175ZM137.116 160.133V164.133H133.146V160.133H137.116ZM145.059 160.133V164.133H141.087V160.133H145.059ZM153 160.133V164.133H149.029V160.133H153ZM160.942 160.133V164.133H156.972V160.133H160.942ZM168.885 160.133V164.133H164.913V160.133H168.885ZM176.826 160.133V164.133H172.855V160.133H176.826ZM184.769 160.133V164.133H180.798V160.133H184.769ZM192.711 160.133V164.133H188.739V160.133H192.711ZM200.652 160.133V164.133H196.682V160.133H200.652ZM208.595 160.133V164.133H204.623V160.133H208.595ZM216.536 160.133V164.133H212.565V160.133H216.536ZM224.479 160.133V164.133H220.508V160.133H224.479ZM232.421 160.133V164.133H228.449V160.133H232.421ZM240.362 160.133V164.133H236.392V160.133H240.362ZM248.305 160.133V164.133H244.334V160.133H248.305ZM256.247 160.133V164.133H252.275V160.133H256.247ZM264.188 160.133V164.133H260.218V160.133H264.188ZM272.131 160.133V164.133H268.159V160.133H272.131ZM280.072 160.133V164.133H276.102V160.133H280.072ZM288.015 160.133V164.133H284.044V160.133H288.015ZM295.957 160.133V164.133H291.985V160.133H295.957ZM303.898 160.133V164.133H299.928V160.133H303.898ZM311.841 160.133V164.133H307.87V160.133H311.841ZM319.783 160.133V164.133H315.812V160.133H319.783ZM327.725 160.133V164.133H323.754V160.133H327.725ZM335.667 160.133V164.133H331.695V160.133H335.667ZM343.608 160.133V164.133H339.638V160.133H343.608ZM351.551 160.133V164.133H347.58V160.133H351.551ZM359.493 160.133V164.133H355.521V160.133H359.493ZM367.435 160.133V164.133H363.464V160.133H367.435ZM375.377 160.133V164.133H371.406V160.133H375.377ZM383.319 160.133V164.133H379.348V160.133H383.319ZM391.261 160.133V164.133H387.29V160.133H391.261ZM399.203 160.133V164.133H395.231V160.133H399.203ZM407.145 160.133V164.133H403.174V160.133H407.145ZM415.087 160.133V164.133H411.116V160.133H415.087ZM423.029 160.133V164.133H419.058V160.133H423.029ZM430.971 160.133V164.133H427V160.133H430.971ZM438.913 160.133V164.133H434.942V160.133H438.913ZM446.855 160.133V164.133H442.884V160.133H446.855ZM454.797 160.133V164.133H450.826V160.133H454.797ZM462.739 160.133V164.133H458.769V160.133H462.739ZM470.681 160.133V164.133H466.71V160.133H470.681ZM478.623 160.133V164.133H474.652V160.133H478.623ZM486.565 160.133V164.133H482.594V160.133H486.565ZM494.507 160.133V164.133H490.536V160.133H494.507ZM502.449 160.133V164.133H498.479V160.133H502.449ZM510.392 160.133V164.133H506.42V160.133H510.392ZM518.333 160.133V164.133H514.362V160.133H518.333ZM526.275 160.133V164.133H522.305V160.133H526.275ZM534.218 160.133V164.133H530.246V160.133H534.218ZM542.159 160.133V164.133H538.188V160.133H542.159ZM550.102 160.133V164.133H546.131V160.133H550.102ZM558.044 160.133V164.133H554.072V160.133H558.044ZM564 160.133V164.133H562.015V160.133H564ZM566.089 163.996C565.539 164.068 564.98 164.114 564.413 164.128L564 164.133V160.133C564.535 160.133 565.059 160.098 565.572 160.031L566.089 163.996ZM8.69629 157.655C9.52318 158.291 10.434 158.82 11.4072 159.224L9.875 162.917C8.57448 162.378 7.36057 161.672 6.25977 160.826L8.69629 157.655ZM573.739 160.826C572.638 161.672 571.425 162.378 570.124 162.917L569.358 161.071L568.593 159.224C569.566 158.82 570.477 158.291 571.304 157.655L573.739 160.826ZM4.90918 152.726C5.31281 153.699 5.84211 154.61 6.47754 155.437L3.30566 157.872C2.45982 156.771 1.75413 155.557 1.21484 154.257L4.90918 152.726ZM578.784 154.257C578.245 155.557 577.539 156.771 576.693 157.872L573.522 155.437C574.158 154.61 574.687 153.699 575.091 152.726L578.784 154.257ZM0 148.133V146.189H4V148.133C4 148.668 4.03468 149.192 4.10156 149.705L0.135742 150.222C0.0639849 149.671 0.0192375 149.112 0.00488281 148.546L0 148.133ZM579.995 148.546C579.981 149.112 579.935 149.671 579.863 150.222L575.898 149.705C575.965 149.192 576 148.668 576 148.133V146.189H580V148.133L579.995 148.546ZM4 138.417V142.304H0V138.417H4ZM580 138.417V142.304H576V138.417H580ZM4 130.645V134.531H0V130.645H4ZM580 130.645V134.531H576V130.645H580ZM4 122.872V126.759H0V122.872H4ZM580 122.872V126.759H576V122.872H580ZM4 115.1V118.986H0V115.1H4ZM580 115.1V118.986H576V115.1H580ZM4 107.327V111.213H0V107.327H4ZM580 107.327V111.213H576V107.327H580ZM4 99.5547V103.44H0V99.5547H4ZM580 99.5547V103.44H576V99.5547H580ZM4 91.7822V95.668H0V91.7822H4ZM580 91.7822V95.668H576V91.7822H580ZM4 84.0098V87.8955H0V84.0098H4ZM580 84.0098V87.8955H576V84.0098H580ZM4 76.2373V80.123H0V76.2373H4ZM580 76.2373V80.123H576V76.2373H580ZM4 68.4648V72.3506H0V68.4648H4ZM580 68.4648V72.3506H576V68.4648H580ZM4 60.6924V64.5781H0V60.6924H4ZM580 60.6924V64.5781H576V60.6924H580ZM4 52.9189V56.8057H0V52.9189H4ZM580 52.9199V56.8057H576V52.9199H580ZM4 45.1465V49.0332H0V45.1465H4ZM580 45.1465V49.0332H576V45.1465H580ZM4 37.374V41.2607H0V37.374H4ZM580 37.374V41.2607H576V37.374H580ZM4 29.6016V33.4883H0V29.6016H4ZM580 29.6016V33.4883H576V29.6016H580ZM4 21.8291V25.7158H0V21.8291H4ZM580 21.8291V25.7158H576V21.8291H580ZM0 16C0 15.2917 0.0465134 14.5942 0.135742 13.9102L4.10156 14.4277C4.03468 14.9405 4 15.4652 4 16V17.9434H0V16ZM580 17.9434H576V16C576 15.4652 575.965 14.9405 575.898 14.4277L579.863 13.9102C579.953 14.5942 580 15.2916 580 16V17.9434ZM6.47754 8.69629C5.84211 9.52318 5.31281 10.434 4.90918 11.4072L1.21484 9.875C1.75419 8.57453 2.45979 7.36054 3.30566 6.25977L6.47754 8.69629ZM576.693 6.25977C577.539 7.36057 578.245 8.57448 578.784 9.875L576.938 10.6416L576.938 10.6406L575.091 11.4072C574.687 10.434 574.158 9.52318 573.522 8.69629L576.693 6.25977ZM11.4072 4.90918C10.434 5.31281 9.52318 5.84211 8.69629 6.47754L6.25977 3.30566C7.36054 2.45979 8.57453 1.75419 9.875 1.21484L11.4072 4.90918ZM570.124 1.21484C571.425 1.75413 572.638 2.45982 573.739 3.30566L571.304 6.47754C570.477 5.84211 569.566 5.31281 568.593 4.90918L570.124 1.21484ZM17.9854 0V4H16C15.4652 4 14.9405 4.03468 14.4277 4.10156L13.9102 0.135742C14.4608 0.0639109 15.0202 0.0192456 15.5869 0.00488281L16 0H17.9854ZM564.413 0.00488281C564.98 0.0192376 565.539 0.0639849 566.089 0.135742L565.572 4.10156C565.188 4.05141 564.797 4.01975 564.399 4.00684L564 4H562.014V0H564L564.413 0.00488281ZM25.9277 0V4H21.9561V0H25.9277ZM33.8691 0V4H29.8984V0H33.8691ZM41.8115 0V4H37.8408V0H41.8115ZM49.7539 0V4H45.7822V0H49.7539ZM57.6953 0V4H53.7246V0H57.6953ZM65.6377 0V4H61.667V0H65.6377ZM73.5801 0V4H69.6084V0H73.5801ZM81.5215 0V4H77.5508V0H81.5215ZM89.4639 0V4H85.4932V0H89.4639ZM97.4062 0V4H93.4346V0H97.4062ZM105.348 0V4H101.377V0H105.348ZM113.29 0V4H109.319V0H113.29ZM121.231 0V4H117.261V0H121.231ZM129.174 0V4H125.203V0H129.174ZM137.116 0V4H133.145V0H137.116ZM145.058 0V4H141.087V0H145.058ZM153 0V4H149.029V0H153ZM160.942 0V4H156.971V0H160.942ZM168.884 0V4H164.913V0H168.884ZM176.826 0V4H172.855V0H176.826ZM184.769 0V4H180.797V0H184.769ZM192.71 0V4H188.739V0H192.71ZM200.652 0V4H196.681V0H200.652ZM208.594 0V4H204.623V0H208.594ZM216.536 0V4H212.565V0H216.536ZM224.479 0V4H220.507V0H224.479ZM232.42 0V4H228.449V0H232.42ZM240.362 0V4H236.392V0H240.362ZM248.305 0V4H244.333V0H248.305ZM256.246 0V4H252.275V0H256.246ZM264.188 0V4H260.217V0H264.188ZM272.13 0V4H268.159V0H272.13ZM280.072 0V4H276.102V0H280.072ZM288.015 0V4H284.043V0H288.015ZM295.956 0V4H291.985V0H295.956ZM303.898 0V4H299.928V0H303.898ZM311.841 0V4H307.869V0H311.841ZM319.782 0V4H315.812V0H319.782ZM327.725 0V4H323.753V0H327.725ZM335.666 0V4H331.695V0H335.666ZM343.608 0V4H339.638V0H343.608ZM351.551 0V4H347.579V0H351.551ZM359.492 0V4H355.521V0H359.492ZM367.435 0V4H363.464V0H367.435ZM375.377 0V4H371.405V0H375.377ZM383.318 0V4H379.348V0H383.318ZM391.261 0V4H387.289V0H391.261ZM399.202 0V4H395.231V0H399.202ZM407.145 0V4H403.174V0H407.145ZM415.087 0V4H411.115V0H415.087ZM423.028 0V4H419.058V0H423.028ZM430.971 0V4H427V0H430.971ZM438.913 0V4H434.941V0H438.913ZM446.854 0V4H442.884V0H446.854ZM454.797 0V4H450.825V0H454.797ZM462.738 0V4H458.768V0H462.738ZM470.681 0V4H466.71V0H470.681ZM478.623 0V4H474.651V0H478.623ZM486.564 0V4H482.594V0H486.564ZM494.507 0V4H490.536V0H494.507ZM502.449 0V4H498.478V0H502.449ZM510.391 0V4H506.42V0H510.391ZM518.333 0V4H514.361V0H518.333ZM526.274 0V4H522.304V0H526.274ZM534.217 0V4H530.246V0H534.217ZM542.159 0V4H538.188V0H542.159ZM550.101 0V4H546.13V0H550.101ZM558.043 0V4H554.072V0H558.043Z" fill="#106EBE"/>
<path d="M511.787 74.84C511.723 75.128 511.667 75.456 511.619 75.824C511.587 76.192 511.555 76.552 511.523 76.904C511.507 77.256 511.499 77.544 511.499 77.768C511.483 78.296 511.475 78.84 511.475 79.4C511.491 79.96 511.507 80.536 511.523 81.128C511.555 81.704 511.595 82.28 511.643 82.856C511.755 84.008 511.915 85.024 512.123 85.904C512.331 86.784 512.603 87.472 512.939 87.968C513.275 88.448 513.699 88.688 514.211 88.688C514.483 88.688 514.747 88.536 515.003 88.232C515.275 87.928 515.515 87.536 515.723 87.056C515.947 86.56 516.139 86.04 516.299 85.496C516.475 84.952 516.627 84.44 516.755 83.96L519.155 86.888C518.627 88.28 518.099 89.392 517.571 90.224C517.059 91.04 516.523 91.632 515.963 92C515.403 92.352 514.795 92.528 514.139 92.528C513.275 92.528 512.451 92.24 511.667 91.664C510.899 91.088 510.243 90.16 509.699 88.88C509.155 87.584 508.771 85.864 508.547 83.72C508.467 82.984 508.403 82.208 508.355 81.392C508.323 80.576 508.299 79.8 508.283 79.064C508.283 78.328 508.283 77.72 508.283 77.24C508.283 76.904 508.267 76.504 508.235 76.04C508.203 75.576 508.155 75.16 508.091 74.792L511.787 74.84ZM523.787 75.392C524.235 75.936 524.667 76.6 525.083 77.384C525.499 78.168 525.883 79.008 526.235 79.904C526.587 80.8 526.899 81.72 527.171 82.664C527.443 83.592 527.659 84.504 527.819 85.4C527.995 86.28 528.107 87.088 528.155 87.824L524.987 89.048C524.907 88.072 524.763 87.008 524.555 85.856C524.347 84.704 524.067 83.544 523.715 82.376C523.363 81.208 522.939 80.104 522.443 79.064C521.963 78.024 521.395 77.128 520.739 76.376L523.787 75.392Z" fill="#555555"/>
<path d="M493.715 74.9602C493.619 74.6882 493.507 74.3522 493.379 73.9522C493.251 73.5522 493.107 73.1522 492.947 72.7522L496.187 72.3682C496.315 72.9922 496.459 73.6162 496.619 74.2402C496.779 74.8482 496.955 75.4482 497.147 76.0402C497.339 76.6162 497.531 77.1602 497.723 77.6722C498.091 78.6642 498.523 79.6402 499.019 80.6002C499.531 81.5442 499.979 82.2882 500.363 82.8322C500.571 83.1362 500.779 83.4242 500.987 83.6962C501.211 83.9522 501.435 84.2002 501.659 84.4402L500.171 86.6002C499.835 86.5362 499.411 86.4722 498.899 86.4082C498.387 86.3282 497.827 86.2562 497.219 86.1922C496.627 86.1282 496.027 86.0642 495.419 86.0002C494.827 85.9362 494.283 85.8882 493.787 85.8562L494.027 83.3122C494.427 83.3442 494.851 83.3842 495.299 83.4322C495.747 83.4642 496.163 83.4962 496.547 83.5282C496.947 83.5602 497.275 83.5842 497.531 83.6002C497.243 83.1362 496.939 82.6082 496.619 82.0162C496.299 81.4242 495.987 80.8082 495.683 80.1682C495.379 79.5122 495.099 78.8562 494.843 78.2002C494.587 77.5282 494.363 76.9202 494.171 76.3762C493.995 75.8322 493.843 75.3602 493.715 74.9602ZM484.979 76.0882C486.467 76.2642 487.867 76.3842 489.179 76.4482C490.491 76.5122 491.715 76.5282 492.851 76.4962C493.987 76.4642 495.027 76.3922 495.971 76.2802C496.707 76.1842 497.419 76.0802 498.107 75.9682C498.811 75.8562 499.499 75.7202 500.171 75.5602C500.859 75.4002 501.507 75.2242 502.115 75.0322L502.499 78.0562C501.971 78.2002 501.395 78.3362 500.771 78.4642C500.163 78.5922 499.531 78.7122 498.875 78.8242C498.219 78.9202 497.571 79.0082 496.931 79.0882C495.315 79.2642 493.539 79.3682 491.603 79.4002C489.667 79.4322 487.475 79.3522 485.027 79.1602L484.979 76.0882ZM489.779 84.2722C489.411 84.8322 489.123 85.3842 488.915 85.9282C488.707 86.4562 488.603 86.9842 488.603 87.5122C488.603 88.5202 489.043 89.2562 489.923 89.7202C490.803 90.1682 492.059 90.3922 493.691 90.3922C495.003 90.3922 496.187 90.3362 497.243 90.2242C498.315 90.1122 499.275 89.9762 500.123 89.8162L499.955 92.8402C499.283 92.9682 498.403 93.0962 497.315 93.2242C496.243 93.3522 494.971 93.4162 493.499 93.4162C491.883 93.4002 490.475 93.1842 489.275 92.7682C488.075 92.3682 487.147 91.7682 486.491 90.9682C485.835 90.1522 485.507 89.1762 485.507 88.0402C485.507 87.3042 485.611 86.5842 485.819 85.8802C486.043 85.1602 486.363 84.3922 486.779 83.5762L489.779 84.2722Z" fill="#555555"/>
<path d="M468.203 73.112C468.107 73.448 468.003 73.848 467.891 74.312C467.795 74.76 467.723 75.12 467.675 75.392C467.563 75.936 467.419 76.6 467.243 77.384C467.083 78.168 466.907 79 466.715 79.88C466.523 80.744 466.323 81.584 466.115 82.4C465.891 83.232 465.627 84.144 465.323 85.136C465.035 86.128 464.715 87.128 464.363 88.136C464.027 89.144 463.683 90.112 463.331 91.04C462.979 91.968 462.635 92.792 462.299 93.512L458.939 92.384C459.307 91.776 459.683 91.032 460.067 90.152C460.467 89.272 460.859 88.336 461.243 87.344C461.627 86.336 461.979 85.336 462.299 84.344C462.619 83.336 462.891 82.416 463.115 81.584C463.259 81.008 463.403 80.424 463.547 79.832C463.691 79.24 463.819 78.664 463.931 78.104C464.059 77.544 464.163 77.024 464.243 76.544C464.339 76.048 464.411 75.624 464.459 75.272C464.507 74.824 464.539 74.376 464.555 73.928C464.571 73.48 464.563 73.112 464.531 72.824L468.203 73.112ZM462.083 76.712C463.059 76.712 464.075 76.664 465.131 76.568C466.187 76.472 467.251 76.336 468.323 76.16C469.395 75.968 470.459 75.752 471.515 75.512V78.512C470.523 78.752 469.467 78.952 468.347 79.112C467.227 79.272 466.123 79.4 465.035 79.496C463.947 79.576 462.947 79.616 462.035 79.616C461.459 79.616 460.939 79.608 460.475 79.592C460.011 79.56 459.563 79.536 459.131 79.52L459.059 76.52C459.683 76.584 460.219 76.632 460.667 76.664C461.115 76.696 461.587 76.712 462.083 76.712ZM469.619 80.384C470.291 80.304 471.035 80.248 471.851 80.216C472.667 80.168 473.459 80.144 474.227 80.144C474.915 80.144 475.611 80.16 476.315 80.192C477.035 80.224 477.747 80.28 478.451 80.36L478.379 83.24C477.787 83.16 477.131 83.088 476.411 83.024C475.707 82.96 474.987 82.928 474.251 82.928C473.419 82.928 472.627 82.952 471.875 83C471.123 83.032 470.371 83.096 469.619 83.192V80.384ZM470.915 86.408C470.819 86.744 470.739 87.096 470.675 87.464C470.611 87.832 470.579 88.144 470.579 88.4C470.579 88.672 470.635 88.92 470.747 89.144C470.859 89.368 471.035 89.568 471.275 89.744C471.515 89.904 471.843 90.032 472.259 90.128C472.691 90.208 473.227 90.248 473.867 90.248C474.667 90.248 475.483 90.208 476.315 90.128C477.147 90.048 477.995 89.928 478.859 89.768L478.739 92.816C478.067 92.912 477.323 92.992 476.507 93.056C475.691 93.136 474.803 93.176 473.843 93.176C471.827 93.176 470.283 92.84 469.211 92.168C468.155 91.496 467.627 90.56 467.627 89.36C467.627 88.8 467.667 88.24 467.747 87.68C467.843 87.12 467.939 86.608 468.035 86.144L470.915 86.408ZM475.883 73.808C476.091 74.096 476.307 74.44 476.531 74.84C476.771 75.24 477.003 75.64 477.227 76.04C477.451 76.44 477.635 76.792 477.779 77.096L475.859 77.936C475.699 77.6 475.515 77.232 475.307 76.832C475.099 76.432 474.883 76.032 474.659 75.632C474.435 75.232 474.211 74.888 473.987 74.6L475.883 73.808ZM478.715 72.728C478.939 73.016 479.171 73.368 479.411 73.784C479.651 74.184 479.883 74.584 480.107 74.984C480.347 75.368 480.531 75.704 480.659 75.992L478.763 76.808C478.507 76.296 478.203 75.728 477.851 75.104C477.499 74.48 477.155 73.944 476.819 73.496L478.715 72.728Z" fill="#555555"/>
<path d="M451.163 74.6961C450.779 74.9681 450.403 75.2561 450.035 75.5601C449.667 75.8481 449.347 76.1121 449.075 76.3521C448.675 76.6561 448.195 77.0321 447.635 77.4801C447.091 77.9121 446.515 78.3681 445.907 78.8481C445.315 79.3121 444.739 79.7681 444.179 80.2161C443.619 80.6641 443.139 81.0641 442.739 81.4161C442.323 81.7841 442.043 82.0881 441.899 82.3281C441.755 82.5521 441.755 82.7761 441.899 83.0001C442.059 83.2241 442.355 83.5281 442.787 83.9121C443.139 84.2161 443.587 84.5921 444.131 85.0401C444.691 85.4881 445.291 85.9841 445.931 86.5281C446.587 87.0561 447.251 87.6081 447.923 88.1841C448.611 88.7441 449.267 89.3041 449.891 89.8641C450.531 90.4081 451.099 90.9201 451.595 91.4001L448.787 93.9681C448.115 93.2161 447.419 92.4721 446.699 91.7361C446.331 91.3681 445.851 90.9201 445.259 90.3921C444.683 89.8481 444.051 89.2801 443.363 88.6881C442.691 88.0961 442.019 87.5121 441.347 86.9361C440.675 86.3441 440.067 85.8161 439.523 85.3521C438.723 84.6801 438.203 84.0641 437.963 83.5041C437.739 82.9441 437.771 82.3921 438.059 81.8481C438.363 81.2881 438.915 80.6801 439.715 80.0241C440.195 79.6561 440.739 79.2241 441.347 78.7281C441.955 78.2161 442.579 77.6961 443.219 77.1681C443.859 76.6241 444.467 76.1041 445.043 75.6081C445.619 75.0961 446.107 74.6481 446.507 74.2641C446.859 73.9121 447.211 73.5521 447.563 73.1841C447.915 72.8161 448.179 72.4961 448.355 72.2241L451.163 74.6961Z" fill="#555555"/>
<path d="M411.978 75.4883C412.458 75.4723 412.914 75.4563 413.346 75.4403C413.778 75.4083 414.114 75.3843 414.354 75.3683C414.85 75.3203 415.458 75.2643 416.178 75.2003C416.898 75.1363 417.706 75.0643 418.602 74.9843C419.514 74.9043 420.482 74.8243 421.506 74.7443C422.53 74.6483 423.594 74.5523 424.698 74.4563C425.53 74.3923 426.362 74.3363 427.194 74.2883C428.026 74.2243 428.81 74.1763 429.546 74.1443C430.298 74.0963 430.946 74.0643 431.49 74.0483L431.514 77.1203C431.082 77.1203 430.586 77.1283 430.026 77.1443C429.466 77.1603 428.906 77.1923 428.346 77.2403C427.802 77.2723 427.314 77.3363 426.882 77.4323C426.162 77.6243 425.49 77.9523 424.866 78.4163C424.258 78.8643 423.722 79.4003 423.258 80.0243C422.794 80.6483 422.434 81.3203 422.178 82.0403C421.938 82.7443 421.818 83.4563 421.818 84.1763C421.818 84.9603 421.954 85.6563 422.226 86.2643C422.498 86.8563 422.874 87.3683 423.354 87.8003C423.85 88.2163 424.426 88.5683 425.082 88.8563C425.738 89.1283 426.442 89.3363 427.194 89.4803C427.962 89.6243 428.754 89.7203 429.57 89.7683L428.442 93.0563C427.434 92.9923 426.45 92.8323 425.49 92.5763C424.546 92.3203 423.658 91.9683 422.826 91.5203C422.01 91.0723 421.29 90.5283 420.666 89.8883C420.042 89.2323 419.554 88.4883 419.202 87.6563C418.85 86.8083 418.674 85.8643 418.674 84.8243C418.674 83.6563 418.858 82.5923 419.226 81.6323C419.594 80.6723 420.05 79.8323 420.594 79.1123C421.138 78.3763 421.682 77.8083 422.226 77.4083C421.778 77.4563 421.234 77.5203 420.594 77.6003C419.97 77.6643 419.29 77.7443 418.554 77.8403C417.834 77.9203 417.098 78.0083 416.346 78.1043C415.594 78.2003 414.866 78.3123 414.162 78.4403C413.474 78.5523 412.85 78.6643 412.29 78.7763L411.978 75.4883Z" fill="#555555"/>
<path d="M395.904 72.9684C395.84 73.4644 395.776 74.0004 395.712 74.5764C395.664 75.1524 395.624 75.6804 395.592 76.1604C395.576 76.8164 395.544 77.6164 395.496 78.5604C395.464 79.4884 395.432 80.4644 395.4 81.4884C395.384 82.5124 395.36 83.5204 395.328 84.5124C395.312 85.5044 395.304 86.3684 395.304 87.1044C395.304 87.9044 395.448 88.5444 395.736 89.0244C396.04 89.4884 396.44 89.8244 396.936 90.0324C397.432 90.2244 397.992 90.3204 398.616 90.3204C399.608 90.3204 400.512 90.1924 401.328 89.9364C402.144 89.6644 402.888 89.3044 403.56 88.8564C404.232 88.4084 404.832 87.8884 405.36 87.2964C405.904 86.7044 406.392 86.0804 406.824 85.4244L409.008 88.0644C408.624 88.6404 408.12 89.2484 407.496 89.8884C406.872 90.5284 406.128 91.1284 405.264 91.6884C404.416 92.2484 403.432 92.7044 402.312 93.0564C401.192 93.4084 399.952 93.5844 398.592 93.5844C397.28 93.5844 396.136 93.3764 395.16 92.9604C394.2 92.5604 393.448 91.9364 392.904 91.0884C392.376 90.2244 392.112 89.1124 392.112 87.7524C392.112 87.0964 392.12 86.3524 392.136 85.5204C392.152 84.6724 392.176 83.7924 392.208 82.8804C392.24 81.9684 392.264 81.0804 392.28 80.2164C392.296 79.3364 392.312 78.5444 392.328 77.8404C392.344 77.1364 392.352 76.5764 392.352 76.1604C392.352 75.5844 392.328 75.0244 392.28 74.4804C392.232 73.9204 392.152 73.4004 392.04 72.9204L395.904 72.9684Z" fill="#555555"/>
<path d="M382.296 74.4083C382.296 74.7923 382.432 75.1203 382.704 75.3923C382.976 75.6483 383.296 75.7763 383.664 75.7763C384.048 75.7763 384.376 75.6483 384.648 75.3923C384.92 75.1203 385.056 74.7923 385.056 74.4083C385.056 74.0243 384.92 73.6963 384.648 73.4243C384.376 73.1523 384.048 73.0163 383.664 73.0163C383.296 73.0163 382.976 73.1523 382.704 73.4243C382.432 73.6963 382.296 74.0243 382.296 74.4083ZM380.808 74.4083C380.808 73.8803 380.936 73.4003 381.192 72.9683C381.464 72.5203 381.816 72.1683 382.248 71.9123C382.68 71.6563 383.152 71.5283 383.664 71.5283C384.192 71.5283 384.672 71.6563 385.104 71.9123C385.552 72.1683 385.904 72.5203 386.16 72.9683C386.416 73.4003 386.544 73.8803 386.544 74.4083C386.544 74.9203 386.416 75.3923 386.16 75.8243C385.904 76.2563 385.552 76.6083 385.104 76.8803C384.672 77.1363 384.192 77.2643 383.664 77.2643C383.152 77.2643 382.68 77.1363 382.248 76.8803C381.816 76.6083 381.464 76.2563 381.192 75.8243C380.936 75.3923 380.808 74.9203 380.808 74.4083ZM383.712 76.3043C383.6 76.5283 383.504 76.8003 383.424 77.1203C383.344 77.4243 383.264 77.7043 383.184 77.9603C383.056 78.5523 382.888 79.2163 382.68 79.9523C382.472 80.6723 382.224 81.4243 381.936 82.2083C381.648 82.9923 381.304 83.7683 380.904 84.5363C380.52 85.3043 380.08 86.0243 379.584 86.6963C378.864 87.6563 378.024 88.5523 377.064 89.3843C376.104 90.2163 375.032 90.9683 373.848 91.6403C372.664 92.3123 371.36 92.8803 369.936 93.3443L367.32 90.4643C368.92 90.0803 370.296 89.6083 371.448 89.0483C372.6 88.4883 373.6 87.8483 374.448 87.1283C375.312 86.4083 376.072 85.6403 376.728 84.8243C377.256 84.1523 377.704 83.4243 378.072 82.6403C378.456 81.8563 378.768 81.0723 379.008 80.2883C379.264 79.4883 379.44 78.7443 379.536 78.0563C379.296 78.0563 378.896 78.0563 378.336 78.0563C377.792 78.0563 377.144 78.0563 376.392 78.0563C375.656 78.0563 374.88 78.0563 374.064 78.0563C373.264 78.0563 372.488 78.0563 371.736 78.0563C370.984 78.0563 370.304 78.0563 369.696 78.0563C369.104 78.0563 368.664 78.0563 368.376 78.0563C367.816 78.0563 367.272 78.0643 366.744 78.0803C366.232 78.0963 365.824 78.1203 365.52 78.1523V74.7683C365.76 74.8003 366.048 74.8323 366.384 74.8643C366.736 74.8963 367.088 74.9203 367.44 74.9363C367.808 74.9523 368.12 74.9603 368.376 74.9603C368.632 74.9603 368.992 74.9603 369.456 74.9603C369.936 74.9603 370.488 74.9603 371.112 74.9603C371.736 74.9603 372.384 74.9603 373.056 74.9603C373.744 74.9603 374.424 74.9603 375.096 74.9603C375.784 74.9603 376.424 74.9603 377.016 74.9603C377.608 74.9603 378.12 74.9603 378.552 74.9603C378.984 74.9603 379.296 74.9603 379.488 74.9603C379.728 74.9603 380.016 74.9523 380.352 74.9363C380.704 74.9203 381.04 74.8643 381.36 74.7683L383.712 76.3043Z" fill="#555555"/>
<path d="M351.12 77.7441C351.232 78.0001 351.376 78.3681 351.552 78.8481C351.744 79.3121 351.944 79.8161 352.152 80.3601C352.36 80.8881 352.544 81.3921 352.704 81.8721C352.864 82.3521 352.992 82.7281 353.088 83.0001L350.208 84.0081C350.144 83.7041 350.032 83.3201 349.872 82.8561C349.712 82.3921 349.536 81.9041 349.344 81.3921C349.152 80.8641 348.96 80.3601 348.768 79.8801C348.576 79.4001 348.408 79.0001 348.264 78.6801L351.12 77.7441ZM359.976 79.4961C359.848 79.8801 359.736 80.2081 359.64 80.4801C359.56 80.7521 359.48 81.0081 359.4 81.2481C359.096 82.4641 358.68 83.6801 358.152 84.8961C357.624 86.0961 356.952 87.2241 356.136 88.2801C355.016 89.7201 353.744 90.9441 352.32 91.9521C350.912 92.9441 349.504 93.7041 348.096 94.2321L345.576 91.6641C346.456 91.4241 347.384 91.0721 348.36 90.6081C349.336 90.1281 350.28 89.5521 351.192 88.8801C352.104 88.2081 352.888 87.4641 353.544 86.6481C354.088 85.9601 354.568 85.1761 354.984 84.2961C355.416 83.4001 355.768 82.4481 356.04 81.4401C356.328 80.4161 356.52 79.4081 356.616 78.4161L359.976 79.4961ZM345.552 79.0161C345.712 79.3201 345.888 79.7121 346.08 80.1921C346.288 80.6721 346.496 81.1761 346.704 81.7041C346.912 82.2321 347.112 82.7441 347.304 83.2401C347.512 83.7361 347.672 84.1521 347.784 84.4881L344.856 85.5921C344.76 85.2721 344.616 84.8561 344.424 84.3441C344.248 83.8321 344.048 83.2961 343.824 82.7361C343.6 82.1601 343.384 81.6321 343.176 81.1521C342.984 80.6721 342.816 80.3041 342.672 80.0481L345.552 79.0161Z" fill="#555555"/>
<path d="M318.024 74.9844C318.52 75.0004 318.984 75.0164 319.416 75.0324C319.864 75.0324 320.248 75.0324 320.568 75.0324C320.824 75.0324 321.216 75.0324 321.744 75.0324C322.288 75.0324 322.92 75.0324 323.64 75.0324C324.36 75.0324 325.128 75.0324 325.944 75.0324C326.76 75.0324 327.576 75.0324 328.392 75.0324C329.224 75.0324 330 75.0324 330.72 75.0324C331.44 75.0324 332.064 75.0324 332.592 75.0324C333.136 75.0324 333.528 75.0324 333.768 75.0324C334.072 75.0324 334.432 75.0324 334.848 75.0324C335.28 75.0164 335.712 75.0004 336.144 74.9844C336.128 75.3524 336.112 75.7444 336.096 76.1604C336.096 76.5604 336.096 76.9444 336.096 77.3124C336.096 77.5364 336.096 77.8884 336.096 78.3684C336.096 78.8324 336.096 79.3924 336.096 80.0484C336.096 80.6884 336.096 81.3764 336.096 82.1124C336.096 82.8324 336.096 83.5604 336.096 84.2964C336.096 85.0324 336.096 85.7284 336.096 86.3844C336.096 87.0244 336.096 87.5844 336.096 88.0644C336.096 88.5284 336.096 88.8644 336.096 89.0724C336.096 89.3124 336.096 89.6164 336.096 89.9844C336.112 90.3364 336.12 90.6964 336.12 91.0644C336.12 91.4164 336.12 91.7284 336.12 92.0004C336.136 92.2564 336.144 92.3924 336.144 92.4084H332.832C332.832 92.3764 332.832 92.1844 332.832 91.8324C332.848 91.4644 332.856 91.0324 332.856 90.5364C332.872 90.0404 332.88 89.5764 332.88 89.1444C332.88 88.9364 332.88 88.5844 332.88 88.0884C332.88 87.5924 332.88 87.0084 332.88 86.3364C332.88 85.6644 332.88 84.9524 332.88 84.2004C332.88 83.4484 332.88 82.7124 332.88 81.9924C332.88 81.2724 332.88 80.6164 332.88 80.0244C332.88 79.4324 332.88 78.9604 332.88 78.6084C332.88 78.2564 332.88 78.0804 332.88 78.0804H321.288C321.288 78.0804 321.288 78.2564 321.288 78.6084C321.288 78.9604 321.288 79.4324 321.288 80.0244C321.288 80.6004 321.288 81.2564 321.288 81.9924C321.288 82.7124 321.288 83.4484 321.288 84.2004C321.288 84.9364 321.288 85.6484 321.288 86.3364C321.288 87.0084 321.288 87.5924 321.288 88.0884C321.288 88.5844 321.288 88.9364 321.288 89.1444C321.288 89.4324 321.288 89.7604 321.288 90.1284C321.288 90.4804 321.288 90.8244 321.288 91.1604C321.304 91.4964 321.312 91.7764 321.312 92.0004C321.312 92.2404 321.312 92.3764 321.312 92.4084H318C318 92.3764 318 92.2404 318 92.0004C318.016 91.7604 318.024 91.4644 318.024 91.1124C318.04 90.7604 318.048 90.4004 318.048 90.0324C318.064 89.6644 318.072 89.3364 318.072 89.0484C318.072 88.8404 318.072 88.5044 318.072 88.0404C318.072 87.5604 318.072 86.9924 318.072 86.3364C318.072 85.6804 318.072 84.9924 318.072 84.2724C318.072 83.5364 318.072 82.8004 318.072 82.0644C318.072 81.3284 318.072 80.6404 318.072 80.0004C318.072 79.3444 318.072 78.7844 318.072 78.3204C318.072 77.8564 318.072 77.5204 318.072 77.3124C318.072 76.9764 318.072 76.5924 318.072 76.1604C318.072 75.7124 318.056 75.3204 318.024 74.9844ZM334.08 88.0404V91.1124H319.656V88.0404H334.08Z" fill="#555555"/>
<path d="M307.368 74.1442C307.592 74.4642 307.84 74.8402 308.112 75.2722C308.384 75.7042 308.64 76.1362 308.88 76.5682C309.136 77.0002 309.36 77.4002 309.552 77.7682L307.464 78.7042C307.24 78.1922 307.016 77.7362 306.792 77.3362C306.584 76.9362 306.368 76.5522 306.144 76.1842C305.92 75.8002 305.656 75.4002 305.352 74.9842L307.368 74.1442ZM310.512 72.8242C310.752 73.1442 311.008 73.5122 311.28 73.9282C311.568 74.3442 311.84 74.7682 312.096 75.2002C312.368 75.6162 312.592 76.0082 312.768 76.3762L310.752 77.3602C310.496 76.8482 310.248 76.4002 310.008 76.0162C309.784 75.6162 309.552 75.2402 309.312 74.8882C309.088 74.5202 308.824 74.1442 308.52 73.7602L310.512 72.8242ZM297.792 90.0562C297.792 89.7362 297.792 89.2322 297.792 88.5442C297.792 87.8402 297.792 87.0322 297.792 86.1202C297.792 85.1922 297.792 84.2322 297.792 83.2402C297.792 82.2322 297.792 81.2642 297.792 80.3362C297.792 79.3922 297.792 78.5602 297.792 77.8402C297.792 77.1202 297.792 76.5922 297.792 76.2562C297.792 75.8242 297.768 75.3362 297.72 74.7922C297.688 74.2482 297.632 73.7682 297.552 73.3522H301.296C301.248 73.7682 301.2 74.2322 301.152 74.7442C301.104 75.2562 301.08 75.7602 301.08 76.2562C301.08 76.6882 301.08 77.2882 301.08 78.0562C301.08 78.8242 301.08 79.6802 301.08 80.6242C301.08 81.5522 301.08 82.5042 301.08 83.4802C301.08 84.4562 301.08 85.3922 301.08 86.2882C301.08 87.1682 301.08 87.9442 301.08 88.6162C301.08 89.2722 301.08 89.7522 301.08 90.0562C301.08 90.2642 301.088 90.5762 301.104 90.9922C301.136 91.3922 301.168 91.8082 301.2 92.2402C301.248 92.6722 301.288 93.0562 301.32 93.3922H297.552C297.632 92.9282 297.688 92.3762 297.72 91.7362C297.768 91.0802 297.792 90.5202 297.792 90.0562ZM300.384 79.5682C301.184 79.7762 302.072 80.0482 303.048 80.3842C304.04 80.7042 305.04 81.0562 306.048 81.4402C307.056 81.8082 308.008 82.1762 308.904 82.5442C309.8 82.8962 310.536 83.2162 311.112 83.5042L309.768 86.8402C309.08 86.4722 308.328 86.1122 307.512 85.7602C306.696 85.4082 305.864 85.0642 305.016 84.7282C304.184 84.3762 303.368 84.0562 302.568 83.7682C301.768 83.4802 301.04 83.2322 300.384 83.0242V79.5682Z" fill="#555555"/>
<path d="M277.344 92.2884C276.016 92.2884 274.888 92.0804 273.96 91.6644C273.048 91.2484 272.36 90.6644 271.896 89.9124C271.432 89.1604 271.2 88.3044 271.2 87.3444C271.2 86.4644 271.4 85.7044 271.8 85.0644C272.216 84.4244 272.736 83.8564 273.36 83.3604C274 82.8644 274.68 82.4164 275.4 82.0164C276.12 81.6164 276.792 81.2244 277.416 80.8404C278.056 80.4404 278.576 80.0084 278.976 79.5444C279.392 79.0804 279.6 78.5524 279.6 77.9604C279.6 77.4324 279.448 77.0084 279.144 76.6884C278.856 76.3684 278.456 76.2084 277.944 76.2084C277.368 76.2084 276.912 76.3924 276.576 76.7604C276.24 77.1124 276.072 77.6244 276.072 78.2964C276.072 78.8404 276.24 79.4164 276.576 80.0244C276.912 80.6324 277.368 81.2564 277.944 81.8964C278.52 82.5204 279.16 83.1444 279.864 83.7684C280.568 84.3764 281.28 84.9764 282 85.5684C282.736 86.1444 283.424 86.6804 284.064 87.1764C284.768 87.7364 285.44 88.2244 286.08 88.6404C286.72 89.0404 287.232 89.3444 287.616 89.5524L286.056 92.2884C285.416 91.9204 284.768 91.5284 284.112 91.1124C283.472 90.6964 282.72 90.1204 281.856 89.3844C280.864 88.5524 279.856 87.6964 278.832 86.8164C277.824 85.9204 276.896 85.0164 276.048 84.1044C275.2 83.1764 274.52 82.2404 274.008 81.2964C273.496 80.3364 273.24 79.3764 273.24 78.4164C273.24 77.4724 273.44 76.6644 273.84 75.9924C274.24 75.3204 274.784 74.8004 275.472 74.4324C276.176 74.0644 276.968 73.8804 277.848 73.8804C279.208 73.8804 280.288 74.2324 281.088 74.9364C281.888 75.6404 282.288 76.6084 282.288 77.8404C282.288 78.6724 282.096 79.4004 281.712 80.0244C281.344 80.6484 280.856 81.2004 280.248 81.6804C279.64 82.1604 278.992 82.6084 278.304 83.0244C277.632 83.4404 276.992 83.8564 276.384 84.2724C275.792 84.6724 275.304 85.1124 274.92 85.5924C274.536 86.0724 274.344 86.6244 274.344 87.2484C274.344 88.0164 274.656 88.6004 275.28 89.0004C275.904 89.4004 276.696 89.6004 277.656 89.6004C278.408 89.6004 279.136 89.3604 279.84 88.8804C280.56 88.3844 281.216 87.7444 281.808 86.9604C282.336 86.2884 282.768 85.5604 283.104 84.7764C283.456 83.9764 283.696 83.0804 283.824 82.0884H286.944C286.704 83.3044 286.352 84.4404 285.888 85.4964C285.424 86.5524 284.84 87.5844 284.136 88.5924C283.32 89.7284 282.384 90.6324 281.328 91.3044C280.272 91.9604 278.944 92.2884 277.344 92.2884Z" fill="#555555"/>
<path d="M261.696 72.3442C261.904 72.6322 262.12 72.9762 262.344 73.3762C262.584 73.7762 262.816 74.1762 263.04 74.5762C263.264 74.9762 263.448 75.3282 263.592 75.6322L261.672 76.4482C261.432 75.9522 261.136 75.3922 260.784 74.7682C260.448 74.1282 260.12 73.5762 259.8 73.1122L261.696 72.3442ZM264.528 71.2642C264.736 71.5522 264.96 71.9042 265.2 72.3202C265.456 72.7202 265.696 73.1202 265.92 73.5202C266.16 73.9042 266.344 74.2402 266.472 74.5282L264.576 75.3442C264.32 74.8322 264.016 74.2642 263.664 73.6402C263.312 73.0162 262.968 72.4802 262.632 72.0322L264.528 71.2642ZM263.856 77.6242C263.712 77.8482 263.568 78.1202 263.424 78.4402C263.28 78.7442 263.16 79.0482 263.064 79.3522C262.856 80.0562 262.56 80.8642 262.176 81.7762C261.792 82.6722 261.328 83.6002 260.784 84.5602C260.24 85.5202 259.6 86.4562 258.864 87.3682C257.728 88.7442 256.392 89.9922 254.856 91.1122C253.336 92.2322 251.448 93.2402 249.192 94.1362L246.36 91.5922C247.992 91.0962 249.4 90.5442 250.584 89.9362C251.768 89.3122 252.8 88.6402 253.68 87.9202C254.56 87.2002 255.344 86.4402 256.032 85.6402C256.576 85.0162 257.08 84.3122 257.544 83.5282C258.024 82.7442 258.424 81.9602 258.744 81.1762C259.08 80.3922 259.312 79.7042 259.44 79.1122H251.352L252.456 76.4002C252.664 76.4002 253.008 76.4002 253.488 76.4002C253.968 76.4002 254.504 76.4002 255.096 76.4002C255.688 76.4002 256.272 76.4002 256.848 76.4002C257.44 76.4002 257.96 76.4002 258.408 76.4002C258.856 76.4002 259.152 76.4002 259.296 76.4002C259.68 76.4002 260.056 76.3762 260.424 76.3282C260.808 76.2642 261.128 76.1922 261.384 76.1122L263.856 77.6242ZM256.032 73.8322C255.744 74.2482 255.464 74.6962 255.192 75.1762C254.92 75.6562 254.712 76.0242 254.568 76.2802C254.024 77.2402 253.352 78.2402 252.552 79.2802C251.752 80.3042 250.848 81.3042 249.84 82.2802C248.848 83.2402 247.776 84.1202 246.624 84.9202L243.936 82.9042C244.992 82.2642 245.92 81.6002 246.72 80.9122C247.52 80.2242 248.216 79.5442 248.808 78.8722C249.4 78.1842 249.912 77.5282 250.344 76.9042C250.776 76.2642 251.136 75.6882 251.424 75.1762C251.616 74.8882 251.816 74.5042 252.024 74.0242C252.248 73.5282 252.408 73.0802 252.504 72.6802L256.032 73.8322Z" fill="#555555"/>
<path d="M231.12 77.7441C231.232 78.0001 231.376 78.3681 231.552 78.8481C231.744 79.3121 231.944 79.8161 232.152 80.3601C232.36 80.8881 232.544 81.3921 232.704 81.8721C232.864 82.3521 232.992 82.7281 233.088 83.0001L230.208 84.0081C230.144 83.7041 230.032 83.3201 229.872 82.8561C229.712 82.3921 229.536 81.9041 229.344 81.3921C229.152 80.8641 228.96 80.3601 228.768 79.8801C228.576 79.4001 228.408 79.0001 228.264 78.6801L231.12 77.7441ZM239.976 79.4961C239.848 79.8801 239.736 80.2081 239.64 80.4801C239.56 80.7521 239.48 81.0081 239.4 81.2481C239.096 82.4641 238.68 83.6801 238.152 84.8961C237.624 86.0961 236.952 87.2241 236.136 88.2801C235.016 89.7201 233.744 90.9441 232.32 91.9521C230.912 92.9441 229.504 93.7041 228.096 94.2321L225.576 91.6641C226.456 91.4241 227.384 91.0721 228.36 90.6081C229.336 90.1281 230.28 89.5521 231.192 88.8801C232.104 88.2081 232.888 87.4641 233.544 86.6481C234.088 85.9601 234.568 85.1761 234.984 84.2961C235.416 83.4001 235.768 82.4481 236.04 81.4401C236.328 80.4161 236.52 79.4081 236.616 78.4161L239.976 79.4961ZM225.552 79.0161C225.712 79.3201 225.888 79.7121 226.08 80.1921C226.288 80.6721 226.496 81.1761 226.704 81.7041C226.912 82.2321 227.112 82.7441 227.304 83.2401C227.512 83.7361 227.672 84.1521 227.784 84.4881L224.856 85.5921C224.76 85.2721 224.616 84.8561 224.424 84.3441C224.248 83.8321 224.048 83.2961 223.824 82.7361C223.6 82.1601 223.384 81.6321 223.176 81.1521C222.984 80.6721 222.816 80.3041 222.672 80.0481L225.552 79.0161Z" fill="#555555"/>
<path d="M200.352 73.5923C200.688 73.6403 201.088 73.6723 201.552 73.6883C202.016 73.7043 202.448 73.7123 202.848 73.7123C203.152 73.7123 203.616 73.7123 204.24 73.7123C204.88 73.7123 205.584 73.7123 206.352 73.7123C207.136 73.7123 207.912 73.7123 208.68 73.7123C209.448 73.7123 210.136 73.7123 210.744 73.7123C211.352 73.7123 211.8 73.7123 212.088 73.7123C212.456 73.7123 212.896 73.7043 213.408 73.6883C213.92 73.6723 214.344 73.6403 214.68 73.5923V76.6883C214.36 76.6563 213.944 76.6403 213.432 76.6403C212.936 76.6243 212.472 76.6163 212.04 76.6163C211.784 76.6163 211.344 76.6163 210.72 76.6163C210.112 76.6163 209.416 76.6163 208.632 76.6163C207.864 76.6163 207.088 76.6163 206.304 76.6163C205.536 76.6163 204.84 76.6163 204.216 76.6163C203.592 76.6163 203.136 76.6163 202.848 76.6163C202.464 76.6163 202.04 76.6243 201.576 76.6403C201.128 76.6563 200.72 76.6723 200.352 76.6883V73.5923ZM216.696 80.5523C216.616 80.7123 216.528 80.8883 216.432 81.0803C216.352 81.2723 216.288 81.4323 216.24 81.5603C215.872 82.7123 215.408 83.8643 214.848 85.0163C214.304 86.1523 213.584 87.2163 212.688 88.2083C211.488 89.5523 210.144 90.6483 208.656 91.4963C207.168 92.3283 205.656 92.9603 204.12 93.3923L201.744 90.6803C203.552 90.2963 205.16 89.7363 206.568 89.0003C207.976 88.2643 209.136 87.4243 210.048 86.4803C210.688 85.8243 211.2 85.1363 211.584 84.4163C211.984 83.6803 212.296 82.9843 212.52 82.3283C212.344 82.3283 212.04 82.3283 211.608 82.3283C211.176 82.3283 210.656 82.3283 210.048 82.3283C209.456 82.3283 208.816 82.3283 208.128 82.3283C207.44 82.3283 206.736 82.3283 206.016 82.3283C205.296 82.3283 204.608 82.3283 203.952 82.3283C203.296 82.3283 202.704 82.3283 202.176 82.3283C201.664 82.3283 201.248 82.3283 200.928 82.3283C200.64 82.3283 200.232 82.3363 199.704 82.3523C199.176 82.3683 198.656 82.4003 198.144 82.4483V79.3283C198.656 79.3603 199.152 79.3923 199.632 79.4243C200.128 79.4563 200.56 79.4723 200.928 79.4723C201.168 79.4723 201.528 79.4723 202.008 79.4723C202.504 79.4723 203.072 79.4723 203.712 79.4723C204.352 79.4723 205.032 79.4723 205.752 79.4723C206.488 79.4723 207.216 79.4723 207.936 79.4723C208.672 79.4723 209.368 79.4723 210.024 79.4723C210.68 79.4723 211.248 79.4723 211.728 79.4723C212.208 79.4723 212.568 79.4723 212.808 79.4723C213.192 79.4723 213.536 79.4483 213.84 79.4003C214.16 79.3523 214.4 79.2963 214.56 79.2323L216.696 80.5523Z" fill="#555555"/>
<path d="M187.368 74.1442C187.592 74.4642 187.84 74.8402 188.112 75.2722C188.384 75.7042 188.64 76.1362 188.88 76.5682C189.136 77.0002 189.36 77.4002 189.552 77.7682L187.464 78.7042C187.24 78.1922 187.016 77.7362 186.792 77.3362C186.584 76.9362 186.368 76.5522 186.144 76.1842C185.92 75.8002 185.656 75.4002 185.352 74.9842L187.368 74.1442ZM190.512 72.8242C190.752 73.1442 191.008 73.5122 191.28 73.9282C191.568 74.3442 191.84 74.7682 192.096 75.2002C192.368 75.6162 192.592 76.0082 192.768 76.3762L190.752 77.3602C190.496 76.8482 190.248 76.4002 190.008 76.0162C189.784 75.6162 189.552 75.2402 189.312 74.8882C189.088 74.5202 188.824 74.1442 188.52 73.7602L190.512 72.8242ZM177.792 90.0562C177.792 89.7362 177.792 89.2322 177.792 88.5442C177.792 87.8402 177.792 87.0322 177.792 86.1202C177.792 85.1922 177.792 84.2322 177.792 83.2402C177.792 82.2322 177.792 81.2642 177.792 80.3362C177.792 79.3922 177.792 78.5602 177.792 77.8402C177.792 77.1202 177.792 76.5922 177.792 76.2562C177.792 75.8242 177.768 75.3362 177.72 74.7922C177.688 74.2482 177.632 73.7682 177.552 73.3522H181.296C181.248 73.7682 181.2 74.2322 181.152 74.7442C181.104 75.2562 181.08 75.7602 181.08 76.2562C181.08 76.6882 181.08 77.2882 181.08 78.0562C181.08 78.8242 181.08 79.6802 181.08 80.6242C181.08 81.5522 181.08 82.5042 181.08 83.4802C181.08 84.4562 181.08 85.3922 181.08 86.2882C181.08 87.1682 181.08 87.9442 181.08 88.6162C181.08 89.2722 181.08 89.7522 181.08 90.0562C181.08 90.2642 181.088 90.5762 181.104 90.9922C181.136 91.3922 181.168 91.8082 181.2 92.2402C181.248 92.6722 181.288 93.0562 181.32 93.3922H177.552C177.632 92.9282 177.688 92.3762 177.72 91.7362C177.768 91.0802 177.792 90.5202 177.792 90.0562ZM180.384 79.5682C181.184 79.7762 182.072 80.0482 183.048 80.3842C184.04 80.7042 185.04 81.0562 186.048 81.4402C187.056 81.8082 188.008 82.1762 188.904 82.5442C189.8 82.8962 190.536 83.2162 191.112 83.5042L189.768 86.8402C189.08 86.4722 188.328 86.1122 187.512 85.7602C186.696 85.4082 185.864 85.0642 185.016 84.7282C184.184 84.3762 183.368 84.0562 182.568 83.7682C181.768 83.4802 181.04 83.2322 180.384 83.0242V79.5682Z" fill="#555555"/>
<path d="M158.664 72.7523C158.584 73.1843 158.456 73.7443 158.28 74.4323C158.104 75.1203 157.848 75.8963 157.512 76.7603C157.256 77.3523 156.96 77.9683 156.624 78.6083C156.304 79.2323 155.976 79.7923 155.64 80.2883C155.848 80.1923 156.112 80.1123 156.432 80.0483C156.752 79.9683 157.08 79.9123 157.416 79.8803C157.768 79.8323 158.08 79.8083 158.352 79.8083C159.36 79.8083 160.192 80.0963 160.848 80.6723C161.52 81.2483 161.856 82.1043 161.856 83.2403C161.856 83.5603 161.856 83.9523 161.856 84.4163C161.872 84.8803 161.888 85.3683 161.904 85.8803C161.92 86.3763 161.936 86.8643 161.952 87.3443C161.968 87.8243 161.976 88.2563 161.976 88.6403H159.096C159.128 88.3683 159.144 88.0483 159.144 87.6803C159.16 87.2963 159.168 86.8963 159.168 86.4803C159.184 86.0643 159.192 85.6643 159.192 85.2803C159.208 84.8803 159.216 84.5203 159.216 84.2003C159.216 83.4323 159.008 82.9043 158.592 82.6163C158.192 82.3123 157.744 82.1603 157.248 82.1603C156.576 82.1603 155.896 82.3283 155.208 82.6643C154.536 82.9843 153.968 83.3683 153.504 83.8163C153.152 84.1683 152.792 84.5603 152.424 84.9923C152.072 85.4243 151.688 85.9123 151.272 86.4563L148.704 84.5363C149.744 83.5763 150.64 82.6483 151.392 81.7523C152.16 80.8563 152.808 79.9683 153.336 79.0883C153.864 78.2083 154.296 77.3283 154.632 76.4483C154.872 75.8083 155.064 75.1443 155.208 74.4563C155.368 73.7523 155.464 73.0963 155.496 72.4883L158.664 72.7523ZM149.64 74.9603C150.248 75.0563 150.952 75.1283 151.752 75.1763C152.552 75.2243 153.256 75.2483 153.864 75.2483C154.92 75.2483 156.072 75.2243 157.32 75.1763C158.584 75.1283 159.864 75.0483 161.16 74.9363C162.456 74.8083 163.688 74.6483 164.856 74.4563L164.832 77.2403C163.984 77.3523 163.064 77.4563 162.072 77.5523C161.096 77.6323 160.096 77.7043 159.072 77.7683C158.064 77.8163 157.096 77.8563 156.168 77.8883C155.24 77.9043 154.416 77.9123 153.696 77.9123C153.376 77.9123 152.976 77.9123 152.496 77.9123C152.032 77.8963 151.552 77.8803 151.056 77.8643C150.56 77.8323 150.088 77.8003 149.64 77.7683V74.9603ZM168.648 81.7763C168.392 81.8563 168.088 81.9603 167.736 82.0883C167.4 82.2003 167.056 82.3203 166.704 82.4483C166.368 82.5603 166.064 82.6723 165.792 82.7843C165.024 83.0883 164.112 83.4563 163.056 83.8883C162.016 84.3203 160.928 84.8243 159.792 85.4003C159.072 85.7843 158.464 86.1603 157.968 86.5283C157.472 86.8963 157.096 87.2723 156.84 87.6563C156.584 88.0243 156.456 88.4323 156.456 88.8803C156.456 89.2163 156.528 89.4963 156.672 89.7203C156.816 89.9283 157.032 90.0963 157.32 90.2243C157.608 90.3523 157.968 90.4403 158.4 90.4883C158.832 90.5363 159.344 90.5603 159.936 90.5603C160.96 90.5603 162.088 90.5043 163.32 90.3923C164.552 90.2643 165.696 90.0963 166.752 89.8883L166.656 92.9843C166.144 93.0483 165.496 93.1123 164.712 93.1763C163.928 93.2563 163.112 93.3123 162.264 93.3443C161.432 93.3763 160.632 93.3923 159.864 93.3923C158.616 93.3923 157.496 93.2723 156.504 93.0323C155.512 92.7923 154.728 92.3843 154.152 91.8083C153.592 91.2163 153.312 90.4083 153.312 89.3843C153.312 88.5523 153.496 87.8003 153.864 87.1283C154.248 86.4563 154.752 85.8483 155.376 85.3043C156 84.7603 156.68 84.2723 157.416 83.8403C158.168 83.3923 158.904 82.9843 159.624 82.6163C160.36 82.2323 161.024 81.9043 161.616 81.6323C162.208 81.3603 162.76 81.1203 163.272 80.9123C163.8 80.6883 164.304 80.4643 164.784 80.2403C165.248 80.0323 165.696 79.8323 166.128 79.6403C166.56 79.4323 167 79.2163 167.448 78.9923L168.648 81.7763Z" fill="#555555"/>
<path d="M135.072 91.4721C135.12 91.2321 135.16 90.9601 135.192 90.6561C135.24 90.3361 135.264 90.0161 135.264 89.6961C135.264 89.5201 135.264 89.1681 135.264 88.6401C135.264 88.1121 135.264 87.4721 135.264 86.7201C135.264 85.9681 135.264 85.1601 135.264 84.2961C135.264 83.4161 135.264 82.5281 135.264 81.6321C135.264 80.7361 135.264 79.8961 135.264 79.1121C135.264 78.3121 135.264 77.6161 135.264 77.0241C135.264 76.4161 135.264 75.9761 135.264 75.7041C135.264 75.1601 135.232 74.6881 135.168 74.2881C135.12 73.8881 135.088 73.6721 135.072 73.6401H138.648C138.632 73.6721 138.6 73.8961 138.552 74.3121C138.504 74.7121 138.48 75.1841 138.48 75.7281C138.48 76.0001 138.48 76.4081 138.48 76.9521C138.48 77.4801 138.48 78.0961 138.48 78.8001C138.48 79.4881 138.48 80.2241 138.48 81.0081C138.48 81.7921 138.48 82.5681 138.48 83.3361C138.48 84.0881 138.48 84.8081 138.48 85.4961C138.48 86.1681 138.48 86.7441 138.48 87.2241C138.48 87.7041 138.48 88.0561 138.48 88.2801C139.136 87.9921 139.816 87.6001 140.52 87.1041C141.224 86.6081 141.912 86.0321 142.584 85.3761C143.272 84.7041 143.88 83.9841 144.408 83.2161L146.256 85.8561C145.6 86.7201 144.8 87.5681 143.856 88.4001C142.928 89.2321 141.968 89.9921 140.976 90.6801C139.984 91.3681 139.032 91.9441 138.12 92.4081C137.864 92.5521 137.656 92.6801 137.496 92.7921C137.336 92.9201 137.2 93.0321 137.088 93.1281L135.072 91.4721ZM123.96 91.1121C125.016 90.3761 125.88 89.4881 126.552 88.4481C127.224 87.4081 127.72 86.3841 128.04 85.3761C128.216 84.8481 128.344 84.2001 128.424 83.4321C128.52 82.6481 128.592 81.8161 128.64 80.9361C128.688 80.0401 128.712 79.1601 128.712 78.2961C128.728 77.4161 128.736 76.6081 128.736 75.8721C128.736 75.3921 128.712 74.9841 128.664 74.6481C128.632 74.2961 128.584 73.9681 128.52 73.6641H132.048C132.032 73.6961 132.008 73.8321 131.976 74.0721C131.96 74.2961 131.936 74.5681 131.904 74.8881C131.888 75.1921 131.88 75.5121 131.88 75.8481C131.88 76.5521 131.872 77.3761 131.856 78.3201C131.84 79.2481 131.808 80.2001 131.76 81.1761C131.712 82.1521 131.64 83.0801 131.544 83.9601C131.448 84.8241 131.32 85.5601 131.16 86.1681C130.792 87.5281 130.24 88.7921 129.504 89.9601C128.784 91.1121 127.912 92.1441 126.888 93.0561L123.96 91.1121Z" fill="#555555"/>
<path d="M100.488 82.6641C102.648 82.1041 104.6 81.4561 106.344 80.7201C108.104 79.9681 109.648 79.1841 110.976 78.3681C111.808 77.8561 112.64 77.2721 113.472 76.6161C114.32 75.9441 115.112 75.2561 115.848 74.5521C116.6 73.8481 117.232 73.1761 117.744 72.5361L120.336 75.0081C119.6 75.7281 118.792 76.4561 117.912 77.1921C117.048 77.9281 116.144 78.6321 115.2 79.3041C114.256 79.9761 113.32 80.5921 112.392 81.1521C111.48 81.6801 110.456 82.2241 109.32 82.7841C108.2 83.3441 107.016 83.8721 105.768 84.3681C104.52 84.8641 103.264 85.3041 102 85.6881L100.488 82.6641ZM110.472 79.9041L113.88 79.1121V89.9121C113.88 90.2641 113.888 90.6481 113.904 91.0641C113.92 91.4801 113.944 91.8641 113.976 92.2161C114.008 92.5841 114.048 92.8641 114.096 93.0561H110.304C110.336 92.8641 110.36 92.5841 110.376 92.2161C110.408 91.8641 110.432 91.4801 110.448 91.0641C110.464 90.6481 110.472 90.2641 110.472 89.9121V79.9041Z" fill="#555555"/>
<path d="M96.3359 80.0241C96.2239 80.1521 96.0959 80.3121 95.9519 80.5041C95.8079 80.6961 95.6959 80.8561 95.6159 80.9841C95.4079 81.3201 95.1199 81.7361 94.7519 82.2321C94.3999 82.7281 93.9999 83.2641 93.5519 83.8401C93.1039 84.4001 92.6479 84.9281 92.1839 85.4241C91.7199 85.9201 91.2719 86.3361 90.8399 86.6721L88.4399 84.9921C88.8879 84.6721 89.3439 84.2961 89.8079 83.8641C90.2719 83.4321 90.6879 82.9921 91.0559 82.5441C91.4239 82.0801 91.7039 81.6801 91.8959 81.3441C91.7039 81.3441 91.3439 81.3441 90.8159 81.3441C90.2879 81.3441 89.6639 81.3441 88.9439 81.3441C88.2399 81.3441 87.4959 81.3441 86.7119 81.3441C85.9279 81.3441 85.1759 81.3441 84.4559 81.3441C83.7359 81.3441 83.1119 81.3441 82.5839 81.3441C82.0559 81.3441 81.6879 81.3441 81.4799 81.3441C81.0799 81.3441 80.6719 81.3601 80.2559 81.3921C79.8559 81.4081 79.4319 81.4401 78.9839 81.4881V78.3921C79.3679 78.4561 79.7759 78.5041 80.2079 78.5361C80.6559 78.5681 81.0799 78.5841 81.4799 78.5841C81.6879 78.5841 82.0719 78.5841 82.6319 78.5841C83.2079 78.5841 83.8879 78.5841 84.6719 78.5841C85.4559 78.5841 86.2719 78.5841 87.1199 78.5841C87.9679 78.5841 88.7759 78.5841 89.5439 78.5841C90.3119 78.5841 90.9679 78.5841 91.5119 78.5841C92.0719 78.5841 92.4399 78.5841 92.6159 78.5841C92.7919 78.5841 93.0079 78.5761 93.2639 78.5601C93.5199 78.5441 93.7679 78.5281 94.0079 78.5121C94.2639 78.4801 94.4479 78.4481 94.5599 78.4161L96.3359 80.0241ZM88.1039 82.5441C88.0719 83.4401 88.0319 84.3281 87.9839 85.2081C87.9359 86.0721 87.8159 86.9201 87.6239 87.7521C87.4479 88.5681 87.1599 89.3681 86.7599 90.1521C86.3599 90.9201 85.7999 91.6481 85.0799 92.3361C84.3759 93.0401 83.4639 93.7041 82.3439 94.3281L79.7999 92.2881C80.1199 92.1601 80.4319 92.0241 80.7359 91.8801C81.0559 91.7201 81.3919 91.5121 81.7439 91.2561C82.6559 90.6321 83.3439 89.9761 83.8079 89.2881C84.2719 88.5841 84.5759 87.8241 84.7199 87.0081C84.8799 86.1761 84.9599 85.2561 84.9599 84.2481C84.9599 83.9601 84.9439 83.6721 84.9119 83.3841C84.8799 83.0801 84.8399 82.8001 84.7919 82.5441H88.1039Z" fill="#555555"/>
<path d="M72.3361 76.0164C72.2241 76.2404 72.1201 76.5124 72.0241 76.8324C71.9441 77.1364 71.8721 77.4244 71.8081 77.6964C71.6801 78.2724 71.5121 78.9284 71.3041 79.6644C71.0961 80.4004 70.8481 81.1604 70.5601 81.9444C70.2721 82.7284 69.9281 83.5044 69.5281 84.2724C69.1441 85.0404 68.7041 85.7604 68.2081 86.4324C67.4881 87.3764 66.6481 88.2724 65.6881 89.1204C64.7281 89.9524 63.6561 90.7044 62.4721 91.3764C61.2881 92.0324 59.9841 92.5924 58.5601 93.0564L55.9441 90.2004C57.5281 89.8164 58.8961 89.3444 60.0481 88.7844C61.2161 88.2084 62.2321 87.5684 63.0961 86.8644C63.9601 86.1444 64.7121 85.3764 65.3521 84.5604C65.8801 83.8884 66.3281 83.1604 66.6961 82.3764C67.0801 81.5924 67.3921 80.8004 67.6321 80.0004C67.8881 79.2004 68.0641 78.4644 68.1601 77.7924C67.9201 77.7924 67.5201 77.7924 66.9601 77.7924C66.4161 77.7924 65.7681 77.7924 65.0161 77.7924C64.2801 77.7924 63.5041 77.7924 62.6881 77.7924C61.8881 77.7924 61.1121 77.7924 60.3601 77.7924C59.6081 77.7924 58.9281 77.7924 58.3201 77.7924C57.7281 77.7924 57.2801 77.7924 56.9761 77.7924C56.4321 77.7924 55.8961 77.8004 55.3681 77.8164C54.8561 77.8324 54.4401 77.8564 54.1201 77.8884V74.5044C54.3761 74.5204 54.6721 74.5444 55.0081 74.5764C55.3441 74.6084 55.6961 74.6404 56.0641 74.6724C56.4321 74.6884 56.7441 74.6964 57.0001 74.6964C57.2401 74.6964 57.6001 74.6964 58.0801 74.6964C58.5601 74.6964 59.1121 74.6964 59.7361 74.6964C60.3601 74.6964 61.0081 74.6964 61.6801 74.6964C62.3681 74.6964 63.0481 74.6964 63.7201 74.6964C64.3921 74.6964 65.0241 74.6964 65.6161 74.6964C66.2081 74.6964 66.7201 74.6964 67.1521 74.6964C67.6001 74.6964 67.9121 74.6964 68.0881 74.6964C68.3281 74.6964 68.6241 74.6884 68.9761 74.6724C69.3281 74.6404 69.6561 74.5844 69.9601 74.5044L72.3361 76.0164Z" fill="#555555"/>
</svg>
