<svg width="580" height="80" viewBox="0 0 580 80" fill="none" xmlns="http://www.w3.org/2000/svg">
<path d="M0 16C0 7.16344 7.16344 0 16 0H564C572.837 0 580 7.16344 580 16V64C580 72.8366 572.837 80 564 80H16C7.16345 80 0 72.8366 0 64V16Z" fill="white"/>
<path d="M564 76V80H16V76H564ZM576 64V16C576 9.37259 570.627 4 564 4H16C9.37258 4 4 9.37258 4 16V64C4 70.6274 9.37258 76 16 76V80C7.30156 80 0.223981 73.0587 0.00488281 64.4131L0 64V16C0 7.30155 6.94127 0.22398 15.5869 0.00488281L16 0H564L564.413 0.00488281C573.059 0.223985 580 7.30156 580 16V64C580 72.8366 572.837 80 564 80V76C570.627 76 576 70.6274 576 64Z" fill="#CECECE"/>
<path d="M541.829 49.3375L544.337 46.8292L537.708 40.2V31.9583H534.125V41.6333L541.829 49.3375ZM535.917 58.8333C533.438 58.8333 531.109 58.363 528.929 57.4224C526.749 56.4818 524.853 55.2052 523.241 53.5927C521.628 51.9802 520.352 50.084 519.411 47.9042C518.47 45.7243 518 43.3951 518 40.9167C518 38.4382 518.47 36.109 519.411 33.9292C520.352 31.7493 521.628 29.8531 523.241 28.2406C524.853 26.6281 526.749 25.3516 528.929 24.4109C531.109 23.4703 533.438 23 535.917 23C538.395 23 540.724 23.4703 542.904 24.4109C545.084 25.3516 546.98 26.6281 548.593 28.2406C550.205 29.8531 551.482 31.7493 552.422 33.9292C553.363 36.109 553.833 38.4382 553.833 40.9167C553.833 43.3951 553.363 45.7243 552.422 47.9042C551.482 50.084 550.205 51.9802 548.593 53.5927C546.98 55.2052 545.084 56.4818 542.904 57.4224C540.724 58.363 538.395 58.8333 535.917 58.8333Z" fill="#555555"/>
<path d="M458.07 41.5319C458.07 44.1999 457.87 46.5766 457.472 48.6619C457.073 50.7472 456.429 52.5259 455.54 53.9979C454.681 55.4392 453.546 56.5432 452.136 57.3099C450.756 58.0766 449.084 58.4599 447.122 58.4599C444.668 58.4599 442.629 57.7852 441.004 56.4359C439.409 55.0866 438.213 53.1546 437.416 50.6399C436.649 48.0946 436.266 45.0586 436.266 41.5319C436.266 37.9746 436.618 34.9386 437.324 32.4239C438.06 29.9092 439.225 27.9926 440.82 26.6739C442.414 25.3246 444.515 24.6499 447.122 24.6499C449.575 24.6499 451.614 25.3246 453.24 26.6739C454.865 27.9926 456.076 29.9092 456.874 32.4239C457.671 34.9386 458.07 37.9746 458.07 41.5319ZM440.314 41.5319C440.314 44.5372 440.528 47.0366 440.958 49.0299C441.418 51.0232 442.138 52.5259 443.12 53.5379C444.132 54.5192 445.466 55.0099 447.122 55.0099C448.778 55.0099 450.096 54.5192 451.078 53.5379C452.09 52.5566 452.826 51.0692 453.286 49.0759C453.746 47.0519 453.976 44.5372 453.976 41.5319C453.976 38.5266 453.746 36.0426 453.286 34.0799C452.826 32.0866 452.09 30.5992 451.078 29.6179C450.096 28.6059 448.778 28.0999 447.122 28.0999C445.466 28.0999 444.132 28.6059 443.12 29.6179C442.138 30.5992 441.418 32.0866 440.958 34.0799C440.528 36.0426 440.314 38.5266 440.314 41.5319Z" fill="#555555"/>
<path d="M430.365 32.8378C430.365 34.3098 430.089 35.5825 429.537 36.6558C428.985 37.7291 428.188 38.6031 427.145 39.2778C426.133 39.9525 424.937 40.4278 423.557 40.7038V40.8878C426.195 41.1945 428.157 42.0225 429.445 43.3718C430.733 44.7211 431.377 46.4845 431.377 48.6618C431.377 50.5631 430.933 52.2651 430.043 53.7678C429.154 55.2398 427.774 56.3898 425.903 57.2178C424.063 58.0458 421.687 58.4598 418.773 58.4598C417.056 58.4598 415.461 58.3218 413.989 58.0458C412.517 57.8005 411.107 57.3405 409.757 56.6658V52.8938C411.137 53.5685 412.625 54.1051 414.219 54.5038C415.814 54.8718 417.347 55.0558 418.819 55.0558C421.763 55.0558 423.879 54.4885 425.167 53.3538C426.486 52.1885 427.145 50.5938 427.145 48.5698C427.145 47.1898 426.777 46.0858 426.041 45.2578C425.336 44.3991 424.293 43.7705 422.913 43.3718C421.533 42.9731 419.877 42.7738 417.945 42.7738H414.771V39.3238H417.991C419.801 39.3238 421.303 39.0631 422.499 38.5418C423.726 38.0205 424.646 37.2998 425.259 36.3798C425.903 35.4291 426.225 34.3405 426.225 33.1138C426.225 31.5191 425.689 30.2925 424.615 29.4338C423.542 28.5445 422.085 28.0998 420.245 28.0998C419.08 28.0998 418.022 28.2225 417.071 28.4678C416.121 28.6825 415.231 29.0045 414.403 29.4338C413.606 29.8325 412.793 30.3078 411.965 30.8598L409.941 28.0998C410.739 27.4865 411.643 26.9191 412.655 26.3978C413.698 25.8765 414.848 25.4625 416.105 25.1558C417.363 24.8491 418.727 24.6958 420.199 24.6958C423.634 24.6958 426.179 25.4625 427.835 26.9958C429.522 28.5291 430.365 30.4765 430.365 32.8378Z" fill="#555555"/>
<path d="M398.691 55.5162C398.691 54.3815 398.967 53.5842 399.519 53.1242C400.071 52.6642 400.73 52.4342 401.497 52.4342C402.294 52.4342 402.969 52.6642 403.521 53.1242C404.104 53.5842 404.395 54.3815 404.395 55.5162C404.395 56.6202 404.104 57.4175 403.521 57.9082C402.969 58.3989 402.294 58.6442 401.497 58.6442C400.73 58.6442 400.071 58.3989 399.519 57.9082C398.967 57.4175 398.691 56.6202 398.691 55.5162ZM398.691 35.8282C398.691 34.6629 398.967 33.8502 399.519 33.3902C400.071 32.9302 400.73 32.7002 401.497 32.7002C402.294 32.7002 402.969 32.9302 403.521 33.3902C404.104 33.8502 404.395 34.6629 404.395 35.8282C404.395 36.9322 404.104 37.7295 403.521 38.2202C402.969 38.7109 402.294 38.9562 401.497 38.9562C400.73 38.9562 400.071 38.7109 399.519 38.2202C398.967 37.7295 398.691 36.9322 398.691 35.8282Z" fill="#555555"/>
<path d="M392.975 39.1858C392.975 41.0565 392.837 42.9271 392.561 44.7978C392.315 46.6378 391.871 48.3858 391.227 50.0418C390.583 51.6671 389.693 53.1238 388.559 54.4118C387.424 55.6691 385.982 56.6658 384.234 57.4018C382.486 58.1071 380.371 58.4598 377.887 58.4598C377.273 58.4598 376.553 58.4138 375.725 58.3218C374.927 58.2605 374.268 58.1531 373.746 57.9998V54.5498C374.298 54.7338 374.942 54.8871 375.678 55.0098C376.414 55.1018 377.12 55.1478 377.794 55.1478C379.941 55.1478 381.705 54.7951 383.085 54.0898C384.495 53.3845 385.615 52.4338 386.443 51.2378C387.271 50.0111 387.869 48.6005 388.237 47.0058C388.605 45.3805 388.819 43.6785 388.88 41.8998H388.604C388.144 42.6051 387.562 43.2491 386.857 43.8318C386.151 44.4145 385.293 44.8745 384.281 45.2118C383.299 45.5491 382.134 45.7178 380.785 45.7178C378.914 45.7178 377.258 45.3345 375.816 44.5678C374.406 43.7705 373.302 42.6358 372.505 41.1638C371.738 39.6918 371.354 37.8978 371.354 35.7818C371.354 33.4818 371.784 31.5038 372.643 29.8478C373.532 28.1918 374.759 26.9191 376.323 26.0298C377.887 25.1405 379.726 24.6958 381.842 24.6958C383.406 24.6958 384.863 25.0025 386.212 25.6158C387.562 26.1985 388.743 27.0878 389.755 28.2838C390.767 29.4798 391.548 30.9825 392.1 32.7918C392.683 34.6011 392.975 36.7325 392.975 39.1858ZM381.842 28.0998C379.941 28.0998 378.377 28.7285 377.151 29.9858C375.955 31.2431 375.357 33.1598 375.357 35.7358C375.357 37.8518 375.863 39.5231 376.875 40.7498C377.917 41.9458 379.512 42.5438 381.659 42.5438C383.131 42.5438 384.403 42.2525 385.477 41.6698C386.55 41.0565 387.378 40.2898 387.961 39.3698C388.574 38.4498 388.88 37.4991 388.88 36.5178C388.88 35.5365 388.727 34.5551 388.421 33.5738C388.145 32.5618 387.715 31.6418 387.133 30.8138C386.55 29.9858 385.814 29.3265 384.924 28.8358C384.035 28.3451 383.008 28.0998 381.842 28.0998Z" fill="#555555"/>
<path d="M355.38 37.8518C357.619 37.8518 359.566 38.2351 361.222 39.0018C362.878 39.7684 364.151 40.8724 365.04 42.3138C365.96 43.7244 366.42 45.4571 366.42 47.5118C366.42 49.7811 365.93 51.7438 364.948 53.3998C363.967 55.0251 362.556 56.2824 360.716 57.1718C358.907 58.0304 356.714 58.4598 354.138 58.4598C352.452 58.4598 350.857 58.3064 349.354 57.9998C347.882 57.6931 346.64 57.2484 345.628 56.6658V52.8478C346.732 53.5224 348.066 54.0591 349.63 54.4578C351.225 54.8258 352.743 55.0098 354.184 55.0098C355.81 55.0098 357.22 54.7644 358.416 54.2738C359.643 53.7524 360.594 52.9704 361.268 51.9278C361.943 50.8544 362.28 49.5204 362.28 47.9258C362.28 45.7791 361.621 44.1384 360.302 43.0038C358.984 41.8384 356.898 41.2558 354.046 41.2558C353.188 41.2558 352.206 41.3324 351.102 41.4858C349.998 41.6391 349.109 41.7924 348.434 41.9458L346.41 40.6578L347.652 25.1558H364.12V28.8358H351.102L350.32 38.3578C350.842 38.2658 351.547 38.1584 352.436 38.0358C353.326 37.9131 354.307 37.8518 355.38 37.8518Z" fill="#555555"/>
<path d="M333.734 55.5162C333.734 54.3815 334.01 53.5842 334.562 53.1242C335.114 52.6642 335.773 52.4342 336.54 52.4342C337.337 52.4342 338.012 52.6642 338.564 53.1242C339.147 53.5842 339.438 54.3815 339.438 55.5162C339.438 56.6202 339.147 57.4175 338.564 57.9082C338.012 58.3989 337.337 58.6442 336.54 58.6442C335.773 58.6442 335.114 58.3989 334.562 57.9082C334.01 57.4175 333.734 56.6202 333.734 55.5162ZM333.734 35.8282C333.734 34.6629 334.01 33.8502 334.562 33.3902C335.114 32.9302 335.773 32.7002 336.54 32.7002C337.337 32.7002 338.012 32.9302 338.564 33.3902C339.147 33.8502 339.438 34.6629 339.438 35.8282C339.438 36.9322 339.147 37.7295 338.564 38.2202C338.012 38.7109 337.337 38.9562 336.54 38.9562C335.773 38.9562 335.114 38.7109 334.562 38.2202C334.01 37.7295 333.734 36.9322 333.734 35.8282Z" fill="#555555"/>
<path d="M328.018 57.9998H306.306V54.6418L314.908 45.9478C316.564 44.2918 317.959 42.8198 319.094 41.5318C320.228 40.2438 321.087 38.9865 321.67 37.7598C322.252 36.5025 322.544 35.1378 322.544 33.6658C322.544 31.8565 322.007 30.4918 320.934 29.5718C319.86 28.6211 318.465 28.1458 316.748 28.1458C315.153 28.1458 313.742 28.4218 312.516 28.9738C311.32 29.5258 310.093 30.2925 308.836 31.2738L306.674 28.5598C307.532 27.8238 308.468 27.1645 309.48 26.5818C310.522 25.9991 311.642 25.5391 312.838 25.2018C314.064 24.8645 315.368 24.6958 316.748 24.6958C318.802 24.6958 320.566 25.0485 322.038 25.7538C323.51 26.4591 324.644 27.4711 325.442 28.7898C326.27 30.0778 326.684 31.6265 326.684 33.4358C326.684 34.7238 326.484 35.9505 326.086 37.1158C325.687 38.2505 325.12 39.3698 324.384 40.4738C323.648 41.5778 322.758 42.6971 321.716 43.8318C320.673 44.9665 319.523 46.1471 318.266 47.3738L311.412 54.1358V54.3198H328.018V57.9998Z" fill="#555555"/>
<path d="M294.103 57.9998H290.147V35.0458C290.147 34.1564 290.147 33.4051 290.147 32.7918C290.178 32.1784 290.209 31.6111 290.239 31.0898C290.27 30.5378 290.301 29.9704 290.331 29.3878C289.841 29.8784 289.396 30.2924 288.997 30.6298C288.599 30.9671 288.093 31.3964 287.479 31.9178L283.983 34.7698L281.867 32.0558L290.745 25.1558H294.103V57.9998Z" fill="#555555"/>
<path d="M255.83 57.9998H251.874V35.0458C251.874 34.1564 251.874 33.4051 251.874 32.7918C251.904 32.1784 251.935 31.6111 251.966 31.0898C251.996 30.5378 252.027 29.9704 252.058 29.3878C251.567 29.8784 251.122 30.2924 250.724 30.6298C250.325 30.9671 249.819 31.3964 249.206 31.9178L245.71 34.7698L243.594 32.0558L252.472 25.1558H255.83V57.9998Z" fill="#555555"/>
<path d="M235.854 32.8378C235.854 34.3098 235.578 35.5825 235.026 36.6558C234.474 37.7291 233.676 38.6031 232.634 39.2778C231.622 39.9525 230.426 40.4278 229.046 40.7038V40.8878C231.683 41.1945 233.646 42.0225 234.934 43.3718C236.222 44.7211 236.866 46.4845 236.866 48.6618C236.866 50.5631 236.421 52.2651 235.532 53.7678C234.642 55.2398 233.262 56.3898 231.392 57.2178C229.552 58.0458 227.175 58.4598 224.262 58.4598C222.544 58.4598 220.95 58.3218 219.478 58.0458C218.006 57.8005 216.595 57.3405 215.246 56.6658V52.8938C216.626 53.5685 218.113 54.1051 219.708 54.5038C221.302 54.8718 222.836 55.0558 224.308 55.0558C227.252 55.0558 229.368 54.4885 230.656 53.3538C231.974 52.1885 232.634 50.5938 232.634 48.5698C232.634 47.1898 232.266 46.0858 231.53 45.2578C230.824 44.3991 229.782 43.7705 228.402 43.3718C227.022 42.9731 225.366 42.7738 223.434 42.7738H220.26V39.3238H223.48C225.289 39.3238 226.792 39.0631 227.988 38.5418C229.214 38.0205 230.134 37.2998 230.748 36.3798C231.392 35.4291 231.714 34.3405 231.714 33.1138C231.714 31.5191 231.177 30.2925 230.104 29.4338C229.03 28.5445 227.574 28.0998 225.734 28.0998C224.568 28.0998 223.51 28.2225 222.56 28.4678C221.609 28.6825 220.72 29.0045 219.892 29.4338C219.094 29.8325 218.282 30.3078 217.454 30.8598L215.43 28.0998C216.227 27.4865 217.132 26.9191 218.144 26.3978C219.186 25.8765 220.336 25.4625 221.594 25.1558C222.851 24.8491 224.216 24.6958 225.688 24.6958C229.122 24.6958 231.668 25.4625 233.324 26.9958C235.01 28.5291 235.854 30.4765 235.854 32.8378Z" fill="#555555"/>
<path d="M212.713 25.1558L200.477 57.9998H196.521L208.757 25.1558H212.713Z" fill="#555555"/>
<path d="M193.656 57.9998H171.944V54.6418L180.546 45.9478C182.202 44.2918 183.598 42.8198 184.732 41.5318C185.867 40.2438 186.726 38.9865 187.308 37.7598C187.891 36.5025 188.182 35.1378 188.182 33.6658C188.182 31.8565 187.646 30.4918 186.572 29.5718C185.499 28.6211 184.104 28.1458 182.386 28.1458C180.792 28.1458 179.381 28.4218 178.154 28.9738C176.958 29.5258 175.732 30.2925 174.474 31.2738L172.312 28.5598C173.171 27.8238 174.106 27.1645 175.118 26.5818C176.161 25.9991 177.28 25.5391 178.476 25.2018C179.703 24.8645 181.006 24.6958 182.386 24.6958C184.441 24.6958 186.204 25.0485 187.676 25.7538C189.148 26.4591 190.283 27.4711 191.08 28.7898C191.908 30.0778 192.322 31.6265 192.322 33.4358C192.322 34.7238 192.123 35.9505 191.724 37.1158C191.326 38.2505 190.758 39.3698 190.022 40.4738C189.286 41.5778 188.397 42.6971 187.354 43.8318C186.312 44.9665 185.162 46.1471 183.904 47.3738L177.05 54.1358V54.3198H193.656V57.9998Z" fill="#555555"/>
<path d="M159.742 57.9998H155.786V35.0458C155.786 34.1564 155.786 33.4051 155.786 32.7918C155.817 32.1784 155.847 31.6111 155.878 31.0898C155.909 30.5378 155.939 29.9704 155.97 29.3878C155.479 29.8784 155.035 30.2924 154.636 30.6298C154.237 30.9671 153.731 31.3964 153.118 31.9178L149.622 34.7698L147.506 32.0558L156.384 25.1558H159.742V57.9998Z" fill="#555555"/>
<path d="M142.949 25.1558L130.713 57.9998H126.757L138.993 25.1558H142.949Z" fill="#555555"/>
<path d="M112.623 37.8518C114.861 37.8518 116.809 38.2351 118.465 39.0018C120.121 39.7684 121.393 40.8724 122.283 42.3138C123.203 43.7244 123.663 45.4571 123.663 47.5118C123.663 49.7811 123.172 51.7438 122.191 53.3998C121.209 55.0251 119.799 56.2824 117.959 57.1718C116.149 58.0304 113.957 58.4598 111.381 58.4598C109.694 58.4598 108.099 58.3064 106.597 57.9998C105.125 57.6931 103.883 57.2484 102.871 56.6658V52.8478C103.975 53.5224 105.309 54.0591 106.873 54.4578C108.467 54.8258 109.985 55.0098 111.427 55.0098C113.052 55.0098 114.463 54.7644 115.659 54.2738C116.885 53.7524 117.836 52.9704 118.511 51.9278C119.185 50.8544 119.523 49.5204 119.523 47.9258C119.523 45.7791 118.863 44.1384 117.545 43.0038C116.226 41.8384 114.141 41.2558 111.289 41.2558C110.43 41.2558 109.449 41.3324 108.345 41.4858C107.241 41.6391 106.351 41.7924 105.677 41.9458L103.653 40.6578L104.895 25.1558H121.363V28.8358H108.345L107.563 38.3578C108.084 38.2658 108.789 38.1584 109.679 38.0358C110.568 37.9131 111.549 37.8518 112.623 37.8518Z" fill="#555555"/>
<path d="M97.5684 57.9998H75.8564V54.6418L84.4584 45.9478C86.1144 44.2918 87.5098 42.8198 88.6444 41.5318C89.7791 40.2438 90.6378 38.9865 91.2204 37.7598C91.8031 36.5025 92.0944 35.1378 92.0944 33.6658C92.0944 31.8565 91.5578 30.4918 90.4844 29.5718C89.4111 28.6211 88.0158 28.1458 86.2984 28.1458C84.7038 28.1458 83.2931 28.4218 82.0664 28.9738C80.8704 29.5258 79.6438 30.2925 78.3864 31.2738L76.2244 28.5598C77.0831 27.8238 78.0184 27.1645 79.0304 26.5818C80.0731 25.9991 81.1924 25.5391 82.3884 25.2018C83.6151 24.8645 84.9184 24.6958 86.2984 24.6958C88.3531 24.6958 90.1164 25.0485 91.5884 25.7538C93.0604 26.4591 94.1951 27.4711 94.9924 28.7898C95.8204 30.0778 96.2344 31.6265 96.2344 33.4358C96.2344 34.7238 96.0351 35.9505 95.6364 37.1158C95.2378 38.2505 94.6704 39.3698 93.9344 40.4738C93.1984 41.5778 92.3091 42.6971 91.2664 43.8318C90.2238 44.9665 89.0738 46.1471 87.8164 47.3738L80.9624 54.1358V54.3198H97.5684V57.9998Z" fill="#555555"/>
<path d="M71.3821 41.5319C71.3821 44.1999 71.1828 46.5766 70.7841 48.6619C70.3855 50.7472 69.7415 52.5259 68.8521 53.9979C67.9935 55.4392 66.8588 56.5432 65.4481 57.3099C64.0681 58.0766 62.3968 58.4599 60.4341 58.4599C57.9808 58.4599 55.9415 57.7852 54.3161 56.4359C52.7215 55.0866 51.5255 53.1546 50.7281 50.6399C49.9615 48.0946 49.5781 45.0586 49.5781 41.5319C49.5781 37.9746 49.9308 34.9386 50.6361 32.4239C51.3721 29.9092 52.5375 27.9926 54.1321 26.6739C55.7268 25.3246 57.8275 24.6499 60.4341 24.6499C62.8875 24.6499 64.9268 25.3246 66.5521 26.6739C68.1775 27.9926 69.3888 29.9092 70.1861 32.4239C70.9835 34.9386 71.3821 37.9746 71.3821 41.5319ZM53.6261 41.5319C53.6261 44.5372 53.8408 47.0366 54.2701 49.0299C54.7301 51.0232 55.4508 52.5259 56.4321 53.5379C57.4441 54.5192 58.7781 55.0099 60.4341 55.0099C62.0901 55.0099 63.4088 54.5192 64.3901 53.5379C65.4021 52.5566 66.1381 51.0692 66.5981 49.0759C67.0581 47.0519 67.2881 44.5372 67.2881 41.5319C67.2881 38.5266 67.0581 36.0426 66.5981 34.0799C66.1381 32.0866 65.4021 30.5992 64.3901 29.6179C63.4088 28.6059 62.0901 28.0999 60.4341 28.0999C58.7781 28.0999 57.4441 28.6059 56.4321 29.6179C55.4508 30.5992 54.7301 32.0866 54.2701 34.0799C53.8408 36.0426 53.6261 38.5266 53.6261 41.5319Z" fill="#555555"/>
<path d="M44.92 57.9998H23.208V54.6418L31.81 45.9478C33.466 44.2918 34.8613 42.8198 35.996 41.5318C37.1307 40.2438 37.9893 38.9865 38.572 37.7598C39.1547 36.5025 39.446 35.1378 39.446 33.6658C39.446 31.8565 38.9093 30.4918 37.836 29.5718C36.7627 28.6211 35.3673 28.1458 33.65 28.1458C32.0553 28.1458 30.6447 28.4218 29.418 28.9738C28.222 29.5258 26.9953 30.2925 25.738 31.2738L23.576 28.5598C24.4347 27.8238 25.37 27.1645 26.382 26.5818C27.4247 25.9991 28.544 25.5391 29.74 25.2018C30.9667 24.8645 32.27 24.6958 33.65 24.6958C35.7047 24.6958 37.468 25.0485 38.94 25.7538C40.412 26.4591 41.5467 27.4711 42.344 28.7898C43.172 30.0778 43.586 31.6265 43.586 33.4358C43.586 34.7238 43.3867 35.9505 42.988 37.1158C42.5893 38.2505 42.022 39.3698 41.286 40.4738C40.55 41.5778 39.6607 42.6971 38.618 43.8318C37.5753 44.9665 36.4253 46.1471 35.168 47.3738L28.314 54.1358V54.3198H44.92V57.9998Z" fill="#555555"/>
</svg>
