<svg width="580" height="80" viewBox="0 0 580 80" fill="none" xmlns="http://www.w3.org/2000/svg">
<path d="M0 16C0 7.16344 7.16344 0 16 0H564C572.837 0 580 7.16344 580 16V64C580 72.8366 572.837 80 564 80H16C7.16345 80 0 72.8366 0 64V16Z" fill="white"/>
<path d="M564 76V80H16V76H564ZM576 64V16C576 9.37259 570.627 4 564 4H16C9.37258 4 4 9.37258 4 16V64C4 70.6274 9.37258 76 16 76V80C7.30156 80 0.223981 73.0587 0.00488281 64.4131L0 64V16C0 7.30155 6.94127 0.22398 15.5869 0.00488281L16 0H564L564.413 0.00488281C573.059 0.223985 580 7.30156 580 16V64C580 72.8366 572.837 80 564 80V76C570.627 76 576 70.6274 576 64Z" fill="#CECECE"/>
<path d="M535 41.0002C532.983 41.0002 531.257 40.2821 529.821 38.846C528.385 37.4099 527.667 35.6835 527.667 33.6668C527.667 31.6502 528.385 29.9238 529.821 28.4877C531.257 27.0516 532.983 26.3335 535 26.3335C537.017 26.3335 538.743 27.0516 540.179 28.4877C541.615 29.9238 542.333 31.6502 542.333 33.6668C542.333 35.6835 541.615 37.4099 540.179 38.846C538.743 40.2821 537.017 41.0002 535 41.0002ZM520.333 55.6668V50.5335C520.333 49.4946 520.601 48.5397 521.136 47.6689C521.67 46.7981 522.381 46.1335 523.267 45.6752C525.161 44.7279 527.086 44.0175 529.042 43.5439C530.997 43.0703 532.983 42.8335 535 42.8335C537.017 42.8335 539.003 43.0703 540.958 43.5439C542.914 44.0175 544.839 44.7279 546.733 45.6752C547.62 46.1335 548.33 46.7981 548.865 47.6689C549.399 48.5397 549.667 49.4946 549.667 50.5335V55.6668H520.333Z" fill="#555555"/>
<path d="M333.162 32.8838C335.278 32.8838 337.088 33.3438 338.59 34.2638C340.124 35.1838 341.289 36.4871 342.086 38.1738C342.914 39.8298 343.328 41.7771 343.328 44.0158V46.4538H326.446C326.508 49.2445 327.213 51.3758 328.562 52.8478C329.942 54.2891 331.859 55.0098 334.312 55.0098C335.876 55.0098 337.256 54.8718 338.452 54.5958C339.679 54.2891 340.936 53.8598 342.224 53.3078V56.8498C340.967 57.4018 339.725 57.8005 338.498 58.0458C337.272 58.3218 335.815 58.4598 334.128 58.4598C331.798 58.4598 329.728 57.9845 327.918 57.0338C326.14 56.0831 324.744 54.6725 323.732 52.8018C322.751 50.9005 322.26 48.5851 322.26 45.8558C322.26 43.1571 322.705 40.8418 323.594 38.9098C324.514 36.9778 325.787 35.4905 327.412 34.4478C329.068 33.4051 330.985 32.8838 333.162 32.8838ZM333.116 36.1958C331.184 36.1958 329.651 36.8245 328.516 38.0818C327.412 39.3085 326.753 41.0258 326.538 43.2338H339.096C339.096 41.8231 338.882 40.5965 338.452 39.5538C338.023 38.5111 337.364 37.6985 336.474 37.1158C335.616 36.5025 334.496 36.1958 333.116 36.1958Z" fill="#555555"/>
<path d="M307.698 32.8838C310.489 32.8838 312.574 33.6045 313.954 35.0458C315.334 36.4565 316.024 38.7565 316.024 41.9458V57.9998H312.022V42.1298C312.022 40.1978 311.608 38.7411 310.78 37.7598C309.983 36.7785 308.726 36.2878 307.008 36.2878C304.616 36.2878 302.899 36.9778 301.856 38.3578C300.844 39.7378 300.338 41.7465 300.338 44.3838V57.9998H296.336V42.1298C296.336 40.8418 296.152 39.7685 295.784 38.9098C295.416 38.0205 294.864 37.3611 294.128 36.9318C293.392 36.5025 292.442 36.2878 291.276 36.2878C289.62 36.2878 288.317 36.6405 287.366 37.3458C286.416 38.0205 285.726 39.0171 285.296 40.3358C284.898 41.6545 284.698 43.2798 284.698 45.2118V57.9998H280.65V33.3438H283.916L284.514 36.7018H284.744C285.266 35.8431 285.894 35.1378 286.63 34.5858C287.397 34.0031 288.24 33.5738 289.16 33.2978C290.08 33.0218 291.031 32.8838 292.012 32.8838C293.914 32.8838 295.493 33.2211 296.75 33.8958C298.038 34.5705 298.974 35.6131 299.556 37.0238H299.786C300.614 35.6131 301.734 34.5705 303.144 33.8958C304.586 33.2211 306.104 32.8838 307.698 32.8838Z" fill="#555555"/>
<path d="M264.203 32.9302C267.209 32.9302 269.432 33.5895 270.873 34.9082C272.315 36.2268 273.035 38.3275 273.035 41.2102V58.0002H270.091L269.309 54.5042H269.125C268.42 55.3935 267.684 56.1448 266.917 56.7582C266.181 57.3408 265.323 57.7702 264.341 58.0462C263.391 58.3222 262.225 58.4602 260.845 58.4602C259.373 58.4602 258.039 58.1995 256.843 57.6782C255.678 57.1568 254.758 56.3595 254.083 55.2862C253.409 54.1822 253.071 52.8022 253.071 51.1462C253.071 48.6928 254.037 46.8068 255.969 45.4882C257.901 44.1388 260.876 43.4028 264.893 43.2802L269.079 43.1422V41.6702C269.079 39.6155 268.635 38.1895 267.745 37.3922C266.856 36.5948 265.599 36.1962 263.973 36.1962C262.685 36.1962 261.459 36.3955 260.293 36.7942C259.128 37.1622 258.039 37.5915 257.027 38.0822L255.785 35.0462C256.859 34.4635 258.131 33.9728 259.603 33.5742C261.075 33.1448 262.609 32.9302 264.203 32.9302ZM265.399 46.0862C262.333 46.2088 260.201 46.6995 259.005 47.5582C257.84 48.4168 257.257 49.6282 257.257 51.1922C257.257 52.5722 257.671 53.5842 258.499 54.2282C259.358 54.8722 260.447 55.1942 261.765 55.1942C263.851 55.1942 265.583 54.6268 266.963 53.4922C268.343 52.3268 269.033 50.5482 269.033 48.1562V45.9482L265.399 46.0862Z" fill="#555555"/>
<path d="M246.504 57.9998H241.674L224.102 30.7218H223.918C223.948 31.2738 223.979 31.8871 224.01 32.5618C224.071 33.2364 224.117 33.9724 224.148 34.7698C224.178 35.5364 224.209 36.3338 224.24 37.1618C224.27 37.9898 224.286 38.8178 224.286 39.6458V57.9998H220.468V25.1558H225.252L242.778 52.3418H242.962C242.931 51.9738 242.9 51.4678 242.87 50.8238C242.839 50.1491 242.808 49.4131 242.778 48.6158C242.747 47.7878 242.716 46.9444 242.686 46.0858C242.655 45.2271 242.64 44.4298 242.64 43.6938V25.1558H246.504V57.9998Z" fill="#555555"/>
<path d="M212.414 32.8838C212.874 32.8838 213.365 32.9145 213.886 32.9758C214.438 33.0065 214.913 33.0678 215.312 33.1598L214.806 36.8858C214.407 36.7938 213.963 36.7171 213.472 36.6558C213.012 36.5945 212.567 36.5638 212.138 36.5638C211.187 36.5638 210.283 36.7631 209.424 37.1618C208.565 37.5605 207.799 38.1278 207.124 38.8638C206.449 39.5691 205.913 40.4278 205.514 41.4398C205.146 42.4518 204.962 43.5865 204.962 44.8438V57.9998H200.914V33.3438H204.226L204.686 37.8518H204.87C205.391 36.9318 206.02 36.1038 206.756 35.3678C207.492 34.6011 208.335 34.0031 209.286 33.5738C210.237 33.1138 211.279 32.8838 212.414 32.8838Z" fill="#555555"/>
<path d="M184.471 32.8838C186.587 32.8838 188.396 33.3438 189.899 34.2638C191.432 35.1838 192.598 36.4871 193.395 38.1738C194.223 39.8298 194.637 41.7771 194.637 44.0158V46.4538H177.755C177.816 49.2445 178.522 51.3758 179.871 52.8478C181.251 54.2891 183.168 55.0098 185.621 55.0098C187.185 55.0098 188.565 54.8718 189.761 54.5958C190.988 54.2891 192.245 53.8598 193.533 53.3078V56.8498C192.276 57.4018 191.034 57.8005 189.807 58.0458C188.58 58.3218 187.124 58.4598 185.437 58.4598C183.106 58.4598 181.036 57.9845 179.227 57.0338C177.448 56.0831 176.053 54.6725 175.041 52.8018C174.06 50.9005 173.569 48.5851 173.569 45.8558C173.569 43.1571 174.014 40.8418 174.903 38.9098C175.823 36.9778 177.096 35.4905 178.721 34.4478C180.377 33.4051 182.294 32.8838 184.471 32.8838ZM184.425 36.1958C182.493 36.1958 180.96 36.8245 179.825 38.0818C178.721 39.3085 178.062 41.0258 177.847 43.2338H190.405C190.405 41.8231 190.19 40.5965 189.761 39.5538C189.332 38.5111 188.672 37.6985 187.783 37.1158C186.924 36.5025 185.805 36.1958 184.425 36.1958Z" fill="#555555"/>
<path d="M155.388 32.8838C157.013 32.8838 158.47 33.1905 159.758 33.8038C161.077 34.4171 162.196 35.3525 163.116 36.6098H163.346L163.898 33.3438H167.118V58.4138C167.118 60.7445 166.719 62.6918 165.922 64.2558C165.125 65.8505 163.913 67.0465 162.288 67.8438C160.663 68.6411 158.593 69.0398 156.078 69.0398C154.299 69.0398 152.659 68.9018 151.156 68.6258C149.684 68.3805 148.365 67.9971 147.2 67.4758V63.7498C147.997 64.1485 148.871 64.4858 149.822 64.7618C150.773 65.0685 151.8 65.2985 152.904 65.4518C154.008 65.6051 155.143 65.6818 156.308 65.6818C158.424 65.6818 160.08 65.0531 161.276 63.7958C162.503 62.5691 163.116 60.8825 163.116 58.7358V57.7698C163.116 57.4018 163.131 56.8805 163.162 56.2058C163.193 55.5005 163.223 55.0098 163.254 54.7338H163.07C162.211 55.9911 161.138 56.9265 159.85 57.5398C158.593 58.1531 157.121 58.4598 155.434 58.4598C152.245 58.4598 149.745 57.3405 147.936 55.1018C146.157 52.8631 145.268 49.7351 145.268 45.7178C145.268 43.0805 145.667 40.8111 146.464 38.9098C147.292 36.9778 148.457 35.4905 149.96 34.4478C151.463 33.4051 153.272 32.8838 155.388 32.8838ZM155.94 36.2878C154.56 36.2878 153.379 36.6558 152.398 37.3918C151.447 38.1278 150.711 39.2011 150.19 40.6118C149.699 42.0225 149.454 43.7398 149.454 45.7638C149.454 48.7998 150.006 51.1305 151.11 52.7558C152.245 54.3505 153.885 55.1478 156.032 55.1478C157.289 55.1478 158.363 54.9945 159.252 54.6878C160.141 54.3505 160.877 53.8445 161.46 53.1698C162.043 52.4645 162.472 51.5751 162.748 50.5018C163.024 49.4285 163.162 48.1558 163.162 46.6838V45.7178C163.162 43.4791 162.901 41.6698 162.38 40.2898C161.889 38.9098 161.107 37.8978 160.034 37.2538C158.961 36.6098 157.596 36.2878 155.94 36.2878Z" fill="#555555"/>
<path d="M130.201 32.9302C133.207 32.9302 135.43 33.5895 136.871 34.9082C138.313 36.2268 139.033 38.3275 139.033 41.2102V58.0002H136.089L135.307 54.5042H135.123C134.418 55.3935 133.682 56.1448 132.915 56.7582C132.179 57.3408 131.321 57.7702 130.339 58.0462C129.389 58.3222 128.223 58.4602 126.843 58.4602C125.371 58.4602 124.037 58.1995 122.841 57.6782C121.676 57.1568 120.756 56.3595 120.081 55.2862C119.407 54.1822 119.069 52.8022 119.069 51.1462C119.069 48.6928 120.035 46.8068 121.967 45.4882C123.899 44.1388 126.874 43.4028 130.891 43.2802L135.077 43.1422V41.6702C135.077 39.6155 134.633 38.1895 133.743 37.3922C132.854 36.5948 131.597 36.1962 129.971 36.1962C128.683 36.1962 127.457 36.3955 126.291 36.7942C125.126 37.1622 124.037 37.5915 123.025 38.0822L121.783 35.0462C122.857 34.4635 124.129 33.9728 125.601 33.5742C127.073 33.1448 128.607 32.9302 130.201 32.9302ZM131.397 46.0862C128.331 46.2088 126.199 46.6995 125.003 47.5582C123.838 48.4168 123.255 49.6282 123.255 51.1922C123.255 52.5722 123.669 53.5842 124.497 54.2282C125.356 54.8722 126.445 55.1942 127.763 55.1942C129.849 55.1942 131.581 54.6268 132.961 53.4922C134.341 52.3268 135.031 50.5482 135.031 48.1562V45.9482L131.397 46.0862Z" fill="#555555"/>
<path d="M104.296 32.8838C107.24 32.8838 109.463 33.6045 110.966 35.0458C112.468 36.4565 113.22 38.7565 113.22 41.9458V57.9998H109.218V42.2218C109.218 40.2285 108.773 38.7411 107.884 37.7598C106.994 36.7785 105.599 36.2878 103.698 36.2878C100.968 36.2878 99.0824 37.0545 98.0397 38.5878C96.9971 40.1211 96.4757 42.3291 96.4757 45.2118V57.9998H92.4277V33.3438H95.6937L96.2917 36.7018H96.5217C97.0737 35.8431 97.7484 35.1378 98.5457 34.5858C99.3737 34.0031 100.278 33.5738 101.26 33.2978C102.241 33.0218 103.253 32.8838 104.296 32.8838Z" fill="#555555"/>
<path d="M75.9806 32.9302C78.986 32.9302 81.2093 33.5895 82.6506 34.9082C84.092 36.2268 84.8126 38.3275 84.8126 41.2102V58.0002H81.8686L81.0866 54.5042H80.9026C80.1973 55.3935 79.4613 56.1448 78.6946 56.7582C77.9586 57.3408 77.1 57.7702 76.1186 58.0462C75.168 58.3222 74.0026 58.4602 72.6226 58.4602C71.1506 58.4602 69.8166 58.1995 68.6206 57.6782C67.4553 57.1568 66.5353 56.3595 65.8606 55.2862C65.186 54.1822 64.8486 52.8022 64.8486 51.1462C64.8486 48.6928 65.8146 46.8068 67.7466 45.4882C69.6786 44.1388 72.6533 43.4028 76.6706 43.2802L80.8566 43.1422V41.6702C80.8566 39.6155 80.412 38.1895 79.5226 37.3922C78.6333 36.5948 77.376 36.1962 75.7506 36.1962C74.4626 36.1962 73.236 36.3955 72.0706 36.7942C70.9053 37.1622 69.8166 37.5915 68.8046 38.0822L67.5626 35.0462C68.636 34.4635 69.9086 33.9728 71.3806 33.5742C72.8526 33.1448 74.386 32.9302 75.9806 32.9302ZM77.1766 46.0862C74.11 46.2088 71.9786 46.6995 70.7826 47.5582C69.6173 48.4168 69.0346 49.6282 69.0346 51.1922C69.0346 52.5722 69.4486 53.5842 70.2766 54.2282C71.1353 54.8722 72.224 55.1942 73.5426 55.1942C75.628 55.1942 77.3606 54.6268 78.7406 53.4922C80.1206 52.3268 80.8106 50.5482 80.8106 48.1562V45.9482L77.1766 46.0862Z" fill="#555555"/>
<path d="M39.9519 57.9998L29.1419 29.2038H28.9579C29.0192 29.8171 29.0652 30.5991 29.0959 31.5498C29.1572 32.5004 29.2032 33.5431 29.2339 34.6778C29.2646 35.7818 29.2799 36.9164 29.2799 38.0818V57.9998H25.4619V25.1558H31.5799L41.6999 52.0658H41.8839L52.1879 25.1558H58.2599V57.9998H54.1659V37.8058C54.1659 36.7324 54.1812 35.6744 54.2119 34.6318C54.2426 33.5584 54.2886 32.5618 54.3499 31.6418C54.4113 30.6911 54.4573 29.8938 54.4879 29.2498H54.3039L43.3559 57.9998H39.9519Z" fill="#555555"/>
</svg>
